<svg width="406" height="312" viewBox="0 0 406 312" fill="none" xmlns="http://www.w3.org/2000/svg">
<g clip-path="url(#clip0)">
<path d="M293.917 303.992C270.031 303.992 250.667 284.61 250.667 260.702C250.667 236.793 270.031 217.411 293.917 217.411C317.804 217.411 337.168 236.793 337.168 260.702C337.168 284.61 317.804 303.992 293.917 303.992Z" fill="white"/>
<path d="M345.463 268.861C321.576 268.861 302.212 249.479 302.212 225.57C302.212 201.661 321.576 182.28 345.463 182.28C369.349 182.28 388.713 201.661 388.713 225.57C388.713 249.479 369.349 268.861 345.463 268.861Z" fill="white"/>
<path d="M108.651 248.526C108.651 248.526 113.782 261.868 113.782 270.603C113.782 271.563 113.686 272.475 113.446 273.387H103.952C103.665 272.475 103.521 271.563 103.521 270.603C103.521 261.868 108.651 248.526 108.651 248.526Z" fill="#9F5744"/>
<path d="M116.247 255.091C116.247 255.091 119.987 264.93 119.987 271.361C119.987 272.033 119.939 272.753 119.747 273.425H112.747C112.555 272.753 112.459 272.081 112.459 271.361C112.507 264.882 116.247 255.091 116.247 255.091Z" fill="#9F5744"/>
<path d="M48.4245 251.915C48.4245 251.915 52.8359 263.434 52.8359 270.969C52.8359 271.785 52.74 272.601 52.5482 273.369H44.3488C44.0611 272.601 43.9653 271.785 43.9653 270.969C43.9653 263.434 48.4245 251.915 48.4245 251.915Z" fill="#9FA437"/>
<path d="M212.931 267.469C202.841 267.469 194.662 259.282 194.662 249.183C194.662 239.084 202.841 230.897 212.931 230.897C223.02 230.897 231.199 239.084 231.199 249.183C231.199 259.282 223.02 267.469 212.931 267.469Z" fill="#64893B"/>
<path d="M228.802 276.444C218.712 276.444 210.533 268.257 210.533 258.158C210.533 248.059 218.712 239.872 228.802 239.872C238.892 239.872 247.071 248.059 247.071 258.158C247.071 268.257 238.892 276.444 228.802 276.444Z" fill="#64893B"/>
<path d="M89.0295 279.803C78.94 279.803 70.7608 271.616 70.7608 261.518C70.7608 251.419 78.94 243.232 89.0295 243.232C99.119 243.232 107.298 251.419 107.298 261.518C107.298 271.616 99.119 279.803 89.0295 279.803Z" fill="#64893B"/>
<path d="M30.2915 266.605C20.202 266.605 12.0228 258.418 12.0228 248.319C12.0228 238.22 20.202 230.034 30.2915 230.034C40.3811 230.034 48.5603 238.22 48.5603 248.319C48.5603 258.418 40.3811 266.605 30.2915 266.605Z" fill="#64893B"/>
<path d="M51.1495 272.412C41.06 272.412 32.8808 264.225 32.8808 254.126C32.8808 244.028 41.06 235.841 51.1495 235.841C61.2391 235.841 69.4183 244.028 69.4183 254.126C69.4183 264.225 61.2391 272.412 51.1495 272.412Z" fill="#64893B"/>
<path d="M118.135 263.725C113.633 263.725 109.983 260.072 109.983 255.566C109.983 251.06 113.633 247.407 118.135 247.407C122.637 247.407 126.286 251.06 126.286 255.566C126.286 260.072 122.637 263.725 118.135 263.725Z" fill="#86A13C"/>
<path d="M129.834 266.269C125.333 266.269 121.683 262.616 121.683 258.11C121.683 253.604 125.333 249.951 129.834 249.951C134.336 249.951 137.986 253.604 137.986 258.11C137.986 262.616 134.336 266.269 129.834 266.269Z" fill="#86A13C"/>
<path d="M320.625 250.959H356.539V254.51H320.625V250.959Z" fill="#284C98"/>
<path d="M104.086 264.157C97.5182 264.157 92.1942 258.828 92.1942 252.255C92.1942 245.681 97.5182 240.352 104.086 240.352C110.653 240.352 115.977 245.681 115.977 252.255C115.977 258.828 110.653 264.157 104.086 264.157Z" fill="#86A13C"/>
<path d="M151.987 266.077C146.876 266.077 142.733 261.93 142.733 256.814C142.733 251.698 146.876 247.551 151.987 247.551C157.098 247.551 161.241 251.698 161.241 256.814C161.241 261.93 157.098 266.077 151.987 266.077Z" fill="#86A13C"/>
<path d="M163.831 261.758C158.72 261.758 154.576 257.61 154.576 252.495C154.576 247.379 158.72 243.232 163.831 243.232C168.942 243.232 173.085 247.379 173.085 252.495C173.085 257.61 168.942 261.758 163.831 261.758Z" fill="#86A13C"/>
<path d="M178.647 266.125C173.536 266.125 169.393 261.978 169.393 256.862C169.393 251.746 173.536 247.599 178.647 247.599C183.758 247.599 187.901 251.746 187.901 256.862C187.901 261.978 183.758 266.125 178.647 266.125Z" fill="#86A13C"/>
<path d="M189.483 260.462C184.373 260.462 180.229 256.315 180.229 251.199C180.229 246.083 184.373 241.936 189.483 241.936C194.594 241.936 198.738 246.083 198.738 251.199C198.738 256.315 194.594 260.462 189.483 260.462Z" fill="#86A13C"/>
<path d="M40.217 268.285C33.0669 268.285 27.2707 262.483 27.2707 255.326C27.2707 248.17 33.0669 242.368 40.217 242.368C47.3671 242.368 53.1633 248.17 53.1633 255.326C53.1633 262.483 47.3671 268.285 40.217 268.285Z" fill="#86A13C"/>
<path d="M21.6127 269.773C14.4891 269.773 8.71431 263.992 8.71431 256.862C8.71431 249.732 14.4891 243.952 21.6127 243.952C28.7363 243.952 34.511 249.732 34.511 256.862C34.511 263.992 28.7363 269.773 21.6127 269.773Z" fill="#86A13C"/>
<path d="M201.663 266.077C196.552 266.077 192.408 261.93 192.408 256.814C192.408 251.698 196.552 247.551 201.663 247.551C206.774 247.551 210.917 251.698 210.917 256.814C210.917 261.93 206.774 266.077 201.663 266.077Z" fill="#86A13C"/>
<path d="M212.979 268.381C207.868 268.381 203.724 264.234 203.724 259.118C203.724 254.002 207.868 249.855 212.979 249.855C218.09 249.855 222.233 254.002 222.233 259.118C222.233 264.234 218.09 268.381 212.979 268.381Z" fill="#86A13C"/>
<path d="M316.645 276.252C305.046 276.252 295.643 266.84 295.643 255.23C295.643 243.621 305.046 234.209 316.645 234.209C328.244 234.209 337.647 243.621 337.647 255.23C337.647 266.84 328.244 276.252 316.645 276.252Z" fill="#64893B"/>
<path d="M341.099 283.931C329.5 283.931 320.098 274.519 320.098 262.909C320.098 251.3 329.5 241.888 341.099 241.888C352.698 241.888 362.101 251.3 362.101 262.909C362.101 274.519 352.698 283.931 341.099 283.931Z" fill="#86A13C"/>
<path d="M386.651 262.189C383.924 262.189 381.713 259.976 381.713 257.246C381.713 254.516 383.924 252.303 386.651 252.303C389.379 252.303 391.59 254.516 391.59 257.246C391.59 259.976 389.379 262.189 386.651 262.189Z" fill="#86A13C"/>
<path d="M208.855 235.649C216.863 239.056 220.555 248.319 217.15 256.334H173.516C174.284 248.271 181.044 242.08 189.148 242.08H189.292C192.073 237.281 197.203 234.353 202.765 234.401C204.827 234.401 206.937 234.833 208.855 235.649Z" fill="#86A13C"/>
<path d="M324.221 256.334H294.061C295.979 249.615 302.117 245.008 309.117 245.008C316.118 245.008 322.255 249.615 324.221 256.334Z" fill="#86A13C"/>
<path d="M306.528 252.735C306.528 253.983 306.288 255.182 305.857 256.334H267.353C268.025 253.071 270.854 250.767 274.162 250.767C275.601 250.767 276.991 251.199 278.19 252.015C279.437 249.855 281.738 248.559 284.184 248.559C285.047 248.559 285.91 248.703 286.725 249.039C288.211 245.056 291.999 242.464 296.267 242.464C301.877 242.512 306.48 247.071 306.528 252.735Z" fill="#86A13C"/>
<path d="M262.99 256.382H195.046C195.189 255.902 195.381 255.422 195.621 254.99C197.635 251.103 202.43 249.615 206.314 251.631C208.519 248.991 212.211 248.031 215.376 249.327C216.143 247.119 217.822 245.344 219.979 244.48C224.055 242.848 228.706 244.864 230.288 248.943C230.912 248.799 231.535 248.703 232.158 248.703C234.028 248.703 235.851 249.375 237.289 250.575C238.344 247.263 241.413 244.96 244.913 244.96C247.886 244.96 250.619 246.639 252.009 249.279C252.968 248.847 254.023 248.655 255.078 248.655C259.346 248.751 262.846 252.111 262.99 256.382Z" fill="#86A13C"/>
<path d="M97.7563 255.518C97.7563 255.758 97.7083 256.046 97.7083 256.286H49.2795C51.3413 250.623 57.1911 246.543 64.0958 246.543C65.9179 246.543 67.74 246.831 69.5141 247.455C72.2952 243.808 76.9462 241.456 82.2207 241.456C90.8036 241.456 97.7563 247.743 97.7563 255.518Z" fill="#86A13C"/>
<path d="M155.123 166.8V292.784H91.0146V166.8H155.123Z" fill="#8E0F1B"/>
<path d="M133.044 200.598H141.867V271.101H133.044V200.598Z" fill="#8E0F1B"/>
<path d="M118.482 200.598H127.305V271.101H118.482V200.598Z" fill="#8E0F1B"/>
<path d="M103.92 200.598H112.742V271.101H103.92V200.598Z" fill="#8E0F1B"/>
<g opacity="0.2">
<path opacity="0.2" d="M88.1238 165.147H97.8575V292.81H88.1238V165.147Z" fill="#231F20"/>
</g>
<path d="M91.0625 194.521H155.171V197.593H91.0625V194.521Z" fill="#284C98"/>
<path d="M91.0625 190.692H155.171V194.532H91.0625V190.692Z" fill="#1D3878"/>
<path d="M91.0625 177.931H155.171V181.003H91.0625V177.931Z" fill="#284C98"/>
<path d="M91.0625 174.102H155.171V177.941H91.0625V174.102Z" fill="#1D3878"/>
<path d="M104.488 201.265H112.112V223.342H104.488V201.265Z" fill="#5F86A1"/>
<path d="M104.488 212.027H112.112V223.306H104.488V212.027Z" fill="#58A5DB"/>
<path d="M103.92 200.598H112.79V223.971H103.92V200.598ZM105.166 222.724H111.496V201.942H105.166V222.724Z" fill="#1D3878"/>
<path d="M102.154 222.754H114.189V224.05H102.154V222.754Z" fill="#284C98"/>
<path d="M104.488 242.294H112.112V264.372H104.488V242.294Z" fill="#5F86A1"/>
<path d="M104.488 252.356H112.112V264.354H104.488V252.356Z" fill="#58A5DB"/>
<path d="M103.92 241.628H112.79V265.001H103.92V241.628ZM105.166 263.706H111.496V242.924H105.166V263.706Z" fill="#1D3878"/>
<path d="M102.154 263.713H114.189V265.009H102.154V263.713Z" fill="#284C98"/>
<path d="M119.051 201.265H126.675V223.342H119.051V201.265Z" fill="#5F86A1"/>
<path d="M119.051 212.027H126.675V223.306H119.051V212.027Z" fill="#58A5DB"/>
<path d="M118.422 200.598H127.292V223.971H118.422V200.598ZM119.668 222.724H125.998V201.942H119.668V222.724Z" fill="#1D3878"/>
<path d="M116.982 222.754H128.778V224.05H116.982V222.754Z" fill="#284C98"/>
<path d="M119.051 242.294H126.675V264.372H119.051V242.294Z" fill="#5F86A1"/>
<path d="M119.051 252.356H126.675V264.354H119.051V252.356Z" fill="#58A5DB"/>
<path d="M118.422 241.628H127.292V265.001H118.422V241.628ZM119.668 263.706H125.998V242.924H119.668V263.706Z" fill="#1D3878"/>
<path d="M116.982 263.713H128.778V265.009H116.982V263.713Z" fill="#284C98"/>
<path d="M133.6 201.265H141.224V223.342H133.6V201.265Z" fill="#5F86A1"/>
<path d="M133.6 212.027H141.224V223.306H133.6V212.027Z" fill="#58A5DB"/>
<path d="M132.984 200.598H141.854V223.971H132.984V200.598ZM134.231 222.724H140.56V201.942H134.231V222.724Z" fill="#1D3878"/>
<path d="M131.484 222.754H143.28V224.05H131.484V222.754Z" fill="#284C98"/>
<path d="M133.6 242.294H141.224V264.372H133.6V242.294Z" fill="#5F86A1"/>
<path d="M133.6 252.356H141.224V264.354H133.6V252.356Z" fill="#58A5DB"/>
<path d="M132.984 241.628H141.854V265.001H132.984V241.628ZM134.231 263.706H140.56V242.924H134.231V263.706Z" fill="#1D3878"/>
<path d="M131.484 263.713H143.28V265.009H131.484V263.713Z" fill="#284C98"/>
<path d="M91.0625 164.956H155.171V168.652H91.0625V164.956Z" fill="#1D3878"/>
<path d="M92.1079 157.333V292.82H5.07976V157.333H19.7043H92.1079Z" fill="#E44D33"/>
<path d="M0.411369 155.49H96.9815V159.185H0.411369V155.49Z" fill="#284C98"/>
<path d="M67.7319 213.8H77.3217V270.096H67.7319V213.8Z" fill="#BB2629"/>
<path d="M3.77364 187.184H93.439V190.495H3.77364V187.184Z" fill="#284C98"/>
<path d="M-3.05176e-05 183.021H97.1454V187.197H-3.05176e-05V183.021Z" fill="#365CAA"/>
<path d="M3.77364 169.309H93.439V172.621H3.77364V169.309Z" fill="#284C98"/>
<path d="M-3.05176e-05 165.147H97.1454V169.322H-3.05176e-05V165.147Z" fill="#365CAA"/>
<path d="M68.4214 194.819H76.6207V218.624H68.4214V194.819Z" fill="#B6E3FA"/>
<path d="M68.4214 206.39H76.6207V218.581H68.4214V206.39Z" fill="#406DB5"/>
<path d="M67.7319 194.117H77.3217V219.314H67.7319V194.117ZM69.1224 217.922H75.9312V195.509H69.1224V217.922Z" fill="#365CAA"/>
<path d="M66.2075 217.926H78.9141V219.318H66.2075V217.926Z" fill="#284C98"/>
<path d="M68.4214 239.012H76.6207V262.817H68.4214V239.012Z" fill="#B6E3FA"/>
<path d="M68.4214 249.846H76.6207V262.804H68.4214V249.846Z" fill="#406DB5"/>
<path d="M67.7319 238.31H77.3217V263.507H67.7319V238.31ZM69.1224 262.115H75.9312V239.702H69.1224V262.115Z" fill="#365CAA"/>
<path d="M66.2075 262.131H78.9141V263.523H66.2075V262.131Z" fill="#284C98"/>
<path d="M51.9359 213.8H61.5258V270.096H51.9359V213.8Z" fill="#BB2629"/>
<path d="M52.6129 194.819H60.8123V218.624H52.6129V194.819Z" fill="#B6E3FA"/>
<path d="M52.6129 206.39H60.8123V218.581H52.6129V206.39Z" fill="#406DB5"/>
<path d="M51.9838 194.117H61.5737V219.314H51.9838V194.117ZM53.3264 217.922H60.1352V195.509H53.3264V217.922Z" fill="#365CAA"/>
<path d="M50.3991 217.926H63.1057V219.318H50.3991V217.926Z" fill="#284C98"/>
<path d="M52.6129 239.012H60.8123V262.817H52.6129V239.012Z" fill="#B6E3FA"/>
<path d="M52.6129 249.846H60.8123V262.804H52.6129V249.846Z" fill="#406DB5"/>
<path d="M51.9838 238.31H61.5737V263.507H51.9838V238.31ZM53.3264 262.115H60.1352V239.702H53.3264V262.115Z" fill="#365CAA"/>
<path d="M50.3991 262.131H63.1057V263.523H50.3991V262.131Z" fill="#284C98"/>
<path d="M36.1275 213.8H45.7174V270.096H36.1275V213.8Z" fill="#BB2629"/>
<path d="M36.8174 194.819H45.0168V218.624H36.8174V194.819Z" fill="#B6E3FA"/>
<path d="M36.8174 206.39H45.0168V218.581H36.8174V206.39Z" fill="#406DB5"/>
<path d="M36.1279 194.117H45.7178V219.314H36.1279V194.117ZM37.4705 217.922H44.3272V195.509H37.5184L37.4705 217.922Z" fill="#365CAA"/>
<path d="M34.5432 217.926H47.2497V219.318H34.5432V217.926Z" fill="#284C98"/>
<path d="M36.8174 239.012H45.0168V262.817H36.8174V239.012Z" fill="#B6E3FA"/>
<path d="M36.8174 249.846H45.0168V262.804H36.8174V249.846Z" fill="#406DB5"/>
<path d="M36.1279 238.31H45.7178V263.507H36.1279V238.31ZM37.4705 262.115H44.3272V239.702H37.5184L37.4705 262.115Z" fill="#365CAA"/>
<path d="M34.5432 262.131H47.2497V263.523H34.5432V262.131Z" fill="#284C98"/>
<path d="M20.2715 213.8H29.8614V270.096H20.2715V213.8Z" fill="#BB2629"/>
<path d="M20.961 194.819H29.1604V218.624H20.961V194.819Z" fill="#B6E3FA"/>
<path d="M20.961 206.39H29.1604V218.581H20.961V206.39Z" fill="#406DB5"/>
<path d="M20.3195 194.117H29.9094V219.314H20.3195V194.117ZM21.6621 195.509V217.922H28.4709V195.509H21.6621Z" fill="#365CAA"/>
<path d="M18.7472 217.926H31.4538V219.318H18.7472V217.926Z" fill="#284C98"/>
<path d="M20.961 239.012H29.1604V262.817H20.961V239.012Z" fill="#B6E3FA"/>
<path d="M20.961 249.846H29.1604V262.804H20.961V249.846Z" fill="#406DB5"/>
<path d="M20.3195 238.31H29.9094V263.507H20.3195V238.31ZM21.6621 239.654V262.067H28.4709V239.654H21.6621Z" fill="#365CAA"/>
<path d="M18.7472 262.131H31.4538V263.523H18.7472V262.131Z" fill="#284C98"/>
<path d="M5.12769 194.819H20.3276V196.067H5.12769V194.819Z" fill="#BB2629"/>
<path d="M5.12769 199.826H20.3276V201.074H5.12769V199.826Z" fill="#BB2629"/>
<path d="M5.12769 204.88H20.3276V206.128H5.12769V204.88Z" fill="#BB2629"/>
<path d="M5.12769 209.935H20.3276V211.182H5.12769V209.935Z" fill="#BB2629"/>
<path d="M5.12769 214.941H20.3276V216.189H5.12769V214.941Z" fill="#BB2629"/>
<path d="M5.12769 219.996H20.3276V221.244H5.12769V219.996Z" fill="#BB2629"/>
<path d="M5.12769 225.002H20.3276V226.25H5.12769V225.002Z" fill="#BB2629"/>
<path d="M5.12769 230.057H20.3276V231.305H5.12769V230.057Z" fill="#BB2629"/>
<path d="M5.12769 235.112H20.3276V236.36H5.12769V235.112Z" fill="#BB2629"/>
<path d="M5.12769 240.118H20.3276V241.366H5.12769V240.118Z" fill="#BB2629"/>
<path d="M5.12769 245.208H20.3276V246.456H5.12769V245.208Z" fill="#BB2629"/>
<path d="M5.12769 250.215H20.3276V251.463H5.12769V250.215Z" fill="#BB2629"/>
<path d="M5.12769 255.27H20.3276V256.517H5.12769V255.27Z" fill="#BB2629"/>
<path d="M5.12769 260.324H20.3276V261.572H5.12769V260.324Z" fill="#BB2629"/>
<path d="M5.12769 265.331H20.3276V266.578H5.12769V265.331Z" fill="#BB2629"/>
<path d="M77.1894 194.819H92.1016V196.067H77.1894V194.819Z" fill="#BB2629"/>
<path d="M77.1894 199.826H92.1016V201.074H77.1894V199.826Z" fill="#BB2629"/>
<path d="M77.1894 204.88H92.1016V206.128H77.1894V204.88Z" fill="#BB2629"/>
<path d="M77.1894 209.935H92.1016V211.182H77.1894V209.935Z" fill="#BB2629"/>
<path d="M77.1894 214.941H92.1016V216.189H77.1894V214.941Z" fill="#BB2629"/>
<path d="M77.1894 219.996H92.1016V221.244H77.1894V219.996Z" fill="#BB2629"/>
<path d="M77.1894 225.002H92.1016V226.25H77.1894V225.002Z" fill="#BB2629"/>
<path d="M77.1894 230.093H92.1016V231.34H77.1894V230.093Z" fill="#BB2629"/>
<path d="M77.1894 235.147H92.1016V236.395H77.1894V235.147Z" fill="#BB2629"/>
<path d="M77.1894 240.154H92.1016V241.402H77.1894V240.154Z" fill="#BB2629"/>
<path d="M77.1894 245.208H92.1016V246.456H77.1894V245.208Z" fill="#BB2629"/>
<path d="M77.1894 250.215H92.1016V251.463H77.1894V250.215Z" fill="#BB2629"/>
<path d="M77.1894 255.27H92.1016V256.517H77.1894V255.27Z" fill="#BB2629"/>
<path d="M77.1894 260.324H92.1016V261.572H77.1894V260.324Z" fill="#BB2629"/>
<path d="M77.1894 265.331H92.1016V266.578H77.1894V265.331Z" fill="#BB2629"/>
<path d="M314.957 166.8V292.784H250.849V166.8H314.957Z" fill="#8E0F1B"/>
<path d="M264.117 200.598H272.94V271.101H264.117V200.598Z" fill="#8E0F1B"/>
<path d="M278.679 200.598H287.502V271.101H278.679V200.598Z" fill="#8E0F1B"/>
<path d="M293.182 200.598H302.004V271.101H293.182V200.598Z" fill="#8E0F1B"/>
<path d="M250.849 194.521H314.957V197.593H250.849V194.521Z" fill="#284C98"/>
<path d="M250.849 190.692H314.957V194.532H250.849V190.692Z" fill="#1D3878"/>
<path d="M250.849 177.931H314.957V181.003H250.849V177.931Z" fill="#284C98"/>
<path d="M250.849 174.102H314.957V177.941H250.849V174.102Z" fill="#1D3878"/>
<path d="M293.798 201.265H301.422V223.342H293.798V201.265Z" fill="#5F86A1"/>
<path d="M293.798 212.027H301.422V223.306H293.798V212.027Z" fill="#58A5DB"/>
<path d="M293.181 200.598H302.052V223.971H293.181V200.598ZM294.476 222.724H300.805V201.942H294.476V222.724Z" fill="#1D3878"/>
<path d="M291.682 222.754H304.005V224.05H291.682V222.754Z" fill="#284C98"/>
<path d="M293.798 242.294H301.422V264.372H293.798V242.294Z" fill="#5F86A1"/>
<path d="M293.798 252.356H301.422V264.354H293.798V252.356Z" fill="#58A5DB"/>
<path d="M293.181 241.628H302.052V265.001H293.181V241.628ZM294.476 263.706H300.805V242.924H294.476V263.706Z" fill="#1D3878"/>
<path d="M291.682 263.713H304.005V265.009H291.682V263.713Z" fill="#284C98"/>
<path d="M279.248 201.265H286.872V223.342H279.248V201.265Z" fill="#5F86A1"/>
<path d="M279.248 212.027H286.872V223.306H279.248V212.027Z" fill="#58A5DB"/>
<path d="M278.619 200.598H287.49V223.971H278.619V200.598ZM279.914 222.724H286.243V201.942H279.914V222.724Z" fill="#1D3878"/>
<path d="M277.18 222.754H288.976V224.05H277.18V222.754Z" fill="#284C98"/>
<path d="M279.248 242.294H286.872V264.372H279.248V242.294Z" fill="#5F86A1"/>
<path d="M279.248 252.356H286.872V264.354H279.248V252.356Z" fill="#58A5DB"/>
<path d="M278.619 241.628H287.49V265.001H278.619V241.628ZM279.914 263.706H286.243V242.924H279.914V263.706Z" fill="#1D3878"/>
<path d="M277.18 263.713H288.976V265.009H277.18V263.713Z" fill="#284C98"/>
<path d="M264.686 201.265H272.31V223.342H264.686V201.265Z" fill="#5F86A1"/>
<path d="M264.686 212.027H272.31V223.306H264.686V212.027Z" fill="#58A5DB"/>
<path d="M264.117 200.598H272.988V223.971H264.117V200.598ZM265.364 222.724H271.693V201.942H265.364V222.724Z" fill="#1D3878"/>
<path d="M262.618 222.754H274.413V224.05H262.618V222.754Z" fill="#284C98"/>
<path d="M264.686 242.294H272.31V264.372H264.686V242.294Z" fill="#5F86A1"/>
<path d="M264.686 252.356H272.31V264.354H264.686V252.356Z" fill="#58A5DB"/>
<path d="M264.117 241.628H272.988V265.001H264.117V241.628ZM265.364 263.706H271.693V242.924H265.364V263.706Z" fill="#1D3878"/>
<path d="M262.618 263.713H274.413V265.009H262.618V263.713Z" fill="#284C98"/>
<path d="M250.849 164.956H314.957V168.652H250.849V164.956Z" fill="#1D3878"/>
<g opacity="0.2">
<path opacity="0.2" d="M248.188 165.147H257.922V292.81H248.188V165.147Z" fill="#231F20"/>
</g>
<path d="M236.474 157.288H251.099V292.775H154.912V157.288H168.146V151.721H181.86V146.154H222.761V151.721H236.474V157.288Z" fill="#E44D33"/>
<path d="M231.086 194.379H240.676V270.257H231.086V194.379Z" fill="#BB2629"/>
<path d="M165.145 194.379H174.735V270.257H165.145V194.379Z" fill="#BB2629"/>
<path d="M238.311 155.445H256.196V159.093H234.667V153.574H221.002V148.006H183.745V153.574H170.031V159.093H149.893V155.445H166.387V149.878H180.053V144.311H224.646V149.878H238.311V155.445Z" fill="#365CAA"/>
<path d="M188.488 241.082H194.961V270.118H188.488V241.082Z" fill="#284C98"/>
<path d="M192.261 241.117H193.891V270.154H192.261V241.117Z" fill="#365CAA"/>
<path d="M189.648 241.117H191.279V270.154H189.648V241.117Z" fill="#365CAA"/>
<path d="M189.648 265.117H191.279V270.156H189.648V265.117Z" fill="#284C98"/>
<path d="M192.261 265.117H193.891V270.156H192.261V265.117Z" fill="#284C98"/>
<path d="M189.648 241.117H191.279V244.573H189.648V241.117Z" fill="#284C98"/>
<path d="M192.261 241.117H193.891V244.573H192.261V241.117Z" fill="#284C98"/>
<path d="M188.488 267.174H195.009V270.102H188.488V267.174Z" fill="#365CAA"/>
<path d="M188.488 239.012H194.961V241.94H188.488V239.012Z" fill="#365CAA"/>
<path d="M211.312 241.082H217.785V270.118H211.312V241.082Z" fill="#284C98"/>
<path d="M215.145 241.117H216.775V270.154H215.145V241.117Z" fill="#365CAA"/>
<path d="M212.472 241.117H214.103V270.154H212.472V241.117Z" fill="#365CAA"/>
<path d="M212.472 265.117H214.103V270.156H212.472V265.117Z" fill="#284C98"/>
<path d="M215.145 265.117H216.775V270.156H215.145V265.117Z" fill="#284C98"/>
<path d="M212.472 241.117H214.103V244.573H212.472V241.117Z" fill="#284C98"/>
<path d="M215.145 241.117H216.775V244.573H215.145V241.117Z" fill="#284C98"/>
<path d="M211.312 267.174H217.833V270.102H211.312V267.174Z" fill="#365CAA"/>
<path d="M211.312 239.012H217.833V241.94H211.312V239.012Z" fill="#365CAA"/>
<path d="M188.488 237.728H217.833V239.024H188.488V237.728Z" fill="#284C98"/>
<path d="M188.488 235.111H217.833V236.407H188.488V235.111Z" fill="#284C98"/>
<path d="M188.488 236.396H217.833V237.691H188.488V236.396Z" fill="#365CAA"/>
<path d="M187.678 233.815H218.893V235.063H187.678V233.815Z" fill="#365CAA"/>
<path d="M220.515 192.975H227.852V270.102H220.515V192.975Z" fill="#DB8D78"/>
<path d="M220.515 265.117H227.852V270.156H220.515V265.117Z" fill="#CC6662"/>
<path d="M220.515 192.975H227.852V196.431H220.515V192.975Z" fill="#CC6662"/>
<path d="M219.257 267.174H229.231V270.102H219.257V267.174Z" fill="#DB8D78"/>
<path d="M219.257 190.502H229.231V193.813H219.257V190.502Z" fill="#DB8D78"/>
<path d="M243.798 192.975H251.134V270.102H243.798V192.975Z" fill="#DB8D78"/>
<path d="M243.798 265.117H251.134V270.156H243.798V265.117Z" fill="#CC6662"/>
<path d="M243.798 192.975H251.134V196.431H243.798V192.975Z" fill="#CC6662"/>
<path d="M242.479 267.174H252.453V270.102H242.479V267.174Z" fill="#DB8D78"/>
<path d="M242.479 190.502H252.453V193.813H242.479V190.502Z" fill="#DB8D78"/>
<path d="M154.912 192.975H162.249V270.102H154.912V192.975Z" fill="#DB8D78"/>
<path d="M154.912 265.117H162.249V270.156H154.912V265.117Z" fill="#CC6662"/>
<path d="M154.912 192.975H162.249V196.431H154.912V192.975Z" fill="#CC6662"/>
<path d="M153.654 267.174H163.628V270.102H153.654V267.174Z" fill="#DB8D78"/>
<path d="M153.654 190.502H163.628V193.813H153.654V190.502Z" fill="#DB8D78"/>
<path d="M178.183 192.975H185.519V270.102H178.183V192.975Z" fill="#DB8D78"/>
<path d="M178.183 265.117H185.519V270.156H178.183V265.117Z" fill="#CC6662"/>
<path d="M178.183 192.975H185.519V196.431H178.183V192.975Z" fill="#CC6662"/>
<path d="M176.877 267.174H186.85V270.102H176.877V267.174Z" fill="#DB8D78"/>
<path d="M176.877 190.502H186.85V193.813H176.877V190.502Z" fill="#DB8D78"/>
<path d="M194.946 239.012H211.345V270.112H194.946V239.012Z" fill="#1D3878"/>
<path d="M209.78 246.847V270.076H196.882V246.847C196.882 246.847 196.882 246.847 196.882 246.799C196.882 243.247 199.759 240.416 203.307 240.416C206.903 240.416 209.78 243.295 209.78 246.847Z" fill="#284C98"/>
<path d="M208.165 247.022V270.155H198.575V247.022C198.575 244.383 200.732 242.223 203.37 242.223C205.959 242.223 208.117 244.335 208.165 247.022Z" fill="#4F3730"/>
<path d="M198.575 250.512H208.165V270.142H198.575V250.512Z" fill="#BB2629"/>
<path d="M198.527 250.512H203.322V270.142H198.527V250.512Z" fill="#8E0F1B"/>
<path d="M204.961 252.249H206.543V260.168H204.961V252.249Z" fill="#828F96"/>
<path d="M199.953 252.249H201.536V260.168H199.953V252.249Z" fill="#828F96"/>
<path d="M204.961 256.304H206.543V260.143H204.961V256.304Z" fill="#406DB5"/>
<path d="M199.953 256.304H201.536V260.143H199.953V256.304Z" fill="#406DB5"/>
<path d="M203.16 226.108L217.833 230.716V233.835H188.488V230.716L203.16 226.108Z" fill="#284C98"/>
<path d="M203.025 225.406L219.136 230.35L218.704 231.646L202.977 226.798L187.106 231.742L186.674 230.446L203.025 225.406Z" fill="#365CAA"/>
<path d="M153.606 187.184H252.43V190.495H153.606V187.184Z" fill="#284C98"/>
<path d="M149.881 183.021H256.184V187.197H149.881V183.021Z" fill="#365CAA"/>
<path d="M153.606 169.309H252.43V172.621H153.606V169.309Z" fill="#284C98"/>
<path d="M149.881 165.147H256.184V169.322H149.881V165.147Z" fill="#365CAA"/>
<path d="M231.776 194.819H239.975V218.624H231.776V194.819Z" fill="#B6E3FA"/>
<path d="M231.776 206.39H239.975V218.581H231.776V206.39Z" fill="#406DB5"/>
<path d="M231.086 194.117H240.676V219.314H231.086V194.117ZM232.429 217.922H239.238V195.509H232.429V217.922Z" fill="#365CAA"/>
<path d="M229.562 217.926H242.269V219.318H229.562V217.926Z" fill="#284C98"/>
<path d="M191.935 194.819H200.134V218.624H191.935V194.819Z" fill="#B6E3FA"/>
<path d="M191.935 206.39H200.134V218.581H191.935V206.39Z" fill="#406DB5"/>
<path d="M191.246 194.117H200.835V219.314H191.246V194.117ZM192.636 195.509V217.922H199.445V195.509H192.636Z" fill="#365CAA"/>
<path d="M189.721 217.926H207.367V219.318H189.721V217.926Z" fill="#284C98"/>
<path d="M205.675 194.819H213.874V218.624H205.675V194.819Z" fill="#B6E3FA"/>
<path d="M205.675 206.39H213.874V218.581H205.675V206.39Z" fill="#406DB5"/>
<path d="M204.986 194.117H214.575V219.314H204.986V194.117ZM206.376 217.922H213.185V195.509H206.376V217.922Z" fill="#365CAA"/>
<path d="M203.401 217.926H216.107V219.318H203.401V217.926Z" fill="#284C98"/>
<path d="M231.776 239.012H239.975V262.817H231.776V239.012Z" fill="#B6E3FA"/>
<path d="M231.776 249.846H239.975V262.804H231.776V249.846Z" fill="#406DB5"/>
<path d="M231.086 238.31H240.676V263.507H231.086V238.31ZM232.429 262.115H239.238V239.702H232.429V262.115Z" fill="#365CAA"/>
<path d="M229.562 262.131H242.269V263.523H229.562V262.131Z" fill="#284C98"/>
<path d="M165.834 194.819H174.034V218.624H165.834V194.819Z" fill="#B6E3FA"/>
<path d="M165.834 206.39H174.034V218.581H165.834V206.39Z" fill="#406DB5"/>
<path d="M165.193 194.117H174.783V219.314H165.193V194.117ZM166.535 217.922H173.344V195.509H166.535V217.922Z" fill="#365CAA"/>
<path d="M163.621 217.926H176.327V219.318H163.621V217.926Z" fill="#284C98"/>
<path d="M165.834 239.012H174.034V262.817H165.834V239.012Z" fill="#B6E3FA"/>
<path d="M165.834 249.846H174.034V262.804H165.834V249.846Z" fill="#406DB5"/>
<path d="M165.193 238.31H174.783V263.507H165.193V238.31ZM166.535 262.115H173.344V239.702H166.535V262.115Z" fill="#365CAA"/>
<path d="M163.621 262.131H176.327V263.523H163.621V262.131Z" fill="#284C98"/>
<path d="M400.819 157.333V292.82H313.791V157.333H331.676H400.819Z" fill="#E44D33"/>
<path d="M385.695 194.819H400.895V196.067H385.695V194.819Z" fill="#BB2629"/>
<path d="M385.695 199.826H400.895V201.074H385.695V199.826Z" fill="#BB2629"/>
<path d="M385.695 204.88H400.895V206.128H385.695V204.88Z" fill="#BB2629"/>
<path d="M385.695 209.935H400.895V211.182H385.695V209.935Z" fill="#BB2629"/>
<path d="M385.695 214.941H400.895V216.189H385.695V214.941Z" fill="#BB2629"/>
<path d="M385.695 219.996H400.895V221.244H385.695V219.996Z" fill="#BB2629"/>
<path d="M385.695 225.002H400.895V226.25H385.695V225.002Z" fill="#BB2629"/>
<path d="M385.695 230.057H400.895V231.305H385.695V230.057Z" fill="#BB2629"/>
<path d="M385.695 235.112H400.895V236.36H385.695V235.112Z" fill="#BB2629"/>
<path d="M385.695 240.118H400.895V241.366H385.695V240.118Z" fill="#BB2629"/>
<path d="M385.695 245.173H400.895V246.421H385.695V245.173Z" fill="#BB2629"/>
<path d="M385.695 250.179H400.895V251.427H385.695V250.179Z" fill="#BB2629"/>
<path d="M385.695 255.234H400.895V256.481H385.695V255.234Z" fill="#BB2629"/>
<path d="M385.695 260.324H400.895V261.572H385.695V260.324Z" fill="#BB2629"/>
<path d="M385.695 265.331H400.895V266.578H385.695V265.331Z" fill="#BB2629"/>
<path d="M313.852 194.819H328.764V196.067H313.852V194.819Z" fill="#BB2629"/>
<path d="M313.852 199.826H328.764V201.074H313.852V199.826Z" fill="#BB2629"/>
<path d="M313.852 204.88H328.764V206.128H313.852V204.88Z" fill="#BB2629"/>
<path d="M313.852 209.935H328.764V211.182H313.852V209.935Z" fill="#BB2629"/>
<path d="M313.852 214.941H328.764V216.189H313.852V214.941Z" fill="#BB2629"/>
<path d="M313.852 219.996H328.764V221.244H313.852V219.996Z" fill="#BB2629"/>
<path d="M313.852 225.002H328.764V226.25H313.852V225.002Z" fill="#BB2629"/>
<path d="M313.852 230.057H328.764V231.305H313.852V230.057Z" fill="#BB2629"/>
<path d="M313.852 235.112H328.764V236.36H313.852V235.112Z" fill="#BB2629"/>
<path d="M313.852 240.118H328.764V241.366H313.852V240.118Z" fill="#BB2629"/>
<path d="M313.852 245.173H328.764V246.421H313.852V245.173Z" fill="#BB2629"/>
<path d="M313.852 250.215H328.764V251.463H313.852V250.215Z" fill="#BB2629"/>
<path d="M313.852 255.27H328.764V256.517H313.852V255.27Z" fill="#BB2629"/>
<path d="M313.852 260.324H328.764V261.572H313.852V260.324Z" fill="#BB2629"/>
<path d="M313.852 265.331H328.764V266.578H313.852V265.331Z" fill="#BB2629"/>
<path d="M308.977 155.49H405.547V159.185H308.977V155.49Z" fill="#365CAA"/>
<path d="M328.572 213.8H338.162V270.096H328.572V213.8Z" fill="#BB2629"/>
<path d="M312.485 187.184H402.151V190.495H312.485V187.184Z" fill="#284C98"/>
<path d="M308.772 183.021H405.917V187.197H308.772V183.021Z" fill="#365CAA"/>
<path d="M312.485 169.309H402.151V172.621H312.485V169.309Z" fill="#284C98"/>
<path d="M308.772 165.147H405.917V169.322H308.772V165.147Z" fill="#365CAA"/>
<path d="M329.261 194.819H337.461V218.624H329.261V194.819Z" fill="#B6E3FA"/>
<path d="M329.261 206.39H337.461V218.581H329.261V206.39Z" fill="#406DB5"/>
<path d="M328.62 194.117H338.21V219.314H328.62V194.117ZM330.01 217.922H336.819V195.509H330.01V217.922Z" fill="#365CAA"/>
<path d="M327.047 217.926H339.754V219.318H327.047V217.926Z" fill="#284C98"/>
<path d="M329.261 239.012H337.461V262.817H329.261V239.012Z" fill="#B6E3FA"/>
<path d="M329.261 249.846H337.461V262.804H329.261V249.846Z" fill="#406DB5"/>
<path d="M328.62 238.31H338.21V263.507H328.62V238.31ZM330.01 262.115H336.819V239.702H330.01V262.115Z" fill="#365CAA"/>
<path d="M327.047 262.131H339.754V263.523H327.047V262.131Z" fill="#284C98"/>
<path d="M344.428 213.8H354.018V270.096H344.428V213.8Z" fill="#BB2629"/>
<path d="M345.118 194.819H353.317V218.624H345.118V194.819Z" fill="#B6E3FA"/>
<path d="M345.118 206.39H353.317V218.581H345.118V206.39Z" fill="#406DB5"/>
<path d="M344.428 194.117H354.018V219.314H344.428V194.117ZM345.819 217.922H352.627V195.509H345.819V217.922Z" fill="#365CAA"/>
<path d="M342.904 217.926H355.61V219.318H342.904V217.926Z" fill="#284C98"/>
<path d="M345.118 239.012H353.317V262.817H345.118V239.012Z" fill="#B6E3FA"/>
<path d="M345.118 249.846H353.317V262.804H345.118V249.846Z" fill="#406DB5"/>
<path d="M344.428 238.31H354.018V263.507H344.428V238.31ZM345.819 262.115H352.627V239.702H345.819V262.115Z" fill="#365CAA"/>
<path d="M342.904 262.131H355.61V263.523H342.904V262.131Z" fill="#284C98"/>
<path d="M360.236 213.8H369.826V270.096H360.236V213.8Z" fill="#BB2629"/>
<path d="M360.926 194.819H369.125V218.624H360.926V194.819Z" fill="#B6E3FA"/>
<path d="M360.926 206.39H369.125V218.581H360.926V206.39Z" fill="#406DB5"/>
<path d="M360.236 194.117H369.826V219.314H360.236V194.117ZM361.627 217.922H368.436V195.509H361.627V217.922Z" fill="#365CAA"/>
<path d="M358.7 217.926H371.406V219.318H358.7V217.926Z" fill="#284C98"/>
<path d="M360.926 239.012H369.125V262.817H360.926V239.012Z" fill="#B6E3FA"/>
<path d="M360.926 249.846H369.125V262.804H360.926V249.846Z" fill="#406DB5"/>
<path d="M360.236 238.31H369.826V263.507H360.236V238.31ZM361.627 262.115H368.436V239.702H361.627V262.115Z" fill="#365CAA"/>
<path d="M358.7 262.131H371.406V263.523H358.7V262.131Z" fill="#284C98"/>
<path d="M376.044 213.8H385.634V270.096H376.044V213.8Z" fill="#BB2629"/>
<path d="M376.721 194.819H384.921V218.624H376.721V194.819Z" fill="#B6E3FA"/>
<path d="M376.721 206.39H384.921V218.581H376.721V206.39Z" fill="#406DB5"/>
<path d="M376.092 194.117H385.682V219.314H376.092V194.117ZM377.435 217.922H384.244V195.509H377.435V217.922Z" fill="#365CAA"/>
<path d="M374.508 217.926H387.214V219.318H374.508V217.926Z" fill="#284C98"/>
<path d="M376.721 239.012H384.921V262.817H376.721V239.012Z" fill="#B6E3FA"/>
<path d="M376.721 249.846H384.921V262.804H376.721V249.846Z" fill="#406DB5"/>
<path d="M376.092 238.31H385.682V263.507H376.092V238.31ZM377.435 262.115H384.244V239.702H377.435V262.115Z" fill="#365CAA"/>
<path d="M374.508 262.131H387.214V263.523H374.508V262.131Z" fill="#284C98"/>
<path d="M204.373 130.295H206.722V131.687H204.373V130.295Z" fill="#871C1B"/>
<path d="M202.311 123.384V146.421C202.311 146.661 202.023 146.805 201.736 146.805C201.4 146.805 201.16 146.613 201.16 146.421V123.384C201.16 123.144 201.448 123 201.736 123C202.023 123 202.311 123.192 202.311 123.384Z" fill="#434A60"/>
<path d="M201.544 123.912H206.722V130.727H201.544V123.912Z" fill="#DD362D"/>
<path d="M214.011 125.112L211.421 128.855L214.011 132.599H205.332C204.804 132.599 204.373 132.167 204.373 131.639C204.373 131.111 204.804 130.679 205.332 130.679H206.722V125.064H214.011V125.112Z" fill="#C03B2B"/>
<path d="M205.332 130.727H206.722V132.599H205.332C204.804 132.599 204.373 132.167 204.373 131.639C204.373 131.111 204.804 130.727 205.332 130.727Z" fill="#B02924"/>
<path d="M66.4454 292.665C66.5413 293.097 66.5892 293.577 66.5892 294.009H51.5331C51.5331 293.577 51.581 293.097 51.6769 292.665C51.6769 292.569 51.6769 292.474 51.7249 292.378C51.8687 291.658 52.1085 290.986 52.4441 290.362C52.4921 290.266 52.588 290.218 52.588 290.122C52.9716 289.45 53.499 288.874 54.0744 288.346C54.1703 288.25 54.2183 288.202 54.3142 288.154C54.9375 287.626 55.6088 287.194 56.376 286.906C56.4719 286.858 56.5678 286.81 56.6637 286.762C57.4309 286.474 58.1981 286.33 59.0132 286.33H59.3489C60.164 286.378 60.9312 286.522 61.6984 286.762C61.7943 286.81 61.8902 286.858 61.9861 286.906C62.7053 287.242 63.3766 287.626 64.0479 288.154C64.1438 288.25 64.1917 288.298 64.2876 288.346C64.863 288.874 65.3425 289.45 65.7741 290.122C65.822 290.17 65.9179 290.266 65.9179 290.362C66.2536 290.986 66.4933 291.658 66.6371 292.378C66.6371 292.474 66.6372 292.569 66.4454 292.665Z" fill="#B3BAC5"/>
<path d="M77.1381 293.289C77.186 293.529 77.234 293.769 77.234 294.009H69.0826C69.0826 293.769 69.1306 293.529 69.1785 293.289C69.1785 293.241 69.2265 293.145 69.2265 293.145C69.3224 292.762 69.4662 292.426 69.658 292.09C69.706 292.042 69.7059 291.994 69.7539 291.946C69.9457 291.61 70.2334 291.274 70.5211 290.986L70.6649 290.842C71.0006 290.554 71.3842 290.362 71.7678 290.17C71.8637 290.17 71.9116 290.122 71.9116 290.122C72.2952 289.978 72.7268 289.882 73.1583 289.882H73.3021C73.7337 289.93 74.1652 290.026 74.5488 290.122C74.6447 290.122 74.6927 290.17 74.6927 290.17C75.0763 290.314 75.4599 290.554 75.7955 290.842L75.9393 290.986C76.227 291.274 76.5147 291.562 76.7065 291.946C76.7545 291.994 76.7545 292.042 76.8024 292.09C76.9942 292.426 77.1381 292.762 77.186 293.145C77.1381 293.193 77.1381 293.241 77.1381 293.289Z" fill="#B3BAC5"/>
<path d="M359.645 275.585C359.645 275.585 363.385 285.424 363.385 291.855C363.385 292.527 363.337 293.247 363.145 293.919H356.192C356.001 293.247 355.905 292.575 355.905 291.855C355.905 285.376 359.645 275.585 359.645 275.585Z" fill="#9F5744"/>
<path d="M92.0694 272.934H155.986V294.579H92.0694V272.934Z" fill="#7A869A"/>
<path d="M92.1869 272.934H183.914V276.389H92.1869V272.934Z" fill="#9FABC2"/>
<path d="M5.10371 271.899H92.1798V294.6H5.10371V271.899Z" fill="#A5ADBA"/>
<path d="M251.329 272.934H315.245V294.579H251.329V272.934Z" fill="#7A869A"/>
<path d="M230.609 272.934H319.986V276.389H230.609V272.934Z" fill="#9FABC2"/>
<path d="M154.469 271.899H253.005V294.6H154.469V271.899Z" fill="#A5ADBA"/>
<path d="M154.469 271.899H252.957V275.355H154.469V271.899Z" fill="#B6C5DF"/>
<path d="M189.207 286.491H195.632V294.554H189.207V286.491Z" fill="#C1C7CF"/>
<path d="M189.207 271.899H195.632V286.537H189.207V271.899Z" fill="#DFE1E6"/>
<path d="M212.03 286.491H218.455V294.554H212.03V286.491Z" fill="#C1C7CF"/>
<path d="M212.03 271.899H218.455V286.537H212.03V271.899Z" fill="#DFE1E6"/>
<path d="M195.618 271.899H211.968V272.955H195.618V271.899Z" fill="#BE222F"/>
<path d="M195.618 272.969H211.968V274.313H195.618V272.969Z" fill="#ED6A51"/>
<path d="M195.618 274.254H211.968V275.31H195.618V274.254Z" fill="#BE222F"/>
<path d="M195.618 275.324H211.968V276.668H195.618V275.324Z" fill="#ED6A51"/>
<path d="M195.618 276.692H211.968V277.748H195.618V276.692Z" fill="#BE222F"/>
<path d="M195.618 277.762H211.968V279.106H195.618V277.762Z" fill="#ED6A51"/>
<path d="M195.618 279.082H211.968V280.138H195.618V279.082Z" fill="#BE222F"/>
<path d="M195.618 280.153H211.968V281.496H195.618V280.153Z" fill="#ED6A51"/>
<path d="M195.618 281.52H211.968V282.576H195.618V281.52Z" fill="#BE222F"/>
<path d="M195.618 282.591H211.968V283.934H195.618V282.591Z" fill="#ED6A51"/>
<path d="M195.618 283.875H211.968V284.931H195.618V283.875Z" fill="#BE222F"/>
<path d="M195.618 284.945H211.968V294.544H195.618V284.945Z" fill="#ED6A51"/>
<path d="M195.618 284.945H211.968V286.289H195.618V284.945Z" fill="#ED6A51"/>
<path d="M195.618 286.313H211.968V287.369H195.618V286.313Z" fill="#BE222F"/>
<path d="M195.618 288.929H211.968V294.592H195.618V288.929Z" fill="#BE222F"/>
<path d="M195.618 290.214H211.968V291.557H195.618V290.214Z" fill="#ED6A51"/>
<path d="M195.618 292.759H211.968V294.102H195.618V292.759Z" fill="#ED6A51"/>
<g opacity="0.2">
<path opacity="0.2" d="M195.618 271.899H199.214V294.6H195.618V271.899Z" fill="#231F20"/>
</g>
<g opacity="0.2">
<path opacity="0.2" d="M218.454 271.899H222.865V294.6H218.454V271.899Z" fill="#231F20"/>
</g>
<path d="M312.821 271.899H402.198V294.6H312.821V271.899Z" fill="#A5ADBA"/>
<path d="M312.821 271.899H402.198V275.355H312.821V271.899Z" fill="#B6C5DF"/>
<path d="M5.11619 271.899H92.1443V275.355H5.11619V271.899Z" fill="#B6C5DF"/>
<path d="M22.3036 277.797H30.455V290.42H22.3036V277.797Z" fill="#5E6D84"/>
<path d="M22.3036 283.541H30.455V290.357H22.3036V283.541Z" fill="#505F79"/>
<path d="M38.0641 277.797H46.2155V290.42H38.0641V277.797Z" fill="#5E6D84"/>
<path d="M38.0641 283.541H46.2155V290.357H38.0641V283.541Z" fill="#505F79"/>
<path d="M53.8122 277.797H61.9636V290.42H53.8122V277.797Z" fill="#5E6D84"/>
<path d="M53.8122 283.541H61.9636V290.357H53.8122V283.541Z" fill="#505F79"/>
<path d="M69.5722 277.797H77.7235V290.42H69.5722V277.797Z" fill="#5E6D84"/>
<path d="M69.5722 283.541H77.7235V290.357H69.5722V283.541Z" fill="#505F79"/>
<path d="M104.927 279.379H112.694V291.138H104.927V279.379Z" fill="#505F79"/>
<path d="M104.927 284.719H112.694V291.102H104.927V284.719Z" fill="#42526F"/>
<path d="M119.985 279.379H127.753V291.138H119.985V279.379Z" fill="#505F79"/>
<path d="M119.985 284.719H127.753V291.102H119.985V284.719Z" fill="#42526F"/>
<path d="M134.983 279.379H142.751V291.138H134.983V279.379Z" fill="#505F79"/>
<path d="M134.983 284.719H142.751V291.102H134.983V284.719Z" fill="#42526F"/>
<path d="M264.609 279.379H272.377V291.138H264.609V279.379Z" fill="#505F79"/>
<path d="M264.609 284.719H272.377V291.102H264.609V284.719Z" fill="#42526F"/>
<path d="M279.668 279.379H287.435V291.138H279.668V279.379Z" fill="#505F79"/>
<path d="M279.668 284.719H287.435V291.102H279.668V284.719Z" fill="#42526F"/>
<path d="M294.666 279.379H302.433V291.138H294.666V279.379Z" fill="#505F79"/>
<path d="M294.666 284.719H302.433V291.102H294.666V284.719Z" fill="#42526F"/>
<path d="M329.814 278.011H337.966V290.634H329.814V278.011Z" fill="#5E6D84"/>
<path d="M329.814 283.768H337.966V290.583H329.814V283.768Z" fill="#505F79"/>
<path d="M345.515 278.011H353.666V290.634H345.515V278.011Z" fill="#5E6D84"/>
<path d="M345.515 283.768H353.666V290.583H345.515V283.768Z" fill="#505F79"/>
<path d="M361.322 278.011H369.474V290.634H361.322V278.011Z" fill="#5E6D84"/>
<path d="M361.322 283.768H369.474V290.583H361.322V283.768Z" fill="#505F79"/>
<path d="M377.083 278.011H385.234V290.634H377.083V278.011Z" fill="#5E6D84"/>
<path d="M377.083 283.768H385.234V290.583H377.083V283.768Z" fill="#505F79"/>
<path d="M189.244 294.585H218.493V308.408H189.244V294.585Z" fill="#284C98"/>
<path d="M317.49 235.399H318.641V311.805H317.49V235.399Z" fill="#141822"/>
<path d="M315.86 230.504H318.017V235.399H316.531L315.86 230.504Z" fill="#365CAA"/>
<path d="M318.065 230.504H320.223L319.552 235.399H318.065V230.504Z" fill="#FFC50D"/>
<path d="M320.223 230.504H315.908C315.908 229.976 316.339 229.544 316.867 229.544H319.216C319.792 229.544 320.223 229.976 320.223 230.504Z" fill="#141822"/>
<path d="M99.4164 235.399H100.567V311.805H99.4164V235.399Z" fill="#141822"/>
<path d="M97.834 230.504H99.9918V235.399H98.5053L97.834 230.504Z" fill="#365CAA"/>
<path d="M100.04 230.504H102.197L101.526 235.399H100.04V230.504Z" fill="#FFC50D"/>
<path d="M102.197 230.504H97.8821C97.8821 229.976 98.3136 229.544 98.841 229.544H101.19C101.766 229.544 102.197 229.976 102.197 230.504Z" fill="#141822"/>
<g clip-path="url(#clip1)">
<path d="M311.515 56.0754L203.544 107.955L89.6115 60.7099L200.466 7.86042L311.515 56.0754Z" fill="url(#paint0_linear)"/>
<path d="M202.504 43.5824C235.764 42.9081 262.888 49.7007 263.098 58.7095C263.098 58.7095 264.188 107.17 264.241 110.829C264.197 108.916 237.165 108.011 203.905 108.685C170.645 109.359 143.697 111.408 143.741 113.321C143.687 109.662 142.598 61.2014 142.598 61.2014C142.482 52.1386 169.244 44.2567 202.504 43.5824Z" fill="url(#paint1_linear)"/>
<path d="M200.466 7.86032L89.6313 60.6359L89.4651 53.5403L200.31 0.133622L200.466 7.86032Z" fill="#284C98"/>
<path d="M311.515 56.0753L311.441 56.0554L200.466 7.86033L200.31 0.133633L311.349 48.9797L311.515 56.0753Z" fill="#284C98"/>
<path d="M119.749 66.646L126.277 68.3954L118.377 97.8794L111.848 96.13L119.749 66.646Z" fill="#1D3878"/>
<path d="M117.474 92.9433C122.148 94.1957 124.996 98.9993 123.728 103.73C122.48 108.387 117.667 111.217 112.918 109.945C108.244 108.692 105.396 103.889 106.664 99.1578C107.932 94.427 112.8 91.6909 117.474 92.9433Z" fill="#1D3878"/>
</g>
</g>
<defs>
<linearGradient id="paint0_linear" x1="218.928" y1="-66.8352" x2="187.919" y2="143.279" gradientUnits="userSpaceOnUse">
<stop offset="0.0749372" stop-color="#1D3878"/>
<stop offset="0.2391" stop-color="#1D3774"/>
<stop offset="0.4841" stop-color="#1C346A"/>
<stop offset="0.778" stop-color="#192F5A"/>
<stop offset="1" stop-color="#162B4D"/>
</linearGradient>
<linearGradient id="paint1_linear" x1="267.238" y1="99.8832" x2="141.159" y2="66.1004" gradientUnits="userSpaceOnUse">
<stop offset="0.0749372" stop-color="#115C97"/>
<stop offset="0.2749" stop-color="#145793"/>
<stop offset="0.5732" stop-color="#1A4D8A"/>
<stop offset="0.9313" stop-color="#1D3C7B"/>
<stop offset="1" stop-color="#1D3878"/>
</linearGradient>
<clipPath id="clip0">
<rect width="406" height="312" fill="white"/>
</clipPath>
<clipPath id="clip1">
<rect width="269.508" height="222.839" fill="white" transform="matrix(-0.965926 -0.258819 -0.258819 0.965926 361 -12.7462)"/>
</clipPath>
</defs>
</svg>
