<svg width="102" height="24" viewBox="0 0 102 24" fill="none" xmlns="http://www.w3.org/2000/svg">
<path d="M45.3084 12.0007L36.1408 2.69679L38.8371 0L50.7012 12.0007L38.8371 23.8666L36.1408 21.1698L45.3084 12.0007Z" fill="#1649A0"/>
<path d="M62.869 12.0007L53.7013 2.69679L56.3977 0L68.2617 12.0007L56.3977 23.8666L53.7013 21.1698L62.869 12.0007Z" fill="#1649A0"/>
<path d="M27.7479 12.0007L18.4454 2.69679L21.1418 0L33.1406 12.0007L21.1418 23.8666L18.4454 21.1698L27.7479 12.0007Z" fill="#1649A0"/>
<path d="M10.0526 12.0007L0.884903 2.69679L3.58127 0L15.4453 12.0007L3.58127 23.8666L0.884903 21.1698L10.0526 12.0007Z" fill="#1649A0"/>
<path d="M96.6073 12.0007L87.4396 2.69679L90.136 0L102 12.0007L90.136 23.8666L87.4396 21.1698L96.6073 12.0007Z" fill="#BE202E"/>
<path d="M80.5643 12.0007L71.2618 2.69679L73.9582 0L85.957 12.0007L73.9582 23.8666L71.2618 21.1698L80.5643 12.0007Z" fill="#BE202E"/>
</svg>
