<svg width="144" height="34" viewBox="0 0 144 34" fill="none" xmlns="http://www.w3.org/2000/svg">
<path d="M53.0433 4.97562H58.4245L67.3433 28.5084H61.8874L60.0937 23.2707H51.1749L49.3064 28.5084H44L53.0433 4.97562ZM52.5451 19.41H58.7235L55.709 10.7789H55.6343L52.5451 19.41Z" fill="#F6F8FA"/>
<path d="M72.7992 21.1314C72.9237 24.1068 74.3936 25.4592 77.0343 25.4592C78.9277 25.4592 80.4723 24.3035 80.7713 23.2461H84.9566C83.6113 27.2543 80.7713 28.9756 76.8849 28.9756C71.4539 28.9756 68.0657 25.2871 68.0657 20.0248C68.0657 14.91 71.6283 11.0248 76.8849 11.0248C82.7643 11.0248 85.6044 15.8937 85.2556 21.1314H72.7992ZM80.5221 18.1559C80.0986 15.7953 79.0523 14.5412 76.7603 14.5412C73.7459 14.5412 72.8988 16.8527 72.8241 18.1559H80.5221Z" fill="#F6F8FA"/>
<path d="M88.0708 11.4674H92.58V14.6395H92.6548C93.5267 12.5002 95.8685 11.0248 98.1605 11.0248C98.4844 11.0248 98.883 11.0986 99.2068 11.1969V15.5494C98.7833 15.451 98.0608 15.3773 97.5128 15.3773C94.0499 15.3773 92.8291 17.8363 92.8291 20.8363V28.5084H88.0957V11.4674H88.0708Z" fill="#F6F8FA"/>
<path d="M105.933 8.83626H101.2V4.9756H105.933V8.83626ZM101.175 11.4674H105.908V28.5084H101.175V11.4674Z" fill="#F6F8FA"/>
<path d="M113.557 21.1314C113.681 24.1068 115.151 25.4592 117.792 25.4592C119.685 25.4592 121.23 24.3035 121.529 23.2461H125.714C124.369 27.2543 121.529 28.9756 117.642 28.9756C112.211 28.9756 108.823 25.2871 108.823 20.0248C108.823 14.91 112.386 11.0248 117.642 11.0248C123.522 11.0248 126.362 15.8936 126.013 21.1314H113.557ZM121.28 18.1559C120.856 15.7953 119.81 14.5412 117.518 14.5412C114.503 14.5412 113.656 16.8527 113.581 18.1559H121.28Z" fill="#F6F8FA"/>
<path d="M132.49 22.9756C132.515 25.0166 134.259 25.8526 136.128 25.8526C137.498 25.8526 139.242 25.3362 139.242 23.6887C139.242 22.2625 137.274 21.7707 133.86 21.0575C131.12 20.4674 128.38 19.5084 128.38 16.5084C128.38 12.1559 132.191 11.0493 135.903 11.0493C139.665 11.0493 143.153 12.3034 143.527 16.4838H139.017C138.893 14.6641 137.473 14.1723 135.779 14.1723C134.708 14.1723 133.138 14.369 133.138 15.7461C133.138 17.4182 135.804 17.6641 138.519 18.2789C141.285 18.8936 144 19.9018 144 23.0493C144 27.5247 140.064 28.9756 136.128 28.9756C132.117 28.9756 128.205 27.5002 128.006 22.9756H132.49Z" fill="#F6F8FA"/>
<rect width="34" height="34" rx="3" fill="white"/>
<path d="M3.27432 0.888702C1.96391 0.888702 0.888702 1.96503 0.888702 3.27681V30.7232C0.888702 31.9677 1.86311 32.9767 3.07271 33.1113L14.5304 0.888702H3.27432Z" fill="#345BA9"/>
<path d="M33.0777 3.27679C33.0777 1.96502 32.0025 0.888687 30.6921 0.888687H23.972L33.1113 26.7206V3.27679H33.0777Z" fill="#BE202E"/>
<path d="M25.652 27.8305H12.5144L10.8008 33.1116H27.332L25.652 27.8305Z" fill="#345BA9"/>
<path d="M19.1672 7.64938L14.564 21.6753H23.6696L19.1672 7.64938Z" fill="#345BA9"/>
</svg>
