<svg width="146" height="34" viewBox="0 0 146 34" fill="none" xmlns="http://www.w3.org/2000/svg">
<g clip-path="url(#clip0)">
<path d="M53.4565 4.97656H58.8797L67.868 28.5093H62.3695L60.5619 23.2716H51.5736L49.6905 28.5093H44.3428L53.4565 4.97656ZM52.9545 19.4109H59.181L56.143 10.7798H56.0677L52.9545 19.4109Z" fill="#345BA9"/>
<path d="M73.3661 21.132C73.4916 24.1074 74.9729 25.4598 77.6342 25.4598C79.5423 25.4598 81.099 24.3041 81.4003 23.2467H85.6182C84.2624 27.2549 81.4003 28.9762 77.4836 28.9762C72.0103 28.9762 68.5957 25.2877 68.5957 20.0254C68.5957 14.9106 72.1861 11.0254 77.4836 11.0254C83.4088 11.0254 86.2711 15.8942 85.9196 21.132H73.3661ZM81.1492 18.1565C80.7224 15.7959 79.6679 14.5418 77.3581 14.5418C74.3202 14.5418 73.4665 16.8533 73.3912 18.1565H81.1492Z" fill="#345BA9"/>
<path d="M88.7568 11.468H93.3012V14.6401H93.3765C94.2552 12.5008 96.6153 11.0254 98.9251 11.0254C99.2516 11.0254 99.6533 11.0992 99.9796 11.1975V15.55C99.5528 15.4516 98.8247 15.3779 98.2724 15.3779C94.7825 15.3779 93.5522 17.8369 93.5522 20.8369V28.509H88.7819V11.468H88.7568Z" fill="#345BA9"/>
<path d="M106.758 8.83722H101.988V4.97656H106.758V8.83722ZM101.963 11.4684H106.733V28.5094H101.963V11.4684Z" fill="#345BA9"/>
<path d="M114.442 21.132C114.567 24.1074 116.048 25.4598 118.71 25.4598C120.618 25.4598 122.175 24.3041 122.476 23.2467H126.694C125.338 27.2549 122.476 28.9762 118.559 28.9762C113.085 28.9762 109.671 25.2877 109.671 20.0254C109.671 14.9106 113.262 11.0254 118.559 11.0254C124.484 11.0254 127.347 15.8942 126.995 21.132H114.442ZM122.225 18.1565C121.798 15.7959 120.744 14.5418 118.434 14.5418C115.395 14.5418 114.542 16.8533 114.466 18.1565H122.225Z" fill="#345BA9"/>
<path d="M133.522 22.9751C133.547 25.0161 135.305 25.8521 137.188 25.8521C138.569 25.8521 140.326 25.3357 140.326 23.6882C140.326 22.262 138.343 21.7702 134.903 21.057C132.141 20.4669 129.38 19.5079 129.38 16.5079C129.38 12.1554 133.221 11.0488 136.961 11.0488C140.753 11.0488 144.268 12.3029 144.645 16.4833H140.1C139.975 14.6636 138.544 14.1718 136.837 14.1718C135.757 14.1718 134.175 14.3685 134.175 15.7456C134.175 17.4177 136.862 17.6636 139.598 18.2784C142.385 18.8931 145.122 19.9013 145.122 23.0488C145.122 27.5242 141.155 28.9751 137.188 28.9751C133.146 28.9751 129.203 27.4997 129.003 22.9751H133.522Z" fill="#345BA9"/>
<path d="M31.2415 0H3.02337C1.35361 0 0 1.34315 0 3V31C0 32.6569 1.35361 34 3.02337 34H31.2415C32.9113 34 34.2649 32.6569 34.2649 31V3C34.2649 1.34315 32.9113 0 31.2415 0Z" fill="white"/>
<path d="M3.29971 0.888672C1.97909 0.888672 0.895508 1.965 0.895508 3.27678V30.7232C0.895508 31.9677 1.87751 32.9767 3.09653 33.1113L14.6435 0.888672H3.29971Z" fill="#345BA9"/>
<path d="M33.3358 3.27677C33.3358 1.965 32.2522 0.888672 30.9316 0.888672H24.1592L33.3697 26.7206V3.27677H33.3358Z" fill="#BE202E"/>
<path d="M25.8517 27.8301H12.6117L10.8848 33.1112H27.5448L25.8517 27.8301Z" fill="#345BA9"/>
<path d="M19.3168 7.64844L14.6777 21.6744H23.8543L19.3168 7.64844Z" fill="#345BA9"/>
</g>
<defs>
<clipPath id="clip0">
<rect width="145.122" height="34" fill="white"/>
</clipPath>
</defs>
</svg>
