<svg width="580" height="530" viewBox="0 0 580 530" fill="none" xmlns="http://www.w3.org/2000/svg">
<g clip-path="url(#clip0)">
<path d="M452.352 238.851C453.745 240.115 420.951 277.642 379.421 322.624C337.765 367.733 302.945 403.238 301.553 401.975C300.16 400.711 332.827 363.184 374.483 318.202C416.14 273.093 451.086 237.588 452.352 238.851Z" fill="#DFE3E9"/>
<path d="M403.998 184.806C403.688 186.64 356.612 175.248 298.879 159.404C241.25 143.43 194.691 129.027 195.002 127.194C195.312 125.36 242.388 136.752 300.121 152.596C357.854 168.57 404.309 182.973 403.998 184.806Z" fill="#DFE3E9"/>
<path d="M225.077 385.548C224.318 386.053 215.328 373.291 201.78 351.937C188.232 330.71 170.126 300.89 151.007 267.533C131.888 234.049 115.555 203.344 104.159 180.853C92.7639 158.362 86.3065 144.211 87.0662 143.705C87.9525 143.326 95.8027 156.72 108.211 178.579C120.619 200.438 137.712 230.763 156.705 264.121C175.824 297.352 193.17 327.551 205.705 349.41C218.367 371.396 225.964 385.042 225.077 385.548Z" fill="#DFE3E9"/>
<path d="M314.386 230.195C314.512 230.195 314.766 233.607 314.766 237.777C314.766 241.946 314.639 245.358 314.386 245.358C314.132 245.358 314.006 241.946 314.006 237.777C314.132 233.607 314.259 230.195 314.386 230.195Z" fill="#DFE3E9"/>
<path d="M314.386 199.869C314.512 199.869 314.766 203.281 314.766 207.45C314.766 211.62 314.639 215.032 314.386 215.032C314.132 215.032 314.006 211.62 314.006 207.45C314.132 203.281 314.259 199.869 314.386 199.869Z" fill="#DFE3E9"/>
<path d="M314.386 169.545C314.512 169.545 314.766 172.956 314.766 177.126C314.766 181.296 314.639 184.707 314.386 184.707C314.132 184.707 314.006 181.296 314.006 177.126C314.132 172.956 314.259 169.545 314.386 169.545Z" fill="#DFE3E9"/>
<path d="M314.386 139.219C314.512 139.219 314.766 142.63 314.766 146.8C314.766 150.97 314.639 154.381 314.386 154.381C314.132 154.381 314.006 150.97 314.006 146.8C314.132 142.63 314.259 139.219 314.386 139.219Z" fill="#DFE3E9"/>
<path d="M314.386 108.895C314.512 108.895 314.766 112.306 314.766 116.476C314.766 120.646 314.639 124.057 314.386 124.057C314.132 124.057 314.006 120.646 314.006 116.476C314.132 112.306 314.259 108.895 314.386 108.895Z" fill="#DFE3E9"/>
<path d="M305.776 87.1603C305.776 87.034 309.195 86.7812 313.373 86.7812C313.753 86.7812 314.133 86.7812 314.386 86.7812H314.766V87.1603C314.766 90.8246 314.639 93.7308 314.386 93.7308C314.259 93.7308 314.133 90.951 314.006 87.1603L314.386 87.5394C314.006 87.5394 313.753 87.5394 313.373 87.5394C309.195 87.5394 305.776 87.2867 305.776 87.1603Z" fill="#DFE3E9"/>
<path d="M275.388 87.1603C275.388 87.034 278.806 86.7812 282.985 86.7812C287.163 86.7812 290.582 86.9076 290.582 87.1603C290.582 87.2867 287.163 87.5394 282.985 87.5394C278.806 87.5394 275.388 87.2867 275.388 87.1603Z" fill="#DFE3E9"/>
<path d="M262.22 69.9766C262.346 69.9766 262.6 73.3881 262.6 77.5578C262.6 81.7275 262.473 85.1391 262.22 85.1391C261.966 85.1391 261.84 81.7275 261.84 77.5578C261.84 73.3881 261.966 69.9766 262.22 69.9766Z" fill="#DFE3E9"/>
<path d="M262.22 45.7168C262.346 45.7168 262.6 47.7385 262.6 50.2656C262.6 52.7927 262.473 54.8143 262.22 54.8143C261.966 54.8143 261.84 52.7927 261.84 50.2656C261.84 47.7385 261.966 45.7168 262.22 45.7168Z" fill="#DFE3E9"/>
<path d="M520.194 272.64C553.224 239.678 553.224 186.236 520.194 153.274C487.164 120.313 433.612 120.313 400.582 153.274C367.552 186.236 367.552 239.678 400.582 272.64C433.612 305.602 487.164 305.602 520.194 272.64Z" fill="#1649A0"/>
<path d="M355.783 436.156C353.757 486.95 316.279 528.9 265.379 529.911C214.48 530.921 172.443 490.488 171.43 439.693C170.417 388.899 211.061 342.021 261.834 345.938C316.025 350.234 357.682 389.91 355.783 436.156Z" fill="#1649A0"/>
<path d="M182.91 193.528C216.583 159.924 216.583 105.443 182.91 71.8394C149.237 38.2361 94.6427 38.2361 60.97 71.8394C27.2972 105.443 27.2972 159.924 60.97 193.528C94.6427 227.131 149.237 227.131 182.91 193.528Z" fill="#1649A0"/>
<path d="M490.722 112.834C491.07 119.439 491.534 121.408 494.089 126.738C495.598 129.867 497.572 132.764 498.385 136.124C499.198 139.252 498.733 142.728 499.314 145.857C500.243 151.071 503.726 155.474 506.396 160.109C509.067 164.744 510.808 170.653 508.138 175.404L481.317 172.275L479.459 138.905L490.722 112.834Z" fill="#222F4D"/>
<path d="M437.311 101.479C433.828 108.894 438.704 116.194 435.221 123.61C433.479 127.202 431.738 130.909 430.809 134.849C429.996 138.441 429.764 142.149 428.37 145.509C426.048 150.839 420.823 154.431 418.385 159.645C414.786 167.408 418.617 177.257 425.468 182.356C432.318 187.57 441.491 188.844 449.967 188.265C455.192 187.917 460.417 186.875 464.945 184.21C469.473 181.545 472.956 177.026 473.537 171.811" fill="#222F4D"/>
<path d="M477.136 88.3867C494.437 96.0341 497.804 124.422 497.92 128.13C498.036 132.649 500.474 133.576 503.493 136.009C506.512 138.442 509.415 141.223 510.344 144.931C511.04 147.828 510.344 151.072 511.737 153.737C513.362 156.866 517.31 158.024 520.445 159.994C526.251 163.702 529.037 170.654 529.386 177.375C529.734 184.095 527.876 190.7 526.018 197.188C525.322 199.738 524.393 202.518 522.071 203.909C520.329 204.952 518.007 204.952 515.917 204.952C505.003 204.72 494.088 204.488 483.058 204.256C474.698 204.025 466.106 203.793 458.327 200.78C452.057 198.231 446.484 193.828 443.116 188.035C439.749 182.241 438.588 175.289 440.33 168.916C441.723 164.05 444.742 159.531 445.555 154.548C446.6 148.291 441.375 145.626 439.517 139.601C437.659 133.576 436.034 119.092 438.704 113.299" fill="#222F4D"/>
<path d="M496.991 244.578L491.65 227.313L490.837 253.732C490.837 253.732 497.804 271.691 503.145 285.48C492.463 291.853 480.155 295.908 466.803 296.719C450.315 297.762 434.524 293.707 421.172 286.059L429.531 256.281L425.584 222.563L414.669 238.205L391.215 215.611C391.215 215.611 408.4 183.978 410.489 181.197C424.074 162.774 447.412 163.237 447.412 163.237L480.503 165.091C480.503 165.091 499.081 164.048 511.388 178.764C511.388 178.764 523.348 196.955 533.101 241.913L496.991 244.578Z" fill="#A22632"/>
<path d="M513.478 183.631C513.478 183.631 513.362 183.631 513.013 183.747C512.665 183.747 512.201 183.863 511.62 183.978C510.343 184.21 508.601 184.558 506.395 185.485C504.189 186.412 501.635 187.918 499.196 190.235C497.919 191.394 496.758 192.785 495.713 194.407C494.668 196.029 493.739 197.883 493.275 199.968C493.043 201.011 493.043 202.054 493.391 203.097C493.739 204.14 494.32 205.067 495.249 205.762C496.178 206.457 497.339 206.689 498.5 206.225C499.545 205.878 500.358 204.835 500.706 203.676C501.054 202.518 501.054 201.243 500.474 200.084C499.893 198.926 499.08 197.999 497.919 197.188C495.713 195.565 493.043 194.638 490.256 194.291C487.469 193.943 484.451 194.291 481.548 195.102C478.645 195.913 475.742 196.956 473.072 198.578C470.401 200.2 467.963 202.286 466.105 204.951C465.176 206.225 464.48 207.732 464.48 209.354C464.48 210.165 464.596 210.86 465.06 211.555C465.525 212.251 466.105 212.714 466.802 213.178C467.615 213.409 468.428 213.641 469.124 213.293C469.821 212.946 470.401 212.251 470.866 211.555C471.679 209.933 471.795 208.079 471.795 206.225C471.795 204.372 471.562 202.633 470.982 200.895C470.401 199.273 469.356 197.767 468.079 196.492C465.525 194.059 462.158 192.669 458.79 192.321C455.423 191.973 451.94 192.437 448.805 193.48C445.67 194.407 442.535 195.681 440.445 198.115C439.516 199.273 438.82 200.78 438.936 202.286C439.052 203.792 439.865 205.183 440.91 206.11C441.49 206.573 442.071 206.921 442.767 206.921C443.464 207.037 444.161 206.805 444.741 206.457C445.902 205.762 446.483 204.256 446.599 202.981C446.715 201.591 446.599 200.2 446.135 198.926C445.902 198.23 445.67 197.651 445.438 197.072C445.322 196.724 445.206 196.492 445.09 196.145L444.625 195.334C443.464 193.016 441.839 191.046 440.097 189.308C436.614 185.948 432.666 183.863 429.066 182.704C425.467 181.545 422.1 181.198 419.429 181.429C416.759 181.661 414.669 182.124 413.392 182.588C412.695 182.82 412.231 183.051 411.882 183.167C411.534 183.283 411.302 183.283 411.302 183.283C411.302 183.283 411.418 183.167 411.766 183.051C412.115 182.936 412.579 182.704 413.276 182.472C414.669 182.009 416.643 181.429 419.429 181.198C422.1 180.966 425.467 181.313 429.183 182.356C432.898 183.515 436.846 185.601 440.445 188.961C442.187 190.699 443.812 192.669 445.09 194.986L445.554 195.913C445.67 196.261 445.786 196.492 445.902 196.84C446.135 197.419 446.483 198.115 446.599 198.81C447.063 200.2 447.18 201.591 447.063 202.981C446.947 204.372 446.367 205.994 444.973 206.921C444.277 207.384 443.464 207.5 442.651 207.5C441.838 207.384 441.142 207.037 440.445 206.573C439.168 205.53 438.355 204.024 438.239 202.402C438.123 201.591 438.239 200.78 438.587 199.968C438.936 199.157 439.284 198.462 439.865 197.883C442.071 195.334 445.206 194.059 448.457 193.016C451.708 192.089 455.191 191.51 458.674 191.858C462.158 192.205 465.757 193.711 468.311 196.261C469.589 197.535 470.75 199.041 471.446 200.78C472.143 202.518 472.375 204.372 472.375 206.225C472.375 208.079 472.143 210.049 471.33 211.787C470.866 212.598 470.285 213.409 469.356 213.873C468.427 214.22 467.383 214.105 466.57 213.757C465.873 213.294 465.176 212.714 464.712 211.903C464.248 211.092 464.015 210.281 464.015 209.354C464.015 207.616 464.828 205.994 465.757 204.603C467.731 201.822 470.285 199.737 472.956 198.115C475.626 196.376 478.645 195.334 481.548 194.523C484.451 193.711 487.469 193.364 490.488 193.711C493.391 194.059 496.178 194.986 498.384 196.724C499.545 197.535 500.474 198.578 501.054 199.853C501.635 201.127 501.751 202.518 501.286 203.792C500.938 205.067 500.009 206.225 498.732 206.689C497.455 207.152 496.061 206.805 495.133 206.11C494.088 205.414 493.391 204.372 493.043 203.213C492.694 202.054 492.694 200.895 492.927 199.853C493.391 197.651 494.436 195.797 495.365 194.175C496.41 192.553 497.687 191.162 498.848 190.004C501.403 187.686 503.957 186.18 506.163 185.253C508.369 184.326 510.227 183.978 511.504 183.863C512.781 183.631 513.478 183.631 513.478 183.631Z" fill="#FAFCFD"/>
<path d="M527.528 221.404C527.528 221.52 526.366 221.752 524.509 222.795C522.651 223.838 520.213 225.923 518.587 229.399C518.123 230.21 517.891 231.253 517.658 232.18C517.426 233.223 517.31 234.266 517.658 235.309C517.774 235.772 518.123 236.351 518.471 236.583C518.936 236.815 519.4 236.931 519.981 236.699C521.025 236.236 521.606 235.077 521.722 233.918C522.07 231.485 520.561 228.82 518.239 227.661C515.801 226.503 512.666 226.85 510.343 228.356C507.905 229.979 506.512 232.528 505.931 235.193C505.583 236.467 505.583 237.858 506.28 238.901C506.86 239.943 508.254 240.639 509.298 240.059C510.343 239.596 511.04 238.437 511.04 237.278C511.04 236.12 510.576 235.077 509.995 234.15C508.834 232.296 507.092 231.021 505.235 230.326C503.493 229.631 501.635 229.631 500.242 229.979C498.733 230.326 497.571 230.906 496.759 231.601C495.017 232.875 494.553 234.034 494.437 233.918C494.437 233.918 494.437 233.802 494.553 233.686C494.669 233.571 494.785 233.339 494.901 233.107C495.249 232.644 495.714 231.948 496.643 231.253C497.455 230.558 498.733 229.863 500.242 229.515C501.751 229.168 503.609 229.052 505.467 229.747C507.325 230.442 509.182 231.717 510.46 233.686C511.04 234.613 511.621 235.888 511.621 237.163C511.621 238.437 510.924 239.828 509.647 240.407C508.95 240.755 508.254 240.755 507.557 240.407C506.86 240.175 506.396 239.596 505.931 239.016C505.119 237.742 505.235 236.236 505.583 234.845C506.164 232.064 507.789 229.399 510.343 227.661C512.898 225.923 516.265 225.576 518.819 226.85C521.49 228.125 522.999 231.021 522.651 233.686C522.535 234.961 521.838 236.351 520.561 236.815C519.864 237.047 519.168 236.931 518.587 236.583C518.007 236.236 517.774 235.656 517.542 235.077C517.194 233.918 517.31 232.76 517.542 231.717C517.774 230.674 518.123 229.747 518.587 228.82C520.329 225.228 522.883 223.258 524.741 222.215C526.25 221.636 527.528 221.404 527.528 221.404Z" fill="#FAFCFD"/>
<path d="M490.837 238.09C490.837 238.09 490.721 238.09 490.605 238.09C490.373 238.09 490.141 237.975 489.792 237.859C489.096 237.743 487.935 237.511 486.541 237.279C483.755 236.932 479.459 237.048 474.814 238.902C473.653 239.365 472.492 239.944 471.331 240.64C470.17 241.335 469.009 242.262 468.312 243.536C467.499 244.695 467.151 246.317 467.732 247.708C467.964 248.403 468.428 249.098 469.009 249.562C469.589 250.025 470.402 250.141 471.215 250.025C472.724 249.677 474.001 248.287 474.234 246.665C474.466 245.043 473.885 243.305 472.84 241.798C470.866 238.786 467.732 236.468 464.016 235.541C460.301 234.614 456.353 235.31 453.334 237.163C451.825 238.09 450.431 239.249 449.386 240.64C448.922 241.335 448.573 242.146 448.341 242.957C448.109 243.768 448.109 244.579 448.573 245.274C448.922 245.97 449.618 246.433 450.315 246.433C451.012 246.433 451.825 246.201 452.405 245.854C453.682 245.043 454.147 243.42 453.915 242.03C453.798 240.64 453.218 239.249 452.521 238.09C451.825 236.932 451.012 235.889 450.083 234.962C448.225 233.224 446.135 232.181 444.277 231.486C442.42 230.791 440.678 230.675 439.169 230.675C436.382 230.675 434.873 231.486 434.873 231.37C434.873 231.37 434.989 231.37 435.105 231.254C435.337 231.138 435.569 231.138 435.918 231.022C436.614 230.791 437.775 230.559 439.169 230.443C440.562 230.327 442.42 230.559 444.277 231.138C446.251 231.718 448.341 232.876 450.199 234.614C451.128 235.541 452.057 236.584 452.753 237.743C453.45 239.017 454.031 240.292 454.147 241.914C454.263 242.725 454.147 243.536 453.915 244.232C453.682 245.043 453.102 245.738 452.405 246.201C451.708 246.665 450.896 247.012 449.967 246.897C449.038 246.781 448.225 246.317 447.761 245.39C447.296 244.579 447.296 243.536 447.528 242.725C447.761 241.798 448.109 240.987 448.69 240.292C449.735 238.786 451.244 237.627 452.87 236.7C456.121 234.846 460.184 234.035 464.016 234.962C467.848 235.889 471.215 238.322 473.189 241.451C474.234 243.073 474.814 244.927 474.582 246.781C474.35 248.635 472.956 250.257 471.099 250.604C470.17 250.836 469.241 250.604 468.544 250.025C467.848 249.562 467.383 248.751 467.035 247.939C466.803 247.128 466.687 246.317 466.803 245.506C466.919 244.695 467.267 244 467.732 243.305C468.544 242.03 469.822 241.103 470.983 240.292C472.144 239.597 473.421 239.017 474.582 238.554C479.342 236.7 483.755 236.7 486.541 237.048C489.444 237.395 490.837 238.09 490.837 238.09Z" fill="#FAFCFD"/>
<path d="M364 155.5L374.844 152.461L380.5 154.5V163L391.912 216.422L411.07 234.845L401.085 246.316C393.77 254.659 380.5 239 380.5 239L365.5 165C365.384 157.121 364 155.5 364 155.5Z" fill="#B88C62"/>
<path d="M449.618 170.655C449.734 162.428 449.618 153.738 449.618 153.738C449.618 153.738 439.052 151.884 436.962 137.979C434.988 124.77 438.355 96.2662 438.355 96.2662C453.681 90.241 471.098 92.5584 481.78 104.956L480.154 171.813C479.922 179.577 473.072 185.602 464.828 185.37C456.352 185.138 449.501 178.534 449.618 170.655Z" fill="#B88C62"/>
<path d="M449.617 153.739C449.617 153.739 458.906 154.434 468.311 148.988C468.311 148.988 463.666 158.49 449.849 156.983L449.617 153.739Z" fill="#AC805A"/>
<path d="M445.842 141.892C446.106 143.59 448.743 144.583 451.731 144.128C454.72 143.673 456.829 141.354 456.521 139.657C456.258 137.96 453.006 139.45 450.017 139.864C447.029 140.319 445.535 140.195 445.842 141.892Z" fill="white"/>
<path d="M440.995 126.042C442.109 126.042 443.011 124.495 443.011 122.586C443.011 120.678 442.109 119.131 440.995 119.131C439.882 119.131 438.98 120.678 438.98 122.586C438.98 124.495 439.882 126.042 440.995 126.042Z" fill="#222F4D"/>
<path d="M456.838 127.622C457.898 127.622 458.757 126.075 458.757 124.166C458.757 122.258 457.898 120.711 456.838 120.711C455.778 120.711 454.918 122.258 454.918 124.166C454.918 126.075 455.778 127.622 456.838 127.622Z" fill="#222F4D"/>
<path fill-rule="evenodd" clip-rule="evenodd" d="M434.311 118.017C434.02 117.512 434.194 116.866 434.699 116.575L435.226 117.49C434.699 116.575 434.7 116.575 434.7 116.575L434.703 116.573L434.709 116.57C434.714 116.567 434.721 116.563 434.731 116.557C434.749 116.547 434.774 116.533 434.807 116.515C434.872 116.479 434.965 116.428 435.081 116.367C435.312 116.246 435.638 116.083 436.016 115.912C436.75 115.581 437.777 115.182 438.731 115.063C439.685 114.943 440.827 115.072 441.663 115.206C442.095 115.275 442.473 115.351 442.744 115.409C442.88 115.438 442.989 115.463 443.066 115.481C443.104 115.491 443.134 115.498 443.156 115.503L443.181 115.509L443.188 115.511L443.191 115.512C443.191 115.512 443.191 115.512 442.936 116.527L443.191 115.512C443.757 115.654 444.1 116.228 443.957 116.794C443.815 117.359 443.241 117.702 442.676 117.56L442.675 117.559L442.933 116.536C442.675 117.559 442.676 117.559 442.676 117.559L442.676 117.56M435.624 117.945L435.912 117.93ZM434.311 118.017C434.602 118.522 435.119 118.236 435.624 117.945Z" fill="#222F4D"/>
<path fill-rule="evenodd" clip-rule="evenodd" d="M463.773 118.455C464.094 117.968 463.96 117.313 463.473 116.993L462.892 117.874C463.473 116.993 463.473 116.992 463.473 116.992L463.47 116.99L463.464 116.986C463.459 116.983 463.452 116.979 463.443 116.973C463.426 116.962 463.401 116.946 463.37 116.926C463.307 116.886 463.217 116.83 463.105 116.762C462.881 116.627 462.567 116.444 462.199 116.251C461.486 115.877 460.486 115.416 459.54 115.24C458.595 115.063 457.448 115.122 456.606 115.206C456.17 115.249 455.788 115.301 455.514 115.343C455.377 115.364 455.266 115.383 455.188 115.396C455.15 115.403 455.119 115.408 455.098 115.412L455.072 115.417L455.065 115.418L455.062 115.419C455.062 115.419 455.061 115.419 455.255 116.448L455.061 115.419C454.488 115.527 454.111 116.079 454.219 116.652C454.327 117.225 454.879 117.602 455.452 117.494L455.452 117.494L455.257 116.456C455.452 117.494 455.452 117.494 455.452 117.494L455.452 117.494M462.467 118.304L462.181 118.271ZM463.773 118.455C463.452 118.942 462.954 118.625 462.467 118.304Z" fill="#222F4D"/>
<path d="M475.743 95.1064C470.634 102.29 457.281 109.706 447.644 111.444C448.805 109.938 454.727 106.346 455.772 104.839C451.36 108.084 445.206 112.487 439.4 112.719C438.704 112.719 438.007 112.719 437.427 112.371C436.614 111.907 436.498 110.981 436.382 110.169C436.033 106.809 436.265 101.016 436.73 97.6555C437.31 94.2953 438.82 90.935 441.723 88.7335C445.438 85.8368 450.779 85.1416 455.772 85.0257C459.952 84.9098 464.248 85.1416 468.079 86.6479C471.911 88.1542 475.162 91.1668 475.743 94.7587" fill="#222F4D"/>
<path d="M490.256 127.434C490.953 123.842 491.533 120.482 491.649 118.165C492.114 110.981 490.024 84.6782 465.292 86.7639L471.214 94.2954C471.214 94.2954 466.337 110.285 476.671 121.293C476.671 121.293 477.252 127.782 484.45 135.197C484.567 135.313 488.746 135.197 490.256 127.434Z" fill="#222F4D"/>
<path d="M476.439 120.248C477.949 120.017 479.458 120.017 480.852 120.596C482.245 121.175 483.522 122.218 484.103 123.609C484.683 124.999 484.567 126.621 484.103 128.012C483.522 129.402 482.593 130.677 481.548 131.719C480.735 132.53 479.923 133.11 478.878 133.457C477.833 133.805 476.672 133.689 475.743 132.994" fill="#B88C62"/>
<path d="M477.252 129.172C477.136 129.172 477.716 130.099 479.11 129.751C479.806 129.635 480.387 129.056 480.851 128.361C481.199 127.665 481.548 126.854 481.664 125.927C481.78 125 481.548 124.073 481.083 123.262C480.619 122.567 479.806 122.104 479.11 122.104C477.716 122.104 477.252 123.03 477.484 123.03C477.6 123.146 478.181 122.683 479.11 122.915C480.038 123.03 480.851 124.305 480.619 125.811C480.387 127.318 479.806 128.708 478.993 129.056C477.948 129.403 477.252 129.056 477.252 129.172Z" fill="#AC805A"/>
<path d="M493.856 261.845V255.472H449.27L436.15 198.232L369.387 198.812L385.642 261.845H493.856Z" fill="#222F4D"/>
<path d="M401.085 230.097C402.13 233.11 404.8 234.964 407.122 234.269C409.444 233.574 410.489 230.445 409.561 227.432C408.516 224.42 405.845 222.566 403.523 223.261C401.201 223.956 400.04 227.085 401.085 230.097Z" fill="#FAFCFD"/>
<path d="M433.131 261.495C431.97 259.409 431.041 257.092 430.345 254.774C430.228 254.195 429.996 253.616 430.112 253.036C430.228 252.457 430.577 251.878 431.157 251.762C432.202 251.53 432.899 252.804 433.247 253.847C434.757 257.555 438.124 260.336 441.956 261.147L444.626 261.031V260.915L503.029 255.701L500.242 244.114L531.127 241.797L533.914 253.152C535.424 267.404 523.929 279.57 509.647 279.107H442.652C421.404 280.497 417.34 261.726 417.34 261.726L433.131 261.495Z" fill="#B88C62"/>
<path d="M364.058 151.655C364.058 151.655 372.802 126.95 373.975 127.391C375.045 127.792 374.962 129.649 374.962 129.649L373.497 136.986L378.942 122C378.942 122 380.453 121.632 380.957 123.005C381.199 123.673 381.068 124.666 380.903 125.416L383.144 121.637C383.144 121.637 383.347 121.049 384.408 121.395C385.53 121.761 385.391 123.655 385.391 123.655L381.376 137.994L390.266 124.211C390.266 124.211 391.906 123.074 392.473 125.003C392.65 125.676 391.399 127.691 391.399 127.691L389.488 131.356L385.451 139.606L383.451 146.632C383.451 146.632 379.564 148.287 386.169 143.269C389.931 140.411 391.074 143.175 391.074 143.175L389 145.5C389 145.5 385.054 153.086 382.415 155.264C380.242 157.062 371.106 156.895 367.983 156.784L363.921 155.758L364.058 151.655Z" fill="#B88C62"/>
<path fill-rule="evenodd" clip-rule="evenodd" d="M446.97 132.662C446.653 133.711 447.604 134.235 448.079 134.41C448.238 134.41 448.634 134.585 448.872 134.76C449.268 134.934 449.665 134.934 450.061 134.76C450.299 134.585 450.695 134.585 450.854 134.41C451.329 134.41 450.219 133.224 450.061 132C449.982 131.476 450.713 127.287 449.445 127.287C448.256 127.287 447.207 131.963 446.97 132.662Z" fill="#A17453"/>
<path d="M69.0921 107.836C71.3147 105.09 77.3289 101.561 80.4667 100.254L107.083 93.8883L138.599 92.7285L166.365 100.254L165.319 144.177L166.365 164.16L162.704 181.303L169.895 210.063C157.605 215.423 144.139 218.56 130.018 219.344H118.513C106.746 218.822 95.5022 216.468 85.0427 212.547L91.3184 176.466L81.6671 159.125L66.127 151.297C66.127 151.297 63.6009 124.699 64.2546 119.862C64.6468 116.986 67.6539 109.666 69.0921 107.836Z" fill="#57A5DA"/>
<path d="M166.364 100.254C166.364 100.254 176.824 103.914 180.223 115.287C183.622 126.791 186.76 139.733 186.76 139.733L164.011 142.348L162.573 124.438L166.364 100.254Z" fill="#57A5DA"/>
<path d="M146.994 45.7911C156.895 18.9001 127.784 7.96637 112.711 13.4332C98.6726 18.6046 93.0572 26.2877 91.4317 36.0394C89.8062 45.7911 90.6929 56.2816 95.126 65.1467C97.3426 69.5793 101.037 73.8641 105.913 74.0119" fill="#222F4D"/>
<path fill-rule="evenodd" clip-rule="evenodd" d="M150.582 46.9997L144 46.9997L144 48.834L150.582 48.834L150.582 46.9997Z" fill="#467FC1"/>
<path d="M107.828 94.2194L100.595 33.8216C100.299 31.3098 102.072 28.9458 104.585 28.5025L130.001 19.9328C138.276 18.4553 144.631 28.207 145.665 36.4812C146.995 45.6418 148.177 57.0188 147.586 63.9632C146.404 77.9997 135.912 80.6592 135.912 80.6592C135.912 80.6592 135.173 82.0485 135.912 93.5732C136.06 95.494 133.034 101.918 131.26 101.327L107.828 94.2194Z" fill="#FFBE9D"/>
<path fill-rule="evenodd" clip-rule="evenodd" d="M138.058 57.0752C138.465 58.4218 137.243 59.0951 136.633 59.3195C136.429 59.3195 135.92 59.544 135.614 59.7684C135.105 59.9928 134.596 59.9928 134.087 59.7684C133.782 59.544 133.273 59.544 133.069 59.3195C132.459 59.3195 135.49 58.2535 135.694 56.6824C135.795 56.0091 133.249 50.1738 134.878 50.1738C136.405 50.1738 137.752 56.1774 138.058 57.0752Z" fill="#EB996E"/>
<path d="M136.06 80.9562C136.06 80.9562 126.75 82.2859 116.997 77.4102C116.997 77.4102 122.465 86.7185 136.207 84.3545L136.06 80.9562Z" fill="#EB996E"/>
<path d="M134.419 65.0991C133.024 64.3941 131.134 64.5567 129.826 65.5578C128.805 66.2169 128.128 67.1638 127.976 68.3193C127.824 69.4748 128.303 70.5761 129.251 71.2561C130.383 71.8568 131.667 71.302 132.608 70.4594C133.549 69.6168 134.067 68.3028 134.666 67.1723C134.769 66.9095 134.977 66.3839 134.897 66.2004C135.104 65.6748 134.945 65.3077 134.419 65.0991Z" fill="#EA816C"/>
<path d="M126.591 64.1242C126.958 63.9657 128.257 66.4557 131.359 67.0769C134.46 67.6982 136.972 65.9586 137.131 66.3257C137.211 66.5092 136.82 67.114 135.799 67.7731C134.779 68.4323 132.969 68.7786 131.103 68.4951C129.158 68.0281 127.787 66.877 127.205 66.0387C126.543 65.0168 126.408 64.2035 126.591 64.1242Z" fill="#222F4D"/>
<path d="M125.568 41.0645C125.42 41.6555 123.499 41.5077 121.282 41.951C119.066 42.3943 117.292 43.133 116.997 42.6898C116.849 42.542 117.145 41.951 117.884 41.36C118.622 40.769 119.657 40.178 120.987 40.0302C122.317 39.7347 123.647 39.8825 124.386 40.178C125.124 40.4735 125.568 40.9167 125.568 41.0645Z" fill="#222F4D"/>
<path d="M144.34 38.8493C144.044 39.2925 142.714 38.997 141.089 38.997C139.463 38.997 138.133 39.4403 137.837 39.1448C137.69 38.997 137.838 38.5538 138.429 37.9627C139.02 37.5195 139.906 37.0762 141.089 37.0762C142.123 37.0762 143.157 37.3717 143.748 37.815C144.192 38.2582 144.487 38.7015 144.34 38.8493Z" fill="#222F4D"/>
<path d="M104.437 51.9955C104.289 51.8477 96.7525 49.1882 97.3436 57.6101C97.9347 65.8843 106.21 63.668 106.21 63.3725C106.062 63.077 104.437 51.9955 104.437 51.9955Z" fill="#FFBE9D"/>
<path d="M103.255 60.4205C103.255 60.4205 103.107 60.5683 102.811 60.716C102.516 60.8638 102.22 61.0115 101.777 60.8638C100.89 60.5682 100.004 59.2385 99.8558 57.7609C99.8558 57.0222 99.8558 56.2834 100.151 55.6924C100.299 55.1014 100.742 54.6581 101.186 54.5103C101.629 54.3626 101.925 54.6581 102.073 54.8059C102.22 55.1014 102.22 55.2491 102.22 55.2491C102.22 55.2491 102.368 55.1014 102.368 54.8059C102.368 54.6581 102.22 54.5104 102.073 54.3626C101.925 54.2149 101.629 54.2148 101.186 54.2148C100.595 54.3626 100.004 54.9536 99.708 55.5446C99.4124 56.2834 99.2647 57.0222 99.4125 57.9087C99.5603 59.534 100.595 61.1593 101.777 61.307C102.368 61.4548 102.811 61.1593 103.107 61.0115C103.255 60.5683 103.255 60.4205 103.255 60.4205Z" fill="#EB996E"/>
<path d="M132.513 15.6484C137.389 17.717 139.901 27.0254 138.424 32.049C136.946 37.0726 131.922 39.8799 126.897 41.3575C121.873 42.835 116.849 43.426 111.824 42.3917C111.677 45.7901 109.903 49.4839 106.8 50.5182C102.515 51.9957 97.9339 48.4496 96.6039 44.017C95.274 39.7322 96.4561 35.0041 97.4905 30.7193" fill="#222F4D"/>
<path d="M101.333 19.3435C104.436 18.0137 105.766 14.0243 104.732 10.9215C103.697 7.81874 100.742 5.45472 97.6388 4.5682C94.3878 3.68169 90.9891 3.97718 87.7381 4.71594C84.3393 5.60246 80.9406 6.93223 78.5762 9.59178C76.3597 12.2513 75.6208 16.5362 77.8374 19.3435C78.8718 20.6732 80.3495 21.5597 80.7928 23.0373C81.8272 26.1401 77.8374 28.9473 77.8374 32.3457C77.8374 33.9709 78.8718 35.5962 80.4972 36.1872C81.975 36.7782 83.896 36.335 84.9304 35.153C84.0438 36.335 83.0094 37.6647 82.5661 39.1423C82.1228 40.6198 82.1228 42.3928 83.1572 43.5748C84.7827 45.4956 88.1814 44.9046 89.9547 43.1316C91.7279 41.3586 92.6146 38.8468 93.5012 36.4827C96.4566 28.5041 96.7521 24.6625 102.959 18.9002" fill="#222F4D"/>
<path d="M76.9506 18.7532C76.9506 18.7532 76.8027 18.31 76.8027 17.4235C76.8027 16.537 77.0983 15.2072 77.8372 13.8774C78.576 12.5477 80.0538 11.0701 81.9748 10.1836C83.8959 9.14937 86.2603 8.70612 88.7725 8.85388C91.2847 9.00163 93.5012 9.88814 95.2745 11.0702C97.0478 12.2522 98.3778 13.5819 99.56 14.7639C100.594 15.946 101.481 16.8325 101.924 17.719C102.368 18.4577 102.516 19.0487 102.368 19.0487C102.368 19.0487 102.072 18.6055 101.629 17.8667C101.186 17.128 100.299 16.2415 99.1167 15.2072C97.9345 14.1729 96.6046 12.8432 94.979 11.8089C93.2058 10.7746 91.1369 9.88813 88.7725 9.88813C86.4081 9.74038 84.1915 10.1836 82.4182 11.0702C80.6449 11.9567 79.1672 13.1387 78.4283 14.4684C77.5417 15.7982 77.2461 16.9802 77.2461 17.8667C76.9506 18.1622 76.9506 18.7532 76.9506 18.7532Z" fill="#96A0AF"/>
<path d="M77.3936 28.5063C77.3936 28.3585 79.019 28.9495 81.5312 29.0973C84.0433 29.245 87.7376 28.9495 91.2842 27.3242C94.8307 25.6989 97.3428 23.1871 99.2638 21.2663C101.037 19.3455 102.219 18.1635 102.219 18.3112C102.219 18.3112 101.333 19.641 99.5594 21.7096C97.7861 23.6304 95.274 26.2899 91.5797 28.063C87.8853 29.836 84.0433 29.9838 81.5312 29.6883C80.2012 29.5405 79.1668 29.245 78.428 29.0973C77.8369 28.654 77.3936 28.5063 77.3936 28.5063Z" fill="#96A0AF"/>
<path d="M92.1718 39.8811C92.024 39.8811 91.7285 38.5513 91.7285 36.1873C91.7285 33.8232 92.4674 30.5727 94.2407 27.4699C96.0139 24.3671 98.0827 22.003 99.856 20.3777C101.482 18.7524 102.664 18.0137 102.811 18.0137C102.959 18.1614 101.777 19.0479 100.299 20.6732C98.6738 22.2985 96.605 24.6626 94.9795 27.7654C93.354 30.7204 92.6151 33.8232 92.3196 36.1873C92.024 38.5513 92.3196 39.8811 92.1718 39.8811Z" fill="#96A0AF"/>
<path d="M111.086 42.8372C111.086 42.6894 113.303 42.5417 116.701 41.2119C119.952 39.8821 124.385 37.2226 127.489 32.79C130.592 28.3574 131.774 23.3338 131.922 19.7877C132.07 16.2417 131.479 14.0254 131.626 14.0254C131.626 14.0254 131.774 14.6164 132.07 15.5029C132.217 16.5372 132.513 18.0147 132.365 19.7877C132.365 23.4816 131.183 28.6529 127.932 33.2333C124.681 37.8136 120.1 40.6209 116.701 41.8029C114.928 42.3939 113.598 42.6894 112.564 42.8372C111.677 42.985 111.086 42.985 111.086 42.8372Z" fill="#96A0AF"/>
<path d="M129.115 13.4316C129.115 13.4316 129.116 14.1704 128.968 15.3524C128.82 16.5344 128.377 18.3075 127.49 20.376C125.865 24.5131 122.318 29.8321 116.407 33.2304C110.496 36.6287 103.994 37.072 99.5611 36.3332C97.3446 36.0377 95.719 35.4467 94.5369 35.0035C93.3547 34.5602 92.7637 34.2647 92.7637 34.117C92.7637 33.9692 95.2758 35.1512 99.5611 35.7422C103.847 36.3332 110.053 35.89 115.816 32.4917C121.579 29.2411 125.126 24.0698 126.899 20.0805C128.82 16.2389 128.968 13.4316 129.115 13.4316Z" fill="#96A0AF"/>
<path d="M141.411 52.8701C142.312 52.8701 143.042 51.0489 143.042 48.8022C143.042 46.5556 142.312 44.7344 141.411 44.7344C140.511 44.7344 139.781 46.5556 139.781 48.8022C139.781 51.0489 140.511 52.8701 141.411 52.8701Z" fill="#222F4D"/>
<path d="M126.096 52.7998C126.997 52.7998 127.727 50.9786 127.727 48.7319C127.727 46.4853 126.997 44.6641 126.096 44.6641C125.196 44.6641 124.466 46.4853 124.466 48.7319C124.466 50.9786 125.196 52.7998 126.096 52.7998Z" fill="#222F4D"/>
<path d="M136.932 46.1883V47.8281C136.932 51.4061 139.423 54.3877 142.413 54.3877H143.783C147.519 54.3877 150.633 50.6607 150.633 46.1883C150.633 44.2502 149.387 42.7594 147.768 42.7594H139.797C138.302 42.6103 136.932 44.2502 136.932 46.1883ZM137.929 46.1883C137.929 44.8465 138.8 43.9521 139.797 43.9521H147.768C148.889 43.9521 149.637 44.9956 149.637 46.1883C149.637 50.0643 147.021 53.3441 143.658 53.3441H142.288C139.797 53.3441 137.804 50.9588 137.804 47.9772V46.1883H137.929Z" fill="#467FC1"/>
<path fill-rule="evenodd" clip-rule="evenodd" d="M137.928 46.1887H137.804V47.9776C137.804 50.9592 139.797 53.3445 142.288 53.3445H143.658C147.021 53.3445 149.636 50.0647 149.636 46.1887C149.636 44.996 148.889 43.9525 147.768 43.9525H139.797C138.8 43.9525 137.928 44.8469 137.928 46.1887ZM138.33 46.8001V47.9776C138.33 50.6391 140.102 52.7331 142.288 52.7331H143.658C146.708 52.7331 149.11 49.7531 149.11 46.1887C149.11 45.2886 148.561 44.5639 147.768 44.5639H139.797C139.083 44.5639 138.455 45.1939 138.455 46.1887V46.8001H138.33ZM136.405 47.8286V46.1887C136.405 43.9734 137.968 41.982 139.818 42.1484H147.768C149.693 42.1484 151.159 43.9305 151.159 46.1887C151.159 50.9812 147.825 54.9995 143.782 54.9995H142.412C139.117 54.9995 136.405 51.7266 136.405 47.8286ZM139.797 42.7598H147.768C149.387 42.7598 150.633 44.2506 150.633 46.1887C150.633 50.6611 147.519 54.3881 143.782 54.3881H142.412C139.423 54.3881 136.932 51.4065 136.932 47.8286V46.1887C136.932 44.2506 138.302 42.6108 139.797 42.7598Z" fill="#467FC1"/>
<path d="M128.463 42.6113H120.367C118.747 42.6113 117.502 44.1021 117.502 46.0402C117.502 50.5126 120.616 54.2396 124.352 54.2396H125.722C128.712 54.2396 131.203 51.258 131.203 47.68V46.0402C131.327 44.2512 129.957 42.6113 128.463 42.6113ZM130.331 47.8291C130.331 50.8107 128.338 53.196 125.847 53.196H124.477C121.239 53.196 118.498 50.0653 118.498 46.0402C118.498 44.6985 119.37 43.804 120.367 43.804H128.338C129.459 43.804 130.206 44.8475 130.206 46.0402V47.8291H130.331Z" fill="#467FC1"/>
<path fill-rule="evenodd" clip-rule="evenodd" d="M129.679 48.4407V46.0403C129.679 45.1402 129.13 44.4155 128.337 44.4155H120.366C119.652 44.4155 119.024 45.0456 119.024 46.0403C119.024 49.7369 121.536 52.5847 124.476 52.5847H125.846C127.861 52.5847 129.525 50.8045 129.772 48.4407H129.679ZM130.302 48.4407C130.051 51.1303 128.164 53.1961 125.846 53.1961H124.476C121.238 53.1961 118.498 50.0654 118.498 46.0403C118.498 44.6986 119.369 43.8041 120.366 43.8041H128.337C129.458 43.8041 130.206 44.8476 130.206 46.0403V47.8292H130.33C130.33 48.0361 130.321 48.2401 130.302 48.4407ZM120.366 42H128.462C130.246 42 131.864 43.917 131.729 46.0637V47.6801C131.729 51.5782 129.017 54.8511 125.722 54.8511H124.352C120.309 54.8511 116.975 50.8328 116.975 46.0403C116.975 43.7821 118.441 42 120.366 42ZM131.202 46.0403V47.6801C131.202 51.2581 128.711 54.2397 125.722 54.2397H124.352C120.615 54.2397 117.501 50.5127 117.501 46.0403C117.501 44.1022 118.747 42.6114 120.366 42.6114H128.462C129.956 42.6114 131.327 44.2513 131.202 46.0403Z" fill="#467FC1"/>
<path d="M131.825 46.1875C133.195 44.9948 135.064 44.9948 136.434 46.1875C136.683 46.3365 136.683 46.6347 136.558 46.9329C136.434 47.231 136.185 47.231 135.936 47.082C134.939 46.1875 133.445 46.1875 132.448 47.082C132.324 47.082 132.324 47.2311 132.199 47.2311C132.074 47.2311 131.95 47.231 131.825 47.082C131.701 46.6347 131.701 46.3365 131.825 46.1875Z" fill="#467FC1"/>
<path fill-rule="evenodd" clip-rule="evenodd" d="M131.476 45.7272L131.509 45.6983C133.056 44.3515 135.165 44.3428 136.719 45.6723C136.966 45.8386 137.12 46.1062 137.157 46.4204C137.193 46.7154 137.119 46.9912 137.032 47.1998C136.9 47.5154 136.666 47.7296 136.37 47.7801C136.11 47.8246 135.871 47.7311 135.694 47.6256L135.651 47.6L135.613 47.5658C134.806 46.8416 133.577 46.8416 132.77 47.5658L132.628 47.6935H132.593C132.58 47.7051 132.565 47.7168 132.55 47.7279C132.503 47.7611 132.449 47.7912 132.386 47.8122C132.323 47.8332 132.26 47.8426 132.199 47.8426C132.195 47.8426 132.191 47.8426 132.187 47.8426C132.046 47.8429 131.728 47.8435 131.447 47.5078L131.362 47.4056L131.324 47.2702C131.253 47.0166 131.205 46.7618 131.205 46.523C131.205 46.2842 131.255 45.992 131.447 45.7618L131.476 45.7272ZM132.709 47.5731C132.709 47.5732 132.708 47.5746 132.706 47.5771C132.708 47.5742 132.709 47.573 132.709 47.5731ZM136.434 46.1876C135.063 44.9949 133.195 44.9949 131.825 46.1876C131.7 46.3366 131.7 46.6348 131.825 47.0821C131.95 47.2311 132.074 47.2312 132.199 47.2312C132.261 47.2312 132.292 47.1939 132.323 47.1566C132.354 47.1193 132.386 47.0821 132.448 47.0821C133.444 46.1876 134.939 46.1876 135.935 47.0821C136.184 47.2311 136.434 47.2311 136.558 46.933C136.683 46.6348 136.683 46.3366 136.434 46.1876Z" fill="#467FC1"/>
<path fill-rule="evenodd" clip-rule="evenodd" d="M117.371 45.9743L111 45.9743L110.117 47.8086L117.371 47.8086L117.371 45.9743Z" fill="#467FC1"/>
<path d="M186.58 139.629C186.58 139.629 187.967 169.183 187.836 176.373C187.575 185.916 187.967 201.08 184.567 206.571C181.168 212.061 172.67 214.283 167.963 212.322C163.256 210.362 140.376 163.431 140.638 162.516L151.882 153.234L165.871 166.438L165.479 142.253L186.58 139.629Z" fill="#FFBE9D"/>
<path d="M118.019 150.75L133.709 153.234C136.193 153.626 138.546 151.927 138.938 149.443L144.953 111.271C145.345 108.787 143.645 106.434 141.161 106.042L125.472 103.558C122.988 103.166 120.634 104.865 120.242 107.349L114.228 145.521C113.836 148.005 115.535 150.358 118.019 150.75Z" fill="#F2DCD6"/>
<path d="M125.21 131.403C127.041 131.403 130.571 132.579 130.571 132.579L142.991 136.37L139.984 131.011C139.984 131.011 129.917 127.481 127.825 126.566C127.041 126.174 126.91 125.52 127.041 124.867C127.302 123.821 128.479 123.167 129.655 123.298L143.906 125.912L152.274 135.978L150.313 148.528L152.405 153.757L141.03 162.646C141.03 162.646 134.885 157.94 134.493 156.502C134.101 155.064 134.493 153.757 134.493 153.757L126.648 149.704C125.733 149.181 125.341 148.266 125.472 147.221V146.959L136.193 147.874L125.079 144.083C124.295 143.822 123.903 143.037 124.164 142.253C124.295 141.599 124.949 141.077 125.733 141.077L139.33 141.992L128.74 136.501C128.74 136.501 125.21 134.802 123.641 133.625C122.465 132.972 123.118 131.534 125.21 131.403Z" fill="#FFBE9D"/>
<path d="M164.041 164.738C164.041 164.738 164.302 165 164.695 165.392C165.087 165.784 165.74 166.438 166.525 167.222C168.094 168.791 170.316 170.882 172.539 173.366C173.585 174.543 174.631 175.85 175.546 177.026C176.331 178.203 177.115 179.249 177.638 180.295C178.684 182.255 179.076 183.563 179.207 183.432C179.207 183.432 179.076 183.04 178.946 182.517C178.815 182.255 178.684 181.863 178.553 181.471C178.423 181.079 178.161 180.556 177.9 180.164C177.377 179.118 176.723 178.072 175.938 176.896C175.154 175.719 174.108 174.412 172.931 173.235C170.709 170.752 168.486 168.66 166.917 167.222C166.133 166.568 165.479 165.915 164.956 165.523C164.302 165 164.041 164.738 164.041 164.738Z" fill="#EB996E"/>
<path d="M131.224 110.225C131.094 110.879 131.617 111.402 132.14 111.532C132.793 111.663 133.316 111.14 133.447 110.617C133.578 109.964 133.055 109.441 132.532 109.31C131.878 109.179 131.224 109.572 131.224 110.225Z" fill="#D33227"/>
<path d="M104.291 130.357L112.136 121.729C112.136 121.729 127.171 119.245 128.871 119.899C130.179 120.422 130.048 122.382 129.917 123.298C129.917 123.559 129.786 123.82 129.786 123.82L127.694 124.736L119.065 124.997L113.574 127.611L117.235 126.566H127.302C128.74 126.566 130.048 127.35 130.571 128.657C130.701 128.919 130.571 129.049 130.571 129.311C130.44 130.618 126.256 131.141 126.256 131.141L118.542 132.187L115.143 136.501L124.687 135.194C124.687 135.194 129.917 137.939 130.179 138.723C130.44 139.507 125.995 140.684 125.603 140.684C125.21 140.684 118.019 142.776 118.019 142.776L124.687 144.083L131.617 146.567L128.479 147.482L122.726 147.351L117.496 148.92L116.973 153.364C116.973 153.364 114.097 157.548 112.005 158.332C109.913 159.116 103.507 146.828 103.507 146.828L103.768 141.468L103.245 136.37L104.422 133.494L104.291 130.357Z" fill="#FFBE9D"/>
<path d="M112.136 158.072L94.0932 204.741C94.0932 204.741 89.3864 214.415 78.0118 212.585C67.5523 210.885 66.8986 190.754 66.8986 190.754L65.8527 151.928L85.7256 151.536L87.1638 171.929L103.637 146.568L112.136 158.072Z" fill="#FFBE9D"/>
<path d="M75.9207 197.941C75.9207 197.941 75.9207 197.549 76.0514 196.764C76.0514 196.372 76.0514 195.849 76.1822 195.326C76.1822 194.803 76.3129 194.15 76.4437 193.496C76.5744 192.189 76.9667 190.489 77.3589 188.79C77.8819 187.091 78.5356 185.13 79.32 183.169C80.2352 181.208 81.1504 179.508 82.0656 177.94C83.1116 176.371 84.0268 175.064 84.942 174.018C85.3342 173.495 85.8572 172.972 86.1187 172.58C86.5109 172.188 86.7724 171.796 87.0339 171.534C87.5569 171.011 87.8184 170.619 87.8184 170.619C87.8184 170.619 87.4261 170.881 86.9031 171.403C86.6417 171.665 86.2494 171.926 85.8572 172.449C85.465 172.841 85.0727 173.234 84.5498 173.887C83.6346 174.933 82.5886 176.24 81.6734 177.809C80.6275 179.378 79.7123 181.077 78.7971 183.038C78.0126 184.999 77.3589 186.96 76.8359 188.659C76.4437 190.489 76.0514 192.058 75.9207 193.496C75.79 194.15 75.79 194.803 75.79 195.326C75.79 195.849 75.79 196.372 75.79 196.764C75.9207 197.549 75.9207 197.941 75.9207 197.941Z" fill="#EB996E"/>
<path d="M329.027 480.4L308.744 492.884L317 512.5C323.88 506.169 332.426 501.622 336 492.884L329.027 480.4Z" fill="#D2A172"/>
<path d="M334.478 480.845C331.887 474.603 322.862 453.916 315.356 446.158C304.098 434.566 284.172 436.171 284.172 436.171L258.349 437.063C258.349 437.063 248.52 438.133 239.317 442.948L238.692 443.126V443.216C231.454 447.139 221.268 456.502 211.528 465.597L223.144 476.386L236.011 487.8C236.011 487.8 235.922 487.889 236.011 488.067C236.19 488.781 232.654 509.557 230.599 521.505C244.812 528.717 256.857 529.318 272.515 529.318C284.44 527.995 292.125 525.518 300.434 521.505L301.417 510.449C302.311 500.462 302.936 488.067 302.936 488.067L306.6 497.43L333.495 483.431C333.942 482.628 334.21 481.736 334.478 480.845Z" fill="#A22632"/>
<path d="M284.887 435.102C284.887 435.102 284.976 435.28 284.976 435.547C285.066 435.815 285.066 436.35 285.155 436.885C285.244 438.044 285.155 439.827 284.529 441.789C283.904 443.751 282.564 446.069 280.419 447.942C278.275 449.814 275.237 451.063 272.02 451.241C268.803 451.419 265.587 450.439 263.353 448.744C261.03 447.05 259.6 444.91 258.707 443.038C257.902 441.076 257.634 439.382 257.545 438.133C257.545 437.509 257.545 437.063 257.545 436.796C257.545 436.528 257.634 436.35 257.634 436.35C257.724 436.35 257.634 436.974 257.724 438.133C257.813 439.292 258.081 440.987 258.975 442.859C259.868 444.732 261.298 446.783 263.532 448.388C265.765 449.993 268.803 450.884 271.931 450.706C275.058 450.528 278.007 449.369 280.062 447.585C282.117 445.802 283.457 443.573 284.083 441.611C284.798 439.649 284.887 437.955 284.887 436.796C284.976 435.815 284.887 435.102 284.887 435.102Z" fill="#222F4D"/>
<path d="M309.459 440.719C309.459 440.808 308.744 440.719 307.672 441.165C306.51 441.521 304.991 442.502 303.651 444.196C302.311 445.891 301.417 448.387 301.149 451.241C300.97 452.667 300.881 454.183 300.881 455.699C300.792 457.304 300.792 458.909 300.792 460.514C300.702 467.113 301.149 473.176 301.596 477.456C301.775 479.596 302.043 481.38 302.132 482.539C302.221 483.074 302.221 483.52 302.311 483.966C302.311 484.322 302.311 484.411 302.311 484.411C302.311 484.411 302.221 484.233 302.221 483.966C302.132 483.609 302.043 483.163 301.953 482.628C301.775 481.469 301.507 479.686 301.238 477.546C300.702 473.176 300.256 467.202 300.345 460.514C300.345 458.82 300.434 457.215 300.434 455.699C300.524 454.094 300.613 452.578 300.792 451.152C301.149 448.298 302.043 445.712 303.472 444.018C304.902 442.324 306.51 441.343 307.672 440.986C308.744 440.63 309.459 440.719 309.459 440.719Z" fill="#222F4D"/>
<path d="M248.074 439.025C248.074 439.025 248.074 439.204 247.985 439.56C247.895 439.917 247.716 440.363 247.627 440.987C247.27 442.235 246.734 444.019 246.108 446.159C244.857 450.528 243.159 456.592 241.551 463.279C239.943 470.056 238.602 476.209 237.798 480.667C237.352 482.896 236.994 484.68 236.815 485.928C236.726 486.552 236.637 486.998 236.547 487.355C236.458 487.711 236.458 487.89 236.458 487.89C236.458 487.89 236.458 487.711 236.458 487.355C236.547 486.998 236.547 486.463 236.637 485.928C236.815 484.68 237.083 482.807 237.53 480.578C238.334 476.119 239.585 469.967 241.194 463.19C242.802 456.413 244.589 450.35 245.929 446.07C246.644 443.93 247.18 442.146 247.627 440.898C247.806 440.363 247.985 439.917 248.074 439.471C247.985 439.204 248.074 439.025 248.074 439.025Z" fill="#222F4D"/>
<path d="M334.031 476.564C334.031 476.564 333.674 476.831 332.959 477.366C332.244 477.812 331.261 478.526 330.01 479.328C327.508 480.933 323.934 483.162 319.913 485.392C315.892 487.71 312.229 489.583 309.548 491.009C308.208 491.723 307.136 492.258 306.332 492.614C305.527 492.971 305.17 493.149 305.081 493.149C305.081 493.149 305.438 492.882 306.242 492.436C307.046 491.99 308.119 491.455 309.37 490.742C312.05 489.315 315.714 487.353 319.645 485.035C323.666 482.717 327.24 480.577 329.742 479.061C330.993 478.347 331.976 477.723 332.78 477.188C333.584 476.742 333.942 476.475 334.031 476.564Z" fill="#222F4D"/>
<path d="M237.44 480.487C237.351 480.576 232.258 476.563 226.092 471.57C219.927 466.576 215.013 462.386 215.013 462.296C215.102 462.207 220.195 466.22 226.361 471.213C232.615 476.207 237.53 480.308 237.44 480.487Z" fill="#222F4D"/>
<path opacity="0.2" d="M300.434 462.297L310.531 495.468L306.778 497.429L303.115 488.067C303.026 488.067 299.273 468.36 300.434 462.297Z" fill="black"/>
<g opacity="0.2">
<path opacity="0.2" d="M249.145 439.026C243.695 441.879 257.366 448.745 263.531 448.567L259.064 436.797C259.064 436.886 250.933 438.134 249.145 439.026Z" fill="black"/>
</g>
<path opacity="0.2" d="M283.904 487.176L251.559 487.265L253.703 475.405L286.317 474.781L283.904 487.176Z" fill="white"/>
<path d="M280.777 396.849C280.509 397.74 280.866 398.81 281.581 399.345C282.296 399.969 283.368 400.059 284.172 399.613C285.691 398.81 285.87 396.581 285.512 394.887C285.155 393.193 284.529 391.32 285.244 389.715C285.78 388.467 286.942 387.664 287.925 386.683C289.533 384.989 290.337 382.492 289.891 380.174C289.444 377.856 287.657 375.805 285.423 375.27C283.1 374.646 280.241 375.448 278.543 373.754C277.292 372.595 277.113 370.544 276.13 369.117C274.611 366.888 271.395 366.621 268.714 367.066C266.033 367.512 263.353 368.404 260.672 367.78C258.438 367.245 256.651 365.818 254.596 364.926C250.129 362.965 244.41 364.213 241.104 367.78C237.798 371.346 237.083 377.142 239.496 381.422C240.3 382.938 241.64 384.365 243.248 384.989" fill="#222F4D"/>
<path d="M271.395 451.064C264.336 451.064 258.439 445.535 258.082 438.58C257.814 432.695 257.546 427.077 257.546 427.077C257.546 427.077 246.644 426.275 245.662 415.664C244.679 405.053 244.5 380.531 244.5 380.531C256.473 374.289 270.948 374.914 282.386 382.136L283.458 382.76L284.709 437.688C284.798 445.089 278.811 451.064 271.395 451.064Z" fill="#D2A172"/>
<path d="M257.546 426.901C257.546 426.901 264.337 426.901 271.217 421.818C271.217 421.818 268.536 429.754 257.725 429.665L257.546 426.901Z" fill="#A17453"/>
<path d="M283.726 393.549C283.726 392.658 284.351 391.944 285.245 391.944C287.21 391.855 290.516 392.569 290.963 398.008C291.589 405.855 283.904 403.982 283.904 403.804C283.815 403.625 283.726 396.581 283.726 393.549Z" fill="#D2A172"/>
<path d="M285.601 400.684C285.601 400.684 285.78 400.773 285.959 400.862C286.227 400.951 286.584 400.951 287.031 400.773C287.835 400.416 288.461 399.079 288.371 397.652C288.371 396.939 288.103 396.315 287.835 395.69C287.567 395.155 287.12 394.799 286.763 394.71C286.316 394.62 286.048 394.888 285.959 395.155C285.87 395.423 285.959 395.512 285.87 395.512C285.87 395.512 285.691 395.423 285.691 395.066C285.691 394.888 285.78 394.71 285.959 394.531C286.138 394.353 286.406 394.264 286.674 394.264C287.299 394.264 287.835 394.799 288.193 395.334C288.55 395.958 288.818 396.671 288.818 397.474C288.908 399.079 288.193 400.595 287.031 401.04C286.495 401.219 286.048 401.13 285.78 400.951C285.601 400.862 285.512 400.773 285.601 400.684Z" fill="#A17453"/>
<path fill-rule="evenodd" clip-rule="evenodd" d="M255.769 406.664C255.428 407.491 256.452 407.905 256.965 408.043C257.136 408.043 257.562 408.181 257.819 408.319C258.246 408.457 258.672 408.457 259.099 408.319C259.356 408.181 259.782 408.181 259.953 408.043C260.466 408.043 261.319 407.629 261.149 406.664C259.035 406.523 259.734 404.193 258.368 404.193C257.087 404.193 256.026 406.112 255.769 406.664Z" fill="#A17453"/>
<path d="M251.908 403.658C252.931 403.658 253.76 402.235 253.76 400.481C253.76 398.727 252.931 397.305 251.908 397.305C250.885 397.305 250.055 398.727 250.055 400.481C250.055 402.235 250.885 403.658 251.908 403.658Z" fill="#222F4D"/>
<path d="M264.523 403.482C265.498 403.482 266.288 402.06 266.288 400.305C266.288 398.551 265.498 397.129 264.523 397.129C263.549 397.129 262.759 398.551 262.759 400.305C262.759 402.06 263.549 403.482 264.523 403.482Z" fill="#222F4D"/>
<path fill-rule="evenodd" clip-rule="evenodd" d="M247.524 390.567C247.271 390.095 247.448 389.506 247.921 389.253L248.379 390.109C247.921 389.253 247.921 389.253 247.921 389.253L247.924 389.251L247.93 389.248C247.935 389.246 247.941 389.242 247.95 389.238C247.967 389.229 247.991 389.216 248.021 389.201C248.082 389.169 248.169 389.126 248.277 389.073C248.493 388.968 248.797 388.827 249.15 388.681C249.833 388.398 250.788 388.06 251.668 387.977C252.548 387.894 253.594 388.044 254.357 388.191C254.752 388.267 255.098 388.347 255.345 388.408C255.469 388.439 255.569 388.465 255.639 388.484C255.674 388.493 255.701 388.501 255.721 388.506L255.743 388.512L255.75 388.514L255.753 388.515C255.753 388.515 255.753 388.515 255.49 389.441L255.753 388.515C256.269 388.662 256.567 389.199 256.421 389.715C256.274 390.23 255.737 390.529 255.222 390.382L255.221 390.382L255.487 389.449C255.221 390.382 255.222 390.382 255.222 390.382L255.222 390.382M248.732 390.538L248.997 390.532ZM247.524 390.567C247.777 391.04 248.26 390.791 248.732 390.538Z" fill="#222F4D"/>
<path fill-rule="evenodd" clip-rule="evenodd" d="M270.546 391.184C270.799 390.712 270.621 390.124 270.149 389.87L269.691 390.726C270.149 389.87 270.149 389.87 270.149 389.87L270.146 389.869L270.14 389.866C270.135 389.863 270.128 389.859 270.12 389.855C270.103 389.846 270.079 389.834 270.048 389.818C269.987 389.787 269.901 389.743 269.792 389.69C269.576 389.585 269.273 389.444 268.92 389.298C268.236 389.015 267.282 388.677 266.402 388.594C265.522 388.511 264.476 388.661 263.712 388.808C263.317 388.884 262.972 388.964 262.725 389.025C262.601 389.056 262.501 389.082 262.431 389.101C262.396 389.11 262.369 389.118 262.349 389.123L262.326 389.13L262.32 389.131L262.317 389.132C262.317 389.132 262.316 389.132 262.58 390.058L262.316 389.132C261.801 389.279 261.502 389.816 261.649 390.332C261.796 390.847 262.333 391.146 262.848 390.999L262.848 390.999L262.582 390.066C262.848 390.999 262.848 390.999 262.848 390.999L262.848 390.999M269.338 391.155L269.073 391.149ZM270.546 391.184C270.293 391.657 269.81 391.408 269.338 391.155Z" fill="#222F4D"/>
<path d="M243.07 383.919C243.07 383.919 249.504 387.04 257.903 382.849C263.443 380.085 269.787 378.747 271.216 379.907C272.646 380.977 272.914 386.683 278.365 388.289C278.365 388.289 278.007 399.078 282.296 398.721C286.585 398.365 283.905 381.601 283.905 381.601L273.361 376.429L261.834 374.289L250.933 375.805L242.534 378.123L243.07 383.919Z" fill="#222F4D"/>
<path d="M196.899 402.377C197.139 403.001 205.497 445.98 205.497 445.98L188.902 449.369L181.327 414.236L196.899 402.377Z" fill="#0C1E41"/>
<path d="M205.497 445.98L207 444.821L198.342 401.307L196.719 402.555L205.497 445.98Z" fill="#060E1E"/>
<path d="M189.984 413.789C190.044 414.324 189.804 414.948 189.443 415.037C189.082 415.126 188.662 414.77 188.601 414.235C188.541 413.7 188.782 413.075 189.143 412.986C189.503 412.897 189.864 413.254 189.984 413.789Z" fill="#0C1E41"/>
<path d="M212.6 465.597L192.5 483.597L193.479 438.49L193.747 436.617L182.7 436.617C182.7 436.617 181.181 440.433 181.27 439.987L174.178 486.462C174.178 486.462 172.869 500.45 177.342 504.374C184.58 509.367 196.732 504.106 203.165 500.45L231.132 483.597L212.6 465.597Z" fill="#D2A172"/>
<path d="M199.686 424.845C198.447 424.845 196.056 425.642 196.056 425.642L187.645 428.211L189.682 424.58C189.682 424.58 196.499 422.189 197.915 421.569C198.447 421.303 198.535 420.86 198.447 420.418C198.27 419.709 197.473 419.266 196.676 419.355L187.025 421.126L181.359 427.945L182.687 436.446L181.271 439.988L188.973 446.01C188.973 446.01 193.134 442.822 193.4 441.848C193.666 440.874 193.4 439.988 193.4 439.988L198.712 437.243C199.332 436.889 199.598 436.269 199.509 435.561V435.384L192.249 436.003L199.775 433.435C200.306 433.258 200.572 432.727 200.395 432.196C200.306 431.753 199.863 431.399 199.332 431.399L190.124 432.018L197.296 428.299C197.296 428.299 199.686 427.148 200.749 426.351C201.546 425.908 201.103 424.934 199.686 424.845Z" fill="#D2A172"/>
<path d="M266.08 413.608C266.232 413.66 266.197 414.258 265.459 414.922C264.873 415.638 263.784 416.334 262.332 416.601C260.879 416.867 259.568 416.724 258.701 416.276C257.788 415.963 257.425 415.534 257.472 415.397C257.613 414.988 259.592 415.664 261.946 415.247C264.147 414.779 265.623 413.452 266.08 413.608Z" fill="#222F4D"/>
<path d="M165.879 433.654C165.879 433.528 167.525 433.275 169.678 433.275C171.83 433.275 173.476 433.402 173.476 433.654C173.476 433.907 171.83 434.034 169.678 434.034C167.652 433.907 165.879 433.781 165.879 433.654Z" fill="#DFE3E9"/>
<path d="M132.833 433.654C132.833 433.528 136.504 433.275 141.063 433.275C145.621 433.275 149.293 433.402 149.293 433.654C149.293 433.907 145.621 434.034 141.063 434.034C136.504 433.907 132.833 433.781 132.833 433.654Z" fill="#DFE3E9"/>
<path d="M99.6592 433.654C99.6592 433.528 103.331 433.275 107.889 433.275C112.447 433.275 116.119 433.402 116.119 433.654C116.119 433.907 112.447 434.034 107.889 434.034C103.331 433.907 99.6592 433.781 99.6592 433.654Z" fill="#DFE3E9"/>
<path d="M75.4755 426.072C75.6022 426.072 75.8554 429.484 75.8554 433.654C75.982 433.78 75.2223 433.022 75.4755 433.275H75.6022H75.8554H76.2352C76.4885 433.275 76.7417 433.275 76.9949 433.275C77.5014 433.275 78.0079 433.275 78.3877 433.275C79.274 433.275 80.0337 433.275 80.7934 433.401C82.1862 433.401 83.0725 433.527 83.0725 433.654C83.0725 433.78 82.1862 433.78 80.7934 433.906C80.0337 433.906 79.1474 433.906 78.3877 434.033C77.8812 434.033 77.5014 434.033 76.9949 434.033C76.7417 434.033 76.4885 434.033 76.2352 434.033H75.8554H75.6022H75.4755C75.7288 434.285 75.0957 433.654 75.0957 433.654C75.2223 429.484 75.3489 426.072 75.4755 426.072Z" fill="#DFE3E9"/>
<path d="M75.4755 396.633C75.6022 396.633 75.8554 399.918 75.8554 403.961C75.8554 408.005 75.7288 411.29 75.4755 411.29C75.3489 411.29 75.0957 408.005 75.0957 403.961C75.2223 399.918 75.3489 396.633 75.4755 396.633Z" fill="#DFE3E9"/>
<path d="M75.4755 367.316C75.6022 367.316 75.8554 370.602 75.8554 374.645C75.8554 378.688 75.7288 381.973 75.4755 381.973C75.3489 381.973 75.0957 378.688 75.0957 374.645C75.2223 370.602 75.3489 367.316 75.4755 367.316Z" fill="#DFE3E9"/>
<path d="M75.4755 344.953C75.6022 344.953 75.8554 346.596 75.8554 348.744C75.8554 350.892 75.7288 352.534 75.4755 352.534C75.3489 352.534 75.0957 350.892 75.0957 348.744C75.2223 346.722 75.3489 344.953 75.4755 344.953Z" fill="#DFE3E9"/>
<path opacity="0.3" d="M124.522 332.27C121.745 332.27 119.524 336.941 117.025 336.162C111.471 334.346 109.157 324.357 103.047 324.357C98.3267 324.357 95.6424 332.53 91.2919 332.011C84.4422 330.973 81.2951 318 73.89 318C67.0404 318 63.7081 329.157 57.3212 330.065C53.6187 330.714 50.8418 324.486 46.769 324.486C39.0862 324.486 38.4383 328.768 31.4035 331.881C29.3671 332.789 27.7935 338.238 25.572 338.238C22.8877 338.238 20.481 339.405 19 342H136C134.056 336.681 129.613 332.27 124.522 332.27Z" fill="#DFE1E6"/>
<path opacity="0.3" d="M222.478 32.2703C225.255 32.2703 227.476 36.9405 229.975 36.1622C235.529 34.3459 237.843 24.3568 243.953 24.3568C248.673 24.3568 251.358 32.5297 255.708 32.0108C262.558 30.973 265.705 18 273.11 18C279.96 18 283.292 29.1568 289.679 30.0649C293.381 30.7135 296.158 24.4865 300.231 24.4865C307.914 24.4865 308.562 28.7676 315.597 31.8811C317.633 32.7892 319.206 38.2378 321.428 38.2378C324.112 38.2378 326.519 39.4054 328 42H211C212.944 36.6811 217.387 32.2703 222.478 32.2703Z" fill="#DFE1E6"/>
</g>
<defs>
<clipPath id="clip0">
<rect width="580" height="530" fill="white"/>
</clipPath>
</defs>
</svg>
