<svg width="545" height="389" viewBox="0 0 545 389" fill="none" xmlns="http://www.w3.org/2000/svg">
<g opacity="0.51">
<path d="M316.093 352.398C411.162 352.398 488.23 275.329 488.23 180.26C488.23 85.1916 411.162 8.12305 316.093 8.12305C221.024 8.12305 143.956 85.1916 143.956 180.26C143.956 275.329 221.024 352.398 316.093 352.398Z" stroke="#73C7A0" stroke-width="3"/>
</g>
<path d="M185.641 104.271C185.55 103.944 185.525 103.602 185.568 103.265C185.611 102.929 185.72 102.604 185.89 102.31C186.06 102.016 186.286 101.758 186.557 101.553C186.827 101.347 187.136 101.198 187.464 101.113C188.125 100.947 188.824 101.044 189.413 101.384C190.003 101.725 190.437 102.282 190.623 102.937L196.219 123.814C196.396 124.488 196.3 125.204 195.951 125.808C195.603 126.411 195.031 126.853 194.358 127.036L173.48 132.63C173.152 132.721 172.81 132.745 172.474 132.703C172.137 132.66 171.812 132.55 171.518 132.38C171.224 132.211 170.966 131.984 170.761 131.714C170.555 131.443 170.406 131.135 170.321 130.806C170.23 130.479 170.205 130.137 170.248 129.8C170.291 129.463 170.4 129.138 170.57 128.844C170.74 128.55 170.967 128.293 171.237 128.087C171.507 127.882 171.816 127.732 172.145 127.647L187.079 123.675L10.9993 22.0152C10.7076 21.845 10.4523 21.6188 10.2482 21.3497C10.0441 21.0806 9.89514 20.7738 9.80988 20.447C9.72463 20.1202 9.70475 19.7798 9.7514 19.4452C9.79804 19.1107 9.91029 18.7887 10.0817 18.4977C10.2479 18.2057 10.4703 17.9497 10.7362 17.7444C11.002 17.5391 11.306 17.3886 11.6305 17.3017C11.9549 17.2147 12.2934 17.1931 12.6263 17.2379C12.9592 17.2828 13.2799 17.3933 13.5697 17.5631L189.645 119.22L185.641 104.271Z" fill="#068A5B"/>
<path d="M128.123 108.962C137.691 114.486 149.924 111.208 155.448 101.64C160.972 92.0732 157.694 79.8396 148.126 74.3159C138.559 68.7923 126.325 72.0702 120.802 81.6375C115.278 91.2048 118.556 103.438 128.123 108.962Z" fill="white"/>
<path d="M158.657 92.2092C158.674 91.6159 158.455 91.0401 158.047 90.6085C157.64 90.1769 157.077 89.9249 156.484 89.9079C155.891 89.8909 155.315 90.1103 154.883 90.5178C154.452 90.9254 154.2 91.4876 154.183 92.081C154.099 94.8886 153.291 97.6268 151.836 100.03C150.382 102.433 148.331 104.419 145.883 105.796C143.435 107.173 140.672 107.893 137.863 107.887C135.054 107.881 132.295 107.149 129.852 105.762C127.68 104.514 125.824 102.781 124.431 100.699C123.038 98.6164 122.145 96.2402 121.822 93.7558C121.498 91.2713 121.753 88.7457 122.566 86.3759C123.38 84.0061 124.729 81.8561 126.51 80.0938C128.291 78.3314 130.455 77.0043 132.833 76.2158C135.211 75.4273 137.739 75.1989 140.22 75.5483C142.701 75.8977 145.068 76.8155 147.136 78.2301C149.204 79.6447 150.917 81.5178 152.142 83.7035C152.43 84.2223 152.913 84.6054 153.483 84.7685C154.054 84.9315 154.666 84.8612 155.185 84.5729C155.704 84.2847 156.087 83.8021 156.25 83.2313C156.413 82.6606 156.343 82.0485 156.055 81.5296C153.83 77.5215 150.341 74.3625 146.132 72.5454C141.923 70.7284 137.231 70.3555 132.788 71.485C128.345 72.6144 124.401 75.1827 121.571 78.7891C118.741 82.3955 117.184 86.8372 117.143 91.4213C117.103 96.0053 118.58 100.474 121.346 104.13C124.112 107.786 128.01 110.424 132.432 111.632C136.854 112.84 141.552 112.551 145.792 110.809C150.033 109.067 153.577 105.97 155.873 102.002C157.596 99.0181 158.553 95.6534 158.657 92.2092Z" fill="#3EB57F"/>
<path d="M141.286 90.9202L136.99 88.4393C136.722 88.2848 136.526 88.0302 136.446 87.7316C136.366 87.433 136.408 87.1148 136.563 86.8471C136.717 86.5793 136.972 86.384 137.271 86.304C137.569 86.224 137.887 86.2658 138.155 86.4204L143.651 89.5937C144.165 89.8904 144.776 89.9709 145.35 89.8172C145.923 89.6636 146.412 89.2885 146.708 88.7745C147.005 88.2605 147.086 87.6497 146.932 87.0763C146.778 86.503 146.403 86.0142 145.889 85.7174L144.478 84.9028L145.018 83.9691C145.314 83.455 145.395 82.8442 145.241 82.2709C145.087 81.6976 144.712 81.2088 144.198 80.912C143.684 80.6152 143.074 80.5348 142.5 80.6884C141.927 80.842 141.438 81.2171 141.141 81.7311L140.602 82.6649L140.393 82.5442C139.097 81.7961 137.557 81.5934 136.112 81.9806C134.667 82.3679 133.435 83.3134 132.687 84.6091C131.939 85.9049 131.736 87.4448 132.123 88.89C132.51 90.3352 133.456 91.5674 134.752 92.3156L139.049 94.7964C139.316 94.951 139.512 95.2056 139.592 95.5042C139.672 95.8028 139.63 96.1209 139.475 96.3887C139.321 96.6564 139.066 96.8517 138.767 96.9318C138.469 97.0118 138.151 96.9699 137.883 96.8153L131.373 93.0567C131.118 92.9097 130.837 92.8143 130.546 92.776C130.255 92.7376 129.958 92.757 129.675 92.8331C129.391 92.9092 129.125 93.0404 128.891 93.2193C128.658 93.3982 128.463 93.6213 128.316 93.8758C128.169 94.1303 128.073 94.4113 128.035 94.7027C127.997 94.994 128.016 95.2901 128.092 95.574C128.168 95.8579 128.299 96.124 128.478 96.3571C128.657 96.5903 128.88 96.7859 129.135 96.9329L131.557 98.3314L131.362 98.67C131.065 99.184 130.984 99.7949 131.138 100.368C131.292 100.942 131.667 101.43 132.181 101.727C132.695 102.024 133.306 102.104 133.879 101.951C134.452 101.797 134.941 101.422 135.238 100.908L135.433 100.569L135.645 100.692C136.939 101.419 138.469 101.607 139.901 101.215C141.333 100.822 142.553 99.8807 143.295 98.5946C144.038 97.3085 144.243 95.7816 143.867 94.345C143.491 92.9084 142.564 91.678 141.286 90.9208L141.286 90.9202Z" fill="#3EB57F"/>
<path d="M89.5188 86.673C99.0861 92.1966 111.32 88.9186 116.843 79.3514C122.367 69.7841 119.089 57.5505 109.522 52.0269C99.9545 46.5032 87.7209 49.7812 82.1973 59.3484C76.6736 68.9157 79.9516 81.1493 89.5188 86.673Z" fill="white"/>
<path d="M120.052 69.9201C120.069 69.3268 119.85 68.751 119.443 68.3194C119.035 67.8879 118.473 67.6359 117.879 67.6189C117.286 67.6019 116.71 67.8213 116.279 68.2288C115.847 68.6363 115.595 69.1986 115.578 69.7919C115.494 72.5995 114.686 75.3377 113.232 77.7408C111.778 80.1438 109.727 82.1301 107.278 83.5068C104.83 84.8834 102.067 85.6037 99.2587 85.5978C96.4498 85.5918 93.6903 84.8597 91.2478 83.4726C89.0751 82.225 87.2199 80.4924 85.8269 78.4099C84.434 76.3273 83.5409 73.9512 83.2174 71.4667C82.8939 68.9822 83.1487 66.4566 83.9619 64.0868C84.7752 61.717 86.1248 59.5671 87.9057 57.8047C89.6865 56.0424 91.8504 54.7152 94.2285 53.9267C96.6067 53.1383 99.1348 52.9098 101.616 53.2592C104.097 53.6086 106.463 54.5264 108.531 55.941C110.599 57.3556 112.312 59.2288 113.537 61.4144C113.826 61.9333 114.308 62.3164 114.879 62.4794C115.45 62.6425 116.062 62.5721 116.581 62.2839C117.099 61.9956 117.483 61.513 117.646 60.9423C117.809 60.3715 117.738 59.7594 117.45 59.2406C115.225 55.2324 111.736 52.0734 107.527 50.2564C103.319 48.4393 98.6267 48.0665 94.1837 49.1959C89.7408 50.3253 85.7966 52.8936 82.9665 56.5C80.1364 60.1064 78.5796 64.5481 78.5389 69.1322C78.4982 73.7163 79.9759 78.1849 82.7416 81.841C85.5072 85.4971 89.4052 88.1349 93.8274 89.3431C98.2496 90.5512 102.947 90.2617 107.188 88.5196C111.428 86.7776 114.973 83.681 117.268 79.713C118.992 76.729 119.948 73.3644 120.052 69.9201Z" fill="#3EB57F"/>
<path d="M102.682 68.6311L98.3851 66.1503C98.1173 65.9957 97.922 65.7411 97.842 65.4425C97.762 65.1439 97.8038 64.8257 97.9584 64.558C98.113 64.2903 98.3676 64.0949 98.6662 64.0149C98.9648 63.9349 99.283 63.9768 99.5507 64.1314L105.047 67.3046C105.561 67.6014 106.172 67.6818 106.745 67.5282C107.318 67.3746 107.807 66.9995 108.104 66.4855C108.401 65.9714 108.481 65.3606 108.328 64.7873C108.174 64.214 107.799 63.7252 107.285 63.4284L105.874 62.6138L106.413 61.68C106.71 61.166 106.79 60.5551 106.637 59.9818C106.483 59.4085 106.108 58.9197 105.594 58.6229C105.08 58.3262 104.469 58.2457 103.896 58.3994C103.322 58.553 102.834 58.928 102.537 59.4421L101.998 60.3758L101.789 60.2551C100.493 59.507 98.953 59.3043 97.5078 59.6916C96.0625 60.0788 94.8303 61.0243 94.0822 62.3201C93.3341 63.6158 93.1314 65.1557 93.5186 66.6009C93.9059 68.0462 94.8514 69.2784 96.1471 70.0265L100.444 72.5073C100.712 72.6619 100.907 72.9165 100.987 73.2151C101.067 73.5137 101.025 73.8319 100.871 74.0996C100.716 74.3673 100.462 74.5627 100.163 74.6427C99.8643 74.7227 99.5462 74.6808 99.2784 74.5262L92.7683 70.7676C92.5138 70.6206 92.2328 70.5253 91.9414 70.4869C91.65 70.4486 91.354 70.468 91.0701 70.544C90.7862 70.6201 90.5201 70.7513 90.2869 70.9302C90.0538 71.1091 89.8581 71.3322 89.7112 71.5867C89.5642 71.8413 89.4689 72.1222 89.4305 72.4136C89.3921 72.705 89.4116 73.001 89.4876 73.2849C89.5637 73.5688 89.6949 73.8349 89.8738 74.0681C90.0527 74.3012 90.2758 74.4969 90.5303 74.6438L92.9526 76.0423L92.7571 76.381C92.4604 76.895 92.38 77.5058 92.5336 78.0792C92.6872 78.6525 93.0623 79.1413 93.5763 79.438C94.0903 79.7348 94.7012 79.8152 95.2745 79.6616C95.8478 79.508 96.3366 79.1329 96.6334 78.6189L96.8289 78.2803L97.0405 78.4025C98.335 79.1302 99.8642 79.3182 101.296 78.9256C102.729 78.533 103.948 77.5916 104.691 76.3055C105.433 75.0195 105.639 73.4925 105.263 72.0559C104.887 70.6193 103.959 69.3889 102.682 68.6318L102.682 68.6311Z" fill="#3EB57F"/>
<path d="M50.9129 64.3839C60.4801 69.9076 72.7138 66.6296 78.2374 57.0623C83.7611 47.4951 80.4831 35.2615 70.9158 29.7378C61.3486 24.2141 49.115 27.4921 43.5913 37.0594C38.0676 46.6266 41.3456 58.8602 50.9129 64.3839Z" fill="white"/>
<path d="M81.4465 47.6311C81.4635 47.0377 81.2442 46.462 80.8366 46.0304C80.4291 45.5988 79.8668 45.3468 79.2735 45.3298C78.6802 45.3128 78.1044 45.5322 77.6728 45.9397C77.2412 46.3472 76.9892 46.9095 76.9722 47.5028C76.8884 50.3104 76.0802 53.0487 74.6259 55.4517C73.1717 57.8548 71.1208 59.841 68.6725 61.2177C66.2242 62.5944 63.4615 63.3147 60.6527 63.3087C57.8439 63.3027 55.0843 62.5706 52.6419 61.1835C50.4691 59.936 48.6139 58.2034 47.221 56.1208C45.828 54.0383 44.935 51.6621 44.6115 49.1776C44.288 46.6932 44.5428 44.1675 45.356 41.7977C46.1692 39.4279 47.5189 37.278 49.2997 35.5157C51.0805 33.7533 53.2444 32.4261 55.6226 31.6377C58.0007 30.8492 60.5289 30.6208 63.0098 30.9702C65.4908 31.3196 67.8575 32.2374 69.9254 33.6519C71.9933 35.0665 73.7065 36.9397 74.9313 39.1253C75.2196 39.6442 75.7022 40.0273 76.2729 40.1904C76.8436 40.3534 77.4558 40.2831 77.9746 39.9948C78.4935 39.7065 78.8766 39.2239 79.0397 38.6532C79.2027 38.0825 79.1324 37.4704 78.8441 36.9515C76.6192 32.9433 73.1301 29.7843 68.9214 27.9673C64.7126 26.1503 60.0207 25.7774 55.5778 26.9068C51.1348 28.0363 47.1906 30.6045 44.3605 34.2109C41.5305 37.8173 39.9736 42.259 39.9329 46.8431C39.8922 51.4272 41.37 55.8959 44.1356 59.5519C46.9012 63.208 50.7992 65.8459 55.2214 67.054C59.6436 68.2621 64.3413 67.9726 68.5817 66.2306C72.8221 64.4885 76.3666 61.392 78.6624 57.424C80.3856 54.44 81.3422 51.0753 81.4465 47.6311Z" fill="#3EB57F"/>
<path d="M64.0765 46.342L59.7796 43.8612C59.5119 43.7066 59.3165 43.452 59.2365 43.1534C59.1565 42.8548 59.1984 42.5367 59.353 42.2689C59.5075 42.0012 59.7621 41.8059 60.0607 41.7258C60.3593 41.6458 60.6775 41.6877 60.9452 41.8423L66.4414 45.0155C66.9555 45.3123 67.5663 45.3927 68.1396 45.2391C68.7129 45.0855 69.2018 44.7104 69.4985 44.1964C69.7953 43.6824 69.8757 43.0715 69.7221 42.4982C69.5685 41.9249 69.1934 41.4361 68.6794 41.1393L67.2685 40.3247L67.8076 39.3909C68.1043 38.8769 68.1848 38.2661 68.0311 37.6928C67.8775 37.1194 67.5024 36.6306 66.9884 36.3339C66.4744 36.0371 65.8636 35.9567 65.2902 36.1103C64.7169 36.2639 64.2281 36.639 63.9314 37.153L63.3922 38.0868L63.1832 37.9661C61.8874 37.218 60.3475 37.0152 58.9023 37.4025C57.457 37.7897 56.2248 38.7352 55.4767 40.031C54.7286 41.3268 54.5259 42.8666 54.9131 44.3119C55.3004 45.7571 56.2459 46.9893 57.5417 47.7374L61.8386 50.2183C62.1063 50.3728 62.3017 50.6274 62.3817 50.926C62.4617 51.2246 62.4198 51.5428 62.2652 51.8105C62.1107 52.0783 61.8561 52.2736 61.5575 52.3536C61.2589 52.4336 60.9407 52.3918 60.673 52.2372L54.1628 48.4785C53.9083 48.3316 53.6273 48.2362 53.3359 48.1979C53.0446 48.1595 52.7485 48.1789 52.4646 48.255C52.1807 48.331 51.9146 48.4623 51.6815 48.6412C51.4483 48.8201 51.2527 49.0432 51.1057 49.2977C50.9588 49.5522 50.8634 49.8332 50.825 50.1245C50.7867 50.4159 50.8061 50.712 50.8822 50.9959C50.9582 51.2797 51.0894 51.5459 51.2684 51.779C51.4473 52.0122 51.6703 52.2078 51.9249 52.3547L54.3472 53.7533L54.1517 54.0919C53.8549 54.6059 53.7745 55.2168 53.9281 55.7901C54.0817 56.3634 54.4568 56.8522 54.9708 57.149C55.4848 57.4457 56.0957 57.5262 56.669 57.3725C57.2423 57.2189 57.7311 56.8439 58.0279 56.3298L58.2234 55.9912L58.435 56.1134C59.7295 56.8411 61.2587 57.0291 62.6909 56.6365C64.1231 56.244 65.3428 55.3025 66.0853 54.0165C66.8278 52.7304 67.0333 51.2034 66.6572 49.7668C66.281 48.3302 65.3536 47.0999 64.0762 46.3427L64.0765 46.342Z" fill="#3EB57F"/>
<path d="M442.868 106.293C442.87 106.077 442.828 105.863 442.746 105.663C442.664 105.463 442.544 105.282 442.391 105.129C442.238 104.976 442.056 104.855 441.856 104.773C441.657 104.691 441.442 104.65 441.226 104.652C440.793 104.658 440.379 104.833 440.073 105.14C439.766 105.446 439.591 105.86 439.585 106.293L439.584 120.053C439.586 120.496 439.763 120.921 440.077 121.235C440.39 121.549 440.815 121.726 441.259 121.728L455.019 121.725C455.235 121.726 455.449 121.685 455.649 121.603C455.849 121.521 456.031 121.4 456.184 121.248C456.336 121.095 456.457 120.913 456.539 120.713C456.621 120.513 456.662 120.299 456.661 120.083C456.662 119.867 456.621 119.653 456.539 119.453C456.457 119.253 456.336 119.071 456.184 118.919C456.031 118.766 455.849 118.645 455.649 118.563C455.449 118.481 455.235 118.44 455.019 118.441L445.183 118.458L536.699 26.9426C536.85 26.7898 536.97 26.6087 537.051 26.4097C537.132 26.2106 537.173 25.9974 537.172 25.7824C537.17 25.5674 537.126 25.3548 537.043 25.1568C536.959 24.9588 536.837 24.7793 536.683 24.6286C536.533 24.4764 536.354 24.3555 536.157 24.2731C535.96 24.1906 535.748 24.1481 535.534 24.1481C535.32 24.1481 535.108 24.1906 534.911 24.2731C534.714 24.3555 534.535 24.4764 534.385 24.6286L442.869 116.144L442.868 106.293Z" fill="#068A5B"/>
<path d="M511.593 64.8037C515.905 60.4917 515.905 53.5005 511.593 49.1885C507.281 44.8765 500.29 44.8765 495.978 49.1885C491.666 53.5005 491.666 60.4917 495.978 64.8037C500.29 69.1157 507.281 69.1157 511.593 64.8037Z" fill="white"/>
<path d="M507.022 46.1287C506.708 46.0348 506.369 46.0695 506.08 46.2254C505.792 46.3812 505.577 46.6454 505.483 46.9597C505.389 47.2741 505.424 47.6129 505.579 47.9016C505.735 48.1903 505.999 48.4053 506.314 48.4993C507.799 48.9444 509.143 49.766 510.217 50.8841C511.291 52.0023 512.057 53.3791 512.442 54.8809C512.827 56.3827 512.816 57.9584 512.412 59.4551C512.008 60.9517 511.224 62.3185 510.136 63.4227C509.16 64.4033 507.972 65.1454 506.662 65.591C505.353 66.0365 503.958 66.1736 502.587 65.9914C501.216 65.8092 499.905 65.3128 498.758 64.5407C497.61 63.7687 496.656 62.742 495.971 61.5406C495.285 60.3393 494.887 58.9958 494.806 57.615C494.725 56.2342 494.964 54.8534 495.505 53.5803C496.046 52.3072 496.873 51.1763 497.923 50.2756C498.973 49.375 500.216 48.7291 501.557 48.3883C501.875 48.3087 502.148 48.1062 502.316 47.8253C502.485 47.5443 502.535 47.2079 502.456 46.8901C502.376 46.5723 502.173 46.2991 501.893 46.1305C501.612 45.962 501.275 45.912 500.957 45.9915C498.502 46.6052 496.319 48.0143 494.749 49.9989C493.179 51.9834 492.31 54.4319 492.278 56.9622C492.245 59.4926 493.051 61.9625 494.57 63.9868C496.088 66.011 498.234 67.4756 500.673 68.1522C503.111 68.8287 505.705 68.6792 508.05 67.7268C510.394 66.7745 512.357 65.0729 513.633 62.8875C514.909 60.7021 515.426 58.1559 515.103 55.6461C514.78 53.1362 513.635 50.8039 511.847 49.013C510.502 47.6675 508.844 46.6765 507.022 46.1287Z" fill="#3EB57F"/>
<path d="M503.855 55.2064L501.918 57.1439C501.797 57.2646 501.634 57.3324 501.463 57.3324C501.292 57.3324 501.128 57.2646 501.008 57.1439C500.887 57.0232 500.819 56.8595 500.819 56.6888C500.819 56.5182 500.887 56.3545 501.008 56.2338L503.485 53.7569C503.716 53.5253 503.846 53.2111 503.846 52.8835C503.846 52.5559 503.716 52.2417 503.485 52.0101C503.253 51.7784 502.939 51.6483 502.611 51.6483C502.284 51.6483 501.969 51.7784 501.738 52.0101L501.103 52.6447L500.684 52.2258C500.453 51.9942 500.138 51.864 499.811 51.864C499.483 51.864 499.169 51.9942 498.937 52.2258C498.706 52.4575 498.575 52.7716 498.575 53.0992C498.575 53.4269 498.706 53.741 498.937 53.9727L499.356 54.3916L499.261 54.4869C498.677 55.0709 498.349 55.863 498.349 56.6888C498.349 57.5147 498.677 58.3068 499.261 58.8908C499.845 59.4748 500.637 59.8028 501.463 59.8028C502.289 59.8028 503.081 59.4748 503.665 58.8908L505.602 56.9533C505.724 56.8393 505.886 56.7772 506.053 56.7801C506.219 56.7829 506.379 56.8504 506.497 56.9685C506.615 57.0865 506.682 57.2457 506.685 57.4126C506.688 57.5795 506.626 57.7409 506.512 57.8629L503.578 60.7969C503.463 60.9116 503.372 61.0477 503.31 61.1976C503.248 61.3475 503.216 61.5081 503.216 61.6703C503.216 61.8325 503.248 61.9931 503.31 62.143C503.372 62.2929 503.463 62.429 503.578 62.5437C503.693 62.6584 503.829 62.7494 503.979 62.8115C504.128 62.8736 504.289 62.9055 504.451 62.9055C504.613 62.9055 504.774 62.8736 504.924 62.8115C505.074 62.7494 505.21 62.6584 505.325 62.5437L506.417 61.4519L506.569 61.6048C506.801 61.8365 507.115 61.9666 507.443 61.9666C507.77 61.9666 508.085 61.8365 508.316 61.6048C508.548 61.3732 508.678 61.059 508.678 60.7314C508.678 60.4038 508.548 60.0896 508.316 59.858L508.163 59.705L508.258 59.6103C508.842 59.0263 509.17 58.2342 509.17 57.4083C509.17 56.5824 508.842 55.7904 508.258 55.2064C507.674 54.6224 506.882 54.2943 506.056 54.2943C505.23 54.2943 504.438 54.6224 503.854 55.2064H503.855Z" fill="#3EB57F"/>
<path d="M494.193 82.2021C498.505 77.8901 498.505 70.899 494.193 66.587C489.881 62.275 482.89 62.275 478.578 66.587C474.266 70.899 474.266 77.8901 478.578 82.2021C482.89 86.5141 489.881 86.5141 494.193 82.2021Z" fill="white"/>
<path d="M489.622 63.5272C489.308 63.4332 488.969 63.468 488.68 63.6238C488.392 63.7797 488.177 64.0438 488.083 64.3582C487.989 64.6725 488.024 65.0113 488.179 65.3001C488.335 65.5888 488.599 65.8038 488.914 65.8977C490.399 66.3429 491.743 67.1644 492.817 68.2826C493.891 69.4007 494.657 70.7776 495.042 72.2793C495.427 73.7811 495.416 75.3568 495.012 76.8535C494.608 78.3502 493.824 79.7169 492.736 80.8211C491.761 81.8018 490.572 82.5438 489.262 82.9894C487.953 83.435 486.558 83.572 485.187 83.3899C483.816 83.2077 482.505 82.7112 481.358 81.9392C480.21 81.1671 479.256 80.1404 478.571 78.9391C477.885 77.7377 477.487 76.3943 477.406 75.0135C477.325 73.6327 477.564 72.2519 478.105 70.9788C478.646 69.7057 479.473 68.5747 480.523 67.6741C481.573 66.7735 482.817 66.1275 484.157 65.7867C484.475 65.7072 484.748 65.5047 484.917 65.2237C485.085 64.9428 485.135 64.6064 485.056 64.2885C484.976 63.9707 484.774 63.6975 484.493 63.529C484.212 63.3605 483.875 63.3105 483.557 63.39C481.102 64.0037 478.92 65.4127 477.349 67.3973C475.779 69.3818 474.91 71.8303 474.878 74.3606C474.845 76.891 475.651 79.361 477.17 81.3852C478.688 83.4094 480.834 84.8741 483.273 85.5506C485.711 86.2272 488.305 86.0776 490.65 85.1253C492.994 84.1729 494.958 82.4713 496.233 80.2859C497.509 78.1006 498.026 75.5544 497.703 73.0445C497.38 70.5347 496.235 68.2023 494.447 66.4114C493.102 65.0659 491.444 64.0749 489.622 63.5272Z" fill="#3EB57F"/>
<path d="M486.455 72.6087L484.518 74.5462C484.397 74.6669 484.234 74.7347 484.063 74.7347C483.892 74.7347 483.729 74.6669 483.608 74.5462C483.487 74.4255 483.419 74.2619 483.419 74.0912C483.419 73.9205 483.487 73.7568 483.608 73.6361L486.085 71.1593C486.316 70.9276 486.447 70.6135 486.447 70.2858C486.447 69.9582 486.316 69.6441 486.085 69.4124C485.853 69.1808 485.539 69.0506 485.211 69.0506C484.884 69.0506 484.569 69.1808 484.338 69.4124L483.703 70.0471L483.284 69.6281C483.053 69.3965 482.738 69.2664 482.411 69.2664C482.083 69.2664 481.769 69.3965 481.537 69.6281C481.306 69.8598 481.176 70.174 481.176 70.5016C481.176 70.8292 481.306 71.1434 481.537 71.375L481.956 71.794L481.861 71.8893C481.277 72.4732 480.949 73.2653 480.949 74.0912C480.949 74.9171 481.277 75.7091 481.861 76.2931C482.445 76.8771 483.237 77.2052 484.063 77.2052C484.889 77.2052 485.681 76.8771 486.265 76.2931L488.202 74.3556C488.324 74.2417 488.486 74.1796 488.653 74.1824C488.819 74.1852 488.979 74.2528 489.097 74.3708C489.215 74.4888 489.282 74.6481 489.285 74.8149C489.288 74.9818 489.226 75.1433 489.112 75.2652L486.178 78.1992C486.063 78.3139 485.972 78.4501 485.91 78.5999C485.848 78.7498 485.816 78.9104 485.816 79.0726C485.816 79.2348 485.848 79.3955 485.91 79.5453C485.972 79.6952 486.063 79.8314 486.178 79.9461C486.293 80.0608 486.429 80.1518 486.579 80.2138C486.729 80.2759 486.889 80.3079 487.051 80.3079C487.214 80.3079 487.374 80.2759 487.524 80.2138C487.674 80.1518 487.81 80.0608 487.925 79.9461L489.017 78.8543L489.17 79.0072C489.401 79.2388 489.715 79.369 490.043 79.369C490.371 79.369 490.685 79.2388 490.916 79.0072C491.148 78.7755 491.278 78.4613 491.278 78.1337C491.278 77.8061 491.148 77.4919 490.916 77.2603L490.764 77.1074L490.858 77.0126C491.442 76.4286 491.77 75.6366 491.77 74.8107C491.77 73.9848 491.442 73.1927 490.858 72.6087C490.274 72.0248 489.482 71.6967 488.656 71.6967C487.83 71.6967 487.038 72.0248 486.454 72.6087H486.455Z" fill="#3EB57F"/>
<path d="M476.793 99.6044C481.105 95.2924 481.105 88.3013 476.793 83.9893C472.481 79.6773 465.49 79.6773 461.178 83.9893C456.866 88.3013 456.866 95.2924 461.178 99.6044C465.49 103.916 472.481 103.916 476.793 99.6044Z" fill="white"/>
<path d="M472.222 80.9295C471.908 80.8356 471.569 80.8703 471.281 81.0262C470.992 81.182 470.777 81.4462 470.683 81.7605C470.589 82.0749 470.624 82.4137 470.78 82.7024C470.935 82.9911 471.2 83.2061 471.514 83.3001C472.999 83.7452 474.344 84.5667 475.417 85.6849C476.491 86.8031 477.257 88.1799 477.642 89.6817C478.027 91.1835 478.017 92.7592 477.612 94.2559C477.208 95.7525 476.424 97.1193 475.336 98.2235C474.361 99.2041 473.172 99.9462 471.862 100.392C470.553 100.837 469.158 100.974 467.787 100.792C466.416 100.61 465.106 100.114 463.958 99.3415C462.81 98.5695 461.857 97.5428 461.171 96.3414C460.486 95.1401 460.087 93.7966 460.006 92.4158C459.925 91.035 460.164 89.6542 460.705 88.3811C461.246 87.108 462.073 85.9771 463.123 85.0764C464.173 84.1758 465.417 83.5299 466.757 83.189C467.075 83.1095 467.348 82.907 467.517 82.6261C467.685 82.3451 467.735 82.0087 467.656 81.6909C467.576 81.3731 467.374 81.0998 467.093 80.9313C466.812 80.7628 466.475 80.7128 466.158 80.7923C463.703 81.406 461.52 82.8151 459.95 84.7996C458.379 86.7842 457.51 89.2326 457.478 91.763C457.445 94.2934 458.251 96.7633 459.77 98.7875C461.289 100.812 463.435 102.276 465.873 102.953C468.311 103.63 470.905 103.48 473.25 102.528C475.594 101.575 477.558 99.8737 478.834 97.6883C480.109 95.5029 480.626 92.9567 480.303 90.4469C479.98 87.937 478.835 85.6047 477.047 83.8137C475.702 82.4682 474.044 81.4772 472.222 80.9295Z" fill="#3EB57F"/>
<path d="M469.056 90.0072L467.118 91.9447C466.997 92.0654 466.834 92.1332 466.663 92.1332C466.492 92.1332 466.329 92.0654 466.208 91.9447C466.087 91.824 466.019 91.6603 466.019 91.4896C466.019 91.3189 466.087 91.1553 466.208 91.0346L468.685 88.5577C468.916 88.3261 469.047 88.0119 469.047 87.6843C469.047 87.3567 468.916 87.0425 468.685 86.8108C468.453 86.5792 468.139 86.4491 467.811 86.4491C467.484 86.4491 467.17 86.5792 466.938 86.8108L466.303 87.4455L465.884 87.0266C465.653 86.7949 465.339 86.6648 465.011 86.6648C464.683 86.6648 464.369 86.7949 464.137 87.0266C463.906 87.2582 463.776 87.5724 463.776 87.9C463.776 88.2276 463.906 88.5418 464.137 88.7735L464.556 89.1924L464.461 89.2877C463.877 89.8717 463.549 90.6637 463.549 91.4896C463.549 92.3155 463.877 93.1076 464.461 93.6916C465.045 94.2755 465.837 94.6036 466.663 94.6036C467.489 94.6036 468.281 94.2755 468.865 93.6916L470.802 91.7541C470.924 91.6401 471.086 91.578 471.253 91.5808C471.42 91.5837 471.579 91.6512 471.697 91.7692C471.815 91.8873 471.882 92.0465 471.885 92.2134C471.888 92.3802 471.826 92.5417 471.712 92.6636L468.778 95.5976C468.663 95.7123 468.572 95.8485 468.51 95.9984C468.448 96.1482 468.416 96.3089 468.416 96.4711C468.416 96.6333 468.448 96.7939 468.51 96.9438C468.572 97.0936 468.663 97.2298 468.778 97.3445C468.893 97.4592 469.029 97.5502 469.179 97.6123C469.329 97.6744 469.489 97.7063 469.651 97.7063C469.814 97.7063 469.974 97.6744 470.124 97.6123C470.274 97.5502 470.41 97.4592 470.525 97.3445L471.617 96.2527L471.77 96.4056C472.001 96.6373 472.315 96.7674 472.643 96.7674C472.971 96.7674 473.285 96.6373 473.517 96.4056C473.748 96.174 473.878 95.8598 473.878 95.5322C473.878 95.2046 473.748 94.8904 473.517 94.6587L473.364 94.5058L473.458 94.411C474.042 93.8271 474.37 93.035 474.37 92.2091C474.37 91.3832 474.042 90.5912 473.458 90.0072C472.874 89.4232 472.082 89.0951 471.256 89.0951C470.431 89.0951 469.639 89.4232 469.055 90.0072H469.056Z" fill="#3EB57F"/>
<path d="M214.375 269.724C214.127 269.727 213.88 269.679 213.651 269.586C213.421 269.492 213.212 269.353 213.036 269.177C212.861 269.002 212.722 268.793 212.628 268.563C212.534 268.333 212.487 268.087 212.49 267.839C212.497 267.341 212.698 266.866 213.05 266.514C213.402 266.162 213.877 265.961 214.375 265.954L230.165 265.957C230.674 265.959 231.162 266.162 231.522 266.522C231.882 266.882 232.085 267.37 232.088 267.879L232.089 283.669C232.092 283.918 232.045 284.164 231.951 284.394C231.857 284.623 231.718 284.832 231.543 285.008C231.367 285.183 231.158 285.322 230.928 285.416C230.699 285.51 230.452 285.557 230.204 285.554C229.956 285.557 229.71 285.51 229.48 285.416C229.25 285.322 229.041 285.183 228.866 285.008C228.69 284.832 228.551 284.623 228.458 284.394C228.364 284.164 228.317 283.918 228.319 283.669L228.339 272.379L123.293 377.425C123.118 377.598 122.91 377.735 122.681 377.829C122.453 377.922 122.209 377.969 121.962 377.967C121.715 377.966 121.471 377.916 121.244 377.82C121.017 377.724 120.811 377.584 120.638 377.408C120.463 377.236 120.324 377.03 120.229 376.804C120.134 376.577 120.086 376.334 120.086 376.089C120.086 375.843 120.134 375.6 120.229 375.374C120.324 375.147 120.463 374.942 120.638 374.77L225.681 269.726L214.375 269.724Z" fill="#068A5B"/>
<path d="M206.807 311.206C212.515 305.498 212.515 296.244 206.807 290.536C201.1 284.829 191.846 284.829 186.138 290.536C180.43 296.244 180.43 305.498 186.138 311.206C191.846 316.913 201.1 316.913 206.807 311.206Z" fill="white"/>
<path d="M200.757 286.487C200.342 286.363 199.894 286.409 199.512 286.616C199.131 286.822 198.847 287.171 198.723 287.587C198.599 288.003 198.645 288.45 198.851 288.832C199.057 289.214 199.407 289.498 199.822 289.622C201.788 290.211 203.568 291.299 204.989 292.78C206.411 294.261 207.425 296.084 207.933 298.073C208.442 300.061 208.428 302.147 207.892 304.129C207.356 306.11 206.317 307.919 204.875 309.38C203.584 310.677 202.01 311.659 200.277 312.248C198.544 312.837 196.698 313.018 194.884 312.777C193.069 312.535 191.335 311.878 189.816 310.856C188.298 309.834 187.036 308.474 186.129 306.884C185.222 305.294 184.694 303.516 184.587 301.689C184.48 299.862 184.797 298.034 185.513 296.349C186.228 294.664 187.323 293.168 188.713 291.976C190.102 290.784 191.748 289.929 193.522 289.477C193.938 289.368 194.295 289.099 194.515 288.729C194.734 288.358 194.798 287.916 194.694 287.498C194.589 287.081 194.324 286.721 193.956 286.498C193.588 286.274 193.147 286.205 192.728 286.305C189.478 287.117 186.589 288.983 184.51 291.609C182.432 294.236 181.282 297.477 181.239 300.827C181.196 304.176 182.263 307.446 184.273 310.125C186.283 312.804 189.123 314.743 192.351 315.639C195.579 316.534 199.012 316.336 202.116 315.076C205.219 313.815 207.818 311.563 209.507 308.67C211.196 305.777 211.88 302.407 211.452 299.085C211.024 295.763 209.509 292.675 207.143 290.305C205.363 288.524 203.169 287.212 200.757 286.487Z" fill="#3EB57F"/>
<path d="M196.565 298.506L193.999 301.072C193.839 301.232 193.622 301.322 193.397 301.322C193.171 301.322 192.954 301.232 192.794 301.072C192.635 300.912 192.545 300.696 192.545 300.47C192.545 300.244 192.635 300.027 192.794 299.868L196.073 296.589C196.38 296.282 196.552 295.866 196.552 295.432C196.552 294.999 196.38 294.583 196.073 294.276C195.767 293.97 195.351 293.797 194.917 293.797C194.484 293.797 194.068 293.97 193.761 294.276L192.922 295.115L192.364 294.557C192.058 294.251 191.642 294.078 191.208 294.078C190.775 294.078 190.359 294.251 190.052 294.557C189.745 294.864 189.573 295.28 189.573 295.714C189.573 296.147 189.745 296.563 190.052 296.87L190.609 297.427L190.483 297.553C189.71 298.326 189.276 299.374 189.276 300.467C189.276 301.56 189.71 302.609 190.483 303.382C191.256 304.155 192.305 304.589 193.398 304.589C194.491 304.589 195.54 304.155 196.313 303.382L198.879 300.816C199.038 300.656 199.255 300.567 199.481 300.567C199.707 300.567 199.923 300.656 200.083 300.816C200.243 300.976 200.332 301.192 200.332 301.418C200.332 301.644 200.243 301.861 200.083 302.02L196.198 305.905C195.891 306.212 195.719 306.628 195.719 307.062C195.719 307.495 195.891 307.911 196.198 308.218C196.505 308.524 196.921 308.697 197.354 308.697C197.788 308.697 198.204 308.524 198.51 308.218L199.955 306.773L200.157 306.975C200.464 307.282 200.88 307.454 201.314 307.454C201.747 307.454 202.163 307.282 202.47 306.975C202.776 306.669 202.949 306.253 202.949 305.819C202.949 305.385 202.776 304.969 202.47 304.663L202.268 304.461L202.393 304.335C203.166 303.562 203.601 302.514 203.601 301.42C203.601 300.327 203.166 299.279 202.393 298.506C201.62 297.733 200.572 297.298 199.479 297.298C198.385 297.298 197.337 297.733 196.564 298.506L196.565 298.506Z" fill="#3EB57F"/>
<path d="M182.662 336.061C188.369 330.354 188.369 321.1 182.662 315.392C176.954 309.684 167.7 309.684 161.992 315.392C156.285 321.1 156.285 330.354 161.992 336.061C167.7 341.769 176.954 341.769 182.662 336.061Z" fill="white"/>
<path d="M176.612 311.343C176.197 311.219 175.749 311.265 175.367 311.471C174.986 311.677 174.702 312.027 174.578 312.442C174.453 312.858 174.5 313.306 174.706 313.688C174.912 314.069 175.261 314.353 175.677 314.477C177.643 315.067 179.423 316.155 180.844 317.636C182.266 319.116 183.28 320.94 183.788 322.928C184.297 324.917 184.283 327.003 183.747 328.984C183.211 330.965 182.172 332.774 180.73 334.235C179.439 335.533 177.865 336.514 176.132 337.104C174.399 337.693 172.553 337.874 170.739 337.632C168.924 337.39 167.19 336.733 165.671 335.711C164.153 334.689 162.891 333.33 161.984 331.74C161.077 330.15 160.549 328.372 160.442 326.544C160.335 324.717 160.652 322.89 161.368 321.205C162.083 319.52 163.178 318.023 164.568 316.831C165.957 315.639 167.603 314.784 169.377 314.333C169.793 314.224 170.15 313.955 170.369 313.584C170.589 313.214 170.653 312.772 170.549 312.354C170.444 311.936 170.179 311.577 169.811 311.353C169.443 311.13 169.002 311.06 168.583 311.16C165.333 311.973 162.444 313.838 160.365 316.465C158.287 319.092 157.137 322.333 157.094 325.682C157.051 329.032 158.118 332.301 160.128 334.98C162.138 337.66 164.978 339.599 168.206 340.494C171.434 341.39 174.867 341.192 177.971 339.931C181.074 338.671 183.673 336.418 185.362 333.526C187.051 330.633 187.735 327.262 187.307 323.94C186.879 320.618 185.364 317.531 182.998 315.16C181.218 313.379 179.024 312.068 176.612 311.343Z" fill="#3EB57F"/>
<path d="M172.418 323.36L169.852 325.926C169.692 326.085 169.476 326.175 169.25 326.175C169.024 326.175 168.808 326.085 168.648 325.926C168.488 325.766 168.398 325.549 168.398 325.323C168.398 325.098 168.488 324.881 168.648 324.721L171.927 321.442C172.234 321.135 172.406 320.72 172.406 320.286C172.406 319.852 172.234 319.436 171.927 319.13C171.62 318.823 171.204 318.651 170.771 318.651C170.337 318.651 169.921 318.823 169.614 319.13L168.776 319.969L168.218 319.411C167.911 319.104 167.495 318.932 167.062 318.932C166.628 318.932 166.212 319.104 165.905 319.411C165.599 319.718 165.427 320.133 165.427 320.567C165.427 321.001 165.599 321.417 165.905 321.723L166.463 322.281L166.337 322.406C165.564 323.179 165.13 324.228 165.13 325.321C165.13 326.414 165.564 327.462 166.337 328.235C167.11 329.008 168.158 329.443 169.252 329.443C170.345 329.443 171.393 329.008 172.166 328.235L174.732 325.67C174.892 325.51 175.108 325.42 175.334 325.42C175.56 325.42 175.777 325.51 175.936 325.67C176.096 325.829 176.186 326.046 176.186 326.272C176.186 326.498 176.096 326.714 175.936 326.874L172.052 330.759C171.745 331.066 171.573 331.481 171.573 331.915C171.573 332.349 171.745 332.765 172.052 333.071C172.358 333.378 172.774 333.55 173.208 333.55C173.641 333.55 174.057 333.378 174.364 333.071L175.809 331.627L176.011 331.829C176.317 332.135 176.733 332.308 177.167 332.308C177.601 332.308 178.017 332.135 178.323 331.829C178.63 331.522 178.802 331.106 178.802 330.672C178.802 330.239 178.63 329.823 178.323 329.516L178.121 329.314L178.247 329.188C179.02 328.415 179.454 327.367 179.454 326.274C179.454 325.181 179.02 324.132 178.247 323.359C177.474 322.586 176.425 322.152 175.332 322.152C174.239 322.152 173.191 322.586 172.418 323.359L172.418 323.36Z" fill="#3EB57F"/>
<path d="M268.699 129.387H259.034V134.014H271.225L268.699 129.387Z" fill="#C2B59B"/>
<path d="M362.052 129.057H379.515V134.125H357.439L362.052 129.057Z" fill="#C2B59B"/>
<path d="M319.109 129.057H325.04V134.125H317.572L319.109 129.057Z" fill="#C2B59B"/>
<path d="M260.791 126.633H251.236V134.015H263.317L260.791 126.633Z" fill="#C2B59B"/>
<path d="M384.348 132.582H235.53V137.87H384.348V132.582Z" fill="#068A5B"/>
<path d="M401.371 180.619H376.659V240.775H401.371V180.619Z" fill="#0F5636"/>
<path d="M396.868 180.619H392.255L393.573 223.257H395.55L396.868 180.619Z" fill="#0F5636"/>
<path d="M448.048 174.119H398.625V240.665H448.048V174.119Z" fill="#068A5B"/>
<path d="M420.92 226.563L398.625 174.119V240.775H448.048L420.92 226.563Z" fill="#068A5B"/>
<path d="M389.839 135.227H230.368V240.775H389.839V135.227Z" fill="#F2D4C2"/>
<path d="M238.605 135.227H230.368V240.775H238.605V135.227Z" fill="#C2B59B"/>
<path d="M381.492 135.227L374.463 240.224L389.839 240.775V135.227H381.492Z" fill="#C2B59B"/>
<path d="M349.751 135.227L348.214 240.224L349.422 240.775L350.301 135.227H349.751Z" fill="#C2B59B"/>
<path d="M327.017 135.227L325.479 240.224L326.688 240.775L327.566 135.227H327.017Z" fill="#C2B59B"/>
<path d="M275.288 135.227L273.75 240.224L274.959 240.775L275.947 135.227H275.288Z" fill="#C2B59B"/>
<path d="M367.324 135.227L367.764 240.224L368.972 240.775L367.873 135.227H367.324Z" fill="#C2B59B"/>
<path d="M300.548 135.227L300.988 240.224L302.086 240.775L301.097 135.227H300.548Z" fill="#C2B59B"/>
<path d="M250.906 135.227L251.346 240.224L252.444 240.775L251.455 135.227H250.906Z" fill="#C2B59B"/>
<path d="M347.006 171.145L346.237 239.784H357.659L347.006 171.145Z" fill="#0F5636"/>
<path d="M347.006 171.145H208.622L204.339 240.776H351.509L347.006 171.145Z" fill="#068A5B"/>
<path d="M343.601 201.883L223.12 196.154L210.599 204.307L215.432 227.224H338.769L343.601 201.883Z" fill="#0F5636"/>
<path d="M231.247 198.578H223.889V239.894H231.247V198.578Z" fill="#0F5636"/>
<path d="M247.941 198.578H240.582V239.894H247.941V198.578Z" fill="#0F5636"/>
<path d="M262.878 198.578H255.519V239.894H262.878V198.578Z" fill="#0F5636"/>
<path d="M331.3 198.578H323.942V239.894H331.3V198.578Z" fill="#0F5636"/>
<path d="M318.78 211.578H272.323V240.775H318.78V211.578Z" fill="#406DB5"/>
<path d="M318.78 212.238H272.323V227.112H318.78V212.238Z" fill="#406DB5"/>
<path d="M297.363 211.578H296.375V240.114H297.363V211.578Z" fill="#D1E1F2"/>
<path d="M308.676 211.578H307.688V240.114H308.676V211.578Z" fill="#D1E1F2"/>
<path d="M284.733 211.578H283.745V240.114H284.733V211.578Z" fill="#D1E1F2"/>
<path d="M319.158 213.077V211.645H272.152V213.077H319.158Z" fill="#D1E1F2"/>
<path d="M319.071 238.882V238.441H272.065V238.882H319.071Z" fill="#D1E1F2"/>
<path d="M319.159 237.427V236.986H272.152V237.427H319.159Z" fill="#D1E1F2"/>
<path d="M319.136 235.972V235.531H272.13V235.972H319.136Z" fill="#D1E1F2"/>
<path d="M319.113 234.517V234.076H272.107V234.517H319.113Z" fill="#D1E1F2"/>
<path d="M273.091 211.578H272.103V240.114H273.091V211.578Z" fill="#D1E1F2"/>
<path d="M319.11 211.578H318.121V240.114H319.11V211.578Z" fill="#D1E1F2"/>
<path d="M335.803 198.137H327.237V239.453H335.803V198.137Z" fill="#ECDAC7"/>
<path d="M335.913 205.629H327.347V217.308C330.202 215.655 333.058 215.435 335.913 217.308V205.629Z" fill="#C2B59B"/>
<path d="M260.9 198.137H252.883V239.453H260.9V198.137Z" fill="#ECDAC7"/>
<path d="M245.744 198.137H238.386V239.453H245.744V198.137Z" fill="#ECDAC7"/>
<path d="M226.524 198.137H219.166V239.453H226.524V198.137Z" fill="#ECDAC7"/>
<path d="M260.9 201.221H252.883V217.196C255.409 215.103 258.045 215.213 260.9 217.196V201.221Z" fill="#C2B59B"/>
<path d="M245.744 201.221H238.386V217.196C241.022 215.323 243.438 215.323 245.744 217.196V201.221Z" fill="#C2B59B"/>
<path d="M226.414 201.221H219.056V217.196C221.362 215.103 223.888 215.213 226.414 217.196V201.221Z" fill="#C2B59B"/>
<path d="M227.403 238.24H218.177V241.105H227.403V238.24Z" fill="#C49A6C"/>
<path d="M246.403 238.24H237.178V241.105H246.403V238.24Z" fill="#C49A6C"/>
<path d="M261.34 238.24H252.114V241.105H261.34V238.24Z" fill="#C49A6C"/>
<path d="M336.682 238.24H326.138V241.105H336.682V238.24Z" fill="#C49A6C"/>
<path d="M338.439 202.764H217.848V206.95H338.439V202.764Z" fill="#231F20"/>
<path d="M194.075 240.76H194.83V152.83H194.075V240.76Z" fill="#231F20"/>
<path d="M170.327 155.124C179.077 159.815 187.223 149.373 194.767 153.156V170.712C188.43 163.902 180.585 175.555 170.327 170.712V155.124Z" fill="#E44D33"/>
<path d="M170.327 169.956V170.712C180.585 175.555 188.43 163.902 194.767 170.712V169.199C188.43 162.842 180.585 174.647 170.327 169.956Z" fill="#F8F2E2"/>
<path d="M170.327 167.834V168.591C180.585 173.434 188.43 161.781 194.767 168.591V167.078C188.43 160.721 180.585 172.526 170.327 167.834Z" fill="#F8F2E2"/>
<path d="M170.327 165.565V166.321C180.585 171.164 188.43 159.511 194.767 166.321V164.808C188.43 158.603 180.585 170.256 170.327 165.565Z" fill="#F8F2E2"/>
<path d="M170.327 163.447V164.204C180.585 169.047 188.43 157.394 194.767 164.204V162.691C188.43 156.486 180.585 168.139 170.327 163.447Z" fill="#F8F2E2"/>
<path d="M170.327 161.329V162.085C180.585 166.928 188.43 155.275 194.767 162.085V160.572C188.43 154.216 180.585 166.02 170.327 161.329Z" fill="#F8F2E2"/>
<path d="M170.327 159.208V159.964C180.585 164.807 188.43 153.154 194.767 159.964V158.451C188.43 152.094 180.585 163.899 170.327 159.208Z" fill="#F8F2E2"/>
<path d="M170.327 157.09V157.847C180.585 162.69 188.43 151.037 194.767 157.847V156.334C188.43 149.977 180.585 161.782 170.327 157.09Z" fill="#F8F2E2"/>
<path d="M170.327 154.82V155.577C180.585 160.42 188.43 148.767 194.767 155.577V154.064C188.43 147.859 180.585 159.512 170.327 154.82Z" fill="#F8F2E2"/>
<path d="M185.111 153.458V162.085C188.732 160.874 191.598 159.966 194.767 162.841V153.307C191.598 151.339 188.43 152.096 185.111 153.458Z" fill="#42526F"/>
<path opacity="0.2" d="M176.06 171.921C177.719 171.921 179.228 171.467 180.737 171.013C181.189 166.624 181.491 161.024 181.642 154.668C179.53 155.425 177.418 155.879 175.155 155.879C175.306 162.235 175.607 167.683 176.06 171.921Z" fill="#787878"/>
<path d="M186.167 160.571L186.469 160.42L186.318 160.723L186.469 161.025H186.167L186.017 161.328L185.866 161.025L185.564 160.874L185.866 160.723V160.42L186.167 160.571Z" fill="#F8F2E2"/>
<path d="M187.525 160.116L187.977 159.965L187.827 160.268L187.977 160.57H187.676L187.374 160.873V160.57L187.072 160.419L187.223 160.268L187.374 159.965L187.525 160.116Z" fill="#F8F2E2"/>
<path d="M189.185 159.967L189.487 159.815V160.118L189.638 160.421H189.185L189.034 160.723L188.883 160.421L188.582 160.269L188.883 160.118V159.664L189.185 159.967Z" fill="#F8F2E2"/>
<path d="M190.844 159.815L191.146 159.664L190.995 160.118L191.297 160.269H190.844L190.693 160.572L190.542 160.269L190.241 160.118L190.542 159.967V159.664L190.844 159.815Z" fill="#F8F2E2"/>
<path d="M192.504 160.116H192.806L192.655 160.419L192.806 160.722H192.504L192.202 160.873V160.57L191.9 160.419L192.202 160.268V159.965L192.504 160.116Z" fill="#F8F2E2"/>
<path d="M194.012 160.875L194.314 160.724L194.163 161.026L194.314 161.329H194.012L193.71 161.632V161.329L193.409 161.178L193.71 161.026V160.572L194.012 160.875Z" fill="#F8F2E2"/>
<path d="M186.167 159.209L186.469 159.058L186.318 159.36L186.469 159.663H186.167L186.017 159.966L185.866 159.663L185.564 159.512L185.866 159.36V158.906L186.167 159.209Z" fill="#F8F2E2"/>
<path d="M187.525 158.756L187.977 158.604L187.827 158.907L187.977 159.21H187.676L187.374 159.513V159.21L187.072 159.058L187.374 158.907V158.453L187.525 158.756Z" fill="#F8F2E2"/>
<path d="M189.185 158.454H189.487V158.757L189.638 159.059H189.336L189.034 159.362V158.908H188.582L188.883 158.605V158.303L189.185 158.454Z" fill="#F8F2E2"/>
<path d="M190.844 158.453L191.146 158.302L190.995 158.604L191.297 158.907H190.844L190.693 159.21L190.542 158.907L190.241 158.756L190.542 158.604V158.15L190.844 158.453Z" fill="#F8F2E2"/>
<path d="M192.504 158.756L192.806 158.604L192.655 158.907L192.806 159.21H192.504L192.202 159.513V159.21L191.9 159.058L192.202 158.907V158.453L192.504 158.756Z" fill="#F8F2E2"/>
<path d="M194.012 159.362H194.314L194.163 159.665L194.314 159.968H194.012L193.71 160.119V159.816L193.409 159.665L193.71 159.514V159.211L194.012 159.362Z" fill="#F8F2E2"/>
<path d="M186.167 157.848L186.469 157.696L186.318 157.999L186.62 158.302H186.167L186.017 158.604L185.866 158.15H185.564L185.866 157.999V157.545L186.167 157.848Z" fill="#F8F2E2"/>
<path d="M187.525 157.241H187.977L187.827 157.544L187.977 157.847H187.676L187.374 158.149V157.695H187.072L187.374 157.393V157.09L187.525 157.241Z" fill="#F8F2E2"/>
<path d="M189.185 157.091L189.487 156.939V157.393L189.638 157.545H189.336L189.034 157.848V157.545L188.582 157.393L188.883 157.242V156.939L189.185 157.091Z" fill="#F8F2E2"/>
<path d="M190.844 156.94H191.146L190.995 157.243L191.297 157.546H190.844L190.693 157.697L190.542 157.394H190.241L190.542 157.092V156.789L190.844 156.94Z" fill="#F8F2E2"/>
<path d="M192.504 157.241H192.806L192.655 157.544L192.806 157.847H192.504L192.202 157.998V157.695L191.9 157.544L192.202 157.393V157.09L192.504 157.241Z" fill="#F8F2E2"/>
<path d="M194.012 158L194.314 157.849L194.163 158.151L194.314 158.454H194.012L193.71 158.757V158.303H193.409L193.71 158V157.697L194.012 158Z" fill="#F8F2E2"/>
<path d="M186.167 156.335H186.469L186.318 156.638L186.62 156.94H186.167L186.017 157.092L185.866 156.789H185.564L185.866 156.486V156.184L186.167 156.335Z" fill="#F8F2E2"/>
<path d="M187.676 155.882H187.977L187.827 156.184L187.977 156.336H187.676L187.374 156.639V156.336L187.072 156.184L187.374 156.033V155.73L187.676 155.882Z" fill="#F8F2E2"/>
<path d="M189.185 155.728L189.638 155.577L189.487 155.88L189.638 156.182H189.336L189.034 156.485V156.182L188.582 156.031L188.883 155.88L189.034 155.426L189.185 155.728Z" fill="#F8F2E2"/>
<path d="M190.844 155.577L191.146 155.426L190.995 155.728L191.297 156.031H190.844L190.693 156.334L190.542 156.031L190.241 155.88L190.542 155.728V155.426L190.844 155.577Z" fill="#F8F2E2"/>
<path d="M192.504 155.881L192.806 155.729L192.655 156.032L192.806 156.335H192.504L192.202 156.638V156.335L191.9 156.183L192.202 156.032V155.578L192.504 155.881Z" fill="#F8F2E2"/>
<path d="M194.012 156.486L194.314 156.335L194.163 156.789L194.314 157.092L194.012 156.94L193.71 157.243V156.94L193.409 156.789L193.71 156.638V156.184L194.012 156.486Z" fill="#F8F2E2"/>
<path d="M186.167 154.974H186.469L186.318 155.276L186.62 155.428H186.167L186.017 155.73V155.428H185.564L185.866 155.125V154.822L186.167 154.974Z" fill="#F8F2E2"/>
<path d="M187.676 154.519L187.977 154.367L187.827 154.67L187.977 154.973H187.676L187.374 155.275V154.973L187.072 154.821L187.374 154.67V154.367L187.676 154.519Z" fill="#F8F2E2"/>
<path d="M189.185 154.367L189.638 154.216L189.487 154.518L189.638 154.821H189.336L189.034 155.124V154.67H188.582L188.883 154.367L189.034 154.064L189.185 154.367Z" fill="#F8F2E2"/>
<path d="M190.844 154.217L191.146 154.065V154.368L191.297 154.671H190.844L190.693 154.973L190.542 154.519H190.241L190.542 154.217V153.914L190.844 154.217Z" fill="#F8F2E2"/>
<path d="M192.504 154.366H192.806L192.655 154.669L192.806 154.972H192.504L192.202 155.274V154.82L191.9 154.669L192.202 154.518V154.215L192.504 154.366Z" fill="#F8F2E2"/>
<path d="M194.012 154.974H194.314L194.163 155.276L194.314 155.579H194.012L193.71 155.882V155.428L193.409 155.276L193.71 155.125V154.822L194.012 154.974Z" fill="#F8F2E2"/>
<path d="M186.167 153.61L186.469 153.459V153.913L186.62 154.064H186.318L186.017 154.367V154.064L185.715 153.913L185.866 153.762L186.017 153.459L186.167 153.61Z" fill="#F8F2E2"/>
<path d="M187.676 153.157L187.977 153.006L187.827 153.309L187.977 153.611H187.676L187.525 153.914L187.374 153.611L187.072 153.46L187.374 153.309V153.006L187.676 153.157Z" fill="#F8F2E2"/>
<path d="M189.185 152.853H189.637L189.486 153.155L189.637 153.307H189.335L189.034 153.609V153.307H188.732L188.883 153.004L189.034 152.701L189.185 152.853Z" fill="#F8F2E2"/>
<path d="M190.844 152.702L191.146 152.551V153.005L191.297 153.156H190.844L190.693 153.459L190.542 153.156L190.241 153.005L190.542 152.853V152.551L190.844 152.702Z" fill="#F8F2E2"/>
<path d="M192.504 153.005L192.806 152.854L192.655 153.308L192.806 153.459H192.504L192.202 153.762V153.459L191.9 153.308L192.202 153.156V152.854L192.504 153.005Z" fill="#F8F2E2"/>
<path d="M194.012 153.611L194.314 153.46L194.163 153.914L194.314 154.217L194.012 154.065L193.71 154.368V154.065L193.409 153.914L193.71 153.763V153.309L194.012 153.611Z" fill="#F8F2E2"/>
<path d="M364.029 227.113H363.15L363.48 239.894L363.919 239.783L364.029 227.113Z" fill="#068A5B"/>
<path d="M364.029 234.054V227.113H363.15L363.37 233.944L364.029 234.054Z" fill="#0F5636"/>
<path d="M360.295 228.766V229.096C361.174 230.749 363.919 233.503 363.919 233.503V232.732C363.919 232.622 361.064 230.418 360.295 228.766Z" fill="#0F5636"/>
<path d="M366.885 227.885V228.215C366.116 229.868 363.59 232.622 363.59 232.622V231.851C363.7 231.851 366.226 229.648 366.885 227.885Z" fill="#0F5636"/>
<path d="M367.653 193.289L359.306 193.73C357 193.84 355.133 195.934 355.353 198.247L357.329 226.342C357.439 228.546 359.306 230.308 361.503 230.198H366.116C368.312 230.198 370.179 228.435 370.289 226.232L372.046 197.696C372.156 195.272 370.07 193.179 367.653 193.289Z" fill="#C49A6C"/>
<path d="M370.07 193.951C370.179 196.375 370.07 198.909 369.85 201.553C368.642 214.224 363.809 224.139 358.977 223.699C358.318 223.588 357.659 223.368 357.11 222.927L357.33 226.453C357.439 228.657 359.306 230.419 361.503 230.309H366.116C368.312 230.309 370.179 228.546 370.289 226.343L372.046 197.807C372.156 196.155 371.278 194.722 370.07 193.951Z" fill="#B07550"/>
<path d="M387.532 227.113H386.544L386.983 239.894L387.313 239.783L387.532 227.113Z" fill="#068A5B"/>
<path d="M387.423 234.054L387.532 227.113H386.544L386.764 233.944L387.423 234.054Z" fill="#0F5636"/>
<path d="M383.688 228.766V229.096C384.567 230.749 387.313 233.503 387.313 233.503V232.732C387.313 232.622 384.457 230.418 383.688 228.766Z" fill="#0F5636"/>
<path d="M390.388 227.885V228.215C389.619 229.868 387.093 232.622 387.093 232.622V231.851C387.093 231.851 389.729 229.648 390.388 227.885Z" fill="#0F5636"/>
<path d="M391.047 193.289L382.7 193.73C380.394 193.84 378.526 195.934 378.746 198.247L380.723 226.342C380.833 228.546 382.7 230.308 384.896 230.198H389.509C391.706 230.198 393.573 228.435 393.683 226.232L395.44 197.696C395.66 195.272 393.573 193.179 391.047 193.289Z" fill="#C49A6C"/>
<path d="M393.463 193.951C393.573 196.375 393.463 198.909 393.243 201.553C392.035 214.224 387.203 224.139 382.37 223.699C381.712 223.588 381.053 223.368 380.503 222.927L380.723 226.453C380.833 228.657 382.7 230.419 384.897 230.309H389.509C391.706 230.309 393.573 228.546 393.683 226.343L395.44 197.807C395.55 196.155 394.781 194.722 393.463 193.951Z" fill="#B07550"/>
<path d="M392.365 239.233C392.365 238.462 389.729 237.029 386.544 237.029C383.359 237.029 380.723 238.462 380.723 239.233C380.723 240.004 383.359 239.894 386.544 239.894C389.729 239.894 392.365 240.004 392.365 239.233Z" fill="#C49A6C"/>
<path d="M393.792 238.352H379.954V239.784H393.792V238.352Z" fill="#F8F2E2"/>
<path d="M370.18 239.233C370.18 238.462 367.324 237.029 363.919 237.029C360.405 237.029 357.659 238.462 357.659 239.233C357.659 240.004 360.515 239.894 363.919 239.894C367.324 239.894 370.18 240.004 370.18 239.233Z" fill="#C49A6C"/>
<path d="M371.717 238.352H356.561V239.784H371.717V238.352Z" fill="#F8F2E2"/>
<path d="M459.14 239.344H185.668V242.539H459.14V239.344Z" fill="#F2D4C2"/>
<path d="M459.14 241.656H185.668V243.639H459.14V241.656Z" fill="#C49A6C"/>
<path d="M343.601 169.051H210.599V204.307H343.601V169.051Z" fill="#BEBCBA"/>
<path d="M334.925 169.051H221.472L227.952 204.307H321.306L334.925 169.051Z" fill="#ECDAC7"/>
<path d="M443.765 182.822H433.111V233.173H443.765V182.822Z" fill="#0F5636"/>
<path d="M442.337 183.373H433.661V231.74H442.337V183.373Z" fill="#487FC1"/>
<path d="M441.239 183.373H433.661V230.638H441.239V183.373Z" fill="#406DB5"/>
<path d="M442.447 231.96H433.331V183.152H442.447V231.96ZM433.88 231.519H442.117V183.593H433.88V231.519Z" fill="#F2DCD6"/>
<path d="M442.227 222.154H433.551V222.705H442.227V222.154Z" fill="#F2DCD6"/>
<path d="M442.227 194.721H433.551V195.272H442.227V194.721Z" fill="#F2DCD6"/>
<path d="M438.297 231.691V183.434H437.748V231.691H438.297Z" fill="#F2DCD6"/>
<path d="M429.707 182.822H419.053V233.173H429.707V182.822Z" fill="#0F5636"/>
<path d="M428.279 183.373H419.603V231.74H428.279V183.373Z" fill="#487FC1"/>
<path d="M427.181 183.373H419.603V230.638H427.181V183.373Z" fill="#406DB5"/>
<path d="M428.389 231.96H419.273V183.152H428.389V231.96ZM419.822 231.519H428.059V183.593H419.822V231.519Z" fill="#F2DCD6"/>
<path d="M428.169 222.154H419.493V222.705H428.169V222.154Z" fill="#F2DCD6"/>
<path d="M428.169 194.721H419.493V195.272H428.169V194.721Z" fill="#F2DCD6"/>
<path d="M424.25 231.679L424.25 183.422L423.701 183.422L423.701 231.679L424.25 231.679Z" fill="#F2DCD6"/>
<path d="M415.648 182.822H404.995V233.173H415.648V182.822Z" fill="#0F5636"/>
<path d="M414.22 183.373H405.544V231.74H414.22V183.373Z" fill="#487FC1"/>
<path d="M413.122 183.373H405.544V230.638H413.122V183.373Z" fill="#406DB5"/>
<path d="M414.44 231.96H405.325V183.152H414.44V231.96ZM405.764 231.519H414.001V183.593H405.764V231.519Z" fill="#F2DCD6"/>
<path d="M414.111 222.154H405.435V222.705H414.111V222.154Z" fill="#F2DCD6"/>
<path d="M414.111 194.721H405.435V195.272H414.111V194.721Z" fill="#F2DCD6"/>
<path d="M410.204 231.667V183.41H409.655V231.667H410.204Z" fill="#F2DCD6"/>
<path d="M345.908 211.578H338.659V233.723H345.908V211.578Z" fill="#0F5636"/>
<path d="M344.919 211.799H338.989V233.063H344.919V211.799Z" fill="#487FC1"/>
<path d="M344.151 211.799H338.989V232.622H344.151V211.799Z" fill="#406DB5"/>
<path d="M344.151 211.799H338.989V232.622H344.151V211.799Z" fill="#406DB5"/>
<path d="M339.318 227.113L341.844 211.799H338.989V227.113H339.318Z" fill="#487FC1"/>
<path d="M345.029 233.172H338.879V211.688H345.029V233.172ZM339.099 232.951H344.7V211.908H339.099V232.951Z" fill="#F2DCD6"/>
<path d="M209.387 233.68H216.635V211.534H209.387V233.68Z" fill="#0F5636"/>
<path d="M210.268 233.051H216.199V211.787H210.268V233.051Z" fill="#487FC1"/>
<path d="M211.068 232.598H216.229V211.774H211.068V232.598Z" fill="#406DB5"/>
<path d="M210.16 211.689H216.311V233.174H210.16V211.689ZM216.091 211.91H210.49V232.953H216.091V211.91Z" fill="#F2DCD6"/>
<path d="M211.068 232.598H216.229V211.774H211.068V232.598Z" fill="#406DB5"/>
<path d="M215.871 227.115L212.356 211.801H216.2V227.115H215.871Z" fill="#487FC1"/>
<path d="M318.341 199.35H217.738V199.9H318.341V199.35Z" fill="#BEBCBA"/>
<path d="M336.023 189.102H245.085V189.652H336.023V189.102Z" fill="#BEBCBA"/>
<path d="M306.809 175.551H215.871V176.102H306.809V175.551Z" fill="#BEBCBA"/>
<path d="M373.804 139.744H350.191V144.702H373.804V139.744Z" fill="#0F5636"/>
<path d="M372.706 140.186H351.289V143.932H372.706V140.186Z" fill="#487FC1"/>
<path d="M372.266 140.186H351.729V143.27H372.266V140.186Z" fill="#406DB5"/>
<path d="M321.965 139.744H298.352V144.702H321.965V139.744Z" fill="#0F5636"/>
<path d="M320.757 140.186H299.34V143.932H320.757V140.186Z" fill="#487FC1"/>
<path d="M320.428 140.186H299.89V143.27H320.428V140.186Z" fill="#406DB5"/>
<path d="M270.016 139.744H246.403V144.702H270.016V139.744Z" fill="#0F5636"/>
<path d="M268.918 140.186H247.501V143.932H268.918V140.186Z" fill="#487FC1"/>
<path d="M268.479 140.186H247.941V143.27H268.479V140.186Z" fill="#406DB5"/>
</svg>
