<svg width="612" height="464" viewBox="0 0 612 464" fill="none" xmlns="http://www.w3.org/2000/svg">
<path d="M612 400.738H0V401.105H612V400.738Z" fill="#EBEBEE"/>
<path d="M525.953 409.184H406.49V409.551H525.953V409.184Z" fill="#EBEBEE"/>
<path d="M410.897 416.16H353.736V416.527H410.897V416.16Z" fill="#EBEBEE"/>
<path d="M550.678 420.443H527.177V420.811H550.678V420.443Z" fill="#EBEBEE"/>
<path d="M268.056 416.404H154.836V416.771H268.056V416.404Z" fill="#EBEBEE"/>
<path d="M143.943 416.404H119.585V416.771H143.943V416.404Z" fill="#EBEBEE"/>
<path d="M111.017 411.143H70.7471V411.51H111.017V411.143Z" fill="#EBEBEE"/>
<path d="M290.088 346.147H53.7336C49.9392 346.147 46.7568 342.965 46.7568 339.17V6.9768C46.7568 3.1824 49.9392 0 53.7336 0H290.088C293.882 0 297.065 3.1824 297.065 6.9768V339.17C297.065 343.087 294.005 346.147 290.088 346.147ZM53.7336 0.3672C50.0616 0.3672 47.0016 3.3048 47.0016 7.0992V339.293C47.0016 342.965 49.9392 346.025 53.7336 346.025H290.088C293.76 346.025 296.82 343.087 296.82 339.293V6.9768C296.82 3.3048 293.882 0.2448 290.088 0.2448H53.7336V0.3672Z" fill="#EBEBEE"/>
<path d="M478.707 389.478H108.936L86.9043 138.803H456.675L478.707 389.478Z" fill="#EBEBEE"/>
<path d="M102.449 397.556L108.936 389.478L86.9042 138.803L80.417 146.881L102.449 397.556Z" fill="#DFE0E5"/>
<path d="M113.832 380.054L93.5139 148.962C93.2691 146.514 95.2275 144.434 97.6755 144.434H447.617C449.82 144.434 451.534 146.025 451.779 148.228L472.097 379.197C472.342 381.645 470.383 383.726 467.935 383.726H117.994C115.913 383.848 114.077 382.134 113.832 380.054Z" fill="#FAFCFD"/>
<path d="M160.956 389.479H105.264L101.348 400.739H157.04L160.956 389.479Z" fill="#DFE0E5"/>
<path d="M160.956 389.479H527.177L523.26 400.739H157.04L160.956 389.479Z" fill="#F4F5F6"/>
<path d="M311.753 389.479H382.011L381.154 396.945H311.019L311.753 389.479Z" fill="#DFE0E5"/>
<g opacity="0.4">
<path d="M415.509 74.0918H452.602C455.671 94.4543 441.448 111.184 421.137 111.184C414.64 111.184 407.989 109.496 401.849 106.222L415.509 74.0918Z" fill="#467FC1"/>
<path d="M415.509 74.0922L435.053 45.6973C439.709 49.1763 443.7 53.525 446.769 58.4366C449.788 63.3481 451.783 68.669 452.602 74.0922H415.509Z" fill="#068A5B"/>
<path d="M415.509 74.0924L409.933 37C414.281 37 418.681 37.7674 422.928 39.2511C427.225 40.7348 431.318 42.9348 435.053 45.6975L415.509 74.0924Z" fill="#D33227"/>
<path d="M415.509 74.0924L401.798 106.222C389.366 99.6223 380.412 87.3434 378.417 74.0924C375.347 53.73 389.57 37 409.881 37L415.509 74.0924Z" fill="#1649A0"/>
</g>
<path d="M308.693 280.541H387.396C388.375 287.395 388.62 294.25 387.763 300.859C387.029 307.469 385.315 313.834 382.745 319.831L308.693 280.541Z" fill="#EBEBEE"/>
<path d="M308.693 280.542L310.651 203.062C329.378 206.245 347.249 215.792 361.325 229.991C375.401 244.189 384.581 262.059 387.396 280.542H308.693Z" fill="#DFE0E5"/>
<path d="M308.693 280.541L238.803 307.469C234.396 298.901 231.336 289.721 229.99 280.541C223.503 237.334 253.613 201.838 296.82 201.838C301.349 201.838 306 202.205 310.651 203.062L308.693 280.541Z" fill="#EBEBEE"/>
<path d="M308.693 280.541L382.745 319.831C372.341 344.189 348.595 359.122 320.566 359.122C287.518 359.122 254.837 338.314 238.803 307.347L308.693 280.541Z" fill="white"/>
<path d="M306 463.407C437.076 463.407 543.334 457.214 543.334 449.575C543.334 441.937 437.076 435.744 306 435.744C174.924 435.744 68.6665 441.937 68.6665 449.575C68.6665 457.214 174.924 463.407 306 463.407Z" fill="#F4F5F6"/>
<path d="M294.495 225.706H184.212C177.236 225.706 170.993 219.953 170.504 212.977L164.996 145.167C164.384 138.19 169.647 132.438 176.624 132.438H286.906C293.883 132.438 300.125 138.19 300.615 145.167L306.123 212.977C306.735 220.076 301.472 225.706 294.495 225.706Z" fill="white"/>
<path d="M294.495 226.318H184.212C176.868 226.318 170.504 220.442 169.892 213.098L164.384 145.289C164.139 141.739 165.24 138.434 167.566 135.864C169.892 133.294 173.074 131.947 176.624 131.947H286.906C294.25 131.947 300.615 137.822 301.227 145.166L306.735 212.976C306.98 216.526 305.878 219.83 303.552 222.401C301.227 224.849 298.044 226.318 294.495 226.318ZM176.624 133.049C173.441 133.049 170.504 134.273 168.3 136.598C166.22 138.924 165.118 141.984 165.363 145.166L170.871 212.976C171.36 219.708 177.358 225.216 184.09 225.216H294.372C297.555 225.216 300.492 223.992 302.696 221.666C304.776 219.341 305.878 216.281 305.633 213.098L300.125 145.289C299.636 138.557 293.638 133.049 286.906 133.049H176.624Z" fill="#455CA6"/>
<path d="M264.507 205.999C260.223 210.65 254.593 214.078 248.35 215.791L246.514 210.528C260.101 206.856 269.281 194.126 268.057 179.071C267.322 170.136 263.038 161.935 256.673 156.06L260.223 152.266C276.135 167.076 278.093 191.189 264.507 205.999Z" fill="#DFE0E5"/>
<path d="M260.223 152.265L256.673 156.06C250.309 150.185 241.863 146.513 232.928 146.513C223.993 146.513 216.159 150.185 210.773 156.06L206.612 152.265C213.099 145.166 222.524 141.127 232.561 141.127C242.475 141.249 252.512 145.166 260.223 152.265Z" fill="#D33227"/>
<path d="M248.35 215.79C235.62 219.34 221.3 215.545 210.896 205.998C194.984 191.31 193.025 167.075 206.489 152.387L210.651 156.181C205.265 162.056 202.328 170.135 203.062 179.192C204.531 197.185 220.32 211.751 238.191 211.751C241.128 211.751 243.944 211.384 246.514 210.649L248.35 215.79Z" fill="#455CA6"/>
<path d="M343.121 120.32H232.838C225.862 120.32 219.619 114.567 219.13 107.59L213.622 39.7804C213.01 32.8036 218.273 27.0508 225.25 27.0508H335.532C342.509 27.0508 348.751 32.8036 349.241 39.7804L354.749 107.59C355.361 114.689 350.098 120.32 343.121 120.32Z" fill="white"/>
<path d="M343.121 120.931H232.838C225.494 120.931 219.13 115.056 218.518 107.712L213.01 39.9021C212.765 36.3525 213.866 33.0477 216.192 30.4773C218.518 27.9069 221.7 26.5605 225.25 26.5605H335.532C342.876 26.5605 349.241 32.4357 349.853 39.7797L355.361 107.589C355.606 111.139 354.504 114.444 352.178 117.014C349.853 119.462 346.67 120.931 343.121 120.931ZM225.25 27.6621C222.067 27.6621 219.13 28.8861 216.926 31.2117C214.846 33.5373 213.744 36.5973 213.989 39.7797L219.497 107.589C219.986 114.321 225.984 119.829 232.716 119.829H342.998C346.181 119.829 349.118 118.605 351.322 116.28C353.402 113.954 354.504 110.894 354.259 107.712L348.751 39.9021C348.262 33.1701 342.264 27.6621 335.532 27.6621H225.25Z" fill="#455CA6"/>
<path d="M287.796 106.733H285.837L280.574 40.7598H282.41L287.796 106.733Z" fill="#DFE0E5"/>
<path d="M290.733 79.3153H278.493L276.413 53.6113H288.653L290.733 79.3153Z" fill="#A22632"/>
<path d="M263.683 106.733H261.724L256.339 40.7598H258.297L263.683 106.733Z" fill="#DFE0E5"/>
<path d="M267.11 85.0678H254.748L252.912 62.4238H265.274L267.11 85.0678Z" fill="#345BA9"/>
<path d="M239.448 106.733H237.612L232.226 40.7598H234.184L239.448 106.733Z" fill="#DFE0E5"/>
<path d="M241.406 66.4634H229.166L227.82 51.041H240.182L241.406 66.4634Z" fill="#345BA9"/>
<path d="M312.031 106.733H310.073L304.687 40.7598H306.645L312.031 106.733Z" fill="#DFE0E5"/>
<path d="M316.07 93.8809H303.83L300.525 53.6113H312.888L316.07 93.8809Z" fill="#345BA9"/>
<path d="M336.144 106.733H334.185L328.8 40.7598H330.758L336.144 106.733Z" fill="#DFE0E5"/>
<path d="M340.673 98.7765H328.433L325.74 66.4629H338.102L340.673 98.7765Z" fill="#A22632"/>
<path d="M253.246 330.236H142.963C135.987 330.236 129.744 324.483 129.255 317.506L123.747 249.696C123.135 242.72 128.398 236.967 135.375 236.967H245.657C252.634 236.967 258.876 242.72 259.366 249.696L264.874 317.506C265.486 324.483 260.223 330.236 253.246 330.236Z" fill="white"/>
<path d="M253.246 330.847H142.963C135.619 330.847 129.255 324.972 128.643 317.628L123.135 249.818C122.89 246.269 123.991 242.964 126.317 240.393C128.643 237.823 131.825 236.477 135.375 236.477H245.657C253.001 236.477 259.366 242.352 259.978 249.696L265.486 317.505C265.731 321.055 264.629 324.36 262.303 326.93C259.978 329.378 256.795 330.847 253.246 330.847ZM135.375 237.578C132.192 237.578 129.255 238.802 127.051 241.128C124.971 243.453 123.869 246.513 124.114 249.696L129.622 317.505C130.111 324.237 136.109 329.745 142.841 329.745H253.123C256.306 329.745 259.243 328.521 261.447 326.196C263.527 323.87 264.629 320.81 264.384 317.628L258.876 249.818C258.387 243.086 252.389 237.578 245.657 237.578H135.375Z" fill="#455CA6"/>
<path opacity="0.4" d="M139.536 267.441L174.053 309.425L201.348 267.441L218.117 289.106L222.279 282.864L249.819 315.789" stroke="#1649A0" stroke-width="4" stroke-linecap="round"/>
<path d="M244.188 262.549L218.607 307.345L183.356 251.408L166.832 286.904L161.446 278.581L144.065 315.791" stroke="#EFAFA3" stroke-width="4" stroke-linecap="round"/>
<path d="M396.331 209.305C399.269 214.813 401.839 220.321 404.165 225.951C406.49 231.704 408.694 237.457 410.285 243.577C410.774 245.045 411.142 246.637 411.386 248.228C411.509 248.717 411.876 250.431 411.876 251.533C411.876 252.757 411.876 253.858 411.631 254.837C411.019 258.877 409.55 262.059 407.959 264.997C404.777 270.872 400.982 275.645 396.576 280.174C395.23 281.521 393.026 281.521 391.68 280.297C390.578 279.195 390.334 277.604 391.068 276.257L391.19 276.135C393.761 271.117 396.454 265.731 398.167 260.59C399.024 258.02 399.636 255.449 399.636 253.613C399.636 253.124 399.636 252.757 399.514 252.512C399.514 252.389 399.514 252.267 399.391 252.145L399.146 251.41C398.779 250.064 398.29 248.717 397.8 247.493C395.964 242.23 393.638 236.845 391.313 231.581C388.987 226.318 386.417 220.933 383.846 215.792V215.669C382.133 212.242 383.602 208.081 387.029 206.367C390.456 204.653 394.495 206 396.331 209.305Z" fill="#455CA6"/>
<path d="M390.369 277.59L387.513 283.042L398.072 283.908C398.072 283.908 398.332 280.359 396.514 277.33C395.995 276.292 394.783 275.772 393.572 275.945L392.36 276.118C391.581 276.205 390.715 276.724 390.369 277.59Z" fill="#A17453"/>
<path d="M385.35 292.13L394.697 291.091L398.073 283.735L387.6 282.956L385.35 292.13Z" fill="#A17453"/>
<path d="M353.369 168.423C353.246 169.157 352.757 169.647 352.267 169.525C351.778 169.402 351.533 168.79 351.655 168.056C351.778 167.321 352.267 166.832 352.757 166.954C353.246 166.954 353.491 167.689 353.369 168.423Z" fill="#232F4D"/>
<path d="M352.879 169.646C352.879 169.646 350.431 173.441 348.105 175.154C349.085 176.623 351.41 176.501 351.41 176.501L352.879 169.646Z" fill="#91614B"/>
<path d="M356.918 164.874C357.041 164.874 357.163 164.874 357.163 164.751C357.286 164.629 357.408 164.262 357.163 164.139C355.572 162.426 353.614 162.67 353.491 162.67C353.246 162.67 353.124 162.915 353.124 163.16C353.124 163.405 353.369 163.527 353.614 163.527C353.736 163.527 355.205 163.282 356.551 164.751C356.674 164.874 356.796 164.874 356.918 164.874Z" fill="#232F4D"/>
<path d="M373.565 181.52C372.218 188.252 371.484 197.554 376.135 201.96C376.135 201.96 374.299 208.815 361.814 208.815C348.106 208.815 355.205 202.817 355.205 202.817C360.835 201.104 360.835 194.616 359.489 189.353L373.565 181.52Z" fill="#A17453"/>
<path d="M352.879 201.838C352.879 201.838 354.837 197.065 356.918 196.33C358.999 195.473 371.973 193.393 374.911 195.229C377.848 197.065 379.929 203.185 379.929 203.185L352.879 201.838Z" fill="#455CA6"/>
<path d="M392.537 202.082C401.105 204.041 406.735 227.174 406.735 227.174L392.414 237.945C392.414 237.945 384.581 233.049 381.766 222.156C378.828 210.65 383.724 200.001 392.537 202.082Z" fill="#232F4D"/>
<path opacity="0.2" d="M385.193 218.117C389.844 222.768 392.904 229.99 393.271 237.334L392.537 237.946C392.537 237.946 384.703 233.05 381.888 222.156C381.766 221.422 381.521 220.81 381.398 220.076L385.193 218.117Z" fill="black"/>
<path d="M338.191 211.262C336.355 221.177 335.131 241.495 340.639 281.765H389.599C388.742 274.788 385.193 237.578 392.414 202.082C392.414 202.082 383.969 200.369 376.013 200.001C369.77 199.757 360.713 199.512 355.205 200.001C352.879 200.246 350.676 200.491 348.595 200.858C343.454 201.837 339.293 205.999 338.191 211.262Z" fill="#232F4D"/>
<path opacity="0.2" d="M345.902 226.439L336.722 227.174C336.355 239.047 337.212 256.427 340.639 281.642H341.129C346.637 263.527 353.858 237.578 345.902 226.439Z" fill="black"/>
<path d="M377.848 171.727C375.523 180.54 374.544 185.803 369.158 189.475C360.957 194.983 350.798 188.618 350.553 179.316C350.308 170.992 354.225 158.018 363.65 156.182C372.83 154.468 380.174 162.914 377.848 171.727Z" fill="#A17453"/>
<path d="M357.285 171.849L352.512 173.073L356.918 161.568C356.429 160.711 355.205 156.672 356.551 152.755C356.918 151.653 357.897 151.041 358.999 150.919C368.913 150.674 376.135 155.57 381.276 159.732C382.255 160.588 381.888 163.405 381.888 163.405C381.888 163.405 382.377 167.076 380.419 168.912C380.297 172.094 375.033 186.66 372.218 188.251C369.281 189.842 363.773 189.23 362.304 186.537C360.835 183.967 355.817 180.417 357.285 171.849Z" fill="#232F4D"/>
<path d="M361.692 171.972C361.202 174.298 359.733 176.256 358.142 177.48C355.817 179.316 353.981 177.603 354.103 174.91C354.225 172.462 355.449 168.545 358.142 167.811C360.713 167.076 362.304 169.28 361.692 171.972Z" fill="#A17453"/>
<path d="M444.679 441.496C444.679 440.272 444.801 439.171 445.291 438.803C445.413 438.681 445.78 438.559 446.27 438.803C446.515 438.926 446.637 439.171 446.76 439.538C447.127 441.007 445.413 444.311 445.291 444.434C445.291 444.556 445.168 444.556 445.046 444.556C444.924 444.556 444.924 444.434 444.924 444.434C444.924 443.699 444.679 442.598 444.679 441.496ZM446.515 440.027C446.515 439.905 446.515 439.783 446.515 439.66C446.515 439.415 446.392 439.293 446.27 439.293C446.025 439.171 445.903 439.171 445.78 439.293C445.168 439.783 445.168 442.108 445.413 443.822C445.78 442.72 446.515 441.007 446.515 440.027Z" fill="#455CA6"/>
<path d="M445.046 444.191C445.536 442.967 447.494 440.763 448.473 440.886C448.718 440.886 448.963 441.131 449.085 441.743C449.085 442.232 448.963 442.599 448.718 442.967C447.739 444.191 445.291 444.435 445.169 444.435C445.046 444.435 445.046 444.435 444.924 444.313C445.046 444.313 445.046 444.313 445.046 444.191ZM448.718 441.987V441.865C448.718 441.498 448.473 441.498 448.473 441.498C447.861 441.375 446.27 442.967 445.658 444.068C446.393 443.946 447.861 443.579 448.473 442.844C448.596 442.477 448.718 442.232 448.718 441.987Z" fill="#455CA6"/>
<path d="M445.168 444.312L436.233 444.924L431.215 423.382L440.15 422.77L445.168 444.312Z" fill="#A17453"/>
<path d="M445.046 442.232L435.131 441.375C434.764 441.375 434.397 441.62 434.275 441.987L431.827 449.943C431.582 450.8 432.072 451.657 432.928 451.657C436.478 451.901 441.619 452.146 446.147 452.513C451.411 453.003 447.983 453.003 454.103 453.493C457.775 453.86 459.244 450.065 457.653 449.576C450.676 447.373 449.452 445.904 447.004 442.966C446.759 442.477 445.903 442.354 445.046 442.232Z" fill="#232F4D"/>
<path opacity="0.2" d="M431.215 423.382L433.785 434.52L442.72 433.908L440.15 422.77L431.215 423.382Z" fill="black"/>
<path d="M357.897 281.275C357.897 281.275 378.828 329.256 386.784 347.004C395.474 366.466 428.522 431.215 428.522 431.215L444.557 428.767C444.557 428.767 421.913 373.198 412.488 346.025C405.266 325.095 389.232 281.275 389.232 281.275H357.897Z" fill="#455CA6"/>
<path opacity="0.3" d="M369.525 303.553C381.153 304.654 385.682 332.317 387.396 348.596C387.151 348.106 386.906 347.617 386.784 347.127C382.5 337.458 374.299 318.73 367.689 303.675C368.179 303.553 368.791 303.553 369.525 303.553Z" fill="black"/>
<path d="M425.707 426.074C425.585 426.074 427.298 432.439 427.298 432.439L446.637 430.358L446.515 424.605L425.707 426.074Z" fill="#232F4D"/>
<path d="M366.343 444.679C365.119 444.679 364.018 444.557 363.651 443.945C363.528 443.7 363.406 443.455 363.651 442.966C363.773 442.721 364.018 442.599 364.385 442.476C365.854 442.109 369.036 443.945 369.159 443.945C369.281 443.945 369.281 444.067 369.281 444.19C369.281 444.312 369.159 444.312 369.159 444.312C368.547 444.435 367.445 444.679 366.343 444.679ZM364.875 442.843C364.752 442.843 364.63 442.843 364.507 442.843C364.263 442.843 364.14 442.966 364.14 443.088C364.018 443.333 364.018 443.455 364.14 443.578C364.507 444.19 366.833 444.19 368.547 443.945C367.567 443.578 365.976 442.843 364.875 442.843Z" fill="#455CA6"/>
<path d="M369.159 444.435C369.036 444.435 369.036 444.313 369.159 444.435C367.935 443.945 365.854 441.865 365.976 440.885C365.976 440.641 366.221 440.396 366.833 440.273C367.323 440.273 367.69 440.396 368.057 440.641C369.159 441.62 369.404 444.068 369.526 444.19C369.526 444.313 369.526 444.313 369.404 444.435C369.159 444.313 369.159 444.435 369.159 444.435ZM366.833 440.641H366.711C366.344 440.641 366.344 440.885 366.344 440.885C366.221 441.497 367.69 443.089 368.792 443.701C368.669 442.966 368.302 441.497 367.568 440.885C367.445 440.763 367.2 440.641 366.833 440.641Z" fill="#455CA6"/>
<path d="M379.073 444.19H370.015L369.159 422.893H378.216L379.073 444.19Z" fill="#A17453"/>
<path d="M370.015 443.088H379.93C380.297 443.088 380.664 443.333 380.664 443.7L382.5 451.901C382.745 452.758 382.01 453.614 381.154 453.492C377.604 453.37 372.341 453.247 367.934 453.247C362.671 453.247 362.059 453.492 355.817 453.492C352.023 453.492 351.043 449.698 352.634 449.33C359.734 447.739 361.692 447.617 367.812 443.7C368.546 443.333 369.281 443.088 370.015 443.088Z" fill="#232F4D"/>
<path opacity="0.2" d="M369.159 422.893L369.526 433.786H378.706L378.216 422.893H369.159Z" fill="black"/>
<path d="M340.639 281.275C340.639 281.275 347.616 328.032 350.676 347.004C353.858 366.833 365.609 431.705 365.609 431.705H381.031C381.031 431.705 379.195 368.057 378.583 348.595C377.849 327.42 372.708 281.398 372.708 281.398H340.639V281.275Z" fill="#455CA6"/>
<path d="M363.161 425.463C363.039 425.463 364.018 431.95 364.018 431.95H382.745L383.235 426.197L363.161 425.463Z" fill="#232F4D"/>
<path d="M274.298 346.146C282.377 358.998 299.39 362.793 312.12 354.714C324.972 346.636 328.766 329.622 320.688 316.893C312.609 304.041 295.596 300.246 282.866 308.325C270.137 316.403 266.22 333.294 274.298 346.146ZM317.138 319.218C323.993 329.989 320.688 344.31 309.917 351.042C299.145 357.897 284.825 354.592 277.97 343.821C271.116 333.049 274.421 318.729 285.192 311.874C296.085 305.142 310.284 308.447 317.138 319.218Z" fill="#232F4D"/>
<path opacity="0.2" d="M318.24 336.233C315.669 347.617 304.286 354.838 292.903 352.268C281.52 349.697 274.298 338.314 276.869 326.931C279.439 315.548 290.822 308.326 302.205 310.897C313.711 313.467 320.81 324.85 318.24 336.233Z" fill="#455CA6"/>
<path d="M321.545 313.589L324.115 317.628C324.482 318.24 324.36 319.097 323.748 319.464C323.136 319.831 322.279 319.709 321.912 319.097L319.341 315.057C318.974 314.445 319.097 313.589 319.709 313.221C320.321 312.732 321.177 312.977 321.545 313.589Z" fill="#232F4D"/>
<path d="M338.191 301.961C335.253 304.041 332.316 306.122 329.378 308.203C326.44 310.284 323.625 312.487 320.81 314.813C320.198 315.302 319.953 316.281 320.32 317.016C320.688 317.873 321.789 318.362 322.768 317.873C326.073 316.281 329.256 314.69 332.438 312.977C335.62 311.263 338.803 309.549 341.863 307.713C344.556 306.122 347.126 304.653 349.819 302.94C350.553 302.45 350.798 301.471 350.308 300.737L348.228 297.432C347.738 296.697 346.759 296.453 346.024 296.942C343.332 298.533 340.761 300.247 338.191 301.961Z" fill="#232F4D"/>
<path d="M351.9 214.689C350.431 222.033 348.84 229.377 347.126 236.721L342.108 258.63C340.517 265.73 339.048 272.951 337.824 280.295L334.03 302.327C333.662 304.163 331.949 305.51 329.99 305.142C328.399 304.898 327.175 303.429 327.175 301.838C326.93 294.126 327.053 286.66 327.42 278.949C327.91 271.36 328.522 263.649 329.868 256.06C331.092 248.594 332.438 241.127 333.785 233.783C335.254 226.439 336.722 218.973 338.436 211.751C339.293 207.957 343.087 205.631 346.759 206.488C350.309 207.345 352.634 211.017 351.9 214.689Z" fill="#455CA6"/>
<path d="M332.805 300.247C332.193 299.635 331.214 299.267 330.357 299.512L328.399 300.002C327.42 300.247 326.563 301.103 326.44 302.083L325.828 306.489C325.706 307.713 325.951 309.059 326.563 310.161L329.256 314.69C329.99 315.669 331.214 316.036 332.316 315.791L335.131 315.179C336.967 314.812 337.946 312.976 337.456 311.263L336.722 308.937C336.844 308.937 336.844 304.408 332.805 300.247Z" fill="#A17453"/>
<path d="M361.447 210.405C365.853 222.278 350.553 239.047 350.553 239.047L331.092 232.56C331.092 232.56 332.561 216.403 339.293 207.345C347.616 196.207 358.02 201.47 361.447 210.405Z" fill="#232F4D"/>
<path d="M69.8016 128.52H60.9888V129.621H69.8016V128.52Z" fill="#455CA6"/>
<path d="M52.2982 128.52H32.2246V129.621H52.2982V128.52Z" fill="#455CA6"/>
<path d="M145.934 225.95H35.7745C28.7977 225.95 22.5553 220.198 22.0657 213.221L16.5577 145.411C15.9457 138.434 21.2089 132.682 28.1857 132.682H138.468C145.445 132.682 151.687 138.434 152.177 145.411L157.685 213.221C158.297 220.32 153.034 225.95 145.934 225.95Z" fill="white"/>
<path d="M145.934 226.562H35.7744C28.4304 226.562 22.0656 220.687 21.4536 213.343L15.9456 145.533C15.7008 141.983 16.8024 138.679 19.128 136.108C21.4536 133.538 24.636 132.191 28.1856 132.191H138.468C145.812 132.191 152.177 138.067 152.789 145.411L158.297 213.22C158.542 216.77 157.44 220.075 155.114 222.645C152.789 225.093 149.484 226.562 145.934 226.562ZM28.1856 133.293C25.0032 133.293 22.0656 134.517 19.8624 136.843C17.7816 139.168 16.68 142.228 16.9248 145.411L22.4328 213.22C22.9224 219.952 28.92 225.46 35.652 225.46H145.934C149.117 225.46 152.054 224.236 154.258 221.911C156.338 219.585 157.44 216.525 157.195 213.343L151.687 145.533C151.198 138.801 145.2 133.293 138.468 133.293H28.1856Z" fill="#455CA6"/>
<path d="M26.472 152.264H84.8568L84.3672 146.389H25.9824L26.472 152.264Z" fill="#DFE0E5"/>
<path d="M143.242 152.264H84.8568L84.3672 146.389H142.752L143.242 152.264Z" fill="#455CA6"/>
<path d="M27.6961 167.196H44.3425L43.8529 161.443H27.2065L27.6961 167.196Z" fill="#DFE0E5"/>
<path d="M144.466 167.196H44.3426L43.853 161.443H143.976L144.466 167.196Z" fill="#455CA6"/>
<path d="M28.9203 182.251H80.9403L80.4507 176.498H28.4307L28.9203 182.251Z" fill="#DFE0E5"/>
<path d="M145.689 182.251H80.9398L80.4502 176.498H145.2L145.689 182.251Z" fill="#455CA6"/>
<path d="M30.1439 197.307H118.884L118.394 191.555H29.6543L30.1439 197.307Z" fill="#DFE0E5"/>
<path d="M146.914 197.307H118.884L118.395 191.555H146.424L146.914 197.307Z" fill="#A22632"/>
<path d="M31.368 212.362H72.372L71.8824 206.486H30.8784L31.368 212.362Z" fill="#DFE0E5"/>
<path d="M148.138 212.362H72.3719L71.8823 206.486H147.648L148.138 212.362Z" fill="#455CA6"/>
<path d="M189.026 120.687H100.409C94.7784 120.687 89.76 114.934 89.3928 107.957L84.9864 40.1476C84.4968 33.1708 88.7808 27.418 94.4112 27.418H182.906C188.537 27.418 193.555 33.1708 193.922 40.1476L198.329 107.957C198.818 115.056 194.657 120.687 189.026 120.687Z" fill="white"/>
<path d="M92.8197 40.2723H109.466L108.976 34.5195H92.3301L92.8197 40.2723Z" fill="#DFE0E5"/>
<path d="M112.404 40.2723H141.29L140.8 34.5195H111.914L112.404 40.2723Z" fill="#DFE0E5"/>
<path d="M94.0438 47.6161H127.826L127.337 41.8633H93.5542L94.0438 47.6161Z" fill="#DFE0E5"/>
<path d="M189.026 121.298H100.409C94.5337 121.298 89.3929 115.423 88.9033 108.079L84.4969 40.2693C84.2521 36.7197 85.1089 33.4149 87.0673 30.8445C88.9033 28.2741 91.4737 26.9277 94.2889 26.9277H182.906C188.782 26.9277 193.922 32.8029 194.412 40.1469L198.818 107.957C199.063 111.506 198.206 114.811 196.248 117.381C194.412 119.829 191.842 121.298 189.026 121.298ZM94.2889 28.0293C91.7185 28.0293 89.3929 29.2533 87.6793 31.5789C85.9657 33.9045 85.1089 36.9645 85.3537 40.1469L89.7601 107.957C90.2497 114.689 95.0233 120.197 100.409 120.197H189.026C191.597 120.197 193.922 118.973 195.636 116.647C197.35 114.321 198.206 111.261 197.962 108.079L193.555 40.2693C193.066 33.5373 188.292 28.0293 182.906 28.0293H94.2889Z" fill="#455CA6"/>
<path d="M498.296 216.925H437.876C434.038 216.925 430.616 213.002 430.366 208.246L427.361 162.013C427.028 157.256 429.948 153.334 433.787 153.334H494.123C497.962 153.334 501.384 157.256 501.634 162.013L504.638 208.246C504.972 213.086 502.135 216.925 498.296 216.925Z" fill="white"/>
<path d="M498.296 217.342H437.877C433.871 217.342 430.366 213.336 430.032 208.329L427.028 162.096C426.861 159.676 427.445 157.423 428.78 155.67C430.032 153.918 431.785 153 433.704 153H494.123C498.129 153 501.634 157.006 501.968 162.013L504.972 208.245C505.139 210.665 504.555 212.919 503.22 214.671C501.968 216.34 500.215 217.342 498.296 217.342ZM433.704 153.751C431.951 153.751 430.366 154.586 429.198 156.171C428.029 157.757 427.445 159.843 427.612 162.013L430.616 208.245C430.95 212.835 434.205 216.591 437.877 216.591H498.296C500.049 216.591 501.634 215.756 502.802 214.17C503.971 212.585 504.555 210.499 504.388 208.329L501.384 162.096C501.05 157.506 497.795 153.751 494.123 153.751H433.704Z" fill="#455CA6"/>
<path d="M448 169.294C448 167.475 449.475 166 451.294 166H479.744C481.563 166 483.037 167.475 483.037 169.294V197.744C483.037 199.563 481.563 201.037 479.744 201.037H451.294C449.475 201.037 448 199.563 448 197.744V169.294Z" fill="white"/>
<path d="M452.114 167.785C450.835 167.785 449.785 168.836 449.785 170.117V196.92C449.785 198.136 450.736 199.121 451.917 199.252L463.107 167.785H452.114Z" fill="#345BA9"/>
<path d="M481.219 170.117C481.219 168.836 480.169 167.785 478.889 167.785H472.327L481.252 193.012V170.117H481.219Z" fill="#BE202E"/>
<path d="M473.968 194.096H461.138L459.464 199.253H475.608L473.968 194.096Z" fill="#345BA9"/>
<path d="M467.635 174.387L463.14 188.084H472.032L467.635 174.387Z" fill="#345BA9"/>
<g clip-path="url(#clip0)">
<path d="M158.922 71.0439C157.66 68.8222 154.778 65.2005 154.778 65.2005C154.778 65.2005 141.23 64.6791 130.89 65.2005C130.89 65.2005 126.623 74.6727 124.761 97.9911L129.43 101.96C129.43 101.96 167.26 85.7305 158.922 71.0439Z" fill="#1D3878"/>
<path d="M192.125 58.0081C191.697 58.934 190.07 60.7366 188.936 62.7272C188.06 64.2643 187.779 65.578 186.474 67.4011C185.92 68.1688 185.37 68.6365 184.845 69.1188L179.597 89.2295C178.568 92.5585 176.168 94.077 173.928 93.6736L153.761 88.5081C153.761 88.5081 149.979 73.7636 152.903 74.7523C158.612 76.6817 172.196 83.2696 172.196 83.2696L179.583 67.5181L179.02 65.8112C179.02 65.8112 178.7 64.6159 178.505 63.2589C178.315 61.9218 178.791 60.1503 177.231 58.1126C175.672 56.0748 178.339 57.0472 179.125 58.011C179.784 58.8166 180.074 60.7672 180.778 61.3472C181.148 60.9921 181.343 60.6194 181.343 60.6194L184.47 52.9916C184.569 52.7302 184.848 52.5913 185.097 52.6528L185.39 52.7236C185.709 52.8092 185.878 53.1267 185.77 53.4332C185.199 55.081 183.389 59.9857 183.479 60.0044L183.659 60.1269L187.708 52.5511C187.832 52.3044 188.116 52.1854 188.376 52.2867L188.774 52.4361C189.078 52.5468 189.209 52.8749 189.095 53.1614C188.368 54.9364 185.389 60.7524 185.478 60.7712L185.698 60.8831L189.71 54.7476C189.829 54.4809 190.158 54.3713 190.423 54.4926L190.738 54.6431C191.022 54.7591 191.132 55.0925 191.019 55.379L187.308 61.4553L187.504 61.6375L191.014 57.4088C191.163 57.1767 191.459 57.0976 191.723 57.2189L191.868 57.2868C192.133 57.4081 192.263 57.7362 192.125 58.0081Z" fill="#B88C62"/>
<path d="M172.571 85.0774C172.693 83.7368 172.102 82.4581 170.981 81.7156C167.658 79.4882 161.991 75.3014 158.24 72.8058C155.671 71.094 153.225 84.0875 153.225 84.0875L165.823 94.9979C166.843 95.6991 168.229 96.1322 169.167 94.8535L172.571 85.0774Z" fill="#BE202E"/>
<path d="M124.808 76.7247L131.922 85.882L129.517 102.485C129.333 103.887 130.373 105.145 131.759 105.207L161.033 106.445C162.542 106.507 163.806 105.331 163.867 103.825L160.483 86.3357C160.483 86.3357 164.254 83.8608 161.747 77.2403C159.993 72.5997 154.897 71.1354 154.571 70.9292C154.571 70.9292 152.063 70.2485 150.779 70.0217C150.779 70.0217 141.585 69.6917 138.527 70.0217C130.556 70.8673 124.808 76.7247 124.808 76.7247Z" fill="#BE202E"/>
<path d="M150.491 106.044L130.635 181.681H119.158L133.061 105.34L150.491 106.044Z" fill="#253858"/>
<path d="M160.01 106.327L159.052 181.401L147.106 181.526L145.067 105.857L160.01 106.327Z" fill="#253858"/>
<path d="M145.618 124.303L148.207 115.48L146.25 142.2L145.618 124.303Z" fill="#162B4D"/>
<path d="M126.002 74.9648L111.682 95.9684C111.682 95.9684 110.435 100.382 115.09 102.998C117.904 104.578 120.578 103.082 121.73 101.835C124.879 98.4404 133.301 87.7477 133.301 87.7477L126.002 74.9648Z" fill="#BE202E"/>
<path d="M112.269 98.9797C112.035 96.9569 112.856 94.3759 115.596 93.5964C120.703 92.1198 122.262 96.0803 122.262 96.0803L128.655 112.324L122.493 113.979C122.485 113.94 112.774 103.237 112.269 98.9797Z" fill="#B88C62"/>
<path d="M137.882 100.002C137.843 100.251 132.266 115.47 132.266 115.47L125.711 112.632L130.006 100.017L137.882 100.002Z" fill="#49536D"/>
<path d="M132.258 115.463L133.022 115.457L138.604 99.9934L137.78 99.9987L132.258 115.463Z" fill="#222F4D"/>
<path d="M133.173 101.902C133.088 102.081 132.879 102.217 132.733 102.16C132.588 102.103 132.509 101.895 132.594 101.716C132.679 101.537 132.889 101.4 133.034 101.457C133.18 101.514 133.237 101.709 133.173 101.902Z" fill="#222F4D"/>
<path d="M135.027 109.324C134.452 108.944 133.101 108.587 133.101 108.587L128.42 107.221L130.465 106.137C130.465 106.137 134.353 107.099 135.198 107.241C135.525 107.278 135.701 107.097 135.794 106.862C135.926 106.475 135.691 106.022 135.294 105.82L130.28 103.699L125.584 105.172L123.623 109.576L121.892 110.809C121.892 110.809 121.213 113.819 123.213 114.521C124.455 114.958 125.863 115.233 126.282 114.856C126.7 114.479 127.52 114.521 127.52 114.521L130.817 114.856C131.212 114.879 131.523 114.669 131.697 114.309L131.751 114.226L128.194 112.295L132.464 113.391C132.765 113.47 133.049 113.301 133.128 112.997C133.221 112.762 133.123 112.46 132.876 112.297L128.416 109.77L132.871 110.216C132.871 110.216 134.329 110.407 135.064 110.357C135.568 110.393 135.657 109.799 135.027 109.324Z" fill="#C59568"/>
<path d="M143.274 54.098C143.374 54.4368 143.24 54.8435 142.972 55.0468C142.704 55.284 142.302 55.3178 142.001 55.1484C141.431 54.8435 141.364 53.9963 141.498 53.3525C141.632 52.7087 141.867 51.9971 141.599 51.3872C141.398 50.9128 140.962 50.6079 140.594 50.2351C139.991 49.5913 139.689 48.6425 139.857 47.7615C140.024 46.8805 140.694 46.1012 141.532 45.8979C142.403 45.6607 143.475 45.9657 144.111 45.3218C144.58 44.8813 144.647 44.102 145.016 43.5598C145.585 42.7127 146.791 42.6111 147.796 42.7805C148.801 42.9499 149.806 43.2888 150.811 43.0516C151.649 42.8483 152.319 42.3061 153.09 41.9672C154.765 41.2218 156.909 41.6962 158.148 43.0516C159.388 44.407 159.656 46.6095 158.751 48.2359C158.45 48.812 157.947 49.3541 157.344 49.5913" fill="#222F4D"/>
<path d="M146.791 74.7013C149.437 74.7013 151.648 72.6004 151.782 69.9574C151.883 67.721 151.983 65.5863 151.983 65.5863C151.983 65.5863 156.07 65.2813 156.439 61.249C156.808 57.2167 156.875 47.8984 156.875 47.8984C152.385 45.5265 146.958 45.7636 142.67 48.5083L142.268 48.7455L141.799 69.6186C141.766 72.431 144.01 74.7013 146.791 74.7013Z" fill="#B88C62"/>
<path d="M151.984 65.5193C151.984 65.5193 149.438 65.5193 146.858 63.5879C146.858 63.5879 147.863 66.6036 151.917 66.5697L151.984 65.5193Z" fill="#A17453"/>
<path d="M142.168 52.8469C142.168 52.5081 141.934 52.237 141.599 52.237C140.862 52.2031 139.622 52.4742 139.455 54.5411C139.22 57.523 142.101 56.8114 142.101 56.7437C142.135 56.6759 142.168 53.999 142.168 52.8469Z" fill="#B88C62"/>
<path d="M141.464 55.5588C141.464 55.5588 141.397 55.5927 141.33 55.6266C141.23 55.6605 141.096 55.6605 140.928 55.5927C140.627 55.4572 140.392 54.9489 140.426 54.4068C140.426 54.1357 140.526 53.8985 140.627 53.6613C140.727 53.458 140.895 53.3224 141.029 53.2886C141.196 53.2547 141.297 53.3563 141.33 53.458C141.364 53.5596 141.33 53.5935 141.364 53.5935C141.364 53.5935 141.431 53.5596 141.431 53.4241C141.431 53.3563 141.397 53.2886 141.33 53.2208C141.263 53.153 141.163 53.1191 141.062 53.1191C140.828 53.1191 140.627 53.3225 140.493 53.5258C140.359 53.763 140.258 54.034 140.258 54.339C140.225 54.9489 140.493 55.525 140.928 55.6944C141.129 55.7621 141.297 55.7283 141.397 55.6605C141.464 55.6266 141.498 55.5927 141.464 55.5588Z" fill="#A17453"/>
<path fill-rule="evenodd" clip-rule="evenodd" d="M152.648 57.8294C152.776 58.1438 152.392 58.3011 152.2 58.3535C152.136 58.3535 151.976 58.4059 151.88 58.4583C151.72 58.5107 151.56 58.5107 151.4 58.4583C151.304 58.4059 151.144 58.4059 151.08 58.3535C150.888 58.3535 150.567 58.1963 150.631 57.8294C151.424 57.7758 151.162 56.8906 151.674 56.8906C152.154 56.8906 152.552 57.6197 152.648 57.8294Z" fill="#A17453"/>
<path d="M154.097 56.6856C153.713 56.6856 153.402 56.1452 153.402 55.4785C153.402 54.8119 153.713 54.2715 154.097 54.2715C154.481 54.2715 154.792 54.8119 154.792 55.4785C154.792 56.1452 154.481 56.6856 154.097 56.6856Z" fill="#222F4D"/>
<path d="M149.366 56.6231C149.001 56.6231 148.705 56.0827 148.705 55.416C148.705 54.7494 149.001 54.209 149.366 54.209C149.732 54.209 150.028 54.7494 150.028 55.416C150.028 56.0827 149.732 56.6231 149.366 56.6231Z" fill="#222F4D"/>
<path fill-rule="evenodd" clip-rule="evenodd" d="M155.74 51.7091C155.835 51.5296 155.769 51.306 155.591 51.2098L155.42 51.5349C155.591 51.2098 155.591 51.2098 155.591 51.2098L155.59 51.2092L155.588 51.208C155.586 51.207 155.584 51.2056 155.581 51.204C155.574 51.2006 155.565 51.1958 155.554 51.1899C155.531 51.178 155.498 51.1614 155.458 51.1414C155.377 51.1015 155.263 51.0478 155.131 50.9923C154.874 50.8848 154.517 50.7564 154.186 50.7249C153.857 50.6934 153.465 50.7504 153.178 50.8061C153.03 50.8349 152.901 50.8654 152.808 50.8887C152.761 50.9004 152.724 50.9103 152.698 50.9174C152.685 50.921 152.674 50.9239 152.667 50.9259L152.659 50.9283L152.656 50.929L152.655 50.9293C152.655 50.9293 152.655 50.9294 152.754 51.281L152.655 50.9294C152.462 50.9852 152.35 51.1893 152.405 51.3852C152.46 51.581 152.661 51.6946 152.854 51.6388L152.854 51.6388L152.755 51.2841C152.854 51.6388 152.854 51.6388 152.854 51.6388L152.854 51.6388M155.287 51.6981L155.188 51.6957L155.287 51.6981ZM155.74 51.7091C155.645 51.8886 155.464 51.7942 155.287 51.6981L155.74 51.7091Z" fill="#222F4D"/>
<path fill-rule="evenodd" clip-rule="evenodd" d="M147.109 51.9474C147.014 51.7679 147.081 51.5443 147.258 51.4481L147.429 51.7732C147.258 51.4481 147.258 51.4481 147.258 51.4481L147.259 51.4475L147.261 51.4463C147.263 51.4453 147.265 51.4439 147.269 51.4422C147.275 51.4389 147.284 51.4341 147.295 51.4282C147.318 51.4163 147.351 51.3996 147.391 51.3797C147.472 51.3398 147.586 51.2861 147.718 51.2306C147.975 51.1231 148.333 50.9947 148.663 50.9632C148.993 50.9317 149.385 50.9887 149.671 51.0444C149.819 51.0732 149.949 51.1037 150.041 51.127C150.088 51.1386 150.125 51.1486 150.151 51.1557C150.164 51.1593 150.175 51.1622 150.182 51.1642L150.191 51.1666L150.193 51.1673L150.194 51.1676C150.194 51.1676 150.194 51.1677 150.095 51.5193L150.194 51.1677C150.388 51.2235 150.5 51.4276 150.444 51.6235C150.389 51.8193 150.188 51.9328 149.995 51.8771L149.995 51.8771L150.095 51.5224C149.995 51.8771 149.995 51.8771 149.995 51.8771L149.995 51.8771M147.562 51.9364L147.661 51.934L147.562 51.9364ZM147.109 51.9474C147.204 52.1269 147.385 52.0325 147.562 51.9364L147.109 51.9474Z" fill="#222F4D"/>
<path d="M157.411 49.183C157.411 49.183 154.999 50.369 151.85 48.7764C149.773 47.726 147.394 47.2177 146.858 47.6582C146.322 48.0648 146.222 50.2334 144.178 50.8434C144.178 50.8434 144.312 54.9434 142.704 54.8079C141.096 54.6723 142.101 48.302 142.101 48.302L146.054 46.3367L150.376 45.5234L154.463 46.0995L157.612 46.9805L157.411 49.183Z" fill="#222F4D"/>
<path d="M148.784 60.4684C148.727 60.4882 148.74 60.7156 149.017 60.9678C149.236 61.2398 149.645 61.5043 150.189 61.6057C150.734 61.7072 151.226 61.6528 151.55 61.4823C151.893 61.3636 152.029 61.2005 152.011 61.1485C151.959 60.9928 151.217 61.2498 150.334 61.0915C149.509 60.9134 148.955 60.4091 148.784 60.4684Z" fill="#222F4D"/>
<path d="M138.772 69.8325C138.772 69.8325 136.993 84.0379 131.136 88.6806C131.136 88.6806 130.299 91.6574 130.704 93.2414C130.704 93.2414 139.441 87.2017 141.708 69.8325C140.541 69.009 140.959 68.7128 138.772 69.8325Z" fill="#284C98"/>
<path d="M153.717 70.5723C153.717 70.5723 160.59 87.1778 161.457 91.2279C161.457 91.2279 161.986 90.0108 162.688 85.9689L157.213 70.8987L153.717 70.5723Z" fill="#284C98"/>
</g>
<defs>
<clipPath id="clip0">
<rect width="106.488" height="94.248" fill="white" transform="translate(102.816 26.9277)"/>
</clipPath>
</defs>
</svg>
