<svg width="177" height="6" viewBox="0 0 177 6" fill="none" xmlns="http://www.w3.org/2000/svg">
<path d="M2.56155 5.12387C1.07855 5.12387 0 3.91033 0 2.56194C0 1.0787 1.21336 0 2.56155 0C3.90974 0 5.12311 1.21354 5.12311 2.56194C5.12311 4.04517 4.04456 5.12387 2.56155 5.12387Z" fill="white"/>
<path d="M26.9639 5.12387C25.4809 5.12387 24.4023 3.91033 24.4023 2.56194C24.4023 1.0787 25.6157 0 26.9639 0C28.3121 0 29.5254 1.21354 29.5254 2.56194C29.6603 4.04517 28.4469 5.12387 26.9639 5.12387Z" fill="white"/>
<path d="M51.501 5.12387C50.018 5.12387 48.9395 3.91033 48.9395 2.56194C48.9395 1.0787 50.1528 0 51.501 0C52.984 0 54.0626 1.21354 54.0626 2.56194C54.0626 4.04517 52.8492 5.12387 51.501 5.12387Z" fill="white"/>
<path d="M75.9024 5.12387C74.4194 5.12387 73.3408 3.91033 73.3408 2.56194C73.3408 1.0787 74.5542 0 75.9024 0C77.3854 0 78.4639 1.21354 78.4639 2.56194C78.4639 4.04517 77.3854 5.12387 75.9024 5.12387Z" fill="white"/>
<path d="M100.439 5.12387C98.9565 5.12387 97.8779 3.91033 97.8779 2.56194C97.8779 1.0787 99.0913 0 100.439 0C101.922 0 103.001 1.21354 103.001 2.56194C103.001 4.04517 101.788 5.12387 100.439 5.12387Z" fill="white"/>
<path d="M124.842 5.12387C123.359 5.12387 122.28 3.91033 122.28 2.56194C122.28 1.0787 123.494 0 124.842 0C126.325 0 127.403 1.21354 127.403 2.56194C127.403 4.04517 126.325 5.12387 124.842 5.12387Z" fill="white"/>
<path d="M149.244 5.12387C147.761 5.12387 146.683 3.91033 146.683 2.56194C146.683 1.0787 147.896 0 149.244 0C150.727 0 151.806 1.21354 151.806 2.56194C151.941 4.04517 150.727 5.12387 149.244 5.12387Z" fill="white"/>
<path d="M173.781 5.12387C172.298 5.12387 171.22 3.91033 171.22 2.56194C171.22 1.0787 172.433 0 173.781 0C175.264 0 176.343 1.21354 176.343 2.56194C176.343 4.04517 175.129 5.12387 173.781 5.12387Z" fill="white"/>
</svg>
