<svg width="294" height="202" viewBox="0 0 294 202" fill="none" xmlns="http://www.w3.org/2000/svg">
<path d="M170.838 154.825C170.838 154.825 159.018 197.05 147.197 198.734C135.377 200.418 152.266 136.248 153.949 130.061C155.651 123.857 170.838 154.825 170.838 154.825Z" fill="#C66A4A"/>
<path d="M139.81 33.4624C139.81 33.4624 131.912 19.3945 135.302 12.0769C138.674 4.7594 149.961 -4.80828 160.662 3.07637C171.363 10.961 177.007 8.14376 182.082 5.32651C187.158 2.50925 194.322 -1.35075 210.264 5.89362C228.863 14.3271 220.965 44.146 211.95 51.4636C202.935 58.7811 219.279 60.4642 238.428 59.3482C257.594 58.2323 290.265 65.5316 293.655 86.35C295.213 95.9359 293.655 145.988 241.249 132.487C188.844 118.986 159.544 160.056 126.287 107.735C114.926 89.8441 153.332 47.5304 139.81 33.4624Z" fill="url(#paint0_linear_4_596)"/>
<path d="M191.507 84.9032C191.507 84.9032 179.242 82.0873 167.556 92.2171C155.853 102.347 148.986 131.017 148.986 131.017L172.756 164.003L197.087 132.133C197.087 132.151 212.686 82.1056 191.507 84.9032Z" fill="#FCB321"/>
<path d="M157.711 56.7327C157.711 56.7327 153.262 67.386 153.823 70.7608C154.383 74.1356 158.832 84.2235 158.832 84.2235L137.148 168.374C137.148 168.374 136.027 190.812 142.158 196.43C148.271 202.049 148.831 199.787 153.841 195.318C158.85 190.83 163.299 128.004 164.963 106.114C166.627 84.2417 168.852 75.8139 168.852 75.8139C168.852 75.8139 163.281 72.4391 161.057 71.3263C158.814 70.1953 158.272 58.4109 157.711 56.7327Z" fill="#CE8679"/>
<path d="M164.879 54.822C166.567 55.9427 181.821 70.6417 181.252 87.6007C180.683 104.56 179.564 104.56 180.114 110.2C180.683 115.859 178.425 133.37 191.403 142.979C195.056 145.68 200.434 114.72 205.519 98.9005C209.319 87.0494 216.808 87.0311 200.434 72.3505C184.061 57.6515 181.234 43.5405 180.114 36.191C178.994 28.8415 164.879 54.822 164.879 54.822Z" fill="#CE8679"/>
<path d="M215.004 83.8118C215.004 83.8118 228.756 71.1791 250.427 125.018C254.925 136.196 279.101 199.76 279.101 199.76H185.744C185.744 199.76 177.314 163.588 172.815 151.283C168.316 138.977 180.697 89.501 180.697 89.501L181.831 121.964C181.812 121.964 203.19 66.8531 215.004 83.8118Z" fill="url(#paint1_linear_4_596)"/>
<path d="M229.439 127.252L208.665 195.205C208.665 195.205 205.853 201.943 189.569 196.885C170.401 190.931 110.413 177.235 110.413 177.235C110.413 177.235 107.602 180.047 103.677 185.106C99.7517 190.164 90.7699 185.946 90.7699 185.946L85.1472 190.164C85.1472 190.164 79.9626 193.251 77.5711 193.251C75.8916 193.251 96.3744 175.555 96.3744 175.555L116.857 169.09L185.626 175.555L203.59 114.341L229.439 127.252Z" fill="#CE8679"/>
<path d="M49.9635 169.277C50.2727 170.482 51.4913 171.194 52.6917 170.884L61.8945 168.474C63.0949 168.164 63.8042 166.941 63.495 165.736L28.5023 31.5949C28.1931 30.39 26.9746 29.6781 25.7742 29.9884L16.5713 32.3981C15.3709 32.7085 14.6616 33.9316 14.9708 35.1364L49.9635 169.277Z" fill="#1649A0"/>
<path fill-rule="evenodd" clip-rule="evenodd" d="M53.3253 167.591L17.5245 32.895L14.8989 33.5746L50.6983 168.265C50.6986 168.266 50.6988 168.267 50.6991 168.268C51.2067 170.203 53.2002 171.333 55.1416 170.841L55.1456 170.84L64.561 168.42L63.877 165.828L54.4656 168.246C54.465 168.247 54.4644 168.247 54.4637 168.247C53.9506 168.376 53.4527 168.078 53.3266 167.596L53.3259 167.593L53.3253 167.591Z" fill="#1D3878"/>
<path fill-rule="evenodd" clip-rule="evenodd" d="M36.5097 103.399C36.5099 103.398 36.51 103.398 33.9893 102.413C31.4685 101.428 31.4684 101.429 31.4681 101.429L31.3782 101.654C31.3189 101.802 31.2309 102.022 31.1161 102.309C30.8867 102.883 30.5503 103.725 30.1222 104.8C29.2661 106.95 28.0432 110.029 26.5759 113.747C23.6416 121.182 19.7281 131.178 15.8139 141.412C11.9013 151.641 7.98095 162.128 5.03606 170.539C3.56469 174.742 2.32761 178.453 1.45532 181.367C1.01971 182.821 0.666557 184.106 0.419952 185.168C0.188271 186.166 0.000183105 187.171 0.000183105 187.973C0.000183105 193.771 2.39634 197.322 5.05428 199.358C6.33184 200.337 7.60281 200.916 8.55713 201.252C9.03704 201.422 9.44618 201.533 9.74961 201.604C9.90167 201.64 10.0282 201.666 10.125 201.684C10.1735 201.693 10.2146 201.7 10.2479 201.706C10.2548 201.707 10.2614 201.708 10.2677 201.709C10.2764 201.711 10.2845 201.712 10.2918 201.713L10.3093 201.716L10.3169 201.717L10.3204 201.717C10.3221 201.718 10.3237 201.718 10.7213 199.071L10.3237 201.718L10.5214 201.747H46.6826V196.395H10.9922C10.8569 196.362 10.6452 196.305 10.3823 196.213C9.83473 196.019 9.10319 195.685 8.37825 195.13C7.03118 194.098 5.42234 192.101 5.42234 187.973C5.42234 187.829 5.47861 187.339 5.7051 186.363C5.91667 185.452 6.23551 184.285 6.65515 182.883C7.49338 180.084 8.6999 176.46 10.1608 172.287C13.0806 163.948 16.9797 153.517 20.8866 143.302C24.7919 133.091 28.698 123.115 31.6283 115.69C33.0933 111.977 34.314 108.904 35.1684 106.758C35.5956 105.686 35.9312 104.845 36.1599 104.273C36.2742 103.987 36.3619 103.768 36.4209 103.621L36.5097 103.399Z" fill="#1649A0"/>
<path d="M56.6147 199.76V197.983C56.6147 196.798 56.7809 196.781 58.0369 196.781H114.28C115.536 196.781 118.196 196.798 118.196 197.983V199.76H56.6147Z" fill="#BE202E"/>
<path d="M58 198V196.211C58 195.018 58.0189 195 58.1617 195H64.5549C64.6977 195 65 195.018 65 196.211V198H58Z" fill="#BE202E"/>
<path d="M66 198V196.211C66 195.018 66.0189 195 66.1617 195H72.5549C72.6977 195 73 195.018 73 196.211V198H66Z" fill="#BE202E"/>
<path d="M74 198V196.211C74 195.018 74.0189 195 74.1617 195H80.5549C80.6977 195 81 195.018 81 196.211V198H74Z" fill="#BE202E"/>
<path d="M82 198V196.211C82 195.018 82.0189 195 82.1617 195H88.5549C88.6977 195 89 195.018 89 196.211V198H82Z" fill="#BE202E"/>
<path d="M90 198V196.211C90 195.018 90.0189 195 90.1617 195H96.5549C96.6977 195 97 195.018 97 196.211V198H90Z" fill="#BE202E"/>
<path d="M98 198V196.211C98 195.018 98.0189 195 98.1617 195H104.555C104.698 195 105 195.018 105 196.211V198H98Z" fill="#BE202E"/>
<path d="M106 198V196.211C106 195.018 106.019 195 106.162 195H112.555C112.698 195 113 195.018 113 196.211V198H106Z" fill="#BE202E"/>
<path d="M179.913 36.1964C180.692 41.3623 182.304 49.8492 188.716 59.5353C188.463 72.4131 185.546 84.2025 180.801 93.4827C180.891 91.8407 180.964 89.9588 181.036 87.8371C181.598 70.808 166.545 56.0667 164.878 54.9228C164.878 54.9044 178.808 28.8165 179.913 36.1964Z" fill="#C66A4A"/>
<path d="M154.946 63.4779C156.088 60.0156 157.506 56.7327 157.506 56.7327C158.077 58.3831 158.648 69.9719 160.914 71.0842C163.179 72.1785 168.852 75.4972 168.852 75.4972C168.852 75.4972 167.949 78.7622 166.862 86.53C160.785 81.9375 156.309 73.5239 154.946 63.4779Z" fill="#C66A4A"/>
<path d="M156.918 15.0168C156.918 15.0168 150.178 30.347 152.425 42.8512C154.672 55.3554 156.352 68.9863 162.545 74.084C168.719 79.2002 174.236 70.5377 182.201 61.0257C188.375 53.6377 194.148 40.9118 190.622 38.8801C182.749 34.3365 184.448 43.9963 183.315 45.123C180.502 47.9674 179.936 33.7639 181.068 32.0647C186.878 23.273 163.659 36.6083 156.918 15.0168Z" fill="#CE8679"/>
<path fill-rule="evenodd" clip-rule="evenodd" d="M158.201 33.349C158.026 32.8603 158.283 32.3363 158.775 32.1786L159.091 33.0635C158.775 32.1786 158.775 32.1786 158.775 32.1786L158.783 32.1761L158.802 32.1701C158.818 32.165 158.841 32.1577 158.871 32.1484C158.931 32.1299 159.017 32.1035 159.125 32.0715C159.34 32.0076 159.643 31.9208 159.996 31.8283C160.692 31.6459 161.617 31.432 162.449 31.3386C163.282 31.2452 164.318 31.2395 165.118 31.2542C165.524 31.2617 165.881 31.2747 166.136 31.2858C166.264 31.2914 166.367 31.2965 166.438 31.3002C166.474 31.3021 166.501 31.3036 166.52 31.3047L166.543 31.306L166.551 31.3065C166.551 31.3065 166.551 31.3065 166.521 32.2346L166.551 31.3065C167.073 31.3379 167.353 32.3013 167.353 32.3013C167.353 32.3013 167.013 33.194 166.492 33.1626L166.486 33.1623L166.468 33.1613C166.451 33.1603 166.426 33.1589 166.392 33.1572C166.326 33.1537 165.976 33.0292 165.854 33.024C165.611 33.0134 165.525 33.1206 165.139 33.1135C164.355 33.0991 163.422 33.1074 162.718 33.1863C162.022 33.2644 161.201 33.451 160.533 33.6262C160.203 33.7126 159.92 33.7939 159.719 33.8533C159.619 33.8831 159.54 33.9072 159.486 33.9238C159.46 33.9321 159.439 33.9384 159.426 33.9426L159.411 33.9473L159.408 33.9484C158.916 34.106 158.376 33.8377 158.201 33.349Z" fill="#162B4D"/>
<path fill-rule="evenodd" clip-rule="evenodd" d="M152.606 38.1436C152.438 37.7155 152.484 37.2469 152.71 37.0969L153.015 37.872C152.71 37.0969 152.71 37.0969 152.71 37.0969L152.714 37.0946L152.723 37.0889C152.73 37.084 152.741 37.077 152.755 37.0682C152.782 37.0505 152.822 37.0253 152.872 36.9947C152.972 36.9336 153.113 36.8502 153.278 36.7609C153.604 36.5845 154.043 36.3755 154.453 36.2749C154.864 36.1743 155.392 36.1468 155.804 36.1425C156.013 36.1402 156.197 36.144 156.329 36.1483C156.396 36.1504 156.449 36.1527 156.486 36.1545C156.504 36.1553 156.519 36.1561 156.529 36.1566L156.54 36.1573L156.545 36.1575C156.545 36.1575 156.545 36.1576 156.679 36.9783L156.545 36.1575C156.817 36.174 157.115 37.0192 157.115 37.0192C157.115 37.0192 157.085 37.8155 156.814 37.7991L156.811 37.7989L156.801 37.7984C156.793 37.7979 156.779 37.7972 156.762 37.7964C156.728 37.7948 156.529 37.6924 156.466 37.6903C156.34 37.6863 156.313 37.7829 156.114 37.785C155.711 37.7893 155.235 37.8169 154.888 37.9019C154.545 37.9859 154.156 38.1687 153.842 38.338C153.688 38.4215 153.556 38.4994 153.463 38.5564C153.417 38.5848 153.38 38.6079 153.356 38.6237C153.343 38.6316 153.334 38.6376 153.328 38.6416L153.321 38.646L153.319 38.6471C153.093 38.797 152.774 38.5716 152.606 38.1436Z" fill="#162B4D"/>
<path fill-rule="evenodd" clip-rule="evenodd" d="M166.538 39.4866C167.669 40.5217 168.645 42.1532 169.149 44.1468C169.654 46.1429 169.584 48.0587 169.095 49.5342C168.604 51.0147 167.725 51.9754 166.648 52.2687L166.647 52.269C165.58 52.5614 164.355 52.1744 163.219 51.1349C162.087 50.0998 161.112 48.4683 160.607 46.4746C160.103 44.4786 160.173 42.5628 160.662 41.0872C161.153 39.6068 162.032 38.646 163.109 38.3528L163.11 38.3525C164.177 38.06 165.401 38.4471 166.538 39.4866ZM167.426 38.4463C166.075 37.2105 164.403 36.562 162.767 37.0103C161.122 37.4583 159.978 38.8726 159.393 40.6366C158.806 42.4056 158.748 44.6037 159.31 46.8261C159.872 49.0509 160.975 50.9347 162.331 52.1751C163.682 53.4109 165.354 54.0595 166.99 53.6112C168.635 53.1632 169.779 51.7488 170.364 49.9849C170.95 48.2158 171.009 46.0178 170.447 43.7953C169.885 41.5706 168.782 39.6867 167.426 38.4463Z" fill="#1649A0"/>
<path fill-rule="evenodd" clip-rule="evenodd" d="M153.627 39.487C154.759 40.5219 155.735 42.1532 156.238 44.1468C156.743 46.1428 156.673 48.0587 156.184 49.5342C155.693 51.0147 154.815 51.9754 153.739 52.2687L153.738 52.269C152.671 52.5614 151.448 52.1744 150.312 51.1349C149.181 50.0998 148.206 48.4683 147.702 46.4746L147.701 46.4718L147.701 46.4718C147.189 44.4775 147.258 42.5626 147.747 41.0872C148.238 39.6063 149.117 38.6456 150.184 38.3526C151.261 38.0594 152.49 38.4483 153.627 39.487ZM154.514 38.4459C153.16 37.2093 151.485 36.5625 149.842 37.0101L149.841 37.0104C148.207 37.4587 147.064 38.8732 146.479 40.6366C145.893 42.4054 145.834 44.6039 146.405 46.8275C146.968 49.0517 148.069 50.935 149.424 52.1751C150.774 53.4109 152.445 54.0595 154.08 53.6112C155.724 53.1632 156.867 51.7488 157.452 49.9849C158.038 48.2158 158.097 46.0177 157.535 43.7953C156.973 41.5706 155.871 39.6865 154.514 38.4459Z" fill="#1649A0"/>
<path fill-rule="evenodd" clip-rule="evenodd" d="M147.723 41.7311C148.206 40.326 149.071 39.4141 150.131 39.1357L149.795 37.8613C148.176 38.2864 147.049 39.629 146.473 41.3034C145.896 42.9825 145.838 45.0688 146.391 47.1782C146.945 49.2899 148.03 51.0779 149.365 52.2553C150.695 53.4284 152.341 54.044 153.953 53.6182L153.615 52.3444C152.564 52.622 151.359 52.2546 150.24 51.2679C149.126 50.2855 148.165 48.7369 147.669 46.8446C147.172 44.9501 147.241 43.1317 147.723 41.7311Z" fill="white"/>
<path fill-rule="evenodd" clip-rule="evenodd" d="M183.312 37.8613L167.858 43.5405L168.296 44.814L183.75 39.1348L183.312 37.8613Z" fill="#1649A0"/>
<path d="M177.337 188.508C192.464 191.336 203.142 193.091 210.568 191.28L209.392 195.161C209.392 195.161 206.561 201.981 190.166 196.862C172.154 191.243 118.301 178.768 111.244 177.142C114.497 175.478 149.841 183.37 177.337 188.508Z" fill="#C66A4A"/>
<path d="M125.299 166.995L128.044 167.661L122.968 188.497L120.224 187.83L125.299 166.995Z" fill="#1649A0"/>
<path d="M129.79 167.705L132.59 168.073L129.77 189.479L126.97 189.111L129.79 167.705Z" fill="#BE202E"/>
<path d="M224.776 145.132C216.404 141.977 204.697 138.243 196.662 138.406L201.851 121.294L229.439 130.412L224.776 145.132Z" fill="#C66A4A"/>
<path d="M240.5 142.5C222.74 159.28 194.676 127.188 194.676 127.188C194.676 127.188 195.244 91.2159 202.574 77.7262C206.312 70.8351 215.73 71.3834 230.756 88.9676C243.693 104.139 258.728 125.277 240.5 142.5Z" fill="#FCB321"/>
<path fill-rule="evenodd" clip-rule="evenodd" d="M156.096 56.3251C155.616 57.2085 157.055 57.6502 157.774 57.7975C158.013 57.7975 158.612 57.9447 158.972 58.092C159.571 58.2392 160.17 58.2392 160.77 58.092C161.129 57.9447 161.728 57.9447 161.968 57.7975C162.687 57.7975 163.885 57.3558 163.646 56.3251C163.526 55.8834 161.608 55 159.691 55C157.893 55 156.455 55.7362 156.096 56.3251Z" fill="#C66A4A"/>
<path fill-rule="evenodd" clip-rule="evenodd" d="M167.597 68.9073C167.731 68.3041 166.833 68.261 166.396 68.2835C166.259 68.3204 165.891 68.3245 165.66 68.2917C165.292 68.2957 164.948 68.388 164.627 68.5686C164.444 68.7122 164.099 68.8045 163.985 68.9296C163.572 69.0404 162.954 69.4897 163.257 70.0703C163.397 70.3165 164.641 70.5505 165.743 70.2551C166.777 69.9782 167.485 69.3156 167.597 68.9073Z" fill="#C66A4A"/>
<path d="M165.032 49.4695C166.082 49.3798 166.878 47.9716 166.809 46.3244C166.739 44.6771 165.832 43.4145 164.781 43.5042C163.731 43.594 162.935 45.0021 163.004 46.6494C163.074 48.2966 163.981 49.5593 165.032 49.4695Z" fill="#203858"/>
<path d="M154.032 49.4695C155.082 49.3798 155.878 47.9716 155.809 46.3244C155.739 44.6771 154.832 43.4145 153.781 43.5042C152.731 43.594 151.935 45.0021 152.004 46.6494C152.074 48.2966 152.981 49.5593 154.032 49.4695Z" fill="#203858"/>
<path d="M160.029 65.2542C160.226 66.5173 162.188 67.2567 164.413 66.9178C166.637 66.5789 168.207 64.8537 167.978 63.5906C167.782 62.3275 165.361 63.4365 163.137 63.7446C160.913 64.0835 159.8 63.9911 160.029 65.2542Z" fill="white"/>
<defs>
<linearGradient id="paint0_linear_4_596" x1="143.5" y1="2.5" x2="276" y2="137.5" gradientUnits="userSpaceOnUse">
<stop stop-color="#1D3878"/>
<stop offset="0.0001" stop-color="#27468F"/>
<stop offset="0.333333" stop-color="#172C52"/>
<stop offset="1" stop-color="#162B4D"/>
</linearGradient>
<linearGradient id="paint1_linear_4_596" x1="225.466" y1="80.5706" x2="225.466" y2="199.76" gradientUnits="userSpaceOnUse">
<stop stop-color="#FAA31B"/>
<stop offset="0.864583" stop-color="#FAA31B"/>
<stop offset="1" stop-color="#FAA31B" stop-opacity="0"/>
</linearGradient>
</defs>
</svg>
