<svg width="110" height="99" viewBox="0 0 110 99" fill="none" xmlns="http://www.w3.org/2000/svg">
<path d="M49.3187 20.7953C49.0398 19.0823 47.8447 15.7359 43.1041 15.7359C32.4675 15.7359 7.56911 29.679 7.56911 57.6449C7.56911 76.5278 19.2415 87.5229 19.2415 87.5229C19.2415 87.5229 0 74.8148 0 49.0002C0 33.5433 7.52927 19.0026 19.6 9.87985C22.7073 8.64489 26.2927 7.84814 30.1967 7.84814C44.6577 7.84814 48.6813 17.0107 49.3187 20.7953Z" fill="url(#paint0_linear)"/>
<path d="M98.0002 48.9999C98.0002 73.1812 79.0774 94.9324 60.553 94.9324C57.8042 94.9324 54.7368 94.2552 51.7888 92.9007C45.7335 90.0723 40.3555 84.2958 40.3555 75.4519C40.3555 49.5975 81.0693 52.3064 81.0693 21.9901C81.0693 14.8991 78.3603 9.72021 78.3603 9.72021C78.3603 9.72021 87.8018 16.3332 87.8018 29.6788C87.8018 30.1966 87.8018 30.7145 87.762 31.2324C87.762 31.3918 87.762 31.5511 87.7221 31.7503C87.7221 31.9096 87.7221 32.069 87.6823 32.2283C87.6823 32.4275 87.6425 32.5869 87.6425 32.7861C87.6026 33.0649 87.6026 33.304 87.5628 33.5828C87.5628 33.7023 87.5229 33.8218 87.5229 33.9414C87.5229 34.1007 87.4831 34.2601 87.4433 34.4194C87.4034 34.6186 87.3636 34.8576 87.3238 35.0568C87.2839 35.256 87.2441 35.4552 87.2042 35.6942C87.1246 36.1324 87.0449 36.5308 86.9254 36.9292C83.7384 50.3544 71.7872 57.4056 63.3815 63.6601C63.3416 63.6999 63.3018 63.6999 63.262 63.7397C62.1864 64.5365 61.1904 65.2934 60.2742 66.0901C60.1148 66.2097 59.9953 66.3292 59.836 66.4487C56.7286 69.1178 54.6571 71.8267 54.6571 74.934C54.6571 78.4796 57.9636 82.7023 62.4652 82.7023C75.2132 82.7023 96.566 58.043 96.566 37.3674C96.6855 37.3275 98.0002 42.3072 98.0002 48.9999Z" fill="url(#paint1_linear)"/>
<path d="M98.0004 49C98.0004 73.1813 79.0777 94.9325 60.5533 94.9325C57.8045 94.9325 54.737 94.2553 51.789 92.9008C48.2037 90.4707 48.2833 86.726 48.2833 86.726C48.2833 77.7626 53.3825 71.787 59.9557 66.4089C56.8484 69.078 54.7768 71.787 54.7768 74.8943C54.7768 78.4398 58.0834 82.6626 62.585 82.6626C75.3329 82.6626 96.6858 58.0032 96.6858 37.3276C96.6858 37.3276 98.0004 42.3073 98.0004 49Z" fill="url(#paint2_linear)"/>
<path d="M49.0002 98.0002C40.1164 98.0002 27.2888 92.1441 20.875 80.8701C20.7555 79.675 20.6758 78.3603 20.6758 77.0059C20.6758 61.2701 37.288 54.5774 51.8286 46.3311C41.3514 52.7847 30.914 59.5172 30.914 74.775C30.914 93.7774 49.0002 98.0002 49.0002 98.0002Z" fill="url(#paint3_linear)"/>
<path d="M73.1811 20.1577C72.9023 28.3642 69.0779 33.7821 63.8193 38.2439C69.1575 33.5431 72.9023 27.8862 73.1811 20.1577Z" fill="#63CADC"/>
<path d="M73.1809 19.2813C73.1809 19.6 73.1809 19.8789 73.1809 20.1577C73.1809 20.3967 73.1809 20.6358 73.141 20.8748C72.7028 28.6829 68.9183 33.9415 63.8191 38.2439C63.8191 38.2439 63.7792 38.2837 63.7394 38.2837C60.1939 41.2317 56.0508 43.7415 51.8679 46.2911L51.828 46.3309C37.2874 54.5772 20.6752 61.2699 20.6752 77.0057C20.6752 78.3602 20.7549 79.635 20.8744 80.8699C18.4044 76.5675 16.8906 71.4285 16.8906 65.5724C16.8906 61.987 17.4483 58.7203 18.4443 55.8122C18.6435 55.2545 18.8427 54.6967 19.0817 54.139C19.3207 53.5813 19.5597 53.0634 19.7988 52.5455C19.9183 52.3065 20.0378 52.0675 20.1573 51.8285C20.3963 51.3504 20.6752 50.9122 20.9142 50.4341C21.1931 49.9959 21.4719 49.5577 21.7508 49.1195C30.1565 36.3317 46.6492 30.7943 49.0792 23.6236C49.1589 23.3447 49.2386 23.1057 49.2784 22.8268C49.3183 22.5081 49.3581 22.1894 49.3581 21.8309C49.3581 21.7911 49.3581 21.7512 49.3581 21.7114C49.3581 21.6317 49.3581 21.552 49.3581 21.4325C49.3581 21.3927 49.3581 21.313 49.3581 21.2732C49.3581 21.1537 49.3183 20.9943 49.3183 20.8748C48.7207 17.0902 44.6971 7.92764 30.2362 7.92764C26.2923 7.92764 22.7467 8.72439 19.6394 9.95935C27.5272 3.86423 37.4069 0.15935 48.3622 0C48.5614 0 48.8004 0 48.9996 0C62.1061 0 73.1809 7.25041 73.1809 19.2813Z" fill="url(#paint4_linear)"/>
<path d="M81.532 82.6577C79.1846 82.6577 77.2817 80.8083 77.2817 78.5269C77.2817 76.2455 79.1846 74.396 81.532 74.396C83.8793 74.396 85.7822 76.2455 85.7822 78.5269C85.7822 80.8083 83.8793 82.6577 81.532 82.6577Z" fill="white"/>
<path d="M92.8064 67.5886L92.8064 67.5886L92.8004 67.5826C92.4083 67.1884 92.1954 66.6774 92.1954 66.1542C92.1954 65.6413 92.391 65.1218 92.8095 64.727C93.6095 63.9527 94.9081 63.9536 95.7069 64.7299L95.7074 64.7304C99.4883 68.4156 101.581 73.3142 101.581 78.5265C101.581 83.7382 99.4992 88.6373 95.7069 92.3231C94.9071 93.1004 93.6062 93.1004 92.8064 92.3231C91.9987 91.5381 91.9987 90.2495 92.8064 89.4644C95.8127 86.5426 97.4691 82.6521 97.4691 78.5265C97.4691 74.4009 95.8127 70.5104 92.8064 67.5886Z" fill="white" stroke="white"/>
<path d="M98.0702 62.4729L98.0701 62.4729L98.0642 62.4669C97.672 62.0727 97.4592 61.5617 97.4592 61.0385C97.4592 60.5165 97.6713 60.0019 98.0702 59.6142C98.8699 58.8369 100.171 58.8369 100.971 59.6142C106.162 64.6599 109.027 71.3858 109.027 78.5262C109.027 85.6666 106.162 92.3925 100.971 97.4381L100.622 97.0796L100.971 97.4382C100.171 98.2154 98.8699 98.2154 98.0702 97.4382C97.2625 96.6531 97.2625 95.3645 98.0702 94.5795C102.486 90.2874 104.915 84.5902 104.915 78.5262C104.915 72.4622 102.486 66.765 98.0702 62.4729Z" fill="white" stroke="white"/>
<path d="M87.544 87.2076L87.5439 87.2076L87.538 87.2016C87.1458 86.8074 86.933 86.2964 86.933 85.7732C86.933 85.2606 87.1283 84.7415 87.5462 84.3468C89.1422 82.7844 90.0241 80.7212 90.0241 78.5264C90.0241 76.3287 89.1505 74.2652 87.544 72.7038C86.7363 71.9188 86.7363 70.6302 87.544 69.8452C88.3437 69.0679 89.6447 69.0679 90.4444 69.8452C92.8263 72.1602 94.1465 75.2423 94.1465 78.5264C94.1465 81.8105 92.8263 84.8925 90.4444 87.2076C89.6447 87.9848 88.3437 87.9848 87.544 87.2076Z" fill="white" stroke="white"/>
<path d="M70.2474 89.4542L70.2474 89.4541L70.2534 89.4601C70.6455 89.8544 70.8584 90.3653 70.8584 90.8886C70.8584 91.4067 70.666 91.93 70.2413 92.3188C69.441 93.0901 68.1447 93.0881 67.347 92.3128L67.3465 92.3123C63.5655 88.6272 61.4728 83.7285 61.4728 78.5163C61.4728 73.3046 63.5547 68.4055 67.347 64.7197C68.1467 63.9424 69.4477 63.9424 70.2474 64.7197C71.0551 65.5047 71.0551 66.7933 70.2474 67.5783C67.2412 70.5001 65.5848 74.3907 65.5848 78.5163C65.5848 82.6418 67.2412 86.5324 70.2474 89.4542Z" fill="white" stroke="white"/>
<path d="M64.9847 94.5697L64.9848 94.5697L64.9907 94.5757C65.3829 94.9699 65.5957 95.4809 65.5957 96.0041C65.5957 96.5222 65.4033 97.0456 64.9786 97.4343C64.1783 98.2056 62.882 98.2037 62.0843 97.4284L62.4328 97.0698L62.0843 97.4284C56.8928 92.3827 54.0275 85.6568 54.0275 78.5164C54.0275 71.376 56.8928 64.6501 62.0843 59.6044C62.884 58.8272 64.185 58.8272 64.9847 59.6044C65.7924 60.3895 65.7924 61.6781 64.9847 62.4631C60.5686 66.7552 58.1395 72.4524 58.1395 78.5164C58.1395 84.5804 60.5686 90.2776 64.9847 94.5697Z" fill="white" stroke="white"/>
<path d="M75.5208 69.8452L75.5209 69.8451L75.5269 69.8511C75.919 70.2454 76.1318 70.7563 76.1318 71.2796C76.1318 71.8013 75.9199 72.3157 75.5214 72.7032C73.9237 74.266 73.0408 76.3302 73.0408 78.5264C73.0408 80.724 73.9143 82.7875 75.5208 84.3489C76.3285 85.1339 76.3285 86.4226 75.5208 87.2076C74.7211 87.9849 73.4202 87.9849 72.6204 87.2076C70.2385 84.8925 68.9183 81.8105 68.9183 78.5264C68.9183 75.2423 70.2385 72.1602 72.6204 69.8452C73.4202 69.0679 74.7211 69.0679 75.5208 69.8452Z" fill="white" stroke="white"/>
<defs>
<linearGradient id="paint0_linear" x1="-7.96748" y1="71.3091" x2="42.626" y2="7.96765" gradientUnits="userSpaceOnUse">
<stop stop-color="#57A5DA"/>
<stop offset="0.5448" stop-color="#396DB5"/>
<stop offset="1" stop-color="#1D3878"/>
</linearGradient>
<linearGradient id="paint1_linear" x1="53.7488" y1="92.8312" x2="94.8132" y2="22.7072" gradientUnits="userSpaceOnUse">
<stop stop-color="#1649A0"/>
<stop offset="0.39878" stop-color="#396DB5"/>
<stop offset="0.909295" stop-color="#D33227"/>
</linearGradient>
<linearGradient id="paint2_linear" x1="61.35" y1="94.813" x2="94.0167" y2="35.0569" gradientUnits="userSpaceOnUse">
<stop stop-color="#57A5DA"/>
<stop offset="1" stop-color="#345BA9"/>
</linearGradient>
<linearGradient id="paint3_linear" x1="36.2522" y1="98.0002" x2="36.2522" y2="51.7888" gradientUnits="userSpaceOnUse">
<stop stop-color="#57A5DA"/>
<stop offset="1" stop-color="#1649A0"/>
</linearGradient>
<linearGradient id="paint4_linear" x1="14.341" y1="64.1382" x2="61.3492" y2="1.99187" gradientUnits="userSpaceOnUse">
<stop stop-color="#467FC1"/>
<stop offset="0.390625" stop-color="#467FC1"/>
<stop offset="1" stop-color="#D33227"/>
</linearGradient>
</defs>
</svg>
