<svg width="90" height="235" viewBox="0 0 90 235" fill="none" xmlns="http://www.w3.org/2000/svg">
<path d="M11.9089 5.32728C10.3831 5.32728 9.27344 4.07874 9.27344 2.69148C9.27344 1.16548 10.5218 0.0556641 11.9089 0.0556641C13.4346 0.0556641 14.5443 1.30421 14.5443 2.69148C14.5443 4.07874 13.4346 5.32728 11.9089 5.32728Z" fill="#D33227"/>
<path d="M37.0143 5.32728C35.4885 5.32728 34.3789 4.07874 34.3789 2.69148C34.3789 1.16548 35.6272 0.0556641 37.0143 0.0556641C38.5401 0.0556641 39.6498 1.30421 39.6498 2.69148C39.7885 4.07874 38.5401 5.32728 37.0143 5.32728Z" fill="#D33227"/>
<path d="M62.2584 5.32728C60.7326 5.32728 59.623 4.07874 59.623 2.69148C59.623 1.16548 60.8713 0.0556641 62.2584 0.0556641C63.7842 0.0556641 64.8938 1.30421 64.8938 2.69148C64.8938 4.07874 63.6455 5.32728 62.2584 5.32728Z" fill="#D33227"/>
<path d="M87.364 5.32728C85.8382 5.32728 84.7285 4.07874 84.7285 2.69148C84.7285 1.16548 85.9769 0.0556641 87.364 0.0556641C88.751 0.0556641 89.9993 1.30421 89.9993 2.69148C89.9993 4.07874 88.8897 5.32728 87.364 5.32728Z" fill="#D33227"/>
<path d="M11.9089 28.2169C10.3831 28.2169 9.27344 26.9684 9.27344 25.5811C9.27344 24.0551 10.5218 22.9453 11.9089 22.9453C13.4346 22.9453 14.5443 24.1939 14.5443 25.5811C14.5443 27.1071 13.4346 28.2169 11.9089 28.2169Z" fill="#174A9F"/>
<path d="M37.0143 28.2169C35.4885 28.2169 34.3789 26.9684 34.3789 25.5811C34.3789 24.0551 35.6272 22.9453 37.0143 22.9453C38.5401 22.9453 39.6498 24.1939 39.6498 25.5811C39.7885 27.1071 38.5401 28.2169 37.0143 28.2169Z" fill="#D33227"/>
<path d="M62.2584 28.2169C60.7326 28.2169 59.623 26.9684 59.623 25.5811C59.623 24.0551 60.8713 22.9453 62.2584 22.9453C63.7842 22.9453 64.8938 24.1939 64.8938 25.5811C64.8938 27.1071 63.6455 28.2169 62.2584 28.2169Z" fill="#D33227"/>
<path d="M87.364 28.2169C85.8382 28.2169 84.7285 26.9684 84.7285 25.5811C84.7285 24.0551 85.9769 22.9453 87.364 22.9453C88.751 22.9453 89.9993 24.1939 89.9993 25.5811C89.9993 27.1071 88.8897 28.2169 87.364 28.2169Z" fill="#D33227"/>
<path d="M11.9089 51.2457C10.3831 51.2457 9.27344 49.9972 9.27344 48.6099C9.27344 47.0839 10.5218 45.9741 11.9089 45.9741C13.4346 45.9741 14.5443 47.2227 14.5443 48.6099C14.5443 49.9972 13.4346 51.2457 11.9089 51.2457Z" fill="#174A9F"/>
<path d="M37.0143 51.2457C35.4885 51.2457 34.3789 49.9972 34.3789 48.6099C34.3789 47.0839 35.6272 45.9741 37.0143 45.9741C38.5401 45.9741 39.6498 47.2227 39.6498 48.6099C39.7885 49.9972 38.5401 51.2457 37.0143 51.2457Z" fill="#174A9F"/>
<path d="M62.2584 51.2457C60.7326 51.2457 59.623 49.9972 59.623 48.6099C59.623 47.0839 60.8713 45.9741 62.2584 45.9741C63.7842 45.9741 64.8938 47.2227 64.8938 48.6099C64.8938 49.9972 63.6455 51.2457 62.2584 51.2457Z" fill="#D33227"/>
<path d="M87.364 51.2457C85.8382 51.2457 84.7285 49.9972 84.7285 48.6099C84.7285 47.0839 85.9769 45.9741 87.364 45.9741C88.751 45.9741 89.9993 47.2227 89.9993 48.6099C89.9993 49.9972 88.8897 51.2457 87.364 51.2457Z" fill="#D33227"/>
<path d="M11.9089 74.1359C10.3831 74.1359 9.27344 72.8873 9.27344 71.5001C9.27344 69.9741 10.5218 68.8643 11.9089 68.8643C13.4346 68.8643 14.5443 70.1128 14.5443 71.5001C14.5443 72.8873 13.4346 74.1359 11.9089 74.1359Z" fill="#174A9F"/>
<path d="M37.0143 74.1359C35.4885 74.1359 34.3789 72.8873 34.3789 71.5001C34.3789 69.9741 35.6272 68.8643 37.0143 68.8643C38.5401 68.8643 39.6498 70.1128 39.6498 71.5001C39.7885 72.8873 38.5401 74.1359 37.0143 74.1359Z" fill="#174A9F"/>
<path d="M62.2584 74.1359C60.7326 74.1359 59.623 72.8873 59.623 71.5001C59.623 69.9741 60.8713 68.8643 62.2584 68.8643C63.7842 68.8643 64.8938 70.1128 64.8938 71.5001C64.8938 72.8873 63.6455 74.1359 62.2584 74.1359Z" fill="#174A9F"/>
<path d="M87.364 74.1359C85.8382 74.1359 84.7285 72.8873 84.7285 71.5001C84.7285 69.9741 85.9769 68.8643 87.364 68.8643C88.751 68.8643 89.9993 70.1128 89.9993 71.5001C89.9993 72.8873 88.8897 74.1359 87.364 74.1359Z" fill="#D33227"/>
<path d="M11.9089 97.0255C10.3831 97.0255 9.27344 95.777 9.27344 94.3897C9.27344 92.8637 10.5218 91.7539 11.9089 91.7539C13.4346 91.7539 14.5443 93.0024 14.5443 94.3897C14.5443 95.9157 13.4346 97.0255 11.9089 97.0255Z" fill="#174A9F"/>
<path d="M37.0143 97.0255C35.4885 97.0255 34.3789 95.777 34.3789 94.3897C34.3789 92.8637 35.6272 91.7539 37.0143 91.7539C38.5401 91.7539 39.6498 93.0024 39.6498 94.3897C39.7885 95.9157 38.5401 97.0255 37.0143 97.0255Z" fill="#174A9F"/>
<path d="M62.2594 97.0255C60.7336 97.0255 59.624 95.777 59.624 94.3897C59.624 92.8637 60.8723 91.7539 62.2594 91.7539C63.7851 91.7539 64.8948 93.0024 64.8948 94.3897C64.8948 95.9157 63.6464 97.0255 62.2594 97.0255Z" fill="#174A9F"/>
<path d="M87.3649 97.0255C85.8392 97.0255 84.7295 95.777 84.7295 94.3897C84.7295 92.8637 85.9779 91.7539 87.3649 91.7539C88.752 91.7539 90.0003 93.0024 90.0003 94.3897C90.0003 95.9157 88.8907 97.0255 87.3649 97.0255Z" fill="#174A9F"/>
<path d="M11.9089 120.054C10.3831 120.054 9.27344 118.806 9.27344 117.419C9.27344 115.893 10.5218 114.783 11.9089 114.783C13.4346 114.783 14.5443 116.031 14.5443 117.419C14.5443 118.806 13.4346 120.054 11.9089 120.054Z" fill="#174A9F"/>
<path d="M37.0143 120.054C35.4885 120.054 34.3789 118.806 34.3789 117.419C34.3789 115.893 35.6272 114.783 37.0143 114.783C38.5401 114.783 39.6498 116.031 39.6498 117.419C39.7885 118.806 38.5401 120.054 37.0143 120.054Z" fill="#174A9F"/>
<path d="M62.2584 120.054C60.7326 120.054 59.623 118.806 59.623 117.419C59.623 115.893 60.8713 114.783 62.2584 114.783C63.7842 114.783 64.8938 116.031 64.8938 117.419C64.8938 118.806 63.6455 120.054 62.2584 120.054Z" fill="#174A9F"/>
<path d="M87.364 120.054C85.8382 120.054 84.7285 118.806 84.7285 117.419C84.7285 115.893 85.9769 114.783 87.364 114.783C88.751 114.783 89.9993 116.031 89.9993 117.419C89.9993 118.806 88.8897 120.054 87.364 120.054Z" fill="#174A9F"/>
<path d="M11.9089 120.272C10.3831 120.272 9.27344 119.023 9.27344 117.636C9.27344 116.11 10.5218 115 11.9089 115C13.4346 115 14.5443 116.249 14.5443 117.636C14.5443 119.023 13.4346 120.272 11.9089 120.272Z" fill="#174A9F"/>
<path d="M37.0143 120.272C35.4885 120.272 34.3789 119.023 34.3789 117.636C34.3789 116.11 35.6272 115 37.0143 115C38.5401 115 39.6498 116.249 39.6498 117.636C39.7885 119.023 38.5401 120.272 37.0143 120.272Z" fill="#174A9F"/>
<path d="M62.2584 120.272C60.7326 120.272 59.623 119.023 59.623 117.636C59.623 116.11 60.8713 115 62.2584 115C63.7842 115 64.8938 116.249 64.8938 117.636C64.8938 119.023 63.6455 120.272 62.2584 120.272Z" fill="#174A9F"/>
<path d="M87.364 120.272C85.8382 120.272 84.7285 119.023 84.7285 117.636C84.7285 116.11 85.9769 115 87.364 115C88.751 115 89.9993 116.249 89.9993 117.636C89.9993 119.023 88.8897 120.272 87.364 120.272Z" fill="#174A9F"/>
<path d="M11.9089 143.161C10.3831 143.161 9.27344 141.913 9.27344 140.525C9.27344 138.999 10.5218 137.89 11.9089 137.89C13.4346 137.89 14.5443 139.138 14.5443 140.525C14.5443 142.051 13.4346 143.161 11.9089 143.161Z" fill="#174A9F"/>
<path d="M37.0143 143.161C35.4885 143.161 34.3789 141.913 34.3789 140.525C34.3789 138.999 35.6272 137.89 37.0143 137.89C38.5401 137.89 39.6498 139.138 39.6498 140.525C39.7885 142.051 38.5401 143.161 37.0143 143.161Z" fill="#174A9F"/>
<path d="M62.2584 143.161C60.7326 143.161 59.623 141.913 59.623 140.525C59.623 138.999 60.8713 137.89 62.2584 137.89C63.7842 137.89 64.8938 139.138 64.8938 140.525C64.8938 142.051 63.6455 143.161 62.2584 143.161Z" fill="#174A9F"/>
<path d="M87.364 143.161C85.8382 143.161 84.7285 141.913 84.7285 140.525C84.7285 138.999 85.9769 137.89 87.364 137.89C88.751 137.89 89.9993 139.138 89.9993 140.525C89.9993 142.051 88.8897 143.161 87.364 143.161Z" fill="#174A9F"/>
<g opacity="0.9">
<path d="M11.9089 166.19C10.3831 166.19 9.27344 164.942 9.27344 163.554C9.27344 162.028 10.5218 160.918 11.9089 160.918C13.4346 160.918 14.5443 162.167 14.5443 163.554C14.5443 164.942 13.4346 166.19 11.9089 166.19Z" fill="#174A9F"/>
<path d="M37.0143 166.19C35.4885 166.19 34.3789 164.942 34.3789 163.554C34.3789 162.028 35.6272 160.918 37.0143 160.918C38.5401 160.918 39.6498 162.167 39.6498 163.554C39.7885 164.942 38.5401 166.19 37.0143 166.19Z" fill="#174A9F"/>
<path d="M62.2584 166.19C60.7326 166.19 59.623 164.942 59.623 163.554C59.623 162.028 60.8713 160.918 62.2584 160.918C63.7842 160.918 64.8938 162.167 64.8938 163.554C64.8938 164.942 63.6455 166.19 62.2584 166.19Z" fill="#174A9F"/>
<path d="M87.364 166.19C85.8382 166.19 84.7285 164.942 84.7285 163.554C84.7285 162.028 85.9769 160.918 87.364 160.918C88.751 160.918 89.9993 162.167 89.9993 163.554C89.9993 164.942 88.8897 166.19 87.364 166.19Z" fill="#174A9F"/>
</g>
<g opacity="0.7">
<path d="M11.9089 189.08C10.3831 189.08 9.27344 187.832 9.27344 186.444C9.27344 184.918 10.5218 183.809 11.9089 183.809C13.4346 183.809 14.5443 185.057 14.5443 186.444C14.5443 187.832 13.4346 189.08 11.9089 189.08Z" fill="#174A9F"/>
<path d="M37.0143 189.08C35.4885 189.08 34.3789 187.832 34.3789 186.444C34.3789 184.918 35.6272 183.809 37.0143 183.809C38.5401 183.809 39.6498 185.057 39.6498 186.444C39.7885 187.832 38.5401 189.08 37.0143 189.08Z" fill="#174A9F"/>
<path d="M62.2584 189.08C60.7326 189.08 59.623 187.832 59.623 186.444C59.623 184.918 60.8713 183.809 62.2584 183.809C63.7842 183.809 64.8938 185.057 64.8938 186.444C64.8938 187.832 63.6455 189.08 62.2584 189.08Z" fill="#174A9F"/>
<path d="M87.364 189.08C85.8382 189.08 84.7285 187.832 84.7285 186.444C84.7285 184.918 85.9769 183.809 87.364 183.809C88.751 183.809 89.9993 185.057 89.9993 186.444C89.9993 187.832 88.8897 189.08 87.364 189.08Z" fill="#174A9F"/>
</g>
<g opacity="0.6">
<path d="M11.9089 211.97C10.3831 211.97 9.27344 210.721 9.27344 209.334C9.27344 207.808 10.5218 206.698 11.9089 206.698C13.4346 206.698 14.5443 207.947 14.5443 209.334C14.5443 210.86 13.4346 211.97 11.9089 211.97Z" fill="#174A9F"/>
<path d="M37.0143 211.97C35.4885 211.97 34.3789 210.721 34.3789 209.334C34.3789 207.808 35.6272 206.698 37.0143 206.698C38.5401 206.698 39.6498 207.947 39.6498 209.334C39.7885 210.86 38.5401 211.97 37.0143 211.97Z" fill="#174A9F"/>
<path d="M62.2594 211.97C60.7336 211.97 59.624 210.721 59.624 209.334C59.624 207.808 60.8723 206.698 62.2594 206.698C63.7851 206.698 64.8948 207.947 64.8948 209.334C64.8948 210.86 63.6464 211.97 62.2594 211.97Z" fill="#174A9F"/>
<path d="M87.3649 211.97C85.8392 211.97 84.7295 210.721 84.7295 209.334C84.7295 207.808 85.9779 206.698 87.3649 206.698C88.752 206.698 90.0003 207.947 90.0003 209.334C90.0003 210.86 88.8907 211.97 87.3649 211.97Z" fill="#174A9F"/>
</g>
<g opacity="0.5">
<path d="M11.9089 234.999C10.3831 234.999 9.27344 233.75 9.27344 232.363C9.27344 230.837 10.5218 229.727 11.9089 229.727C13.4346 229.727 14.5443 230.976 14.5443 232.363C14.5443 233.75 13.4346 234.999 11.9089 234.999Z" fill="#174A9F"/>
<path d="M37.0143 234.999C35.4885 234.999 34.3789 233.75 34.3789 232.363C34.3789 230.837 35.6272 229.727 37.0143 229.727C38.5401 229.727 39.6498 230.976 39.6498 232.363C39.7885 233.75 38.5401 234.999 37.0143 234.999Z" fill="#174A9F"/>
<path d="M62.2584 234.999C60.7326 234.999 59.623 233.75 59.623 232.363C59.623 230.837 60.8713 229.727 62.2584 229.727C63.7842 229.727 64.8938 230.976 64.8938 232.363C64.8938 233.75 63.6455 234.999 62.2584 234.999Z" fill="#174A9F"/>
<path d="M87.364 234.999C85.8382 234.999 84.7285 233.75 84.7285 232.363C84.7285 230.837 85.9769 229.727 87.364 229.727C88.751 229.727 89.9993 230.976 89.9993 232.363C89.9993 233.75 88.8897 234.999 87.364 234.999Z" fill="#174A9F"/>
</g>
</svg>
