<svg width="263" height="531" viewBox="0 0 263 531" fill="none" xmlns="http://www.w3.org/2000/svg">
<ellipse cx="73.4065" cy="112" rx="33.9187" ry="33.6911" fill="#ECEEF2"/>
<ellipse cx="73.4065" cy="190.309" rx="33.9187" ry="33.6911" fill="#ECEEF2"/>
<ellipse cx="-3.0813" cy="112" rx="33.9187" ry="33.6911" fill="#ECEEF2"/>
<ellipse cx="-3.0813" cy="190.309" rx="33.9187" ry="33.6911" fill="#ECEEF2"/>
<ellipse cx="-3.0813" cy="33.6911" rx="33.9187" ry="33.6911" fill="#ECEEF2"/>
<ellipse cx="73.4065" cy="33.6911" rx="33.9187" ry="33.6911" fill="#ECEEF2"/>
<ellipse cx="73.4065" cy="348" rx="33.9187" ry="33.6911" fill="#ECEEF2"/>
<ellipse cx="73.4065" cy="426.309" rx="33.9187" ry="33.6911" fill="#ECEEF2"/>
<ellipse cx="-3.0813" cy="348" rx="33.9187" ry="33.6911" fill="#ECEEF2"/>
<ellipse cx="-3.0813" cy="426.309" rx="33.9187" ry="33.6911" fill="#ECEEF2"/>
<ellipse cx="-3.0813" cy="269.691" rx="33.9187" ry="33.6911" fill="#ECEEF2"/>
<ellipse cx="73.4065" cy="269.691" rx="33.9187" ry="33.6911" fill="#ECEEF2"/>
<path d="M220.195 342.79L217.254 345.587L209.651 337.769L212.592 334.901L220.195 342.79Z" fill="#0B192A"/>
<path d="M222.418 342.646L237.91 358.641C239.345 360.147 239.273 362.514 237.839 363.948C236.332 365.383 233.966 365.311 232.531 363.876L217.039 347.882C215.604 346.376 215.676 344.009 217.111 342.575C218.617 341.14 220.984 341.14 222.418 342.646Z" fill="#0B192A"/>
<path d="M181.321 307.359L181.966 306.713C186.055 302.625 191.506 300.402 197.315 300.33H197.817H198.463C210.584 300.832 219.98 310.658 219.908 322.779C219.908 325.074 219.478 327.369 218.76 329.593L218.545 330.238L218.33 330.74C215.031 339.132 207.141 344.726 198.104 344.942H197.602H196.885C184.835 344.655 175.081 334.542 175.153 322.492C175.225 316.97 177.305 311.662 181.034 307.574L181.321 307.359ZM178.739 322.492C179.098 332.82 187.131 340.925 197.028 341.068H197.746L198.391 340.997C205.133 340.495 211.516 335.976 214.242 329.808L214.529 329.163L214.744 328.517C215.389 326.58 215.676 324.644 215.604 322.707C215.246 312.881 207.93 304.92 198.606 304.203L197.889 304.131H197.243C192.797 304.131 188.135 305.996 184.62 309.152L184.046 309.726L183.688 310.156C180.317 313.67 178.596 318.045 178.739 322.492Z" fill="#BB2629"/>
<g opacity="0.05">
<path opacity="0.05" d="M89.1333 401.092C87.3766 403.044 85.6201 404.995 83.6683 406.752C74.8852 414.95 62.9793 418.463 53.2204 425.49C44.8277 431.54 21.7965 458.085 39.5578 466.088C42.8759 467.454 46.3891 468.04 49.7072 469.406C53.6108 471.358 56.5384 474.871 60.0516 477.604C64.9311 481.312 70.7865 483.459 75.2756 487.558C78.2033 490.291 80.3503 493.804 82.8876 496.927C88.3526 503.368 99.4778 509.224 108.066 509.419L114.897 498.684L67.078 459.452C64.3455 457.89 63.76 453.987 66.1021 451.644L114.702 404.605C121.923 397.578 123.875 387.624 120.948 378.841C116.849 381.573 112.945 384.696 109.237 388.014C105.528 391.333 104.357 391.528 100.063 392.894C95.7694 394.26 92.4513 397.578 89.1333 401.092Z" fill="#7297CE"/>
</g>
<path d="M141.832 313.649C141.832 313.649 125.046 324.775 131.877 353.662C134.61 365.373 86.7911 335.705 86.7911 335.705C86.7911 335.705 93.4272 322.238 90.8899 315.211L126.803 304.866L141.832 313.649Z" fill="#B07550"/>
<path opacity="0.4" d="M141.832 313.65C141.832 313.65 134.805 318.334 131.682 329.46L123.485 323.8L96.5502 311.698L126.998 305.062L141.832 313.65Z" fill="#A16049"/>
<path d="M131.877 246.312C131.877 246.312 141.636 248.849 143.393 252.948L146.321 259.389C148.663 264.659 150.029 270.124 150.224 275.98V276.175L159.788 295.888C160.569 297.45 159.788 299.206 158.226 299.597L153.737 300.378L155.104 320.481C155.689 327.313 148.272 331.997 142.417 328.289L124.265 319.115L90.8899 315.212C90.8899 315.212 91.8658 298.035 84.449 291.789C84.449 291.789 65.5166 245.336 131.877 246.312Z" fill="#B07550"/>
<path d="M80.1553 261.145C80.5457 259.779 81.3264 258.413 82.1071 257.047C87.7673 249.239 99.8146 250.137 108.012 248.38C115.819 246.818 121.728 244.75 129.536 242.993C137.148 241.237 145.931 241.432 151.981 246.702C154.714 249.239 155.885 253.143 154.519 256.656C153.738 258.803 152.176 260.56 150.81 262.121C150.029 263.097 149.054 264.268 148.078 265.049C146.907 266.025 145.54 266.611 144.369 267.196C140.856 268.758 130.316 270.124 128.755 273.832C126.803 278.322 133.244 287.495 134.025 291.984C135.196 298.23 135.781 304.671 136.757 310.917C136.952 311.698 136.952 312.284 137.343 312.869C138.319 314.04 140.075 313.845 141.442 313.455C141.832 310.917 142.418 308.575 143.003 306.233C143.589 304.086 144.174 301.939 146.126 300.768C149.834 298.425 155.494 299.792 157.446 303.695C158.227 305.647 158.422 307.794 158.422 309.746C158.617 315.211 158.617 320.481 158.812 325.946C158.812 328.484 158.813 331.021 157.251 332.973C155.494 334.925 152.372 335.12 149.639 335.315C144.76 335.51 140.271 332.778 135.586 331.021C131.487 329.46 127.779 327.313 124.266 324.775C121.533 322.823 118.996 320.676 117.435 317.944C115.873 315.016 115.678 311.308 117.825 308.77C120.362 305.842 125.242 305.257 126.608 301.158C127.779 297.45 125.632 292.57 123.68 289.642C122.314 287.69 120.557 285.739 118.41 285.739C116.654 285.739 114.897 286.714 113.921 288.276C110.994 292.765 111.384 299.987 110.603 305.062C109.823 310.136 108.456 314.821 103.577 316.578C99.4781 318.139 93.6227 319.115 89.7192 316.773C85.8156 314.431 85.0349 308.38 83.8638 304.281C80.7409 292.96 79.1795 281.054 79.5698 269.148C79.1795 266.415 79.3746 263.488 80.1553 261.145Z" fill="#162B4D"/>
<path d="M162.716 577.928L164.473 425.295C162.326 371.034 133.049 349.759 111.969 341.561C99.478 336.681 85.23 339.024 75.0807 348.002C65.1265 356.785 54.3917 369.472 54.5869 383.33C54.9772 399.726 66.1024 445.008 64.3458 467.454C61.6133 502.783 51.464 575.196 51.464 575.196C70.5915 597.447 107.675 558.605 162.716 577.928Z" fill="url(#paint0_linear)"/>
<path d="M124.07 376.108L166.619 425.88C168.571 428.222 172.475 428.027 174.231 425.49L222.245 374.937L221.074 367.52C220.489 363.226 221.66 358.932 224.392 355.614L233.566 344.488L262.648 323.799V325.36C262.648 329.264 261.086 333.168 258.158 335.9L247.033 346.635L253.864 360.494C256.207 365.178 256.792 370.643 255.231 375.718C254.45 378.06 252.693 380.012 250.351 380.988L240.592 384.696C240.592 384.696 212.486 435.834 194.335 467.064C187.504 478.97 171.694 481.898 160.764 473.505L89.7189 409.485C79.9599 400.701 78.984 385.672 87.7671 375.718C97.3309 364.788 114.507 364.983 124.07 376.108Z" fill="#B07550"/>
<path d="M79.179 334.339C86.4006 331.802 110.017 325.361 136.757 338.048C138.123 338.633 138.904 340 138.904 341.561L137.928 361.86C137.928 361.86 103.381 338.633 82.3018 343.903C81.1307 344.294 79.9597 343.513 79.5694 342.342L77.8127 337.462C77.2272 336.096 77.8127 334.73 79.179 334.339Z" fill="#BE202E"/>
<g opacity="0.4">
<path opacity="0.4" d="M250.351 381.378C252.693 380.402 254.45 378.451 255.231 376.108C256.792 371.034 256.207 365.568 253.865 360.884V360.689C248.399 366.154 243.715 372.4 240.007 379.231C238.055 382.94 236.298 387.039 233.371 390.162C230.638 393.285 226.93 395.236 223.807 397.969C212.487 407.533 209.169 423.733 198.629 433.883C190.041 442.276 176.378 447.155 173.06 458.866C157.056 447.936 140.661 436.615 129.34 420.61C122.704 411.241 118.02 400.506 109.237 393.089C101.82 387.039 93.037 384.306 83.4733 383.525C79.96 392.504 82.107 403.239 89.719 410.07L160.764 474.091C171.694 482.483 187.504 479.361 194.335 467.649C212.487 436.42 240.592 385.282 240.592 385.282L250.351 381.378Z" fill="#A16049"/>
</g>
<path d="M236.884 393.675C236.884 393.675 213.657 435.054 194.92 467.064C187.894 479.361 171.499 482.289 160.373 473.7L87.1812 407.728C77.0319 398.555 76.2513 383.135 85.0343 372.986C94.9884 361.665 112.75 361.665 122.704 373.181L166.619 424.514C168.766 427.052 172.67 426.661 174.426 424.124L216.585 378.841L236.884 393.675Z" fill="#345BA9"/>
<g opacity="0.05">
<path opacity="0.05" d="M232.395 390.552C229.663 393.09 226.54 395.042 223.612 397.384C212.292 406.948 208.974 423.148 198.434 433.298C189.846 441.691 176.184 446.57 172.865 458.281C156.861 447.351 140.466 436.03 129.145 420.025C122.509 410.656 117.825 399.921 109.042 392.504C100.844 385.673 90.4998 383.135 79.765 382.745C77.4228 391.528 79.9602 401.287 86.9866 407.729L160.179 473.701C171.304 482.289 187.699 479.166 194.726 467.064C213.463 434.859 236.689 393.675 236.689 393.675L232.395 390.552Z" fill="#7297CE"/>
</g>
<path d="M148.449 291.185C146.825 291.185 145.509 288.816 145.509 285.893C145.509 282.97 146.825 280.601 148.449 280.601C150.072 280.601 151.389 282.97 151.389 285.893C151.389 288.816 150.072 291.185 148.449 291.185Z" fill="#181B3B"/>
<path fill-rule="evenodd" clip-rule="evenodd" d="M153.849 270.15C153.61 269.289 152.719 268.785 151.859 269.024L152.291 270.582C151.859 269.024 151.859 269.024 151.859 269.024L151.845 269.028L151.812 269.037C151.784 269.045 151.743 269.057 151.691 269.072C151.587 269.102 151.437 269.145 151.251 269.201C150.879 269.313 150.359 269.475 149.763 269.675C148.586 270.071 147.05 270.638 145.766 271.289C144.483 271.941 142.996 272.909 141.867 273.684C141.294 274.077 140.797 274.431 140.443 274.687C140.266 274.816 140.125 274.92 140.027 274.992C139.978 275.029 139.939 275.057 139.913 275.077L139.883 275.099L139.871 275.108C139.871 275.108 139.871 275.108 140.841 276.401L139.871 275.108C139.157 275.644 139.012 276.658 139.548 277.372C140.084 278.086 141.098 278.231 141.812 277.695L141.819 277.689L141.845 277.67C141.868 277.653 141.903 277.627 141.948 277.594C142.039 277.526 142.173 277.428 142.341 277.306C142.678 277.062 143.151 276.725 143.696 276.35C144.803 275.591 146.145 274.724 147.23 274.173C148.303 273.629 149.663 273.121 150.793 272.741C151.351 272.554 151.837 272.402 152.183 272.298C152.356 272.246 152.493 272.206 152.586 272.179C152.633 272.166 152.668 272.156 152.691 272.149L152.717 272.142L152.723 272.14C153.584 271.901 154.088 271.01 153.849 270.15Z" fill="#181B3B"/>
<defs>
<linearGradient id="paint0_linear" x1="107.968" y1="339.065" x2="108.469" y2="572.302" gradientUnits="userSpaceOnUse">
<stop stop-color="#1649A0"/>
<stop offset="0.651042" stop-color="#1D3878"/>
<stop offset="1" stop-color="#99B1E8"/>
</linearGradient>
</defs>
</svg>
