<svg width="1080" height="900" viewBox="0 0 1080 900" fill="none" xmlns="http://www.w3.org/2000/svg">
<g clip-path="url(#clip0)">
<path opacity="0.5" d="M980.663 767.406C861.524 745.583 744.055 730.547 694.248 724.282C576.988 709.455 248.91 722.403 107.634 763.543C65.5544 775.864 -66.324 824.522 224.79 845.51C318.452 852.297 226.147 887.068 411.278 896.987C574.795 905.758 757.524 824.835 911.852 830.892C1063.36 836.843 1084.56 786.41 980.663 767.406Z" fill="#DFE3E9"/>
<path d="M957.801 86.1064C947.255 70.8616 918.75 64.4921 897.866 72.4278C884.71 77.4398 884.918 91.4317 868.316 106.677C852.34 121.399 877.714 167.029 892.123 173.086C909.665 180.395 928.774 192.716 945.167 190.523C969.078 187.286 978.163 115.656 957.801 86.1064Z" fill="#F6891F"/>
<path d="M789.273 427.967C790.108 423.581 787.811 403.429 788.96 399.043C790.421 393.301 811.409 396.015 809.947 401.758C809.112 404.995 805.666 421.702 806.084 426.401C806.606 432.666 807.128 438.409 804.205 448.015C802.847 452.4 798.044 462.32 795.851 461.067C793.972 459.918 797.731 453.236 796.686 451.565C794.18 451.461 790.108 463.469 789.586 468.063C789.273 470.569 786.976 473.806 785.827 471.509C784.052 468.272 783.53 467.332 782.903 465.348C781.442 460.963 782.381 452.505 784.156 446.866C787.185 437.26 788.333 432.979 789.273 427.967Z" fill="#FCCEBE"/>
<path d="M795.016 307.679C799.61 274.057 786.662 281.992 824.879 224.354C831.562 214.226 850.461 188.017 865.393 193.238C878.34 197.832 857.248 243.462 854.951 254.322C851.923 268.522 847.537 282.619 843.152 296.402C838.975 309.663 834.067 322.193 832.501 336.08C830.831 351.638 831.353 367.196 829.578 382.754C828.638 390.377 826.132 403.325 822.79 410.321C819.658 416.899 787.706 421.702 783.425 417.63C775.176 409.59 775.176 394.658 774.968 380.248C774.759 354.562 791.361 334.201 795.016 307.679Z" fill="#181B3B"/>
<path d="M788.96 407.292C800.341 417.108 802.116 401.967 809.947 403.533C825.192 406.666 823.313 425.774 810.47 427.34C800.028 428.593 793.136 429.951 786.349 425.565C775.177 418.674 784.47 403.533 788.96 407.292Z" fill="#D4E8F6"/>
<path d="M986.412 764.502C982.444 761.579 971.063 770.35 968.661 774.839C965.842 780.165 965.633 785.803 953.729 793.739C951.223 795.41 949.24 800.213 950.388 803.032C952.476 808.044 963.962 805.851 968.557 802.719C977.85 796.141 978.267 789.458 989.649 784.133C991.737 783.088 994.87 770.663 986.412 764.502Z" fill="#BE202E"/>
<path d="M982.026 764.815C975.239 763.876 964.484 782.357 965.946 786.221C967.199 789.562 975.761 785.803 979.729 782.566C989.649 774.317 990.275 765.964 982.026 764.815Z" fill="#D4E8F6"/>
<path d="M872.075 773.378C869.361 769.305 855.682 773.691 851.923 777.137C847.433 781.209 845.345 786.43 831.562 789.876C828.638 790.607 825.192 794.47 825.297 797.498C825.506 802.928 837.096 804.807 842.526 803.241C853.489 800.213 856.204 794.052 868.734 792.904C870.822 792.695 877.923 782.044 872.075 773.378Z" fill="#BE202E"/>
<path d="M894.734 370.433C883.666 348.819 838.662 371.373 830.518 406.248C820.911 447.806 806.084 493.541 806.084 562.247C806.084 631.371 847.224 734.744 851.192 775.884C852.654 791.024 870.822 789.563 871.031 773.691C872.702 665.724 861.216 586.681 869.465 557.235C884.292 504.4 883.457 484.039 893.168 449.999C905.28 408.337 903.609 387.767 894.734 370.433Z" fill="#FCCEBE"/>
<path d="M981.4 423.373C981.609 412.722 980.669 371.269 976.701 359.574C969.079 337.542 962.813 311.96 967.199 283.768C968.348 276.145 895.987 268.418 899.641 342.241C905.593 460.441 861.112 526.537 882.204 591.902C890.453 617.379 947.882 735.997 966.573 772.856C973.464 786.43 989.022 777.137 984.845 762.519C955.296 658.624 973.673 665.724 944.018 594.93C928.147 556.922 980.042 494.168 981.4 423.373Z" fill="#FCCEBE"/>
<path d="M969.496 560.054C968.87 490.513 996.332 434.65 976.701 359.678C966.155 319.165 954.147 279.277 954.147 279.277C954.147 279.277 847.537 294.313 844.301 303.92C829.16 348.401 783.53 451.043 771 533.428C771 533.428 833.963 566.946 880.638 570.183C937.545 574.15 969.496 560.054 969.496 560.054Z" fill="#8E0F1B"/>
<path d="M969.601 205.142C947.778 184.154 904.967 185.302 872.284 191.254C866.437 192.298 858.084 192.298 845.971 199.607C830.622 209.005 879.385 251.085 889.096 254.322C940.886 271.968 983.384 218.403 969.601 205.142Z" fill="#FCCEBE"/>
<path d="M942.557 190.001C940.155 223.206 882.622 240.643 879.698 190.105C879.28 182.379 838.558 197.206 839.811 208.692C848.895 293.374 833.232 307.574 839.811 315.615C858.501 338.691 947.569 337.333 965.842 328.145C979.207 321.357 965.842 269.567 973.882 245.551C989.753 197.519 947.36 191.15 942.557 190.001Z" fill="#181B3B"/>
<path d="M906.324 343.598C883.352 343.598 860.067 339.839 842.63 328.667L843.256 327.727C878.654 350.386 939.111 342.345 969.287 334.096L969.601 335.141C954.043 339.422 930.444 343.598 906.324 343.598Z" fill="#181B3B"/>
<path d="M877.296 123.697C872.284 125.785 872.284 134.765 874.268 138.524C876.043 141.761 878.758 143.849 882.935 143.118C887.216 142.387 884.71 120.564 877.296 123.697Z" fill="#FCCEBE"/>
<path d="M839.497 727.538C844.823 747.169 850.148 764.084 851.296 775.779C852.758 790.919 870.927 789.458 871.136 773.586C871.344 757.193 872.18 741.53 871.762 726.599C865.184 730.253 848.686 734.012 839.497 727.538Z" fill="#D4E8F6"/>
<path d="M986.412 764.503C981.609 741.009 976.283 722.214 972.42 707.282C966.677 718.768 945.794 726.704 941.304 725.973C951.432 747.692 961.352 763.041 966.781 773.587C973.464 787.057 989.544 780.061 986.412 764.503Z" fill="#D4E8F6"/>
<path d="M867.899 772.229C861.843 769.097 845.553 782.775 845.553 786.952C845.553 790.502 854.951 789.876 859.859 788.101C871.867 783.715 875.312 775.988 867.899 772.229Z" fill="#D4E8F6"/>
<path d="M871.135 771.811C871.135 770.872 871.135 769.932 871.135 768.992C865.601 772.438 855.368 773.795 850.67 771.185C850.67 771.185 850.983 774.004 851.296 776.093C852.027 776.928 860.694 780.583 871.135 771.811Z" fill="#BE202E"/>
<path d="M987.247 765.233C986.934 764.398 986.621 763.458 986.307 762.518C982.235 767.634 971.898 773.795 966.573 772.855C966.573 772.855 967.825 775.466 968.765 777.241C969.705 777.867 980.356 777.032 987.247 765.233Z" fill="#BE202E"/>
<path d="M807.547 297.863L858.293 411.156L949.762 366.883L901.522 260.691L807.547 297.863Z" fill="#174A9F"/>
<path d="M810.26 298.176L861.842 411.155L953.312 366.883L909.248 264.032L897.344 263.719L810.26 298.176Z" fill="#D4E8F6"/>
<path d="M818.823 299.847L866.855 412.513L961.039 368.762L912.798 262.675L818.823 299.847Z" fill="#1D3878"/>
<path d="M807.546 297.654L818.823 299.847L866.854 412.513L858.292 411.155L807.546 297.654Z" fill="#174A9F"/>
<path d="M845.866 309.245C846.806 309.767 859.754 341.301 859.754 341.301L918.54 316.972L903.713 282.305L845.866 309.245Z" fill="#345BA9"/>
<path d="M890.244 364.064C894.943 363.75 916.035 368.762 920.734 368.136C926.999 367.301 926.894 344.851 920.629 345.686C917.079 346.208 899.015 347.67 894.003 346.522C887.425 345.164 881.473 343.807 870.927 345.686C866.124 346.522 854.951 350.385 856.1 352.787C857.04 354.875 864.662 351.847 866.333 353.204C866.019 355.919 852.863 358.634 847.955 358.53C845.345 358.53 841.586 360.514 843.779 362.08C847.016 364.377 847.955 365.108 849.939 365.943C854.429 368.032 863.409 368.136 869.674 366.987C880.116 365.003 884.814 364.377 890.244 364.064Z" fill="#FCCEBE"/>
<path d="M1032.67 322.506C1027.34 285.125 1031.42 292.539 994.765 228.636C988.291 217.463 962.291 194.282 957.593 194.909C942.974 196.58 958.95 246.804 960.725 258.499C963.022 273.848 965.633 288.988 972.211 302.98C979.207 317.807 978.998 319.374 964.275 321.566C947.882 324.072 954.669 321.253 938.276 323.864C930.131 325.117 916.557 328.458 909.248 332.321C902.356 335.976 898.702 370.12 903.296 374.506C912.276 382.964 928.147 382.233 943.392 381.815C970.854 380.98 1036.64 350.699 1032.67 322.506Z" fill="#181B3B"/>
<path d="M912.485 366.779C903.192 353.727 919.376 353.309 918.437 344.955C916.557 328.562 896.091 328.666 893.168 342.241C890.871 353.204 888.782 360.305 892.75 368.032C899.12 380.248 916.14 371.791 912.485 366.779Z" fill="#D4E8F6"/>
<path d="M968.974 296.506C968.87 296.297 954.46 270.611 954.46 235.84H955.609C955.609 270.298 969.809 295.671 969.914 295.984L968.974 296.506Z" fill="#181B3B"/>
<path d="M946.838 213.286C954.251 210.049 949.657 179.977 932.533 178.515C921.151 177.575 930.34 220.595 946.838 213.286Z" fill="#F6891F"/>
<path d="M932.115 184.78C939.529 181.543 963.649 143.64 946.42 142.282C935.143 141.343 915.617 192.194 932.115 184.78Z" fill="#F6891F"/>
<path d="M946.003 214.852C952.79 210.363 975.239 173.399 957.906 172.772C938.067 172.042 936.187 221.326 946.003 214.852Z" fill="#F6891F"/>
<path d="M944.227 242.314C951.014 237.928 956.131 203.053 938.798 202.322C918.958 201.696 929.922 251.607 944.227 242.314Z" fill="#F6891F"/>
<path d="M944.227 242.314C951.015 237.824 972.42 201.487 955.087 200.861C935.248 200.234 934.412 248.788 944.227 242.314Z" fill="#F6891F"/>
<path d="M944.228 263.72C951.015 259.23 953.834 228.218 936.605 227.591C916.662 226.861 934.412 270.194 944.228 263.72Z" fill="#F6891F"/>
<path d="M945.272 266.017C952.059 261.527 972.42 228.009 955.191 227.382C935.352 226.652 935.456 272.49 945.272 266.017Z" fill="#F6891F"/>
<path d="M947.047 288.466C953.834 283.976 947.673 240.748 934.621 252.025C917.601 266.643 937.232 294.94 947.047 288.466Z" fill="#F6891F"/>
<path d="M952.372 328.145C955.191 328.562 947.464 324.281 954.982 311.751C963.127 298.281 952.789 270.298 938.798 276.563C918.436 285.856 928.043 324.699 952.372 328.145Z" fill="#F6891F"/>
<path d="M947.047 288.466C953.834 283.976 961.038 269.775 954.147 255.157C945.689 237.093 937.231 294.94 947.047 288.466Z" fill="#F6891F"/>
<path d="M930.236 157.841C932.637 147.399 896.927 145.52 895.36 155.23C893.481 166.821 893.585 194.909 895.047 198.668C898.388 207.23 920.629 206.917 925.432 200.13C927.625 196.997 927.625 168.909 930.236 157.841Z" fill="#FCCEBE"/>
<path d="M894.316 157.006V169.014C897.971 174.652 903.4 181.335 908.726 182.17C918.75 183.841 923.135 179.142 928.565 172.146L930.758 155.439L894.316 157.006Z" fill="#EFAFA3"/>
<path d="M928.929 95.7995C923.395 92.145 893.532 88.386 886.745 107.39C885.596 110.418 884.865 113.864 884.448 117.309C881.733 131.51 881.419 146.546 887.371 158.032C892.592 168.16 903.451 174.634 915.773 172.337C928.511 169.935 937.074 160.642 942.399 150.305C951.379 133.39 948.768 108.956 928.929 95.7995Z" fill="#FCCEBE"/>
<path fill-rule="evenodd" clip-rule="evenodd" d="M904.684 139.896C904.184 141.275 905.683 141.965 906.432 142.195C906.682 142.195 907.306 142.425 907.681 142.654C908.305 142.884 908.93 142.884 909.554 142.654C909.929 142.425 910.553 142.425 910.803 142.195C911.552 142.195 912.801 141.505 912.551 139.896C912.427 139.206 910.428 137.827 908.43 137.827C906.557 137.827 905.059 138.976 904.684 139.896Z" fill="#EFAFA3"/>
<path d="M941.408 151.784C946.838 153.56 952.476 147.503 953.729 143.013C954.878 139.15 953.416 134.869 949.657 132.572C945.898 130.379 933.472 149.174 941.408 151.784Z" fill="#FCCEBE"/>
<path d="M948.3 132.572C977.119 131.005 952.685 77.1263 935.457 76.4998C915.617 75.7689 932.533 133.407 948.3 132.572Z" fill="#F6891F"/>
<path d="M945.794 145.415L944.645 145.311C944.749 144.058 945.585 140.508 948.404 138.628L949.031 139.568C946.629 141.239 945.898 144.371 945.794 145.415Z" fill="black" fill-opacity="0.05"/>
<path d="M940.573 96.3391C931.071 81.6163 901.103 71.3835 882.726 104.379C879.384 110.331 873.642 114.299 869.152 117.014C865.601 119.102 866.541 124.114 870.613 125.054C875.103 126.098 880.742 126.933 887.216 126.516C902.461 125.68 951.119 112.628 940.573 96.3391Z" fill="#F6891F"/>
<path fill-rule="evenodd" clip-rule="evenodd" d="M188.557 705.695C185.216 705.695 182.188 706.948 179.995 709.037C178.011 710.916 176.863 713.422 176.863 716.241V752.892C176.863 755.711 178.116 758.217 179.995 760.096C182.188 762.185 185.216 763.438 188.557 763.438C350.508 763.438 541.382 763.542 703.228 763.542V754.876H347.375C346.122 754.876 344.869 754.354 344.034 753.518C343.198 752.683 342.676 751.534 342.676 750.281V718.956C342.676 717.703 343.198 716.555 344.034 715.719C344.869 714.884 346.018 714.362 347.375 714.362H703.228V705.695C541.382 705.591 350.508 705.695 188.557 705.695Z" fill="#181B3B"/>
<path d="M669.188 788.184L703.227 763.542V754.875L601.108 775.654L669.188 788.184Z" fill="#181B3B"/>
<path fill-rule="evenodd" clip-rule="evenodd" d="M689.758 707.993C684.746 715.406 681.822 723.76 681.822 732.635C681.822 741.406 684.641 749.759 689.653 757.277L655.614 781.92L634.312 761.663L651.855 732.739L689.758 707.993Z" fill="#D4E8F6"/>
<path d="M669.188 738.9L703.227 714.362V705.591L601.108 726.474L669.188 738.9Z" fill="#181B3B"/>
<path fill-rule="evenodd" clip-rule="evenodd" d="M296.733 732.739L656.867 736.707C651.855 744.121 648.096 754.667 648.096 763.542C648.096 772.313 654.987 777.221 659.999 784.634L294.332 788.185L289.215 783.695V744.643L296.733 732.739Z" fill="#D4E8F6"/>
<path fill-rule="evenodd" clip-rule="evenodd" d="M153.264 731.382C142.301 739.109 139.69 784.843 157.859 785.992C327.641 796.016 510.683 796.225 669.188 788.185V779.518C669.188 779.518 394.572 787.245 312.918 783.904C306.862 783.695 301.119 779.518 299.448 776.803C295.167 769.39 298.508 752.057 301.536 746C302.894 743.286 306.235 739.527 313.231 739.004C394.781 733.679 669.083 739.004 669.083 739.004L668.875 717.286C507.133 717.286 258.621 657.455 153.264 731.382Z" fill="#181B3B"/>
<path fill-rule="evenodd" clip-rule="evenodd" d="M143.032 685.125C144.285 682.202 148.044 676.772 150.654 674.788C168.823 660.379 227.818 642.314 237.424 642.314C280.444 642.523 662.61 647.326 662.61 647.326C662.61 647.326 645.694 728.041 642.248 728.041C469.961 720.314 225.103 737.751 147.73 731.278C136.14 730.338 138.646 695.88 143.032 685.125Z" fill="#162B4D"/>
<path d="M561.43 668.001L598.289 638.66C598.289 638.66 332.861 640.33 288.693 640.122C278.878 640.122 199.834 663.093 199.834 663.093L561.43 668.001Z" fill="#1649A0"/>
<path d="M200.774 605.247C200.774 605.247 278.043 585.616 290.886 585.616C335.054 585.616 613.847 575.07 621.469 588.958C627.003 599.19 625.855 634.796 625.855 634.796C625.646 637.511 624.289 640.122 621.991 641.792L585.863 668.419L581.687 610.363L581.895 610.259L200.774 605.247Z" fill="#1D3878"/>
<path fill-rule="evenodd" clip-rule="evenodd" d="M578.45 610.258H212.469C218.525 618.925 221.866 628.74 221.866 639.077C221.866 649.415 218.525 659.125 212.469 667.896H579.076L585.132 662.675V617.045L578.45 610.258Z" fill="#D4E8F6"/>
<path fill-rule="evenodd" clip-rule="evenodd" d="M198.686 665.286C198.686 663.824 199.939 662.676 201.401 662.676H574.273C575.839 662.676 577.197 662.049 578.241 661.109C579.285 660.17 579.911 658.812 579.911 657.35V620.596C579.911 619.134 579.285 617.776 578.241 616.837C577.197 615.897 575.839 615.27 574.273 615.27H201.401C199.939 615.27 198.686 614.122 198.686 612.66V607.753C198.686 606.291 199.939 605.142 201.401 605.142H574.273C578.763 605.142 582.835 606.917 585.863 609.736C588.787 612.556 590.666 616.419 590.666 620.7V657.455C590.666 661.736 588.787 665.599 585.863 668.419C582.94 671.238 578.763 673.013 574.273 673.013H203.176C199.939 673.013 198.686 671.864 198.686 670.403V665.286Z" fill="#1D3878"/>
<path d="M234.535 694.715L231.69 727.693L232.835 727.792L235.68 694.814L234.535 694.715Z" fill="black"/>
<path d="M260.366 695.432L259.219 695.499L259.893 707.069L261.04 707.002L260.366 695.432Z" fill="black"/>
<path d="M260.726 710.674L259.579 710.741L259.962 717.308L261.109 717.241L260.726 710.674Z" fill="black"/>
<path d="M312.187 782.338C311.978 779.309 314.484 777.952 316.677 776.699C318.765 775.551 320.749 774.402 320.645 772.105C320.54 769.599 318.452 768.241 316.155 766.78C313.753 765.213 311.247 763.647 311.143 760.619C311.038 757.695 313.544 756.338 315.737 755.189C317.93 754.041 319.809 753.101 319.6 750.804C319.496 748.611 317.512 747.984 315.319 747.254C313.022 746.523 310.412 745.583 310.307 742.659H311.456C311.56 744.852 313.44 745.478 315.737 746.209C318.034 746.94 320.645 747.776 320.749 750.804C320.958 753.832 318.452 755.085 316.259 756.233C314.171 757.278 312.187 758.322 312.291 760.619C312.396 763.125 314.484 764.482 316.781 765.944C319.183 767.51 321.689 769.077 321.793 772.105C321.898 775.133 319.392 776.49 317.199 777.743C315.006 778.996 313.127 780.04 313.335 782.338H312.187Z" fill="black"/>
<path d="M662.923 649.414C662.923 649.414 659.79 667.27 658.851 673.222C655.614 694.523 668.666 701.832 666.369 703.502L639.429 724.595L635.67 676.772C635.67 676.876 663.132 646.908 662.923 649.414Z" fill="#D4E8F6"/>
<path d="M666.473 650.459L661.774 653.382L643.397 674.579C640.578 677.816 639.325 682.097 639.951 686.274L644.337 716.032C644.65 718.121 647.052 719.061 648.722 717.703L666.056 701.519C666.056 701.519 671.694 699.952 672.947 701.205C674.827 703.189 669.606 706.531 667.413 708.201L642.875 727.518C641.413 728.667 639.22 727.832 638.907 725.952L631.598 677.294L661.566 647.639C663.758 646.282 666.682 647.953 666.473 650.459Z" fill="#344563"/>
<path fill-rule="evenodd" clip-rule="evenodd" d="M131.546 510.332C128.205 510.332 125.177 511.585 122.984 513.673C121 515.553 119.851 518.059 119.851 520.878V557.528C119.851 560.348 121.104 562.854 122.984 564.733C125.177 566.822 128.205 568.075 131.546 568.075C293.496 568.075 484.37 568.179 646.216 568.179V559.512H290.26C289.007 559.512 287.754 558.99 286.918 558.155C286.083 557.32 285.561 556.171 285.561 554.918V523.593C285.561 522.34 286.083 521.191 286.918 520.356C287.754 519.521 288.902 518.999 290.26 518.999H646.112V510.332C484.266 510.228 293.392 510.332 131.546 510.332Z" fill="#8E0F1B"/>
<path d="M612.176 592.717L646.216 568.179V559.513L544.097 580.292L612.176 592.717Z" fill="#8E0F1B"/>
<path fill-rule="evenodd" clip-rule="evenodd" d="M633.999 518.686C628.987 526.1 624.706 528.397 624.706 537.168C624.706 545.939 627.526 554.292 632.538 561.81L598.498 586.453L577.197 566.196L594.739 537.272L633.999 518.686Z" fill="#D4E8F6"/>
<path d="M612.176 543.537L646.216 518.894V510.228L544.097 531.111L612.176 543.537Z" fill="#8E0F1B"/>
<path fill-rule="evenodd" clip-rule="evenodd" d="M239.722 537.376L599.855 541.344C594.843 548.757 591.084 559.303 591.084 568.179C591.084 576.95 597.976 581.857 602.988 589.271L237.32 592.821L232.204 588.331V549.384L239.722 537.376Z" fill="#D4E8F6"/>
<path fill-rule="evenodd" clip-rule="evenodd" d="M112.125 529.336C101.161 537.063 111.498 585.93 129.562 586.974C299.344 596.998 453.568 600.757 612.177 592.717V584.05C612.177 584.05 337.561 591.777 255.907 588.436C249.85 588.227 242.019 582.171 240.453 579.456C236.172 572.042 241.497 556.589 244.63 550.533C245.987 547.818 249.328 544.059 256.324 543.537C337.874 538.211 612.177 543.537 612.177 543.537L611.968 521.818C450.017 521.922 217.481 455.409 112.125 529.336Z" fill="#060E1E"/>
<path fill-rule="evenodd" clip-rule="evenodd" d="M78.5022 487.883C79.7552 484.959 83.5142 479.53 86.1246 477.546C104.293 463.136 170.807 446.952 180.413 446.952C223.433 447.16 605.598 451.964 605.598 451.964C605.598 451.964 588.578 532.678 585.237 532.678C412.949 524.951 168.092 542.389 90.719 535.915C79.1287 534.975 74.1167 498.534 78.5022 487.883Z" fill="#1D3878"/>
<path d="M504.418 472.638L541.277 443.296C541.277 443.296 275.85 444.967 231.682 444.758C221.867 444.758 142.823 467.73 142.823 467.73L504.418 472.638Z" fill="#0C1E41"/>
<path d="M143.763 409.779C143.763 409.779 221.031 390.148 233.875 390.148C278.043 390.148 556.836 379.602 564.458 393.49C569.992 403.723 568.844 439.329 568.844 439.329C568.635 442.044 567.277 444.654 564.98 446.325L528.852 472.951L524.675 414.895L524.884 414.791L143.763 409.779Z" fill="#0C1E41"/>
<path fill-rule="evenodd" clip-rule="evenodd" d="M521.438 414.791H155.353C161.409 423.457 164.751 433.272 164.751 443.61C164.751 453.947 161.409 463.658 155.353 472.429H521.96L528.017 467.208V421.578L521.438 414.791Z" fill="#D4E8F6"/>
<path fill-rule="evenodd" clip-rule="evenodd" d="M141.674 469.923C141.674 468.461 142.927 467.313 144.389 467.313H517.262C518.828 467.313 520.185 466.686 521.229 465.746C522.274 464.807 522.9 463.449 522.9 461.987V425.233C522.9 423.771 522.274 422.413 521.229 421.474C520.185 420.534 518.828 419.907 517.262 419.907H144.389C142.927 419.907 141.674 418.759 141.674 417.297V412.389C141.674 410.927 142.927 409.779 144.389 409.779H517.262C521.751 409.779 525.824 411.554 528.852 414.373C531.775 417.192 533.655 421.056 533.655 425.337V462.092C533.655 466.373 531.775 470.236 528.852 473.055C525.928 475.875 521.751 477.65 517.262 477.65H146.164C142.927 477.65 141.674 476.501 141.674 475.039V469.923Z" fill="#203858"/>
<path d="M507.864 461.256C504.418 443.819 507.864 429.618 507.864 429.409L508.908 429.722C508.908 429.827 505.463 443.819 508.908 461.047L507.864 461.256Z" fill="black"/>
<path d="M605.911 454.051C605.911 454.051 602.779 471.906 601.839 477.858C598.602 499.159 611.654 506.468 609.357 508.139L582.418 529.231L578.659 481.408C578.659 481.408 606.016 451.545 605.911 454.051Z" fill="#D4E8F6"/>
<path d="M609.462 455.096L604.763 458.02L586.386 479.216C583.566 482.453 582.313 486.734 582.94 490.911L587.325 520.67C587.639 522.758 590.04 523.698 591.711 522.34L609.044 506.156C609.044 506.156 614.683 504.589 615.936 505.842C617.815 507.826 612.594 511.168 610.401 512.838L585.968 532.156C584.506 533.304 582.313 532.469 582 530.589L574.691 481.931L604.659 452.277C606.747 450.919 609.566 452.59 609.462 455.096Z" fill="#174A9F"/>
<path d="M524.675 243.338C525.719 250.752 522.482 287.715 525.719 293.771C529.896 301.498 564.144 300.872 564.144 286.775C564.144 251.587 564.771 233.836 564.144 221.619C561.847 174.11 552.345 166.383 541.486 148.736C527.703 126.391 519.558 131.09 511.832 133.387C496.691 137.877 510.683 173.483 514.546 190.712C520.081 216.294 521.751 221.202 524.675 243.338Z" fill="#1D3878"/>
<path d="M518.932 106.448C524.257 100.705 525.092 96.8416 530.94 94.1267C543.261 88.3838 552.658 58.5206 543.157 30.4325C542.217 17.5892 483.326 4.11944 464.844 21.035C444.169 40.0388 446.362 56.5367 453.254 80.1349C457.117 93.5002 464.009 100.183 479.253 104.36C493.976 108.432 505.462 121.171 518.932 106.448Z" fill="#181B3B"/>
<path d="M538.667 75.2271C531.462 69.7974 515.382 83.0583 521.229 92.4559C523.213 95.6928 531.775 92.5603 535.012 89.741C537.414 87.6527 542.426 78.0463 538.667 75.2271Z" fill="#A16049"/>
<path d="M517.052 309.434C517.052 355.481 568.634 405.706 487.502 450.918C456.073 468.46 439.366 470.549 417.334 456.661C392.17 440.79 363.664 405.706 363.664 381.168C363.664 335.12 365.544 272.888 409.503 272.888C453.567 272.992 517.052 263.386 517.052 309.434Z" fill="#8E0F1B"/>
<path d="M602.048 487.151L643.188 442.043C620.843 417.401 592.337 377.2 566.233 353.707C541.068 331.048 501.494 305.779 501.494 305.779C501.494 305.779 476.016 346.815 474.868 349.426C472.257 355.377 454.507 386.389 457.013 391.714C460.98 400.381 499.51 423.561 507.446 425.963C530.94 432.855 563.622 453.529 602.048 487.151Z" fill="#8E0F1B"/>
<path d="M497.213 529.858L556.731 503.754C551.092 470.131 528.852 423.039 512.563 407.795C498.257 394.429 462.129 396.726 447.302 394.638C427.15 391.819 382.355 403.096 376.403 415.417C376.403 415.417 398.122 447.473 440.933 477.232C476.748 502.083 464.218 506.886 497.213 529.858Z" fill="#8E0F1B"/>
<path d="M512.145 130.15C509.639 128.375 481.029 113.757 463.069 114.279C409.712 115.845 389.768 124.72 371.913 151.66C360.009 169.62 355.728 213.892 353.64 243.651C351.238 277.795 339.544 319.458 363.769 341.907C384.965 361.538 441.35 362.582 490.217 345.144C515.591 336.06 521.438 317.474 522.691 299.514C527.912 219.844 549.735 156.776 512.145 130.15Z" fill="#1649A0"/>
<path d="M498.049 129.628C503.061 139.444 511.205 163.042 492.828 167.427C466.515 173.588 432.266 147.066 434.25 131.717C436.338 115.637 456.178 117.098 470.692 118.873C485.31 120.649 494.185 122.006 498.049 129.628Z" fill="#B07550"/>
<path d="M621.156 666.226C616.562 653.487 608.104 648.789 601.421 647.327C592.546 645.447 588.056 653.905 587.012 664.033C586.281 670.925 603.092 679.069 620.634 698.073C629.718 707.888 633.059 698.804 631.389 693.27C628.465 683.664 624.915 676.459 621.156 666.226Z" fill="#BE202E"/>
<path d="M596.618 642.21L593.381 657.038C592.546 661.214 599.542 662.989 604.867 662.885C610.088 662.781 613.22 660.588 614.056 656.307L616.353 644.716L596.618 642.21Z" fill="#B07550"/>
<path d="M615.726 654.115C609.461 654.95 585.55 652.444 590.875 642.211C593.172 637.826 593.381 630.099 593.381 630.099L624.393 633.962C624.393 633.962 621.782 641.167 621.469 643.568C620.842 649.207 623.975 653.07 615.726 654.115Z" fill="#640B14"/>
<path d="M578.554 467.521C578.554 467.521 601.317 488.926 595.156 498.741C579.703 523.697 593.799 572.251 588.369 627.696C587.847 632.604 590.98 635.945 595.887 637.511C606.329 640.853 615.204 642.106 625.228 640.644C630.345 639.913 631.18 634.901 631.598 631.037C638.176 562.853 651.124 539.986 651.959 465.641C652.377 427.216 583.984 398.501 578.554 467.521Z" fill="#8E0F1B"/>
<path d="M538.04 718.33C538.144 700.579 529.478 702.981 523.526 703.086C518.618 703.19 509.743 706.218 513.606 723.969C516.426 736.917 523.944 752.683 530.209 757.8C534.176 760.932 544.2 760.515 544.618 755.189C545.245 745.688 538.04 730.129 538.04 718.33Z" fill="#BE202E"/>
<path d="M517.365 698.074L517.156 712.483C517.156 716.555 522.795 717.286 526.867 716.555C530.835 715.825 532.923 713.319 532.923 709.246V698.074H517.365Z" fill="#B07550"/>
<path d="M533.968 706.949C529.269 708.515 510.474 709.246 512.98 698.909C514.024 694.523 512.98 687.214 512.98 687.214L537.518 686.901C537.518 686.901 536.578 694.001 536.787 696.298C537.205 701.624 540.128 704.756 533.968 706.949Z" fill="#640B14"/>
<path d="M493.872 522.027C493.141 531.947 506.61 531.738 501.807 542.388C499.092 548.34 494.916 547.192 494.08 565.569C493.349 582.589 502.016 625.086 504.209 649.102C505.253 659.857 507.341 684.291 510.474 691.182C515.277 701.937 540.024 693.897 540.233 688.885C540.755 672.805 554.329 578.308 556.626 565.673C562.995 530.067 556.626 503.859 556.626 503.859C556.626 503.859 497.735 468.566 493.872 522.027Z" fill="#8E0F1B"/>
<path d="M497.526 135.998C497.526 112.504 511.727 104.36 512.562 99.3475C513.815 91.0986 471.318 56.119 468.185 64.4723C458.788 89.4279 449.077 108.536 447.511 122.737C443.647 159.387 497.526 149.676 497.526 135.998Z" fill="#B07550"/>
<path d="M465.053 71.2593L461.294 82.223C463.696 90.472 467.768 119.395 477.583 121.693C489.382 124.512 496.169 121.275 503.478 113.444L514.338 94.0221L465.053 71.2593Z" fill="#B07550"/>
<path d="M533.797 27.3386C519.909 8.33477 493.492 8.85686 477.934 25.1459C476.054 27.2342 474.697 29.3225 473.757 31.5153C471.147 35.3787 469.163 39.8686 467.701 44.5674C462.063 62.3182 463.838 109.515 486.809 113.691C508.11 117.555 521.058 100.848 531.395 82.7839C540.688 66.2861 545.805 43.7321 533.797 27.3386Z" fill="#B07550"/>
<path fill-rule="evenodd" clip-rule="evenodd" d="M499.15 81.069C498.401 82.4483 500.648 83.1379 501.772 83.3678C502.147 83.3678 503.084 83.5977 503.646 83.8276C504.582 84.0575 505.519 84.0575 506.455 83.8276C507.017 83.5977 507.954 83.5977 508.329 83.3678C509.453 83.3678 511.326 82.6782 510.951 81.069C510.764 80.3793 507.767 79 504.77 79C501.96 79 499.712 80.1494 499.15 81.069Z" fill="#A16049"/>
<path d="M485.414 4.11939C479.253 6.62539 461.398 19.9907 462.233 24.6895C464.113 34.1914 461.502 57.0587 472.257 59.9824C478.105 61.653 479.358 38.3681 487.816 35.6533C495.334 33.2517 493.141 40.0388 505.984 46.4082C524.779 55.7013 530.94 81.2834 538.667 76.7935C568.112 59.5647 539.815 -18.6435 485.414 4.11939Z" fill="#181B3B"/>
<path d="M470.9 56.4324C470.274 53.091 467.037 51.7336 464.844 50.4806C461.294 48.3923 458.057 51.9425 457.953 56.7456C457.848 60.8179 460.458 69.1712 460.145 73.7656C459.832 77.8378 463.173 80.2394 466.097 78.4643C468.916 76.6892 471.84 58.103 470.9 56.4324Z" fill="#B07550"/>
<path d="M491.053 305.675L513.294 247.828C514.233 245.322 521.229 241.354 524.675 243.338L578.554 274.246L618.755 255.555C620.634 254.615 623.036 254.824 624.706 256.286C627.317 258.479 630.658 257.226 629.927 258.583L586.281 305.78H491.053V305.675Z" fill="#D4E8F6"/>
<path d="M466.724 360.077L508.386 248.977C509.326 246.471 512.98 243.861 515.277 245.218C515.277 245.218 555.582 275.081 571.558 279.362C575.004 280.302 582.209 279.885 585.654 279.049C597.767 276.021 630.24 256.495 630.24 256.495C632.016 255.555 633.895 257.644 632.851 259.314L571.976 358.302C571.976 358.302 547.333 375.635 534.281 389.731C533.237 390.88 523.631 392.341 518.828 392.341C514.651 392.341 466.724 360.077 466.724 360.077Z" fill="#3EB57F"/>
<path d="M482.49 319.771L481.446 319.353L507.864 248.768C508.386 247.515 509.117 246.888 509.952 246.679C511.414 246.366 512.876 247.515 514.338 248.768C514.964 249.29 515.486 249.707 516.008 250.021C516.426 250.334 556.835 280.302 572.498 284.374C575.735 285.209 582.939 285.105 586.072 283.643C598.706 278.213 629.614 259.627 629.927 259.418L630.553 260.358C630.24 260.567 599.333 279.153 586.594 284.583C583.148 286.044 575.735 286.253 572.289 285.314C556.522 281.137 517.157 252.005 515.486 250.752C514.964 250.438 514.338 249.916 513.711 249.394C512.562 248.454 511.205 247.306 510.37 247.619C509.848 247.724 509.43 248.246 509.117 248.977L482.49 319.771Z" fill="#068A5B"/>
<path d="M441 337C441 337 442.596 321.632 446.251 320.066C458.781 314.532 466.403 314.219 478.62 315.89C483.945 316.62 482.335 317.681 481.5 320.5C480.769 323.006 481.544 320.472 480.5 323.5C479.038 329.869 498.563 330.195 503.784 329.359C506.708 328.942 510.989 330.508 508.796 332.596C505.664 335.624 504.724 336.46 502.74 337.817C498.146 340.741 487.286 344.082 480.291 343.664C468.596 343.038 441 337 441 337Z" fill="#B07550"/>
<path d="M465.679 341.803L464.217 317.474C464.217 317.474 418.9 295.86 390.917 274.559C382.355 268.085 381.519 252.84 374.941 249.917C346.957 237.387 326.387 269.86 335.263 296.069C338.708 306.197 342.259 308.39 355.833 313.611C401.672 331.048 465.679 341.803 465.679 341.803Z" fill="#B07550"/>
<path d="M353.327 294.294C365.022 289.282 389.873 286.358 394.467 273.724C401.567 254.093 392.692 221.829 395.302 210.552C404.804 168.576 411.8 133.566 394.467 132C378.387 130.643 347.375 185.178 340.066 201.258C333.488 215.668 326.387 232.792 324.299 252.005C320.227 289.491 326.283 305.78 353.327 294.294Z" fill="#1D3878"/>
<path d="M588.056 343.578C574.586 351.514 573.229 346.293 575.004 343.682C576.57 341.281 579.285 331.57 587.325 328.229C591.188 326.558 594.112 320.919 594.112 320.919C595.365 321.233 596.409 323.634 596.305 328.333C596.201 332.092 592.233 341.176 588.056 343.578Z" fill="#B07550"/>
<path d="M332.966 644.925L360.427 656.62C360.427 656.62 390.186 768.241 383.712 804.787C382.459 811.888 343.303 818.675 343.303 818.675L311.978 815.751C311.978 815.751 347.897 805.936 362.098 798.105C369.303 794.137 332.966 644.925 332.966 644.925Z" fill="#8E0F1B"/>
<path d="M367.319 655.889C375.672 692.853 355.729 815.125 339.231 822.852C300.492 841.125 240.244 824 209.441 811.888C194.822 806.145 227.922 679.488 257.368 634.588C275.641 606.813 355.729 604.83 367.319 655.889Z" fill="#D33227"/>
<path d="M289.424 617.464C288.484 617.255 290.155 615.062 290.781 614.436C293.601 611.512 300.179 607.649 303.938 605.874C315.737 600.34 329.729 603.054 335.889 609.006C339.648 612.661 339.544 620.91 339.231 625.608C339.126 627.384 337.038 628.637 334.95 628.115L333.07 627.592C331.504 627.175 330.46 625.922 330.564 624.46C330.982 621.223 331.295 615.376 329.207 613.079C325.239 608.693 312.082 608.902 305.817 610.572C302.894 611.303 298.09 614.227 295.793 616.107C295.062 616.629 295.271 617.151 293.601 617.255L289.424 617.464Z" fill="#BE202E"/>
<path d="M309.681 811.679C296.107 830.578 215.079 807.607 213.513 800.715C209.127 782.025 220.509 737.23 233.352 723.029C239.826 715.824 308.115 715.198 323.882 733.053C329.102 738.901 315.319 803.743 309.681 811.679Z" fill="#8E0F1B"/>
<path d="M329.938 687.319C319.287 697.239 249.432 685.857 248.91 682.098C248.179 676.668 254.758 658.082 263.215 646.91C267.079 641.898 317.303 639.392 329.624 648.789C333.697 651.817 334.428 683.142 329.938 687.319Z" fill="#8E0F1B"/>
<circle cx="923" cy="150.667" r="1.33333" fill="#FFB398"/>
<circle cx="925.667" cy="147.333" r="1.33333" fill="#FFB398"/>
<circle cx="920.333" cy="147.333" r="1.33333" fill="#FFB398"/>
<circle cx="887.35" cy="153.944" r="1.69943" transform="rotate(13.0195 887.35 153.944)" fill="#FFB398"/>
<circle cx="891.619" cy="150.57" r="1.69943" transform="rotate(13.0195 891.619 150.57)" fill="#FFB398"/>
<circle cx="884.996" cy="149.039" r="1.69943" transform="rotate(13.0195 884.996 149.039)" fill="#FFB398"/>
<path d="M896.074 156.636C896.564 159.793 901.471 161.642 907.031 160.795C912.592 159.947 916.517 155.634 915.945 152.476C915.454 149.319 909.403 152.091 903.842 152.862C898.282 153.709 895.501 153.478 896.074 156.636Z" fill="white"/>
<path d="M914 141C912.343 141 911 138.09 911 134.5C911 130.91 912.343 128 914 128C915.657 128 917 130.91 917 134.5C917 138.09 915.657 141 914 141Z" fill="#345BA9"/>
<path d="M495 75C496.657 75 498 72.0898 498 68.5C498 64.9102 496.657 62 495 62C493.343 62 492 64.9102 492 68.5C492 72.0898 493.343 75 495 75Z" fill="#552A11"/>
<path d="M887 141C885.343 141 884 138.09 884 134.5C884 130.91 885.343 128 887 128C888.657 128 890 130.91 890 134.5C890 138.09 888.657 141 887 141Z" fill="#345BA9"/>
<path d="M517 77C518.657 77 520 74.0898 520 70.5C520 66.9102 518.657 64 517 64C515.343 64 514 66.9102 514 70.5C514 74.0898 515.343 77 517 77Z" fill="#552A11"/>
<path d="M907.277 132.807H907.461V132.557C907.461 130.99 908.634 129.959 909.974 129.959H921.763C923.265 129.959 924.276 131.158 924.276 132.557C924.276 137.366 920.51 141.421 915.684 141.421H913.658C910.119 141.421 907.277 138.502 907.277 134.836V132.807ZM905.487 132.557V134.646C905.487 139.333 909.276 143.25 913.842 143.25H915.869C921.54 143.25 926.25 138.384 926.25 132.557C926.25 129.958 924.303 127.94 921.763 127.94H909.984C907.605 127.743 905.487 129.975 905.487 132.557Z" fill="white" stroke="white" stroke-width="0.5"/>
<path d="M895.539 134.646V134.896H895.719C895.593 138.444 892.8 141.231 889.342 141.231H887.316C882.668 141.231 878.724 137.359 878.724 132.367C878.724 130.8 879.897 129.769 881.237 129.769H893.026C894.528 129.769 895.539 130.968 895.539 132.367V134.646ZM893.21 127.75H881.237C878.697 127.75 876.75 129.768 876.75 132.367C876.75 138.194 881.46 143.06 887.131 143.06H889.158C893.724 143.06 897.513 139.143 897.513 134.456V132.377C897.702 129.952 895.558 127.75 893.21 127.75Z" fill="white" stroke="white" stroke-width="0.5"/>
<path d="M898.034 132.357L898.019 132.369L898.005 132.383C897.851 132.541 897.796 132.757 897.796 132.984C897.796 133.211 897.85 133.476 897.946 133.773L897.964 133.828L898.005 133.87C898.263 134.136 898.539 134.136 898.728 134.136C898.731 134.136 898.734 134.136 898.737 134.136C898.831 134.136 898.911 134.11 898.978 134.069C899.034 134.034 899.076 133.991 899.097 133.969C899.098 133.967 899.099 133.966 899.101 133.965C899.109 133.956 899.115 133.95 899.119 133.946H899.191L899.258 133.894C900.642 132.824 902.727 132.824 904.11 133.894L904.128 133.908L904.149 133.918C904.358 134.026 904.596 134.096 904.829 134.062C905.079 134.025 905.284 133.873 905.409 133.615C905.513 133.401 905.579 133.159 905.547 132.926C905.513 132.684 905.377 132.477 905.134 132.345C903.02 130.771 900.144 130.775 898.034 132.357Z" fill="white" stroke="white" stroke-width="0.5"/>
<line x1="926" y1="135" x2="943" y2="135" stroke="white" stroke-width="2"/>
<path d="M494.397 92.3394C494.397 92.3394 499.372 95.64 503.014 95.9773C506.637 96.3128 512 93.9999 512 93.9999" stroke="#763931" stroke-width="2" stroke-linecap="round"/>
<path d="M500 54.8857C500 54.8857 496.188 53.7993 493.706 54.0329C491.238 54.2653 488 56 488 56" stroke="#181B3B" stroke-width="4" stroke-linecap="round"/>
<path d="M524.6 60.7668C524.6 60.7668 521.268 58.2665 518.869 57.0486C516.482 55.8371 513 54.8711 513 54.8711" stroke="#181B3B" stroke-width="4" stroke-linecap="round"/>
</g>
<defs>
<clipPath id="clip0">
<rect width="1080" height="900" fill="white"/>
</clipPath>
</defs>
</svg>
