<svg width="1919" height="166" viewBox="0 0 1919 166" fill="none" xmlns="http://www.w3.org/2000/svg">
<path fill-rule="evenodd" clip-rule="evenodd" d="M1919.94 165.748V125.5H1912.05V119.646H1891.53L1887.32 122.573H1876.8V119.646H1868.9V122.573H1862.59V130.988H1858.38V126.6H1854.17L1847.85 122.209H1841.54V83.788C1838.91 80.861 1836.28 77.934 1833.65 75.373H1790.5V122.573H1772.09V28.539C1759.99 20.855 1733.68 20.855 1721.05 28.539V65.494H1702.64L1667.91 69.885V130.985H1659.49V127.7H1653.7V124.773C1655.28 124.407 1656.33 123.673 1657.91 123.309V120.382C1656.33 120.016 1655.28 119.282 1653.7 118.918V98.79C1654.76 98.424 1656.33 98.058 1657.39 97.69V95.131C1656.33 94.765 1654.76 94.031 1653.7 93.667V91.467H1652.12V87.813H1653.7V84.886C1652.25 84.5629 1650.84 84.0716 1649.49 83.422C1647.92 71.714 1644.76 63.298 1628.97 57.81C1629.5 57.444 1630.55 57.078 1631.07 56.71V54.152C1630.02 53.786 1628.97 53.052 1627.92 52.688V49.395H1625.29V40.98H1626.86V39.516C1625.91 39.1711 1625.03 38.6769 1624.23 38.052C1622.66 36.223 1621.08 34.393 1619.5 32.198V30.735H1617.4V27.808C1620.03 24.881 1618.98 20.49 1615.82 17.563L1614.77 15L1613.72 17.561C1613.03 18.2249 1612.48 19.0207 1612.11 19.9008C1611.74 20.7809 1611.54 21.7273 1611.54 22.6835C1611.54 23.6397 1611.74 24.5861 1612.11 25.4662C1612.48 26.3463 1613.03 27.1421 1613.72 27.806V30.733H1611.62V32.2C1609.52 34.029 1607.94 36.225 1605.83 38.054C1605.31 38.42 1604.25 38.786 1603.73 39.154V40.618H1605.83V49.033H1603.2V52.326C1602.15 52.692 1600.57 53.426 1599.52 53.79V56.351L1601.62 57.815C1586.36 62.937 1581.62 72.451 1581.1 83.427C1580.05 83.793 1578.47 84.527 1577.41 84.891V87.818H1579.51V91.477H1577.41V93.677C1575.84 94.043 1574.78 94.777 1573.2 95.141V98.068C1574.57 98.4886 1575.99 98.7346 1577.41 98.8V119.29C1575.79 119.61 1574.2 120.1 1572.68 120.754V123.681C1574.26 124.047 1575.31 124.413 1576.89 124.781V128.074C1573.73 129.174 1570.05 129.903 1566.89 131.001H1556.36V79.764H1527.95V65.494H1515.85C1513.75 66.594 1511.64 67.323 1509.54 68.421V72.812H1503.22C1500.59 73.912 1497.96 74.641 1495.33 75.739V80.13H1487.44V129.89H1479.02V7.318C1477.97 6.218 1476.39 5.489 1475.34 4.391C1467.97 2.927 1460.08 1.464 1452.71 0C1431.67 2.561 1410.62 4.757 1389.05 7.318L1374.84 11.709V77.2H1323.28L1296.45 82.688V124.033H1285.92V121.106H1275.92V118.179H1241.2V113.788H1185.95V120.74H1159.12V133.546C1142.81 134.646 1125.97 135.375 1109.66 136.473V123.67H1101.77V114.889H1097.56V97.689H1093.88V82.689H1085.99V84.52C1075.99 80.861 1065.47 77.568 1055.47 73.909C1055.02 71.1671 1054.31 68.4725 1053.37 65.859C1052.84 68.42 1052.32 71.347 1051.79 73.909C1041.79 77.202 1031.8 80.495 1021.8 83.422V81.959H1013.9V97.692H1009.69V113.425H1003.9V124.768H984.962V127.7L966.02 126.236V64.762H956.55L946.55 68.055V64.762H943.919L939.184 66.591V100.619H929.713V47.931H922.35V12.074H900.25V6.952H878.15L868.15 12.074H851.32L838.692 17.2V49.4H828.169V20.49H768.187V42.809H765.556V39.15H758.19V42.809H750.824V46.1H736.092V40.98H728.726V37.321H718.726V40.98H713.991V44.273L697.154 47.932V53.054H682.424V51.224H685.055V49.395L677.688 46.1V32.564H672.953V34.028H665.587V32.564H660.852V44.273H653.486L648.751 42.809L641.385 44.273V51.225H638.754V47.931H634.019V66.591H631.388V73.177H626.126V119.277H618.76V122.57H606.66V124.4H601.925V132.815H604.556V141.23L594.556 144.889V151.475H587.19V144.889H579.824V143.06H570.353V121.109L572.984 119.28V114.158H570.353V110.865H572.453V103.913H560.353V98.79H538.253V105.376H528.253V108.669H523.518V107.205H518.256V94.4H520.887V88.911H517.73L515.63 79.764L514.052 88.911H511.421L510.895 85.252L508.795 81.959L504.586 78.666L498.8 75.373L491.96 71.348L489.329 67.689L486.698 61.469L484.067 68.421L480.384 71.714L471.966 75.739L466.178 78.666L463.021 82.325L460.921 85.618L459.869 88.911H458.291L455.66 80.13L453.029 88.911H449.872V94.033H452.503V109.4H440.403V112.693H418.303V141.6H396.2V162.09H393.569V160.261H391.469V156.6H386.734V163.552H381.999V150.014L367.267 136.476H362.532V134.647H355.166V130.988H345.695L340.96 132.817V137.939H336.225V127.7H340.96V126.236L326.228 117.821V114.528H330.963V111.23H326.228V107.937H330.963V104.278H326.228V100.985H330.963V97.692H326.228V94.4H330.963V91.106H326.228V87.813H330.963V84.52H326.228V81.227H330.963V76.837H326.228V73.544H330.963V70.251H326.228V66.958H330.963V63.665H326.228V60.372H330.963V57.079H326.228V53.786H330.963V50.493H326.228V47.2H330.963V43.907H326.228V40.248H330.963V20.49L323.597 12.075H234.677V27.442L239.939 32.564H234.677V35.857H239.939V39.15H234.677V42.809H239.939V46.1H234.677V49.393H239.939V52.686H234.677V55.979H239.939V59.272H234.677V62.565H239.939V65.86H234.677V69.153H239.939V72.446H234.677V76.837H239.939V80.13H234.677V83.423H239.939V86.716H234.677V90.009H239.939V93.3H234.677V96.593H239.939V99.886H234.677V103.179H239.939V106.472H234.677V109.765H239.939V113.058H234.677V116.351L227.311 114.522V102.449L217.84 99.156V90.74H190.994V94.033H178.367V99.155H146.8L146.274 99.521V138.305H131.539V141.6L126.277 140.868V115.255H117.332L111.018 121.475H104.7L90.5 115.255H57.877V130.622L38.935 127.7L33.673 115.26H29.465L22.625 88.55L25.256 87.45V83.788L22.099 84.154L19.999 78.3L17.899 84.154L14.742 85.254V88.913L17.373 90.377L12.628 117.45H7.892L4.735 129.525L0 127.7V165.752H1919.94V165.748Z" fill="#F6F8FA"/>
</svg>
