<svg xmlns="http://www.w3.org/2000/svg" viewBox="0 0 783.86 785.22"><g data-name="Layer 2"><g data-name="Layer 1"><path d="M557.52 191.19c-2.64-.89-5.29-1.67-7.95-2.38l.13-.24-30.45-14.94a57.41 57.41 0 01-32-55.64l1.05-14.7a35.79 35.79 0 00-51.55-42.52 57.39 57.39 0 01-61.72-14.19l-26.55-27.91A47.82 47.82 0 00265.23 63l1.49 4.7a57.41 57.41 0 01-39.62 72.75l-26.19 7.15c-.78.2-1.56.41-2.33.63l-.7.19a85.08 85.08 0 00-57.14 56.78c-13.35 43.69 10.73 90.7 54 105.46a84.85 84.85 0 0046 2.55l50.07-7.57a57.42 57.42 0 0149.63 16.63l75.09 76.81a131 131 0 0014.47 14.8 130.68 130.68 0 0049.14 26.88c66.52 19.57 137.45-16.91 160.31-82.37a130.82 130.82 0 00-81.93-167.2z" fill="#d4e8f6"/><path d="M150.68 775.53a105.77 105.77 0 0036.86-28.1l56.38-61.78a139.56 139.56 0 01195.45-10.58l55.74 49.18a165.15 165.15 0 10103.81-273.63l-96.17 7.05a139.58 139.58 0 01-136.63-80.06c-16.13-34.49-57.9-50.27-92.33-34a69 69 0 00-39.44 58.69v.12a69.32 69.32 0 000 7.35v21.46a139.59 139.59 0 01-106.62 135.91l-23.57 5.72A106.26 106.26 0 009.55 723c24.27 53.36 87.93 77.05 141.13 52.53z" fill="#b6e3fa"/></g></g></svg>
