<svg xmlns="http://www.w3.org/2000/svg" viewBox="0 0 951.41 629.06"><g data-name="Layer 2"><g data-name="Layer 1"><path d="M117.13 40L84.86 74.66a48.83 48.83 0 01-31.46 15.4L25 92.57a26.81 26.81 0 00-14.85 47.79L37.6 161.1A48.83 48.83 0 0156 209.87l-9 43.57A62.05 62.05 0 10167.52 275l.07-.63a48.85 48.85 0 0149.1-43.19l-.4-.77a115.54 115.54 0 00103.71-116C319.47 54.42 272 4.12 212.11.25A115.27 115.27 0 00117.13 40z" fill="#faa31b"/><path d="M622.49 144.32C563.94 146 482.49 74.73 470 45.91S419.1 4.1 388.4 17.42c-26.4 11.46-44.66 43.11-36.61 77.13 19.6 82.83-31.06 149.42-94.55 178.36-128 58.32-157.43 147.8-126.54 221.43 65.83 157 205.69 36 310.14 32.6 85.68-2.8 231.59 136.82 354.45 93.93C941.67 569.78 984.8 433.4 926 297.77c-49.64-114.5-116.2-158.83-303.51-153.45z" fill="#58a5db"/></g></g></svg>
