<svg width="129" height="129" viewBox="0 0 129 129" fill="none" xmlns="http://www.w3.org/2000/svg">
<path d="M0 12.126C0 5.42899 5.429 0 12.126 0H116.874C123.571 0 129 5.429 129 12.126V116.874C129 123.571 123.571 129 116.874 129H12.126C5.42899 129 0 123.571 0 116.874V12.126Z" fill="white"/>
<path d="M15.1497 6.57263C10.4382 6.57263 6.57233 10.4425 6.57233 15.159V113.842C6.57233 118.316 10.0758 121.944 14.4249 122.428L55.6206 6.57263H15.1497Z" fill="#345BA9"/>
<path d="M122.307 15.1586C122.307 10.4422 118.441 6.57227 113.729 6.57227H89.5677L122.428 99.4501V15.1586H122.307Z" fill="#BE202E"/>
<path d="M95.6082 103.441H48.3721L42.2108 122.429H101.649L95.6082 103.441Z" fill="#345BA9"/>
<path d="M72.2922 30.8801L55.7414 81.3099H88.4805L72.2922 30.8801Z" fill="#345BA9"/>
</svg>
