<svg width="1290" height="883" viewBox="0 0 1290 883" fill="none" xmlns="http://www.w3.org/2000/svg">
<path d="M341.714 241.322C340.107 243.643 341.357 244.536 339.571 246.5C341.357 245.072 343.678 244 346 243.286C347.25 242.929 348.678 242.929 347.964 241.322C347.607 240.25 342.607 240.786 341.714 241.322Z" fill="#E9B092"/>
<path d="M349.75 222.572C348.857 221.143 345.821 223.822 345.821 223.465C345.286 221.858 342.964 222.215 340.107 227.215C339.928 227.572 330.464 238.643 327.786 242.393C329.929 244.358 338.143 248.108 338.321 247.929C340.107 245.965 342.071 243.822 343.678 241.679C345.643 239 349.571 232.572 349.75 232.215C350.464 230.786 352.607 227.75 352.786 226.5C352.964 225.786 352.429 223.643 351.893 222.929C351 222.036 349.75 222.572 349.75 222.572Z" fill="#FFD2BB"/>
<path d="M286.893 315.607C283.5 336.322 284.036 395.072 294.75 397.929C299.393 399.179 326.357 396.322 326.178 394C325.107 380.965 311.178 341.322 308.143 321.143C304.214 296.143 288.321 307.572 286.893 315.607Z" fill="#FCD2C6"/>
<path d="M287.429 320.429C292.607 327.75 299.036 325.786 302.429 322.75C303.143 322.036 303.857 321.322 304.215 320.786C311.179 308.643 329.572 259 338.857 247.393C334.572 245.25 331.179 243.107 328.857 240.964C313.679 260.25 281.715 312.393 287.429 320.429Z" fill="#FFD2BB"/>
<path d="M337.25 253.108L322.786 243.465C310.107 260.251 284.572 302.393 282.607 318.286C280.286 334.893 288.679 436.322 302.607 439.893C307.25 441.143 322.786 399.893 326.357 396.679C327.25 395.965 327.607 394.893 327.429 393.822C326.893 387.215 310.286 332.572 308.679 322.929C308.322 321.322 308.143 319.715 307.607 318.286C310.107 312.929 312.964 305.608 316.179 297.751C323.322 280.786 331.893 259.536 337.25 253.108Z" fill="#BB2629"/>
<path d="M958.857 853.643H951.893L883.857 512.75H891L958.857 853.643Z" fill="#A5ADBA"/>
<path d="M868.322 853.643H861.179L793.322 512.75H800.286L868.322 853.643Z" fill="#A5ADBA"/>
<path d="M859.844 820.303H946.452V814.588H859.844V820.303Z" fill="#A5ADBA"/>
<path d="M848.942 765.267H935.549V759.552H848.942V765.267Z" fill="#A5ADBA"/>
<path d="M838.035 710.046H924.643V704.332H838.035V710.046Z" fill="#A5ADBA"/>
<path d="M827.128 654.831H913.735V649.116H827.128V654.831Z" fill="#A5ADBA"/>
<path d="M816.224 599.616H902.831V593.901H816.224V599.616Z" fill="#A5ADBA"/>
<path d="M805.313 544.401H891.92V538.687H805.313V544.401Z" fill="#A5ADBA"/>
<path d="M937.428 487.393H859.929V512.75H937.428V487.393Z" fill="#8993A4"/>
<path d="M859.929 487.393H712.964V512.75H859.929V487.393Z" fill="#B2BAC5"/>
<path d="M668.857 853.643H676L743.857 512.75H736.893L668.857 853.643Z" fill="#C0C6D0"/>
<path d="M759.572 853.643H766.536L834.572 512.75H827.429L759.572 853.643Z" fill="#C0C6D0"/>
<path d="M767.965 814.714H681.357V820.429H767.965V814.714Z" fill="#C0C6D0"/>
<path d="M778.857 759.357H692.25V765.072H778.857V759.357Z" fill="#C0C6D0"/>
<path d="M789.75 704.179H703.143V709.893H789.75V704.179Z" fill="#C0C6D0"/>
<path d="M800.643 649H714.036V654.714H800.643V649Z" fill="#C0C6D0"/>
<path d="M811.536 593.821H724.929V599.536H811.536V593.821Z" fill="#C0C6D0"/>
<path d="M822.429 538.643H735.822V544.357H822.429V538.643Z" fill="#C0C6D0"/>
<path d="M581.185 273.93C580.292 273.216 576.363 276.073 576.006 277.144C575.649 280.002 577.256 280.18 576.72 282.68C577.613 280.537 579.042 278.394 580.649 276.609C581.363 275.716 582.613 275.002 581.185 273.93Z" fill="#B07550"/>
<path d="M577.97 258.751C577.792 258.037 576.185 256.43 575.292 256.073C574.042 255.716 573.327 256.787 573.327 256.787C571.899 256.073 570.649 259.823 570.292 259.644C569.042 258.573 567.256 260.001 567.256 265.716C567.256 266.073 564.577 280.359 564.22 285.001C567.077 285.537 576.006 284.644 576.185 284.466C576.899 281.966 577.256 279.109 577.613 276.251C577.97 273.037 578.149 265.537 578.149 265.001C577.97 263.751 578.327 259.823 577.97 258.751Z" fill="#B07550"/>
<path d="M576.363 283.752C571.542 284.109 567.435 283.93 564.578 283.216C561.363 307.502 560.113 368.752 569.042 372.68C577.256 376.252 581.72 371.43 583.149 367.144C583.506 366.252 583.685 365.359 583.685 364.466C583.328 350.537 574.042 298.394 576.363 283.752Z" fill="#FCD2C6"/>
<path d="M586.899 362.859C571.185 343.394 563.149 361.251 566.006 368.751C573.506 388.394 603.685 438.751 614.22 435.894C618.863 434.644 640.649 418.573 639.22 416.609C631.899 405.894 599.756 378.751 586.899 362.859Z" fill="#FCD2C6"/>
<path d="M617.256 389.644C606.542 379.465 595.47 368.93 589.22 361.073C588.149 359.644 587.077 358.573 586.006 357.323C585.47 351.251 584.399 343.216 583.327 334.644C581.006 315.894 577.97 292.68 579.22 284.108L561.542 282.858C558.685 304.108 557.256 354.823 563.327 370.001C569.577 386.073 597.435 435.537 612.256 436.43C637.077 437.858 647.077 418.751 646.363 418.037C636.899 405.358 627.97 399.823 617.256 389.644Z" fill="#BB2629"/>
<path d="M651.568 821.692L641.571 818.713C641.571 818.713 640.739 821.077 639.65 823.135C637.402 827.415 615.51 815.961 611.882 824.314C609.89 828.9 623.414 834.968 627.509 836.747C646.017 844.785 652.16 840.054 652.871 838.416C655.361 832.684 653.415 827.75 652.652 825.472C651.775 822.56 651.568 821.692 651.568 821.692Z" fill="#284C98"/>
<path d="M639.485 818.585C639.485 818.585 640.084 820.792 638.427 824.161C638.427 824.161 641.461 827.036 645.278 828.11C647.315 828.799 652.582 825.636 652.582 825.636C652.503 822.681 651.632 818.409 651.632 818.409L639.485 818.585Z" fill="#B07550"/>
<path d="M617.675 697.559C628.818 764.697 638.745 821.184 638.745 821.184C641.948 818.292 647.908 817.571 652.323 820.851C652.323 820.851 653.125 761.626 653.975 701.838C654.543 661.979 613.235 670.128 617.675 697.559Z" fill="#284C98"/>
<path d="M598.808 824.253L588.81 821.274C588.81 821.274 587.978 823.639 586.89 825.697C584.641 829.977 558.238 825.324 554.61 833.678C552.619 838.264 575.854 843.487 580.212 844.212C594.88 846.299 599.328 842.78 600.111 840.978C602.601 835.245 600.655 830.312 599.892 828.034C599.179 825.193 598.808 824.253 598.808 824.253Z" fill="#284C98"/>
<path d="M586.725 821.148C586.725 821.148 587.324 823.355 585.666 826.723C585.666 826.723 588.7 829.598 592.517 830.672C594.554 831.362 599.821 828.198 599.821 828.198C599.742 825.243 598.871 820.972 598.871 820.972L586.725 821.148Z" fill="#B07550"/>
<path d="M565.079 700.193C576.221 767.331 586.149 823.818 586.149 823.818C589.352 820.925 595.311 820.204 599.727 823.484C599.727 823.484 600.528 764.259 601.379 704.471C601.946 664.612 560.639 672.761 565.079 700.193Z" fill="#284C98"/>
<path d="M599.969 515.141C589.935 532.439 567.05 642.913 564 692.5C562.719 713.605 588.739 721.497 599.969 705C629.071 662.165 666.789 591.271 666.113 549.798C665.072 483.666 605.387 505.894 599.969 515.141Z" fill="#284C98"/>
<path d="M663.361 558.69C653.448 569.688 629.267 656.478 619 691C614.642 705.695 626.885 710.011 637.513 699.715C665.065 672.976 698.072 620.018 704.381 590.769C714.468 544.134 668.699 552.817 663.361 558.69Z" fill="#284C98"/>
<path d="M684.042 538.752C663.506 547.323 643.328 556.073 621.899 562.502C608.685 566.43 595.828 568.573 583.149 568.752C588.328 587.68 585.113 591.787 577.613 599.287C589.578 618.394 603.685 620.716 615.47 621.073C646.542 621.966 712.613 581.43 714.578 580.716C710.292 565.716 704.399 549.109 697.613 532.68C693.506 534.823 688.863 536.787 684.042 538.752Z" fill="white"/>
<path d="M575.649 398.216C576.006 399.466 582.613 411.43 581.72 419.109C584.756 425.18 602.613 420.18 604.399 408.037C601.542 405.537 595.113 389.466 594.399 383.216C593.149 384.823 580.292 397.68 575.649 398.216Z" fill="#B07550"/>
<path d="M590.292 379.466C588.506 370.716 581.185 364.644 572.256 366.43C564.042 368.216 556.72 372.144 557.077 380.359C557.256 383.216 565.292 407.68 579.399 407.68C585.47 407.68 593.506 395.18 592.077 388.573C592.256 388.573 590.292 379.644 590.292 379.466Z" fill="#B07550"/>
<path d="M623.685 407.502C618.863 407.68 604.399 408.037 604.399 408.037C604.399 408.037 602.792 412.323 594.935 416.252C587.971 419.823 581.542 418.93 581.542 418.93C581.542 418.93 567.256 427.859 564.756 430.359C555.471 439.645 556.542 444.109 559.756 458.752C561.185 465.537 589.399 569.645 578.863 598.216C579.756 598.93 589.756 611.43 604.935 611.073L600.471 580.716L612.078 610.537C647.078 608.037 669.042 588.395 694.578 577.145L686.542 537.859L704.399 572.859C706.899 571.787 709.221 570.895 711.185 570.18C694.756 511.43 653.685 427.502 652.078 425.18C645.828 414.823 638.328 406.787 623.685 407.502Z" fill="#BB2629"/>
<path d="M599.042 386.252C602.971 373.93 600.114 357.68 586.542 351.966C571.185 345.537 552.435 361.073 550.471 375.537C549.042 386.43 543.149 380.716 542.971 378.037C543.506 384.823 547.792 389.644 559.935 385.18C562.435 384.287 554.756 389.109 554.756 389.109C554.756 389.109 575.649 413.037 594.221 400.537C599.756 396.787 603.328 389.466 603.328 389.466C603.328 389.466 597.078 392.68 599.042 386.252Z" fill="#0F3179"/>
<path d="M775.464 472.75L766.357 467.572C766.357 467.572 764.393 470.608 762.786 472.393C759.75 476.143 744.75 478.643 744.75 484C744.75 486.679 750.286 489 754.75 489.179C759.214 489.358 762.964 488.465 765.643 487.75C768.321 486.858 774.393 484.358 775.286 482.75C776.893 479.893 775.643 476.679 775.643 476.679C776.179 473.643 775.464 472.75 775.464 472.75Z" fill="#284C98"/>
<path d="M763.5 467.214C763.5 467.214 764.929 469.357 762.607 472.393C762.607 472.393 764.393 475.607 767.965 477.572C769.929 478.643 775.643 476.679 775.643 476.679C776.179 473.821 775.822 469.536 775.822 469.536L763.5 467.214Z" fill="#F8A479"/>
<path d="M740.286 176.143C739.393 182.393 716.714 266.322 723.322 345.25C728.857 413.107 763.679 469.357 763.679 469.357C763.857 469.893 772.786 474.715 777.25 469.715C777.25 457.929 761.179 346.857 761.536 345.607C772.429 307.75 797.607 242.393 801.893 239V181.143C779.75 182.572 747.607 179.357 740.286 176.143Z" fill="#284C98"/>
<path d="M589.572 226.5C588.322 226.322 586.893 225.786 586.893 227.393C586.714 228.464 591.536 230.072 592.607 229.714C595.107 228.286 594.214 226.857 596.714 225.964C594.572 226.5 591.893 226.679 589.572 226.5Z" fill="#F8A479"/>
<path d="M598.679 225.25C596.179 226.143 593.679 227.393 591.179 228.822C588.322 230.429 582.25 234.715 581.714 235.072C580.464 235.965 577.25 237.929 576.536 239C576.179 239.715 575.643 241.858 576 242.75C576.357 244 577.786 244.001 577.786 244.001C577.964 245.608 581.893 244.358 581.893 244.715C581.714 246.322 583.857 247.036 588.679 243.643C589.036 243.465 602.072 237.215 606.179 234.715C604.75 232.036 598.679 225.25 598.679 225.25Z" fill="#F8A479"/>
<path d="M661.536 171.322C660.643 171.679 659.75 172.036 659.214 172.572C647.786 180.965 611.179 219 597.786 225.786C600.821 229.536 603.143 232.929 604.393 235.608C626 224 676.357 189.179 674.214 179.536C672.429 170.608 665.821 169.893 661.536 171.322Z" fill="#FCD2C6"/>
<path d="M668.5 96.5003C664.214 108.822 661 150.786 655.643 170.429C649.036 194.715 668.322 190.607 672.786 183.822C684.214 166.143 707.429 112.215 698.857 105.429C695.107 102.572 669.393 94.3574 668.5 96.5003Z" fill="#FCD2C6"/>
<path d="M667.964 93.4646C666.893 93.8217 666 94.536 665.643 95.6074C663.322 102.036 661.536 115.786 659.393 130.25C657.429 144.893 651.893 173.107 651.536 174.536C646.893 178.465 603.857 219 596.179 222.929L605.464 238.107C624.393 227.929 666.179 199.536 674.929 185.607C684.214 171.143 711.893 112.75 700.286 103.465C696.893 100.25 672.786 92.036 667.964 93.4646Z" fill="#8E0F1B"/>
<path d="M844.928 473.286L835.286 469C835.286 469 833.5 472.036 832.071 474.179C829.214 478.108 814.75 481.858 815.107 487.036C815.286 489.715 821 491.5 825.464 491.322C829.929 491.143 833.857 490.608 836.178 489C839.036 487.036 844.571 484.893 845.464 483.286C846.893 480.429 845.286 477.215 845.286 477.215C845.821 474.358 844.928 473.286 844.928 473.286Z" fill="#284C98"/>
<path d="M833.5 468.643C833.5 468.643 834.393 471.143 832.25 474.179C832.25 474.179 834.393 477.215 837.964 478.822C839.929 479.715 845.643 477.215 845.643 477.215C845.821 474.357 845.821 469.893 845.821 469.893L833.5 468.643Z" fill="#F8A479"/>
<path d="M834.214 168.107C812.25 171.322 787.607 183.107 780.107 180.429C779.75 186.857 772.964 270.786 782.607 349.536C787.607 390.786 832.964 448.107 832.964 470.786C833.143 471.322 842.429 475.429 846.536 470.072C846.536 414.179 820.643 346.143 820.643 346.143C825.286 297.036 861.714 220.429 834.214 168.107Z" fill="#284C98"/>
<path d="M686.536 35.0718C685.643 36.8575 675.821 52.2146 671.536 53.8218C672.25 54.8932 681.178 65.2503 682.071 72.9289C686.357 78.2861 702.607 69.5361 701.714 57.0361C698.321 55.2504 688.678 40.9646 686.536 35.0718Z" fill="#F8A479"/>
<path d="M681.715 32.2142C677.965 23.9999 669.572 19.7142 661.357 23.4642C653.679 26.8571 647.429 32.5714 649.572 40.4285C650.286 43.2857 663.5 65.2499 677.429 62.2142C683.322 60.9642 688.322 47.0357 685.643 40.7857C685.464 40.7857 681.715 32.3928 681.715 32.2142Z" fill="#F8A479"/>
<path fill-rule="evenodd" clip-rule="evenodd" d="M664.929 52.5716C664.929 53.2859 666 52.9287 666.536 52.7501C666.714 52.5716 667.25 52.393 667.429 52.393C667.964 52.2144 668.322 52.0359 668.679 51.6787C668.857 51.5001 669.214 51.143 669.393 50.9644C669.929 50.6073 670.643 49.893 670.107 49.5359C669.929 49.3573 668.143 49.5359 666.893 50.4287C665.822 50.9644 665.107 52.0359 664.929 52.5716Z" fill="#E68969"/>
<path d="M720.643 52.5715C715.821 53.1072 701.714 57.0357 701.714 57.0357C701.714 57.0357 697.071 69.3572 691.535 72.9286C687.785 75.4286 682.071 72.9286 682.071 72.9286C682.071 72.9286 670.107 85.0715 668.321 87.9286C661.357 99.1786 671.893 110.607 677.964 121.679C681.535 128.107 712.785 167.929 732.25 229.893C748.857 255.25 802.428 243.464 831.535 209.536L817.071 171.143L840.107 203.286C842.25 201.679 847.25 199.357 849.035 198.107C805.464 84.7143 763.857 47.75 720.643 52.5715Z" fill="#BB2629"/>
<path d="M701.714 57.0361C701.714 57.0361 697.072 69.3575 691.536 72.9289C687.786 75.4289 682.071 72.9289 682.071 72.9289C682.071 72.9289 670.821 84.1789 668.5 87.5718C675.643 98.8218 695.464 104 695.464 104C695.464 104 708.679 69.1789 720.643 52.5718C720.643 52.5718 716 52.7503 711.179 54.1789C708.857 54.8932 701.714 57.0361 701.714 57.0361Z" fill="#8E0F1B"/>
<path d="M672.25 2.75022C650.821 -3.85692 629.75 21.3217 636.536 37.7502C638.143 41.3217 645.464 48.4645 675.643 25.7859C682.429 29.7145 689.929 41.8574 689.929 41.8574C696 28.4645 688.679 7.9288 672.25 2.75022Z" fill="#284C98"/>
<path d="M681.357 28.4645C680.464 28.6431 679.036 29.5359 677.964 30.6074C679.571 33.2859 682.786 37.5716 684.214 39.7145C686.179 38.4645 687.786 34.5359 687.072 32.3931C686.714 30.0716 683.679 27.7502 681.357 28.4645Z" fill="#F8A479"/>
<path d="M665.464 221.5C665.643 222.572 670.464 223.107 671.536 222.572C673.679 220.786 672.607 219.536 674.75 218.107C672.607 219.179 670.286 219.715 667.964 220.072C666.536 220.072 665.107 219.715 665.464 221.5Z" fill="#F8A479"/>
<path d="M676.357 216.857C674.214 218.286 671.893 220.072 669.928 221.857C667.428 224 662.428 229.536 662.071 229.893C661.178 231.143 658.321 233.643 657.964 234.715C657.607 235.429 657.607 237.572 658.143 238.465C658.857 239.536 660.107 239.179 660.107 239.179C660.643 240.786 664.214 238.643 664.214 239C664.393 240.607 666.714 240.786 670.464 236.5C670.643 236.322 682.25 227.393 685.643 224.179C683.678 222.215 676.357 216.857 676.357 216.857Z" fill="#F8A479"/>
<path d="M750.465 76.1429C746 73.8214 720.822 70.9643 716.536 73.4643C715.643 74 714.929 74.8929 714.75 75.9643C713.857 82.75 714.929 96.5 716 111.143C717.072 125.786 718.322 141.143 717.786 151.143C717.607 152.929 717.607 154.536 717.786 156.143C714.215 160.964 709.572 167.75 704.572 174.893C693.857 190.429 680.465 209.714 673.857 215.071L686.179 227.929C702.607 214 737.429 177.393 743.143 161.857C749.036 145.786 763.679 82.9286 750.465 76.1429Z" fill="#8E0F1B"/>
<path d="M345.308 0.146484H576.381C578.95 0.146484 594.325 15.6241 594.325 18.1944V263.422C594.325 266.065 592.196 268.195 589.553 268.195H345.308C344.28 268.195 343.473 267.387 343.473 266.359V1.909C343.473 0.954302 344.28 0.146484 345.308 0.146484Z" fill="white"/>
<path d="M345.821 0.000488281C334.883 0.000488281 326 8.95992 326 19.8287V248.515C326 258.869 334.002 267.388 344.06 268.269L439.79 0.000488281H345.821Z" fill="url(#paint0_linear)"/>
<path d="M594.325 19.8283C594.325 8.886 585.368 0 574.503 0H518.269L594.325 215.026V19.8283Z" fill="url(#paint1_linear)"/>
<path d="M532.291 224.353H422.979L408.443 268.415H546.46L532.291 224.353Z" fill="url(#paint2_radial)"/>
<path d="M478.406 56.3271L439.864 173.167H515.92L478.406 56.3271Z" fill="url(#paint3_linear)"/>
<path d="M434.571 825.786C432.964 823.286 431.893 822.929 431.893 822.929L421.536 825.072C421.536 825.072 421.893 828.643 422.071 831.143C422.071 835.965 412.607 847.572 416 851.679C417.786 853.643 423.5 851.858 427.071 849.001C430.643 846.143 433.5 843.465 434.393 840.786C435.464 837.393 438.857 832.572 438.5 830.608C437.786 827.394 434.571 825.786 434.571 825.786Z" fill="#284C98"/>
<path d="M421 824.893C421 824.893 421.893 827.393 422.071 831.143C422.071 831.143 425.643 832.393 429.393 831.501C431.536 830.965 434.571 825.786 434.571 825.786C432.964 823.286 431.893 821.679 431.893 821.679L421 824.893Z" fill="#F8A479"/>
<path d="M399.036 704.179C406.357 651.322 418.321 584.893 415.286 545.786C393.143 546.322 364.571 542.393 357.25 539C356.179 545.072 356.714 625.072 359.036 702.572C360.107 739.536 421.536 827.572 421.536 827.572C421.714 828.108 429.214 829.715 434.036 824.893C434.036 824.893 395.821 727.572 399.036 704.179Z" fill="#284C98"/>
<path d="M318.5 659.001C318.857 662.394 328.321 834.358 328.321 834.358C332.607 837.751 339.214 837.036 339.393 836.858C339.393 836.858 354.929 661.501 354.214 653.644C349.929 657.036 321.357 661.858 318.5 659.001Z" fill="#FCD2C6"/>
<path d="M338.857 834.358L329.75 829.179C329.75 829.179 327.785 832.215 326.178 834.001C323.143 837.751 308.143 840.251 308.143 845.608C308.143 848.286 313.678 850.608 318.143 850.786C322.607 850.965 326.357 850.072 329.035 849.358C331.714 848.465 337.785 845.965 338.678 844.358C340.285 841.501 339.035 838.286 339.035 838.286C339.571 835.251 338.857 834.358 338.857 834.358Z" fill="#284C98"/>
<path d="M326.178 834.001C326.178 834.001 327.964 837.215 331.535 839.179C333.5 840.251 339.214 838.286 339.214 838.286C339.75 835.429 339.928 833.465 339.928 833.465L329.571 828.822C329.393 828.643 328.5 831.143 326.178 834.001Z" fill="#F8A479"/>
<path d="M303.679 528.822C302.072 540.607 327.072 830.965 327.072 830.965C327.25 831.5 336.179 836.322 340.643 831.322C340.643 831.322 345.286 764.357 354.393 701.322C362.25 646.857 361 595.072 365.286 591.679V533.822C343.143 535.429 311 532.036 303.679 528.822Z" fill="#284C98"/>
<path d="M302.964 535.072C302.964 535.072 303.143 550.608 303.857 554.893C305.821 567.215 319.036 573.822 329.214 572.929L332.786 561.143L337.786 573.286C384.572 576.143 416 562.393 416 562.393C421.357 545.429 414.393 518.465 414.393 518.465L302.964 535.072Z" fill="#8E0F1B"/>
<path d="M347.607 363.643C346.178 364.893 330.821 374.893 326.357 374.536C326.536 375.786 330.464 388.822 328.143 396.322C329.928 402.929 348.321 401.5 352.607 389.893C350.107 386.679 347.071 369.714 347.607 363.643Z" fill="#FFD2BB"/>
<path d="M371.536 393.464C366.714 392.75 352.428 389.893 352.428 389.893C352.428 389.893 343.143 399.179 336.536 400.25C332.071 400.964 327.964 396.322 327.964 396.322C327.964 396.322 312.071 402.393 309.214 404.357C298.321 411.857 296.714 423.286 298.857 432.393C306.536 464 294.928 539 304.75 542.75C318.143 547.929 394.928 548.822 417.786 527.036C417.786 527.036 408.321 450.429 397.429 419.893C393.5 408.107 386 395.786 371.536 393.464Z" fill="#BB2629"/>
<path d="M328.016 394.077C332.203 383.913 327.834 380.966 326.196 376.697C324.558 372.326 326.014 366.838 328.016 363.382C327.834 363.28 316.185 356.471 312.18 360.028C309.814 364.297 309.086 369.48 311.452 374.766C315.093 382.49 318.514 388.06 316.33 390.601C312.508 394.87 311.634 402.086 312.18 404.831C314.911 420.788 332.203 428.411 337.118 426.785C342.397 424.955 322.01 408.612 328.016 394.077Z" fill="#284C98"/>
<path d="M327.786 341.322C319.393 341.322 312.786 345.25 311.536 353.286C311 356.143 314.214 381.679 328.143 384.536C334.036 385.786 344.393 375.072 344.393 368.286V359C344.214 350.072 336.893 341.322 327.786 341.322Z" fill="#FFD2BB"/>
<path d="M368.679 374C373.143 358.286 367.25 343.822 358.321 334.357C349.393 324.893 337.607 325.072 331.179 328.107C323.143 331.857 323.143 333.286 323.143 333.286C323.143 333.286 319.036 332.572 314.571 335.072C305.107 340.786 306.536 362.75 314.571 369.179C308.5 345.786 323.321 341.5 323.321 341.5C323.321 341.5 333.679 342.215 339.036 347.929C343.857 353.286 349.036 367.572 346.714 379C344.929 387.572 338.5 394 346.179 413.822C357.25 442.393 349.929 446.964 358.321 450C366 452.857 378.857 463.465 381.179 431.5C381.536 425.965 380.821 414.536 374.393 406.143C370.464 401.143 364.214 389.715 368.679 374Z" fill="#284C98"/>
<path d="M343.678 355.608C342.786 355.786 341.178 356.143 340.107 357.215C341.178 360.25 343.5 364.893 344.75 367.215C346.893 366.322 349.036 362.75 348.857 360.608C348.678 358.108 346 355.25 343.678 355.608Z" fill="#FFD2BB"/>
<path d="M395.107 262.572C393.678 264.893 395.107 265.786 393.321 267.929C395.107 266.322 397.25 265.072 399.393 264.179C400.643 263.643 402.071 263.643 401.178 262.036C400.821 260.786 396 261.858 395.107 262.572Z" fill="#E9B092"/>
<path d="M401.178 243.108C400.285 241.858 397.428 244.715 397.25 244.358C396.535 242.929 394.392 243.286 391.892 248.643C391.714 249 383.321 260.786 381 264.893C383.321 266.5 391.892 269.536 392.071 269.358C393.678 267.393 395.285 265.072 396.892 262.572C398.678 259.715 401.892 253.108 402.071 252.572C402.607 251.143 404.571 247.929 404.571 246.679C404.571 245.965 404.035 243.822 403.321 243.108C402.428 242.393 401.178 243.108 401.178 243.108Z" fill="#FFD2BB"/>
<path d="M347.607 341.5C346.178 362.572 352.25 420.786 363.143 422.75C367.785 423.643 394.393 418.107 394.035 415.786C391.893 402.929 374.035 364.893 369.214 344.893C362.964 320.607 348.143 333.643 347.607 341.5Z" fill="#FCD2C6"/>
<path d="M348.499 346.322C354.392 353.108 360.642 350.429 363.678 347.215C364.392 346.5 364.928 345.786 365.285 345.072C371.178 332.215 384.571 281.143 392.964 268.643C388.499 266.858 384.928 265.072 382.428 263.286C369.035 284 342.071 339 348.499 346.322Z" fill="#FFD2BB"/>
<path d="M370.107 346.857C369.75 345.25 369.214 343.643 368.678 342.215C370.642 336.679 372.964 329 375.285 320.965C380.642 303.465 387.25 281.5 391.714 274.536L376.535 266.322C365.464 284.179 344.035 328.465 343.5 344.536C342.607 361.143 360.643 461.5 374.928 463.822C379.75 464.536 391.178 422.215 394.571 418.643C395.285 417.75 395.642 416.858 395.464 415.786C394.035 409.358 372.607 356.322 370.107 346.857Z" fill="#BB2629"/>
<path d="M532.754 275.604C531.325 277.926 532.575 278.819 530.968 280.783C532.754 279.176 534.897 278.104 537.04 277.033C538.29 276.676 539.718 276.497 539.004 274.89C538.468 273.997 533.647 274.89 532.754 275.604Z" fill="#A16049"/>
<path d="M539.361 256.319C538.469 255.069 535.611 257.926 535.433 257.569C534.719 255.961 532.576 256.497 530.076 261.676C529.897 262.033 521.326 273.64 518.826 277.747C521.147 279.533 529.719 282.569 529.719 282.569C531.504 280.604 533.111 278.283 534.54 275.961C536.326 273.104 539.719 266.497 539.897 266.14C540.433 264.711 542.397 261.497 542.576 260.247C542.576 259.533 542.04 257.39 541.326 256.676C540.611 255.604 539.361 256.319 539.361 256.319Z" fill="#B07550"/>
<path d="M497 364C504.321 369.179 502.04 359.354 504.361 355.604C504.897 354.711 505.254 353.819 505.433 353.104C508.111 339.354 525.79 293.997 530.968 280.069C526.147 279.354 522.218 278.461 519.361 277.211C507.5 298 488.964 358.464 497 364Z" fill="#A16049"/>
<path d="M518.892 375.497C519.606 369.426 527.464 302.536 530.5 294.5H508C498.536 313.25 491.213 367.104 494.249 383.176C497.106 400.14 531.213 472.821 564.428 485.5C587.642 494.429 565.32 431.926 564.428 432.283C549.428 437.819 519.785 376.926 518.892 375.497Z" fill="#8E0F1B"/>
<path d="M1000.84 424.135C995.946 432.092 988.439 460.825 981.582 474C973.135 490.045 985.172 490.923 989.09 486.88C999.619 476.444 1023.98 442.267 1019.45 435.875C1017.49 433.136 1001.7 422.7 1000.84 424.135Z" fill="#B07550"/>
<path d="M999.931 424.393C996.373 432.072 990.02 454.214 983.158 471.714C986.843 475.822 992.434 481 996.628 484.214C998.28 485.464 1003.36 489.75 1005.14 490.822C1015.56 472.072 1022.42 446.357 1019.25 440.464C1017.21 436.714 1000.82 422.429 999.931 424.393Z" fill="#8E0F1B"/>
<path d="M915.961 480.342C915.072 480.523 912.81 480.601 912.226 481.102C911.794 481.318 910.78 482.928 910.604 483.857C910.275 485.072 910.988 485.82 910.988 485.82C910.507 487.322 912.77 488.137 912.542 488.566C911.857 489.854 912.673 491.601 915.976 491.056C916.154 491.02 924.466 492.389 927.186 492.346C927.537 489.595 927.169 480.739 927.067 480.632C925.567 480.172 923.915 479.998 922.365 479.931C920.611 479.65 916.317 480.27 915.961 480.342Z" fill="#B07550"/>
<path d="M983.167 470.867C973.129 471.252 936.32 482.32 925.771 480.386C926.082 485.171 926.139 489.242 925.635 492.279C942.869 494.766 986.479 494.179 989.185 485.207C991.588 476.807 987.973 472.568 985.023 471.254C984.362 471.006 983.701 470.758 983.167 470.867Z" fill="#B07550"/>
<path d="M1046.79 674.215C1047.14 677.607 1056.61 849.572 1056.61 849.572C1060.89 852.965 1067.5 852.25 1067.68 852.072C1067.68 852.072 1083.21 676.715 1082.5 668.857C1078.21 672.072 1049.64 677.072 1046.79 674.215Z" fill="#FCD2C6"/>
<path d="M1067.14 849.393L1058.04 844.214C1058.04 844.214 1056.07 847.25 1054.46 849.036C1051.43 852.786 1036.43 855.286 1036.43 860.643C1036.43 863.322 1041.96 865.643 1046.43 865.822C1050.89 866 1054.82 865.822 1057.32 864.393C1060.36 862.607 1066.07 861 1066.96 859.393C1068.57 856.536 1067.32 853.322 1067.32 853.322C1067.86 850.464 1067.14 849.393 1067.14 849.393Z" fill="#284C98"/>
<path d="M1054.46 849.214C1054.46 849.214 1056.25 852.429 1059.82 854.393C1061.79 855.464 1067.5 853.5 1067.5 853.5C1068.04 850.643 1068.21 848.679 1068.21 848.679L1057.86 844.036C1057.68 843.857 1056.79 846.357 1054.46 849.214Z" fill="#B07550"/>
<path d="M1031.96 544.036C1030.36 555.821 1055.36 846.178 1055.36 846.178C1055.54 846.714 1064.46 851.536 1068.93 846.536C1068.93 846.536 1073.57 779.571 1082.68 716.536C1090.54 662.071 1093.57 549.214 1093.57 549.214C1071.43 550.464 1039.29 547.25 1031.96 544.036Z" fill="#284C98"/>
<path d="M998.929 674.215C999.286 677.607 1008.75 849.572 1008.75 849.572C1013.04 852.965 1019.64 852.25 1019.82 852.072C1019.82 852.072 1035.36 676.715 1034.64 668.857C1030.18 672.072 1001.61 677.072 998.929 674.215Z" fill="#FCD2C6"/>
<path d="M1019.11 849.393L1010 844.214C1010 844.214 1008.04 847.25 1006.43 849.036C1003.39 852.786 988.393 855.286 988.393 860.643C988.393 863.322 993.929 865.643 998.393 865.822C1002.86 866 1006.61 865.286 1009.29 864.393C1011.96 863.5 1018.04 861 1018.93 859.393C1020.54 856.536 1019.29 853.322 1019.29 853.322C1019.82 850.464 1019.11 849.393 1019.11 849.393Z" fill="#284C98"/>
<path d="M1006.43 849.214C1006.43 849.214 1008.21 852.429 1011.79 854.393C1013.75 855.464 1019.46 853.5 1019.46 853.5C1020 850.643 1020.18 848.679 1020.18 848.679L1009.82 844.036C1009.64 843.857 1008.75 846.357 1006.43 849.214Z" fill="#B07550"/>
<path d="M983.929 544.036C982.322 555.821 1007.32 846.178 1007.32 846.178C1007.5 846.714 1016.43 851.536 1020.89 846.536C1020.89 846.536 1025.54 779.571 1034.64 716.536C1042.5 662.071 1041.25 610.286 1045.54 606.893V549.036C1023.39 550.464 991.429 547.25 983.929 544.036Z" fill="#284C98"/>
<path d="M982.322 539.215C982.322 539.215 975.358 572.965 978.751 576C986.429 582.607 1015.18 576.536 1036.96 573.857C1058.75 571.179 1099.11 575.643 1100.18 571.179C1103.04 559.215 1097.68 532.607 1097.68 532.607L982.322 539.215Z" fill="url(#paint4_linear)"/>
<path d="M1039.11 381.714C1037.5 382.786 1021.61 391.714 1016.96 391C1016.96 392.25 1020 405.643 1017.14 412.786C1018.39 419.393 1036.96 419.572 1041.96 408.143C1040 404.929 1038.21 387.786 1039.11 381.714Z" fill="#B07550"/>
<path d="M1022.32 359.572C1013.93 359.036 1005.89 361 1003.93 368.857C1003.21 371.714 1004.46 397.25 1018.21 401.179C1023.93 402.786 1035.18 392.964 1035.54 386.179C1035.54 386.179 1036.25 377.072 1036.25 376.893C1036.79 367.964 1031.43 360.107 1022.32 359.572Z" fill="#B07550"/>
<path d="M1086.07 438.143C1080.89 424.036 1075 416.536 1060.89 413.143C1056.25 412.072 1042.14 408.143 1042.14 408.143C1042.14 408.143 1032.14 416.714 1025.54 417.25C1021.07 417.607 1017.14 412.786 1017.14 412.786C1017.14 412.786 1000.89 417.786 997.858 419.393C986.429 426 986.25 437.25 985.536 446.536C978.929 539.393 974.643 552.965 977.5 558.143C984.643 570.643 1102.86 562.429 1100.71 546.893C1093.57 495.107 1087.68 442.607 1086.07 438.143Z" fill="#BB2629"/>
<path d="M992.511 448.011H1010.6C1010.8 448.011 1012 449.223 1012 449.424V468.619C1012 468.826 1011.84 468.993 1011.63 468.993H992.511C992.431 468.993 992.368 468.93 992.368 468.849V448.149C992.368 448.074 992.431 448.011 992.511 448.011Z" fill="white"/>
<path d="M992.552 448C991.695 448 991 448.702 991 449.553V467.453C991 468.264 991.626 468.931 992.414 469L999.907 448H992.552Z" fill="url(#paint5_linear)"/>
<path d="M1012 449.552C1012 448.696 1011.3 448 1010.45 448H1006.05L1012 464.831V449.552Z" fill="url(#paint6_linear)"/>
<path d="M1007.15 465.562H998.591L997.454 469.011H1008.26L1007.15 465.562Z" fill="url(#paint7_radial)"/>
<path d="M1002.93 452.409L999.913 461.555H1005.87L1002.93 452.409Z" fill="url(#paint8_linear)"/>
<path d="M1041.25 355.286C1028.93 344.215 1010 356 1010 356C995.536 358.679 998.75 379.929 1005.36 382.965C1002.14 367.429 1012.86 362.429 1012.86 362.429C1032.5 362.072 1039.29 385.465 1037.86 391.536C1037.86 391.536 1059.64 372.072 1041.25 355.286Z" fill="#284C98"/>
<path d="M1035.89 373.321C1035 373.321 1033.39 373.678 1032.14 374.571C1033.04 377.607 1035 382.428 1036.07 384.928C1038.22 384.214 1040.72 380.821 1040.72 378.678C1040.54 376.357 1038.22 373.321 1035.89 373.321Z" fill="#B07550"/>
<path d="M933.215 368.322C932.144 368.322 930.894 372.965 931.251 374.036C932.858 376.358 934.108 375.465 935.179 377.965C934.465 375.643 934.286 373.322 934.286 370.822C934.465 369.572 934.822 368.143 933.215 368.322Z" fill="#B07550"/>
<path d="M925.179 363.5C924.108 362.429 921.965 359.215 920.893 358.679C920.179 358.322 918.036 357.965 917.143 358.322C916.072 358.857 916.072 360.107 916.072 360.107C914.465 360.465 915.893 364.215 915.536 364.215C913.929 364.215 913.215 366.357 917.143 370.822C917.322 371 924.465 383.857 927.143 387.786C929.643 386.357 936.072 379.929 936.072 379.75C935 377.429 933.572 374.929 931.965 372.607C930.179 369.75 925.536 364.036 925.179 363.5Z" fill="#B07550"/>
<path d="M1065.89 423.143C1052.86 422.429 1011.79 431.179 991.25 431.536C966.072 432.072 975.357 449.393 983.036 451.714C1003.21 457.786 1061.43 464.929 1065.71 454.75C1067.5 450.464 1068.21 423.322 1065.89 423.143Z" fill="#B07550"/>
<path d="M1065.89 423.143C1057.5 419.572 1033.04 426 1013.04 426.715C1009.82 435.465 1008.93 451.179 1012.14 462.965C1035.71 466.179 1056.96 464.215 1063.57 461.179C1080.71 453.322 1076.79 427.786 1065.89 423.143Z" fill="#8E0F1B"/>
<path d="M992.5 436.893C983.572 426 943.214 391.715 935.714 378.857C932.143 382.072 928.929 384.572 926.25 386C939.107 406.715 976.964 454.929 986.429 452.25C995 449.929 995.357 443.143 993.929 439.036C993.393 438.322 992.857 437.607 992.5 436.893Z" fill="#B07550"/>
<path d="M1087.86 369.214C1083.75 312.25 1037.5 336.357 1038.57 351.179C1038.75 354.929 1040.89 357.071 1043.93 353.143C1048.93 346.536 1067.14 340.821 1056.61 375.464C1053.75 384.571 1041.96 396.357 1067.86 412.964C1091.25 427.964 1071.96 433.679 1073.21 440.464C1076.61 458.143 1122.5 419.75 1098.21 393.143C1093.21 387.786 1089.11 386.357 1087.86 369.214Z" fill="#284C98"/>
<path d="M1041.43 350.107C1040.18 349.393 1039.11 349.214 1038.04 349.214C1035.54 349.393 1033.75 351.357 1033.75 351.357C1039.64 353.321 1044.64 358.857 1044.64 358.857C1046.07 355.821 1045.89 352.786 1041.43 350.107Z" fill="#1D3878"/>
<path d="M689.786 118.22L702.841 110.314C702.986 110.226 704.384 110.575 704.472 110.72L712.862 124.575C712.952 124.724 712.905 124.917 712.756 125.008L698.956 133.364C698.898 133.399 698.825 133.381 698.79 133.323L689.742 118.382C689.71 118.328 689.728 118.255 689.786 118.22Z" fill="white"/>
<path d="M689.81 118.194C689.192 118.568 688.996 119.378 689.368 119.992L697.192 132.912C697.546 133.497 698.29 133.705 698.888 133.411L695.119 114.979L689.81 118.194Z" fill="url(#paint9_linear)"/>
<path d="M704.528 110.812C704.154 110.194 703.344 109.998 702.73 110.37L699.553 112.294L711.206 121.84L704.528 110.812Z" fill="url(#paint10_linear)"/>
<path d="M708.02 124.49L701.845 128.23L702.531 131.216L710.328 126.495L708.02 124.49Z" fill="url(#paint11_radial)"/>
<path d="M699.227 116.84L701.047 124.76L705.344 122.158L699.227 116.84Z" fill="url(#paint12_linear)"/>
<path d="M314.488 433.011H332.293C332.491 433.011 333.675 434.204 333.675 434.402V453.298C333.675 453.501 333.511 453.665 333.308 453.665H314.488C314.408 453.665 314.346 453.603 314.346 453.524V433.147C314.346 433.073 314.408 433.011 314.488 433.011Z" fill="white"/>
<path d="M314.527 433C313.684 433 313 433.69 313 434.528V452.149C313 452.947 313.617 453.603 314.392 453.671L321.768 433H314.527Z" fill="url(#paint13_linear)"/>
<path d="M333.675 434.528C333.675 433.685 332.985 433 332.148 433H327.815L333.675 449.569V434.528Z" fill="url(#paint14_linear)"/>
<path d="M328.895 450.287H320.473L319.353 453.682H329.987L328.895 450.287Z" fill="url(#paint15_radial)"/>
<path d="M324.743 437.34L321.773 446.343H327.634L324.743 437.34Z" fill="url(#paint16_linear)"/>
<path d="M1251.92 235.892C1242.74 235.892 1235.39 246.984 1227.13 245.135C1208.76 240.822 1201.11 217.097 1180.91 217.097C1165.3 217.097 1156.43 236.508 1142.04 235.276C1119.39 232.811 1108.99 202 1084.5 202C1061.85 202 1050.83 228.497 1029.71 230.654C1017.47 232.195 1008.29 217.405 994.821 217.405C969.417 217.405 967.275 227.573 944.014 234.968C937.28 237.124 932.077 250.065 924.731 250.065C915.855 250.065 907.897 252.838 903 259H1289.87C1283.45 246.368 1268.75 235.892 1251.92 235.892Z" fill="url(#paint17_linear)"/>
<path d="M18.2468 100.534C22.6614 100.534 26.193 107.478 30.1661 106.321C38.9953 103.62 42.674 88.7692 52.3861 88.7692C59.8908 88.7692 64.1582 100.92 71.0744 100.149C81.9636 98.6057 86.9668 79.3184 98.7389 79.3184C109.628 79.3184 114.926 95.9055 125.079 97.2556C130.965 98.22 135.38 88.962 141.854 88.962C154.068 88.962 155.098 95.3269 166.282 99.9558C169.519 101.306 172.021 109.407 175.552 109.407C179.82 109.407 183.646 111.143 186 115H0C3.09019 107.092 10.1535 100.534 18.2468 100.534Z" fill="#DFE1E6"/>
<path d="M293.911 817.73C320.019 817.73 340.905 849.059 364.402 843.838C416.617 831.654 438.373 764.643 495.81 764.643C540.193 764.643 565.43 819.47 606.332 815.989C670.731 809.027 700.32 722 769.94 722C834.339 722 865.668 796.843 925.715 802.935C960.525 807.286 986.633 765.514 1024.92 765.514C1097.16 765.514 1103.25 794.232 1169.39 815.119C1188.53 821.211 1203.33 857.762 1224.21 857.762C1249.45 857.762 1272.08 865.595 1286 883H186C204.275 847.319 246.047 817.73 293.911 817.73Z" fill="url(#paint18_linear)"/>
<defs>
<linearGradient id="paint0_linear" x1="310.147" y1="104.511" x2="406.07" y2="139.665" gradientUnits="userSpaceOnUse">
<stop stop-color="#284C98"/>
<stop offset="0.3503" stop-color="#284B96"/>
<stop offset="0.5383" stop-color="#294A90"/>
<stop offset="0.6878" stop-color="#2A4887"/>
<stop offset="0.817" stop-color="#2B467B"/>
<stop offset="0.932" stop-color="#2B426C"/>
<stop offset="1" stop-color="#2A3F61"/>
</linearGradient>
<linearGradient id="paint1_linear" x1="613.852" y1="84.7672" x2="543.111" y2="112.686" gradientUnits="userSpaceOnUse">
<stop offset="0.0737432" stop-color="#BE1E2D"/>
<stop offset="0.4211" stop-color="#BE1F2D"/>
<stop offset="0.5462" stop-color="#BA202E"/>
<stop offset="0.6354" stop-color="#B52230"/>
<stop offset="0.7075" stop-color="#AD2532"/>
<stop offset="0.7693" stop-color="#A12835"/>
<stop offset="0.823" stop-color="#932C39"/>
<stop offset="0.8678" stop-color="#85303D"/>
</linearGradient>
<radialGradient id="paint2_radial" cx="0" cy="0" r="1" gradientUnits="userSpaceOnUse" gradientTransform="translate(477.467 246.361) scale(51.2055 30.7338)">
<stop stop-color="#284C98"/>
<stop offset="0.4669" stop-color="#274B96"/>
<stop offset="0.7175" stop-color="#244992"/>
<stop offset="0.9162" stop-color="#20458D"/>
<stop offset="1" stop-color="#1E4389"/>
</radialGradient>
<linearGradient id="paint3_linear" x1="477.886" y1="143.389" x2="477.886" y2="67.3337" gradientUnits="userSpaceOnUse">
<stop offset="0.0749372" stop-color="#284C98"/>
<stop offset="0.2803" stop-color="#274994"/>
<stop offset="0.5865" stop-color="#24448B"/>
<stop offset="0.9542" stop-color="#1F3B7B"/>
<stop offset="1" stop-color="#1E3979"/>
</linearGradient>
<linearGradient id="paint4_linear" x1="977.736" y1="555.73" x2="1100.87" y2="555.73" gradientUnits="userSpaceOnUse">
<stop stop-color="#1649A0"/>
</linearGradient>
<linearGradient id="paint5_linear" x1="989.759" y1="456.181" x2="997.268" y2="458.933" gradientUnits="userSpaceOnUse">
<stop stop-color="#284C98"/>
<stop offset="0.3503" stop-color="#284B96"/>
<stop offset="0.5383" stop-color="#294A90"/>
<stop offset="0.6878" stop-color="#2A4887"/>
<stop offset="0.817" stop-color="#2B467B"/>
<stop offset="0.932" stop-color="#2B426C"/>
<stop offset="1" stop-color="#2A3F61"/>
</linearGradient>
<linearGradient id="paint6_linear" x1="1013.53" y1="454.635" x2="1007.99" y2="456.821" gradientUnits="userSpaceOnUse">
<stop offset="0.0737432" stop-color="#BE1E2D"/>
<stop offset="0.4211" stop-color="#BE1F2D"/>
<stop offset="0.5462" stop-color="#BA202E"/>
<stop offset="0.6354" stop-color="#B52230"/>
<stop offset="0.7075" stop-color="#AD2532"/>
<stop offset="0.7693" stop-color="#A12835"/>
<stop offset="0.823" stop-color="#932C39"/>
<stop offset="0.8678" stop-color="#85303D"/>
</linearGradient>
<radialGradient id="paint7_radial" cx="0" cy="0" r="1" gradientUnits="userSpaceOnUse" gradientTransform="translate(1002.86 467.284) scale(4.00817 2.40572)">
<stop stop-color="#284C98"/>
<stop offset="0.4669" stop-color="#274B96"/>
<stop offset="0.7175" stop-color="#244992"/>
<stop offset="0.9162" stop-color="#20458D"/>
<stop offset="1" stop-color="#1E4389"/>
</radialGradient>
<linearGradient id="paint8_linear" x1="1002.89" y1="459.224" x2="1002.89" y2="453.271" gradientUnits="userSpaceOnUse">
<stop offset="0.0749372" stop-color="#284C98"/>
<stop offset="0.2803" stop-color="#274994"/>
<stop offset="0.5865" stop-color="#24448B"/>
<stop offset="0.9542" stop-color="#1F3B7B"/>
<stop offset="1" stop-color="#1E3979"/>
</linearGradient>
<linearGradient id="paint9_linear" x1="691.37" y1="125.319" x2="697.992" y2="124.023" gradientUnits="userSpaceOnUse">
<stop stop-color="#284C98"/>
<stop offset="0.3503" stop-color="#284B96"/>
<stop offset="0.5383" stop-color="#294A90"/>
<stop offset="0.6878" stop-color="#2A4887"/>
<stop offset="0.817" stop-color="#2B467B"/>
<stop offset="0.932" stop-color="#2B426C"/>
<stop offset="1" stop-color="#2A3F61"/>
</linearGradient>
<linearGradient id="paint10_linear" x1="707.853" y1="113.813" x2="704.812" y2="117.81" gradientUnits="userSpaceOnUse">
<stop offset="0.0737432" stop-color="#BE1E2D"/>
<stop offset="0.4211" stop-color="#BE1F2D"/>
<stop offset="0.5462" stop-color="#BA202E"/>
<stop offset="0.6354" stop-color="#B52230"/>
<stop offset="0.7075" stop-color="#AD2532"/>
<stop offset="0.7693" stop-color="#A12835"/>
<stop offset="0.823" stop-color="#932C39"/>
<stop offset="0.8678" stop-color="#85303D"/>
</linearGradient>
<radialGradient id="paint11_radial" cx="0" cy="0" r="1" gradientUnits="userSpaceOnUse" gradientTransform="translate(705.676 127.609) rotate(-31.1974) scale(3.38205 2.02992)">
<stop stop-color="#284C98"/>
<stop offset="0.4669" stop-color="#274B96"/>
<stop offset="0.7175" stop-color="#244992"/>
<stop offset="0.9162" stop-color="#20458D"/>
<stop offset="1" stop-color="#1E4389"/>
</radialGradient>
<linearGradient id="paint12_linear" x1="702.177" y1="121.777" x2="699.575" y2="117.48" gradientUnits="userSpaceOnUse">
<stop offset="0.0749372" stop-color="#284C98"/>
<stop offset="0.2803" stop-color="#274994"/>
<stop offset="0.5865" stop-color="#24448B"/>
<stop offset="0.9542" stop-color="#1F3B7B"/>
<stop offset="1" stop-color="#1E3979"/>
</linearGradient>
<linearGradient id="paint13_linear" x1="311.778" y1="441.053" x2="319.17" y2="443.762" gradientUnits="userSpaceOnUse">
<stop stop-color="#284C98"/>
<stop offset="0.3503" stop-color="#284B96"/>
<stop offset="0.5383" stop-color="#294A90"/>
<stop offset="0.6878" stop-color="#2A4887"/>
<stop offset="0.817" stop-color="#2B467B"/>
<stop offset="0.932" stop-color="#2B426C"/>
<stop offset="1" stop-color="#2A3F61"/>
</linearGradient>
<linearGradient id="paint14_linear" x1="335.18" y1="439.532" x2="329.729" y2="441.683" gradientUnits="userSpaceOnUse">
<stop offset="0.0737432" stop-color="#BE1E2D"/>
<stop offset="0.4211" stop-color="#BE1F2D"/>
<stop offset="0.5462" stop-color="#BA202E"/>
<stop offset="0.6354" stop-color="#B52230"/>
<stop offset="0.7075" stop-color="#AD2532"/>
<stop offset="0.7693" stop-color="#A12835"/>
<stop offset="0.823" stop-color="#932C39"/>
<stop offset="0.8678" stop-color="#85303D"/>
</linearGradient>
<radialGradient id="paint15_radial" cx="0" cy="0" r="1" gradientUnits="userSpaceOnUse" gradientTransform="translate(324.671 451.983) scale(3.94559 2.36816)">
<stop stop-color="#284C98"/>
<stop offset="0.4669" stop-color="#274B96"/>
<stop offset="0.7175" stop-color="#244992"/>
<stop offset="0.9162" stop-color="#20458D"/>
<stop offset="1" stop-color="#1E4389"/>
</radialGradient>
<linearGradient id="paint16_linear" x1="324.703" y1="444.049" x2="324.703" y2="438.188" gradientUnits="userSpaceOnUse">
<stop offset="0.0749372" stop-color="#284C98"/>
<stop offset="0.2803" stop-color="#274994"/>
<stop offset="0.5865" stop-color="#24448B"/>
<stop offset="0.9542" stop-color="#1F3B7B"/>
<stop offset="1" stop-color="#1E3979"/>
</linearGradient>
<linearGradient id="paint17_linear" x1="1096.44" y1="202" x2="1096.44" y2="259" gradientUnits="userSpaceOnUse">
<stop stop-color="#DFE1E6" stop-opacity="0"/>
<stop offset="0.739583" stop-color="#DFE1E6"/>
<stop offset="1" stop-color="#DFE1E6"/>
</linearGradient>
<linearGradient id="paint18_linear" x1="736" y1="722" x2="736" y2="883" gradientUnits="userSpaceOnUse">
<stop stop-color="#DFE1E6" stop-opacity="0"/>
<stop offset="0.739583" stop-color="#DFE1E6"/>
<stop offset="1" stop-color="#DFE1E6"/>
</linearGradient>
</defs>
</svg>
