<svg width="1387" height="883" viewBox="0 0 1387 883" fill="none" xmlns="http://www.w3.org/2000/svg">
<path d="M710.857 852.643H703.893L635.857 511.75H643L710.857 852.643Z" fill="#B2BAC5"/>
<path d="M620.321 852.643H613.179L545.321 511.75H552.286L620.321 852.643Z" fill="#B2BAC5"/>
<path d="M611.844 819.303H698.451V813.588H611.844V819.303Z" fill="#B2BAC5"/>
<path d="M600.942 764.267H687.549V758.552H600.942V764.267Z" fill="#B2BAC5"/>
<path d="M590.034 709.046H676.642V703.332H590.034V709.046Z" fill="#B2BAC5"/>
<path d="M579.127 653.831H665.734V648.116H579.127V653.831Z" fill="#B2BAC5"/>
<path d="M568.223 598.616H654.83V592.901H568.223V598.616Z" fill="#B2BAC5"/>
<path d="M557.313 543.401H643.92V537.687H557.313V543.401Z" fill="#B2BAC5"/>
<path d="M689.428 486.393H611.929V511.75H689.428V486.393Z" fill="#8993A4"/>
<path d="M611.928 486.393H464.964V511.75H611.928V486.393Z" fill="#B2BAC5"/>
<path d="M420.857 852.643H428L495.857 511.75H488.893L420.857 852.643Z" fill="white"/>
<path d="M511.571 852.643H518.536L586.571 511.75H579.428L511.571 852.643Z" fill="white"/>
<path d="M519.964 813.714H433.357V819.429H519.964V813.714Z" fill="white"/>
<path d="M530.857 758.357H444.25V764.072H530.857V758.357Z" fill="white"/>
<path d="M541.75 703.179H455.143V708.893H541.75V703.179Z" fill="white"/>
<path d="M552.643 648H466.036V653.714H552.643V648Z" fill="white"/>
<path d="M563.535 592.821H476.928V598.536H563.535V592.821Z" fill="white"/>
<path d="M574.428 537.643H487.821V543.357H574.428V537.643Z" fill="white"/>
<path d="M324.786 829.607L314.429 830.857C314.429 830.857 314.607 833.357 314.429 835.679C314.072 840.5 289.429 838.715 289.429 847.822C289.429 852.822 304.25 853 308.714 853C328.893 853 332.643 846.215 332.643 844.429C332.643 838.179 328.893 834.429 327.286 832.643C325.321 830.322 324.786 829.607 324.786 829.607Z" fill="#284C98"/>
<path d="M312.464 831.571C312.464 831.571 313.893 833.357 313.714 837.107C313.714 837.107 317.643 838.536 321.572 838C323.714 837.821 327.286 832.821 327.286 832.821C326.036 830.143 323.536 826.571 323.536 826.571L312.464 831.571Z" fill="#B07550"/>
<path d="M377.464 824.786L367.107 826.036C367.107 826.036 367.285 828.536 367.107 830.857C366.75 835.679 340.678 841.929 340.678 851.036C340.678 856.036 364.071 851.571 368.357 850.5C382.643 846.571 385.321 841.571 385.321 839.607C385.321 833.357 381.571 829.607 379.964 827.821C378.178 825.5 377.464 824.786 377.464 824.786Z" fill="#284C98"/>
<path d="M365.143 826.75C365.143 826.75 366.571 828.536 366.393 832.286C366.393 832.286 370.321 833.715 374.25 833.179C376.393 833 379.964 828 379.964 828C378.714 825.322 376.214 821.75 376.214 821.75L365.143 826.75Z" fill="#B07550"/>
<path d="M316.75 336.572C315.857 335.857 311.929 338.715 311.571 339.786C311.214 342.643 312.821 342.822 312.286 345.322C313.179 343.179 314.607 341.036 316.214 339.25C316.929 338.357 318.179 337.643 316.75 336.572Z" fill="#FCD2C6"/>
<path d="M313.536 321.393C313.357 320.679 311.75 319.072 310.857 318.714C309.607 318.357 308.893 319.429 308.893 319.429C307.464 318.714 306.214 322.464 305.857 322.286C304.607 321.214 302.821 322.643 302.821 328.357C302.821 328.714 300.143 343 299.786 347.643C302.643 348.179 311.571 347.286 311.75 347.107C312.464 344.607 312.821 341.75 313.179 338.893C313.536 335.679 313.714 328.179 313.714 327.643C313.536 326.393 313.893 322.464 313.536 321.393Z" fill="#FCD2C6"/>
<path d="M311.929 346.393C307.107 346.75 303 346.572 300.143 345.857C296.929 370.143 295.679 431.393 304.607 435.322C312.822 438.893 317.286 434.072 318.714 429.786C319.072 428.893 319.25 428 319.25 427.107C318.893 413.179 309.607 361.036 311.929 346.393Z" fill="#FCD2C6"/>
<path d="M322.464 425.5C306.75 406.036 298.714 423.893 301.571 431.393C309.071 451.036 339.25 501.393 349.786 498.536C354.429 497.286 376.214 481.214 374.786 479.25C367.464 468.536 335.322 441.393 322.464 425.5Z" fill="#FCD2C6"/>
<path d="M352.821 452.286C342.107 442.107 331.036 431.571 324.786 423.714C323.714 422.286 322.643 421.214 321.571 419.964C321.036 413.893 319.964 405.857 318.893 397.286C316.571 378.536 313.536 355.321 314.786 346.75L297.107 345.5C294.25 366.75 292.821 417.464 298.893 432.643C305.143 448.714 333 498.179 347.821 499.071C372.643 500.5 382.643 481.393 381.929 480.679C372.464 468 363.536 462.464 352.821 452.286Z" fill="#BB2629"/>
<path d="M244.25 729.25C281.214 786.393 312.821 834.25 312.821 834.25C314.607 830.321 319.786 827.286 325.143 828.536C325.143 828.536 302.285 773.893 279.25 718.714C263.893 681.929 229.25 705.857 244.25 729.25Z" fill="#284C98"/>
<path d="M297.107 724.429C334.071 781.572 365.678 829.429 365.678 829.429C367.464 825.5 372.643 822.464 378 823.714C378 823.714 355.143 769.072 332.107 713.893C316.75 677.107 282.107 701.036 297.107 724.429Z" fill="#284C98"/>
<path d="M409.428 606.75C389.786 610.5 289.786 670.679 250.321 700.857C233.536 713.715 243 729.429 262.821 727.107C314.25 721.036 395.679 707.107 426.571 679.429C475.857 635.322 419.964 604.786 409.428 606.75Z" fill="#284C98"/>
<path d="M419.607 601.393C399.071 609.965 378.893 618.715 357.464 625.143C344.25 629.072 331.393 631.215 318.714 631.393C323.893 650.322 320.678 654.429 313.178 661.929C325.143 681.036 339.25 683.357 351.035 683.715C382.107 684.607 448.178 644.072 450.143 643.357C445.857 628.357 439.964 611.75 433.178 595.322C429.071 597.465 424.428 599.429 419.607 601.393Z" fill="white"/>
<path d="M311.214 460.857C311.571 462.107 318.178 474.072 317.285 481.75C320.321 487.822 338.178 482.822 339.964 470.679C337.107 468.179 330.678 452.107 329.964 445.857C328.714 447.465 315.857 460.322 311.214 460.857Z" fill="#B07550"/>
<path d="M325.857 442.107C324.071 433.357 316.75 427.286 307.821 429.072C299.607 430.857 292.285 434.786 292.642 443C292.821 445.857 300.857 470.322 314.964 470.322C321.035 470.322 329.071 457.822 327.642 451.215C327.821 451.215 325.857 442.286 325.857 442.107Z" fill="#B07550"/>
<path d="M359.25 470.143C354.428 470.322 339.964 470.679 339.964 470.679C339.964 470.679 338.357 474.965 330.5 478.893C323.536 482.465 317.107 481.572 317.107 481.572C317.107 481.572 302.821 490.5 300.321 493C291.036 502.286 292.107 506.75 295.321 521.393C296.75 528.179 324.964 632.286 314.428 660.858C315.321 661.572 325.321 674.072 340.5 673.715L336.036 643.358L347.643 673.179C382.643 670.679 404.607 651.036 430.143 639.786L422.107 600.5L439.964 635.5C442.464 634.429 444.786 633.536 446.75 632.822C430.321 574.072 389.25 490.143 387.643 487.822C381.393 477.465 373.893 469.429 359.25 470.143Z" fill="#BB2629"/>
<path d="M334.607 448.893C338.536 436.572 335.678 420.322 322.107 414.607C306.75 408.179 288 423.715 286.036 438.179C284.607 449.072 278.714 443.357 278.536 440.679C279.071 447.465 283.357 452.286 295.5 447.822C298 446.929 290.321 451.75 290.321 451.75C290.321 451.75 311.214 475.679 329.786 463.179C335.321 459.429 338.893 452.107 338.893 452.107C338.893 452.107 332.643 455.322 334.607 448.893Z" fill="#0F3179"/>
<path d="M527.464 471.75L518.357 466.572C518.357 466.572 516.393 469.608 514.786 471.393C511.75 475.143 496.75 477.643 496.75 483C496.75 485.679 502.286 488 506.75 488.179C511.214 488.358 514.964 487.465 517.643 486.75C520.321 485.858 526.393 483.358 527.286 481.75C528.893 478.893 527.643 475.679 527.643 475.679C528.179 472.643 527.464 471.75 527.464 471.75Z" fill="#284C98"/>
<path d="M515.5 466.214C515.5 466.214 516.929 468.357 514.607 471.393C514.607 471.393 516.393 474.607 519.965 476.572C521.929 477.643 527.643 475.679 527.643 475.679C528.179 472.821 527.822 468.536 527.822 468.536L515.5 466.214Z" fill="#F8A479"/>
<path d="M492.286 175.143C491.393 181.393 468.714 265.322 475.322 344.25C480.857 412.107 515.679 468.357 515.679 468.357C515.857 468.893 524.786 473.715 529.25 468.715C529.25 456.929 513.179 345.857 513.536 344.607C524.429 306.75 549.607 241.393 553.893 238V180.143C531.75 181.572 499.607 178.357 492.286 175.143Z" fill="#284C98"/>
<path d="M341.572 225.5C340.322 225.322 338.893 224.786 338.893 226.393C338.714 227.464 343.536 229.072 344.607 228.714C347.107 227.286 346.214 225.857 348.714 224.964C346.572 225.5 343.893 225.679 341.572 225.5Z" fill="#F8A479"/>
<path d="M350.679 224.25C348.179 225.143 345.679 226.393 343.179 227.822C340.322 229.429 334.25 233.715 333.714 234.072C332.464 234.965 329.25 236.929 328.536 238C328.179 238.715 327.643 240.858 328 241.75C328.357 243 329.786 243.001 329.786 243.001C329.964 244.608 333.893 243.358 333.893 243.715C333.714 245.322 335.857 246.036 340.679 242.643C341.036 242.465 354.072 236.215 358.179 233.715C356.75 231.036 350.679 224.25 350.679 224.25Z" fill="#F8A479"/>
<path d="M413.536 170.322C412.643 170.679 411.75 171.036 411.214 171.572C399.786 179.965 363.179 218 349.786 224.786C352.821 228.536 355.143 231.929 356.393 234.608C378 223 428.357 188.179 426.214 178.536C424.429 169.608 417.821 168.893 413.536 170.322Z" fill="#FCD2C6"/>
<path d="M420.5 95.5003C416.214 107.822 413 149.786 407.643 169.429C401.036 193.715 420.322 189.607 424.786 182.822C436.214 165.143 459.429 111.215 450.857 104.429C447.107 101.572 421.393 93.3574 420.5 95.5003Z" fill="#FCD2C6"/>
<path d="M419.964 92.4646C418.893 92.8217 418 93.536 417.643 94.6074C415.322 101.036 413.536 114.786 411.393 129.25C409.429 143.893 403.893 172.107 403.536 173.536C398.893 177.465 355.857 218 348.179 221.929L357.464 237.107C376.393 226.929 418.179 198.536 426.929 184.607C436.214 170.143 463.893 111.75 452.286 102.465C448.893 99.2503 424.786 91.036 419.964 92.4646Z" fill="#8E0F1B"/>
<path d="M596.928 472.286L587.286 468C587.286 468 585.5 471.036 584.071 473.179C581.214 477.108 566.75 480.858 567.107 486.036C567.286 488.715 573 490.5 577.464 490.322C581.929 490.143 585.857 489.608 588.178 488C591.036 486.036 596.571 483.893 597.464 482.286C598.893 479.429 597.286 476.215 597.286 476.215C597.821 473.358 596.928 472.286 596.928 472.286Z" fill="#284C98"/>
<path d="M585.5 467.643C585.5 467.643 586.393 470.143 584.25 473.179C584.25 473.179 586.393 476.215 589.964 477.822C591.929 478.715 597.643 476.215 597.643 476.215C597.821 473.357 597.821 468.893 597.821 468.893L585.5 467.643Z" fill="#F8A479"/>
<path d="M586.214 167.107C564.25 170.322 539.607 182.107 532.107 179.429C531.75 185.857 524.964 269.786 534.607 348.536C539.607 389.786 584.964 447.107 584.964 469.786C585.143 470.322 594.429 474.429 598.536 469.072C598.536 413.179 572.643 345.143 572.643 345.143C577.286 296.036 613.714 219.429 586.214 167.107Z" fill="#284C98"/>
<path d="M438.536 34.0718C437.643 35.8575 427.821 51.2146 423.536 52.8218C424.25 53.8932 433.178 64.2503 434.071 71.9289C438.357 77.2861 454.607 68.5361 453.714 56.0361C450.321 54.2504 440.678 39.9646 438.536 34.0718Z" fill="#F8A479"/>
<path d="M433.715 31.2142C429.965 22.9999 421.572 18.7142 413.357 22.4642C405.679 25.8571 399.429 31.5714 401.572 39.4285C402.286 42.2857 415.5 64.2499 429.429 61.2142C435.322 59.9642 440.322 46.0357 437.643 39.7857C437.464 39.7857 433.715 31.3928 433.715 31.2142Z" fill="#F8A479"/>
<path fill-rule="evenodd" clip-rule="evenodd" d="M416.929 51.5716C416.929 52.2859 418 51.9287 418.536 51.7501C418.714 51.5716 419.25 51.393 419.429 51.393C419.964 51.2144 420.322 51.0359 420.679 50.6787C420.857 50.5001 421.214 50.143 421.393 49.9644C421.929 49.6073 422.643 48.893 422.107 48.5359C421.929 48.3573 420.143 48.5359 418.893 49.4287C417.822 49.9644 417.107 51.0359 416.929 51.5716Z" fill="#E68969"/>
<path d="M472.643 51.5715C467.821 52.1072 453.714 56.0357 453.714 56.0357C453.714 56.0357 449.071 68.3572 443.535 71.9286C439.785 74.4286 434.071 71.9286 434.071 71.9286C434.071 71.9286 422.107 84.0715 420.321 86.9286C413.357 98.1786 423.893 109.607 429.964 120.679C433.535 127.107 464.785 166.929 484.25 228.893C500.857 254.25 554.428 242.464 583.535 208.536L569.071 170.143L592.107 202.286C594.25 200.679 599.25 198.357 601.035 197.107C557.464 83.7143 515.857 46.75 472.643 51.5715Z" fill="#BB2629"/>
<path d="M453.714 56.0361C453.714 56.0361 449.072 68.3575 443.536 71.9289C439.786 74.4289 434.071 71.9289 434.071 71.9289C434.071 71.9289 422.821 83.1789 420.5 86.5718C427.643 97.8218 447.464 103 447.464 103C447.464 103 460.679 68.1789 472.643 51.5718C472.643 51.5718 468 51.7503 463.179 53.1789C460.857 53.8932 453.714 56.0361 453.714 56.0361Z" fill="#8E0F1B"/>
<path d="M424.25 1.75022C402.821 -4.85692 381.75 20.3217 388.536 36.7502C390.143 40.3217 397.464 47.4645 427.643 24.7859C434.429 28.7145 441.929 40.8574 441.929 40.8574C448 27.4645 440.679 6.9288 424.25 1.75022Z" fill="#284C98"/>
<path d="M433.357 27.4645C432.464 27.6431 431.036 28.5359 429.964 29.6074C431.571 32.2859 434.786 36.5716 436.214 38.7145C438.179 37.4645 439.786 33.5359 439.072 31.3931C438.714 29.0716 435.679 26.7502 433.357 27.4645Z" fill="#F8A479"/>
<path d="M417.464 220.5C417.643 221.572 422.464 222.107 423.536 221.572C425.679 219.786 424.607 218.536 426.75 217.107C424.607 218.179 422.286 218.715 419.964 219.072C418.536 219.072 417.107 218.715 417.464 220.5Z" fill="#F8A479"/>
<path d="M428.357 215.857C426.214 217.286 423.893 219.072 421.928 220.857C419.428 223 414.428 228.536 414.071 228.893C413.178 230.143 410.321 232.643 409.964 233.715C409.607 234.429 409.607 236.572 410.143 237.465C410.857 238.536 412.107 238.179 412.107 238.179C412.643 239.786 416.214 237.643 416.214 238C416.393 239.607 418.714 239.786 422.464 235.5C422.643 235.322 434.25 226.393 437.643 223.179C435.678 221.215 428.357 215.857 428.357 215.857Z" fill="#F8A479"/>
<path d="M502.465 75.1429C498 72.8214 472.822 69.9643 468.536 72.4643C467.643 73 466.929 73.8929 466.75 74.9643C465.857 81.75 466.929 95.5 468 110.143C469.072 124.786 470.322 140.143 469.786 150.143C469.607 151.929 469.607 153.536 469.786 155.143C466.215 159.964 461.572 166.75 456.572 173.893C445.857 189.429 432.465 208.714 425.857 214.071L438.179 226.929C454.607 213 489.429 176.393 495.143 160.857C501.036 144.786 515.679 81.9286 502.465 75.1429Z" fill="#8E0F1B"/>
<path d="M93.7142 240.322C92.107 242.643 93.357 243.536 91.5713 245.5C93.357 244.072 95.6784 243 97.9999 242.286C99.2499 241.929 100.678 241.929 99.9642 240.322C99.607 239.25 94.607 239.786 93.7142 240.322Z" fill="#E68969"/>
<path d="M101.75 221.572C100.857 220.143 97.8213 222.822 97.8213 222.465C97.2856 220.858 94.9642 221.215 92.1071 226.215C91.9285 226.572 82.4642 237.643 79.7856 241.393C81.9285 243.358 90.1428 247.108 90.3214 246.929C92.1071 244.965 94.0714 242.822 95.6785 240.679C97.6428 238 101.571 231.572 101.75 231.215C102.464 229.786 104.607 226.75 104.786 225.5C104.964 224.786 104.429 222.643 103.893 221.929C103 221.036 101.75 221.572 101.75 221.572Z" fill="#F8A479"/>
<path d="M38.8927 314.607C35.4998 335.322 36.0356 394.072 46.7498 396.929C51.3927 398.179 78.3569 395.322 78.1784 393C77.1069 379.965 63.1784 340.322 60.1427 320.143C56.2141 295.143 40.3212 306.572 38.8927 314.607Z" fill="#FCD2C6"/>
<path d="M39.4288 319.429C44.6074 326.75 51.036 324.786 54.4288 321.75C55.1431 321.036 55.8574 320.322 56.2146 319.786C63.1788 307.643 81.5717 258 90.8574 246.393C86.5717 244.25 83.1788 242.107 80.8574 239.964C65.6788 259.25 33.7146 311.393 39.4288 319.429Z" fill="#F8A479"/>
<path d="M89.2501 252.108L74.7858 242.465C62.1072 259.251 36.5715 301.393 34.6072 317.286C32.2858 333.893 40.6787 435.322 54.6073 438.893C59.2501 440.143 74.7858 398.893 78.3573 395.679C79.2501 394.965 79.6073 393.893 79.4287 392.822C78.893 386.215 62.2858 331.572 60.6787 321.929C60.3215 320.322 60.143 318.715 59.6072 317.286C62.1072 311.929 64.9644 304.608 68.1787 296.751C75.3216 279.786 83.893 258.536 89.2501 252.108Z" fill="#BB2629"/>
<path d="M186.571 824.786C184.964 822.286 183.893 821.929 183.893 821.929L173.536 824.072C173.536 824.072 173.893 827.643 174.071 830.143C174.071 834.964 164.607 846.572 168 850.679C169.786 852.643 175.5 850.857 179.071 848C182.643 845.143 185.5 842.464 186.393 839.786C187.464 836.393 190.857 831.572 190.5 829.607C189.786 826.393 186.571 824.786 186.571 824.786Z" fill="#284C98"/>
<path d="M173 823.893C173 823.893 173.893 826.393 174.071 830.143C174.071 830.143 177.643 831.393 181.393 830.501C183.536 829.965 186.571 824.786 186.571 824.786C184.964 822.286 183.893 820.679 183.893 820.679L173 823.893Z" fill="#F8A479"/>
<path d="M151.036 703.179C158.357 650.322 170.321 583.893 167.286 544.786C145.143 545.322 116.571 541.393 109.25 538C108.179 544.072 108.714 624.072 111.036 701.572C112.107 738.536 173.536 826.572 173.536 826.572C173.714 827.108 181.214 828.715 186.036 823.893C186.036 823.893 147.821 726.572 151.036 703.179Z" fill="#284C98"/>
<path d="M70.5 658C70.8571 661.393 80.3214 833.357 80.3214 833.357C84.6071 836.75 91.2143 836.036 91.3929 835.857C91.3929 835.857 106.929 660.5 106.214 652.643C101.929 656.036 73.3571 660.857 70.5 658Z" fill="#FCD2C6"/>
<path d="M90.8574 833.357L81.7502 828.179C81.7502 828.179 79.7859 831.214 78.1788 833C75.1431 836.75 60.1431 839.25 60.1431 844.607C60.1431 847.286 65.6787 849.607 70.143 849.786C74.6073 849.964 78.3574 849.072 81.0359 848.357C83.7145 847.464 89.7859 844.964 90.6788 843.357C92.2859 840.5 91.036 837.286 91.036 837.286C91.5717 834.25 90.8574 833.357 90.8574 833.357Z" fill="#284C98"/>
<path d="M78.1787 833.001C78.1787 833.001 79.9644 836.215 83.5359 838.179C85.5002 839.251 91.2145 837.286 91.2145 837.286C91.7502 834.429 91.9288 832.465 91.9288 832.465L81.5716 827.822C81.393 827.643 80.5001 830.143 78.1787 833.001Z" fill="#F8A479"/>
<path d="M55.6788 527.822C54.0716 539.607 79.0716 829.965 79.0716 829.965C79.2501 830.5 88.1787 835.322 92.643 830.322C92.643 830.322 97.2858 763.357 106.393 700.322C114.25 645.857 113 594.072 117.286 590.679V532.822C95.143 534.429 63.0002 531.036 55.6788 527.822Z" fill="#284C98"/>
<path d="M54.9644 534.072C54.9644 534.072 55.1429 549.608 55.8572 553.893C57.8215 566.215 71.0358 572.822 81.2144 571.929L84.7858 560.143L89.7858 572.286C136.572 575.143 168 561.393 168 561.393C173.357 544.429 166.393 517.465 166.393 517.465L54.9644 534.072Z" fill="#8E0F1B"/>
<path d="M99.6075 362.643C98.1789 363.893 82.8217 373.893 78.3574 373.536C78.536 374.786 82.4646 387.822 80.1431 395.322C81.9289 401.929 100.322 400.5 104.608 388.893C102.108 385.679 99.0718 368.714 99.6075 362.643Z" fill="#FFD2BB"/>
<path d="M123.536 392.464C118.714 391.75 104.428 388.893 104.428 388.893C104.428 388.893 95.1427 398.179 88.5356 399.25C84.0713 399.964 79.9641 395.322 79.9641 395.322C79.9641 395.322 64.0713 401.393 61.2141 403.357C50.3213 410.857 48.7141 422.286 50.857 431.393C58.5356 463 46.9284 538 56.7498 541.75C70.1427 546.929 146.928 547.822 169.786 526.036C169.786 526.036 160.321 449.429 149.429 418.893C145.5 407.107 138 394.786 123.536 392.464Z" fill="#BB2629"/>
<path d="M80.0165 393.077C84.2031 382.913 79.8344 379.966 78.1962 375.697C76.558 371.326 78.0142 365.838 80.0165 362.382C79.8345 362.28 68.1848 355.471 64.1802 359.028C61.8138 363.297 61.0857 368.48 63.4521 373.766C67.0926 381.49 70.5145 387.06 68.3301 389.601C64.5076 393.87 63.6341 401.086 64.1801 403.831C66.9105 419.788 84.2031 427.411 89.1178 425.785C94.3966 423.955 74.0096 407.612 80.0165 393.077Z" fill="#284C98"/>
<path d="M79.7856 340.322C71.3927 340.322 64.7856 344.25 63.5356 352.286C62.9998 355.143 66.2141 380.679 80.1427 383.536C86.0355 384.786 96.3927 374.072 96.3927 367.286V358C96.2141 349.072 88.8927 340.322 79.7856 340.322Z" fill="#FFD2BB"/>
<path d="M120.679 373C125.143 357.286 119.25 342.822 110.321 333.357C101.393 323.893 89.6072 324.072 83.1786 327.107C75.1429 330.857 75.1429 332.286 75.1429 332.286C75.1429 332.286 71.0357 331.572 66.5714 334.072C57.1072 339.786 58.5357 361.75 66.5714 368.179C60.5 344.786 75.3215 340.5 75.3215 340.5C75.3215 340.5 85.6786 341.215 91.0357 346.929C95.8572 352.286 101.036 366.572 98.7143 378C96.9286 386.572 90.5 393 98.1786 412.822C109.25 441.393 101.929 445.964 110.321 449C118 451.857 130.857 462.465 133.179 430.5C133.536 424.965 132.821 413.536 126.393 405.143C122.464 400.143 116.214 388.715 120.679 373Z" fill="#284C98"/>
<path d="M95.6789 354.608C94.786 354.786 93.1789 355.143 92.1074 356.215C93.1789 359.25 95.5003 363.893 96.7503 366.215C98.8932 365.322 101.036 361.75 100.857 359.608C100.679 357.108 98.0003 354.25 95.6789 354.608Z" fill="#FFD2BB"/>
<path d="M147.107 261.572C145.679 263.893 147.107 264.786 145.322 266.929C147.107 265.322 149.25 264.072 151.393 263.179C152.643 262.643 154.072 262.643 153.179 261.036C152.822 259.786 148 260.858 147.107 261.572Z" fill="#E68969"/>
<path d="M153.179 242.108C152.286 240.858 149.429 243.715 149.25 243.358C148.536 241.929 146.393 242.286 143.893 247.643C143.714 248 135.321 259.786 133 263.893C135.321 265.5 143.893 268.536 144.071 268.358C145.679 266.393 147.286 264.072 148.893 261.572C150.679 258.715 153.893 252.108 154.071 251.572C154.607 250.143 156.571 246.929 156.571 245.679C156.571 244.965 156.036 242.822 155.321 242.108C154.429 241.393 153.179 242.108 153.179 242.108Z" fill="#FFD2BB"/>
<path d="M99.6073 340.5C98.1788 361.572 104.25 419.786 115.143 421.75C119.786 422.643 146.393 417.107 146.036 414.786C143.893 401.929 126.036 363.893 121.215 343.893C114.965 319.607 100.143 332.643 99.6073 340.5Z" fill="#FCD2C6"/>
<path d="M100.5 345.322C106.393 352.108 112.643 349.429 115.678 346.215C116.393 345.5 116.929 344.786 117.286 344.072C123.179 331.215 136.571 280.143 144.964 267.643C140.5 265.858 136.928 264.072 134.428 262.286C121.036 283 94.0713 338 100.5 345.322Z" fill="#FFD2BB"/>
<path d="M122.107 345.857C121.75 344.25 121.214 342.643 120.679 341.215C122.643 335.679 124.964 328 127.286 319.965C132.643 302.465 139.25 280.5 143.714 273.536L128.536 265.322C117.464 283.179 96.0359 327.465 95.5002 343.536C94.6073 360.143 112.643 460.5 126.929 462.822C131.75 463.536 143.179 421.215 146.572 417.643C147.286 416.75 147.643 415.858 147.464 414.786C146.036 408.358 124.607 355.322 122.107 345.857Z" fill="#BB2629"/>
<path d="M1060.14 780.679C1050.5 778 1040.86 775.679 1031.04 772.643C1021.21 769.786 1011.39 766.75 1001.39 763.715C991.393 760.679 981.571 757.108 971.393 753.893C961.214 750.679 951.214 746.929 941.036 743.179C920.679 736.036 900.5 727.465 879.786 719.25C869.607 714.786 859.429 710.322 849.071 705.858L841.393 702.465L833.714 698.893C828.714 696.393 823.536 694.072 818.357 691.572C813.179 689.072 808.179 686.75 803 684.25C798 681.75 792.821 679.072 787.821 676.393C777.821 671.036 767.464 666.036 757.464 660.5C747.464 654.965 737.464 649.25 727.464 643.715L719.964 639.429L712.643 634.965L698 626.036C678.179 614.429 659.25 601.572 639.964 589.25C630.5 583 621.214 576.215 611.75 569.786C607.107 566.572 602.464 563.358 597.821 560.143C593.179 556.929 588.714 553.358 584.071 550.143C574.964 543.358 566.036 536.75 557.107 529.965C552.643 526.75 548.357 523.179 543.893 519.608C539.607 516.215 535.143 512.643 530.857 509.25C526.571 505.858 522.286 502.286 518 498.893C513.714 495.5 509.429 492.108 505.321 488.536C496.929 481.393 488.714 474.429 480.5 467.465C476.393 464.072 472.286 460.5 468.357 457.108C464.429 453.536 460.5 449.965 456.571 446.393C448.714 439.25 441.036 432.286 433.357 425.322C425.679 418.536 418.357 411.393 411.036 404.25C403.714 397.286 396.571 390.322 389.429 383.536C361.393 355.858 335.5 329.072 312.464 303.536C306.571 297.286 300.857 291.036 295.321 284.965C289.964 278.715 284.607 272.643 279.429 266.75C269.25 254.965 259.25 243.715 250.321 233.179C241.393 222.286 233.178 212.286 225.5 202.822C221.75 198.179 218 193.715 214.429 189.429C212.643 187.286 211.036 185.143 209.25 183.179C207.643 181.036 206.036 179.072 204.429 177.108C179.786 145.322 165.857 127.286 165.857 127.286L97.2856 182.643C97.2856 182.643 112.821 200.5 139.964 231.929C141.571 233.893 143.357 235.858 145.143 238C146.928 239.965 148.893 242.108 150.857 244.25C154.786 248.536 158.714 253 163 257.465C171.393 266.75 180.5 276.75 190.321 287.286C200.321 297.822 211.036 308.715 222.286 320.5C228 326.393 233.714 332.286 239.607 338.358C245.679 344.25 251.929 350.322 258.357 356.572C283.536 381.572 311.929 407.822 342.286 434.965C349.964 441.572 357.821 448.358 365.679 455.322C373.536 462.108 381.571 469.072 389.964 475.858C398.357 482.643 406.75 489.429 415.143 496.393C419.429 499.786 423.714 503.358 428 506.75C432.464 510.143 436.75 513.536 441.214 516.75C450.143 523.536 458.893 530.322 468 537.108C472.464 540.5 477.107 543.893 481.75 547.108C486.393 550.322 491.036 553.715 495.679 557.108C500.321 560.5 504.964 563.715 509.607 567.108C514.25 570.5 518.893 573.893 523.893 576.929C533.536 583.358 543.179 589.786 553 596.215C557.821 599.429 562.643 602.822 567.643 605.858C572.643 608.893 577.643 612.108 582.643 615.143C592.643 621.215 602.643 627.643 612.821 633.715C633.357 645.5 653.714 657.643 674.786 668.536L690.5 676.929L698.357 681.036L706.393 684.965C716.929 690.143 727.643 695.5 738.179 700.679C748.893 705.857 759.607 710.5 770.321 715.322C775.679 717.643 781.036 720.143 786.393 722.465C791.75 724.786 797.107 726.929 802.643 729.25C808 731.393 813.357 733.715 818.714 735.857L826.75 739.25L834.786 742.286C845.5 746.393 856.393 750.5 866.929 754.429C888.536 761.929 909.786 769.429 931.036 775.679C941.572 778.893 952.107 782.286 962.643 784.965C973.179 787.822 983.536 790.858 993.714 793.358C1004.07 795.858 1014.25 798.358 1024.43 800.858C1034.61 803.358 1044.61 805.322 1054.43 807.465C1094.07 815.679 1131.93 820.857 1166.93 826.036C1286.39 844.072 1385.14 841.572 1385.14 841.572C1385.14 841.572 1211.04 828.358 1060.14 780.679Z" fill="#284C98"/>
<path d="M263.893 147.822L15.1429 8.53613L0.5 23.3576L249.25 162.465L263.893 147.822Z" fill="#284C98"/>
<path d="M1368.71 841.393C1357.82 841.036 1341.93 840.322 1321.57 839.072C1301.21 837.643 1276.75 836.036 1248.54 832.822C1220.5 829.786 1188.89 825.5 1154.61 819.429C1120.32 813.536 1083.71 805.322 1045.32 795.322C1035.68 792.643 1026.04 790.322 1016.21 787.286C1006.39 784.429 996.571 781.393 986.571 778.357C976.571 775.322 966.75 771.75 956.571 768.536C946.393 765.322 936.393 761.572 926.214 757.822C905.857 750.679 885.679 742.107 864.964 733.893C854.786 729.429 844.607 724.965 834.25 720.5L826.571 717.107L818.893 713.536C813.893 711.036 808.714 708.715 803.536 706.215C798.357 703.715 793.357 701.393 788.179 698.893C783.179 696.393 778 693.715 773 691.036C763 685.679 752.643 680.679 742.643 675.143C732.643 669.607 722.643 663.893 712.643 658.357L705.143 654.072L697.821 649.607L683.179 640.679C663.357 629.072 644.429 616.215 625.143 603.893C615.679 597.643 606.393 590.857 596.929 584.429C592.286 581.214 587.643 578 583 574.786C578.357 571.572 573.893 568 569.25 564.786C560.143 558 551.214 551.393 542.286 544.607C537.821 541.393 533.536 537.822 529.071 534.25C524.786 530.857 520.321 527.286 516.036 523.893C511.75 520.5 507.464 516.929 503.179 513.536C498.893 510.143 494.607 506.75 490.5 503.179C482.107 496.036 473.893 489.072 465.679 482.107C461.571 478.715 457.464 475.143 453.536 471.75C449.607 468.179 445.679 464.607 441.75 461.036C433.893 453.893 426.214 446.929 418.536 439.965C410.857 433.179 403.536 426.036 396.214 418.893C388.893 411.929 381.75 404.965 374.607 398.179C346.571 370.5 320.679 343.715 297.643 318.179C291.75 311.929 286.036 305.679 280.5 299.607C275.143 293.357 269.786 287.286 264.607 281.393C254.429 269.607 244.429 258.357 235.5 247.822C226.571 236.929 218.357 226.929 210.679 217.465C206.929 212.822 203.179 208.357 199.607 204.072C197.821 201.929 196.214 199.786 194.429 197.822C192.821 195.679 191.214 193.715 189.607 191.75C184.25 184.786 179.429 178.536 175.143 173L248.536 162.107L0.5 23.3574L80.5 296.75L107.821 226.572C112.821 232.465 118.714 239.072 125.143 246.572C126.75 248.536 128.536 250.5 130.321 252.643C132.107 254.607 134.071 256.75 136.036 258.893C139.964 263.179 143.893 267.643 148.179 272.107C156.571 281.393 165.679 291.393 175.5 301.929C185.5 312.465 196.214 323.357 207.464 335.143C213.179 341.036 218.893 346.929 224.786 353C230.857 358.893 237.107 364.965 243.536 371.215C268.714 396.215 297.107 422.465 327.464 449.607C335.143 456.214 343 463 350.857 469.965C358.714 476.75 366.75 483.715 375.143 490.5C383.536 497.286 391.929 504.072 400.321 511.036C404.607 514.429 408.893 518 413.179 521.393C417.643 524.786 421.929 528.179 426.393 531.393C435.321 538.179 444.071 544.965 453.179 551.75C457.643 555.143 462.286 558.536 466.929 561.75C471.571 564.965 476.214 568.357 480.857 571.75C485.5 575.143 490.143 578.357 494.786 581.75C499.429 585.143 504.071 588.536 509.071 591.572C518.714 598 528.357 604.429 538.179 610.857C543 614.072 547.821 617.465 552.821 620.5C557.821 623.536 562.821 626.75 567.821 629.786C577.821 635.857 587.821 642.286 598 648.357C618.536 660.143 638.893 672.286 659.964 683.179L675.679 691.572L683.536 695.679L691.571 699.607C702.107 704.786 712.821 710.143 723.357 715.322C734.071 720.5 744.786 725.143 755.5 729.964C760.857 732.286 766.214 734.786 771.571 737.107C776.929 739.429 782.286 741.572 787.821 743.893C793.179 746.036 798.536 748.357 803.893 750.5L811.929 753.893L819.964 756.929C830.679 761.036 841.571 765.143 852.107 769.072C873.714 776.572 894.964 784.072 916.214 790.322C926.75 793.536 937.286 796.929 947.821 799.607C958.357 802.464 968.714 805.5 978.893 808C989.25 810.5 999.429 813 1009.61 815.5C1019.79 818 1029.79 819.964 1039.61 822.107C1079.25 830.322 1116.93 836.572 1152.11 840.679C1187.11 844.964 1219.25 847.822 1247.82 849.25C1276.39 851.036 1301.21 851.393 1321.75 851.75C1342.29 851.929 1358.36 851.75 1369.25 851.572C1380.14 851.393 1386.04 851.215 1386.04 851.215V841.572C1385.5 842.107 1379.79 841.929 1368.71 841.393Z" fill="#365CAA"/>
<path d="M287.286 359.25C285.857 361.572 287.107 362.465 285.5 364.429C287.286 362.822 289.429 361.75 291.571 360.679C292.821 360.322 294.25 360.143 293.536 358.536C293 357.643 288.179 358.536 287.286 359.25Z" fill="#A16049"/>
<path d="M293.893 339.964C293 338.714 290.143 341.572 289.965 341.215C289.25 339.607 287.107 340.143 284.607 345.322C284.429 345.679 275.857 357.286 273.357 361.393C275.679 363.179 284.25 366.215 284.25 366.215C286.036 364.25 287.643 361.929 289.072 359.607C290.857 356.75 294.25 350.143 294.429 349.786C294.965 348.357 296.929 345.143 297.107 343.893C297.107 343.179 296.572 341.036 295.857 340.322C295.143 339.25 293.893 339.964 293.893 339.964Z" fill="#B07550"/>
<path d="M243.893 441.75C251.215 446.929 256.572 443 258.893 439.25C259.429 438.357 259.786 437.465 259.965 436.75C262.643 423 280.322 377.643 285.5 363.715C280.679 363 276.75 362.107 273.893 360.857C265.679 384.072 235.858 436.215 243.893 441.75Z" fill="#A16049"/>
<path d="M263.536 430.143C264.25 424.072 283.536 375.143 286.572 367.108L270.857 359.786C261.393 378.536 235.857 421.75 238.893 437.822C241.75 454.786 270.5 541.215 303.715 553.893C326.929 562.822 309.965 486.572 309.072 486.929C294.072 492.465 264.429 431.572 263.536 430.143Z" fill="#8E0F1B"/>
<path d="M933.893 448.357C934.072 447.107 934.608 445.679 932.822 445.679C931.75 445.679 930.322 450.322 930.679 451.393C932.108 453.714 933.536 452.822 934.608 455.322C934.072 453.179 933.893 450.679 933.893 448.357Z" fill="#FCD2C6"/>
<path d="M926.929 445.321C926.036 444.429 924.072 441.929 923.179 441.571C922.643 441.214 920.501 441.036 919.608 441.393C918.358 441.75 918.358 443 918.358 443C916.75 443.357 918 446.393 917.465 446.393C915.858 446.393 915.143 448.357 918.358 451.75C918.536 451.929 924.429 462.107 926.751 465.143C929.251 463.893 936.036 458.179 936.036 458C935.143 456.036 933.893 454.071 932.643 452.286C931.393 450.143 927.286 445.679 926.929 445.321Z" fill="#B07550"/>
<path d="M1009.79 441.393C1002.64 452.286 989.429 492.107 979.429 510.143C967.108 532.107 986.929 532.822 992.644 527.286C1008 513 1043.54 466.214 1036.93 457.464C1034.07 453.714 1011.04 439.429 1009.79 441.393Z" fill="#B07550"/>
<path d="M1009.79 441.393C1004.79 449.072 995.858 471.214 986.215 488.714C991.393 492.822 999.251 498 1005.14 501.214C1007.46 502.464 1014.61 506.75 1017.11 507.822C1031.75 489.072 1041.39 463.357 1036.93 457.464C1034.07 453.714 1011.04 439.429 1009.79 441.393Z" fill="#8E0F1B"/>
<path d="M991.036 515.322C982.286 504.25 942.465 469.429 935.143 456.393C931.572 459.607 928.358 462.107 925.5 463.357C938.001 484.25 975.144 533 984.608 530.679C993.358 528.357 993.715 521.75 992.286 517.643C991.929 516.75 991.572 515.857 991.036 515.322Z" fill="#B07550"/>
<path d="M841.202 300.085H975.265C976.756 300.085 985.676 309.065 985.676 310.556V452.831C985.676 454.365 984.44 455.6 982.907 455.6H841.202C840.606 455.6 840.137 455.132 840.137 454.535V301.108C840.137 300.554 840.606 300.085 841.202 300.085Z" fill="white"/>
<path d="M841.5 300C835.154 300 830 305.198 830 311.504V444.182C830 450.19 834.643 455.132 840.478 455.643L896.018 300H841.5Z" fill="url(#paint0_linear)"/>
<path d="M985.676 311.504C985.676 305.155 980.479 300 974.176 300H941.55L985.676 424.753V311.504Z" fill="url(#paint1_linear)"/>
<path d="M949.685 430.164H886.265L877.832 455.728H957.905L949.685 430.164Z" fill="url(#paint2_radial)"/>
<path d="M918.422 332.68L896.061 400.467H940.187L918.422 332.68Z" fill="url(#paint3_linear)"/>
<path d="M1064.79 691.215C1065.14 694.607 1074.61 866.572 1074.61 866.572C1078.89 869.965 1085.5 869.25 1085.68 869.072C1085.68 869.072 1101.21 693.715 1100.5 685.857C1096.21 689.072 1067.64 694.072 1064.79 691.215Z" fill="#FCD2C6"/>
<path d="M1085.14 866.393L1076.04 861.214C1076.04 861.214 1074.07 864.25 1072.46 866.036C1069.43 869.786 1054.43 872.286 1054.43 877.643C1054.43 880.322 1059.96 882.643 1064.43 882.822C1068.89 883 1072.82 882.822 1075.32 881.393C1078.36 879.607 1084.07 878 1084.96 876.393C1086.57 873.536 1085.32 870.322 1085.32 870.322C1085.86 867.464 1085.14 866.393 1085.14 866.393Z" fill="#284C98"/>
<path d="M1072.46 866.214C1072.46 866.214 1074.25 869.429 1077.82 871.393C1079.79 872.464 1085.5 870.5 1085.5 870.5C1086.04 867.643 1086.21 865.679 1086.21 865.679L1075.86 861.036C1075.68 860.857 1074.79 863.357 1072.46 866.214Z" fill="#B07550"/>
<path d="M1049.96 561.036C1048.36 572.821 1073.36 863.178 1073.36 863.178C1073.54 863.714 1082.46 868.536 1086.93 863.536C1086.93 863.536 1091.57 796.571 1100.68 733.536C1108.54 679.071 1111.57 566.214 1111.57 566.214C1089.43 567.464 1057.29 564.25 1049.96 561.036Z" fill="#284C98"/>
<path d="M1016.93 691.215C1017.29 694.607 1026.75 866.572 1026.75 866.572C1031.04 869.965 1037.64 869.25 1037.82 869.072C1037.82 869.072 1053.36 693.715 1052.64 685.857C1048.18 689.072 1019.61 694.072 1016.93 691.215Z" fill="#FCD2C6"/>
<path d="M1037.11 866.393L1028 861.214C1028 861.214 1026.04 864.25 1024.43 866.036C1021.39 869.786 1006.39 872.286 1006.39 877.643C1006.39 880.322 1011.93 882.643 1016.39 882.822C1020.86 883 1024.61 882.286 1027.29 881.393C1029.97 880.5 1036.04 878 1036.93 876.393C1038.54 873.536 1037.29 870.322 1037.29 870.322C1037.82 867.464 1037.11 866.393 1037.11 866.393Z" fill="#284C98"/>
<path d="M1024.43 866.214C1024.43 866.214 1026.21 869.429 1029.79 871.393C1031.75 872.464 1037.46 870.5 1037.46 870.5C1038 867.643 1038.18 865.679 1038.18 865.679L1027.82 861.036C1027.64 860.857 1026.75 863.357 1024.43 866.214Z" fill="#B07550"/>
<path d="M1001.93 561.036C1000.32 572.821 1025.32 863.178 1025.32 863.178C1025.5 863.714 1034.43 868.536 1038.89 863.536C1038.89 863.536 1043.54 796.571 1052.64 733.536C1060.5 679.071 1059.25 627.286 1063.54 623.893V566.036C1041.39 567.464 1009.43 564.25 1001.93 561.036Z" fill="#284C98"/>
<path d="M1000.32 556.215C1000.32 556.215 993.358 589.965 996.751 593C1004.43 599.607 1033.18 593.536 1054.96 590.857C1076.75 588.179 1117.11 592.643 1118.18 588.179C1121.04 576.215 1115.68 549.607 1115.68 549.607L1000.32 556.215Z" fill="url(#paint4_linear)"/>
<path d="M1057.11 398.714C1055.5 399.786 1039.61 408.714 1034.96 408C1034.96 409.25 1038 422.643 1035.14 429.786C1036.39 436.393 1054.96 436.572 1059.96 425.143C1058 421.929 1056.21 404.786 1057.11 398.714Z" fill="#B07550"/>
<path d="M1040.32 376.572C1031.93 376.036 1023.89 378 1021.93 385.857C1021.21 388.714 1022.46 414.25 1036.21 418.179C1041.93 419.786 1053.18 409.964 1053.54 403.179C1053.54 403.179 1054.25 394.072 1054.25 393.893C1054.79 384.964 1049.43 377.107 1040.32 376.572Z" fill="#B07550"/>
<path d="M1104.07 455.143C1098.89 441.036 1093 433.536 1078.89 430.143C1074.25 429.072 1060.14 425.143 1060.14 425.143C1060.14 425.143 1050.14 433.714 1043.54 434.25C1039.07 434.607 1035.14 429.786 1035.14 429.786C1035.14 429.786 1018.89 434.786 1015.86 436.393C1004.43 443 1004.25 454.25 1003.54 463.536C996.929 556.393 992.643 569.965 995.5 575.143C1002.64 587.643 1120.86 579.429 1118.71 563.893C1111.57 512.107 1105.68 459.607 1104.07 455.143Z" fill="#BB2629"/>
<path d="M1010.51 465.011H1028.6C1028.8 465.011 1030 466.223 1030 466.424V485.619C1030 485.826 1029.84 485.993 1029.63 485.993H1010.51C1010.43 485.993 1010.37 485.93 1010.37 485.849V465.149C1010.37 465.074 1010.43 465.011 1010.51 465.011Z" fill="white"/>
<path d="M1010.55 465C1009.7 465 1009 465.702 1009 466.553V484.453C1009 485.264 1009.63 485.931 1010.41 486L1017.91 465H1010.55Z" fill="url(#paint5_linear)"/>
<path d="M1030 466.552C1030 465.696 1029.3 465 1028.45 465H1024.05L1030 481.831V466.552Z" fill="url(#paint6_linear)"/>
<path d="M1025.15 482.562H1016.59L1015.45 486.011H1026.26L1025.15 482.562Z" fill="url(#paint7_radial)"/>
<path d="M1020.93 469.409L1017.91 478.555H1023.87L1020.93 469.409Z" fill="url(#paint8_linear)"/>
<path d="M1059.25 372.286C1046.93 361.215 1028 373 1028 373C1013.54 375.679 1016.75 396.929 1023.36 399.965C1020.14 384.429 1030.86 379.429 1030.86 379.429C1050.5 379.072 1057.29 402.465 1055.86 408.536C1055.86 408.536 1077.64 389.072 1059.25 372.286Z" fill="#284C98"/>
<path d="M1053.89 390.321C1053 390.321 1051.39 390.678 1050.14 391.571C1051.04 394.607 1053 399.428 1054.07 401.928C1056.22 401.214 1058.72 397.821 1058.72 395.678C1058.54 393.357 1056.22 390.321 1053.89 390.321Z" fill="#B07550"/>
<path d="M951.215 385.321C950.144 385.321 948.894 389.964 949.251 391.036C950.858 393.357 952.108 392.464 953.179 394.964C952.465 392.643 952.286 390.321 952.286 387.821C952.465 386.571 952.822 385.143 951.215 385.321Z" fill="#B07550"/>
<path d="M943.179 380.5C942.108 379.428 939.965 376.214 938.893 375.678C938.179 375.321 936.036 374.964 935.143 375.321C934.072 375.857 934.072 377.107 934.072 377.107C932.465 377.464 933.893 381.214 933.536 381.214C931.929 381.214 931.215 383.357 935.143 387.821C935.322 388 942.465 400.857 945.143 404.786C947.643 403.357 954.072 396.928 954.072 396.75C953 394.428 951.572 391.928 949.965 389.607C948.179 386.75 943.536 381.036 943.179 380.5Z" fill="#B07550"/>
<path d="M1083.89 440.143C1070.86 439.428 1029.79 448.178 1009.25 448.535C984.072 449.071 993.357 466.393 1001.04 468.714C1021.21 474.785 1079.43 481.928 1083.71 471.75C1085.5 467.464 1086.21 440.321 1083.89 440.143Z" fill="#B07550"/>
<path d="M1083.89 440.143C1075.5 436.571 1051.04 443 1031.04 443.714C1027.82 452.464 1026.93 468.179 1030.14 479.964C1053.71 483.179 1074.96 481.214 1081.57 478.179C1098.71 470.321 1094.79 444.786 1083.89 440.143Z" fill="#8E0F1B"/>
<path d="M1010.5 453.893C1001.57 443 961.214 408.714 953.714 395.857C950.143 399.071 946.929 401.571 944.25 403C957.107 423.714 994.964 471.928 1004.43 469.25C1013 466.928 1013.36 460.143 1011.93 456.036C1011.39 455.321 1010.86 454.607 1010.5 453.893Z" fill="#B07550"/>
<path d="M1105.86 386.214C1101.75 329.25 1055.5 353.357 1056.57 368.179C1056.75 371.929 1058.89 374.071 1061.93 370.143C1066.93 363.536 1085.14 357.821 1074.61 392.464C1071.75 401.571 1059.96 413.357 1085.86 429.964C1109.25 444.964 1089.96 450.679 1091.21 457.464C1094.61 475.143 1140.5 436.75 1116.21 410.143C1111.21 404.786 1107.11 403.357 1105.86 386.214Z" fill="#284C98"/>
<path d="M1059.43 367.107C1058.18 366.393 1057.11 366.214 1056.04 366.214C1053.54 366.393 1051.75 368.357 1051.75 368.357C1057.64 370.321 1062.64 375.857 1062.64 375.857C1064.07 372.821 1063.89 369.786 1059.43 367.107Z" fill="#1D3878"/>
<path d="M441.786 117.22L454.841 109.314C454.986 109.226 456.384 109.575 456.472 109.72L464.862 123.575C464.952 123.724 464.905 123.917 464.756 124.008L450.956 132.364C450.898 132.399 450.825 132.381 450.79 132.323L441.742 117.382C441.71 117.328 441.728 117.255 441.786 117.22Z" fill="white"/>
<path d="M441.81 117.194C441.192 117.568 440.996 118.378 441.368 118.992L449.192 131.912C449.546 132.497 450.29 132.705 450.888 132.411L447.119 113.979L441.81 117.194Z" fill="url(#paint9_linear)"/>
<path d="M456.528 109.812C456.154 109.194 455.344 108.998 454.73 109.37L451.553 111.294L463.206 120.84L456.528 109.812Z" fill="url(#paint10_linear)"/>
<path d="M460.02 123.49L453.845 127.23L454.531 130.216L462.328 125.495L460.02 123.49Z" fill="url(#paint11_radial)"/>
<path d="M451.227 115.84L453.047 123.76L457.344 121.158L451.227 115.84Z" fill="url(#paint12_linear)"/>
<path d="M66.4876 432.011H84.2927C84.4907 432.011 85.6753 433.204 85.6753 433.402V452.298C85.6753 452.501 85.5113 452.665 85.3077 452.665H66.4876C66.4084 452.665 66.3462 452.603 66.3462 452.524V432.147C66.3462 432.073 66.4084 432.011 66.4876 432.011Z" fill="white"/>
<path d="M66.5273 432C65.6845 432 65 432.69 65 433.528V451.149C65 451.947 65.6166 452.603 66.3916 452.671L73.768 432H66.5273Z" fill="url(#paint13_linear)"/>
<path d="M85.6753 433.528C85.6753 432.685 84.9852 432 84.148 432H79.8149L85.6753 448.569V433.528Z" fill="url(#paint14_linear)"/>
<path d="M80.8955 449.287H72.4726L71.3525 452.682H81.9873L80.8955 449.287Z" fill="url(#paint15_radial)"/>
<path d="M76.7432 436.34L73.7734 445.343H79.6338L76.7432 436.34Z" fill="url(#paint16_linear)"/>
<defs>
<linearGradient id="paint0_linear" x1="820.803" y1="360.635" x2="876.455" y2="381.03" gradientUnits="userSpaceOnUse">
<stop stop-color="#284C98"/>
<stop offset="0.3503" stop-color="#284B96"/>
<stop offset="0.5383" stop-color="#294A90"/>
<stop offset="0.6878" stop-color="#2A4887"/>
<stop offset="0.817" stop-color="#2B467B"/>
<stop offset="0.932" stop-color="#2B426C"/>
<stop offset="1" stop-color="#2A3F61"/>
</linearGradient>
<linearGradient id="paint1_linear" x1="997.005" y1="349.18" x2="955.963" y2="365.378" gradientUnits="userSpaceOnUse">
<stop offset="0.0737432" stop-color="#BE1E2D"/>
<stop offset="0.4211" stop-color="#BE1F2D"/>
<stop offset="0.5462" stop-color="#BA202E"/>
<stop offset="0.6354" stop-color="#B52230"/>
<stop offset="0.7075" stop-color="#AD2532"/>
<stop offset="0.7693" stop-color="#A12835"/>
<stop offset="0.823" stop-color="#932C39"/>
<stop offset="0.8678" stop-color="#85303D"/>
</linearGradient>
<radialGradient id="paint2_radial" cx="0" cy="0" r="1" gradientUnits="userSpaceOnUse" gradientTransform="translate(917.877 442.933) scale(29.7082 17.831)">
<stop stop-color="#284C98"/>
<stop offset="0.4669" stop-color="#274B96"/>
<stop offset="0.7175" stop-color="#244992"/>
<stop offset="0.9162" stop-color="#20458D"/>
<stop offset="1" stop-color="#1E4389"/>
</radialGradient>
<linearGradient id="paint3_linear" x1="918.121" y1="383.191" x2="918.121" y2="339.065" gradientUnits="userSpaceOnUse">
<stop offset="0.0749372" stop-color="#284C98"/>
<stop offset="0.2803" stop-color="#274994"/>
<stop offset="0.5865" stop-color="#24448B"/>
<stop offset="0.9542" stop-color="#1F3B7B"/>
<stop offset="1" stop-color="#1E3979"/>
</linearGradient>
<linearGradient id="paint4_linear" x1="995.736" y1="572.73" x2="1118.87" y2="572.73" gradientUnits="userSpaceOnUse">
<stop stop-color="#1649A0"/>
</linearGradient>
<linearGradient id="paint5_linear" x1="1007.76" y1="473.181" x2="1015.27" y2="475.933" gradientUnits="userSpaceOnUse">
<stop stop-color="#284C98"/>
<stop offset="0.3503" stop-color="#284B96"/>
<stop offset="0.5383" stop-color="#294A90"/>
<stop offset="0.6878" stop-color="#2A4887"/>
<stop offset="0.817" stop-color="#2B467B"/>
<stop offset="0.932" stop-color="#2B426C"/>
<stop offset="1" stop-color="#2A3F61"/>
</linearGradient>
<linearGradient id="paint6_linear" x1="1031.53" y1="471.635" x2="1025.99" y2="473.821" gradientUnits="userSpaceOnUse">
<stop offset="0.0737432" stop-color="#BE1E2D"/>
<stop offset="0.4211" stop-color="#BE1F2D"/>
<stop offset="0.5462" stop-color="#BA202E"/>
<stop offset="0.6354" stop-color="#B52230"/>
<stop offset="0.7075" stop-color="#AD2532"/>
<stop offset="0.7693" stop-color="#A12835"/>
<stop offset="0.823" stop-color="#932C39"/>
<stop offset="0.8678" stop-color="#85303D"/>
</linearGradient>
<radialGradient id="paint7_radial" cx="0" cy="0" r="1" gradientUnits="userSpaceOnUse" gradientTransform="translate(1020.86 484.284) scale(4.00817 2.40572)">
<stop stop-color="#284C98"/>
<stop offset="0.4669" stop-color="#274B96"/>
<stop offset="0.7175" stop-color="#244992"/>
<stop offset="0.9162" stop-color="#20458D"/>
<stop offset="1" stop-color="#1E4389"/>
</radialGradient>
<linearGradient id="paint8_linear" x1="1020.89" y1="476.224" x2="1020.89" y2="470.271" gradientUnits="userSpaceOnUse">
<stop offset="0.0749372" stop-color="#284C98"/>
<stop offset="0.2803" stop-color="#274994"/>
<stop offset="0.5865" stop-color="#24448B"/>
<stop offset="0.9542" stop-color="#1F3B7B"/>
<stop offset="1" stop-color="#1E3979"/>
</linearGradient>
<linearGradient id="paint9_linear" x1="443.37" y1="124.319" x2="449.992" y2="123.023" gradientUnits="userSpaceOnUse">
<stop stop-color="#284C98"/>
<stop offset="0.3503" stop-color="#284B96"/>
<stop offset="0.5383" stop-color="#294A90"/>
<stop offset="0.6878" stop-color="#2A4887"/>
<stop offset="0.817" stop-color="#2B467B"/>
<stop offset="0.932" stop-color="#2B426C"/>
<stop offset="1" stop-color="#2A3F61"/>
</linearGradient>
<linearGradient id="paint10_linear" x1="459.853" y1="112.813" x2="456.812" y2="116.81" gradientUnits="userSpaceOnUse">
<stop offset="0.0737432" stop-color="#BE1E2D"/>
<stop offset="0.4211" stop-color="#BE1F2D"/>
<stop offset="0.5462" stop-color="#BA202E"/>
<stop offset="0.6354" stop-color="#B52230"/>
<stop offset="0.7075" stop-color="#AD2532"/>
<stop offset="0.7693" stop-color="#A12835"/>
<stop offset="0.823" stop-color="#932C39"/>
<stop offset="0.8678" stop-color="#85303D"/>
</linearGradient>
<radialGradient id="paint11_radial" cx="0" cy="0" r="1" gradientUnits="userSpaceOnUse" gradientTransform="translate(457.676 126.609) rotate(-31.1974) scale(3.38205 2.02992)">
<stop stop-color="#284C98"/>
<stop offset="0.4669" stop-color="#274B96"/>
<stop offset="0.7175" stop-color="#244992"/>
<stop offset="0.9162" stop-color="#20458D"/>
<stop offset="1" stop-color="#1E4389"/>
</radialGradient>
<linearGradient id="paint12_linear" x1="454.177" y1="120.777" x2="451.575" y2="116.48" gradientUnits="userSpaceOnUse">
<stop offset="0.0749372" stop-color="#284C98"/>
<stop offset="0.2803" stop-color="#274994"/>
<stop offset="0.5865" stop-color="#24448B"/>
<stop offset="0.9542" stop-color="#1F3B7B"/>
<stop offset="1" stop-color="#1E3979"/>
</linearGradient>
<linearGradient id="paint13_linear" x1="63.7785" y1="440.053" x2="71.1697" y2="442.762" gradientUnits="userSpaceOnUse">
<stop stop-color="#284C98"/>
<stop offset="0.3503" stop-color="#284B96"/>
<stop offset="0.5383" stop-color="#294A90"/>
<stop offset="0.6878" stop-color="#2A4887"/>
<stop offset="0.817" stop-color="#2B467B"/>
<stop offset="0.932" stop-color="#2B426C"/>
<stop offset="1" stop-color="#2A3F61"/>
</linearGradient>
<linearGradient id="paint14_linear" x1="87.18" y1="438.532" x2="81.7291" y2="440.683" gradientUnits="userSpaceOnUse">
<stop offset="0.0737432" stop-color="#BE1E2D"/>
<stop offset="0.4211" stop-color="#BE1F2D"/>
<stop offset="0.5462" stop-color="#BA202E"/>
<stop offset="0.6354" stop-color="#B52230"/>
<stop offset="0.7075" stop-color="#AD2532"/>
<stop offset="0.7693" stop-color="#A12835"/>
<stop offset="0.823" stop-color="#932C39"/>
<stop offset="0.8678" stop-color="#85303D"/>
</linearGradient>
<radialGradient id="paint15_radial" cx="0" cy="0" r="1" gradientUnits="userSpaceOnUse" gradientTransform="translate(76.6711 450.983) scale(3.94559 2.36816)">
<stop stop-color="#284C98"/>
<stop offset="0.4669" stop-color="#274B96"/>
<stop offset="0.7175" stop-color="#244992"/>
<stop offset="0.9162" stop-color="#20458D"/>
<stop offset="1" stop-color="#1E4389"/>
</radialGradient>
<linearGradient id="paint16_linear" x1="76.7032" y1="443.049" x2="76.7032" y2="437.188" gradientUnits="userSpaceOnUse">
<stop offset="0.0749372" stop-color="#284C98"/>
<stop offset="0.2803" stop-color="#274994"/>
<stop offset="0.5865" stop-color="#24448B"/>
<stop offset="0.9542" stop-color="#1F3B7B"/>
<stop offset="1" stop-color="#1E3979"/>
</linearGradient>
</defs>
</svg>
