<svg width="294" height="202" viewBox="0 0 294 202" fill="none" xmlns="http://www.w3.org/2000/svg">
<path d="M170.838 154.707C170.838 154.707 159.018 196.932 147.197 198.616C135.377 200.3 152.266 136.13 153.949 129.943C155.651 123.739 170.838 154.707 170.838 154.707Z" fill="#C66A4A"/>
<path d="M139.81 33.3443C139.81 33.3443 131.912 19.2763 135.302 11.9588C138.674 4.64124 149.961 -4.92645 160.662 2.9582C171.363 10.8428 177.007 8.02559 182.082 5.20834C187.158 2.39109 194.322 -1.46891 210.264 5.77545C228.863 14.2089 220.965 44.0279 211.95 51.3454C202.935 58.663 219.279 60.346 238.428 59.2301C257.594 58.1141 290.265 65.4134 293.655 86.2318C295.213 95.8178 293.655 145.87 241.249 132.369C188.844 118.868 159.544 159.938 126.287 107.617C114.926 89.7259 153.332 47.4122 139.81 33.3443Z" fill="url(#paint0_linear)"/>
<path d="M191.507 84.785C191.507 84.785 179.242 81.9692 167.557 92.0989C155.853 102.229 148.987 130.899 148.987 130.899L172.756 163.885L197.087 132.015C197.087 132.033 212.686 81.9875 191.507 84.785Z" fill="#FCB321"/>
<path d="M157.711 56.6145C157.711 56.6145 153.262 67.2679 153.823 70.6427C154.383 74.0174 158.832 84.1053 158.832 84.1053L137.148 168.256C137.148 168.256 136.027 190.694 142.158 196.312C148.27 201.931 148.831 199.669 153.841 195.199C158.85 190.712 163.299 127.886 164.963 105.996C166.627 84.1235 168.851 75.6957 168.851 75.6957C168.851 75.6957 163.281 72.3209 161.057 71.2082C158.814 70.0771 158.272 58.2928 157.711 56.6145Z" fill="#CE8679"/>
<path d="M164.879 54.7038C166.567 55.8246 181.821 70.5236 181.252 87.4825C180.683 104.441 179.563 104.441 180.114 110.082C180.683 115.741 178.425 133.251 191.403 142.861C195.056 145.562 200.434 114.602 205.519 98.7823C209.319 86.9313 216.808 86.9129 200.434 72.2323C184.061 57.5333 181.234 43.4223 180.114 36.0728C178.994 28.7233 164.879 54.7038 164.879 54.7038Z" fill="#CE8679"/>
<path d="M215.004 83.6936C215.004 83.6936 228.756 71.0609 250.427 124.9C254.925 136.078 279.101 199.642 279.101 199.642H185.744C185.744 199.642 177.314 163.47 172.815 151.165C168.317 138.859 180.697 89.3829 180.697 89.3829L181.831 121.846C181.813 121.846 203.191 66.7349 215.004 83.6936Z" fill="url(#paint1_linear)"/>
<path d="M229.439 127.134L208.664 195.086C208.664 195.086 205.853 201.825 189.569 196.766C170.401 190.813 110.413 177.117 110.413 177.117C110.413 177.117 107.601 179.929 103.676 184.988C99.7515 190.046 90.7697 185.828 90.7697 185.828L85.147 190.046C85.147 190.046 79.9624 193.132 77.5709 193.132C75.8914 193.132 96.3742 175.437 96.3742 175.437L116.857 168.972L185.626 175.437L203.589 114.223L229.439 127.134Z" fill="#CE8679"/>
<path d="M49.9637 169.159C50.2728 170.364 51.4914 171.076 52.6918 170.766L61.8946 168.356C63.095 168.045 63.8043 166.822 63.4951 165.618L28.5024 31.4767C28.1932 30.2719 26.9747 29.5599 25.7743 29.8702L16.5714 32.28C15.3711 32.5903 14.6617 33.8134 14.9709 35.0183L49.9637 169.159Z" fill="#1649A0"/>
<path fill-rule="evenodd" clip-rule="evenodd" d="M53.325 167.472L17.5242 32.7769L14.8987 33.4564L50.6981 168.147C50.6983 168.148 50.6986 168.149 50.6988 168.15C51.2064 170.085 53.2 171.215 55.1414 170.723L55.1454 170.721L64.5608 168.302L63.8767 165.71L54.4654 168.128C54.4648 168.128 54.4641 168.129 54.4635 168.129C53.9503 168.258 53.4525 167.96 53.3264 167.478L53.3257 167.475L53.325 167.472Z" fill="#1D3878"/>
<path fill-rule="evenodd" clip-rule="evenodd" d="M36.5096 103.281C36.5098 103.28 36.5099 103.28 33.9891 102.295C31.4683 101.31 31.4682 101.31 31.4679 101.311L31.3781 101.535C31.3187 101.684 31.2307 101.904 31.116 102.191C30.8865 102.765 30.5501 103.607 30.122 104.682C29.2659 106.832 28.0431 109.911 26.5757 113.629C23.6414 121.064 19.728 131.059 15.8138 141.293C11.9012 151.523 7.98078 162.009 5.03589 170.421C3.56452 174.624 2.32744 178.335 1.45515 181.248C1.01954 182.703 0.666389 183.987 0.419785 185.05C0.188103 186.048 1.52588e-05 187.053 1.52588e-05 187.855C1.52588e-05 193.652 2.39618 197.204 5.05411 199.24C6.33168 200.219 7.60264 200.797 8.55696 201.134C9.03687 201.304 9.44601 201.415 9.74945 201.486C9.9015 201.522 10.0281 201.548 10.1249 201.566C10.1733 201.575 10.2144 201.582 10.2477 201.588C10.2547 201.589 10.2613 201.59 10.2675 201.591C10.2763 201.592 10.2843 201.594 10.2917 201.595L10.3092 201.598L10.3167 201.599L10.3203 201.599C10.3219 201.599 10.3236 201.6 10.7211 198.953L10.3236 201.6L10.5213 201.629H46.6824V196.277H10.9921C10.8568 196.244 10.645 196.187 10.3821 196.094C9.83456 195.901 9.10302 195.567 8.37808 195.012C7.03101 193.98 5.42217 191.983 5.42217 187.855C5.42217 187.711 5.47844 187.221 5.70493 186.245C5.9165 185.334 6.23534 184.167 6.65498 182.765C7.49321 179.966 8.69973 176.342 10.1607 172.169C13.0804 163.829 16.9795 153.399 20.8864 143.184C24.7917 132.973 28.6978 122.997 31.6281 115.571C33.0931 111.859 34.3139 108.786 35.1682 106.64C35.5954 105.568 35.931 104.727 36.1597 104.155C36.2741 103.869 36.3617 103.65 36.4207 103.503L36.5096 103.281Z" fill="#1649A0"/>
<path d="M56.6149 199.642V197.865C56.6149 196.68 56.7811 196.662 58.0371 196.662H114.28C115.536 196.662 118.196 196.68 118.196 197.865V199.642H56.6149Z" fill="#BE202E"/>
<path d="M58 197.882V196.092C58 194.899 58.0189 194.882 58.1617 194.882H64.5549C64.6977 194.882 65 194.899 65 196.092V197.882H58Z" fill="#BE202E"/>
<path d="M66 197.882V196.092C66 194.899 66.0189 194.882 66.1617 194.882H72.5549C72.6977 194.882 73 194.899 73 196.092V197.882H66Z" fill="#BE202E"/>
<path d="M74 197.882V196.092C74 194.899 74.0189 194.882 74.1617 194.882H80.5549C80.6977 194.882 81 194.899 81 196.092V197.882H74Z" fill="#BE202E"/>
<path d="M82 197.882V196.092C82 194.899 82.0189 194.882 82.1617 194.882H88.5549C88.6977 194.882 89 194.899 89 196.092V197.882H82Z" fill="#BE202E"/>
<path d="M90 197.882V196.092C90 194.899 90.0189 194.882 90.1617 194.882H96.5549C96.6977 194.882 97 194.899 97 196.092V197.882H90Z" fill="#BE202E"/>
<path d="M98 197.882V196.092C98 194.899 98.0189 194.882 98.1617 194.882H104.555C104.698 194.882 105 194.899 105 196.092V197.882H98Z" fill="#BE202E"/>
<path d="M106 197.882V196.092C106 194.899 106.019 194.882 106.162 194.882H112.555C112.698 194.882 113 194.899 113 196.092V197.882H106Z" fill="#BE202E"/>
<path d="M179.913 36.0782C180.692 41.2441 182.304 49.731 188.716 59.4171C188.463 72.295 185.546 84.0843 180.8 93.3645C180.891 91.7225 180.964 89.8407 181.036 87.7189C181.597 70.6899 166.545 55.9485 164.878 54.8047C164.878 54.7862 178.808 28.6983 179.913 36.0782Z" fill="#C66A4A"/>
<path d="M154.946 63.3597C156.088 59.8974 157.506 56.6145 157.506 56.6145C158.077 58.2649 158.648 69.8538 160.913 70.966C163.179 72.0603 168.851 75.3791 168.851 75.3791C168.851 75.3791 167.949 78.6441 166.862 86.4118C160.784 81.8193 156.309 73.4058 154.946 63.3597Z" fill="#C66A4A"/>
<path d="M156.919 14.8987C156.919 14.8987 150.178 30.2288 152.425 42.733C154.672 55.2372 156.352 68.8681 162.545 73.9658C168.72 79.082 174.236 70.4196 182.201 60.9075C188.376 53.5195 194.148 40.7937 190.623 38.7619C182.749 34.2183 184.448 43.8781 183.315 45.0048C180.502 47.8492 179.936 33.6458 181.069 31.9465C186.878 23.1548 163.659 36.4901 156.919 14.8987Z" fill="#CE8679"/>
<path fill-rule="evenodd" clip-rule="evenodd" d="M158.201 33.2308C158.026 32.7421 158.283 32.2181 158.775 32.0604L159.091 32.9453C158.775 32.0604 158.775 32.0604 158.775 32.0604L158.782 32.058L158.801 32.052C158.818 32.0469 158.841 32.0395 158.871 32.0303C158.931 32.0117 159.017 31.9854 159.125 31.9534C159.34 31.8895 159.643 31.8026 159.996 31.7102C160.692 31.5277 161.617 31.3138 162.449 31.2204C163.282 31.127 164.318 31.1214 165.118 31.1361C165.524 31.1435 165.881 31.1565 166.136 31.1676C166.264 31.1732 166.366 31.1783 166.438 31.1821C166.473 31.1839 166.501 31.1855 166.52 31.1866L166.542 31.1878L166.551 31.1883C166.551 31.1883 166.551 31.1883 166.521 32.1164L166.551 31.1883C167.073 31.2197 167.353 32.1831 167.353 32.1831C167.353 32.1831 167.013 33.0758 166.491 33.0445L166.486 33.0442L166.467 33.0431C166.451 33.0421 166.425 33.0407 166.392 33.039C166.326 33.0355 165.976 32.9111 165.854 32.9058C165.611 32.8952 165.525 33.0025 165.139 32.9954C164.354 32.9809 163.421 32.9892 162.718 33.0682C162.022 33.1462 161.2 33.3329 160.532 33.508C160.203 33.5944 159.919 33.6757 159.719 33.7352C159.619 33.7649 159.54 33.7891 159.486 33.8056C159.459 33.8139 159.439 33.8203 159.426 33.8245L159.411 33.8291L159.408 33.8302C158.916 33.9878 158.376 33.7195 158.201 33.2308Z" fill="#162B4D"/>
<path fill-rule="evenodd" clip-rule="evenodd" d="M152.606 38.0254C152.438 37.5974 152.484 37.1287 152.71 36.9788L153.015 37.7539C152.71 36.9788 152.71 36.9788 152.71 36.9788L152.714 36.9764L152.723 36.9707C152.73 36.9658 152.741 36.9588 152.755 36.95C152.782 36.9323 152.822 36.9072 152.872 36.8765C152.972 36.8154 153.113 36.7321 153.278 36.6427C153.604 36.4664 154.043 36.2573 154.453 36.1567C154.864 36.0561 155.392 36.0287 155.804 36.0243C156.013 36.0221 156.197 36.0258 156.329 36.0301C156.396 36.0322 156.449 36.0345 156.486 36.0363C156.505 36.0372 156.519 36.0379 156.529 36.0385L156.54 36.0391L156.545 36.0394C156.545 36.0394 156.545 36.0394 156.679 36.8601L156.545 36.0394C156.817 36.0558 157.115 36.9011 157.115 36.9011C157.115 36.9011 157.085 37.6973 156.814 37.6809L156.811 37.6808L156.801 37.6802C156.793 37.6797 156.779 37.6791 156.762 37.6782C156.728 37.6766 156.529 37.5742 156.466 37.5722C156.34 37.5681 156.313 37.6648 156.114 37.6669C155.711 37.6711 155.236 37.6987 154.888 37.7837C154.545 37.8678 154.156 38.0505 153.842 38.2198C153.688 38.3033 153.556 38.3813 153.463 38.4382C153.417 38.4666 153.38 38.4897 153.356 38.5055C153.343 38.5134 153.334 38.5195 153.328 38.5235L153.321 38.5279L153.319 38.5289C153.093 38.6789 152.774 38.4535 152.606 38.0254Z" fill="#162B4D"/>
<path fill-rule="evenodd" clip-rule="evenodd" d="M166.538 39.3684C167.669 40.4035 168.645 42.035 169.149 44.0287C169.654 46.0247 169.584 47.9405 169.095 49.4161C168.604 50.8965 167.725 51.8573 166.648 52.1505L166.647 52.1508C165.58 52.4433 164.355 52.0562 163.219 51.0167C162.087 49.9816 161.111 48.3501 160.607 46.3565C160.103 44.3604 160.172 42.4446 160.662 40.9691C161.153 39.4886 162.031 38.5279 163.109 38.2346L163.11 38.2343C164.177 37.9419 165.401 38.3289 166.538 39.3684ZM167.426 38.3282C166.075 37.0924 164.403 36.4438 162.767 36.8921C161.122 37.3401 159.978 38.7545 159.393 40.5184C158.806 42.2875 158.748 44.4855 159.31 46.708C159.872 48.9327 160.975 50.8166 162.33 52.057C163.682 53.2928 165.353 53.9413 166.99 53.493C168.634 53.045 169.779 51.6307 170.364 49.8667C170.95 48.0977 171.009 45.8996 170.447 43.6772C169.885 41.4524 168.782 39.5686 167.426 38.3282Z" fill="#1649A0"/>
<path fill-rule="evenodd" clip-rule="evenodd" d="M153.627 39.3688C154.759 40.4038 155.734 42.035 156.238 44.0287C156.743 46.0247 156.673 47.9405 156.184 49.4161C155.693 50.8965 154.815 51.8573 153.739 52.1505L153.738 52.1508C152.671 52.4433 151.447 52.0562 150.312 51.0167C149.181 49.9816 148.206 48.3501 147.702 46.3565L147.701 46.3536L147.701 46.3536C147.189 44.3593 147.258 42.4444 147.747 40.9691C148.238 39.4881 149.116 38.5274 150.184 38.2345C151.261 37.9413 152.49 38.3301 153.627 39.3688ZM154.513 38.3277C153.16 37.0911 151.485 36.4444 149.842 36.892L149.841 36.8922C148.207 37.3405 147.064 38.755 146.479 40.5184C145.893 42.2873 145.834 44.4857 146.405 46.7094C146.968 48.9335 148.069 50.8168 149.424 52.057C150.774 53.2928 152.445 53.9413 154.08 53.493C155.724 53.045 156.867 51.6307 157.452 49.8667C158.038 48.0977 158.097 45.8996 157.535 43.6772C156.973 41.4524 155.871 39.5683 154.513 38.3277Z" fill="#1649A0"/>
<path fill-rule="evenodd" clip-rule="evenodd" d="M147.723 41.6131C148.206 40.2079 149.071 39.296 150.131 39.0177L149.795 37.7433C148.176 38.1683 147.049 39.5109 146.473 41.1854C145.896 42.8644 145.838 44.9508 146.391 47.0602C146.945 49.1718 148.03 50.9599 149.365 52.1372C150.695 53.3104 152.342 53.9259 153.953 53.5001L153.615 52.2263C152.564 52.5039 151.359 52.1366 150.24 51.1499C149.126 50.1674 148.165 48.6189 147.669 46.7266C147.172 44.832 147.241 43.0136 147.723 41.6131Z" fill="white"/>
<path fill-rule="evenodd" clip-rule="evenodd" d="M183.312 37.7433L167.858 43.4225L168.296 44.696L183.75 39.0168L183.312 37.7433Z" fill="#1649A0"/>
<path d="M177.337 188.39C192.464 191.218 203.142 192.973 210.568 191.162L209.391 195.043C209.391 195.043 206.561 201.863 190.166 196.744C172.154 191.125 118.301 178.65 111.243 177.023C114.497 175.36 149.841 183.252 177.337 188.39Z" fill="#C66A4A"/>
<path d="M125.299 166.876L128.044 167.543L122.969 188.379L120.224 187.712L125.299 166.876Z" fill="#1649A0"/>
<path d="M129.79 167.587L132.591 167.955L129.77 189.36L126.97 188.993L129.79 167.587Z" fill="#BE202E"/>
<path d="M224.776 145.013C216.403 141.859 204.697 138.125 196.662 138.288L201.85 121.176L229.439 130.294L224.776 145.013Z" fill="#C66A4A"/>
<path d="M240.5 142.382C222.74 159.162 194.676 127.07 194.676 127.07C194.676 127.07 195.244 91.0977 202.574 77.608C206.312 70.7169 215.73 71.2653 230.756 88.8494C243.693 104.021 258.728 125.159 240.5 142.382Z" fill="#FCB321"/>
<path fill-rule="evenodd" clip-rule="evenodd" d="M156.096 56.207C155.616 57.0904 157.055 57.5321 157.774 57.6793C158.013 57.6793 158.612 57.8266 158.972 57.9738C159.571 58.121 160.17 58.121 160.77 57.9738C161.129 57.8266 161.728 57.8265 161.968 57.6793C162.687 57.6793 163.885 57.2376 163.646 56.207C163.526 55.7652 161.608 54.8818 159.691 54.8818C157.893 54.8818 156.455 55.618 156.096 56.207Z" fill="#C66A4A"/>
<path fill-rule="evenodd" clip-rule="evenodd" d="M167.598 68.7891C167.731 68.1859 166.834 68.1428 166.397 68.1653C166.259 68.2023 165.891 68.2063 165.66 68.1735C165.292 68.1776 164.948 68.2699 164.627 68.4504C164.444 68.594 164.099 68.6863 163.985 68.8115C163.572 68.9222 162.954 69.3715 163.257 69.9522C163.397 70.1984 164.641 70.4323 165.743 70.137C166.777 69.86 167.485 69.1974 167.598 68.7891Z" fill="#C66A4A"/>
<path d="M165.032 49.3514C166.082 49.2616 166.878 47.8535 166.808 46.2062C166.739 44.5589 165.831 43.2963 164.781 43.3861C163.73 43.4758 162.935 44.884 163.004 46.5312C163.073 48.1785 163.981 49.4411 165.032 49.3514Z" fill="#203858"/>
<path d="M154.032 49.3514C155.082 49.2616 155.878 47.8535 155.808 46.2062C155.739 44.5589 154.831 43.2963 153.781 43.3861C152.73 43.4758 151.935 44.884 152.004 46.5312C152.073 48.1785 152.981 49.4411 154.032 49.3514Z" fill="#203858"/>
<path d="M160.029 65.136C160.226 66.3992 162.188 67.1385 164.413 66.7997C166.637 66.4608 168.207 64.7355 167.978 63.4724C167.782 62.2093 165.361 63.3184 163.137 63.6265C160.913 63.9653 159.8 63.8729 160.029 65.136Z" fill="white"/>
<defs>
<linearGradient id="paint0_linear" x1="143.5" y1="2.38183" x2="276" y2="137.382" gradientUnits="userSpaceOnUse">
<stop stop-color="#1D3878"/>
<stop offset="0.0001" stop-color="#27468F"/>
<stop offset="0.333333" stop-color="#172C52"/>
<stop offset="1" stop-color="#162B4D"/>
</linearGradient>
<linearGradient id="paint1_linear" x1="225.466" y1="80.4524" x2="225.466" y2="199.642" gradientUnits="userSpaceOnUse">
<stop stop-color="#FAA31B"/>
<stop offset="0.864583" stop-color="#FAA31B"/>
<stop offset="1" stop-color="#FAA31B" stop-opacity="0"/>
</linearGradient>
</defs>
</svg>
