<svg width="678" height="678" viewBox="0 0 678 678" fill="none" xmlns="http://www.w3.org/2000/svg">
<g opacity="0.11">
<path d="M107.299 247.75L104.211 255.832L217.841 286.273L220.643 280.443C230.826 259.285 247.165 241.697 267.518 229.987C287.831 218.207 311.231 212.843 334.648 214.601L341.097 215.086L371.525 101.456L362.981 100.092C309.891 91.666 255.518 101.713 208.944 128.553C162.418 155.48 126.539 197.554 107.299 247.75ZM351.909 114.311L329.311 198.698C304.914 198.073 280.82 204.222 259.706 216.461C238.557 228.634 221.195 246.428 209.546 267.87L125.16 245.272C143.785 201.907 175.909 165.712 216.753 142.067C257.643 118.506 305.044 108.772 351.909 114.311Z" fill="#B2BAC5"/>
<path d="M377.08 225.967C398.241 236.146 415.83 252.486 427.538 272.841C441.153 296.443 446.115 324.053 441.57 350.919C437.025 377.785 423.257 402.226 402.636 420.037L397.745 424.25L456.617 526.184L463.632 521.107C510.679 487.202 543.429 437.005 555.507 380.286C567.585 323.566 558.127 264.382 528.974 214.251C502.046 167.728 459.969 131.854 409.773 112.622L401.69 109.534L371.254 223.172L377.08 225.967ZM515.451 222.066C541.913 267.559 551.018 321.091 541.083 372.774C531.148 424.457 502.845 470.799 461.401 503.237L417.66 427.503C439.206 406.963 453.226 379.779 457.47 350.315C461.714 320.851 455.935 290.816 441.062 265.03C428.89 243.879 411.095 226.515 389.651 214.865L412.249 130.478C455.611 149.103 491.805 181.224 515.451 222.066Z" fill="#B2BAC5"/>
<path d="M364.598 442.006C346.267 448.397 326.635 450.13 307.467 447.049C288.3 443.968 270.2 436.169 254.795 424.355C239.39 412.541 227.165 397.082 219.219 379.37C211.272 361.657 207.855 342.247 209.273 322.886L209.76 316.436L96.1231 286.013L94.7583 294.557C88.1091 336.241 92.8461 378.947 108.468 418.161C124.09 457.375 150.018 491.64 183.509 517.333C217 543.025 256.811 559.192 298.733 564.124C340.655 569.055 383.13 562.568 421.67 545.349L429.573 541.81L370.699 439.873L364.598 442.006ZM381.073 489.065C379.279 490.1 377.97 491.806 377.435 493.807C376.899 495.808 377.18 497.939 378.216 499.733C379.252 501.526 380.958 502.835 382.958 503.371C384.959 503.907 387.091 503.626 388.884 502.59L404.507 529.64C403.244 530.379 402.215 531.459 401.539 532.756C400.863 534.054 400.567 535.516 400.686 536.975C382.225 543.74 362.933 547.978 343.336 549.572C343.202 548.802 342.951 548.058 342.592 547.364C341.556 545.571 339.85 544.263 337.85 543.727C335.849 543.192 333.718 543.472 331.924 544.507C330.899 545.115 330.03 545.954 329.386 546.956C328.742 547.959 328.342 549.098 328.216 550.283C321.307 550.359 314.426 550.104 307.573 549.518C307.627 549.487 307.684 549.491 307.738 549.459C309.27 548.642 310.497 547.352 311.239 545.782C311.981 544.212 312.198 542.445 311.857 540.742C311.517 539.04 310.637 537.492 309.348 536.328C308.059 535.165 306.429 534.447 304.701 534.282C302.972 534.116 301.236 534.512 299.75 535.41C298.264 536.308 297.106 537.661 296.449 539.269C295.792 540.876 295.669 542.652 296.1 544.334C296.531 546.017 297.492 547.515 298.842 548.609C279.022 546.121 259.639 540.923 241.234 533.161C242.851 532.847 244.327 532.027 245.447 530.819C246.567 529.611 247.274 528.078 247.466 526.442C247.657 524.806 247.323 523.151 246.512 521.717C245.701 520.283 244.455 519.144 242.954 518.465C241.453 517.787 239.775 517.603 238.162 517.941C236.55 518.278 235.087 519.12 233.985 520.345C232.882 521.569 232.198 523.112 232.031 524.751C231.864 526.39 232.222 528.04 233.054 529.462C233.078 529.502 233.117 529.525 233.138 529.56C226.923 526.638 220.848 523.422 214.912 519.912C215.389 518.824 215.606 517.64 215.547 516.454C215.488 515.268 215.154 514.112 214.571 513.077C213.998 511.981 213.163 511.045 212.14 510.35C211.117 509.655 209.939 509.223 208.709 509.094C207.479 508.964 206.237 509.141 205.092 509.607C203.946 510.073 202.934 510.815 202.145 511.767C185.965 500.601 171.369 487.299 158.753 472.223C159.708 470.88 160.204 469.265 160.168 467.617C160.132 465.97 159.566 464.378 158.553 463.078C157.54 461.778 156.134 460.839 154.545 460.402C152.956 459.965 151.269 460.051 149.733 460.65C145.053 454.266 140.719 447.636 136.747 440.789C135.431 438.509 134.319 436.13 133.087 433.812C134.718 432.813 135.918 431.242 136.454 429.406C136.989 427.57 136.821 425.6 135.982 423.881C135.144 422.162 133.695 420.817 131.918 420.109C130.142 419.401 128.165 419.379 126.374 420.05C118.035 401.261 112.382 381.392 109.582 361.027C110.724 361.834 112.063 362.318 113.458 362.429C114.852 362.54 116.251 362.274 117.506 361.658C118.762 361.042 119.829 360.1 120.596 358.93C121.362 357.759 121.799 356.404 121.861 355.007C121.923 353.61 121.608 352.221 120.949 350.988C120.289 349.754 119.31 348.721 118.114 347.996C116.917 347.271 115.548 346.881 114.149 346.868C112.751 346.855 111.374 347.219 110.164 347.921C109.498 348.346 108.901 348.873 108.397 349.482C107.117 334.882 107.315 320.191 108.989 305.631L193.377 328.225C193.31 330.825 193.364 333.419 193.442 336.006C193.426 335.979 193.424 335.945 193.409 335.917C192.636 334.58 191.484 333.502 190.099 332.819C188.714 332.136 187.157 331.879 185.625 332.081C184.094 332.283 182.657 332.934 181.496 333.953C180.335 334.971 179.502 336.311 179.102 337.803C178.703 339.295 178.755 340.872 179.251 342.335C179.748 343.797 180.667 345.08 181.893 346.02C183.118 346.96 184.595 347.515 186.136 347.616C187.678 347.717 189.214 347.358 190.552 346.586C192.094 345.663 193.264 344.228 193.856 342.531C194.9 355.264 197.795 367.777 202.449 379.675C202.259 381.001 202.437 382.355 202.964 383.587C203.491 384.819 204.347 385.882 205.438 386.661C207.182 390.442 209.036 394.187 211.137 397.825C215.446 405.235 220.467 412.207 226.127 418.643C225.685 419.968 225.615 421.389 225.925 422.75C226.235 424.112 226.913 425.363 227.885 426.365C228.857 427.368 230.086 428.084 231.438 428.436C232.789 428.788 234.211 428.762 235.549 428.361C251.456 443.202 270.766 453.905 291.781 459.53C312.795 465.154 334.871 465.528 356.064 460.617C357.247 461.864 358.814 462.68 360.514 462.933C362.215 463.187 363.952 462.864 365.447 462.015L381.073 489.065Z" fill="#B2BAC5"/>
<path d="M191.139 472.504C188.982 468.769 184.206 467.49 180.471 469.647C176.736 471.804 175.457 476.581 177.614 480.316C179.771 484.05 184.548 485.329 188.283 483.172C192.017 481.015 193.297 476.239 191.139 472.504Z" fill="#B2BAC5"/>
<path d="M167.704 431.928C165.547 428.193 160.771 426.914 157.036 429.071C153.301 431.228 152.022 436.004 154.179 439.739C156.336 443.474 161.113 444.753 164.848 442.596C168.582 440.439 169.861 435.663 167.704 431.928Z" fill="#B2BAC5"/>
<path d="M144.268 391.352C142.111 387.617 137.335 386.338 133.6 388.495C129.865 390.652 128.586 395.428 130.743 399.163C132.9 402.898 137.677 404.177 141.412 402.02C145.146 399.863 146.425 395.086 144.268 391.352Z" fill="#B2BAC5"/>
<path d="M231.713 449.068C229.556 445.334 224.78 444.055 221.045 446.212C217.31 448.369 216.031 453.145 218.188 456.88C220.345 460.615 225.121 461.894 228.856 459.737C232.591 457.58 233.87 452.803 231.713 449.068Z" fill="#B2BAC5"/>
<path d="M199.71 440.498C197.553 436.763 192.777 435.484 189.042 437.641C185.307 439.798 184.028 444.575 186.185 448.31C188.342 452.045 193.119 453.324 196.853 451.166C200.588 449.009 201.867 444.233 199.71 440.498Z" fill="#B2BAC5"/>
<path d="M208.282 408.492C206.124 404.757 201.348 403.478 197.613 405.635C193.878 407.793 192.599 412.569 194.756 416.304C196.913 420.039 201.69 421.318 205.425 419.161C209.16 417.004 210.439 412.227 208.282 408.492Z" fill="#B2BAC5"/>
<path d="M255.145 489.645C252.988 485.91 248.212 484.631 244.477 486.788C240.742 488.945 239.463 493.721 241.62 497.456C243.777 501.191 248.554 502.47 252.288 500.313C256.023 498.156 257.302 493.379 255.145 489.645Z" fill="#B2BAC5"/>
<path d="M223.142 481.076C220.985 477.341 216.209 476.062 212.474 478.219C208.739 480.377 207.46 485.153 209.617 488.888C211.774 492.623 216.551 493.902 220.286 491.745C224.02 489.587 225.299 484.811 223.142 481.076Z" fill="#B2BAC5"/>
<path d="M263.717 457.639C261.559 453.904 256.783 452.625 253.048 454.782C249.313 456.939 248.034 461.715 250.191 465.45C252.348 469.185 257.125 470.464 260.86 468.307C264.595 466.15 265.874 461.374 263.717 457.639Z" fill="#B2BAC5"/>
<path d="M278.585 530.221C276.428 526.486 271.651 525.207 267.916 527.364C264.181 529.521 262.902 534.297 265.06 538.032C267.217 541.767 271.993 543.046 275.728 540.889C279.463 538.732 280.742 533.956 278.585 530.221Z" fill="#B2BAC5"/>
<path d="M287.156 498.215C284.998 494.48 280.222 493.201 276.487 495.358C272.752 497.515 271.473 502.292 273.63 506.026C275.787 509.761 280.564 511.04 284.299 508.883C288.034 506.726 289.313 501.95 287.156 498.215Z" fill="#B2BAC5"/>
<path d="M176.272 399.924C174.115 396.189 169.338 394.91 165.603 397.067C161.868 399.224 160.589 404.001 162.747 407.735C164.904 411.47 169.68 412.749 173.415 410.592C177.15 408.435 178.429 403.659 176.272 399.924Z" fill="#B2BAC5"/>
<path d="M184.843 367.918C182.685 364.183 177.909 362.904 174.174 365.061C170.439 367.218 169.16 371.995 171.317 375.73C173.474 379.464 178.251 380.744 181.986 378.586C185.721 376.429 187 371.653 184.843 367.918Z" fill="#B2BAC5"/>
<path d="M161.41 327.344C159.253 323.609 154.477 322.33 150.742 324.487C147.007 326.644 145.728 331.421 147.885 335.155C150.042 338.89 154.819 340.169 158.554 338.012C162.288 335.855 163.568 331.079 161.41 327.344Z" fill="#B2BAC5"/>
<path d="M295.722 466.211C293.565 462.476 288.789 461.197 285.054 463.354C281.319 465.511 280.04 470.288 282.197 474.023C284.354 477.757 289.131 479.036 292.866 476.879C296.6 474.722 297.88 469.946 295.722 466.211Z" fill="#B2BAC5"/>
<path d="M319.158 506.787C317.001 503.052 312.225 501.773 308.49 503.93C304.755 506.087 303.476 510.864 305.633 514.599C307.79 518.334 312.567 519.613 316.302 517.456C320.037 515.298 321.316 510.522 319.158 506.787Z" fill="#B2BAC5"/>
<path d="M152.84 359.348C150.683 355.613 145.906 354.334 142.171 356.491C138.436 358.648 137.157 363.424 139.314 367.159C141.472 370.894 146.248 372.173 149.983 370.016C153.718 367.859 154.997 363.083 152.84 359.348Z" fill="#B2BAC5"/>
<path d="M129.405 318.773C127.247 315.039 122.471 313.76 118.736 315.917C115.001 318.074 113.722 322.85 115.879 326.585C118.036 330.32 122.813 331.599 126.548 329.442C130.283 327.285 131.562 322.508 129.405 318.773Z" fill="#B2BAC5"/>
<path d="M383.171 523.928C381.014 520.193 376.238 518.914 372.503 521.071C368.768 523.228 367.489 528.004 369.646 531.739C371.803 535.474 376.579 536.753 380.314 534.596C384.049 532.439 385.328 527.663 383.171 523.928Z" fill="#B2BAC5"/>
<path d="M359.736 483.354C357.579 479.619 352.802 478.34 349.067 480.497C345.332 482.654 344.053 487.43 346.21 491.165C348.368 494.9 353.144 496.179 356.879 494.022C360.614 491.865 361.893 487.088 359.736 483.354Z" fill="#B2BAC5"/>
<path d="M351.164 515.356C349.007 511.621 344.231 510.342 340.496 512.499C336.761 514.656 335.482 519.432 337.639 523.167C339.796 526.902 344.573 528.181 348.308 526.024C352.042 523.867 353.321 519.09 351.164 515.356Z" fill="#B2BAC5"/>
<path d="M327.729 474.781C325.572 471.046 320.796 469.767 317.061 471.924C313.326 474.082 312.047 478.858 314.204 482.593C316.361 486.328 321.138 487.607 324.872 485.45C328.607 483.293 329.886 478.516 327.729 474.781Z" fill="#B2BAC5"/>
</g>
</svg>
