<svg width="1920" height="712" viewBox="0 0 1920 712" fill="none" xmlns="http://www.w3.org/2000/svg">
<g opacity="0.11">
<path d="M1814.4 502.188L1821.65 501.062C1880.73 491.875 1934.64 459.141 1969.56 411.233C2001.48 367.447 2014.57 314.946 2006.42 263.391C1987.43 143.348 1883.06 61.923 1768.79 78.0703C1652.94 94.443 1569.75 200.979 1583.34 315.56C1586.66 343.905 1595.73 371.274 1609.99 395.997C1623.56 419.42 1641.46 440.055 1662.73 456.803L1668.34 461.235L1790.23 305.222L1814.4 502.188ZM1751.86 331.249C1750.65 331.056 1749.42 331.19 1748.28 331.637C1747.14 332.083 1746.15 332.826 1745.4 333.788C1744.64 334.749 1744.16 335.895 1744 337.105C1743.85 338.316 1744.01 339.547 1744.49 340.67L1711.04 383.486C1709.95 382.445 1708.55 381.783 1707.06 381.598C1705.56 381.413 1704.04 381.716 1702.73 382.461C1701.1 383.404 1699.91 384.956 1699.42 386.775C1698.93 388.595 1699.19 390.534 1700.13 392.166C1700.7 393.117 1701.49 393.918 1702.44 394.501L1668.53 437.907C1668.41 437.06 1668.13 436.243 1667.72 435.496C1666.78 433.865 1665.22 432.675 1663.4 432.187C1661.58 431.7 1659.64 431.954 1658.01 432.896C1657.81 433.051 1657.63 433.218 1657.45 433.395C1629.27 406.74 1609.63 372.32 1601.03 334.497C1601.07 334.472 1601.13 334.475 1601.17 334.45C1602.8 333.508 1603.99 331.956 1604.48 330.136C1604.97 328.316 1604.71 326.377 1603.77 324.745C1603.21 323.812 1602.45 323.021 1601.54 322.435C1600.62 321.849 1599.58 321.484 1598.51 321.368C1598.11 318.887 1597.74 316.401 1597.44 313.901C1591.74 265.828 1604.35 219.302 1629.73 181.214C1629.33 182.93 1629.59 184.732 1630.46 186.265C1631.16 187.482 1632.21 188.463 1633.47 189.085C1634.73 189.706 1636.15 189.94 1637.54 189.757C1638.93 189.573 1640.24 188.981 1641.3 188.054C1642.36 187.128 1643.11 185.909 1643.48 184.552C1643.84 183.194 1643.79 181.76 1643.34 180.429C1642.89 179.099 1642.05 177.932 1640.94 177.076C1639.82 176.221 1638.48 175.715 1637.08 175.623C1635.68 175.532 1634.28 175.858 1633.06 176.56C1632.9 176.692 1632.74 176.832 1632.59 176.98C1636.57 171.314 1640.84 165.853 1645.38 160.619C1646.29 160.499 1647.16 160.204 1647.96 159.751C1648.97 159.152 1649.81 158.309 1650.41 157.3C1651 156.29 1651.33 155.147 1651.37 153.975C1658.47 146.482 1666.13 139.535 1674.28 133.193C1674.42 134.235 1674.78 135.234 1675.35 136.118C1675.92 137.002 1676.67 137.75 1677.57 138.306C1678.46 138.862 1679.46 139.213 1680.5 139.335C1681.55 139.456 1682.61 139.344 1683.6 139.007C1684.6 138.67 1685.5 138.117 1686.26 137.386C1687.02 136.656 1687.6 135.767 1687.97 134.783C1688.34 133.8 1688.49 132.747 1688.4 131.699C1688.32 130.652 1688 129.637 1687.47 128.727C1686.71 127.471 1685.57 126.492 1684.21 125.934C1692.82 120.007 1701.88 114.751 1711.3 110.213C1711.08 111.698 1711.36 113.212 1712.08 114.527C1713.02 116.159 1714.58 117.35 1716.4 117.837C1718.22 118.325 1720.16 118.07 1721.79 117.127C1723.42 116.185 1724.61 114.633 1725.1 112.813C1725.59 110.993 1725.33 109.054 1724.39 107.422C1723.89 106.561 1723.21 105.818 1722.39 105.243C1731.94 101.344 1741.78 98.1834 1751.81 95.7888C1753.3 96.6649 1755.06 96.948 1756.74 96.5813C1758.42 96.2146 1759.91 95.2253 1760.89 93.8115C1764.15 93.1863 1767.44 92.6368 1770.76 92.1629C1774.32 91.662 1777.86 91.3835 1781.4 91.0803C1781.17 91.1425 1780.94 91.2188 1780.72 91.3087C1779.29 92.1269 1778.18 93.4169 1777.59 94.9592C1777 96.5015 1776.96 98.2008 1777.48 99.768C1778 101.335 1779.05 102.673 1780.45 103.555C1781.84 104.436 1783.5 104.807 1785.14 104.603C1786.78 104.399 1788.3 103.634 1789.44 102.437C1790.58 101.24 1791.26 99.6863 1791.38 98.0392C1791.51 96.3921 1791.05 94.7539 1790.1 93.4032C1789.15 92.0525 1787.76 91.0729 1786.17 90.631C1826.98 88.2197 1867.47 99.1361 1901.54 121.736C1900.04 121.516 1898.52 121.791 1897.19 122.519C1895.98 123.211 1894.99 124.246 1894.36 125.495C1893.73 126.743 1893.49 128.15 1893.66 129.538C1893.82 130.926 1894.39 132.234 1895.3 133.298C1896.21 134.362 1897.41 135.135 1898.75 135.521C1900.1 135.906 1901.52 135.886 1902.86 135.463C1904.19 135.041 1905.37 134.234 1906.24 133.145C1907.12 132.056 1907.66 130.733 1907.78 129.34C1907.91 127.948 1907.63 126.549 1906.96 125.319C1912.54 129.292 1917.91 133.552 1923.05 138.082C1923.17 138.759 1923.39 139.415 1923.71 140.026C1924.27 140.966 1925.04 141.762 1925.96 142.348C1926.89 142.934 1927.94 143.295 1929.03 143.4C1936.57 150.543 1943.56 158.25 1949.93 166.455C1949.12 166.576 1948.34 166.837 1947.62 167.227C1945.99 168.169 1944.8 169.721 1944.31 171.541C1943.82 173.361 1944.08 175.301 1945.02 176.933C1945.96 178.565 1947.52 179.755 1949.34 180.243C1951.16 180.731 1953.1 180.476 1954.73 179.533C1955.86 178.841 1956.77 177.836 1957.35 176.639C1960.33 180.999 1963.18 185.463 1965.85 190.084C1968.33 194.379 1970.62 198.822 1972.82 203.325C1971.48 203.215 1970.13 203.5 1968.95 204.143C1967.31 205.085 1966.12 206.637 1965.64 208.458C1965.15 210.278 1965.4 212.217 1966.35 213.849C1967.29 215.481 1968.84 216.672 1970.66 217.16C1972.48 217.647 1974.42 217.392 1976.05 216.45C1976.8 216.005 1977.46 215.425 1977.99 214.739C1981.92 224.161 1985.18 233.845 1987.76 243.721C1987.12 244.782 1986.78 245.993 1986.76 247.23C1986.74 248.468 1987.05 249.688 1987.66 250.767C1988.24 251.723 1989.03 252.525 1989.99 253.107C1990.87 257.231 1991.69 261.392 1992.36 265.623C1999.93 313.411 1987.74 362.151 1958.06 402.872C1955.01 407.063 1951.75 411.084 1948.4 415.019C1947.21 414.746 1945.96 414.798 1944.79 415.168C1943.62 415.538 1942.57 416.214 1941.75 417.126C1940.93 418.038 1940.36 419.152 1940.12 420.354C1939.87 421.556 1939.95 422.802 1940.34 423.964C1933.08 431.558 1925.26 438.597 1916.94 445.021C1917.24 443.893 1917.25 442.709 1916.98 441.575C1916.71 440.44 1916.16 439.39 1915.39 438.516C1914.62 437.643 1913.64 436.973 1912.55 436.567C1911.46 436.16 1910.28 436.029 1909.12 436.185C1907.97 436.342 1906.87 436.78 1905.92 437.462C1904.97 438.144 1904.21 439.049 1903.7 440.096C1903.18 441.143 1902.94 442.301 1902.98 443.467C1903.02 444.632 1903.34 445.77 1903.93 446.78C1904.54 447.818 1905.42 448.679 1906.46 449.279C1907.51 449.88 1908.7 450.199 1909.9 450.206C1900.14 457.11 1889.83 463.185 1879.06 468.368C1879.74 467.311 1880.13 466.092 1880.18 464.836C1880.24 463.579 1879.95 462.331 1879.37 461.22C1878.78 460.108 1877.9 459.174 1876.83 458.513C1875.76 457.853 1874.53 457.489 1873.28 457.461C1872.02 457.432 1870.78 457.739 1869.68 458.351C1868.58 458.962 1867.66 459.856 1867.03 460.939C1866.39 462.023 1866.05 463.257 1866.05 464.515C1866.04 465.772 1866.38 467.008 1867.01 468.094C1867.57 469.04 1868.35 469.84 1869.28 470.428C1870.21 471.016 1871.27 471.376 1872.36 471.478C1862.6 475.776 1852.53 479.333 1842.23 482.119C1841.27 480.557 1839.73 479.432 1837.95 478.981C1836.17 478.53 1834.29 478.789 1832.69 479.703C1831.72 480.278 1830.91 481.079 1830.32 482.038C1829.73 482.996 1829.38 484.083 1829.3 485.206C1828.42 485.383 1827.56 485.604 1826.69 485.77L1819.34 425.928C1820.39 426.54 1821.59 426.866 1822.81 426.875C1824.03 426.884 1825.22 426.575 1826.29 425.979C1827.92 425.037 1829.11 423.485 1829.6 421.665C1830.08 419.845 1829.83 417.906 1828.89 416.274C1827.95 414.642 1826.39 413.451 1824.57 412.963C1822.75 412.475 1820.81 412.731 1819.18 413.673C1818.74 413.981 1818.33 414.34 1817.97 414.742L1811.3 360.437C1811.81 360.328 1812.3 360.162 1812.77 359.941C1814.4 358.998 1815.59 357.447 1816.08 355.627C1816.57 353.807 1816.31 351.868 1815.37 350.236C1814.77 349.233 1813.94 348.395 1812.93 347.799C1811.93 347.203 1810.79 346.868 1809.63 346.825L1800.13 269.44L1751.86 331.249Z" fill="#B2BAC5"/>
<path d="M1798.72 531.332L1800.89 528.34L1778.65 347.178L1669.36 487.068L1667.31 490.113L1668.56 496.711L1671.04 498.443C1706.59 523.665 1749.56 536.25 1793.09 534.188C1794.17 534.119 1795.23 533.83 1796.2 533.339C1797.17 532.848 1798.02 532.165 1798.72 531.332ZM1684.67 490.541L1768.72 382.964L1785.56 520.199C1749.73 520.529 1714.62 510.206 1684.67 490.541Z" fill="#B2BAC5"/>
<path d="M1915.93 169.125C1917.89 172.523 1922.23 173.687 1925.63 171.725C1929.03 169.763 1930.19 165.418 1928.23 162.02C1926.27 158.622 1921.93 157.458 1918.53 159.42C1915.13 161.381 1913.96 165.727 1915.93 169.125Z" fill="#B2BAC5"/>
<path d="M1908.13 198.242C1910.09 201.64 1914.43 202.804 1917.83 200.842C1921.23 198.88 1922.39 194.535 1920.43 191.137C1918.47 187.739 1914.12 186.575 1910.73 188.537C1907.33 190.499 1906.16 194.844 1908.13 198.242Z" fill="#B2BAC5"/>
<path d="M1886.81 161.322C1888.77 164.72 1893.12 165.884 1896.52 163.922C1899.91 161.961 1901.08 157.615 1899.12 154.217C1897.15 150.819 1892.81 149.655 1889.41 151.617C1886.01 153.579 1884.85 157.924 1886.81 161.322Z" fill="#B2BAC5"/>
<path d="M1865.5 124.406C1867.46 127.804 1871.8 128.968 1875.2 127.006C1878.6 125.044 1879.76 120.699 1877.8 117.301C1875.84 113.903 1871.49 112.739 1868.1 114.701C1864.7 116.663 1863.53 121.008 1865.5 124.406Z" fill="#B2BAC5"/>
<path d="M1879.01 190.439C1880.97 193.837 1885.32 195.001 1888.71 193.04C1892.11 191.078 1893.28 186.733 1891.32 183.334C1889.35 179.936 1885.01 178.772 1881.61 180.734C1878.21 182.696 1877.05 187.041 1879.01 190.439Z" fill="#B2BAC5"/>
<path d="M1900.32 227.359C1902.29 230.757 1906.63 231.921 1910.03 229.96C1913.43 227.998 1914.59 223.652 1912.63 220.254C1910.67 216.856 1906.32 215.692 1902.93 217.654C1899.53 219.616 1898.36 223.961 1900.32 227.359Z" fill="#B2BAC5"/>
<path d="M1857.69 153.521C1859.66 156.919 1864 158.084 1867.4 156.122C1870.8 154.16 1871.96 149.815 1870 146.416C1868.04 143.018 1863.69 141.854 1860.29 143.816C1856.9 145.778 1855.73 150.123 1857.69 153.521Z" fill="#B2BAC5"/>
<path d="M1836.38 116.603C1838.34 120.001 1842.69 121.166 1846.08 119.204C1849.48 117.242 1850.65 112.897 1848.69 109.499C1846.72 106.1 1842.38 104.936 1838.98 106.898C1835.58 108.86 1834.42 113.205 1836.38 116.603Z" fill="#B2BAC5"/>
<path d="M1921.64 264.277C1923.6 267.675 1927.95 268.839 1931.34 266.877C1934.74 264.916 1935.91 260.57 1933.95 257.172C1931.98 253.774 1927.64 252.61 1924.24 254.572C1920.84 256.534 1919.68 260.879 1921.64 264.277Z" fill="#B2BAC5"/>
<path d="M1842.09 211.754C1844.05 215.152 1848.4 216.316 1851.8 214.354C1855.19 212.392 1856.36 208.047 1854.4 204.649C1852.43 201.251 1848.09 200.087 1844.69 202.048C1841.29 204.01 1840.13 208.355 1842.09 211.754Z" fill="#B2BAC5"/>
<path d="M1871.21 219.556C1873.17 222.954 1877.51 224.119 1880.91 222.157C1884.31 220.195 1885.48 215.85 1883.51 212.452C1881.55 209.054 1877.21 207.889 1873.81 209.851C1870.41 211.813 1869.25 216.158 1871.21 219.556Z" fill="#B2BAC5"/>
<path d="M1834.29 240.871C1836.25 244.269 1840.6 245.433 1843.99 243.471C1847.39 241.509 1848.56 237.164 1846.59 233.766C1844.63 230.368 1840.29 229.204 1836.89 231.166C1833.49 233.128 1832.33 237.473 1834.29 240.871Z" fill="#B2BAC5"/>
<path d="M1863.41 248.672C1865.37 252.07 1869.71 253.234 1873.11 251.272C1876.51 249.31 1877.67 244.965 1875.71 241.567C1873.75 238.169 1869.4 237.004 1866.01 238.966C1862.61 240.928 1861.44 245.273 1863.41 248.672Z" fill="#B2BAC5"/>
<path d="M1820.78 174.836C1822.74 178.234 1827.08 179.398 1830.48 177.436C1833.88 175.474 1835.04 171.129 1833.08 167.731C1831.12 164.333 1826.77 163.169 1823.38 165.13C1819.98 167.092 1818.81 171.437 1820.78 174.836Z" fill="#B2BAC5"/>
<path d="M1849.89 182.636C1851.85 186.034 1856.2 187.199 1859.6 185.237C1863 183.275 1864.16 178.93 1862.2 175.532C1860.24 172.134 1855.89 170.969 1852.49 172.931C1849.1 174.893 1847.93 179.238 1849.89 182.636Z" fill="#B2BAC5"/>
<path d="M1812.97 203.953C1814.94 207.351 1819.28 208.515 1822.68 206.553C1826.08 204.591 1827.24 200.246 1825.28 196.848C1823.32 193.45 1818.97 192.286 1815.57 194.248C1812.18 196.21 1811.01 200.555 1812.97 203.953Z" fill="#B2BAC5"/>
<path d="M1799.46 137.918C1801.42 141.316 1805.77 142.48 1809.17 140.518C1812.56 138.556 1813.73 134.211 1811.77 130.813C1809.81 127.415 1805.46 126.251 1802.06 128.212C1798.66 130.174 1797.5 134.52 1799.46 137.918Z" fill="#B2BAC5"/>
<path d="M1807.26 108.8C1809.22 112.199 1813.57 113.363 1816.97 111.401C1820.37 109.439 1821.53 105.094 1819.57 101.696C1817.61 98.2977 1813.26 97.1334 1809.86 99.0953C1806.46 101.057 1805.3 105.402 1807.26 108.8Z" fill="#B2BAC5"/>
<path d="M1828.58 145.718C1830.54 149.117 1834.88 150.281 1838.28 148.319C1841.68 146.357 1842.85 142.012 1840.88 138.614C1838.92 135.216 1834.58 134.051 1831.18 136.013C1827.78 137.975 1826.62 142.32 1828.58 145.718Z" fill="#B2BAC5"/>
<path d="M1770.34 130.113C1772.31 133.511 1776.65 134.675 1780.05 132.713C1783.45 130.752 1784.61 126.406 1782.65 123.008C1780.69 119.61 1776.34 118.446 1772.94 120.408C1769.55 122.37 1768.38 126.715 1770.34 130.113Z" fill="#B2BAC5"/>
<path d="M1791.66 167.035C1793.62 170.433 1797.97 171.597 1801.36 169.635C1804.76 167.673 1805.93 163.328 1803.96 159.93C1802 156.532 1797.66 155.368 1794.26 157.33C1790.86 159.292 1789.7 163.637 1791.66 167.035Z" fill="#B2BAC5"/>
<path d="M1919.55 388.545C1921.51 391.943 1925.86 393.107 1929.25 391.145C1932.65 389.183 1933.82 384.838 1931.85 381.44C1929.89 378.042 1925.55 376.878 1922.15 378.839C1918.75 380.801 1917.59 385.146 1919.55 388.545Z" fill="#B2BAC5"/>
<path d="M1892.52 256.474C1894.48 259.872 1898.83 261.037 1902.23 259.075C1905.63 257.113 1906.79 252.768 1904.83 249.37C1902.87 245.972 1898.52 244.807 1895.12 246.769C1891.72 248.731 1890.56 253.076 1892.52 256.474Z" fill="#B2BAC5"/>
<path d="M1855.6 277.791C1857.57 281.189 1861.91 282.353 1865.31 280.391C1868.71 278.429 1869.87 274.084 1867.91 270.686C1865.95 267.288 1861.6 266.124 1858.2 268.086C1854.81 270.047 1853.64 274.393 1855.6 277.791Z" fill="#B2BAC5"/>
<path d="M1884.72 285.591C1886.68 288.99 1891.03 290.154 1894.43 288.192C1897.82 286.23 1898.99 281.885 1897.03 278.487C1895.07 275.089 1890.72 273.924 1887.32 275.886C1883.92 277.848 1882.76 282.193 1884.72 285.591Z" fill="#B2BAC5"/>
<path d="M1906.04 322.511C1908 325.909 1912.34 327.074 1915.74 325.112C1919.14 323.15 1920.3 318.805 1918.34 315.407C1916.38 312.009 1912.03 310.844 1908.64 312.806C1905.24 314.768 1904.07 319.113 1906.04 322.511Z" fill="#B2BAC5"/>
<path d="M1805.17 233.068C1807.13 236.466 1811.48 237.63 1814.88 235.668C1818.28 233.707 1819.44 229.361 1817.48 225.963C1815.52 222.565 1811.17 221.401 1807.77 223.363C1804.37 225.325 1803.21 229.67 1805.17 233.068Z" fill="#B2BAC5"/>
<path d="M1826.49 269.99C1828.45 273.388 1832.79 274.552 1836.19 272.59C1839.59 270.628 1840.75 266.283 1838.79 262.885C1836.83 259.487 1832.49 258.323 1829.09 260.285C1825.69 262.247 1824.53 266.592 1826.49 269.99Z" fill="#B2BAC5"/>
<path d="M1783.86 196.15C1785.82 199.548 1790.16 200.712 1793.56 198.751C1796.96 196.789 1798.12 192.443 1796.16 189.045C1794.2 185.647 1789.86 184.483 1786.46 186.445C1783.06 188.407 1781.9 192.752 1783.86 196.15Z" fill="#B2BAC5"/>
<path d="M1741.23 122.314C1743.19 125.712 1747.53 126.876 1750.93 124.915C1754.33 122.953 1755.5 118.608 1753.53 115.209C1751.57 111.811 1747.23 110.647 1743.83 112.609C1740.43 114.571 1739.27 118.916 1741.23 122.314Z" fill="#B2BAC5"/>
<path d="M1762.54 159.232C1764.5 162.63 1768.85 163.794 1772.25 161.833C1775.65 159.871 1776.81 155.526 1774.85 152.127C1772.89 148.729 1768.54 147.565 1765.14 149.527C1761.74 151.489 1760.58 155.834 1762.54 159.232Z" fill="#B2BAC5"/>
<path d="M1911.75 417.664C1913.71 421.062 1918.05 422.226 1921.45 420.264C1924.85 418.302 1926.01 413.957 1924.05 410.559C1922.09 407.161 1917.75 405.997 1914.35 407.959C1910.95 409.92 1909.78 414.266 1911.75 417.664Z" fill="#B2BAC5"/>
<path d="M1890.43 380.744C1892.39 384.142 1896.74 385.306 1900.14 383.344C1903.54 381.382 1904.7 377.037 1902.74 373.639C1900.78 370.241 1896.43 369.077 1893.03 371.039C1889.64 373.001 1888.47 377.346 1890.43 380.744Z" fill="#B2BAC5"/>
<path d="M1847.8 306.908C1849.76 310.306 1854.11 311.47 1857.51 309.508C1860.91 307.546 1862.07 303.201 1860.11 299.803C1858.15 296.405 1853.8 295.241 1850.4 297.203C1847.01 299.165 1845.84 303.51 1847.8 306.908Z" fill="#B2BAC5"/>
<path d="M1869.12 343.826C1871.08 347.224 1875.42 348.388 1878.82 346.426C1882.22 344.464 1883.39 340.119 1881.42 336.721C1879.46 333.323 1875.12 332.159 1871.72 334.121C1868.32 336.083 1867.16 340.428 1869.12 343.826Z" fill="#B2BAC5"/>
<path d="M1913.84 293.394C1915.8 296.792 1920.14 297.957 1923.54 295.995C1926.94 294.033 1928.1 289.688 1926.14 286.29C1924.18 282.891 1919.84 281.727 1916.44 283.689C1913.04 285.651 1911.88 289.996 1913.84 293.394Z" fill="#B2BAC5"/>
<path d="M1876.92 314.707C1878.88 318.105 1883.23 319.269 1886.62 317.307C1890.02 315.345 1891.19 311 1889.22 307.602C1887.26 304.204 1882.92 303.04 1879.52 305.002C1876.12 306.963 1874.96 311.309 1876.92 314.707Z" fill="#B2BAC5"/>
<path d="M1898.23 351.627C1900.2 355.025 1904.54 356.189 1907.94 354.227C1911.34 352.265 1912.5 347.92 1910.54 344.522C1908.58 341.124 1904.23 339.96 1900.83 341.921C1897.44 343.883 1896.27 348.229 1898.23 351.627Z" fill="#B2BAC5"/>
<path d="M1768.25 254.384C1770.22 257.783 1774.56 258.947 1777.96 256.985C1781.36 255.023 1782.52 250.678 1780.56 247.28C1778.6 243.882 1774.25 242.717 1770.85 244.679C1767.46 246.641 1766.29 250.986 1768.25 254.384Z" fill="#B2BAC5"/>
<path d="M1797.37 262.187C1799.33 265.585 1803.68 266.75 1807.08 264.788C1810.47 262.826 1811.64 258.481 1809.68 255.082C1807.71 251.684 1803.37 250.52 1799.97 252.482C1796.57 254.444 1795.41 258.789 1797.37 262.187Z" fill="#B2BAC5"/>
<path d="M1760.45 283.5C1762.41 286.898 1766.76 288.062 1770.16 286.1C1773.56 284.138 1774.72 279.793 1772.76 276.395C1770.8 272.997 1766.45 271.833 1763.05 273.795C1759.65 275.756 1758.49 280.102 1760.45 283.5Z" fill="#B2BAC5"/>
<path d="M1746.94 217.466C1748.9 220.865 1753.25 222.029 1756.64 220.067C1760.04 218.105 1761.21 213.76 1759.24 210.362C1757.28 206.964 1752.94 205.799 1749.54 207.761C1746.14 209.723 1744.98 214.068 1746.94 217.466Z" fill="#B2BAC5"/>
<path d="M1776.06 225.267C1778.02 228.665 1782.36 229.83 1785.76 227.868C1789.16 225.906 1790.32 221.561 1788.36 218.163C1786.4 214.764 1782.05 213.6 1778.66 215.562C1775.26 217.524 1774.09 221.869 1776.06 225.267Z" fill="#B2BAC5"/>
<path d="M1739.14 246.584C1741.1 249.982 1745.44 251.146 1748.84 249.184C1752.24 247.222 1753.4 242.877 1751.44 239.479C1749.48 236.081 1745.14 234.917 1741.74 236.878C1738.34 238.84 1737.18 243.186 1739.14 246.584Z" fill="#B2BAC5"/>
<path d="M1704.31 143.629C1706.27 147.027 1710.62 148.191 1714.01 146.229C1717.41 144.267 1718.58 139.922 1716.61 136.524C1714.65 133.126 1710.31 131.962 1706.91 133.923C1703.51 135.885 1702.35 140.23 1704.31 143.629Z" fill="#B2BAC5"/>
<path d="M1725.62 180.548C1727.59 183.947 1731.93 185.111 1735.33 183.149C1738.73 181.187 1739.89 176.842 1737.93 173.444C1735.97 170.046 1731.62 168.881 1728.22 170.843C1724.83 172.805 1723.66 177.15 1725.62 180.548Z" fill="#B2BAC5"/>
<path d="M1733.42 151.431C1735.39 154.829 1739.73 155.994 1743.13 154.032C1746.53 152.07 1747.69 147.725 1745.73 144.327C1743.77 140.929 1739.42 139.764 1736.03 141.726C1732.63 143.688 1731.46 148.033 1733.42 151.431Z" fill="#B2BAC5"/>
<path d="M1754.74 188.349C1756.7 191.747 1761.05 192.912 1764.45 190.95C1767.84 188.988 1769.01 184.643 1767.05 181.245C1765.09 177.847 1760.74 176.682 1757.34 178.644C1753.94 180.606 1752.78 184.951 1754.74 188.349Z" fill="#B2BAC5"/>
<path d="M1696.51 172.744C1698.47 176.142 1702.81 177.306 1706.21 175.344C1709.61 173.382 1710.77 169.037 1708.81 165.639C1706.85 162.241 1702.51 161.077 1699.11 163.039C1695.71 165.001 1694.54 169.346 1696.51 172.744Z" fill="#B2BAC5"/>
<path d="M1717.82 209.664C1719.78 213.062 1724.13 214.226 1727.53 212.264C1730.93 210.302 1732.09 205.957 1730.13 202.559C1728.17 199.161 1723.82 197.997 1720.42 199.959C1717.02 201.92 1715.86 206.266 1717.82 209.664Z" fill="#B2BAC5"/>
<path d="M1874.83 438.976C1876.79 442.374 1881.14 443.539 1884.53 441.577C1887.93 439.615 1889.1 435.27 1887.13 431.872C1885.17 428.473 1880.83 427.309 1877.43 429.271C1874.03 431.233 1872.87 435.578 1874.83 438.976Z" fill="#B2BAC5"/>
<path d="M1853.51 402.058C1855.48 405.456 1859.82 406.621 1863.22 404.659C1866.62 402.697 1867.78 398.352 1865.82 394.954C1863.86 391.555 1859.51 390.391 1856.11 392.353C1852.72 394.315 1851.55 398.66 1853.51 402.058Z" fill="#B2BAC5"/>
<path d="M1882.63 409.861C1884.59 413.259 1888.94 414.423 1892.34 412.461C1895.73 410.5 1896.9 406.154 1894.94 402.756C1892.97 399.358 1888.63 398.194 1885.23 400.156C1881.83 402.118 1880.67 406.463 1882.63 409.861Z" fill="#B2BAC5"/>
<path d="M1845.71 431.175C1847.67 434.574 1852.02 435.738 1855.42 433.776C1858.81 431.814 1859.98 427.469 1858.02 424.071C1856.05 420.673 1851.71 419.508 1848.31 421.47C1844.91 423.432 1843.75 427.777 1845.71 431.175Z" fill="#B2BAC5"/>
<path d="M1818.69 299.103C1820.65 302.501 1824.99 303.666 1828.39 301.704C1831.79 299.742 1832.95 295.397 1830.99 291.999C1829.03 288.6 1824.68 287.436 1821.29 289.398C1817.89 291.36 1816.72 295.705 1818.69 299.103Z" fill="#B2BAC5"/>
<path d="M1810.88 328.222C1812.85 331.62 1817.19 332.785 1820.59 330.823C1823.99 328.861 1825.15 324.516 1823.19 321.118C1821.23 317.72 1816.88 316.555 1813.48 318.517C1810.09 320.479 1808.92 324.824 1810.88 328.222Z" fill="#B2BAC5"/>
<path d="M1832.2 365.14C1834.16 368.538 1838.51 369.703 1841.9 367.741C1845.3 365.779 1846.47 361.434 1844.5 358.036C1842.54 354.638 1838.2 353.473 1834.8 355.435C1831.4 357.397 1830.24 361.742 1832.2 365.14Z" fill="#B2BAC5"/>
<path d="M1731.34 275.699C1733.3 279.097 1737.64 280.261 1741.04 278.299C1744.44 276.337 1745.6 271.992 1743.64 268.594C1741.68 265.196 1737.33 264.032 1733.94 265.994C1730.54 267.956 1729.37 272.301 1731.34 275.699Z" fill="#B2BAC5"/>
<path d="M1752.65 312.619C1754.61 316.017 1758.96 317.181 1762.36 315.219C1765.75 313.257 1766.92 308.912 1764.96 305.514C1762.99 302.116 1758.65 300.952 1755.25 302.914C1751.85 304.876 1750.69 309.221 1752.65 312.619Z" fill="#B2BAC5"/>
<path d="M1710.02 238.781C1711.98 242.179 1716.33 243.343 1719.73 241.381C1723.12 239.419 1724.29 235.074 1722.33 231.676C1720.36 228.278 1716.02 227.114 1712.62 229.076C1709.22 231.038 1708.06 235.383 1710.02 238.781Z" fill="#B2BAC5"/>
<path d="M1667.39 164.945C1669.35 168.343 1673.7 169.507 1677.1 167.545C1680.49 165.584 1681.66 161.238 1679.7 157.84C1677.73 154.442 1673.39 153.278 1669.99 155.24C1666.59 157.202 1665.43 161.547 1667.39 164.945Z" fill="#B2BAC5"/>
<path d="M1688.71 201.861C1690.67 205.259 1695.01 206.423 1698.41 204.461C1701.81 202.5 1702.97 198.154 1701.01 194.756C1699.05 191.358 1694.7 190.194 1691.31 192.156C1687.91 194.118 1686.74 198.463 1688.71 201.861Z" fill="#B2BAC5"/>
<path d="M1837.91 460.291C1839.87 463.689 1844.22 464.853 1847.62 462.891C1851.01 460.929 1852.18 456.584 1850.22 453.186C1848.25 449.788 1843.91 448.624 1840.51 450.586C1837.11 452.547 1835.95 456.893 1837.91 460.291Z" fill="#B2BAC5"/>
<path d="M1840 336.023C1841.96 339.421 1846.31 340.585 1849.7 338.624C1853.1 336.662 1854.27 332.317 1852.31 328.918C1850.34 325.52 1846 324.356 1842.6 326.318C1839.2 328.28 1838.04 332.625 1840 336.023Z" fill="#B2BAC5"/>
<path d="M1861.32 372.939C1863.28 376.337 1867.62 377.501 1871.02 375.54C1874.42 373.578 1875.58 369.233 1873.62 365.834C1871.66 362.436 1867.31 361.272 1863.92 363.234C1860.52 365.196 1859.35 369.541 1861.32 372.939Z" fill="#B2BAC5"/>
<path d="M1824.4 394.257C1826.36 397.656 1830.7 398.82 1834.1 396.858C1837.5 394.896 1838.66 390.551 1836.7 387.153C1834.74 383.755 1830.39 382.59 1827 384.552C1823.6 386.514 1822.43 390.859 1824.4 394.257Z" fill="#B2BAC5"/>
<path d="M1694.42 297.013C1696.38 300.411 1700.72 301.576 1704.12 299.614C1707.52 297.652 1708.68 293.307 1706.72 289.909C1704.76 286.511 1700.41 285.346 1697.02 287.308C1693.62 289.27 1692.45 293.615 1694.42 297.013Z" fill="#B2BAC5"/>
<path d="M1723.53 304.818C1725.5 308.216 1729.84 309.38 1733.24 307.418C1736.64 305.457 1737.8 301.111 1735.84 297.713C1733.88 294.315 1729.53 293.151 1726.13 295.113C1722.74 297.075 1721.57 301.42 1723.53 304.818Z" fill="#B2BAC5"/>
<path d="M1686.61 326.131C1688.58 329.529 1692.92 330.693 1696.32 328.731C1699.72 326.769 1700.88 322.424 1698.92 319.026C1696.96 315.628 1692.61 314.463 1689.22 316.425C1685.82 318.387 1684.65 322.732 1686.61 326.131Z" fill="#B2BAC5"/>
<path d="M1715.73 333.933C1717.69 337.331 1722.04 338.496 1725.44 336.534C1728.83 334.572 1730 330.227 1728.04 326.829C1726.08 323.43 1721.73 322.266 1718.33 324.228C1714.93 326.19 1713.77 330.535 1715.73 333.933Z" fill="#B2BAC5"/>
<path d="M1673.1 260.095C1675.06 263.493 1679.41 264.658 1682.81 262.696C1686.2 260.734 1687.37 256.389 1685.41 252.991C1683.44 249.593 1679.1 248.428 1675.7 250.39C1672.3 252.352 1671.14 256.697 1673.1 260.095Z" fill="#B2BAC5"/>
<path d="M1702.22 267.898C1704.18 271.296 1708.53 272.46 1711.92 270.499C1715.32 268.537 1716.49 264.192 1714.52 260.793C1712.56 257.395 1708.22 256.231 1704.82 258.193C1701.42 260.155 1700.26 264.5 1702.22 267.898Z" fill="#B2BAC5"/>
<path d="M1665.3 289.214C1667.26 292.613 1671.61 293.777 1675.01 291.815C1678.4 289.853 1679.57 285.508 1677.61 282.11C1675.64 278.712 1671.3 277.547 1667.9 279.509C1664.5 281.471 1663.34 285.816 1665.3 289.214Z" fill="#B2BAC5"/>
<path d="M1651.79 223.177C1653.75 226.575 1658.09 227.74 1661.49 225.778C1664.89 223.816 1666.05 219.471 1664.09 216.073C1662.13 212.675 1657.79 211.51 1654.39 213.472C1650.99 215.434 1649.82 219.779 1651.79 223.177Z" fill="#B2BAC5"/>
<path d="M1659.59 194.058C1661.55 197.456 1665.9 198.621 1669.29 196.659C1672.69 194.697 1673.86 190.352 1671.89 186.954C1669.93 183.555 1665.59 182.391 1662.19 184.353C1658.79 186.315 1657.63 190.66 1659.59 194.058Z" fill="#B2BAC5"/>
<path d="M1680.9 230.982C1682.87 234.38 1687.21 235.544 1690.61 233.583C1694.01 231.621 1695.17 227.276 1693.21 223.877C1691.25 220.479 1686.9 219.315 1683.5 221.277C1680.11 223.239 1678.94 227.584 1680.9 230.982Z" fill="#B2BAC5"/>
<path d="M1622.67 215.377C1624.63 218.775 1628.98 219.939 1632.37 217.977C1635.77 216.015 1636.94 211.67 1634.98 208.272C1633.01 204.874 1628.67 203.71 1625.27 205.671C1621.87 207.633 1620.71 211.979 1622.67 215.377Z" fill="#B2BAC5"/>
<path d="M1643.98 252.295C1645.95 255.693 1650.29 256.857 1653.69 254.895C1657.09 252.933 1658.25 248.588 1656.29 245.19C1654.33 241.792 1649.98 240.628 1646.59 242.589C1643.19 244.551 1642.02 248.896 1643.98 252.295Z" fill="#B2BAC5"/>
<path d="M1707.93 363.05C1709.89 366.449 1714.24 367.613 1717.63 365.651C1721.03 363.689 1722.2 359.344 1720.23 355.946C1718.27 352.548 1713.93 351.383 1710.53 353.345C1707.13 355.307 1705.97 359.652 1707.93 363.05Z" fill="#B2BAC5"/>
<path d="M1657.5 318.328C1659.46 321.726 1663.8 322.89 1667.2 320.928C1670.6 318.966 1671.77 314.621 1669.8 311.223C1667.84 307.825 1663.5 306.661 1660.1 308.623C1656.7 310.585 1655.54 314.93 1657.5 318.328Z" fill="#B2BAC5"/>
<path d="M1678.81 355.25C1680.78 358.648 1685.12 359.812 1688.52 357.85C1691.92 355.888 1693.08 351.543 1691.12 348.145C1689.16 344.747 1684.81 343.583 1681.41 345.545C1678.02 347.506 1676.85 351.852 1678.81 355.25Z" fill="#B2BAC5"/>
<path d="M1636.18 281.41C1638.14 284.808 1642.49 285.972 1645.89 284.01C1649.29 282.048 1650.45 277.703 1648.49 274.305C1646.53 270.907 1642.18 269.743 1638.78 271.705C1635.39 273.667 1634.22 278.012 1636.18 281.41Z" fill="#B2BAC5"/>
<path d="M1614.87 244.492C1616.83 247.89 1621.18 249.054 1624.57 247.092C1627.97 245.13 1629.14 240.785 1627.17 237.387C1625.21 233.989 1620.87 232.825 1617.47 234.787C1614.07 236.749 1612.91 241.094 1614.87 244.492Z" fill="#B2BAC5"/>
<path d="M1620.58 339.644C1622.54 343.042 1626.89 344.207 1630.28 342.245C1633.68 340.283 1634.85 335.938 1632.88 332.54C1630.92 329.141 1626.58 327.977 1623.18 329.939C1619.78 331.901 1618.62 336.246 1620.58 339.644Z" fill="#B2BAC5"/>
<path d="M1649.7 347.445C1651.66 350.843 1656 352.007 1659.4 350.045C1662.8 348.084 1663.96 343.738 1662 340.34C1660.04 336.942 1655.69 335.778 1652.3 337.74C1648.9 339.702 1647.73 344.047 1649.7 347.445Z" fill="#B2BAC5"/>
<path d="M1612.78 368.763C1614.74 372.161 1619.08 373.326 1622.48 371.364C1625.88 369.402 1627.04 365.057 1625.08 361.659C1623.12 358.261 1618.78 357.096 1615.38 359.058C1611.98 361.02 1610.82 365.365 1612.78 368.763Z" fill="#B2BAC5"/>
<path d="M1641.89 376.564C1643.86 379.962 1648.2 381.126 1651.6 379.165C1655 377.203 1656.16 372.858 1654.2 369.459C1652.24 366.061 1647.89 364.897 1644.5 366.859C1641.1 368.821 1639.93 373.166 1641.89 376.564Z" fill="#B2BAC5"/>
<path d="M1599.26 302.726C1601.23 306.124 1605.57 307.289 1608.97 305.327C1612.37 303.365 1613.53 299.02 1611.57 295.622C1609.61 292.223 1605.26 291.059 1601.86 293.021C1598.47 294.983 1597.3 299.328 1599.26 302.726Z" fill="#B2BAC5"/>
<path d="M1628.38 310.527C1630.34 313.925 1634.69 315.089 1638.09 313.127C1641.48 311.166 1642.65 306.82 1640.69 303.422C1638.73 300.024 1634.38 298.86 1630.98 300.822C1627.58 302.784 1626.42 307.129 1628.38 310.527Z" fill="#B2BAC5"/>
<path d="M1607.07 273.609C1609.03 277.007 1613.37 278.171 1616.77 276.21C1620.17 274.248 1621.33 269.902 1619.37 266.504C1617.41 263.106 1613.07 261.942 1609.67 263.904C1606.27 265.866 1605.1 270.211 1607.07 273.609Z" fill="#B2BAC5"/>
<path d="M1671.01 384.365C1672.97 387.763 1677.32 388.927 1680.72 386.965C1684.11 385.003 1685.28 380.658 1683.32 377.26C1681.36 373.862 1677.01 372.698 1673.61 374.66C1670.21 376.622 1669.05 380.967 1671.01 384.365Z" fill="#B2BAC5"/>
<path d="M1634.09 405.677C1636.05 409.075 1640.4 410.24 1643.8 408.278C1647.2 406.316 1648.36 401.971 1646.4 398.573C1644.44 395.175 1640.09 394.01 1636.69 395.972C1633.29 397.934 1632.13 402.279 1634.09 405.677Z" fill="#B2BAC5"/>
<path d="M1663.21 413.482C1665.17 416.88 1669.52 418.044 1672.91 416.083C1676.31 414.121 1677.48 409.776 1675.51 406.377C1673.55 402.979 1669.21 401.815 1665.81 403.777C1662.41 405.739 1661.25 410.084 1663.21 413.482Z" fill="#B2BAC5"/>
</g>
<g opacity="0.11">
<path d="M406.053 444.279C410.314 444.279 413.768 440.959 413.768 436.862C413.768 432.766 410.314 429.445 406.053 429.445C401.793 429.445 398.338 432.766 398.338 436.862C398.338 440.959 401.793 444.279 406.053 444.279Z" fill="#B2BAC5"/>
<path d="M406.053 488.779C410.314 488.779 413.768 485.459 413.768 481.362C413.768 477.266 410.314 473.945 406.053 473.945C401.793 473.945 398.338 477.266 398.338 481.362C398.338 485.459 401.793 488.779 406.053 488.779Z" fill="#B2BAC5"/>
<path d="M382.908 511.029C387.169 511.029 390.623 507.709 390.623 503.612C390.623 499.516 387.169 496.195 382.908 496.195C378.647 496.195 375.193 499.516 375.193 503.612C375.193 507.709 378.647 511.029 382.908 511.029Z" fill="#B2BAC5"/>
<path d="M290.323 511.029C294.584 511.029 298.038 507.709 298.038 503.612C298.038 499.516 294.584 496.195 290.323 496.195C286.062 496.195 282.608 499.516 282.608 503.612C282.608 507.709 286.062 511.029 290.323 511.029Z" fill="#B2BAC5"/>
<path d="M313.468 488.779C317.729 488.779 321.183 485.459 321.183 481.362C321.183 477.266 317.729 473.945 313.468 473.945C309.208 473.945 305.753 477.266 305.753 481.362C305.753 485.459 309.208 488.779 313.468 488.779Z" fill="#B2BAC5"/>
<path d="M174.592 577.779C178.853 577.779 182.307 574.459 182.307 570.362C182.307 566.266 178.853 562.945 174.592 562.945C170.332 562.945 166.877 566.266 166.877 570.362C166.877 574.459 170.332 577.779 174.592 577.779Z" fill="#B2BAC5"/>
<path d="M382.908 555.529C387.169 555.529 390.623 552.209 390.623 548.112C390.623 544.016 387.169 540.695 382.908 540.695C378.647 540.695 375.193 544.016 375.193 548.112C375.193 552.209 378.647 555.529 382.908 555.529Z" fill="#B2BAC5"/>
<path d="M406.053 533.279C410.314 533.279 413.768 529.959 413.768 525.862C413.768 521.766 410.314 518.445 406.053 518.445C401.793 518.445 398.338 521.766 398.338 525.862C398.338 529.959 401.793 533.279 406.053 533.279Z" fill="#B2BAC5"/>
<path d="M406.053 577.779C410.314 577.779 413.768 574.459 413.768 570.362C413.768 566.266 410.314 562.945 406.053 562.945C401.793 562.945 398.338 566.266 398.338 570.362C398.338 574.459 401.793 577.779 406.053 577.779Z" fill="#B2BAC5"/>
<path d="M336.615 555.529C340.876 555.529 344.33 552.209 344.33 548.112C344.33 544.016 340.876 540.695 336.615 540.695C332.354 540.695 328.9 544.016 328.9 548.112C328.9 552.209 332.354 555.529 336.615 555.529Z" fill="#B2BAC5"/>
<path d="M359.759 533.279C364.02 533.279 367.474 529.959 367.474 525.862C367.474 521.766 364.02 518.445 359.759 518.445C355.499 518.445 352.044 521.766 352.044 525.862C352.044 529.959 355.499 533.279 359.759 533.279Z" fill="#B2BAC5"/>
<path d="M359.759 577.779C364.02 577.779 367.474 574.459 367.474 570.362C367.474 566.266 364.02 562.945 359.759 562.945C355.499 562.945 352.044 566.266 352.044 570.362C352.044 574.459 355.499 577.779 359.759 577.779Z" fill="#B2BAC5"/>
<path d="M244.03 555.529C248.291 555.529 251.745 552.209 251.745 548.112C251.745 544.016 248.291 540.695 244.03 540.695C239.769 540.695 236.315 544.016 236.315 548.112C236.315 552.209 239.769 555.529 244.03 555.529Z" fill="#B2BAC5"/>
<path d="M290.323 555.529C294.584 555.529 298.038 552.209 298.038 548.112C298.038 544.016 294.584 540.695 290.323 540.695C286.062 540.695 282.608 544.016 282.608 548.112C282.608 552.209 286.062 555.529 290.323 555.529Z" fill="#B2BAC5"/>
<path d="M151.447 600.029C155.708 600.029 159.162 596.709 159.162 592.612C159.162 588.516 155.708 585.195 151.447 585.195C147.186 585.195 143.732 588.516 143.732 592.612C143.732 596.709 147.186 600.029 151.447 600.029Z" fill="#B2BAC5"/>
<path d="M197.738 600.029C201.999 600.029 205.453 596.709 205.453 592.612C205.453 588.516 201.999 585.195 197.738 585.195C193.477 585.195 190.023 588.516 190.023 592.612C190.023 596.709 193.477 600.029 197.738 600.029Z" fill="#B2BAC5"/>
<path d="M58.862 600.029C63.1228 600.029 66.577 596.709 66.577 592.612C66.577 588.516 63.1228 585.195 58.862 585.195C54.6011 585.195 51.147 588.516 51.147 592.612C51.147 596.709 54.6011 600.029 58.862 600.029Z" fill="#B2BAC5"/>
<path d="M382.908 600.029C387.169 600.029 390.623 596.709 390.623 592.612C390.623 588.516 387.169 585.195 382.908 585.195C378.647 585.195 375.193 588.516 375.193 592.612C375.193 596.709 378.647 600.029 382.908 600.029Z" fill="#B2BAC5"/>
<path d="M336.615 600.029C340.876 600.029 344.33 596.709 344.33 592.612C344.33 588.516 340.876 585.195 336.615 585.195C332.354 585.195 328.9 588.516 328.9 592.612C328.9 596.709 332.354 600.029 336.615 600.029Z" fill="#B2BAC5"/>
<path d="M244.03 600.029C248.291 600.029 251.745 596.709 251.745 592.612C251.745 588.516 248.291 585.195 244.03 585.195C239.769 585.195 236.315 588.516 236.315 592.612C236.315 596.709 239.769 600.029 244.03 600.029Z" fill="#B2BAC5"/>
<path d="M290.323 600.029C294.584 600.029 298.038 596.709 298.038 592.612C298.038 588.516 294.584 585.195 290.323 585.195C286.062 585.195 282.608 588.516 282.608 592.612C282.608 596.709 286.062 600.029 290.323 600.029Z" fill="#B2BAC5"/>
<path d="M267.176 533.279C271.437 533.279 274.891 529.959 274.891 525.862C274.891 521.766 271.437 518.445 267.176 518.445C262.916 518.445 259.461 521.766 259.461 525.862C259.461 529.959 262.916 533.279 267.176 533.279Z" fill="#B2BAC5"/>
<path d="M313.468 533.279C317.729 533.279 321.183 529.959 321.183 525.862C321.183 521.766 317.729 518.445 313.468 518.445C309.208 518.445 305.753 521.766 305.753 525.862C305.753 529.959 309.208 533.279 313.468 533.279Z" fill="#B2BAC5"/>
<path d="M267.176 577.779C271.437 577.779 274.891 574.459 274.891 570.362C274.891 566.266 271.437 562.945 267.176 562.945C262.916 562.945 259.461 566.266 259.461 570.362C259.461 574.459 262.916 577.779 267.176 577.779Z" fill="#B2BAC5"/>
<path d="M313.468 577.779C317.729 577.779 321.183 574.459 321.183 570.362C321.183 566.266 317.729 562.945 313.468 562.945C309.208 562.945 305.753 566.266 305.753 570.362C305.753 574.459 309.208 577.779 313.468 577.779Z" fill="#B2BAC5"/>
<path d="M151.447 644.527C155.708 644.527 159.162 641.207 159.162 637.11C159.162 633.014 155.708 629.693 151.447 629.693C147.186 629.693 143.732 633.014 143.732 637.11C143.732 641.207 147.186 644.527 151.447 644.527Z" fill="#B2BAC5"/>
<path d="M174.592 622.277C178.853 622.277 182.307 618.957 182.307 614.86C182.307 610.764 178.853 607.443 174.592 607.443C170.332 607.443 166.877 610.764 166.877 614.86C166.877 618.957 170.332 622.277 174.592 622.277Z" fill="#B2BAC5"/>
<path d="M174.592 666.777C178.853 666.777 182.307 663.457 182.307 659.36C182.307 655.264 178.853 651.943 174.592 651.943C170.332 651.943 166.877 655.264 166.877 659.36C166.877 663.457 170.332 666.777 174.592 666.777Z" fill="#B2BAC5"/>
<path d="M197.738 644.527C201.999 644.527 205.453 641.207 205.453 637.11C205.453 633.014 201.999 629.693 197.738 629.693C193.477 629.693 190.023 633.014 190.023 637.11C190.023 641.207 193.477 644.527 197.738 644.527Z" fill="#B2BAC5"/>
<path d="M105.154 644.527C109.415 644.527 112.869 641.207 112.869 637.11C112.869 633.014 109.415 629.693 105.154 629.693C100.893 629.693 97.439 633.014 97.439 637.11C97.439 641.207 100.893 644.527 105.154 644.527Z" fill="#B2BAC5"/>
<path d="M128.298 666.777C132.559 666.777 136.013 663.457 136.013 659.36C136.013 655.264 132.559 651.943 128.298 651.943C124.038 651.943 120.583 655.264 120.583 659.36C120.583 663.457 124.038 666.777 128.298 666.777Z" fill="#B2BAC5"/>
<path d="M12.569 644.527C16.8299 644.527 20.284 641.207 20.284 637.11C20.284 633.014 16.8299 629.693 12.569 629.693C8.30813 629.693 4.854 633.014 4.854 637.11C4.854 641.207 8.30813 644.527 12.569 644.527Z" fill="#B2BAC5"/>
<path d="M58.862 644.527C63.1228 644.527 66.577 641.207 66.577 637.11C66.577 633.014 63.1228 629.693 58.862 629.693C54.6011 629.693 51.147 633.014 51.147 637.11C51.147 641.207 54.6011 644.527 58.862 644.527Z" fill="#B2BAC5"/>
<path d="M35.7155 622.277C39.9764 622.277 43.4305 618.957 43.4305 614.86C43.4305 610.764 39.9764 607.443 35.7155 607.443C31.4546 607.443 28.0005 610.764 28.0005 614.86C28.0005 618.957 31.4546 622.277 35.7155 622.277Z" fill="#B2BAC5"/>
<path d="M82.0075 622.277C86.2684 622.277 89.7225 618.957 89.7225 614.86C89.7225 610.764 86.2684 607.443 82.0075 607.443C77.7466 607.443 74.2925 610.764 74.2925 614.86C74.2925 618.957 77.7466 622.277 82.0075 622.277Z" fill="#B2BAC5"/>
<path d="M35.7155 666.777C39.9764 666.777 43.4305 663.457 43.4305 659.36C43.4305 655.264 39.9764 651.943 35.7155 651.943C31.4546 651.943 28.0005 655.264 28.0005 659.36C28.0005 663.457 31.4546 666.777 35.7155 666.777Z" fill="#B2BAC5"/>
<path d="M82.0075 666.777C86.2684 666.777 89.7225 663.457 89.7225 659.36C89.7225 655.264 86.2684 651.943 82.0075 651.943C77.7466 651.943 74.2925 655.264 74.2925 659.36C74.2925 663.457 77.7466 666.777 82.0075 666.777Z" fill="#B2BAC5"/>
<path d="M382.908 644.527C387.169 644.527 390.623 641.207 390.623 637.11C390.623 633.014 387.169 629.693 382.908 629.693C378.647 629.693 375.193 633.014 375.193 637.11C375.193 641.207 378.647 644.527 382.908 644.527Z" fill="#B2BAC5"/>
<path d="M406.053 622.277C410.314 622.277 413.768 618.957 413.768 614.86C413.768 610.764 410.314 607.443 406.053 607.443C401.793 607.443 398.338 610.764 398.338 614.86C398.338 618.957 401.793 622.277 406.053 622.277Z" fill="#B2BAC5"/>
<path d="M406.053 666.777C410.314 666.777 413.768 663.457 413.768 659.36C413.768 655.264 410.314 651.943 406.053 651.943C401.793 651.943 398.338 655.264 398.338 659.36C398.338 663.457 401.793 666.777 406.053 666.777Z" fill="#B2BAC5"/>
<path d="M336.615 644.527C340.876 644.527 344.33 641.207 344.33 637.11C344.33 633.014 340.876 629.693 336.615 629.693C332.354 629.693 328.9 633.014 328.9 637.11C328.9 641.207 332.354 644.527 336.615 644.527Z" fill="#B2BAC5"/>
<path d="M359.759 622.277C364.02 622.277 367.474 618.957 367.474 614.86C367.474 610.764 364.02 607.443 359.759 607.443C355.499 607.443 352.044 610.764 352.044 614.86C352.044 618.957 355.499 622.277 359.759 622.277Z" fill="#B2BAC5"/>
<path d="M359.759 666.777C364.02 666.777 367.474 663.457 367.474 659.36C367.474 655.264 364.02 651.943 359.759 651.943C355.499 651.943 352.044 655.264 352.044 659.36C352.044 663.457 355.499 666.777 359.759 666.777Z" fill="#B2BAC5"/>
<path d="M220.884 622.277C225.145 622.277 228.599 618.957 228.599 614.86C228.599 610.764 225.145 607.443 220.884 607.443C216.624 607.443 213.169 610.764 213.169 614.86C213.169 618.957 216.624 622.277 220.884 622.277Z" fill="#B2BAC5"/>
<path d="M220.884 666.777C225.145 666.777 228.599 663.457 228.599 659.36C228.599 655.264 225.145 651.943 220.884 651.943C216.624 651.943 213.169 655.264 213.169 659.36C213.169 663.457 216.624 666.777 220.884 666.777Z" fill="#B2BAC5"/>
<path d="M244.03 644.527C248.291 644.527 251.745 641.207 251.745 637.11C251.745 633.014 248.291 629.693 244.03 629.693C239.769 629.693 236.315 633.014 236.315 637.11C236.315 641.207 239.769 644.527 244.03 644.527Z" fill="#B2BAC5"/>
<path d="M290.323 644.527C294.584 644.527 298.038 641.207 298.038 637.11C298.038 633.014 294.584 629.693 290.323 629.693C286.062 629.693 282.608 633.014 282.608 637.11C282.608 641.207 286.062 644.527 290.323 644.527Z" fill="#B2BAC5"/>
<path d="M267.176 622.277C271.437 622.277 274.891 618.957 274.891 614.86C274.891 610.764 271.437 607.443 267.176 607.443C262.916 607.443 259.461 610.764 259.461 614.86C259.461 618.957 262.916 622.277 267.176 622.277Z" fill="#B2BAC5"/>
<path d="M313.468 622.277C317.729 622.277 321.183 618.957 321.183 614.86C321.183 610.764 317.729 607.443 313.468 607.443C309.208 607.443 305.753 610.764 305.753 614.86C305.753 618.957 309.208 622.277 313.468 622.277Z" fill="#B2BAC5"/>
<path d="M267.176 666.777C271.437 666.777 274.891 663.457 274.891 659.36C274.891 655.264 271.437 651.943 267.176 651.943C262.916 651.943 259.461 655.264 259.461 659.36C259.461 663.457 262.916 666.777 267.176 666.777Z" fill="#B2BAC5"/>
<path d="M313.468 666.777C317.729 666.777 321.183 663.457 321.183 659.36C321.183 655.264 317.729 651.943 313.468 651.943C309.208 651.943 305.753 655.264 305.753 659.36C305.753 663.457 309.208 666.777 313.468 666.777Z" fill="#B2BAC5"/>
<path d="M343.86 483.238L297.568 423.908L212.699 549.987L165.319 489.26L111.311 600.508L67.4107 544.231L4.85368 604.373C4.23968 605.392 4.18068 605.083 -10.5773 619.206V681.606H-18.2923C-19.2903 681.568 -20.2858 681.731 -21.2191 682.086C-22.1525 682.442 -23.0045 682.982 -23.7242 683.674C-24.4438 684.367 -25.0163 685.197 -25.4074 686.116C-25.7984 687.035 -26 688.024 -26 689.022C-26 690.021 -25.7984 691.01 -25.4074 691.929C-25.0163 692.848 -24.4438 693.678 -23.7242 694.371C-23.0045 695.063 -22.1525 695.603 -21.2191 695.959C-20.2858 696.314 -19.2903 696.477 -18.2923 696.439H-10.5773V703.856C-10.5582 704.85 -10.3434 705.83 -9.94529 706.741C-9.54714 707.651 -8.97343 708.475 -8.25693 709.163C-7.54043 709.852 -6.69521 710.393 -5.76957 710.755C-4.84393 711.117 -3.85602 711.293 -2.86232 711.273C-1.86859 711.293 -0.880627 711.117 0.0450726 710.755C0.970772 710.393 1.81605 709.853 2.53257 709.164C3.2491 708.475 3.82281 707.651 4.22091 706.741C4.61901 705.83 4.83369 704.85 4.85268 703.856V696.439H436.915V345L343.86 483.238ZM390.623 681.608C390.547 679.612 389.701 677.723 388.263 676.338C386.824 674.952 384.904 674.178 382.907 674.178C380.91 674.178 378.99 674.952 377.552 676.338C376.113 677.723 375.267 679.612 375.192 681.608H344.331C344.255 679.612 343.409 677.723 341.971 676.338C340.532 674.952 338.612 674.178 336.615 674.178C334.618 674.178 332.698 674.952 331.26 676.338C329.821 677.723 328.975 679.612 328.9 681.608H298.039C297.963 679.612 297.117 677.723 295.679 676.338C294.24 674.952 292.32 674.178 290.323 674.178C288.326 674.178 286.406 674.952 284.968 676.338C283.529 677.723 282.683 679.612 282.608 681.608H251.746C251.67 679.612 250.824 677.723 249.386 676.338C247.947 674.952 246.027 674.178 244.03 674.178C242.033 674.178 240.113 674.952 238.675 676.338C237.236 677.723 236.39 679.612 236.315 681.608H205.454C205.378 679.612 204.532 677.723 203.094 676.338C201.655 674.952 199.735 674.178 197.738 674.178C195.741 674.178 193.821 674.952 192.383 676.338C190.944 677.723 190.098 679.612 190.023 681.608H159.162C159.086 679.612 158.24 677.723 156.802 676.338C155.363 674.952 153.443 674.178 151.446 674.178C149.449 674.178 147.529 674.952 146.091 676.338C144.652 677.723 143.806 679.612 143.731 681.608H112.87C112.794 679.612 111.948 677.723 110.51 676.338C109.071 674.952 107.151 674.178 105.154 674.178C103.157 674.178 101.237 674.952 99.7986 676.338C98.3599 677.723 97.514 679.612 97.4387 681.608H66.5777C66.5023 679.612 65.6564 677.723 64.2177 676.338C62.779 674.952 60.8595 674.178 58.8622 674.178C56.8649 674.178 54.9453 674.952 53.5066 676.338C52.0679 677.723 51.222 679.612 51.1467 681.608H20.2847C20.2093 679.612 19.3634 677.723 17.9247 676.338C16.486 674.952 14.5665 674.178 12.5692 674.178C10.5719 674.178 8.65231 674.952 7.21362 676.338C5.77492 677.723 4.92905 679.612 4.85368 681.608V625.347L65.7437 566.815L114.428 629.208L120.828 616.014C121.01 617.474 121.611 618.85 122.558 619.977C123.505 621.103 124.758 621.931 126.165 622.361C127.572 622.791 129.074 622.804 130.488 622.399C131.903 621.995 133.171 621.189 134.138 620.08C135.105 618.971 135.73 617.606 135.938 616.149C136.147 614.693 135.929 613.207 135.311 611.871C134.694 610.535 133.703 609.407 132.458 608.622C131.213 607.837 129.768 607.43 128.297 607.448C126.93 607.478 125.596 607.873 124.432 608.59L168.425 517.967L213.625 575.913L214.605 574.459C215.306 575.477 216.242 576.31 217.334 576.888C218.426 577.467 219.642 577.773 220.878 577.782C222.884 577.82 224.823 577.06 226.27 575.67C227.716 574.279 228.552 572.371 228.593 570.365C228.548 568.604 227.879 566.917 226.704 565.604C225.53 564.292 223.927 563.44 222.182 563.201L298.502 449.824L334.942 496.524C333.272 496.831 331.76 497.704 330.658 498.995C329.557 500.286 328.933 501.917 328.893 503.614C328.934 505.62 329.769 507.528 331.216 508.919C332.662 510.309 334.601 511.069 336.608 511.031C337.955 511.028 339.278 510.671 340.443 509.993C341.608 509.316 342.574 508.344 343.243 507.174L344.786 509.154L376.164 462.541C376.826 463.749 377.8 464.757 378.985 465.459C380.17 466.161 381.522 466.531 382.9 466.531C383.872 466.572 384.843 466.42 385.757 466.084C386.671 465.748 387.509 465.235 388.223 464.573C388.937 463.911 389.513 463.115 389.917 462.23C390.322 461.344 390.547 460.387 390.58 459.415C390.613 458.442 390.453 457.472 390.11 456.561C389.766 455.65 389.245 454.817 388.578 454.108C387.91 453.4 387.109 452.831 386.22 452.433C385.331 452.036 384.373 451.819 383.4 451.794L421.475 395.228V681.608H390.623Z" fill="#B2BAC5"/>
</g>
</svg>
