<svg width="526" height="130" viewBox="0 0 526 130" fill="none" xmlns="http://www.w3.org/2000/svg">
<path d="M0 12.126C0 5.42899 5.429 0 12.126 0H116.874C123.571 0 129 5.429 129 12.126V116.874C129 123.571 123.571 129 116.874 129H12.126C5.42899 129 0 123.571 0 116.874V12.126Z" fill="white"/>
<path d="M15.1497 6.57263C10.4382 6.57263 6.57233 10.4425 6.57233 15.159V113.842C6.57233 118.316 10.0758 121.944 14.4249 122.428L55.6206 6.57263H15.1497Z" fill="#345BA9"/>
<path d="M122.307 15.1586C122.307 10.4422 118.441 6.57227 113.729 6.57227H89.5677L122.428 99.4501V15.1586H122.307Z" fill="#BE202E"/>
<path d="M95.6082 103.441H48.3721L42.2108 122.429H101.649L95.6082 103.441Z" fill="#345BA9"/>
<path d="M72.2922 30.8801L55.7414 81.3099H88.4805L72.2922 30.8801Z" fill="#345BA9"/>
<path d="M197.367 7H216.944L249.408 94.2406H229.586L223.019 74.8195H190.555L183.743 94.2406H164.411L197.367 7ZM195.526 60.5158H218.048L207.125 28.5173H206.879L195.526 60.5158Z" fill="black"/>
<path d="M265.61 66.8662C266.101 77.8406 271.44 82.8963 281.075 82.8963C288.009 82.8963 293.594 78.6421 294.699 74.6963H309.918C305.07 89.6166 294.699 95.9669 280.461 95.9669C260.639 95.9669 248.365 82.2797 248.365 62.7354C248.365 43.8075 261.375 29.3805 280.461 29.3805C301.879 29.3805 312.189 47.4451 310.962 66.8662H265.61ZM293.717 55.8301C292.121 47.0136 288.378 42.3895 279.97 42.3895C269.046 42.3895 265.855 50.9594 265.61 55.8301H293.717Z" fill="black"/>
<path d="M318.817 31.0452H335.264V42.7594H335.509C338.701 34.8061 347.17 29.3188 355.577 29.3188C356.805 29.3188 358.277 29.5655 359.321 29.9354V46.0888C357.725 45.7188 355.209 45.4722 353.122 45.4722C340.48 45.4722 336.123 54.6587 336.123 65.7564V94.2406H318.878V31.0452H318.817Z" fill="black"/>
<path d="M381.536 21.3038H364.292V7H381.536V21.3038ZM364.23 31.0451H381.475V94.2406H364.23V31.0451Z" fill="black"/>
<path d="M407.066 66.8662C407.557 77.8406 412.896 82.8963 422.531 82.8963C429.466 82.8963 435.051 78.6421 436.155 74.6963H451.375C446.527 89.6166 436.155 95.9669 421.917 95.9669C402.095 95.9669 389.821 82.2797 389.821 62.7354C389.821 43.8075 402.832 29.3805 421.917 29.3805C443.335 29.3805 453.645 47.4451 452.418 66.8662H407.066ZM435.173 55.8301C433.578 47.0136 429.834 42.3895 421.427 42.3895C410.503 42.3895 407.312 50.9594 407.066 55.8301H435.173Z" fill="black"/>
<path d="M473.161 73.7098C473.284 81.2933 479.605 84.3143 486.417 84.3143C491.388 84.3143 497.709 82.3414 497.709 76.2376C497.709 70.997 490.528 69.1474 478.132 66.4346C468.19 64.2151 458.187 60.7008 458.187 49.603C458.187 33.4497 472.056 29.3188 485.558 29.3188C499.304 29.3188 511.946 33.9429 513.297 49.4797H496.85C496.359 42.7594 491.265 40.9098 485.067 40.9098C481.2 40.9098 475.432 41.6497 475.432 46.767C475.432 52.994 485.189 53.8572 495.008 56.2C505.073 58.5429 514.954 62.1805 514.954 73.8948C514.954 90.4797 500.593 95.9053 486.233 95.9053C471.627 95.9053 457.389 90.4181 456.653 73.6482H473.161V73.7098Z" fill="black"/>
<path d="M518.758 13.8436C519.986 13.8436 521.152 14.1519 522.318 14.7684C523.484 15.385 524.404 16.3098 525.018 17.4812C525.693 18.6526 526 19.8857 526 21.1188C526 22.3519 525.693 23.585 525.018 24.7564C524.404 25.9278 523.484 26.791 522.318 27.4692C521.152 28.0857 519.986 28.4557 518.697 28.4557C517.47 28.4557 516.242 28.1474 515.076 27.4692C513.91 26.8527 513.051 25.9278 512.376 24.7564C511.762 23.585 511.394 22.4135 511.394 21.1188C511.394 19.8241 511.701 18.6526 512.376 17.4812C513.051 16.3098 513.91 15.385 515.076 14.7684C516.365 14.1519 517.531 13.8436 518.758 13.8436ZM518.758 15.0767C517.715 15.0767 516.733 15.3233 515.813 15.8782C514.831 16.4331 514.094 17.1729 513.542 18.0978C512.99 19.0842 512.744 20.0707 512.744 21.1188C512.744 22.1669 512.99 23.1534 513.542 24.1399C514.094 25.1263 514.831 25.8662 515.813 26.4211C516.795 26.976 517.777 27.2226 518.82 27.2226C519.863 27.2226 520.845 26.976 521.827 26.4211C522.809 25.8662 523.545 25.1263 524.098 24.1399C524.65 23.1534 524.895 22.1669 524.895 21.1188C524.895 20.0707 524.65 19.0226 524.098 18.0978C523.545 17.1113 522.809 16.3714 521.827 15.8782C520.784 15.3233 519.802 15.0767 518.758 15.0767ZM515.567 25.188V17.3579H518.267C519.188 17.3579 519.863 17.4196 520.231 17.6045C520.661 17.7278 520.968 17.9744 521.213 18.3444C521.459 18.7143 521.581 19.0842 521.581 19.5158C521.581 20.0707 521.397 20.5639 520.968 20.9955C520.538 21.4271 520.047 21.6737 519.372 21.7353C519.679 21.8587 519.863 21.982 520.047 22.1669C520.354 22.4752 520.722 22.9684 521.213 23.7083L522.195 25.2496H520.661L519.986 24.0166C519.433 23.0301 519.004 22.4136 518.697 22.1669C518.452 21.982 518.145 21.9203 517.715 21.9203H516.979V25.2496H515.567V25.188ZM516.856 20.7489H518.39C519.127 20.7489 519.618 20.6256 519.863 20.4406C520.109 20.194 520.231 19.9474 520.231 19.5775C520.231 19.3308 520.17 19.1459 520.047 18.9609C519.924 18.776 519.74 18.6527 519.495 18.5293C519.249 18.4677 518.82 18.406 518.206 18.406H516.795V20.7489H516.856Z" fill="black"/>
<path d="M175.765 106.51C175.703 106.633 175.581 106.757 175.458 106.88C175.335 106.941 175.213 107.003 175.09 107.003C174.906 107.003 174.722 106.941 174.476 106.757C174.231 106.572 173.985 106.387 173.617 106.202C173.249 106.017 172.88 105.832 172.39 105.647C171.899 105.462 171.285 105.4 170.61 105.4C169.935 105.4 169.382 105.462 168.891 105.647C168.401 105.832 167.971 106.078 167.664 106.387C167.357 106.695 167.05 107.065 166.928 107.435C166.744 107.866 166.682 108.298 166.682 108.729C166.682 109.346 166.805 109.839 167.112 110.209C167.419 110.579 167.787 110.949 168.278 111.257C168.769 111.566 169.321 111.812 169.935 111.997C170.548 112.182 171.162 112.429 171.837 112.614C172.512 112.86 173.126 113.107 173.74 113.354C174.353 113.6 174.906 113.97 175.397 114.402C175.888 114.833 176.256 115.326 176.563 115.943C176.869 116.559 176.992 117.299 176.992 118.224C176.992 119.149 176.808 120.074 176.501 120.875C176.194 121.677 175.703 122.417 175.09 123.033C174.476 123.65 173.74 124.143 172.819 124.513C171.899 124.883 170.917 125.068 169.751 125.068C168.339 125.068 167.05 124.821 165.946 124.328C164.78 123.835 163.798 123.157 163 122.293L163.859 120.875C163.921 120.752 164.043 120.69 164.166 120.567C164.289 120.505 164.411 120.444 164.534 120.444C164.657 120.444 164.841 120.505 164.964 120.629C165.148 120.752 165.332 120.875 165.516 120.999C165.7 121.184 165.946 121.307 166.253 121.553C166.498 121.738 166.805 121.923 167.173 122.108C167.541 122.293 167.91 122.417 168.339 122.54C168.769 122.663 169.26 122.725 169.812 122.725C170.487 122.725 171.101 122.602 171.653 122.417C172.205 122.232 172.635 121.985 173.003 121.615C173.371 121.245 173.678 120.875 173.862 120.382C174.046 119.889 174.169 119.334 174.169 118.779C174.169 118.101 174.046 117.608 173.74 117.176C173.433 116.744 173.065 116.436 172.574 116.128C172.083 115.82 171.53 115.635 170.917 115.388C170.303 115.203 169.689 115.018 169.014 114.772C168.401 114.587 167.725 114.34 167.112 114.032C166.498 113.785 165.946 113.415 165.455 112.984C164.964 112.552 164.596 111.997 164.289 111.381C163.982 110.702 163.859 109.901 163.859 108.976C163.859 108.236 163.982 107.496 164.289 106.757C164.596 106.017 165.025 105.4 165.578 104.845C166.13 104.29 166.866 103.859 167.664 103.489C168.462 103.181 169.444 102.996 170.487 102.996C171.714 102.996 172.758 103.181 173.801 103.55C174.783 103.92 175.642 104.475 176.44 105.215L175.765 106.51Z" fill="black"/>
<path d="M184.05 125.006C182.822 125.006 181.902 124.698 181.288 124.02C180.613 123.341 180.306 122.355 180.306 121.122V111.75H178.465C178.281 111.75 178.158 111.689 178.035 111.627C177.913 111.504 177.851 111.38 177.851 111.196V110.147L180.368 109.839L180.981 105.092C180.981 104.968 181.104 104.845 181.165 104.722C181.288 104.598 181.411 104.599 181.595 104.599H182.945V109.901H187.364V111.874H182.945V121.06C182.945 121.677 183.129 122.17 183.436 122.478C183.743 122.786 184.172 122.971 184.663 122.971C184.97 122.971 185.216 122.91 185.4 122.848C185.584 122.786 185.768 122.663 185.952 122.602C186.075 122.54 186.259 122.417 186.32 122.355C186.443 122.293 186.504 122.232 186.627 122.232C186.75 122.232 186.873 122.293 186.995 122.478L187.793 123.773C187.302 124.205 186.75 124.574 186.136 124.821C185.4 124.883 184.725 125.006 184.05 125.006Z" fill="black"/>
<path d="M192.089 109.469V119.272C192.089 120.444 192.335 121.307 192.887 121.985C193.439 122.602 194.237 122.91 195.28 122.91C196.078 122.91 196.815 122.725 197.49 122.355C198.165 121.985 198.84 121.492 199.392 120.814V109.531H202.092V124.821H200.497C200.128 124.821 199.883 124.636 199.76 124.266L199.576 122.602C198.901 123.341 198.165 123.958 197.367 124.39C196.569 124.821 195.587 125.068 194.544 125.068C193.685 125.068 192.948 124.944 192.335 124.636C191.721 124.39 191.169 123.958 190.739 123.465C190.309 122.972 190.003 122.355 189.757 121.615C189.512 120.875 189.45 120.135 189.45 119.272V109.531H192.089V109.469Z" fill="black"/>
<path d="M216.821 124.821C216.453 124.821 216.207 124.636 216.085 124.266L215.839 122.417C215.164 123.218 214.428 123.835 213.63 124.328C212.771 124.821 211.85 125.068 210.745 125.068C209.886 125.068 209.088 124.883 208.352 124.574C207.616 124.266 207.063 123.711 206.511 123.095C206.02 122.417 205.652 121.615 205.345 120.629C205.099 119.642 204.915 118.532 204.915 117.238C204.915 116.128 205.038 115.08 205.345 114.093C205.652 113.107 206.081 112.305 206.634 111.565C207.186 110.826 207.861 110.271 208.72 109.901C209.518 109.469 210.439 109.284 211.482 109.284C212.402 109.284 213.2 109.469 213.875 109.777C214.55 110.086 215.164 110.517 215.655 111.134V102.626H218.355V124.821H216.821ZM211.666 122.848C212.525 122.848 213.323 122.663 213.998 122.232C214.673 121.8 215.287 121.245 215.839 120.505V113.107C215.348 112.429 214.796 111.997 214.243 111.689C213.691 111.442 213.016 111.257 212.28 111.257C210.868 111.257 209.763 111.75 209.027 112.799C208.291 113.847 207.861 115.265 207.861 117.176C207.861 118.162 207.922 119.026 208.106 119.765C208.291 120.505 208.536 121.06 208.843 121.492C209.15 121.923 209.579 122.293 210.07 122.478C210.5 122.725 211.052 122.848 211.666 122.848Z" fill="black"/>
<path d="M228.358 109.223C229.279 109.223 230.138 109.346 230.875 109.654C231.672 109.962 232.347 110.394 232.9 111.01C233.452 111.565 233.882 112.305 234.25 113.168C234.557 114.032 234.741 115.018 234.741 116.066C234.741 116.498 234.679 116.744 234.618 116.929C234.557 117.053 234.373 117.114 234.127 117.114H223.94C223.94 118.101 224.063 118.902 224.308 119.642C224.554 120.382 224.86 120.937 225.29 121.43C225.72 121.923 226.21 122.293 226.824 122.478C227.376 122.725 228.052 122.848 228.788 122.848C229.463 122.848 230.015 122.786 230.506 122.601C230.997 122.417 231.427 122.293 231.734 122.108C232.102 121.923 232.347 121.738 232.593 121.615C232.838 121.43 233.022 121.368 233.207 121.368C233.452 121.368 233.575 121.43 233.698 121.615L234.434 122.601C234.127 123.033 233.698 123.341 233.268 123.65C232.777 123.958 232.286 124.204 231.795 124.389C231.243 124.574 230.752 124.698 230.138 124.821C229.586 124.944 229.033 124.944 228.481 124.944C227.438 124.944 226.456 124.759 225.597 124.389C224.738 124.02 223.94 123.526 223.265 122.848C222.59 122.17 222.099 121.307 221.731 120.259C221.362 119.272 221.178 118.101 221.178 116.744C221.178 115.696 221.362 114.71 221.669 113.723C221.976 112.798 222.467 111.997 223.081 111.319C223.694 110.641 224.431 110.086 225.351 109.716C226.272 109.407 227.254 109.223 228.358 109.223ZM228.42 111.195C227.131 111.195 226.088 111.565 225.351 112.305C224.615 113.045 224.124 114.093 223.94 115.45H232.347C232.347 114.833 232.286 114.278 232.102 113.723C231.918 113.23 231.672 112.737 231.304 112.367C230.997 111.997 230.568 111.689 230.077 111.504C229.586 111.319 229.033 111.195 228.42 111.195Z" fill="black"/>
<path d="M237.502 124.821V109.531H239.098C239.466 109.531 239.712 109.716 239.834 110.086L240.019 111.75C240.694 111.011 241.43 110.394 242.228 109.963C243.026 109.531 244.008 109.284 245.051 109.284C245.91 109.284 246.646 109.408 247.26 109.716C247.874 109.963 248.426 110.394 248.856 110.887C249.285 111.381 249.592 111.997 249.838 112.737C250.083 113.477 250.145 114.217 250.145 115.08V124.821H247.444V115.08C247.444 113.908 247.199 113.045 246.646 112.367C246.094 111.75 245.296 111.381 244.253 111.381C243.455 111.381 242.719 111.565 242.044 111.935C241.369 112.305 240.755 112.86 240.141 113.477V124.821H237.502Z" fill="black"/>
<path d="M258.061 125.006C256.834 125.006 255.913 124.698 255.3 124.02C254.625 123.341 254.318 122.355 254.318 121.122V111.75H252.477C252.293 111.75 252.17 111.689 252.047 111.627C251.924 111.504 251.863 111.38 251.863 111.196V110.147L254.379 109.839L254.993 105.092C254.993 104.968 255.115 104.845 255.177 104.722C255.3 104.598 255.422 104.599 255.606 104.599H256.957V109.901H261.375V111.874H256.957V121.06C256.957 121.677 257.141 122.17 257.448 122.478C257.754 122.786 258.184 122.971 258.675 122.971C258.982 122.971 259.227 122.91 259.411 122.848C259.595 122.786 259.78 122.663 259.964 122.602C260.086 122.54 260.271 122.417 260.332 122.355C260.455 122.293 260.516 122.232 260.639 122.232C260.761 122.232 260.884 122.293 261.007 122.478L261.805 123.773C261.314 124.205 260.761 124.574 260.148 124.821C259.411 124.883 258.736 125.006 258.061 125.006Z" fill="black"/>
<path d="M274.815 124.821H271.869V103.18H274.815V124.821Z" fill="black"/>
<path d="M279.05 124.821V109.531H280.645C281.013 109.531 281.259 109.716 281.382 110.086L281.566 111.75C282.241 111.011 282.977 110.394 283.775 109.963C284.573 109.531 285.555 109.284 286.598 109.284C287.457 109.284 288.194 109.408 288.807 109.716C289.421 109.963 289.973 110.394 290.403 110.887C290.832 111.381 291.139 111.997 291.385 112.737C291.63 113.477 291.692 114.217 291.692 115.08V124.821H288.991V115.08C288.991 113.908 288.746 113.045 288.194 112.367C287.641 111.75 286.843 111.381 285.8 111.381C285.002 111.381 284.266 111.565 283.591 111.935C282.916 112.305 282.302 112.86 281.688 113.477V124.821H279.05Z" fill="black"/>
<path d="M295.865 124.821V111.812L294.208 111.627C294.024 111.565 293.84 111.504 293.717 111.38C293.594 111.257 293.533 111.134 293.533 110.949V109.839H295.926V108.359C295.926 107.496 296.049 106.695 296.294 106.017C296.54 105.338 296.908 104.783 297.338 104.29C297.767 103.797 298.32 103.489 298.995 103.242C299.67 102.996 300.345 102.872 301.143 102.872C301.818 102.872 302.431 102.996 303.045 103.18L302.922 104.475C302.922 104.722 302.8 104.845 302.554 104.845C302.309 104.845 302.002 104.845 301.572 104.845C301.081 104.845 300.713 104.907 300.345 105.03C299.977 105.153 299.67 105.338 299.363 105.647C299.117 105.893 298.872 106.263 298.749 106.695C298.626 107.126 298.504 107.681 298.504 108.359V109.777H302.922V111.75H298.626V124.821H295.865Z" fill="black"/>
<path d="M311.023 109.223C312.128 109.223 313.11 109.407 314.03 109.777C314.951 110.147 315.687 110.702 316.301 111.38C316.914 112.059 317.405 112.922 317.774 113.847C318.142 114.771 318.265 115.881 318.265 117.114C318.265 118.347 318.08 119.395 317.774 120.382C317.467 121.368 316.976 122.17 316.301 122.848C315.687 123.526 314.889 124.081 314.03 124.451C313.11 124.821 312.128 125.006 311.023 125.006C309.918 125.006 308.875 124.821 308.016 124.451C307.095 124.081 306.359 123.588 305.745 122.848C305.132 122.17 304.641 121.307 304.272 120.382C303.966 119.395 303.781 118.347 303.781 117.114C303.781 115.943 303.966 114.833 304.272 113.847C304.579 112.86 305.07 112.059 305.745 111.38C306.359 110.702 307.157 110.147 308.016 109.777C308.875 109.407 309.918 109.223 311.023 109.223ZM311.023 122.91C312.557 122.91 313.662 122.417 314.398 121.368C315.135 120.32 315.503 118.964 315.503 117.114C315.503 115.265 315.135 113.847 314.398 112.86C313.662 111.874 312.557 111.319 311.023 111.319C310.287 111.319 309.612 111.442 309.059 111.689C308.507 111.935 308.016 112.305 307.648 112.798C307.279 113.292 306.973 113.908 306.789 114.648C306.604 115.388 306.482 116.189 306.482 117.114C306.482 118.902 306.85 120.32 307.586 121.368C308.384 122.417 309.489 122.91 311.023 122.91Z" fill="black"/>
<path d="M321.088 124.821V109.531H322.622C322.929 109.531 323.113 109.593 323.236 109.716C323.358 109.839 323.42 110.024 323.481 110.271L323.665 112.614C324.156 111.566 324.77 110.764 325.445 110.147C326.12 109.531 327.04 109.284 328.022 109.284C328.329 109.284 328.636 109.346 328.943 109.408C329.25 109.469 329.495 109.593 329.741 109.716L329.557 111.75C329.495 111.997 329.372 112.12 329.127 112.12C329.004 112.12 328.759 112.12 328.513 112.059C328.268 111.997 327.961 111.997 327.593 111.997C327.102 111.997 326.672 112.059 326.304 112.244C325.936 112.367 325.568 112.614 325.261 112.86C324.954 113.107 324.708 113.477 324.463 113.908C324.217 114.34 324.033 114.772 323.849 115.326V124.821H321.088Z" fill="black"/>
<path d="M331.582 124.821V109.531H333.177C333.546 109.531 333.791 109.716 333.914 110.086L334.098 111.689C334.65 111.011 335.264 110.394 336 109.963C336.675 109.531 337.535 109.284 338.455 109.284C339.498 109.284 340.296 109.593 340.971 110.147C341.585 110.702 342.076 111.504 342.321 112.49C342.567 111.935 342.812 111.442 343.181 111.072C343.549 110.641 343.917 110.332 344.347 110.086C344.776 109.839 345.267 109.654 345.697 109.531C346.188 109.408 346.679 109.346 347.17 109.346C347.967 109.346 348.704 109.469 349.317 109.716C349.931 109.963 350.484 110.332 350.913 110.826C351.343 111.319 351.711 111.935 351.895 112.675C352.14 113.415 352.263 114.217 352.263 115.141V124.821H349.563V115.08C349.563 113.908 349.317 112.984 348.765 112.367C348.213 111.75 347.476 111.442 346.494 111.442C346.065 111.442 345.635 111.504 345.267 111.689C344.899 111.874 344.531 112.059 344.224 112.367C343.917 112.675 343.672 113.045 343.487 113.538C343.303 113.97 343.242 114.525 343.242 115.141V124.821H340.542V115.08C340.542 113.847 340.296 112.922 339.805 112.305C339.314 111.689 338.578 111.381 337.657 111.381C336.982 111.381 336.369 111.565 335.816 111.935C335.264 112.305 334.712 112.799 334.282 113.415V124.821H331.582Z" fill="black"/>
<path d="M365.396 124.821C365.151 124.821 364.905 124.759 364.783 124.698C364.66 124.636 364.537 124.451 364.476 124.205L364.169 122.787C363.739 123.156 363.371 123.465 363.003 123.773C362.635 124.081 362.205 124.328 361.775 124.513C361.346 124.698 360.916 124.883 360.425 124.944C359.934 125.068 359.443 125.129 358.83 125.129C358.216 125.129 357.664 125.068 357.173 124.883C356.682 124.698 356.191 124.451 355.823 124.143C355.454 123.835 355.148 123.403 354.902 122.91C354.657 122.417 354.534 121.8 354.534 121.122C354.534 120.505 354.718 119.95 355.025 119.396C355.332 118.841 355.884 118.347 356.62 117.916C357.357 117.484 358.339 117.114 359.505 116.868C360.671 116.621 362.144 116.436 363.923 116.374V115.203C363.923 114.032 363.678 113.107 363.126 112.49C362.635 111.874 361.837 111.565 360.855 111.565C360.18 111.565 359.628 111.627 359.198 111.812C358.768 111.997 358.339 112.182 358.032 112.367C357.725 112.552 357.418 112.737 357.173 112.922C356.927 113.107 356.682 113.168 356.498 113.168C356.314 113.168 356.191 113.107 356.007 113.045C355.884 112.922 355.761 112.86 355.7 112.675L355.209 111.812C356.068 111.011 356.989 110.394 357.909 109.962C358.891 109.531 359.934 109.346 361.162 109.346C362.021 109.346 362.757 109.469 363.432 109.777C364.108 110.086 364.66 110.456 365.089 110.949C365.519 111.442 365.887 112.059 366.133 112.799C366.378 113.538 366.501 114.278 366.501 115.141V124.821H365.396ZM359.628 123.156C360.119 123.156 360.548 123.095 360.916 123.033C361.285 122.91 361.653 122.787 362.021 122.602C362.389 122.417 362.696 122.232 363.003 121.923C363.31 121.677 363.617 121.369 363.923 121.06V117.916C362.696 117.978 361.653 118.039 360.794 118.224C359.934 118.409 359.198 118.594 358.646 118.841C358.093 119.087 357.725 119.396 357.48 119.704C357.234 120.074 357.111 120.444 357.111 120.875C357.111 121.307 357.173 121.615 357.296 121.923C357.418 122.232 357.602 122.478 357.848 122.663C358.093 122.848 358.339 122.972 358.646 123.095C358.952 123.095 359.259 123.156 359.628 123.156Z" fill="black"/>
<path d="M374.54 125.006C373.313 125.006 372.392 124.698 371.779 124.02C371.104 123.341 370.797 122.355 370.797 121.122V111.75H368.956C368.772 111.75 368.649 111.689 368.526 111.627C368.403 111.504 368.342 111.381 368.342 111.196V110.147L370.858 109.839L371.472 105.092C371.472 104.968 371.595 104.845 371.656 104.722C371.779 104.599 371.901 104.599 372.086 104.599H373.436V109.901H383.991V124.821H381.291V111.75H373.436V120.937C373.436 121.553 373.62 122.047 373.927 122.355C374.234 122.663 374.663 122.848 375.154 122.848C375.461 122.848 375.706 122.786 375.89 122.725C376.075 122.663 376.259 122.54 376.443 122.478C376.566 122.417 376.75 122.293 376.811 122.232C376.934 122.17 376.995 122.108 377.118 122.108C377.241 122.108 377.363 122.17 377.486 122.355L378.284 123.65C377.793 124.081 377.241 124.451 376.627 124.698C375.89 124.883 375.215 125.006 374.54 125.006ZM384.666 104.599C384.666 104.845 384.605 105.092 384.482 105.338C384.359 105.585 384.237 105.77 384.053 105.955C383.868 106.14 383.684 106.263 383.439 106.386C383.193 106.51 382.948 106.51 382.702 106.51C382.457 106.51 382.212 106.448 381.966 106.386C381.721 106.263 381.536 106.14 381.352 105.955C381.168 105.77 381.045 105.585 380.923 105.338C380.8 105.092 380.8 104.845 380.8 104.599C380.8 104.352 380.861 104.105 380.923 103.859C381.045 103.612 381.168 103.427 381.352 103.242C381.536 103.057 381.721 102.934 381.966 102.811C382.212 102.687 382.457 102.687 382.702 102.687C382.948 102.687 383.193 102.749 383.439 102.811C383.684 102.934 383.868 103.057 384.053 103.242C384.237 103.427 384.359 103.612 384.482 103.859C384.605 104.044 384.666 104.29 384.666 104.599Z" fill="black"/>
<path d="M394.179 109.223C395.283 109.223 396.265 109.407 397.186 109.777C398.106 110.147 398.843 110.702 399.456 111.38C400.07 112.059 400.561 112.922 400.929 113.847C401.236 114.833 401.42 115.881 401.42 117.114C401.42 118.347 401.236 119.395 400.929 120.382C400.622 121.368 400.131 122.17 399.456 122.848C398.843 123.526 398.045 124.081 397.186 124.451C396.265 124.821 395.283 125.006 394.179 125.006C393.074 125.006 392.031 124.821 391.171 124.451C390.251 124.081 389.514 123.588 388.901 122.848C388.287 122.17 387.796 121.307 387.428 120.382C387.121 119.395 386.937 118.347 386.937 117.114C386.937 115.943 387.121 114.833 387.428 113.847C387.735 112.86 388.226 112.059 388.901 111.38C389.514 110.702 390.312 110.147 391.171 109.777C392.031 109.407 393.074 109.223 394.179 109.223ZM394.179 122.91C395.713 122.91 396.817 122.417 397.554 121.368C398.29 120.382 398.658 118.964 398.658 117.114C398.658 115.265 398.29 113.847 397.554 112.86C396.817 111.812 395.713 111.319 394.179 111.319C393.442 111.319 392.767 111.442 392.215 111.689C391.662 111.935 391.171 112.305 390.803 112.798C390.435 113.292 390.128 113.908 389.944 114.648C389.76 115.388 389.637 116.189 389.637 117.114C389.637 118.902 390.005 120.32 390.742 121.368C391.478 122.417 392.644 122.91 394.179 122.91Z" fill="black"/>
<path d="M404.243 124.821V109.531H405.839C406.207 109.531 406.452 109.716 406.575 110.086L406.759 111.75C407.434 111.011 408.171 110.394 408.969 109.963C409.766 109.531 410.748 109.284 411.792 109.284C412.651 109.284 413.387 109.408 414.001 109.716C414.615 109.963 415.167 110.394 415.596 110.887C416.026 111.381 416.333 111.997 416.578 112.737C416.824 113.477 416.885 114.217 416.885 115.08V124.821H414.185V115.08C414.185 113.908 413.939 113.045 413.387 112.367C412.835 111.75 412.037 111.381 410.994 111.381C410.196 111.381 409.46 111.565 408.784 111.935C408.109 112.305 407.496 112.86 406.882 113.477V124.821H404.243Z" fill="black"/>
<path d="M439.776 106.51C439.715 106.633 439.592 106.757 439.469 106.88C439.346 106.941 439.224 107.003 439.101 107.003C438.917 107.003 438.733 106.941 438.487 106.757C438.242 106.572 437.996 106.387 437.628 106.202C437.26 106.017 436.892 105.832 436.401 105.647C435.91 105.462 435.296 105.4 434.621 105.4C433.946 105.4 433.394 105.462 432.903 105.647C432.412 105.832 431.982 106.078 431.675 106.387C431.368 106.695 431.062 107.065 430.939 107.435C430.755 107.866 430.693 108.298 430.693 108.729C430.693 109.346 430.816 109.839 431.123 110.209C431.43 110.579 431.798 110.949 432.289 111.257C432.78 111.566 433.332 111.812 433.946 111.997C434.56 112.182 435.173 112.429 435.848 112.614C436.523 112.86 437.137 113.107 437.751 113.354C438.365 113.6 438.917 113.97 439.408 114.402C439.899 114.833 440.267 115.326 440.574 115.943C440.881 116.559 441.003 117.299 441.003 118.224C441.003 119.149 440.819 120.074 440.512 120.875C440.206 121.677 439.715 122.417 439.101 123.033C438.487 123.65 437.751 124.143 436.83 124.513C435.91 124.883 434.928 125.068 433.762 125.068C432.35 125.068 431.062 124.821 429.957 124.328C428.791 123.835 427.809 123.157 427.011 122.293L427.87 120.875C427.932 120.752 428.054 120.69 428.177 120.567C428.3 120.505 428.423 120.444 428.545 120.444C428.668 120.444 428.852 120.505 428.975 120.629C429.159 120.752 429.343 120.875 429.527 120.999C429.711 121.184 429.957 121.307 430.264 121.553C430.509 121.738 430.816 121.923 431.184 122.108C431.552 122.293 431.921 122.417 432.35 122.54C432.78 122.663 433.271 122.725 433.823 122.725C434.498 122.725 435.112 122.602 435.664 122.417C436.217 122.232 436.646 121.985 437.014 121.615C437.383 121.245 437.689 120.875 437.874 120.382C438.058 119.889 438.18 119.334 438.18 118.779C438.18 118.101 438.058 117.608 437.751 117.176C437.444 116.744 437.076 116.436 436.585 116.128C436.094 115.82 435.542 115.635 434.928 115.388C434.314 115.203 433.7 115.018 433.025 114.772C432.412 114.587 431.737 114.34 431.123 114.032C430.509 113.785 429.957 113.415 429.466 112.984C428.975 112.552 428.607 111.997 428.3 111.381C427.993 110.702 427.87 109.901 427.87 108.976C427.87 108.236 427.993 107.496 428.3 106.757C428.607 106.017 429.036 105.4 429.589 104.845C430.141 104.29 430.877 103.859 431.675 103.489C432.473 103.181 433.455 102.996 434.498 102.996C435.726 102.996 436.769 103.181 437.812 103.55C438.794 103.92 439.653 104.475 440.451 105.215L439.776 106.51Z" fill="black"/>
<path d="M447.57 129.322C447.509 129.507 447.386 129.692 447.202 129.815C447.018 129.938 446.833 130 446.588 130H444.624L447.386 123.896L441.126 109.469H443.458C443.704 109.469 443.888 109.531 444.01 109.654C444.133 109.778 444.256 109.901 444.317 110.024L448.368 119.642C448.429 119.889 448.552 120.074 448.613 120.32C448.675 120.567 448.736 120.752 448.797 120.999C448.92 120.567 449.104 120.074 449.227 119.642L453.155 110.024C453.216 109.839 453.339 109.716 453.461 109.654C453.584 109.531 453.768 109.469 453.952 109.469H456.1L447.57 129.322Z" fill="black"/>
<path d="M466.656 111.997C466.533 112.244 466.349 112.305 466.103 112.305C465.981 112.305 465.797 112.244 465.613 112.12C465.428 111.997 465.183 111.874 464.937 111.75C464.692 111.627 464.324 111.504 463.956 111.38C463.587 111.257 463.096 111.196 462.605 111.196C462.176 111.196 461.746 111.257 461.378 111.38C461.01 111.504 460.703 111.627 460.457 111.874C460.212 112.059 460.028 112.305 459.844 112.552C459.721 112.798 459.66 113.107 459.66 113.415C459.66 113.785 459.782 114.155 460.028 114.401C460.273 114.648 460.58 114.895 460.948 115.08C461.317 115.265 461.746 115.45 462.237 115.573C462.728 115.696 463.219 115.881 463.71 116.066C464.201 116.251 464.692 116.436 465.183 116.621C465.674 116.806 466.103 117.053 466.472 117.361C466.84 117.669 467.147 118.039 467.392 118.471C467.638 118.902 467.76 119.457 467.76 120.074C467.76 120.752 467.638 121.43 467.392 122.047C467.147 122.663 466.779 123.156 466.288 123.588C465.797 124.02 465.183 124.389 464.508 124.636C463.771 124.883 462.974 125.006 462.053 125.006C461.01 125.006 460.028 124.821 459.169 124.513C458.31 124.143 457.573 123.711 456.959 123.156L457.573 122.108C457.634 121.985 457.757 121.862 457.88 121.8C458.003 121.738 458.125 121.677 458.31 121.677C458.494 121.677 458.678 121.738 458.862 121.862C459.046 121.985 459.291 122.17 459.598 122.355C459.905 122.54 460.212 122.663 460.642 122.848C461.071 122.971 461.562 123.033 462.176 123.033C462.667 123.033 463.158 122.971 463.526 122.848C463.894 122.725 464.262 122.54 464.508 122.293C464.753 122.047 464.937 121.8 465.06 121.492C465.183 121.183 465.244 120.875 465.244 120.505C465.244 120.074 465.122 119.704 464.876 119.457C464.631 119.211 464.324 118.964 463.956 118.717C463.587 118.532 463.158 118.347 462.667 118.224C462.176 118.101 461.685 117.916 461.194 117.792C460.703 117.608 460.212 117.423 459.721 117.238C459.23 117.053 458.8 116.744 458.432 116.436C458.064 116.128 457.757 115.758 457.512 115.265C457.266 114.833 457.144 114.278 457.144 113.6C457.144 113.045 457.266 112.429 457.512 111.935C457.757 111.38 458.125 110.949 458.555 110.517C459.046 110.086 459.598 109.777 460.273 109.531C460.948 109.284 461.685 109.161 462.605 109.161C463.587 109.161 464.508 109.346 465.306 109.654C466.103 109.962 466.779 110.394 467.392 110.949L466.656 111.997Z" fill="black"/>
<path d="M475.186 125.006C473.959 125.006 473.038 124.698 472.425 124.02C471.749 123.341 471.443 122.355 471.443 121.122V111.75H469.602C469.417 111.75 469.295 111.689 469.172 111.627C469.049 111.504 468.988 111.38 468.988 111.196V110.147L471.504 109.839L472.118 105.092C472.118 104.968 472.24 104.845 472.302 104.722C472.425 104.598 472.547 104.599 472.731 104.599H474.082V109.901H478.5V111.874H474.143V121.06C474.143 121.677 474.327 122.17 474.634 122.478C474.941 122.786 475.37 122.971 475.861 122.971C476.168 122.971 476.414 122.91 476.598 122.848C476.782 122.786 476.966 122.663 477.15 122.602C477.273 122.54 477.457 122.417 477.518 122.355C477.641 122.293 477.702 122.232 477.825 122.232C477.948 122.232 478.071 122.293 478.193 122.478L478.991 123.773C478.5 124.205 477.948 124.574 477.334 124.821C476.536 124.883 475.923 125.006 475.186 125.006Z" fill="black"/>
<path d="M486.662 109.223C487.583 109.223 488.442 109.346 489.178 109.654C489.976 109.962 490.651 110.394 491.204 111.01C491.756 111.565 492.185 112.305 492.554 113.168C492.861 114.032 493.045 115.018 493.045 116.066C493.045 116.498 492.983 116.744 492.922 116.929C492.861 117.053 492.676 117.114 492.431 117.114H482.244C482.244 118.101 482.366 118.902 482.612 119.642C482.857 120.382 483.164 120.937 483.594 121.43C484.023 121.923 484.514 122.293 485.128 122.478C485.68 122.725 486.355 122.848 487.092 122.848C487.767 122.848 488.319 122.786 488.81 122.601C489.301 122.417 489.731 122.293 490.038 122.108C490.406 121.923 490.651 121.738 490.897 121.615C491.142 121.43 491.326 121.368 491.51 121.368C491.756 121.368 491.879 121.43 492.001 121.615L492.738 122.601C492.431 123.033 492.001 123.341 491.572 123.65C491.081 123.958 490.59 124.204 490.099 124.389C489.547 124.574 489.056 124.698 488.442 124.821C487.89 124.944 487.337 124.944 486.785 124.944C485.742 124.944 484.76 124.759 483.901 124.389C483.041 124.02 482.244 123.526 481.569 122.848C480.893 122.17 480.403 121.307 480.034 120.259C479.666 119.272 479.482 118.101 479.482 116.744C479.482 115.696 479.666 114.71 479.973 113.723C480.28 112.798 480.771 111.997 481.384 111.319C481.998 110.641 482.735 110.086 483.655 109.716C484.576 109.407 485.558 109.223 486.662 109.223ZM486.724 111.195C485.435 111.195 484.392 111.565 483.655 112.305C482.919 113.045 482.428 114.093 482.244 115.45H490.59C490.59 114.833 490.528 114.278 490.344 113.723C490.16 113.23 489.915 112.737 489.547 112.367C489.24 111.997 488.81 111.689 488.319 111.504C487.89 111.319 487.337 111.195 486.724 111.195Z" fill="black"/>
<path d="M495.745 124.821V109.531H497.34C497.709 109.531 497.954 109.716 498.077 110.086L498.261 111.689C498.813 111.011 499.427 110.394 500.164 109.963C500.839 109.531 501.698 109.284 502.618 109.284C503.662 109.284 504.459 109.593 505.134 110.147C505.748 110.702 506.239 111.504 506.485 112.49C506.73 111.935 506.975 111.442 507.344 111.072C507.712 110.641 508.08 110.332 508.51 110.086C508.939 109.839 509.43 109.654 509.86 109.531C510.351 109.408 510.842 109.346 511.333 109.346C512.131 109.346 512.867 109.469 513.481 109.716C514.094 109.963 514.647 110.332 515.076 110.826C515.506 111.319 515.874 111.935 516.058 112.675C516.304 113.415 516.426 114.217 516.426 115.141V124.821H513.726V115.08C513.726 113.908 513.481 112.984 512.928 112.367C512.376 111.75 511.64 111.442 510.658 111.442C510.228 111.442 509.798 111.504 509.43 111.689C509.062 111.874 508.694 112.059 508.387 112.367C508.08 112.675 507.835 113.045 507.651 113.538C507.466 113.97 507.405 114.525 507.405 115.141V124.821H504.705V115.08C504.705 113.847 504.459 112.922 503.968 112.305C503.477 111.689 502.741 111.381 501.82 111.381C501.145 111.381 500.532 111.565 499.979 111.935C499.427 112.305 498.875 112.799 498.445 113.415V124.821H495.745Z" fill="black"/>
</svg>
