<svg width="1863" height="428" viewBox="0 0 1863 428" fill="none" xmlns="http://www.w3.org/2000/svg">
<path opacity="0.3" d="M-63.0886 95.7297C-36.981 95.7297 -16.0949 127.059 7.4019 121.838C59.6171 109.654 81.3734 42.6432 138.81 42.6432C183.193 42.6432 208.43 97.4703 249.332 93.9892C313.731 87.027 343.32 0 412.94 0C477.339 0 508.668 74.8432 568.715 80.9351C603.525 85.2865 629.633 43.5135 667.924 43.5135C740.155 43.5135 746.247 72.2324 812.386 93.1189C831.532 99.2108 846.326 135.762 867.212 135.762C892.449 135.762 915.076 143.595 929 161H-171C-152.725 125.319 -110.953 95.7297 -63.0886 95.7297Z" fill="#DFE1E6"/>
<g opacity="0.3">
<path d="M1831.71 408.946C1824.13 408.946 1818.08 418.092 1811.26 416.568C1796.12 413.011 1789.81 393.449 1773.16 393.449C1760.28 393.449 1752.97 409.454 1741.1 408.438C1722.43 406.405 1713.85 381 1693.66 381C1674.98 381 1665.9 402.849 1648.48 404.627C1638.39 405.897 1630.82 393.703 1619.71 393.703C1598.77 393.703 1597 402.086 1577.82 408.184C1572.27 409.962 1567.98 420.632 1561.92 420.632C1554.6 420.632 1548.04 422.919 1544 428H1863C1857.7 417.584 1845.59 408.946 1831.71 408.946Z" fill="#DFE1E6"/>
</g>
</svg>
