<svg width="42" height="43" viewBox="0 0 42 43" fill="none" xmlns="http://www.w3.org/2000/svg">
<g clip-path="url(#clip0)">
<path d="M23.2065 7.87979C23.2065 6.64388 22.2013 5.63867 20.9657 5.63867C19.7298 5.63867 18.7246 6.64388 18.7246 7.87979C18.7246 9.11539 19.7301 10.1206 20.9657 10.1206C22.2013 10.1206 23.2065 9.11539 23.2065 7.87979ZM20.9657 8.87794C20.4152 8.87794 19.9673 8.42998 19.9673 7.87979C19.9673 7.32928 20.4152 6.88132 20.9657 6.88132C21.5162 6.88132 21.9639 7.32928 21.9639 7.87979C21.9639 8.42998 21.5162 8.87794 20.9657 8.87794Z" fill="#0C1E41"/>
<path d="M33.1781 32.5254L31.8477 32.1557C31.5167 32.0637 31.1748 32.2576 31.0828 32.5883C30.9911 32.9186 31.1847 33.2612 31.5151 33.3531L32.8458 33.7226C35.4353 34.4413 37.2441 36.8209 37.2441 39.5093V40.809H31.8595V38.3651C31.8595 38.0222 31.5814 37.7437 31.2382 37.7437C30.895 37.7437 30.6169 38.0222 30.6169 38.3651V40.809H11.3152V38.3651C11.3152 38.0222 11.037 37.7437 10.6939 37.7437C10.3507 37.7437 10.0725 38.0222 10.0725 38.3651V40.809H4.68796V39.5093C4.68796 36.8209 6.49649 34.4413 9.08656 33.7226L10.4167 33.3531C10.7474 33.2612 10.9409 32.9186 10.8493 32.5883C10.7573 32.2576 10.4148 32.0637 10.0841 32.1557L8.75395 32.5254C5.62843 33.3925 3.44531 36.2646 3.44531 39.5093V41.4303C3.44531 41.7735 3.72345 42.0517 4.06664 42.0517H37.8654C38.2086 42.0517 38.4868 41.7735 38.4868 41.4303V39.5093C38.4868 36.2646 36.3036 33.3925 33.1781 32.5254Z" fill="#0C1E41"/>
<path d="M10.4039 17.7926C9.94595 18.2098 9.6582 18.8103 9.6582 19.4768V20.6365C9.6582 21.8929 10.6801 22.9147 11.9365 22.9147H12.7661C13.3422 25.45 15.0671 27.5534 17.3624 28.6467V30.536H15.9954C15.9394 30.536 15.883 30.5437 15.8288 30.5587L12.8786 31.3784C12.5479 31.47 12.3543 31.8126 12.446 32.1433C12.5222 32.4182 12.7722 32.5983 13.0446 32.5983C13.0993 32.5983 13.1554 32.5909 13.2109 32.5755L14.7916 32.1365C15.0008 33.4657 15.6311 34.6904 16.6132 35.644C17.7873 36.7841 19.3331 37.4118 20.966 37.4118C22.5986 37.4118 24.1444 36.7841 25.3185 35.644C26.3006 34.6904 26.9312 33.466 27.1402 32.1365L28.7209 32.5755C28.7763 32.5912 28.8324 32.5986 28.8875 32.5986C29.1595 32.5986 29.4095 32.4182 29.4857 32.1433C29.5774 31.8126 29.3838 31.4704 29.0535 31.3784L26.1029 30.5587C26.0488 30.544 25.9927 30.5363 25.9363 30.5363H24.5696V28.647C26.8649 27.5537 28.5898 25.4503 29.1656 22.9147H29.9955C31.2516 22.9147 32.2735 21.8929 32.2735 20.6368V19.4771C32.2735 18.8106 31.9858 18.2098 31.5282 17.7929V15.0862C31.5282 14.743 31.2497 14.4649 30.9069 14.4649H23.2068V12.8803C23.5481 12.7275 23.872 12.54 24.1758 12.3199L26.0872 13.4235C26.2298 13.5058 26.3996 13.5283 26.5586 13.4853C26.7178 13.4427 26.8534 13.3386 26.9357 13.196L28.5555 10.3909C28.6379 10.248 28.6603 10.0785 28.6174 9.9192C28.5747 9.75995 28.4706 9.6244 28.328 9.54205L26.4169 8.43848C26.4362 8.25134 26.4461 8.06453 26.4461 7.879C26.4461 7.69379 26.4362 7.50665 26.4169 7.31952L28.328 6.21594C28.4706 6.13359 28.5747 5.99805 28.6174 5.83879C28.6603 5.67953 28.6379 5.51003 28.5555 5.36743L26.9357 2.56203C26.8534 2.41943 26.7178 2.31529 26.5586 2.27267C26.3996 2.22974 26.2301 2.25217 26.0872 2.33452L24.1758 3.4381C23.872 3.21796 23.5481 3.0305 23.2068 2.87766V0.672104C23.2068 0.328918 22.9287 0.0507812 22.5855 0.0507812H19.3465C19.0034 0.0507812 18.7252 0.328918 18.7252 0.672104V2.87798C18.384 3.03082 18.06 3.21828 17.7562 3.43842L15.8448 2.33484C15.7022 2.25249 15.5324 2.23038 15.3735 2.27299C15.2142 2.31561 15.0787 2.41975 14.9963 2.56235L13.3765 5.36775C13.2942 5.51035 13.2717 5.67986 13.3144 5.83911C13.357 5.99837 13.4611 6.13391 13.604 6.21626L15.5151 7.31984C15.4956 7.50697 15.4859 7.69411 15.4859 7.87932C15.4859 8.06453 15.4956 8.25166 15.5151 8.4388L13.604 9.54237C13.4611 9.62473 13.357 9.76027 13.3144 9.91953C13.2717 10.0788 13.2942 10.2483 13.3765 10.3912L14.9963 13.1963C15.0787 13.3389 15.2142 13.443 15.3735 13.4856C15.5327 13.5286 15.7022 13.5061 15.8448 13.4238L17.7562 12.3202C18.06 12.5404 18.384 12.7278 18.7252 12.8807V14.4652H17.4297C17.0865 14.4652 16.8084 14.7433 16.8084 15.0865C16.8084 15.4297 17.0865 15.7079 17.4297 15.7079H28.1316V21.0508C28.1316 25.0021 24.9173 28.2163 20.966 28.2163C17.0147 28.2163 13.8001 25.0021 13.8001 21.0508V15.7075H14.5355C14.8787 15.7075 15.1569 15.4294 15.1569 15.0862C15.1569 14.743 14.8787 14.4649 14.5355 14.4649H11.0252C10.682 14.4649 10.4039 14.743 10.4039 15.0862V17.7926ZM19.9675 14.4649V12.4603C19.9675 12.1969 19.8016 11.9623 19.5535 11.8745C19.0626 11.7011 18.6121 11.4403 18.2135 11.0994C18.0135 10.9283 17.7271 10.902 17.4989 11.0334L15.7615 12.0366L14.7634 10.3076L16.5001 9.30461C16.728 9.17323 16.8484 8.9124 16.8007 8.65381C16.7526 8.3949 16.7286 8.13438 16.7286 7.879C16.7286 7.62393 16.7526 7.36342 16.8007 7.10419C16.8484 6.8456 16.728 6.58508 16.5001 6.45338L14.7634 5.45074L15.7615 3.72168L17.4989 4.72464C17.7271 4.85666 18.0135 4.83006 18.2135 4.65895C18.6121 4.31801 19.0626 4.05717 19.5535 3.88382C19.8016 3.79602 19.9675 3.56114 19.9675 3.29807V1.29343H21.9642V3.29807C21.9642 3.56146 22.1302 3.79602 22.3785 3.88382C22.8691 4.0575 23.3199 4.31801 23.7182 4.65895C23.9182 4.83006 24.2047 4.85666 24.4328 4.72496L26.1702 3.72168L27.1684 5.45074L25.4316 6.4537C25.2038 6.58508 25.0833 6.84592 25.1313 7.10451C25.1791 7.3631 25.2031 7.62361 25.2031 7.87932C25.2031 8.13503 25.1791 8.39554 25.1313 8.65381C25.0833 8.91272 25.2038 9.17323 25.4316 9.30493L27.1684 10.3076L26.1702 12.0366L24.4328 11.0337C24.2047 10.902 23.9182 10.9283 23.7182 11.0997C23.3199 11.4403 22.8691 11.7011 22.3785 11.8748C22.1302 11.9626 21.9642 12.1972 21.9642 12.4606V14.4652H19.9675V14.4649ZM31.0309 20.6365C31.0309 21.2075 30.5666 21.6721 29.9955 21.6721H29.3512C29.3662 21.467 29.3742 21.2597 29.3742 21.0508V18.4412H29.9955C30.5666 18.4412 31.0309 18.9058 31.0309 19.4768V20.6365ZM30.2855 17.2177C30.1904 17.2056 30.0936 17.1985 29.9955 17.1985H29.3742V15.7075H30.2852V17.2177H30.2855ZM25.935 31.802C25.621 34.2867 23.5237 36.1692 20.966 36.1692C18.408 36.1692 16.3111 34.2867 15.9967 31.802L16.0804 31.7786H17.4172C17.7126 33.4705 19.1908 34.7609 20.966 34.7609C22.7409 34.7609 24.2194 33.4705 24.5148 31.7786H25.8514L25.935 31.802ZM23.327 29.1212V31.1573C23.327 32.4592 22.2676 33.5182 20.966 33.5182C19.6641 33.5182 18.6051 32.4592 18.6051 31.1573V29.1212C19.3542 29.3407 20.1467 29.459 20.966 29.459C21.7854 29.459 22.5775 29.3407 23.327 29.1212ZM11.9365 21.6721C11.3655 21.6721 10.9008 21.2075 10.9008 20.6365V19.4768C10.9008 18.9058 11.3655 18.4415 11.9365 18.4415H12.5578V21.0508C12.5578 21.2597 12.5655 21.4667 12.5806 21.6721H11.9365ZM12.5578 15.7075V17.1988H11.9365C11.8381 17.1988 11.7413 17.2059 11.6465 17.2177V15.7075H12.5578Z" fill="#0C1E41"/>
<path d="M31.87 13.3393C31.9511 13.3749 32.036 13.3918 32.1193 13.3918C32.3583 13.3918 32.5862 13.2531 32.6884 13.0201C33.4023 11.3939 33.7644 9.66455 33.7644 7.87941C33.7644 6.09459 33.4023 4.36521 32.6884 2.739C32.5506 2.42465 32.184 2.28174 31.87 2.41985C31.5556 2.55763 31.4127 2.92421 31.5505 3.23824C32.1949 4.70615 32.5218 6.26763 32.5218 7.87941C32.5218 9.4912 32.1949 11.0527 31.5505 12.5206C31.4127 12.8349 31.5556 13.2015 31.87 13.3393Z" fill="#0C1E41"/>
<path d="M29.5945 12.3396C29.6759 12.3751 29.7605 12.3921 29.8438 12.3921C30.0828 12.3921 30.3106 12.2534 30.4132 12.0204C30.9877 10.7108 31.2793 9.31755 31.2793 7.8788C31.2793 6.44005 30.9877 5.04648 30.4132 3.73686C30.2751 3.42284 29.9085 3.27992 29.5945 3.41771C29.2801 3.5555 29.1372 3.92207 29.2753 4.23642C29.7803 5.38742 30.0367 6.61276 30.0367 7.87848C30.0367 9.1442 29.7803 10.3699 29.2753 11.5209C29.1372 11.8352 29.2801 12.2018 29.5945 12.3396Z" fill="#0C1E41"/>
<path d="M9.8121 13.3917C9.89542 13.3917 9.98001 13.3747 10.0614 13.3391C10.3754 13.2013 10.5183 12.8347 10.3806 12.5204C9.73616 11.0528 9.40964 9.49133 9.40964 7.87955C9.40964 6.26744 9.73616 4.70596 10.3806 3.23837C10.5183 2.92403 10.3757 2.55777 10.0614 2.41966C9.74705 2.28188 9.3808 2.42479 9.24269 2.73882C8.52876 4.36502 8.16699 6.09473 8.16699 7.87955C8.16699 9.66437 8.52908 11.3938 9.24269 13.02C9.34491 13.2529 9.57274 13.3917 9.8121 13.3917Z" fill="#0C1E41"/>
<path d="M12.0879 12.392C12.1712 12.392 12.2561 12.375 12.3372 12.3394C12.6515 12.2016 12.7945 11.8351 12.6563 11.5207C12.1513 10.3697 11.895 9.14438 11.895 7.87866C11.895 6.61295 12.1513 5.38728 12.6563 4.23628C12.7945 3.92226 12.6515 3.55568 12.3372 3.41789C12.0232 3.27979 11.6566 3.4227 11.5188 3.73705C10.9439 5.04634 10.6523 6.43991 10.6523 7.87866C10.6523 9.31742 10.9439 10.711 11.5188 12.0203C11.621 12.2532 11.8488 12.392 12.0879 12.392Z" fill="#0C1E41"/>
</g>
<defs>
<clipPath id="clip0">
<rect width="42" height="42" fill="white" transform="translate(0 0.0507812)"/>
</clipPath>
</defs>
</svg>
