<svg width="40" height="40" viewBox="0 0 40 40" fill="none" xmlns="http://www.w3.org/2000/svg">
<g clip-path="url(#clip0)">
<path d="M5.3595 40H30.6927C31.7972 40 32.6926 39.1046 32.6926 37.9999V6.66656H35.3595C36.0959 6.66656 36.6928 6.06964 36.6928 5.33325V3.33344C36.6904 1.49323 35.1993 0.00213623 33.3594 0H5.3595C4.25476 0 3.35938 0.895386 3.35938 2.00012V37.9999C3.35938 39.1046 4.25476 40 5.3595 40ZM33.3594 1.33331C34.4638 1.33331 35.3595 2.2287 35.3595 3.33344V5.33325H8.69263V3.33344C8.69019 2.60956 8.45001 1.90704 8.00873 1.33331H33.3594ZM4.69269 2.00012C4.69269 1.63178 4.99115 1.33331 5.3595 1.33331C6.46393 1.33331 7.35931 2.2287 7.35931 3.33344V5.33325C7.35931 6.06964 7.95624 6.66656 8.69263 6.66656H31.3593V37.9999C31.3593 38.3682 31.0608 38.6667 30.6927 38.6667H5.3595C4.99115 38.6667 4.69269 38.3682 4.69269 37.9999V2.00012Z" fill="#5E6D85"/>
<path d="M8.69269 16.6666H12.6926C13.429 16.6666 14.0262 16.0696 14.0262 15.3333V14.6667C14.0262 14.2984 13.7275 13.9999 13.3594 13.9999C12.9914 13.9999 12.6926 14.2984 12.6926 14.6667V15.3333H8.69269V11.3333H10.6928C11.0609 11.3333 11.3593 11.0349 11.3593 10.6668C11.3593 10.2985 11.0609 10 10.6928 10H8.69269C7.9563 10 7.35938 10.5969 7.35938 11.3333V15.3333C7.35938 16.0696 7.9563 16.6666 8.69269 16.6666Z" fill="#5E6D85"/>
<path d="M8.69269 26.0009H12.6926C13.429 26.0009 14.0262 25.4039 14.0262 24.6675V20.6676C14.0262 19.9312 13.429 19.334 12.6926 19.334H8.69269C7.9563 19.334 7.35938 19.9312 7.35938 20.6676V24.6675C7.35938 25.4039 7.9563 26.0009 8.69269 26.0009ZM8.69269 20.6676H12.6926V24.6675H8.69269V20.6676Z" fill="#5E6D85"/>
<path d="M8.69269 35.3326H12.6926C13.429 35.3326 14.0262 34.7357 14.0262 33.9993V29.9993C14.0262 29.2629 13.429 28.666 12.6926 28.666H8.69269C7.9563 28.666 7.35938 29.2629 7.35938 29.9993V33.9993C7.35938 34.7357 7.9563 35.3326 8.69269 35.3326ZM8.69269 29.9993H12.6926V33.9993H8.69269V29.9993Z" fill="#5E6D85"/>
<path d="M16.6932 12.6673H20.0263C20.3947 12.6673 20.6931 12.3688 20.6931 12.0008C20.6931 11.6324 20.3947 11.334 20.0263 11.334H16.6932C16.3248 11.334 16.0264 11.6324 16.0264 12.0008C16.0264 12.3688 16.3248 12.6673 16.6932 12.6673Z" fill="#5E6D85"/>
<path d="M22.6929 12.6673H29.3597C29.7278 12.6673 30.0262 12.3688 30.0262 12.0008C30.0262 11.6324 29.7278 11.334 29.3597 11.334H22.6929C22.3248 11.334 22.0264 11.6324 22.0264 12.0008C22.0264 12.3688 22.3248 12.6673 22.6929 12.6673Z" fill="#5E6D85"/>
<path d="M16.6932 15.3333H23.3597C23.7278 15.3333 24.0266 15.0349 24.0266 14.6668C24.0266 14.2985 23.7278 14 23.3597 14H16.6932C16.3248 14 16.0264 14.2985 16.0264 14.6668C16.0264 15.0349 16.3248 15.3333 16.6932 15.3333Z" fill="#5E6D85"/>
<path d="M29.3593 14H26.0259C25.6578 14 25.3594 14.2985 25.3594 14.6668C25.3594 15.0349 25.6578 15.3333 26.0259 15.3333H29.3593C29.7274 15.3333 30.0258 15.0349 30.0258 14.6668C30.0258 14.2985 29.7274 14 29.3593 14Z" fill="#5E6D85"/>
<path d="M16.6932 21.9993H20.0263C20.3947 21.9993 20.6931 21.7009 20.6931 21.3325C20.6931 20.9645 20.3947 20.666 20.0263 20.666H16.6932C16.3248 20.666 16.0264 20.9645 16.0264 21.3325C16.0264 21.7009 16.3248 21.9993 16.6932 21.9993Z" fill="#5E6D85"/>
<path d="M29.3597 20.666H22.6929C22.3248 20.666 22.0264 20.9645 22.0264 21.3325C22.0264 21.7009 22.3248 21.9993 22.6929 21.9993H29.3597C29.7278 21.9993 30.0262 21.7009 30.0262 21.3325C30.0262 20.9645 29.7278 20.666 29.3597 20.666Z" fill="#5E6D85"/>
<path d="M16.6932 24.6673H23.3597C23.7278 24.6673 24.0266 24.3688 24.0266 24.0005C24.0266 23.6324 23.7278 23.334 23.3597 23.334H16.6932C16.3248 23.334 16.0264 23.6324 16.0264 24.0005C16.0264 24.3688 16.3248 24.6673 16.6932 24.6673Z" fill="#5E6D85"/>
<path d="M29.3593 23.334H26.0259C25.6578 23.334 25.3594 23.6324 25.3594 24.0005C25.3594 24.3688 25.6578 24.6673 26.0259 24.6673H29.3593C29.7274 24.6673 30.0258 24.3688 30.0258 24.0005C30.0258 23.6324 29.7274 23.334 29.3593 23.334Z" fill="#5E6D85"/>
<path d="M16.6932 31.3333H20.0263C20.3947 31.3333 20.6931 31.0349 20.6931 30.6668C20.6931 30.2985 20.3947 30 20.0263 30H16.6932C16.3248 30 16.0264 30.2985 16.0264 30.6668C16.0264 31.0349 16.3248 31.3333 16.6932 31.3333Z" fill="#5E6D85"/>
<path d="M29.3597 30H22.6929C22.3248 30 22.0264 30.2985 22.0264 30.6668C22.0264 31.0349 22.3248 31.3333 22.6929 31.3333H29.3597C29.7278 31.3333 30.0262 31.0349 30.0262 30.6668C30.0262 30.2985 29.7278 30 29.3597 30Z" fill="#5E6D85"/>
<path d="M16.6932 33.9993H23.3597C23.7278 33.9993 24.0266 33.7009 24.0266 33.3328C24.0266 32.9645 23.7278 32.666 23.3597 32.666H16.6932C16.3248 32.666 16.0264 32.9645 16.0264 33.3328C16.0264 33.7009 16.3248 33.9993 16.6932 33.9993Z" fill="#5E6D85"/>
<path d="M29.3593 32.666H26.0259C25.6578 32.666 25.3594 32.9645 25.3594 33.3328C25.3594 33.7009 25.6578 33.9993 26.0259 33.9993H29.3593C29.7274 33.9993 30.0258 33.7009 30.0258 33.3328C30.0258 32.9645 29.7274 32.666 29.3593 32.666Z" fill="#5E6D85"/>
<path d="M10.497 12.1949C10.2355 11.9422 9.81956 11.9459 9.5623 12.2029C9.30534 12.4601 9.30168 12.8758 9.55436 13.1376L10.8877 14.4709C11.0128 14.5957 11.1822 14.6662 11.3589 14.6662H11.4144C11.6097 14.6498 11.7879 14.5484 11.9018 14.3888L15.2349 9.72208C15.3735 9.52829 15.3979 9.2753 15.299 9.05863C15.2004 8.84165 14.9935 8.69394 14.7564 8.67106C14.5193 8.64817 14.2879 8.75376 14.1497 8.94755L11.2743 12.9734L10.497 12.1949Z" fill="#5E6D85"/>
</g>
<defs>
<clipPath id="clip0">
<rect width="40" height="40" fill="white"/>
</clipPath>
</defs>
</svg>
