<svg width="29" height="33" viewBox="0 0 29 33" fill="none" xmlns="http://www.w3.org/2000/svg">
<g clip-path="url(#clip0)">
<path d="M28.6498 12.1202C28.5431 12.055 28.4217 12.0191 28.2975 12.0163C28.1733 12.0135 28.0504 12.0437 27.941 12.104L23.2952 14.6666V12.4707C23.2952 12.2753 23.2195 12.088 23.0848 11.9498C22.9501 11.8117 22.7673 11.7341 22.5768 11.7341H21.4095C22.2044 11.074 22.8345 10.2292 23.2475 9.26973C23.6606 8.31026 23.8447 7.26371 23.7847 6.21674C23.7247 5.16978 23.4223 4.15253 22.9025 3.24925C22.3828 2.34597 21.6606 1.58264 20.7957 1.02249C19.9309 0.462339 18.9484 0.121483 17.9295 0.0281495C16.9107 -0.0651837 15.8848 0.0916921 14.9368 0.485785C13.9888 0.879877 13.1461 1.49985 12.4784 2.29435C11.8106 3.08885 11.3371 4.03502 11.097 5.05449C10.6793 4.5347 10.1631 4.10721 9.57961 3.79793C8.99609 3.48864 8.35742 3.30399 7.70227 3.25515C7.04712 3.20631 6.38912 3.29429 5.7681 3.51378C5.14708 3.73327 4.57597 4.07969 4.08935 4.53207C3.60272 4.98445 3.21071 5.53338 2.93704 6.14562C2.66337 6.75786 2.51374 7.42068 2.4972 8.09394C2.48067 8.76719 2.59758 9.43689 2.84085 10.0625C3.08412 10.6881 3.4487 11.2565 3.9125 11.7334H3.25591C3.06536 11.7334 2.88262 11.811 2.74789 11.9492C2.61315 12.0873 2.53746 12.2747 2.53746 12.47V15.8145H0.718452C0.527906 15.8145 0.345166 15.8921 0.21043 16.0302C0.075694 16.1683 0 16.3557 0 16.5511V19.4479C0 19.6433 0.075694 19.8306 0.21043 19.9688C0.345166 20.1069 0.527906 20.1845 0.718452 20.1845H2.53713V23.5283C2.53713 23.625 2.55572 23.7208 2.59182 23.8102C2.62793 23.8995 2.68085 23.9807 2.74756 24.0491C2.81428 24.1175 2.89348 24.1718 2.98065 24.2088C3.06781 24.2458 3.16124 24.2649 3.25559 24.2649H11.7314L7.83725 31.9235C7.74915 32.0968 7.73179 32.2988 7.78897 32.4852C7.84616 32.6715 7.97321 32.827 8.14218 32.9173C8.31115 33.0076 8.5082 33.0254 8.68997 32.9668C8.87175 32.9081 9.02335 32.7779 9.11145 32.6046L12.9163 25.1217L16.7212 32.6046C16.8129 32.7711 16.9641 32.8946 17.1428 32.9489C17.3216 33.0032 17.514 32.9841 17.6793 32.8957C17.8446 32.8073 17.9699 32.6564 18.0287 32.475C18.0875 32.2936 18.0753 32.0958 17.9945 31.9235L14.1007 24.2649H22.5768C22.6711 24.2649 22.7646 24.2458 22.8517 24.2088C22.9389 24.1718 23.0181 24.1175 23.0848 24.0491C23.1515 23.9807 23.2044 23.8995 23.2405 23.8102C23.2767 23.7208 23.2952 23.625 23.2952 23.5283V21.3314L27.941 23.8953C28.0505 23.9557 28.1733 23.9859 28.2976 23.9831C28.4219 23.9802 28.5433 23.9444 28.6501 23.879C28.7568 23.8136 28.8451 23.721 28.9065 23.6101C28.9678 23.4993 29 23.374 29 23.2465V12.7525C29 12.625 28.9677 12.4998 28.9063 12.3889C28.8449 12.2781 28.7565 12.1855 28.6498 12.1202ZM2.53746 18.711H1.4369V17.2873H2.53713L2.53746 18.711ZM17.3575 1.47389C18.3472 1.47376 19.3147 1.77453 20.1376 2.33815C20.9606 2.90177 21.602 3.70294 21.9808 4.64033C22.3596 5.57772 22.4588 6.60924 22.2658 7.60442C22.0728 8.59961 21.5963 9.51377 20.8966 10.2313C20.1968 10.9488 19.3052 11.4375 18.3346 11.6355C17.364 11.8335 16.3578 11.7319 15.4435 11.3437C14.5291 10.9554 13.7476 10.2979 13.1978 9.4542C12.6479 8.61054 12.3545 7.61866 12.3545 6.60399C12.356 5.24389 12.8837 3.93994 13.8217 2.9782C14.7598 2.01646 16.0316 1.47547 17.3582 1.47389H17.3575ZM11.8731 10.0587C12.2565 10.6961 12.7421 11.2625 13.3094 11.7341H10.8029C11.2663 11.2554 11.6304 10.6855 11.8731 10.0587ZM7.35656 4.72187C8.03298 4.7218 8.69422 4.92739 9.25667 5.31264C9.81912 5.69789 10.2575 6.2455 10.5164 6.8862C10.7753 7.5269 10.843 8.23192 10.7111 8.91211C10.5791 9.59229 10.2534 10.2171 9.77511 10.7075C9.29681 11.1978 8.68742 11.5318 8.02399 11.6671C7.36057 11.8024 6.67291 11.7329 6.048 11.4675C5.42308 11.202 4.88897 10.7526 4.51321 10.1759C4.13745 9.59927 3.93692 8.92132 3.93699 8.22782C3.9381 7.29833 4.29873 6.40724 4.93978 5.74999C5.58083 5.09274 6.44997 4.723 7.35656 4.72187ZM21.8583 15.9007V22.7923H3.97436V13.2073H21.8583V15.9007ZM27.5631 22.0131L23.2952 19.658V16.3407L27.5631 13.9855V22.0131Z" fill="white"/>
<path d="M7.3564 5.99023C6.92466 5.9901 6.50259 6.12126 6.14357 6.36712C5.78456 6.61298 5.50473 6.96249 5.3395 7.37143C5.17426 7.78038 5.13105 8.23038 5.21531 8.66451C5.29958 9.09863 5.50755 9.49739 5.8129 9.81031C6.11825 10.1232 6.50727 10.3363 6.93074 10.4225C7.35421 10.5087 7.79311 10.4642 8.1919 10.2946C8.59069 10.125 8.93147 9.83795 9.17111 9.46976C9.41075 9.10157 9.53849 8.66877 9.53817 8.22613C9.53707 7.63331 9.30682 7.06511 8.89787 6.64602C8.48892 6.22692 7.93461 5.99111 7.3564 5.99023ZM7.3564 9.13944C7.18053 9.13944 7.00861 9.08598 6.86238 8.9858C6.71616 8.88563 6.60218 8.74324 6.53488 8.57666C6.46758 8.41007 6.44997 8.22677 6.48428 8.04992C6.51859 7.87308 6.60328 7.71063 6.72764 7.58314C6.852 7.45564 7.01044 7.36881 7.18293 7.33363C7.35541 7.29845 7.5342 7.31651 7.69669 7.38551C7.85917 7.45451 7.99804 7.57136 8.09575 7.72128C8.19345 7.87121 8.24561 8.04747 8.24561 8.22778C8.24535 8.46949 8.15158 8.70122 7.98488 8.87214C7.81818 9.04305 7.59215 9.13918 7.3564 9.13944Z" fill="white"/>
<path d="M17.3583 3.39062C16.7384 3.39063 16.1324 3.57908 15.617 3.93216C15.1016 4.28524 14.6999 4.78709 14.4627 5.37424C14.2255 5.9614 14.1634 6.60748 14.2843 7.2308C14.4053 7.85412 14.7038 8.42667 15.1421 8.87606C15.5804 9.32545 16.1388 9.63148 16.7468 9.75547C17.3548 9.87945 17.9849 9.81582 18.5576 9.57261C19.1303 9.32941 19.6198 8.91755 19.9642 8.38913C20.3086 7.8607 20.4924 7.23945 20.4924 6.60392C20.4914 5.75199 20.1609 4.93524 19.5734 4.33284C18.9858 3.73044 18.1892 3.39159 17.3583 3.39062ZM17.3583 8.34533C17.0226 8.34533 16.6944 8.24328 16.4153 8.05207C16.1362 7.86087 15.9187 7.5891 15.7902 7.27114C15.6618 6.95318 15.6282 6.60331 15.6936 6.26576C15.7591 5.92822 15.9208 5.61816 16.1581 5.37481C16.3955 5.13145 16.6979 4.96572 17.0271 4.89858C17.3564 4.83144 17.6976 4.8659 18.0077 4.9976C18.3179 5.12931 18.5829 5.35234 18.7694 5.63849C18.9559 5.92465 19.0555 6.26108 19.0555 6.60524C19.0543 7.06612 18.875 7.50774 18.5569 7.83338C18.2388 8.15903 17.8078 8.34217 17.3583 8.34269V8.34533Z" fill="white"/>
<path d="M15.0406 15.3477H7.22875C7.04778 15.3477 6.87422 15.4214 6.74625 15.5526C6.61828 15.6838 6.54639 15.8617 6.54639 16.0473V19.9479C6.54639 20.1335 6.61828 20.3114 6.74625 20.4426C6.87422 20.5738 7.04778 20.6475 7.22875 20.6475H15.0402C15.2212 20.6475 15.3948 20.5738 15.5227 20.4426C15.6507 20.3114 15.7226 20.1335 15.7226 19.9479V16.0473C15.7225 15.8618 15.6506 15.684 15.5228 15.5528C15.3949 15.4216 15.2214 15.3478 15.0406 15.3477ZM14.3579 19.2483H7.91145V16.7472H14.3579V19.2483Z" fill="white"/>
<path d="M18.8088 17.5201C19.2056 17.5201 19.5272 17.1903 19.5272 16.7835C19.5272 16.3767 19.2056 16.0469 18.8088 16.0469C18.412 16.0469 18.0903 16.3767 18.0903 16.7835C18.0903 17.1903 18.412 17.5201 18.8088 17.5201Z" fill="white"/>
<path d="M18.8088 19.9478C19.2056 19.9478 19.5272 19.618 19.5272 19.2112C19.5272 18.8044 19.2056 18.4746 18.8088 18.4746C18.412 18.4746 18.0903 18.8044 18.0903 19.2112C18.0903 19.618 18.412 19.9478 18.8088 19.9478Z" fill="white"/>
</g>
<defs>
<clipPath id="clip0">
<rect width="29" height="33" fill="white"/>
</clipPath>
</defs>
</svg>
