<svg width="42" height="42" viewBox="0 0 42 42" fill="none" xmlns="http://www.w3.org/2000/svg">
<path d="M27.058 12.5456C26.9054 12.393 26.6946 12.3052 26.478 12.3052C26.2623 12.3052 26.0507 12.3929 25.8981 12.5456C25.7456 12.6982 25.6577 12.9098 25.6577 13.1255C25.6577 13.3413 25.7455 13.5529 25.8981 13.7054C26.0507 13.858 26.2623 13.9459 26.478 13.9459C26.6946 13.9459 26.9054 13.8581 27.058 13.7054C27.2105 13.5529 27.2984 13.3413 27.2984 13.1255C27.2984 12.9098 27.2106 12.6982 27.058 12.5456Z" fill="#0C1E41"/>
<path d="M39.8701 16.9311C39.8466 15.5508 39.6282 14.1883 39.2213 12.8816C39.1145 12.5387 38.7971 12.3053 38.4381 12.3053H29.6115C29.1586 12.3053 28.7913 12.6726 28.7913 13.1255C28.7913 13.5785 29.1586 13.9457 29.6115 13.9457H37.8196C38.0745 14.9256 38.2124 15.9366 38.2297 16.959C38.2781 19.8093 37.3748 23.1122 35.8723 25.5786C34.4227 27.9582 33.7837 30.7908 34.0734 33.5547L34.7862 40.3582H24.1133V38.0674C24.1133 36.7655 23.6052 35.5427 22.6827 34.624C21.7653 33.7106 20.5489 33.2083 19.2551 33.2083C19.2406 33.2084 19.226 33.2086 19.2113 33.2085C17.9006 33.2085 16.6696 32.6976 15.7433 31.7688C14.812 30.8347 14.3042 29.5939 14.3136 28.2748L14.3328 25.6044C14.3344 25.3858 14.2487 25.1757 14.0947 25.0205C13.9406 24.8654 13.7311 24.7782 13.5125 24.7782H10.6874C11.5338 22.7059 12.8403 19.0084 12.8403 17.1799C12.8403 16.0827 12.9801 14.9974 13.2565 13.9453H23.3364C23.7894 13.9453 24.1566 13.578 24.1566 13.1251C24.1566 12.6722 23.7893 12.3049 23.3364 12.3049H12.6395C12.2812 12.3049 11.9643 12.5375 11.857 12.8794C11.4209 14.2679 11.1997 15.7147 11.1997 17.18C11.1997 18.9714 9.46188 23.6587 8.69768 25.2419C8.57496 25.4962 8.59161 25.7955 8.74165 26.0345C8.89168 26.2736 9.1541 26.4188 9.43645 26.4188H12.6864L12.6731 28.263C12.6605 30.0239 13.3382 31.6802 14.5817 32.9271C15.8182 34.167 17.4612 34.8489 19.2111 34.8489C19.2257 34.8489 19.2402 34.8487 19.2549 34.8488C20.1117 34.8488 20.9175 35.1815 21.5252 35.7865C22.1363 36.3949 22.4728 37.2049 22.4728 38.0672V41.1783C22.4728 41.6313 22.8401 41.9985 23.293 41.9985H35.6969C35.9294 41.9985 36.1509 41.8999 36.3065 41.7272C36.4621 41.5544 36.5371 41.3239 36.5128 41.0928L35.7051 33.3835C35.4527 30.9751 36.0097 28.5063 37.2734 26.4319C38.9535 23.6741 39.9243 20.1222 39.8701 16.9311Z" fill="#0C1E41"/>
<path d="M32.953 0.00134277C31.5472 0.00134277 30.4036 1.14502 30.4036 2.55079C30.4036 3.00385 30.7709 3.37102 31.2238 3.37102C31.6767 3.37102 32.044 3.00369 32.044 2.55079C32.044 2.04958 32.4518 1.64189 32.9529 1.64189C33.4541 1.64189 33.8618 2.04966 33.8618 2.55079C33.8618 3.05192 33.4541 3.45978 32.9529 3.45978C32.5 3.45978 32.1327 3.82712 32.1327 4.28001V4.79984C32.1327 5.25282 32.5 5.62007 32.9529 5.62007C33.3473 5.62007 33.6765 5.34174 33.7553 4.97088C34.769 4.63389 35.5024 3.67634 35.5024 2.55071C35.5025 1.14502 34.3588 0.00134277 32.953 0.00134277Z" fill="#0C1E41"/>
<path d="M33.5331 6.69876C33.3806 6.54618 33.169 6.45923 32.9533 6.45923C32.7374 6.45923 32.5258 6.54626 32.3733 6.69876C32.2207 6.85216 32.1329 7.06298 32.1329 7.27954C32.1329 7.49528 32.2206 7.70692 32.3733 7.8595C32.5258 8.01208 32.7374 8.09985 32.9533 8.09985C33.169 8.09985 33.3797 8.01216 33.5331 7.8595C33.6857 7.70692 33.7736 7.49528 33.7736 7.27954C33.7736 7.06298 33.6858 6.85216 33.5331 6.69876Z" fill="#0C1E41"/>
<path d="M12.5745 6.07957C12.8948 5.75924 12.8948 5.2399 12.5745 4.91948L7.8965 0.241652C7.57609 -0.0785977 7.05691 -0.0785977 6.73642 0.241652L4.32019 2.65796C4.01511 2.96304 3.82103 3.34941 3.75794 3.76818C3.33909 3.83126 2.95272 4.02534 2.64773 4.33042L0.24028 6.73779C-0.0800525 7.05812 -0.0800525 7.57746 0.24028 7.89787L4.91819 12.5758C5.0784 12.7359 5.28832 12.8161 5.49824 12.8161C5.70815 12.8161 5.91807 12.7359 6.07828 12.5758L8.48573 10.1683C8.57646 10.0776 8.68236 10.064 8.7374 10.064C8.79261 10.0641 8.89851 10.0776 8.98924 10.1683C9.30965 10.4886 9.82883 10.4886 10.1493 10.1683C10.1508 10.1669 10.152 10.1651 10.1536 10.1637C10.1551 10.1622 10.1568 10.161 10.1583 10.1594C10.3184 9.99919 10.3985 9.78927 10.3985 9.57935C10.3985 9.36943 10.3184 9.15952 10.1583 8.99931C10.0675 8.90858 10.054 8.80268 10.054 8.74755C10.054 8.69251 10.0675 8.58661 10.1583 8.49588L12.5745 6.07957ZM7.32556 9.00825L5.49815 10.8357L1.98033 7.31775L3.80774 5.49026C3.89846 5.39961 4.00436 5.386 4.05941 5.386C4.11453 5.386 4.22044 5.39953 4.31116 5.49026L7.59955 8.77864C7.50259 8.84624 7.41088 8.92294 7.32556 9.00825ZM8.9981 7.3358C8.9127 7.42111 8.83601 7.51282 8.76849 7.60978L5.48019 4.32148C5.38946 4.23075 5.37593 4.12485 5.37593 4.06972C5.37585 4.01468 5.38938 3.90878 5.48019 3.81797L7.31654 1.98162L10.8344 5.49944L8.9981 7.3358Z" fill="#0C1E41"/>
<path d="M29.397 8.10287H28.7369V7.44285C28.7369 6.98987 28.3696 6.62262 27.9167 6.62262C27.4637 6.62262 27.0965 6.98996 27.0965 7.44285V8.10287H26.4365C25.9835 8.10287 25.6162 8.47021 25.6162 8.9231C25.6162 9.376 25.9836 9.74333 26.4365 9.74333H27.0965V10.4034C27.0965 10.8563 27.4638 11.2236 27.9167 11.2236C28.3697 11.2236 28.7369 10.8563 28.7369 10.4034V9.74333H29.397C29.8499 9.74333 30.2172 9.376 30.2172 8.9231C30.2172 8.47021 29.8499 8.10287 29.397 8.10287Z" fill="#0C1E41"/>
<path d="M39.6212 3.86652C38.3096 3.86652 37.2424 4.93366 37.2424 6.24526C37.2424 7.55686 38.3096 8.624 39.6212 8.624C40.9328 8.624 41.9999 7.55686 41.9999 6.24526C42 4.93366 40.9328 3.86652 39.6212 3.86652ZM39.6212 6.98354C39.2141 6.98354 38.883 6.65238 38.883 6.24526C38.883 5.83814 39.2141 5.50706 39.6212 5.50706C40.0283 5.50706 40.3595 5.83822 40.3595 6.24526C40.3595 6.6523 40.0282 6.98354 39.6212 6.98354Z" fill="#0C1E41"/>
<path d="M25.2498 0.0641815C24.9438 -0.0632131 24.5913 0.00634944 24.3564 0.239974L22.9282 1.66026C22.607 1.97986 22.6055 2.49911 22.9251 2.82035C23.2446 3.14142 23.7639 3.14298 24.0851 2.82338L24.1145 2.79418V5.25094C24.1145 5.70391 24.4818 6.07117 24.9347 6.07117C25.3877 6.07117 25.7549 5.70383 25.7549 5.25094V0.821494C25.755 0.490088 25.5556 0.19133 25.2498 0.0641815Z" fill="#0C1E41"/>
<path d="M18.2919 2.71069C15.9833 2.71069 14.1051 4.58888 14.1051 6.89749C14.1051 9.20609 15.9834 11.0842 18.2919 11.0842C20.6005 11.0842 22.4787 9.20609 22.4787 6.89749C22.4787 4.58888 20.6005 2.71069 18.2919 2.71069ZM18.2919 9.44365C16.8879 9.44365 15.7457 8.30145 15.7457 6.89749C15.7457 5.49352 16.8879 4.35124 18.2919 4.35124C19.6959 4.35124 20.8382 5.49352 20.8382 6.89749C20.8382 8.30145 19.6959 9.44365 18.2919 9.44365Z" fill="#0C1E41"/>
<path d="M19.1122 6.13288V5.40428C19.1122 4.9513 18.7448 4.58405 18.2919 4.58405C17.839 4.58405 17.4717 4.95138 17.4717 5.40428V6.89741C17.4717 7.35047 17.839 7.71764 18.2919 7.71764H18.8145C19.2675 7.71764 19.6348 7.3503 19.6348 6.89741C19.6348 6.54943 19.418 6.25207 19.1122 6.13288Z" fill="#0C1E41"/>
<path d="M35.922 16.9312C35.9143 16.4829 35.5486 16.1249 35.1021 16.1249C35.0974 16.1249 35.0927 16.1249 35.0879 16.125C34.6349 16.1328 34.274 16.5062 34.2817 16.9591C34.3129 18.788 33.8454 20.8552 32.9299 22.9372C32.7475 23.3519 32.9359 23.8358 33.3506 24.0183C33.458 24.0654 33.5701 24.0879 33.6804 24.0879C33.9958 24.0879 34.2966 23.9049 34.4317 23.5975C35.4416 21.3003 35.9571 18.9952 35.922 16.9312Z" fill="#0C1E41"/>
<path d="M32.818 25.034C32.4305 24.7992 31.9262 24.9229 31.6913 25.3104L31.6769 25.3341C31.4421 25.7215 31.5658 26.2259 31.9533 26.4606C32.0862 26.5412 32.2328 26.5795 32.3776 26.5795C32.6551 26.5795 32.9257 26.4388 33.0799 26.1843L33.0943 26.1606C33.3291 25.7731 33.2054 25.2688 32.818 25.034Z" fill="#0C1E41"/>
</svg>
