<svg width="44" height="44" viewBox="0 0 44 44" fill="none" xmlns="http://www.w3.org/2000/svg">
<g clip-path="url(#clip0)">
<path d="M14.1751 34.2743C14.8625 34.457 15.5685 34.0478 15.7514 33.3601L17.1167 28.224L21.6089 27.791L23.3257 33.4363C23.5328 34.1173 24.2527 34.5011 24.9332 34.2941C25.614 34.0871 25.998 33.3673 25.791 32.6866L24.2256 27.5389L24.5451 27.508C25.2534 27.4397 25.7723 26.8102 25.704 26.1019C25.6358 25.3936 25.0061 24.8749 24.2979 24.943L23.4608 25.0237L20.4231 15.0344C20.0481 13.8014 18.2781 13.8259 17.9452 15.0782L15.0866 25.8308L12.7748 26.0537C12.0665 26.1219 11.5476 26.7515 11.6159 27.4597C11.6843 28.1692 12.3153 28.6871 13.022 28.6186L14.3804 28.4877L13.2611 32.698C13.0782 33.3857 13.4875 34.0914 14.1751 34.2743ZM19.2735 20.1112L20.844 25.276L17.823 25.5671L19.2735 20.1112Z" fill="#0C1E41"/>
<path d="M28.675 18.1355C29.3866 18.1355 29.9634 17.5587 29.9634 16.8471V14.0796L31.3909 14.1622C32.1012 14.2033 32.7105 13.6609 32.7516 12.9504C32.7928 12.24 32.2502 11.6308 31.5398 11.5897L29.9634 11.4985V9.91286C29.9634 9.20132 29.3866 8.62445 28.675 8.62445C27.9635 8.62445 27.3866 9.20132 27.3866 9.91286V11.3494L25.9591 11.2667C25.2489 11.2255 24.6395 11.7682 24.5984 12.4785C24.5572 13.1889 25.0998 13.7981 25.8102 13.8393L27.3866 13.9305V16.8472C27.3866 17.5587 27.9635 18.1355 28.675 18.1355Z" fill="#0C1E41"/>
<path d="M35.9612 6.06886C35.4737 5.55066 34.6583 5.52575 34.14 6.0132C33.6217 6.50082 33.5968 7.31613 34.0843 7.8345C39.9754 14.0969 41.1175 25.5375 36.6303 33.3375C32.7541 40.0756 25.5737 42.615 16.4125 40.4877C7.03854 38.3112 3.387 28.4975 4.71037 20.3688C6.21017 11.157 14.5084 1.0212 32.958 2.7725C33.667 2.83915 34.2952 2.31992 34.3624 1.61155C34.4296 0.903182 33.9099 0.274436 33.2015 0.207181C14.9412 -1.52625 4.13763 7.851 2.16705 19.9547C0.502845 30.1771 5.64095 40.632 15.8296 42.9977C25.4202 45.2246 34.1249 42.8599 38.8638 34.6224C43.8542 25.9479 42.6663 13.1965 35.9612 6.06886Z" fill="#0C1E41"/>
</g>
<defs>
<clipPath id="clip0">
<rect width="43.7902" height="43.7902" fill="white"/>
</clipPath>
</defs>
</svg>
