<svg width="42" height="43" viewBox="0 0 42 43" fill="none" xmlns="http://www.w3.org/2000/svg">
<g clip-path="url(#clip0)">
<path d="M22.3564 4.68945V21.0131L26.5179 17.7579H42.0003V4.68945H22.3564ZM40.7675 16.5251H26.0854L23.5894 18.448V5.92238H40.7675V16.5251Z" fill="#0C1E41"/>
<path d="M0 21.1289V34.1974H15.5646L19.6439 37.4525V21.1289H0ZM18.4109 34.8874L15.9971 32.9645H1.23285V22.3618H18.4109V34.8874Z" fill="#0C1E41"/>
<path d="M6.68896 16.9998L5.03882 15.3496L4.16699 16.2214L7.23299 19.2874L10.2991 16.2214L9.42725 15.3496L7.9497 16.8272C8.73269 10.663 14.0102 5.88137 20.3837 5.88137V4.64844C13.2705 4.64844 7.40001 10.0713 6.68896 16.9998Z" fill="#0C1E41"/>
<path d="M34.8489 22.8047L31.7828 25.8707L32.6547 26.7425L34.1322 25.2649C33.3491 31.4291 28.0717 36.2107 21.6982 36.2107V37.4436C28.8114 37.4436 34.6819 32.0208 35.393 25.0923L37.0431 26.7425L37.9149 25.8707L34.8489 22.8047Z" fill="#0C1E41"/>
<path d="M16.4385 24.416H5.91797V25.6489H16.4385V24.416Z" fill="#0C1E41"/>
<path d="M13.8086 27.0469H3.28809V28.2797H13.8086V27.0469Z" fill="#0C1E41"/>
<path d="M11.1785 29.6758H3.28809V30.9086H11.1785V29.6758Z" fill="#0C1E41"/>
<path d="M16.4381 27.0469H15.123V28.2797H16.4381V27.0469Z" fill="#0C1E41"/>
<path d="M4.60313 24.416H3.28809V25.6489H4.60313V24.416Z" fill="#0C1E41"/>
<path d="M38.7947 7.97852H30.9043V9.21136H38.7947V7.97852Z" fill="#0C1E41"/>
<path d="M38.7942 10.6074H25.6436V11.8403H38.7942V10.6074Z" fill="#0C1E41"/>
<path d="M34.8498 13.2383H28.2744V14.4711H34.8498V13.2383Z" fill="#0C1E41"/>
<path d="M26.9586 13.2383H25.6436V14.4711H26.9586V13.2383Z" fill="#0C1E41"/>
<path d="M26.9586 7.97852H25.6436V9.21136H26.9586V7.97852Z" fill="#0C1E41"/>
<path d="M29.5895 7.97852H28.2744V9.21136H29.5895V7.97852Z" fill="#0C1E41"/>
</g>
<defs>
<clipPath id="clip0">
<rect width="42" height="42" fill="white" transform="translate(0 0.0507812)"/>
</clipPath>
</defs>
</svg>
