<svg width="40" height="40" viewBox="0 0 40 40" fill="none" xmlns="http://www.w3.org/2000/svg">
<g clip-path="url(#clip0)">
<path d="M4.24915 13.75H13.9093V15.4167H4.24915V13.75Z" fill="#5E6D85"/>
<path d="M4.24915 19.0833H13.9093V20.7499H4.24915V19.0833Z" fill="#5E6D85"/>
<path d="M4.24915 24.5833H13.9093V26.25H4.24915V24.5833Z" fill="#5E6D85"/>
<path fill-rule="evenodd" clip-rule="evenodd" d="M15.9219 10.0007H2.63913C2.41683 10.0007 2.23662 10.1872 2.23662 10.4173V29.584C2.23662 29.8141 2.41683 30.0007 2.63913 30.0007H15.9219C16.1442 30.0007 16.3244 29.8141 16.3244 29.584V10.4173C16.3244 10.1872 16.1442 10.0007 15.9219 10.0007ZM2.63913 8.33398C1.52763 8.33398 0.626587 9.26673 0.626587 10.4173V29.584C0.626587 30.7346 1.52763 31.6673 2.63913 31.6673H15.9219C17.0334 31.6673 17.9344 30.7346 17.9344 29.584V10.4173C17.9344 9.26672 17.0334 8.33398 15.9219 8.33398H2.63913Z" fill="#5E6D85"/>
<rect x="25.582" y="13.75" width="9.66019" height="1.66667" fill="#5E6D85"/>
<path d="M23.972 10.0007H37.2548C37.4771 10.0007 37.6573 10.1872 37.6573 10.4173V29.584C37.6573 29.8141 37.4771 30.0007 37.2548 30.0007H23.972C23.7497 30.0007 23.5695 29.8141 23.5695 29.584V25.0007H21.9595V29.584C21.9595 30.7346 22.8605 31.6673 23.972 31.6673H37.2548C38.3663 31.6673 39.2673 30.7346 39.2673 29.584V10.4173C39.2673 9.26672 38.3663 8.33398 37.2548 8.33398H23.972C22.8605 8.33398 21.9595 9.26672 21.9595 10.4173V16.6673H23.5695V10.4173C23.5695 10.1872 23.7497 10.0007 23.972 10.0007Z" fill="#5E6D85"/>
<path d="M23.9721 18.334L27.1921 20.834L23.9721 23.334L23.167 22.5006L23.9721 21.6673H19.142V20.0007H23.9721L23.167 19.1673L23.9721 18.334Z" fill="#5E6D85"/>
</g>
<defs>
<clipPath id="clip0">
<rect width="38.6408" height="40" fill="white" transform="translate(0.626587)"/>
</clipPath>
</defs>
</svg>
