<svg width="50" height="50" viewBox="0 0 50 50" fill="none" xmlns="http://www.w3.org/2000/svg">
<g clip-path="url(#clip0)">
<path d="M8.64295 5.57812C6.60432 5.57812 4.94531 7.23713 4.94531 9.27576C4.94531 11.3144 6.60432 12.9734 8.64295 12.9734C10.6816 12.9734 12.3406 11.3144 12.3406 9.27576C12.3406 7.23713 10.6816 5.57812 8.64295 5.57812ZM8.64295 11.33C7.51065 11.33 6.58871 10.4089 6.58871 9.27576C6.58871 8.14264 7.51065 7.22152 8.64295 7.22152C9.77524 7.22152 10.6972 8.14264 10.6972 9.27576C10.6972 10.4089 9.77524 11.33 8.64295 11.33Z" fill="#344563"/>
<path d="M41.099 8.8641C41.5529 8.8641 41.9207 8.49621 41.9207 8.0424C41.9207 7.58859 41.5529 7.2207 41.099 7.2207C40.6452 7.2207 40.2773 7.58859 40.2773 8.0424C40.2773 8.49621 40.6452 8.8641 41.099 8.8641Z" fill="#344563"/>
<path d="M37.8129 8.8641C38.2667 8.8641 38.6346 8.49621 38.6346 8.0424C38.6346 7.58859 38.2667 7.2207 37.8129 7.2207C37.3591 7.2207 36.9912 7.58859 36.9912 8.0424C36.9912 8.49621 37.3591 8.8641 37.8129 8.8641Z" fill="#344563"/>
<path d="M42.7426 11.3299C43.1964 11.3299 43.5643 10.962 43.5643 10.5082C43.5643 10.0544 43.1964 9.68652 42.7426 9.68652C42.2888 9.68652 41.9209 10.0544 41.9209 10.5082C41.9209 10.962 42.2888 11.3299 42.7426 11.3299Z" fill="#344563"/>
<path d="M39.4565 11.3299C39.9103 11.3299 40.2782 10.962 40.2782 10.5082C40.2782 10.0544 39.9103 9.68652 39.4565 9.68652C39.0027 9.68652 38.6348 10.0544 38.6348 10.5082C38.6348 10.962 39.0027 11.3299 39.4565 11.3299Z" fill="#344563"/>
<path d="M34.5258 8.8641C34.9796 8.8641 35.3475 8.49621 35.3475 8.0424C35.3475 7.58859 34.9796 7.2207 34.5258 7.2207C34.072 7.2207 33.7041 7.58859 33.7041 8.0424C33.7041 8.49621 34.072 8.8641 34.5258 8.8641Z" fill="#344563"/>
<path d="M36.1694 11.3299C36.6232 11.3299 36.9911 10.962 36.9911 10.5082C36.9911 10.0544 36.6232 9.68652 36.1694 9.68652C35.7155 9.68652 35.3477 10.0544 35.3477 10.5082C35.3477 10.962 35.7155 11.3299 36.1694 11.3299Z" fill="#344563"/>
<path d="M31.2387 8.8641C31.6925 8.8641 32.0604 8.49621 32.0604 8.0424C32.0604 7.58859 31.6925 7.2207 31.2387 7.2207C30.7849 7.2207 30.417 7.58859 30.417 8.0424C30.417 8.49621 30.7849 8.8641 31.2387 8.8641Z" fill="#344563"/>
<path d="M32.8822 11.3299C33.3361 11.3299 33.7039 10.962 33.7039 10.5082C33.7039 10.0544 33.3361 9.68652 32.8822 9.68652C32.4284 9.68652 32.0605 10.0544 32.0605 10.5082C32.0605 10.962 32.4284 11.3299 32.8822 11.3299Z" fill="#344563"/>
<path d="M27.9526 8.8641C28.4064 8.8641 28.7743 8.49621 28.7743 8.0424C28.7743 7.58859 28.4064 7.2207 27.9526 7.2207C27.4987 7.2207 27.1309 7.58859 27.1309 8.0424C27.1309 8.49621 27.4987 8.8641 27.9526 8.8641Z" fill="#344563"/>
<path d="M29.5961 11.3299C30.0499 11.3299 30.4178 10.962 30.4178 10.5082C30.4178 10.0544 30.0499 9.68652 29.5961 9.68652C29.1423 9.68652 28.7744 10.0544 28.7744 10.5082C28.7744 10.962 29.1423 11.3299 29.5961 11.3299Z" fill="#344563"/>
<path d="M8.64295 21.1895C6.60432 21.1895 4.94531 22.8485 4.94531 24.8871C4.94531 26.9257 6.60432 28.5847 8.64295 28.5847C10.6816 28.5847 12.3406 26.9257 12.3406 24.8871C12.3406 22.8485 10.6816 21.1895 8.64295 21.1895ZM8.64295 26.9413C7.51065 26.9413 6.58871 26.0202 6.58871 24.8871C6.58871 23.754 7.51065 22.8328 8.64295 22.8328C9.77524 22.8328 10.6972 23.754 10.6972 24.8871C10.6972 26.0202 9.77524 26.9413 8.64295 26.9413Z" fill="#344563"/>
<path d="M8.64295 36.8018C6.60432 36.8018 4.94531 38.4608 4.94531 40.4994C4.94531 42.538 6.60432 44.197 8.64295 44.197C10.6816 44.197 12.3406 42.538 12.3406 40.4994C12.3406 38.4608 10.6816 36.8018 8.64295 36.8018ZM8.64295 42.5536C7.51065 42.5536 6.58871 41.6325 6.58871 40.4994C6.58871 39.3663 7.51065 38.4452 8.64295 38.4452C9.77524 38.4452 10.6972 39.3663 10.6972 40.4994C10.6972 41.6325 9.77524 42.5536 8.64295 42.5536Z" fill="#344563"/>
<path d="M49.3164 14.1167V4.43384C49.3164 2.34591 47.618 0.647461 45.5301 0.647461H3.80103C1.7131 0.647461 0.0146484 2.34591 0.0146484 4.43384V14.1159C0.0146484 15.323 0.592301 16.3871 1.4748 17.0806C0.592301 17.7749 0.0146484 18.8398 0.0146484 20.0461V29.7281C0.0146484 30.9352 0.592301 31.9993 1.4748 32.6928C0.592301 33.3871 0.0146484 34.4521 0.0146484 35.6583V45.3404C0.0146484 47.4283 1.7131 49.1267 3.80103 49.1267H26.7058C28.9096 49.5327 31.3254 49.743 33.7042 49.743C40.83 49.743 48.3436 47.895 49.2302 44.3584C49.2852 44.2491 49.3164 44.1242 49.3164 43.992V36.5967V36.2886V35.9804V29.2014V28.8933V28.5851V21.498V21.1899C49.3164 21.0666 49.286 20.9524 49.2376 20.848C48.9524 19.6451 47.8834 18.6319 46.3107 17.8201C48.0247 17.4594 49.3164 15.9368 49.3164 14.1167ZM1.65804 29.7289V20.0461C1.65804 18.8645 2.61943 17.9031 3.80103 17.9031H20.9416C19.4552 18.701 18.4461 19.6853 18.1709 20.848C18.1224 20.9532 18.092 21.0666 18.092 21.1899V21.498V28.5851V28.8933V29.2014V31.8719H3.80103C2.61943 31.8719 1.65804 30.9105 1.65804 29.7289ZM20.2497 24.6862C20.2867 24.71 20.3262 24.7339 20.364 24.7577C20.5086 24.8481 20.659 24.9368 20.8159 25.0239C20.8611 25.0486 20.9046 25.074 20.9498 25.0979C21.1413 25.2006 21.3401 25.3008 21.5472 25.397C21.5801 25.4126 21.6154 25.4274 21.6483 25.4422C21.8299 25.5251 22.0164 25.6049 22.2087 25.6829C22.2654 25.7059 22.3212 25.7289 22.3779 25.7511C22.6047 25.8399 22.8356 25.927 23.0747 26.0091C23.0879 26.0132 23.101 26.0173 23.1142 26.0223C23.3426 26.1003 23.5776 26.1751 23.8167 26.2474C23.8808 26.2671 23.9457 26.286 24.0107 26.3049C24.2473 26.374 24.4872 26.4413 24.7329 26.5054C24.7526 26.5104 24.7715 26.5161 24.7913 26.521C25.0558 26.5892 25.3262 26.6525 25.6006 26.7141C25.6697 26.7298 25.7395 26.7445 25.8085 26.7593C26.0435 26.8103 26.281 26.8588 26.5209 26.9048C26.5686 26.9138 26.6163 26.9237 26.6639 26.9327C26.9458 26.9853 27.2309 27.0338 27.5193 27.0798C27.5875 27.0905 27.6573 27.1012 27.7255 27.1118C27.9647 27.1488 28.2054 27.1833 28.4486 27.2154C28.5152 27.2244 28.5809 27.2335 28.6483 27.2417C28.9425 27.2786 29.2383 27.3132 29.5366 27.3444C29.5965 27.351 29.6573 27.3559 29.7173 27.3616C29.968 27.3863 30.2202 27.4085 30.4725 27.429C30.5489 27.4348 30.6245 27.4413 30.7009 27.4471C31.0025 27.4693 31.3057 27.489 31.6089 27.5046C31.6516 27.5071 31.6952 27.5079 31.7387 27.5104C32.0058 27.5235 32.2736 27.5334 32.5415 27.5408C32.622 27.5432 32.7026 27.5457 32.7839 27.5473C33.0904 27.5539 33.3969 27.5588 33.7026 27.5588C34.0082 27.5588 34.3147 27.5539 34.6212 27.5473C34.7017 27.5457 34.7823 27.5432 34.8636 27.5408C35.1315 27.5334 35.3985 27.5235 35.6664 27.5104C35.71 27.5079 35.7527 27.5071 35.7962 27.5046C36.0995 27.489 36.4027 27.4693 36.7042 27.4471C36.7806 27.4413 36.8562 27.4356 36.9327 27.429C37.1857 27.4093 37.4372 27.3863 37.6878 27.3616C37.7478 27.3559 37.8086 27.3501 37.8686 27.3444C38.1668 27.3132 38.4627 27.2795 38.7568 27.2417C38.8234 27.2335 38.8899 27.2244 38.9565 27.2154C39.1989 27.1833 39.4405 27.1488 39.6796 27.1118C39.7486 27.1012 39.8176 27.0913 39.8858 27.0798C40.1742 27.0338 40.4594 26.9853 40.7412 26.9327C40.7897 26.9237 40.8365 26.9138 40.8842 26.9048C41.1249 26.8588 41.3624 26.8103 41.5966 26.7593C41.6664 26.7437 41.7355 26.7289 41.8045 26.7141C42.0781 26.6525 42.3493 26.5892 42.6139 26.521C42.6336 26.5161 42.6525 26.5104 42.6722 26.5054C42.9179 26.4422 43.1578 26.3748 43.3945 26.3049C43.4594 26.286 43.5243 26.2671 43.5884 26.2474C43.8275 26.1751 44.0625 26.1003 44.2909 26.0223C44.3041 26.0182 44.3172 26.0141 44.3304 26.0091C44.5695 25.9261 44.8012 25.8399 45.0272 25.7511C45.0847 25.7289 45.1406 25.7059 45.1965 25.6829C45.3887 25.6049 45.5753 25.5251 45.7569 25.4422C45.7905 25.4265 45.8251 25.4126 45.8579 25.397C46.065 25.3008 46.263 25.2006 46.4553 25.0979C46.5013 25.0732 46.5449 25.0486 46.5892 25.0239C46.7453 24.9376 46.8957 24.8489 47.0412 24.7577C47.079 24.7339 47.1184 24.7108 47.1554 24.6862C47.3255 24.5761 47.4865 24.4627 47.6394 24.346C47.6492 24.3386 47.6607 24.332 47.6706 24.3246V28.4233C47.6509 28.5186 47.6377 28.6155 47.6533 28.7133C47.6648 28.7733 47.673 28.8325 47.673 28.8933C47.673 28.9837 47.6476 29.0757 47.6254 29.1669C47.6081 29.2376 47.5859 29.3091 47.5564 29.3797C47.5301 29.4414 47.4972 29.5038 47.461 29.5654C47.4257 29.6271 47.3871 29.6895 47.3427 29.7511C47.2795 29.8366 47.208 29.922 47.1266 30.0075C47.0962 30.0404 47.0658 30.0732 47.0329 30.1061C45.2934 31.7889 40.1603 33.3091 33.705 33.3091C27.2539 33.3091 22.1232 31.7906 20.3804 30.1086C20.3442 30.0724 20.3114 30.0371 20.2785 30.0009C20.2013 29.9188 20.1314 29.8366 20.0706 29.7544C20.0238 29.6895 19.9827 29.6246 19.9457 29.5589C19.912 29.5005 19.8808 29.4422 19.8553 29.383C19.8233 29.3082 19.8011 29.2343 19.783 29.1603C19.7608 29.0716 19.7354 28.982 19.7354 28.8933C19.7354 28.8349 19.7428 28.7766 19.7526 28.7191C19.7699 28.6123 19.7592 28.5054 19.7354 28.4027V24.3238C19.7452 24.3312 19.7567 24.3378 19.7666 24.3452C19.9186 24.4619 20.0797 24.5753 20.2497 24.6862ZM47.5555 36.775C47.5292 36.8366 47.4964 36.8991 47.4602 36.9607C47.4249 37.0223 47.3863 37.0848 47.3419 37.1464C47.2786 37.2319 47.2071 37.3173 47.1258 37.4028C47.0954 37.4356 47.065 37.4685 47.0321 37.5014C45.2926 39.1842 40.1595 40.7043 33.7042 40.7043C27.2531 40.7043 22.1224 39.1859 20.3796 37.5038C20.3434 37.4677 20.3106 37.4324 20.2777 37.3962C20.2004 37.314 20.1306 37.2319 20.0698 37.1497C20.023 37.0848 19.9819 37.0199 19.9449 36.9541C19.9112 36.8958 19.88 36.8374 19.8545 36.7783C19.8225 36.7035 19.8003 36.6296 19.7822 36.5556C19.7633 36.4784 19.7436 36.4003 19.7411 36.3231V36.2245C19.7444 36.1875 19.746 36.1505 19.7518 36.1135C19.7633 36.0429 19.7477 35.9738 19.7403 35.904L19.7354 31.8719V31.7191C19.7682 31.7446 19.8069 31.7684 19.8414 31.793C19.9449 31.8703 20.0534 31.9459 20.1643 32.0207C20.2547 32.0806 20.3484 32.1398 20.4437 32.199C20.5907 32.2894 20.7387 32.3789 20.8964 32.4652C20.8981 32.466 20.8997 32.4668 20.9005 32.4677C22.6146 33.4019 24.9712 34.0765 27.5768 34.4849C27.5965 34.4882 27.6163 34.4907 27.636 34.494C28.4766 34.6246 29.3394 34.7265 30.2169 34.8013C30.4035 34.8169 30.5892 34.8333 30.7773 34.8465C30.9606 34.8596 31.1438 34.8711 31.3279 34.881C31.576 34.895 31.8242 34.9073 32.0723 34.9171C32.2169 34.9229 32.3616 34.9295 32.507 34.9336C32.9072 34.9451 33.3065 34.9533 33.705 34.9533C34.1027 34.9533 34.5021 34.9459 34.9006 34.9344C35.0469 34.9303 35.1923 34.9237 35.3386 34.918C35.5851 34.9081 35.8308 34.8966 36.0764 34.8826C36.2621 34.8719 36.447 34.8604 36.6319 34.8473C36.8168 34.8341 36.9992 34.8185 37.1833 34.8029C38.0691 34.7281 38.9401 34.6246 39.788 34.4931C39.8004 34.4915 39.8135 34.489 39.8258 34.4874C42.673 34.042 45.2195 33.277 46.959 32.2039C47.0535 32.1456 47.1472 32.0872 47.2367 32.0272C47.3477 31.9533 47.4561 31.8777 47.5588 31.8004C47.5958 31.7733 47.6377 31.7479 47.6739 31.7199V35.8185C47.6541 35.9139 47.641 36.0108 47.6566 36.1086C47.6648 36.1686 47.673 36.2277 47.673 36.2886C47.673 36.3789 47.6476 36.471 47.6254 36.5622C47.6073 36.6328 47.5859 36.7043 47.5555 36.775ZM3.80103 47.4842C2.61943 47.4842 1.65804 46.5228 1.65804 45.3412V35.6583C1.65804 34.4767 2.61943 33.5153 3.80103 33.5153H18.092V35.9804V36.2886V36.5967V43.992V44.8137H18.3352C18.3483 44.8441 18.3672 44.8736 18.382 44.904C18.4108 44.9657 18.4428 45.0257 18.4757 45.0865C18.5431 45.2081 18.6195 45.328 18.7041 45.4464C18.7879 45.5655 18.8824 45.6805 18.9827 45.7948C19.0336 45.8523 19.0846 45.909 19.1396 45.9657C19.4543 46.2902 19.8323 46.5943 20.2686 46.8786C20.2834 46.8884 20.299 46.8983 20.3147 46.9082C20.6302 47.1111 20.9712 47.3034 21.3401 47.485H3.80103V47.4842ZM47.673 43.7816C47.6665 43.8071 47.6607 43.8334 47.6566 43.8588C47.3205 45.9073 41.6336 48.1004 33.7042 48.1004C31.1742 48.1004 28.8767 47.8761 26.9038 47.5055L26.9047 47.499C22.8184 46.7257 20.5571 45.4201 19.9244 44.319C19.9235 44.3182 19.9227 44.3173 19.9227 44.3157C19.894 44.2648 19.8734 44.2146 19.8512 44.1653C19.8085 44.0626 19.7682 43.9607 19.7518 43.8588L19.7452 39.1218C19.7748 39.1448 19.8101 39.1661 19.8405 39.1891C19.9441 39.2664 20.0525 39.342 20.1635 39.4167C20.2539 39.4767 20.3475 39.5359 20.4428 39.5951C20.5899 39.6854 20.7378 39.775 20.8956 39.8613C20.8972 39.8621 20.8989 39.8629 20.8997 39.8638C22.6138 40.798 24.9704 41.4726 27.576 41.881C27.5957 41.8843 27.6154 41.8868 27.6352 41.8901C28.4757 42.0207 29.3385 42.1226 30.2161 42.1974C30.4026 42.213 30.5883 42.2294 30.7765 42.2426C30.9597 42.2557 31.143 42.2672 31.327 42.2771C31.5752 42.291 31.8233 42.3034 32.0715 42.3132C32.2161 42.319 32.3607 42.3256 32.5062 42.3297C32.9063 42.3412 33.3057 42.3494 33.7042 42.3494C34.1019 42.3494 34.5013 42.342 34.8998 42.3305C35.046 42.3264 35.1915 42.3198 35.3377 42.3141C35.5842 42.3042 35.8299 42.2927 36.0756 42.2787C36.2613 42.268 36.4462 42.2565 36.6311 42.2434C36.816 42.2302 36.9984 42.2146 37.1824 42.199C38.0682 42.1242 38.9392 42.0207 39.7872 41.8892C39.7995 41.8876 39.8127 41.8851 39.825 41.8835C42.6722 41.4381 45.2186 40.6731 46.9582 39.6C47.0527 39.5416 47.1463 39.4833 47.2359 39.4233C47.3468 39.3494 47.4553 39.2738 47.558 39.1965C47.595 39.1694 47.6369 39.1439 47.673 39.116V43.7816ZM47.673 21.498C47.673 23.5827 41.6985 25.9146 33.7042 25.9146C25.7091 25.9146 19.7354 23.5827 19.7354 21.498C19.7354 21.3928 19.7608 21.286 19.7912 21.1792C19.8241 21.0732 19.8685 20.9647 19.9342 20.853C19.9367 20.848 19.9391 20.8431 19.9416 20.8382C20.2152 20.3813 20.7666 19.89 21.6154 19.4158C21.6516 19.3961 21.6885 19.3764 21.7255 19.3567C21.871 19.2778 22.0246 19.1997 22.1865 19.1225C22.3747 19.0346 22.5678 18.9466 22.7748 18.862C22.8151 18.8448 22.857 18.8283 22.8989 18.8119C23.8537 18.4314 25.0041 18.0937 26.2991 17.8176C26.7042 17.7322 27.1167 17.6516 27.5407 17.581C27.6532 17.5621 27.7633 17.5424 27.8776 17.5243C31.5563 16.9573 35.848 16.9573 39.5267 17.5243C39.6426 17.5424 39.7544 17.5629 39.8686 17.5818C40.2901 17.6516 40.7001 17.7314 41.1019 17.8168C45.1077 18.6697 47.673 20.1348 47.673 21.498ZM47.673 14.1167C47.673 15.2983 46.7117 16.2597 45.5301 16.2597H41.7256C41.6779 16.249 41.6254 16.2424 41.5777 16.2318C41.0387 16.1151 40.484 16.0107 39.9171 15.9203C39.862 15.9121 39.8069 15.9031 39.7519 15.8949C37.8119 15.5933 35.7412 15.438 33.7042 15.438C31.6672 15.438 29.5982 15.5933 27.6582 15.8949C27.6015 15.9031 27.5456 15.9121 27.4889 15.9203C26.9236 16.0107 26.3706 16.1151 25.8332 16.2309C25.7847 16.2416 25.7305 16.2482 25.682 16.2589H3.80103C2.61943 16.2597 1.65804 15.2983 1.65804 14.1167V4.43384C1.65804 3.25224 2.61943 2.29085 3.80103 2.29085H45.5292C46.7117 2.29085 47.673 3.25224 47.673 4.43384V14.1167Z" fill="#344563"/>
</g>
<defs>
<clipPath id="clip0">
<rect width="49.3018" height="49.3018" fill="white" transform="translate(0.0146484 0.544922)"/>
</clipPath>
</defs>
</svg>
