<svg width="41" height="40" viewBox="0 0 41 40" fill="none" xmlns="http://www.w3.org/2000/svg">
<path fill-rule="evenodd" clip-rule="evenodd" d="M20.3634 2.24023C23.1864 2.24023 25.8922 4.75445 27.2506 8.55559C30.039 9.29458 32.506 12.4459 33.3871 16.4457C38.2994 17.7356 41 19.6962 41 21.977C41 22.236 40.966 22.4906 40.8985 22.7404C40.3127 26.8588 37.967 30.647 34.2979 33.4524C30.521 36.3212 25.6029 37.9202 20.492 37.9202C15.381 37.9202 10.463 36.3369 6.68601 33.4524C2.98098 30.6195 0.62544 26.7844 0.0687619 22.6193C0.0202339 22.4002 0 22.1905 0 21.9929C0 19.7199 2.66745 17.7793 7.51855 16.4904C8.39966 12.2424 11.2176 9.23682 13.6713 8.54138C14.9804 4.96688 17.8393 2.24023 20.3634 2.24023ZM20.3634 4.12143C22.1447 4.12143 24.0542 5.9032 25.1639 8.48356C23.5071 8.86049 21.7552 10.2946 20.4843 12.2922C20.3631 12.0957 20.2377 11.9053 20.1084 11.7214C18.9057 10.0019 17.3633 8.84621 15.7569 8.4967C17.0113 5.63705 19.1439 4.12143 20.3634 4.12143ZM9.33309 17.3148C10.0245 13.1575 12.8085 10.5408 14.4895 10.3012C14.4973 10.3002 14.5052 10.2992 14.5131 10.298C14.5935 10.2823 14.6738 10.2823 14.7381 10.2823C16.5221 10.2823 18.4669 12.0852 19.5758 14.7502L19.5763 14.7512C19.769 15.2055 19.9296 15.6911 20.0741 16.1923C20.3792 17.32 20.5399 18.4947 20.5402 19.7006C20.5397 20.2136 20.5074 20.711 20.4277 21.1775C20.3301 21.808 20.1678 22.4023 19.9407 22.9468C16.1577 22.9135 12.573 22.5374 9.49399 21.8648C9.28826 21.0543 9.19313 20.1513 9.17718 19.1866C9.17718 18.6115 9.21984 18.0364 9.30517 17.4874C9.31982 17.4312 9.32925 17.3734 9.33309 17.3148ZM7.42097 21.3503C7.30783 20.6624 7.24852 19.9359 7.24852 19.1709C7.24852 18.9562 7.25299 18.7415 7.26237 18.5277C3.35882 19.6808 1.92866 21.0864 1.92866 21.9929L1.92889 22.0142C1.93611 22.0482 1.94144 22.0828 1.94473 22.1182C1.94957 22.1602 1.9546 22.2021 1.95983 22.2439C2.19413 23.2012 3.73763 24.264 6.20384 25.1283C6.70208 25.3007 6.95923 25.8494 6.78244 26.3354C6.63779 26.7116 6.26813 26.9624 5.86633 26.9624C5.75382 26.9624 5.64132 26.9467 5.54488 26.8997C4.47354 26.5257 3.60003 26.1329 2.8904 25.733C3.29089 26.692 3.80068 27.6053 4.40723 28.4634C8.51205 30.5195 12.9294 31.7637 17.5508 32.1355C18.0811 32.1825 18.4829 32.6371 18.4347 33.1545C18.3865 33.6404 17.9686 34.0167 17.4704 34.0167H17.39C14.0914 33.7547 10.8934 33.0723 7.82952 31.9836C11.1566 34.5241 15.6086 36.0547 20.492 36.0547C26.7302 36.0547 32.2602 33.5653 35.6432 29.6663C35.1193 29.8571 34.5899 30.0376 34.0568 30.2074C33.9765 30.2388 33.88 30.2545 33.7675 30.2545C33.3657 30.2545 32.98 30.0036 32.8514 29.6117C32.6907 29.1257 32.9639 28.5927 33.4622 28.4203C34.8737 27.9613 36.2566 27.4325 37.5838 26.8337C37.7748 26.4689 37.9494 26.0963 38.1068 25.7166C37.1624 26.2494 35.9921 26.7351 34.6033 27.1659C30.8103 28.3574 25.7958 29.0001 20.492 29.0001C16.2811 29.0001 12.263 28.5925 8.85575 27.8243C8.34144 27.7146 8.02 27.1973 8.1325 26.6956C8.24501 26.194 8.77539 25.8804 9.2897 25.9902C12.5523 26.727 16.4418 27.1189 20.508 27.1189C31.3904 27.1189 38.3091 24.4478 39.0121 22.3407C39.0218 22.2667 39.0308 22.1925 39.0392 22.1182C39.0457 22.0656 39.0564 22.0145 39.0709 21.9651C39.0427 21.0429 37.5985 19.6499 33.6874 18.4958C33.7189 18.8923 33.7354 19.2903 33.7354 19.6882C33.7354 20.2529 33.6973 20.799 33.623 21.3247C33.91 21.2414 34.1888 21.1558 34.4586 21.068C34.9569 20.8956 35.5033 21.1621 35.6801 21.6481C35.8569 22.1341 35.5837 22.6671 35.0855 22.8395C34.314 23.0903 33.4622 23.3412 32.5782 23.545C32.5581 23.5497 32.5379 23.5545 32.5178 23.5593C29.0447 24.3958 24.9234 24.8297 20.5638 24.8302H20.5563L20.492 24.8302V24.8304C20.4538 24.8304 20.4157 24.8304 20.3776 24.8303C20.3032 24.8304 20.2288 24.8304 20.1544 24.8302C15.9114 24.8145 11.8773 24.3755 8.48608 23.576C8.4582 23.5696 8.43087 23.562 8.40413 23.5534C7.49401 23.3395 6.65879 23.0968 5.89848 22.8395C5.40024 22.6671 5.12701 22.1341 5.30381 21.6481C5.4806 21.1621 6.02705 20.8956 6.52529 21.068C6.8096 21.1666 7.10881 21.2604 7.42097 21.3503ZM31.5862 21.8485C31.7439 21.1798 31.8228 20.4649 31.8228 19.7039C31.8228 18.9358 31.7585 18.1519 31.6299 17.3994C30.9871 13.6684 28.737 10.6271 26.3904 10.3136L26.3519 10.3089C26.239 10.2949 26.1364 10.2823 26.0208 10.2823C24.735 10.2823 22.7421 11.8186 21.5206 14.4052C21.6813 14.8128 21.8259 15.2518 21.9385 15.6907C22.292 16.9762 22.4688 18.3244 22.4688 19.7039C22.4688 20.3153 22.4206 20.911 22.3403 21.491C22.2608 21.9868 22.15 22.4673 22.0078 22.9325C25.4791 22.8518 28.7585 22.4814 31.5862 21.8485ZM26.2297 31.9318C25.7475 31.9318 25.3457 31.5869 25.2815 31.1166C25.2172 30.5993 25.5868 30.129 26.1172 30.0663C27.7405 29.8468 29.3638 29.5489 30.9389 29.157C31.4532 29.0316 31.9835 29.3295 32.1121 29.8311C32.2407 30.3328 31.9353 30.8501 31.421 30.9755C29.7817 31.3831 28.078 31.7123 26.3744 31.9318H26.2297ZM19.5276 33.2015C19.5276 33.7188 19.9616 34.1421 20.492 34.1421C21.5206 34.1421 22.5653 34.0951 23.5939 34.0167C24.1243 33.9696 24.5261 33.515 24.4779 32.9977C24.4296 32.4804 23.9635 32.0884 23.4332 32.1355C22.4528 32.2139 21.4724 32.2609 20.492 32.2609C19.9616 32.2609 19.5276 32.6842 19.5276 33.2015Z" fill="#5E6D85"/>
</svg>
