<svg width="50" height="50" viewBox="0 0 50 50" fill="none" xmlns="http://www.w3.org/2000/svg">
<g clip-path="url(#clip0)">
<path d="M4.78613 16.25H7.96689V17.8404H4.78613V16.25Z" fill="#344563"/>
<path d="M46.9309 13.0687C48.246 13.0687 49.3164 11.9983 49.3164 10.6832V2.73127C49.3164 1.41618 48.246 0.345703 46.9309 0.345703H35.7982C34.4831 0.345703 33.4126 1.41618 33.4126 2.73127V10.6832C33.4126 11.9983 34.4831 13.0687 35.7982 13.0687H38.1838V14.6591H36.5934V16.2495H40.5694V24.2014H37.2876C36.6532 23.5821 35.872 23.108 34.9976 22.8471C35.0015 22.7667 35.003 22.6891 35.003 22.611C35.003 19.1033 32.1492 16.2495 28.6415 16.2495C26.4652 16.2495 24.4423 17.3817 23.2837 19.1926C22.4675 18.8261 21.585 18.6351 20.6896 18.6351C18.0505 18.6351 15.6742 20.2985 14.7447 22.7384C14.1405 22.8681 13.5775 23.1003 13.0662 23.4062H7.17136V21.0206H10.3521C11.6672 21.0206 12.7377 19.9502 12.7377 18.6351V2.73127C12.7377 1.41618 11.6672 0.345703 10.3521 0.345703H2.40022C1.08513 0.345703 0.0146484 1.41618 0.0146484 2.73127V18.6351C0.0146484 19.9502 1.08513 21.0206 2.40022 21.0206H5.58098V24.9966H11.3748C11.0367 25.4792 10.7742 26.0119 10.6018 26.587H7.17136V35.3341H3.9906C2.67551 35.3341 1.60503 36.4046 1.60503 37.7196V44.8764H0.0146484V47.2619C0.0146484 48.577 1.08513 49.6475 2.40022 49.6475H15.1233C16.4384 49.6475 17.5088 48.577 17.5088 47.2619V44.8764H15.9185V37.7196C15.9185 36.4046 14.848 35.3341 13.5329 35.3341H8.76174V28.1774H10.3521C10.3521 31.2459 12.8499 33.7437 15.9185 33.7437H33.4126C36.2109 33.7437 38.5274 31.6652 38.9153 28.9726H42.1597V35.3341H36.5934V49.6475H49.3164V35.3341H43.7501V27.3822H38.9122C38.8295 26.8223 38.6579 26.2896 38.4175 25.7918H42.1597V16.2495H46.1357V14.6591H44.5453V13.0687H46.9309ZM11.1473 13.0687H1.60503V5.11684H11.1473V13.0687ZM2.40022 1.93608H10.3521C10.7909 1.93608 11.1473 2.29252 11.1473 2.73127V3.52646H1.60503V2.73127C1.60503 2.29252 1.96147 1.93608 2.40022 1.93608ZM1.60503 18.6351V14.6591H11.1473V18.6351C11.1473 19.0738 10.7909 19.4303 10.3521 19.4303H2.40022C1.96147 19.4303 1.60503 19.0738 1.60503 18.6351ZM15.9185 47.2619C15.9185 47.7007 15.562 48.0571 15.1233 48.0571H2.40022C1.96147 48.0571 1.60503 47.7007 1.60503 47.2619V46.4667H15.9185V47.2619ZM14.3281 37.7196V44.8764H3.19541V37.7196C3.19541 37.2809 3.55185 36.9245 3.9906 36.9245H13.5329C13.9716 36.9245 14.3281 37.2809 14.3281 37.7196ZM38.1838 48.0571V43.286H47.7261V48.0571H38.1838ZM47.7261 41.6956H38.1838V36.9245H47.7261V41.6956ZM33.4126 32.1533H15.9185C13.7262 32.1533 11.9425 30.3696 11.9425 28.1774C11.9425 26.1673 13.4471 24.4716 15.4413 24.2332L15.9631 24.1703L16.1103 23.6656C16.6985 21.6399 18.5824 20.2255 20.6896 20.2255C21.5675 20.2255 22.4295 20.472 23.185 20.9372L23.9441 21.4054L24.3227 20.5967C25.1055 18.9212 26.8007 17.8399 28.6415 17.8399C31.2728 17.8399 33.4126 19.9797 33.4126 22.611C33.4126 22.8304 33.3928 23.0641 33.3497 23.3464L33.2298 24.1331L34.016 24.2523C35.9388 24.5458 37.3886 26.2333 37.3886 28.1774C37.3886 30.3696 35.6048 32.1533 33.4126 32.1533ZM35.7982 1.93608H46.9309C47.3696 1.93608 47.7261 2.29252 47.7261 2.73127V8.29761H35.003V2.73127C35.003 2.29252 35.3595 1.93608 35.7982 1.93608ZM35.003 10.6832V9.88799H47.7261V10.6832C47.7261 11.1219 47.3696 11.4784 46.9309 11.4784H35.7982C35.3595 11.4784 35.003 11.1219 35.003 10.6832ZM42.9549 14.6591H39.7742V13.0687H42.9549V14.6591Z" fill="#344563"/>
<path d="M39.7744 38.5146H41.3648V40.105H39.7744V38.5146Z" fill="#344563"/>
<path d="M44.5449 44.876H46.1353V46.4664H44.5449V44.876Z" fill="#344563"/>
<path d="M42.9551 38.5146H46.1358V40.105H42.9551V38.5146Z" fill="#344563"/>
<path d="M39.7744 44.876H42.9552V46.4664H39.7744V44.876Z" fill="#344563"/>
</g>
<defs>
<clipPath id="clip0">
<rect width="49.3018" height="49.3018" fill="white" transform="translate(0.0146484 0.345703)"/>
</clipPath>
</defs>
</svg>
