<svg width="42" height="42" viewBox="0 0 42 42" fill="none" xmlns="http://www.w3.org/2000/svg">
<g clip-path="url(#clip0)">
<path d="M41.3836 39.1233H40.0274V21.9452H41.3836C41.6085 21.9452 41.8157 21.8227 41.924 21.6254C42.0322 21.4282 42.0244 21.1876 41.9037 20.9978L37.3009 13.7649C37.1878 13.5871 36.9917 13.4794 36.7808 13.4794H24.543L21.6165 10.553V8.13701H27.5754C27.8027 8.13701 28.0116 8.01191 28.1189 7.81145C28.2262 7.61106 28.2144 7.36778 28.0882 7.17865L27.0012 5.54797L28.0883 3.91728C28.2145 3.72816 28.2262 3.48487 28.119 3.28449C28.0116 3.08402 27.8027 2.95893 27.5754 2.95893H21.6165V2.2603C21.6165 1.91986 21.3405 1.64386 21 1.64386C20.6596 1.64386 20.3836 1.91986 20.3836 2.2603V10.553L17.4571 13.4795H5.21919C5.00845 13.4795 4.81226 13.5871 4.69908 13.765L0.096344 20.9979C-0.0243958 21.1877 -0.032204 21.4282 0.0760426 21.6255C0.184371 21.8227 0.391495 21.9452 0.616454 21.9452H1.97262V39.1233H0.616454C0.276015 39.1233 1.51861e-05 39.3993 1.51861e-05 39.7397C1.51861e-05 40.0802 0.276015 40.3562 0.616454 40.3562H41.3836C41.724 40.3562 42 40.0802 42 39.7397C42 39.3993 41.724 39.1233 41.3836 39.1233ZM36.4425 14.7124L40.2607 20.7124H31.7759L25.7759 14.7124H36.4425ZM26.4235 4.1918L25.7473 5.20605C25.6092 5.41309 25.6092 5.68285 25.7473 5.88989L26.4235 6.90413H21.6165V4.1918H26.4235ZM5.55758 14.7124H16.2241L10.2241 20.7124H1.73944L5.55758 14.7124ZM3.20549 21.9452H10.4793C10.4997 21.9452 10.5201 21.9442 10.5405 21.9421C10.5492 21.9413 10.5577 21.9396 10.5663 21.9384C10.5776 21.9368 10.5889 21.9354 10.6001 21.9332C10.6102 21.9313 10.6199 21.9285 10.6297 21.926C10.6393 21.9236 10.649 21.9214 10.6586 21.9186C10.6683 21.9156 10.6777 21.9119 10.6872 21.9086C10.6967 21.9052 10.7062 21.9021 10.7155 21.8982C10.7245 21.8945 10.733 21.8902 10.7417 21.886C10.7512 21.8815 10.7608 21.8773 10.7701 21.8723C10.7786 21.8678 10.7865 21.8626 10.7948 21.8578C10.8038 21.8524 10.813 21.8473 10.8218 21.8413C10.831 21.8352 10.8396 21.8284 10.8484 21.8217C10.8557 21.8163 10.8631 21.8113 10.8701 21.8054C10.8859 21.7925 10.901 21.7789 10.9154 21.7644L21 11.68L31.0846 21.7645C31.099 21.7789 31.1142 21.7925 31.1299 21.8055C31.1369 21.8113 31.1443 21.8163 31.1515 21.8217C31.1604 21.8284 31.1691 21.8353 31.1783 21.8414C31.187 21.8473 31.1961 21.8524 31.2051 21.8577C31.2134 21.8627 31.2215 21.8679 31.23 21.8724C31.2392 21.8773 31.2487 21.8815 31.2581 21.886C31.2669 21.8902 31.2756 21.8945 31.2847 21.8983C31.2939 21.9021 31.3032 21.9051 31.3125 21.9085C31.3222 21.9119 31.3317 21.9156 31.3415 21.9187C31.3509 21.9216 31.3605 21.9236 31.3699 21.926C31.3799 21.9285 31.3898 21.9313 31.4 21.9333C31.4108 21.9354 31.4218 21.9368 31.4327 21.9383C31.4417 21.9396 31.4505 21.9413 31.4597 21.9422C31.4799 21.9442 31.5002 21.9452 31.5205 21.9452H38.7945V39.1233H25.5617V30.5343C25.5617 29.4692 24.6952 28.6028 23.6302 28.6028H18.3699C17.3048 28.6028 16.4384 29.4692 16.4384 30.5343V39.1233H3.20549V21.9452ZM24.3288 31.2329H17.6712V30.5343C17.6712 30.149 17.9846 29.8356 18.3699 29.8356H23.6302C24.0154 29.8356 24.3288 30.149 24.3288 30.5343V31.2329ZM17.6712 32.4658H20.3836V39.1233H17.6712V32.4658ZM21.6165 32.4658H24.3288V39.1233H21.6165V32.4658Z" fill="#0C1E41"/>
<path d="M21.0001 26.548C23.5154 26.548 25.5617 24.5016 25.5617 21.9863C25.5617 19.471 23.5154 17.4247 21.0001 17.4247C18.4847 17.4247 16.4384 19.471 16.4384 21.9863C16.4384 24.5016 18.4847 26.548 21.0001 26.548ZM21.0001 18.6576C22.8356 18.6576 24.3288 20.1508 24.3288 21.9863C24.3288 23.8218 22.8356 25.3151 21.0001 25.3151C19.1646 25.3151 17.6713 23.8218 17.6713 21.9863C17.6713 20.1508 19.1646 18.6576 21.0001 18.6576Z" fill="#0C1E41"/>
<path d="M21.0001 22.6028C21.3406 22.6028 21.6166 22.3268 21.6166 21.9863V20.0137C21.6166 19.6733 21.3406 19.3973 21.0001 19.3973C20.6597 19.3973 20.3837 19.6733 20.3837 20.0137V21.3699H19.0275C18.6871 21.3699 18.4111 21.6459 18.4111 21.9863C18.4111 22.3268 18.6871 22.6028 19.0275 22.6028H21.0001Z" fill="#0C1E41"/>
<path d="M14.4247 31.8904H11.137C10.7966 31.8904 10.5206 32.1664 10.5206 32.5069V36.4521C10.5206 36.7925 10.7966 37.0685 11.137 37.0685H14.4247C14.7651 37.0685 15.0411 36.7925 15.0411 36.4521V32.5069C15.0411 32.1664 14.7651 31.8904 14.4247 31.8904ZM13.8082 33.1233V33.863H11.7534V33.1233H13.8082ZM11.7534 35.8356V35.0959H13.8082V35.8356H11.7534Z" fill="#0C1E41"/>
<path d="M8.50689 31.8904H5.21922C4.87878 31.8904 4.60278 32.1664 4.60278 32.5069V36.4521C4.60278 36.7925 4.87878 37.0685 5.21922 37.0685H8.50689C8.84733 37.0685 9.12333 36.7925 9.12333 36.4521V32.5069C9.12333 32.1664 8.84733 31.8904 8.50689 31.8904ZM7.89045 33.1233V33.863H5.83566V33.1233H7.89045ZM5.83566 35.8356V35.0959H7.89045V35.8356H5.83566Z" fill="#0C1E41"/>
<path d="M14.2192 24H11.3425C10.8893 24 10.5206 24.3687 10.5206 24.8219V29.2192C10.5206 29.5596 10.7966 29.8356 11.137 29.8356H14.4247C14.7651 29.8356 15.0411 29.5596 15.0411 29.2192V24.8219C15.0411 24.3687 14.6724 24 14.2192 24ZM13.8082 25.2329V26.6301H11.7534V25.2329H13.8082ZM11.7534 28.6027V27.863H13.8082V28.6027H11.7534Z" fill="#0C1E41"/>
<path d="M8.30141 24H5.4247C4.9715 24 4.60278 24.3687 4.60278 24.8219V29.2192C4.60278 29.5596 4.87878 29.8356 5.21922 29.8356H8.50689C8.84733 29.8356 9.12333 29.5596 9.12333 29.2192V24.8219C9.12333 24.3687 8.75462 24 8.30141 24ZM7.89045 25.2329V26.6301H5.83566V25.2329H7.89045ZM5.83566 28.6027V27.863H7.89045V28.6027H5.83566Z" fill="#0C1E41"/>
<path d="M33.4931 37.0685H36.7808C37.1213 37.0685 37.3973 36.7925 37.3973 36.4521V32.5069C37.3973 32.1664 37.1213 31.8904 36.7808 31.8904H33.4931C33.1527 31.8904 32.8767 32.1664 32.8767 32.5069V36.4521C32.8767 36.7925 33.1527 37.0685 33.4931 37.0685ZM34.1096 35.8356V35.0959H36.1644V35.8356H34.1096ZM36.1644 33.1233V33.863H34.1096V33.1233H36.1644Z" fill="#0C1E41"/>
<path d="M27.5754 37.0685H30.863C31.2035 37.0685 31.4795 36.7925 31.4795 36.4521V32.5069C31.4795 32.1664 31.2035 31.8904 30.863 31.8904H27.5754C27.2349 31.8904 26.9589 32.1664 26.9589 32.5069V36.4521C26.9589 36.7925 27.2349 37.0685 27.5754 37.0685ZM28.1918 35.8356V35.0959H30.2466V35.8356H28.1918ZM30.2466 33.1233V33.863H28.1918V33.1233H30.2466Z" fill="#0C1E41"/>
<path d="M33.4931 29.8356H36.7808C37.1213 29.8356 37.3973 29.5596 37.3973 29.2192V24.8219C37.3973 24.3687 37.0285 24 36.5753 24H33.6986C33.2454 24 32.8767 24.3687 32.8767 24.8219V29.2192C32.8767 29.5596 33.1527 29.8356 33.4931 29.8356ZM34.1096 28.6027V27.863H36.1644V28.6027H34.1096ZM36.1644 25.2329V26.6301H34.1096V25.2329H36.1644Z" fill="#0C1E41"/>
<path d="M27.5754 29.8356H30.863C31.2035 29.8356 31.4795 29.5596 31.4795 29.2192V24.8219C31.4795 24.3687 31.1108 24 30.6576 24H27.7808C27.3276 24 26.9589 24.3687 26.9589 24.8219V29.2192C26.9589 29.5596 27.2349 29.8356 27.5754 29.8356ZM28.1918 28.6027V27.863H30.2466V28.6027H28.1918ZM30.2466 25.2329V26.6301H28.1918V25.2329H30.2466Z" fill="#0C1E41"/>
</g>
<defs>
<clipPath id="clip0">
<rect width="42" height="42" fill="white"/>
</clipPath>
</defs>
</svg>
