<svg width="40" height="40" viewBox="0 0 40 40" fill="none" xmlns="http://www.w3.org/2000/svg">
<g clip-path="url(#clip0)">
<path d="M38.0261 17.5841C37.8202 15.9182 37.1309 14.5915 36.8414 14.094C37.0508 10.6278 36.3703 8.01784 34.8181 6.33401C33.608 5.02151 32.1944 4.65017 31.4765 4.54535C30.3817 2.20802 28.5205 1.75583 27.3893 1.86573C25.2712 -0.126473 23.3121 -0.173805 22.0209 0.151423C21.1695 0.366346 20.5029 0.769173 20.0894 1.07287C19.676 0.768767 19.009 0.366346 18.1578 0.151423C16.8666 -0.174414 14.9075 -0.126879 12.7895 1.86573C11.657 1.75542 9.79664 2.20802 8.70222 4.54535C7.98434 4.64997 6.5707 5.02131 5.36062 6.33401C3.80799 8.01784 3.12792 10.6278 3.33731 14.094C3.04787 14.5911 2.35895 15.9182 2.15258 17.5841C1.91945 19.4719 2.27548 22.1341 5.19809 24.2941C4.85937 26.3133 5.17999 29.7892 8.37315 31.4984C8.24059 32.233 8.15269 33.5071 8.80199 34.5961C9.31249 35.4528 10.1559 36.0163 11.3117 36.2739C11.8952 37.1833 13.9066 40.0001 16.4167 40.0001C16.4326 40.0001 16.4489 40.0001 16.4648 39.9997C17.8104 39.9802 19.0263 39.177 20.0892 37.6085C21.1524 39.1765 22.3683 39.9802 23.7136 39.9997C26.2421 40.0371 28.2795 37.189 28.8669 36.2739C30.0226 36.0163 30.8662 35.453 31.3765 34.5961C32.026 33.5071 31.9377 32.2328 31.8054 31.4984C34.9989 29.7892 35.3196 26.3133 34.9808 24.2941C37.9036 22.1341 38.2599 19.4721 38.0261 17.5841ZM33.8357 23.411C33.5943 23.5735 33.4801 23.8717 33.5505 24.1561C33.5972 24.3446 34.6469 28.7865 30.7383 30.4781C30.4098 30.6203 30.2443 30.9926 30.3573 31.3347C30.3622 31.3495 30.825 32.8339 30.2 33.8815C29.8613 34.4501 29.2315 34.8155 28.3294 34.9673C28.1283 35.001 27.9525 35.1237 27.8495 35.3012C27.3126 36.2265 25.5375 38.6134 23.7612 38.6134C23.7514 38.6134 23.7409 38.6134 23.7307 38.6134C22.6624 38.5968 21.6442 37.7064 20.7047 35.9671C20.5842 35.7445 20.3271 35.6059 20.0757 35.6059C19.8243 35.6059 19.5933 35.7443 19.4729 35.9671C18.5337 37.7064 17.5155 38.5968 16.4469 38.6134C14.6685 38.6423 12.8681 36.232 12.328 35.3012C12.225 35.1237 12.0488 35.001 11.8481 34.9673C10.9488 34.8157 10.3204 34.4521 9.98089 33.887C9.34829 32.8337 9.81635 31.3475 9.82058 31.3345C9.93322 30.9924 9.76808 30.6201 9.43961 30.4779C5.5515 28.7951 6.58236 24.3432 6.62782 24.1559C6.69822 23.8717 6.58397 23.5735 6.3426 23.4108C1.22068 19.9623 4.46835 14.8673 4.60834 14.6534C4.69282 14.5254 4.73265 14.3727 4.72199 14.2193C4.49811 11.0578 5.04442 8.73045 6.34542 7.30095C7.59633 5.92671 9.11034 5.89136 9.16968 5.89055C9.45047 5.89055 9.70271 5.71788 9.8071 5.45481C10.5755 3.51543 11.8101 3.23835 12.4521 3.23835C12.6587 3.23835 12.8043 3.26719 12.8524 3.27857C13.0865 3.33748 13.3338 3.26861 13.5043 3.09615C14.9015 1.68574 16.3374 1.14397 17.7726 1.48443C18.8708 1.74506 19.5859 2.44366 19.5907 2.44854C19.7195 2.57855 19.8943 2.65168 20.0761 2.65168H20.1022C20.2843 2.65168 20.4589 2.57855 20.5876 2.44854C20.5944 2.44163 21.2852 1.76659 22.3538 1.49682C23.8059 1.13036 25.2598 1.66766 26.674 3.09615C26.8407 3.26496 27.088 3.33301 27.3195 3.28019C27.5244 3.23266 29.3554 2.89057 30.3712 5.45502C30.4742 5.71504 30.7268 5.8873 31.0042 5.89075C31.068 5.89177 32.582 5.92671 33.8329 7.30116C35.1337 8.73066 35.6798 11.0582 35.4563 14.2195C35.4457 14.3727 35.4855 14.5256 35.57 14.6536C35.5788 14.6668 36.445 15.9958 36.663 17.7566C36.9472 20.0539 35.996 21.9565 33.8357 23.411Z" fill="#5E6D85"/>
<path d="M31.6345 4.9781C31.5144 4.61468 31.1248 4.41885 30.766 4.53952C26.4963 5.97694 26.447 9.58045 26.447 9.73301C26.447 10.1141 26.7516 10.4215 27.1287 10.4239C27.1305 10.4239 27.1321 10.4239 27.1335 10.4239C27.5087 10.4239 27.815 10.1167 27.82 9.73768C27.8218 9.62494 27.8959 6.96725 31.2 5.85506C31.5599 5.73398 31.7542 5.34152 31.6345 4.9781Z" fill="#5E6D85"/>
<path d="M34.7366 23.5669C34.5067 23.2626 34.0764 23.2035 33.7743 23.4359C32.6556 24.2968 31.6438 24.6035 30.7692 24.349C29.211 23.8958 28.4259 21.8229 28.4185 21.8018C28.2867 21.4433 27.8915 21.2598 27.5373 21.3931C27.1816 21.5255 26.9996 21.9245 27.1312 22.2837C27.172 22.3954 28.157 25.026 30.381 25.6791C30.7127 25.7767 31.0508 25.8252 31.3948 25.8252C32.4184 25.8252 33.4949 25.395 34.6069 24.5387C34.9084 24.3067 34.9663 23.8712 34.7366 23.5669Z" fill="#5E6D85"/>
<path d="M23.1281 24.1464C22.8604 23.8757 22.4251 23.8757 22.1574 24.1464C21.8893 24.4172 21.8893 24.8562 22.1574 25.1268C24.3867 27.3782 23.9242 29.5534 23.9005 29.6564C23.8112 30.0268 24.0347 30.4003 24.4009 30.493C24.4565 30.5068 24.5126 30.5137 24.5677 30.5137C24.8752 30.5137 25.1554 30.3032 25.2333 29.9882C25.2637 29.8669 25.9369 26.9831 23.1281 24.1464Z" fill="#5E6D85"/>
<path d="M33.7805 17.6476C33.6513 17.2885 33.2577 17.1026 32.9017 17.232C32.7627 17.2822 29.4891 18.4382 27.7504 16.1011C26.8473 14.8873 26.4592 13.8479 26.1473 13.0128C25.7645 11.9883 25.4034 11.0204 24.2032 10.9204C23.8287 10.8885 23.4936 11.1727 23.4628 11.5544C23.4316 11.9357 23.7126 12.2707 24.0906 12.3022C24.378 12.3257 24.486 12.4941 24.8624 13.5017C25.1872 14.371 25.6317 15.5614 26.6525 16.9336C27.8489 18.5416 29.518 18.9455 30.8943 18.9455C32.2266 18.9455 33.2843 18.5666 33.3713 18.5349C33.727 18.4039 33.9096 18.007 33.7805 17.6476Z" fill="#5E6D85"/>
<path d="M20.0764 1.26562C19.6974 1.26562 19.3899 1.57623 19.3899 1.95894V36.2992C19.3899 36.682 19.6974 36.9926 20.0764 36.9926C20.4553 36.9926 20.7629 36.6824 20.7629 36.2994V1.95894C20.7629 1.57623 20.4553 1.26562 20.0764 1.26562Z" fill="#5E6D85"/>
<path d="M25.0965 7.23828C25.091 6.85557 24.7905 6.54497 24.3999 6.55492C24.0205 6.56041 23.7178 6.87568 23.7232 7.2584C23.7238 7.30166 23.7613 11.6249 21.6207 14.3667C21.386 14.6675 21.4366 15.1035 21.7347 15.3405C21.8607 15.4411 22.0103 15.4897 22.1594 15.4897C22.3623 15.4897 22.5634 15.3993 22.6986 15.2256C25.1379 12.1017 25.0991 7.43553 25.0965 7.23828Z" fill="#5E6D85"/>
<path d="M26.492 28.4785C23.4656 28.4785 22.05 32.662 21.9913 32.8404C21.8714 33.2034 22.0655 33.595 22.4249 33.7167C22.4969 33.7413 22.5705 33.7527 22.6426 33.7527C22.9296 33.7527 23.1973 33.5696 23.2939 33.2793C23.6101 32.3297 24.8012 29.8652 26.4922 29.8652C26.8712 29.8652 27.1787 29.5546 27.1787 29.1718C27.1787 28.7891 26.871 28.4785 26.492 28.4785Z" fill="#5E6D85"/>
<path d="M27.2658 1.75823C26.9623 1.5297 26.5318 1.59328 26.3054 1.90063L24.6582 4.13579C24.4319 4.44253 24.4951 4.87705 24.7992 5.10578C24.9221 5.19862 25.0655 5.24311 25.2083 5.24311C25.4181 5.24311 25.6251 5.14682 25.7597 4.96338L27.4068 2.72823C27.6331 2.42148 27.5699 1.98717 27.2658 1.75823Z" fill="#5E6D85"/>
<path d="M8.40344 15.2539C6.88923 15.2539 5.65723 16.4981 5.65723 18.0274C5.65723 19.5566 6.88923 20.8009 8.40344 20.8009C9.91765 20.8009 11.1497 19.5566 11.1497 18.0274C11.1499 16.4981 9.91765 15.2539 8.40344 15.2539ZM8.40344 19.4142C7.64613 19.4142 7.03023 18.7922 7.03023 18.0274C7.03023 17.2626 7.64613 16.6405 8.40344 16.6405C9.16075 16.6405 9.77665 17.2626 9.77665 18.0274C9.77665 18.7922 9.16075 19.4142 8.40344 19.4142Z" fill="#5E6D85"/>
<path d="M15.2696 21.4941C13.7554 21.4941 12.5234 22.7384 12.5234 24.2676C12.5234 25.7969 13.7554 27.0411 15.2696 27.0411C16.7839 27.0411 18.0159 25.7969 18.0159 24.2676C18.0159 22.7384 16.7839 21.4941 15.2696 21.4941ZM15.2696 25.6545C14.5123 25.6545 13.8964 25.0324 13.8964 24.2676C13.8964 23.5028 14.5123 22.8808 15.2696 22.8808C16.027 22.8808 16.6429 23.5028 16.6429 24.2676C16.6429 25.0324 16.0268 25.6545 15.2696 25.6545Z" fill="#5E6D85"/>
<path d="M15.2696 29.1211C13.7554 29.1211 12.5234 30.3653 12.5234 31.8946C12.5234 33.4238 13.7554 34.6681 15.2696 34.6681C16.7839 34.6681 18.0159 33.4238 18.0159 31.8946C18.0159 30.3653 16.7839 29.1211 15.2696 29.1211ZM15.2696 33.2814C14.5123 33.2814 13.8964 32.6594 13.8964 31.8946C13.8964 31.1297 14.5123 30.5077 15.2696 30.5077C16.027 30.5077 16.6429 31.1297 16.6429 31.8946C16.6427 32.6594 16.0268 33.2814 15.2696 33.2814Z" fill="#5E6D85"/>
<path d="M13.2099 10.4004C12.831 10.4004 12.5234 10.711 12.5234 11.0937V18.0275C12.5234 18.4102 12.831 18.7208 13.2099 18.7208C13.5893 18.7208 13.8964 18.4106 13.8964 18.0275V11.0937C13.8964 10.711 13.5889 10.4004 13.2099 10.4004Z" fill="#5E6D85"/>
<path d="M15.2695 17.334H10.4634C10.0844 17.334 9.77686 17.6446 9.77686 18.0273C9.77686 18.41 10.0844 18.7206 10.4634 18.7206H15.2693C15.6486 18.7206 15.9558 18.41 15.9558 18.0273C15.956 17.6446 15.6484 17.334 15.2695 17.334Z" fill="#5E6D85"/>
<path d="M15.2695 17.334C14.8906 17.334 14.583 17.6446 14.583 18.0273V22.1876C14.583 22.5703 14.8906 22.8809 15.2695 22.8809C15.6489 22.8809 15.956 22.5707 15.956 22.1876V18.0273C15.956 17.6446 15.6485 17.334 15.2695 17.334Z" fill="#5E6D85"/>
<path d="M15.2695 25.6543C14.8906 25.6543 14.583 25.9649 14.583 26.3476V29.8146C14.583 30.1973 14.8906 30.5079 15.2695 30.5079C15.6489 30.5079 15.956 30.1977 15.956 29.8146V26.3476C15.956 25.9649 15.6485 25.6543 15.2695 25.6543Z" fill="#5E6D85"/>
<path fill-rule="evenodd" clip-rule="evenodd" d="M11.9305 7.68023V10.3202H14.5445V7.68023H11.9305ZM11.0591 6.24023C10.7529 6.24023 10.5046 6.49095 10.5046 6.80023V11.2002C10.5046 11.5095 10.7529 11.7602 11.0591 11.7602H15.4159C15.7221 11.7602 15.9704 11.5095 15.9704 11.2002V6.80023C15.9704 6.49095 15.7221 6.24023 15.4159 6.24023H11.0591Z" fill="#5E6D85"/>
</g>
<defs>
<clipPath id="clip0">
<rect width="39.6068" height="40" fill="white" transform="translate(0.286133)"/>
</clipPath>
</defs>
</svg>
