<svg width="42" height="43" viewBox="0 0 42 43" fill="none" xmlns="http://www.w3.org/2000/svg">
<path d="M35.257 4.72179C33.8533 3.576 27.9395 -0.574424 20.5061 -0.174076C13.1624 0.22144 8.6586 3.23313 5.79929 6.03128C5.36825 6.4531 5.36078 7.14447 5.78259 7.57551C6.20441 8.00654 6.89578 8.01402 7.32682 7.5922C9.88378 5.08994 13.9078 2.36845 20.6235 2.00675C27.2495 1.64989 32.6293 5.3961 33.876 6.41372C34.3432 6.79508 35.0311 6.72548 35.4125 6.25826C35.7938 5.79105 35.7242 5.10315 35.257 4.72179Z" fill="#0C1E41"/>
<path d="M21.1986 3.9349C11.1231 3.9349 6.67603 10.4404 4.17508 14.0989L4.10583 14.2002C3.76547 14.6981 3.89316 15.3776 4.39103 15.718C4.8889 16.0583 5.56842 15.9307 5.90878 15.4328L5.9602 15.3576C8.42984 11.7449 12.2998 6.11889 21.1986 6.11889C28.3662 6.11889 33.6358 11.0499 35.3421 13.4944C35.6872 13.989 36.368 14.11 36.8625 13.7649C37.3571 13.4197 37.4781 12.7389 37.133 12.2444C35.1901 9.46083 29.3351 3.9349 21.1986 3.9349Z" fill="#0C1E41"/>
<path d="M21.9477 7.99137C18.7081 7.99137 16.341 8.5096 14.5021 9.41749C12.6526 10.3306 11.4269 11.5942 10.4126 12.9236C9.93231 13.5531 9.50259 14.1849 9.08284 14.8021L9.08116 14.8046C7.70708 16.8249 6.42287 18.7086 3.69807 20.121C3.16264 20.3986 2.95359 21.0576 3.23114 21.5931C3.50869 22.1285 4.16774 22.3376 4.70317 22.06C7.96024 20.3716 9.59972 17.9501 11.0052 15.8742L11.0116 15.8647C11.4 15.291 11.7681 14.7474 12.1489 14.2485C13.0432 13.0764 14.0251 12.0887 15.4689 11.3758C16.9234 10.6577 18.9355 10.1754 21.9477 10.1754C24.5612 10.1754 27.4594 11.4544 29.6333 13.4278C31.8182 15.4112 33.0687 17.8993 32.7909 20.2026C32.6588 21.2982 32.4725 22.3144 32.2901 23.3084C32.241 23.576 32.1922 23.8421 32.145 24.1072C31.9264 25.333 31.7374 26.5556 31.7518 27.7481C31.7663 28.9608 31.9902 30.1619 32.603 31.351C33.2125 32.5338 34.1737 33.6404 35.5699 34.719C36.0472 35.0877 36.733 34.9997 37.1017 34.5225C37.4704 34.0452 37.3824 33.3594 36.9051 32.9907C35.6969 32.0573 34.9741 31.1844 34.5443 30.3505C34.1178 29.5228 33.947 28.6699 33.9356 27.7219C33.924 26.7538 34.0778 25.7088 34.295 24.4905C34.3392 24.2428 34.3859 23.9886 34.4338 23.7275L34.4343 23.7246C34.6173 22.7274 34.8183 21.6327 34.9592 20.4641C35.3534 17.1961 33.5783 14.0593 31.1013 11.8107C28.6129 9.55191 25.2115 7.99137 21.9477 7.99137Z" fill="#0C1E41"/>
<path d="M21.3139 12.0478C18.706 12.0478 16.8054 12.6688 15.2987 13.7514C13.8259 14.8097 12.8191 16.2501 11.9021 17.6825C11.7398 17.936 11.5787 18.1917 11.4174 18.4478L11.4173 18.4479C9.73872 21.1128 7.99613 23.8745 3.91181 25.78C3.36527 26.035 3.1289 26.6847 3.38388 27.2312C3.63885 27.7778 4.28861 28.0142 4.83515 27.7592C9.52175 25.5728 11.5708 22.3107 13.2557 19.6286L13.2599 19.6219C13.4233 19.3617 13.583 19.1076 13.7414 18.86C14.6467 17.4459 15.4656 16.3208 16.5731 15.525C17.6469 14.7534 19.0812 14.2318 21.3139 14.2318C23.3103 14.2318 25.2167 15.1621 26.5941 16.5573C27.9818 17.9629 28.7183 19.7183 28.5811 21.2644C28.5237 21.9111 28.3637 22.7031 28.1696 23.6625L28.1695 23.6631C28.0958 24.027 28.0176 24.4136 27.9392 24.8218C27.6642 26.2534 27.4013 27.8964 27.4245 29.5367C27.4478 31.181 27.7589 32.8892 28.6882 34.4112C29.6284 35.9512 31.1412 37.2017 33.3867 38.0182C33.9535 38.2242 34.58 37.9318 34.7861 37.365C34.9922 36.7982 34.6998 36.1717 34.133 35.9656C32.2875 35.2947 31.2002 34.3345 30.5522 33.2732C29.8933 32.194 29.6282 30.9105 29.6083 29.5057C29.5883 28.097 29.8151 26.6334 30.084 25.2338C30.1509 24.8853 30.2216 24.5361 30.2915 24.1908L30.2939 24.1793C30.4931 23.1952 30.6874 22.2359 30.7565 21.4575C30.965 19.1091 29.8574 16.754 28.1483 15.0229C26.4287 13.2811 23.9848 12.0478 21.3139 12.0478Z" fill="#0C1E41"/>
<path d="M37.6238 16.1078C37.4408 15.5331 36.8266 15.2156 36.2519 15.3986C35.6773 15.5815 35.3597 16.1957 35.5427 16.7704C36.2746 19.0691 36.6482 20.8554 36.7017 22.6776C36.7554 24.5034 36.4895 26.4269 35.8675 29.0011C35.7259 29.5873 36.0863 30.1774 36.6725 30.319C37.2587 30.4606 37.8488 30.1002 37.9904 29.514C38.6361 26.8419 38.9464 24.7088 38.8848 22.6134C38.8231 20.5144 38.39 18.5146 37.6238 16.1078Z" fill="#0C1E41"/>
<path d="M24.6218 17.432C23.4354 16.5062 22.0339 16.265 21.0754 16.3226L21.0739 16.3227L21.0511 16.3244L21.0496 16.3245C19.1703 16.4822 17.925 16.8928 16.9761 17.7558C16.5219 18.1688 16.181 18.6453 15.8791 19.1336C15.6963 19.4293 15.5059 19.7674 15.3118 20.1121L15.3102 20.115C15.1974 20.3154 15.083 20.5184 14.9667 20.7196C13.69 22.9271 11.3947 26.3459 3.78123 31.2608C3.27454 31.5879 3.12895 32.2638 3.45604 32.7705C3.78314 33.2771 4.45905 33.4227 4.96574 33.0956C12.8521 28.0046 15.3969 24.338 16.8572 21.813C17.0003 21.5657 17.1255 21.343 17.2406 21.1383L17.2407 21.1381C17.4209 20.8178 17.575 20.5438 17.7368 20.2819C17.9901 19.8722 18.2065 19.5889 18.4455 19.3716C18.8819 18.9747 19.5643 18.6424 21.2184 18.502C21.7585 18.4724 22.5969 18.6222 23.2782 19.1538C23.9148 19.6506 24.5434 20.5801 24.5434 22.3886C24.5434 23.3916 24.0819 24.6277 23.1506 26.0555C22.2311 27.4651 20.9236 28.9557 19.3989 30.4433C16.3512 33.4167 12.5479 36.27 9.57543 38.3089C9.0781 38.6501 8.95149 39.3298 9.29263 39.8271C9.63378 40.3245 10.3135 40.4511 10.8108 40.1099C13.8309 38.0383 17.7487 35.1044 20.924 32.0066C22.5107 30.4585 23.9402 28.8426 24.9798 27.2487C26.0076 25.673 26.7274 24.0087 26.7274 22.3886C26.7274 20.0003 25.858 18.3966 24.6218 17.432Z" fill="#0C1E41"/>
<path d="M21.4336 20.9681C20.888 20.711 20.2374 20.9449 19.9803 21.4904C17.4656 26.8272 12.0453 31.3372 6.11416 35.4451C5.61837 35.7885 5.49482 36.4688 5.83821 36.9646C6.1816 37.4604 6.86189 37.5839 7.35767 37.2406C13.2964 33.1273 19.1697 28.3345 21.956 22.4214C22.213 21.8758 21.9792 21.2251 21.4336 20.9681Z" fill="#0C1E41"/>
<path d="M25.3367 29.9676C24.8029 29.687 24.1426 29.8923 23.8621 30.4262C22.5894 32.8477 22.9998 35.0583 23.9866 36.8C24.9423 38.4868 26.4428 39.7591 27.4604 40.5176C27.944 40.8781 28.6281 40.7783 28.9886 40.2947C29.349 39.8112 29.2492 39.127 28.7657 38.7666C27.8241 38.0647 26.6165 37.0113 25.8868 35.7234C25.1886 34.491 24.9358 33.0776 25.7953 31.4422C26.0759 30.9084 25.8706 30.2482 25.3367 29.9676Z" fill="#0C1E41"/>
<path d="M20.4974 36.5034C19.5471 36.2804 18.5666 36.5331 17.5774 37.0599C16.5877 37.5871 15.4702 38.4512 14.1752 39.653C13.7331 40.0632 13.7073 40.7541 14.1176 41.1962C14.5278 41.6383 15.2187 41.6641 15.6608 41.2538C16.9011 40.1028 17.858 39.3849 18.6041 38.9876C19.3502 38.5901 19.7671 38.5754 19.9984 38.6297C20.2231 38.6824 20.5047 38.8545 20.8605 39.3658C21.2213 39.8843 21.5726 40.628 21.972 41.6189C22.1975 42.1782 22.8337 42.4489 23.3931 42.2234C23.9525 41.9979 24.2231 41.3617 23.9976 40.8023C23.5903 39.7919 23.1638 38.8522 22.6532 38.1184C22.1378 37.3778 21.4543 36.728 20.4974 36.5034Z" fill="#0C1E41"/>
</svg>
