<svg width="42" height="42" viewBox="0 0 42 42" fill="none" xmlns="http://www.w3.org/2000/svg">
<g clip-path="url(#clip0)">
<path d="M33.1933 26.0177C32.3334 25.1224 31.2963 24.6437 30.1971 24.6437C29.1068 24.6437 28.0608 25.1135 27.1655 26.0088L24.3643 28.8011C24.1339 28.677 23.9034 28.5618 23.6818 28.4465C23.3627 28.287 23.0613 28.1363 22.8042 27.9767C20.1803 26.3102 17.7958 24.1385 15.5088 21.3284C14.4008 19.9279 13.6562 18.7489 13.1154 17.5522C13.8423 16.8874 14.516 16.196 15.172 15.5311C15.4202 15.2829 15.6684 15.0259 15.9166 14.7777C17.7781 12.9161 17.7781 10.505 15.9166 8.6435L13.4966 6.22352C13.2218 5.94873 12.9381 5.66507 12.6722 5.38141C12.1403 4.83182 11.5819 4.26449 11.0057 3.73263C10.1459 2.88165 9.11759 2.42957 8.03614 2.42957C6.95468 2.42957 5.90869 2.88165 5.02225 3.73263C5.01338 3.7415 5.01338 3.7415 5.00452 3.75036L1.99063 6.79085C0.855985 7.92549 0.208884 9.30833 0.0670543 10.9128C-0.145691 13.5012 0.616646 15.9123 1.2017 17.4902C2.63773 21.3639 4.78291 24.954 7.98295 28.8011C11.8656 33.4372 16.5371 37.0982 21.8734 39.6777C23.9123 40.6439 26.6336 41.7875 29.6741 41.9825C29.8603 41.9913 30.0553 42.0002 30.2326 42.0002C32.2802 42.0002 33.9999 41.2645 35.3473 39.8018C35.3562 39.7841 35.3739 39.7752 35.3828 39.7575C35.8437 39.1991 36.3756 38.6938 36.934 38.1531C37.3152 37.7896 37.7052 37.4084 38.0864 37.0095C38.964 36.0965 39.4249 35.0328 39.4249 33.9425C39.4249 32.8433 38.9551 31.7884 38.0598 30.902L33.1933 26.0177ZM36.3667 35.3519C36.3579 35.3519 36.3579 35.3608 36.3667 35.3519C36.021 35.7242 35.6664 36.0611 35.2853 36.4334C34.7091 36.983 34.124 37.5591 33.5744 38.2062C32.6791 39.1636 31.6243 39.6157 30.2414 39.6157C30.1085 39.6157 29.9666 39.6157 29.8337 39.6068C27.2009 39.4384 24.7544 38.4101 22.9194 37.5325C17.9022 35.1037 13.4966 31.6555 9.83561 27.2853C6.81285 23.642 4.79177 20.2736 3.45325 16.6569C2.62886 14.4497 2.32747 12.73 2.46044 11.1078C2.54908 10.0707 2.94798 9.21082 3.68372 8.47508L6.70648 5.45232C7.14084 5.04456 7.60178 4.82295 8.05387 4.82295C8.61232 4.82295 9.06441 5.1598 9.34807 5.44346C9.35693 5.45232 9.3658 5.46119 9.37466 5.47005C9.91539 5.97532 10.4295 6.49832 10.9703 7.05678C11.245 7.34044 11.5287 7.6241 11.8124 7.91662L14.2323 10.3366C15.172 11.2762 15.172 12.1449 14.2323 13.0846C13.9753 13.3416 13.7271 13.5987 13.47 13.8469C12.7254 14.6092 12.0162 15.3184 11.245 16.0098C11.2273 16.0275 11.2096 16.0364 11.2007 16.0541C10.4384 16.8165 10.5802 17.5611 10.7398 18.0663C10.7486 18.0929 10.7575 18.1195 10.7664 18.1461C11.3957 19.6708 12.2822 21.1068 13.6296 22.8177L13.6384 22.8265C16.085 25.8404 18.6645 28.1895 21.51 29.989C21.8734 30.2194 22.2458 30.4056 22.6003 30.5829C22.9194 30.7424 23.2208 30.8931 23.4779 31.0527C23.5134 31.0704 23.5488 31.097 23.5843 31.1147C23.8857 31.2654 24.1693 31.3363 24.4618 31.3363C25.1976 31.3363 25.6585 30.8754 25.8092 30.7247L28.8409 27.6931C29.1422 27.3917 29.6209 27.0282 30.1794 27.0282C30.729 27.0282 31.1811 27.374 31.4558 27.6753C31.4647 27.6842 31.4647 27.6842 31.4736 27.6931L36.3579 32.5774C37.2709 33.4815 37.2709 34.4123 36.3667 35.3519Z" fill="#0C1E41"/>
<path d="M22.6978 9.99089C25.0203 10.3809 27.13 11.4801 28.8142 13.1643C30.4985 14.8486 31.5888 16.9583 31.9877 19.2808C32.0852 19.8658 32.5905 20.2736 33.1666 20.2736C33.2376 20.2736 33.2996 20.2647 33.3705 20.2559C34.0265 20.1495 34.4608 19.529 34.3545 18.873C33.8758 16.063 32.5461 13.5012 30.5162 11.4712C28.4862 9.4413 25.9244 8.11164 23.1144 7.63296C22.4585 7.52659 21.8468 7.96095 21.7316 8.60805C21.6163 9.25515 22.0418 9.88452 22.6978 9.99089Z" fill="#0C1E41"/>
<path d="M41.9513 18.5272C41.1623 13.9 38.9817 9.68941 35.631 6.33867C32.2802 2.98794 28.0696 0.807297 23.4424 0.0183663C22.7953 -0.0968707 22.1837 0.346349 22.0684 0.993449C21.9621 1.64941 22.3964 2.26106 23.0524 2.37629C27.1832 3.07658 30.9506 5.03561 33.9467 8.02291C36.9429 11.0191 38.8931 14.7864 39.5933 18.9172C39.6908 19.5023 40.1961 19.9101 40.7723 19.9101C40.8432 19.9101 40.9053 19.9012 40.9762 19.8923C41.6233 19.7948 42.0665 19.1743 41.9513 18.5272Z" fill="#0C1E41"/>
</g>
<defs>
<clipPath id="clip0">
<rect width="42" height="42" fill="white"/>
</clipPath>
</defs>
</svg>
