<svg width="42" height="42" viewBox="0 0 42 42" fill="none" xmlns="http://www.w3.org/2000/svg">
<path d="M34.6963 16.6468C34.5445 16.3749 34.3229 16.1484 34.0544 15.9908C33.7859 15.8331 33.4802 15.75 33.1688 15.7499H22.7042L24.4964 2.05614C24.5486 1.65886 24.4629 1.2557 24.2536 0.91402C24.0443 0.572336 23.7241 0.312825 23.3465 0.178848C22.9689 0.0448709 22.5567 0.0445422 22.1788 0.177917C21.801 0.311292 21.4804 0.570292 21.2705 0.911641L7.33002 23.5833C7.16699 23.8485 7.07763 24.1524 7.07118 24.4636C7.06472 24.7748 7.1414 25.0821 7.29331 25.3539C7.44521 25.6256 7.66684 25.8518 7.93535 26.0094C8.20386 26.1669 8.50951 26.2499 8.82081 26.2499H19.1134L17.5028 39.9655C17.4562 40.3615 17.5463 40.7615 17.7581 41.0993C17.9698 41.4371 18.2906 41.6925 18.6673 41.8231C19.0439 41.9538 19.4539 41.9519 19.8294 41.8178C20.2049 41.6837 20.5233 41.4255 20.732 41.0857L34.66 18.4167C34.8229 18.1515 34.9121 17.8478 34.9185 17.5366C34.9248 17.2255 34.8482 16.9184 34.6963 16.6468ZM21.9047 32.4915L22.8191 24.7051C22.848 24.4597 22.8247 24.2109 22.7506 23.9751C22.6765 23.7393 22.5533 23.522 22.3891 23.3372C22.2249 23.1525 22.0234 23.0047 21.798 22.9035C21.5726 22.8022 21.3282 22.7499 21.0811 22.7499H11.9513L19.9637 9.71917L18.9752 17.2728C18.9429 17.5197 18.9636 17.7706 19.036 18.0089C19.1084 18.2471 19.2309 18.4671 19.3951 18.6542C19.5593 18.8414 19.7616 18.9913 19.9884 19.094C20.2152 19.1967 20.4613 19.2499 20.7103 19.2499H30.0398L21.9047 32.4915Z" fill="#0C1E41"/>
</svg>
