<svg width="42" height="42" viewBox="0 0 42 42" fill="none" xmlns="http://www.w3.org/2000/svg">
<g clip-path="url(#clip0)">
<path d="M5.62747 42H32.2274C33.387 42 34.3272 41.0598 34.3272 39.8999V6.99989H37.1275C37.9007 6.99989 38.5275 6.37312 38.5275 5.59991V3.50011C38.5249 1.56789 36.9592 0.00224305 35.0273 0H5.62747C4.4675 0 3.52734 0.940155 3.52734 2.10013V39.8999C3.52734 41.0598 4.4675 42 5.62747 42ZM35.0273 1.39998C36.187 1.39998 37.1275 2.34013 37.1275 3.50011V5.59991H9.12726V3.50011C9.12469 2.74004 8.87251 2.0024 8.40916 1.39998H35.0273ZM4.92732 2.10013C4.92732 1.71336 5.24071 1.39998 5.62747 1.39998C6.78712 1.39998 7.72728 2.34013 7.72728 3.50011V5.59991C7.72728 6.37312 8.35405 6.99989 9.12726 6.99989H32.9272V39.8999C32.9272 40.2866 32.6138 40.6 32.2274 40.6H5.62747C5.24071 40.6 4.92732 40.2866 4.92732 39.8999V2.10013Z" fill="#0C1E41"/>
<path d="M9.12721 17.4999H13.3271C14.1003 17.4999 14.7274 16.8731 14.7274 16.0999V15.4001C14.7274 15.0133 14.4137 14.6999 14.0273 14.6999C13.6408 14.6999 13.3271 15.0133 13.3271 15.4001V16.0999H9.12721V11.9H11.2273C11.6138 11.9 11.9272 11.5866 11.9272 11.2001C11.9272 10.8134 11.6138 10.5 11.2273 10.5H9.12721C8.354 10.5 7.72723 11.1268 7.72723 11.9V16.0999C7.72723 16.8731 8.354 17.4999 9.12721 17.4999Z" fill="#0C1E41"/>
<path d="M9.12721 27.3001H13.3271C14.1003 27.3001 14.7274 26.6733 14.7274 25.9001V21.7002C14.7274 20.927 14.1003 20.2999 13.3271 20.2999H9.12721C8.354 20.2999 7.72723 20.927 7.72723 21.7002V25.9001C7.72723 26.6733 8.354 27.3001 9.12721 27.3001ZM9.12721 21.7002H13.3271V25.9001H9.12721V21.7002Z" fill="#0C1E41"/>
<path d="M9.12721 37.1H13.3271C14.1003 37.1 14.7274 36.4732 14.7274 35.7V31.5001C14.7274 30.7269 14.1003 30.1001 13.3271 30.1001H9.12721C8.354 30.1001 7.72723 30.7269 7.72723 31.5001V35.7C7.72723 36.4732 8.354 37.1 9.12721 37.1ZM9.12721 31.5001H13.3271V35.7H9.12721V31.5001Z" fill="#0C1E41"/>
<path d="M17.5274 13.2999H21.0271C21.4139 13.2999 21.7273 12.9866 21.7273 12.6001C21.7273 12.2133 21.4139 11.9 21.0271 11.9H17.5274C17.1406 11.9 16.8272 12.2133 16.8272 12.6001C16.8272 12.9866 17.1406 13.2999 17.5274 13.2999Z" fill="#0C1E41"/>
<path d="M23.8272 13.2999H30.8275C31.2139 13.2999 31.5273 12.9866 31.5273 12.6001C31.5273 12.2133 31.2139 11.9 30.8275 11.9H23.8272C23.4408 11.9 23.1274 12.2133 23.1274 12.6001C23.1274 12.9866 23.4408 13.2999 23.8272 13.2999Z" fill="#0C1E41"/>
<path d="M17.5274 16.0999H24.5273C24.9137 16.0999 25.2274 15.7865 25.2274 15.4001C25.2274 15.0133 24.9137 14.7 24.5273 14.7H17.5274C17.1406 14.7 16.8272 15.0133 16.8272 15.4001C16.8272 15.7865 17.1406 16.0999 17.5274 16.0999Z" fill="#0C1E41"/>
<path d="M30.8275 14.7H27.3274C26.941 14.7 26.6276 15.0133 26.6276 15.4001C26.6276 15.7865 26.941 16.0999 27.3274 16.0999H30.8275C31.214 16.0999 31.5273 15.7865 31.5273 15.4001C31.5273 15.0133 31.214 14.7 30.8275 14.7Z" fill="#0C1E41"/>
<path d="M17.5274 23.1001H21.0271C21.4139 23.1001 21.7273 22.7867 21.7273 22.4C21.7273 22.0135 21.4139 21.7001 21.0271 21.7001H17.5274C17.1406 21.7001 16.8272 22.0135 16.8272 22.4C16.8272 22.7867 17.1406 23.1001 17.5274 23.1001Z" fill="#0C1E41"/>
<path d="M30.8275 21.7001H23.8272C23.4408 21.7001 23.1274 22.0135 23.1274 22.4C23.1274 22.7867 23.4408 23.1001 23.8272 23.1001H30.8275C31.2139 23.1001 31.5273 22.7867 31.5273 22.4C31.5273 22.0135 31.2139 21.7001 30.8275 21.7001Z" fill="#0C1E41"/>
<path d="M17.5274 25.9001H24.5273C24.9137 25.9001 25.2274 25.5867 25.2274 25.2C25.2274 24.8135 24.9137 24.5001 24.5273 24.5001H17.5274C17.1406 24.5001 16.8272 24.8135 16.8272 25.2C16.8272 25.5867 17.1406 25.9001 17.5274 25.9001Z" fill="#0C1E41"/>
<path d="M30.8275 24.5001H27.3274C26.941 24.5001 26.6276 24.8135 26.6276 25.2C26.6276 25.5867 26.941 25.9001 27.3274 25.9001H30.8275C31.214 25.9001 31.5273 25.5867 31.5273 25.2C31.5273 24.8135 31.214 24.5001 30.8275 24.5001Z" fill="#0C1E41"/>
<path d="M17.5274 32.9H21.0271C21.4139 32.9 21.7273 32.5866 21.7273 32.2001C21.7273 31.8134 21.4139 31.5 21.0271 31.5H17.5274C17.1406 31.5 16.8272 31.8134 16.8272 32.2001C16.8272 32.5866 17.1406 32.9 17.5274 32.9Z" fill="#0C1E41"/>
<path d="M30.8275 31.5H23.8272C23.4408 31.5 23.1274 31.8134 23.1274 32.2001C23.1274 32.5866 23.4408 32.9 23.8272 32.9H30.8275C31.2139 32.9 31.5273 32.5866 31.5273 32.2001C31.5273 31.8134 31.2139 31.5 30.8275 31.5Z" fill="#0C1E41"/>
<path d="M17.5274 35.7H24.5273C24.9137 35.7 25.2274 35.3866 25.2274 35.0001C25.2274 34.6134 24.9137 34.3 24.5273 34.3H17.5274C17.1406 34.3 16.8272 34.6134 16.8272 35.0001C16.8272 35.3866 17.1406 35.7 17.5274 35.7Z" fill="#0C1E41"/>
<path d="M30.8275 34.3H27.3274C26.941 34.3 26.6276 34.6134 26.6276 35.0001C26.6276 35.3866 26.941 35.7 27.3274 35.7H30.8275C31.214 35.7 31.5273 35.3866 31.5273 35.0001C31.5273 34.6134 31.214 34.3 30.8275 34.3Z" fill="#0C1E41"/>
<path d="M11.0222 12.8052C10.7476 12.5398 10.3109 12.5437 10.0407 12.8135C9.77093 13.0836 9.76709 13.5201 10.0324 13.795L11.4324 15.195C11.5638 15.326 11.7416 15.4 11.9271 15.4H11.9855C12.1905 15.3827 12.3777 15.2764 12.4972 15.1088L15.997 10.2087C16.1425 10.0052 16.1681 9.73957 16.0643 9.51206C15.9608 9.28423 15.7435 9.12914 15.4945 9.10511C15.2456 9.08108 15.0027 9.19195 14.8575 9.39542L11.8384 13.6226L11.0222 12.8052Z" fill="#0C1E41"/>
</g>
<defs>
<clipPath id="clip0">
<rect width="42" height="42" fill="white"/>
</clipPath>
</defs>
</svg>
