<svg width="42" height="42" viewBox="0 0 42 42" fill="none" xmlns="http://www.w3.org/2000/svg">
<path d="M25.3095 7.07927C25.9834 7.07927 26.5297 6.52619 26.5297 5.84398V5.49958C26.5297 4.81736 25.9834 4.26428 25.3095 4.26428C24.6356 4.26428 24.0893 4.81736 24.0893 5.49958V5.84398C24.0893 6.52619 24.6356 7.07927 25.3095 7.07927Z" fill="#0C1E41"/>
<path d="M28.8385 7.07927C29.5124 7.07927 30.0587 6.52619 30.0587 5.84398V5.49958C30.0587 4.81736 29.5124 4.26428 28.8385 4.26428C28.1646 4.26428 27.6183 4.81736 27.6183 5.49958V5.84398C27.6183 6.52619 28.1646 7.07927 28.8385 7.07927Z" fill="#0C1E41"/>
<path d="M23.0636 36.1688H19.4459C18.7721 36.1688 18.2257 36.7219 18.2257 37.4041C18.2257 38.0863 18.772 38.6394 19.4459 38.6394H23.0636C23.7375 38.6394 24.2838 38.0863 24.2838 37.4041C24.2838 36.7219 23.7375 36.1688 23.0636 36.1688Z" fill="#0C1E41"/>
<path d="M15.4711 11.6915C15.4711 11.0093 14.9248 10.4562 14.2509 10.4562H5.86444C5.19059 10.4562 4.64423 11.0093 4.64423 11.6915C4.64423 12.3737 5.19051 12.9268 5.86444 12.9268H14.2509C14.9248 12.9268 15.4711 12.3737 15.4711 11.6915Z" fill="#0C1E41"/>
<path d="M40.7796 16.0588H34.1261V3.626C34.1261 1.62664 32.5189 0 30.5436 0H11.9657C9.99028 0 8.38323 1.62655 8.38323 3.626V6.45071H1.72992C1.05599 6.45071 0.509705 7.00379 0.509705 7.686V16.0308C0.509705 16.713 1.05599 17.2661 1.72992 17.2661H8.38323V38.374C8.38323 40.3868 10.0066 42 11.9655 42H11.9657H30.5436H30.5438C32.4999 42 34.1261 40.3895 34.1261 38.374V27.5563H40.7796C41.4535 27.5563 41.9998 27.0032 41.9998 26.321V17.2941C41.9998 16.6119 41.4536 16.0588 40.7796 16.0588ZM2.95014 8.9213H17.4355V16.3261L15.3439 14.9868C15.1487 14.8619 14.9226 14.7955 14.6917 14.7955C14.2802 14.7955 3.76806 14.7955 2.95014 14.7955V8.9213ZM11.9657 39.5294C11.349 39.5294 10.824 39.0203 10.824 38.3738V35.2789H31.6854V38.3738C31.6854 39.0201 31.1606 39.5294 30.5437 39.5294H11.9657ZM31.6857 32.8083H10.8236V17.2661H14.3381L18.0033 19.6129C18.8143 20.1322 19.8758 19.541 19.8758 18.5689V7.686C19.8758 7.00379 19.3295 6.45071 18.6555 6.45071H10.8235V3.626C10.8235 2.98892 11.3359 2.47059 11.9656 2.47059H30.5435C31.1733 2.47059 31.6856 2.98884 31.6856 3.626V16.0588H23.4636C22.7897 16.0588 22.2434 16.6119 22.2434 17.2941V29.6464C22.2434 30.7179 23.496 31.2725 24.2759 30.5682L27.6106 27.5563H31.6857V32.8083ZM39.5595 25.0857H32.9091C32.9081 25.0857 32.907 25.0855 32.9059 25.0855C32.9049 25.0855 32.9038 25.0857 32.9028 25.0857H27.1454C26.8458 25.0857 26.5566 25.1973 26.3331 25.3992L24.6838 26.8888V18.5294H39.5594V25.0857H39.5595Z" fill="#0C1E41"/>
<path d="M32.4962 21.8648C32.4962 22.547 33.0424 23.1001 33.7164 23.1001H37.1885C37.8624 23.1001 38.4087 22.547 38.4087 21.8648C38.4087 21.1826 37.8624 20.6295 37.1885 20.6295H33.7164C33.0424 20.6295 32.4962 21.1826 32.4962 21.8648Z" fill="#0C1E41"/>
<path d="M29.8543 20.6295H27.1973C26.5234 20.6295 25.9771 21.1826 25.9771 21.8648C25.9771 22.547 26.5234 23.1001 27.1973 23.1001H29.8543C30.5282 23.1001 31.0745 22.547 31.0745 21.8648C31.0745 21.1826 30.5282 20.6295 29.8543 20.6295Z" fill="#0C1E41"/>
</svg>
