<svg width="51" height="51" viewBox="0 0 51 51" fill="none" xmlns="http://www.w3.org/2000/svg">
<g clip-path="url(#clip0)">
<mask id="path-1-outside-1" maskUnits="userSpaceOnUse" x="-1" y="0.996094" width="53" height="49" fill="black">
<rect fill="white" x="-1" y="0.996094" width="53" height="49"/>
<path d="M50.2515 47.5069H48.6047V26.6478H50.2515C50.5247 26.6478 50.7762 26.4989 50.9077 26.2594C51.0391 26.0199 51.0297 25.7278 50.8831 25.4973L45.294 16.7145C45.1566 16.4986 44.9184 16.3678 44.6624 16.3678H29.8022L26.2486 12.8143V9.88063H33.4844C33.7604 9.88063 34.0141 9.72873 34.1444 9.48531C34.2746 9.24199 34.2603 8.94657 34.1071 8.71692L32.7871 6.7368L34.1072 4.75668C34.2604 4.52703 34.2746 4.23161 34.1445 3.98829C34.0141 3.74486 33.7604 3.59296 33.4844 3.59296H26.2486V2.74463C26.2486 2.33124 25.9134 1.99609 25.5 1.99609C25.0866 1.99609 24.7515 2.33124 24.7515 2.74463V12.8143L21.1979 16.3679H6.33759C6.08169 16.3679 5.84346 16.4987 5.70603 16.7146L0.116989 25.4974C-0.0296234 25.7279 -0.0391049 26.02 0.0923374 26.2595C0.22388 26.4989 0.475386 26.6478 0.748551 26.6478H2.39532V47.5069H0.748551C0.335161 47.5069 1.84402e-05 47.842 1.84402e-05 48.2554C1.84402e-05 48.6688 0.335161 49.0039 0.748551 49.0039H50.2515C50.6649 49.0039 51 48.6688 51 48.2554C51 47.842 50.6649 47.5069 50.2515 47.5069ZM44.2516 17.865L48.888 25.1507H38.585L31.2992 17.865H44.2516ZM32.0857 5.09003L31.2646 6.32161C31.0969 6.57302 31.0969 6.90058 31.2646 7.15198L32.0857 8.38357H26.2486V5.09003H32.0857ZM6.74849 17.865H19.7007L12.415 25.1507H2.11218L6.74849 17.865ZM3.89239 26.6478H12.7249C12.7496 26.6478 12.7744 26.6465 12.7991 26.644C12.8097 26.643 12.8201 26.641 12.8306 26.6395C12.8442 26.6375 12.8579 26.6359 12.8716 26.6332C12.8838 26.6308 12.8955 26.6274 12.9075 26.6244C12.9192 26.6215 12.931 26.6188 12.9425 26.6154C12.9543 26.6118 12.9658 26.6073 12.9774 26.6032C12.9889 26.5992 13.0003 26.5954 13.0117 26.5907C13.0226 26.5862 13.033 26.5809 13.0435 26.5759C13.055 26.5704 13.0667 26.5653 13.078 26.5592C13.0883 26.5537 13.0979 26.5475 13.1079 26.5416C13.1189 26.5351 13.1301 26.5288 13.1408 26.5216C13.1519 26.5141 13.1624 26.5058 13.1731 26.4978C13.1819 26.4912 13.191 26.4851 13.1994 26.478C13.2186 26.4623 13.237 26.4458 13.2544 26.4282L25.5 14.1828L37.7456 26.4283C37.7631 26.4458 37.7815 26.4623 37.8006 26.4781C37.8091 26.4851 37.8181 26.4912 37.8269 26.4978C37.8376 26.5058 37.8482 26.5142 37.8594 26.5217C37.87 26.5288 37.881 26.535 37.8919 26.5415C37.902 26.5476 37.9118 26.5538 37.9222 26.5593C37.9333 26.5653 37.9448 26.5704 37.9563 26.5758C37.967 26.5809 37.9776 26.5862 37.9885 26.5908C37.9997 26.5954 38.0111 26.5991 38.0224 26.6031C38.034 26.6073 38.0456 26.6118 38.0576 26.6155C38.069 26.619 38.0806 26.6215 38.092 26.6244C38.1042 26.6275 38.1162 26.6309 38.1286 26.6333C38.1417 26.6359 38.155 26.6375 38.1683 26.6394C38.1792 26.641 38.1899 26.643 38.201 26.6441C38.2256 26.6465 38.2502 26.6478 38.2749 26.6478H47.1077V47.5069H31.0392V37.0773C31.0392 35.784 29.987 34.7319 28.6938 34.7319H22.3063C21.013 34.7319 19.9609 35.784 19.9609 37.0773V47.5069H3.89239V26.6478ZM29.5421 37.9256H21.4579V37.0773C21.4579 36.6095 21.8385 36.229 22.3063 36.229H28.6938C29.1615 36.229 29.5421 36.6095 29.5421 37.0773V37.9256ZM21.4579 39.4227H24.7515V47.5069H21.4579V39.4227ZM26.2486 39.4227H29.5421V47.5069H26.2486V39.4227Z"/>
</mask>
<path d="M50.2515 47.5069H48.6047V26.6478H50.2515C50.5247 26.6478 50.7762 26.4989 50.9077 26.2594C51.0391 26.0199 51.0297 25.7278 50.8831 25.4973L45.294 16.7145C45.1566 16.4986 44.9184 16.3678 44.6624 16.3678H29.8022L26.2486 12.8143V9.88063H33.4844C33.7604 9.88063 34.0141 9.72873 34.1444 9.48531C34.2746 9.24199 34.2603 8.94657 34.1071 8.71692L32.7871 6.7368L34.1072 4.75668C34.2604 4.52703 34.2746 4.23161 34.1445 3.98829C34.0141 3.74486 33.7604 3.59296 33.4844 3.59296H26.2486V2.74463C26.2486 2.33124 25.9134 1.99609 25.5 1.99609C25.0866 1.99609 24.7515 2.33124 24.7515 2.74463V12.8143L21.1979 16.3679H6.33759C6.08169 16.3679 5.84346 16.4987 5.70603 16.7146L0.116989 25.4974C-0.0296234 25.7279 -0.0391049 26.02 0.0923374 26.2595C0.22388 26.4989 0.475386 26.6478 0.748551 26.6478H2.39532V47.5069H0.748551C0.335161 47.5069 1.84402e-05 47.842 1.84402e-05 48.2554C1.84402e-05 48.6688 0.335161 49.0039 0.748551 49.0039H50.2515C50.6649 49.0039 51 48.6688 51 48.2554C51 47.842 50.6649 47.5069 50.2515 47.5069ZM44.2516 17.865L48.888 25.1507H38.585L31.2992 17.865H44.2516ZM32.0857 5.09003L31.2646 6.32161C31.0969 6.57302 31.0969 6.90058 31.2646 7.15198L32.0857 8.38357H26.2486V5.09003H32.0857ZM6.74849 17.865H19.7007L12.415 25.1507H2.11218L6.74849 17.865ZM3.89239 26.6478H12.7249C12.7496 26.6478 12.7744 26.6465 12.7991 26.644C12.8097 26.643 12.8201 26.641 12.8306 26.6395C12.8442 26.6375 12.8579 26.6359 12.8716 26.6332C12.8838 26.6308 12.8955 26.6274 12.9075 26.6244C12.9192 26.6215 12.931 26.6188 12.9425 26.6154C12.9543 26.6118 12.9658 26.6073 12.9774 26.6032C12.9889 26.5992 13.0003 26.5954 13.0117 26.5907C13.0226 26.5862 13.033 26.5809 13.0435 26.5759C13.055 26.5704 13.0667 26.5653 13.078 26.5592C13.0883 26.5537 13.0979 26.5475 13.1079 26.5416C13.1189 26.5351 13.1301 26.5288 13.1408 26.5216C13.1519 26.5141 13.1624 26.5058 13.1731 26.4978C13.1819 26.4912 13.191 26.4851 13.1994 26.478C13.2186 26.4623 13.237 26.4458 13.2544 26.4282L25.5 14.1828L37.7456 26.4283C37.7631 26.4458 37.7815 26.4623 37.8006 26.4781C37.8091 26.4851 37.8181 26.4912 37.8269 26.4978C37.8376 26.5058 37.8482 26.5142 37.8594 26.5217C37.87 26.5288 37.881 26.535 37.8919 26.5415C37.902 26.5476 37.9118 26.5538 37.9222 26.5593C37.9333 26.5653 37.9448 26.5704 37.9563 26.5758C37.967 26.5809 37.9776 26.5862 37.9885 26.5908C37.9997 26.5954 38.0111 26.5991 38.0224 26.6031C38.034 26.6073 38.0456 26.6118 38.0576 26.6155C38.069 26.619 38.0806 26.6215 38.092 26.6244C38.1042 26.6275 38.1162 26.6309 38.1286 26.6333C38.1417 26.6359 38.155 26.6375 38.1683 26.6394C38.1792 26.641 38.1899 26.643 38.201 26.6441C38.2256 26.6465 38.2502 26.6478 38.2749 26.6478H47.1077V47.5069H31.0392V37.0773C31.0392 35.784 29.987 34.7319 28.6938 34.7319H22.3063C21.013 34.7319 19.9609 35.784 19.9609 37.0773V47.5069H3.89239V26.6478ZM29.5421 37.9256H21.4579V37.0773C21.4579 36.6095 21.8385 36.229 22.3063 36.229H28.6938C29.1615 36.229 29.5421 36.6095 29.5421 37.0773V37.9256ZM21.4579 39.4227H24.7515V47.5069H21.4579V39.4227ZM26.2486 39.4227H29.5421V47.5069H26.2486V39.4227Z" fill="#0C1E41"/>
<path d="M50.2515 47.5069H48.6047V26.6478H50.2515C50.5247 26.6478 50.7762 26.4989 50.9077 26.2594C51.0391 26.0199 51.0297 25.7278 50.8831 25.4973L45.294 16.7145C45.1566 16.4986 44.9184 16.3678 44.6624 16.3678H29.8022L26.2486 12.8143V9.88063H33.4844C33.7604 9.88063 34.0141 9.72873 34.1444 9.48531C34.2746 9.24199 34.2603 8.94657 34.1071 8.71692L32.7871 6.7368L34.1072 4.75668C34.2604 4.52703 34.2746 4.23161 34.1445 3.98829C34.0141 3.74486 33.7604 3.59296 33.4844 3.59296H26.2486V2.74463C26.2486 2.33124 25.9134 1.99609 25.5 1.99609C25.0866 1.99609 24.7515 2.33124 24.7515 2.74463V12.8143L21.1979 16.3679H6.33759C6.08169 16.3679 5.84346 16.4987 5.70603 16.7146L0.116989 25.4974C-0.0296234 25.7279 -0.0391049 26.02 0.0923374 26.2595C0.22388 26.4989 0.475386 26.6478 0.748551 26.6478H2.39532V47.5069H0.748551C0.335161 47.5069 1.84402e-05 47.842 1.84402e-05 48.2554C1.84402e-05 48.6688 0.335161 49.0039 0.748551 49.0039H50.2515C50.6649 49.0039 51 48.6688 51 48.2554C51 47.842 50.6649 47.5069 50.2515 47.5069ZM44.2516 17.865L48.888 25.1507H38.585L31.2992 17.865H44.2516ZM32.0857 5.09003L31.2646 6.32161C31.0969 6.57302 31.0969 6.90058 31.2646 7.15198L32.0857 8.38357H26.2486V5.09003H32.0857ZM6.74849 17.865H19.7007L12.415 25.1507H2.11218L6.74849 17.865ZM3.89239 26.6478H12.7249C12.7496 26.6478 12.7744 26.6465 12.7991 26.644C12.8097 26.643 12.8201 26.641 12.8306 26.6395C12.8442 26.6375 12.8579 26.6359 12.8716 26.6332C12.8838 26.6308 12.8955 26.6274 12.9075 26.6244C12.9192 26.6215 12.931 26.6188 12.9425 26.6154C12.9543 26.6118 12.9658 26.6073 12.9774 26.6032C12.9889 26.5992 13.0003 26.5954 13.0117 26.5907C13.0226 26.5862 13.033 26.5809 13.0435 26.5759C13.055 26.5704 13.0667 26.5653 13.078 26.5592C13.0883 26.5537 13.0979 26.5475 13.1079 26.5416C13.1189 26.5351 13.1301 26.5288 13.1408 26.5216C13.1519 26.5141 13.1624 26.5058 13.1731 26.4978C13.1819 26.4912 13.191 26.4851 13.1994 26.478C13.2186 26.4623 13.237 26.4458 13.2544 26.4282L25.5 14.1828L37.7456 26.4283C37.7631 26.4458 37.7815 26.4623 37.8006 26.4781C37.8091 26.4851 37.8181 26.4912 37.8269 26.4978C37.8376 26.5058 37.8482 26.5142 37.8594 26.5217C37.87 26.5288 37.881 26.535 37.8919 26.5415C37.902 26.5476 37.9118 26.5538 37.9222 26.5593C37.9333 26.5653 37.9448 26.5704 37.9563 26.5758C37.967 26.5809 37.9776 26.5862 37.9885 26.5908C37.9997 26.5954 38.0111 26.5991 38.0224 26.6031C38.034 26.6073 38.0456 26.6118 38.0576 26.6155C38.069 26.619 38.0806 26.6215 38.092 26.6244C38.1042 26.6275 38.1162 26.6309 38.1286 26.6333C38.1417 26.6359 38.155 26.6375 38.1683 26.6394C38.1792 26.641 38.1899 26.643 38.201 26.6441C38.2256 26.6465 38.2502 26.6478 38.2749 26.6478H47.1077V47.5069H31.0392V37.0773C31.0392 35.784 29.987 34.7319 28.6938 34.7319H22.3063C21.013 34.7319 19.9609 35.784 19.9609 37.0773V47.5069H3.89239V26.6478ZM29.5421 37.9256H21.4579V37.0773C21.4579 36.6095 21.8385 36.229 22.3063 36.229H28.6938C29.1615 36.229 29.5421 36.6095 29.5421 37.0773V37.9256ZM21.4579 39.4227H24.7515V47.5069H21.4579V39.4227ZM26.2486 39.4227H29.5421V47.5069H26.2486V39.4227Z" stroke="#345BA9" stroke-width="0.4" mask="url(#path-1-outside-1)"/>
<path d="M25.5001 32.3368C28.6096 32.3368 31.1392 29.8072 31.1392 26.6976C31.1392 23.5881 28.6096 21.0585 25.5001 21.0585C22.3905 21.0585 19.8609 23.5881 19.8609 26.6976C19.8609 29.8072 22.3905 32.3368 25.5001 32.3368ZM25.5001 22.7556C27.6737 22.7556 29.4422 24.524 29.4422 26.6976C29.4422 28.8712 27.6737 30.6397 25.5001 30.6397C23.3265 30.6397 21.558 28.8712 21.558 26.6976C21.558 24.524 23.3265 22.7556 25.5001 22.7556Z" fill="#0C1E41" stroke="#345BA9" stroke-width="0.2"/>
<path d="M25.5 27.5462C25.9687 27.5462 26.3486 27.1663 26.3486 26.6977V24.3024C26.3486 23.8337 25.9687 23.4538 25.5 23.4538C25.0314 23.4538 24.6515 23.8337 24.6515 24.3024V25.8491H23.1047C22.6361 25.8491 22.2562 26.229 22.2562 26.6977C22.2562 27.1663 22.6361 27.5462 23.1047 27.5462H25.5Z" fill="#0C1E41" stroke="#345BA9" stroke-width="0.2"/>
<path d="M17.5156 38.6241H13.5234C13.0548 38.6241 12.6749 39.004 12.6749 39.4726V44.2632C12.6749 44.7318 13.0548 45.1117 13.5234 45.1117H17.5156C17.9842 45.1117 18.3641 44.7318 18.3641 44.2632V39.4726C18.3641 39.004 17.9842 38.6241 17.5156 38.6241ZM16.6671 40.3211V41.0194H14.372V40.3211H16.6671ZM14.372 43.4147V42.7164H16.6671V43.4147H14.372Z" fill="#0C1E41" stroke="#345BA9" stroke-width="0.2"/>
<path d="M10.3298 38.6241H6.33764C5.86903 38.6241 5.48911 39.004 5.48911 39.4726V44.2632C5.48911 44.7318 5.86903 45.1117 6.33764 45.1117H10.3298C10.7984 45.1117 11.1783 44.7318 11.1783 44.2632V39.4726C11.1783 39.004 10.7984 38.6241 10.3298 38.6241ZM9.48128 40.3211V41.0194H7.18618V40.3211H9.48128ZM7.18618 43.4147V42.7164H9.48128V43.4147H7.18618Z" fill="#0C1E41" stroke="#345BA9" stroke-width="0.2"/>
<path d="M17.2661 29.0429H13.7729C13.1674 29.0429 12.6749 29.5354 12.6749 30.1409V35.4805C12.6749 35.9491 13.0548 36.329 13.5234 36.329H17.5156C17.9842 36.329 18.3641 35.9491 18.3641 35.4805V30.1409C18.3641 29.5354 17.8716 29.0429 17.2661 29.0429ZM16.6671 30.7399V32.2366H14.372V30.7399H16.6671ZM14.372 34.6319V33.9337H16.6671V34.6319H14.372Z" fill="#0C1E41" stroke="#345BA9" stroke-width="0.2"/>
<path d="M10.0803 29.0429H6.58715C5.98161 29.0429 5.48911 29.5354 5.48911 30.1409V35.4805C5.48911 35.9491 5.86903 36.329 6.33764 36.329H10.3298C10.7984 36.329 11.1783 35.9491 11.1783 35.4805V30.1409C11.1783 29.5354 10.6859 29.0429 10.0803 29.0429ZM9.48128 30.7399V32.2366H7.18618V30.7399H9.48128ZM7.18618 34.6319V33.9337H9.48128V34.6319H7.18618Z" fill="#0C1E41" stroke="#345BA9" stroke-width="0.2"/>
<path d="M40.6702 45.1117H44.6623C45.1309 45.1117 45.5109 44.7318 45.5109 44.2632V39.4726C45.5109 39.004 45.1309 38.6241 44.6623 38.6241H40.6702C40.2015 38.6241 39.8216 39.004 39.8216 39.4726V44.2632C39.8216 44.7318 40.2015 45.1117 40.6702 45.1117ZM41.5187 43.4147V42.7164H43.8138V43.4147H41.5187ZM43.8138 40.3211V41.0194H41.5187V40.3211H43.8138Z" fill="#0C1E41" stroke="#345BA9" stroke-width="0.2"/>
<path d="M33.4844 45.1117H37.4765C37.9452 45.1117 38.3251 44.7318 38.3251 44.2632V39.4726C38.3251 39.004 37.9452 38.6241 37.4765 38.6241H33.4844C33.0158 38.6241 32.6358 39.004 32.6358 39.4726V44.2632C32.6358 44.7318 33.0158 45.1117 33.4844 45.1117ZM34.3329 43.4147V42.7164H36.628V43.4147H34.3329ZM36.628 40.3211V41.0194H34.3329V40.3211H36.628Z" fill="#0C1E41" stroke="#345BA9" stroke-width="0.2"/>
<path d="M40.6702 36.329H44.6623C45.1309 36.329 45.5109 35.9491 45.5109 35.4805V30.1409C45.5109 29.5354 45.0184 29.0429 44.4128 29.0429H40.9197C40.3141 29.0429 39.8216 29.5354 39.8216 30.1409V35.4805C39.8216 35.9491 40.2015 36.329 40.6702 36.329ZM41.5187 34.6319V33.9337H43.8138V34.6319H41.5187ZM43.8138 30.7399V32.2366H41.5187V30.7399H43.8138Z" fill="#0C1E41" stroke="#345BA9" stroke-width="0.2"/>
<path d="M33.4844 36.329H37.4765C37.9452 36.329 38.3251 35.9491 38.3251 35.4805V30.1409C38.3251 29.5354 37.8326 29.0429 37.227 29.0429H33.7339C33.1283 29.0429 32.6358 29.5354 32.6358 30.1409V35.4805C32.6358 35.9491 33.0158 36.329 33.4844 36.329ZM34.3329 34.6319V33.9337H36.628V34.6319H34.3329ZM36.628 30.7399V32.2366H34.3329V30.7399H36.628Z" fill="#0C1E41" stroke="#345BA9" stroke-width="0.2"/>
</g>
<defs>
<clipPath id="clip0">
<rect width="51" height="51" fill="white"/>
</clipPath>
</defs>
</svg>
