<svg width="44" height="44" viewBox="0 0 44 44" fill="none" xmlns="http://www.w3.org/2000/svg">
<g clip-path="url(#clip0)">
<path fill-rule="evenodd" clip-rule="evenodd" d="M29.7168 43.7902C33.0161 43.7902 35.7037 41.173 35.9775 37.8707C35.9866 37.688 35.9881 37.5047 35.9819 37.3212L35.9097 35.197H35.9256L35.8288 32.6211H35.822L35.7589 30.763L35.4846 23.4715L35.5171 23.4928C35.4919 22.6758 35.4696 21.9272 35.449 21.2399C35.2431 14.3464 35.2212 13.6138 34.3558 11.7201V3.00521C34.3558 1.34814 33.0487 0 31.4421 0H28.8448C27.2382 0 25.9311 1.34814 25.9311 3.00521V6.18541C25.925 6.18537 25.9188 6.18526 25.9127 6.18516C25.9051 6.18502 25.8974 6.18489 25.8897 6.18489H16.8883C16.8806 6.18489 16.873 6.18502 16.8653 6.18516C16.8592 6.18526 16.8531 6.18537 16.8469 6.18541V3.00521C16.8469 1.34814 15.5398 0 13.9332 0H11.3359C9.72927 0 8.42218 1.34814 8.42218 3.00521V11.7202C7.56012 13.6066 7.53932 14.2963 7.32735 21.3208C7.30744 21.9808 7.28583 22.6969 7.26169 23.4749L7.2668 23.4715L7.2369 24.2665C7.21041 25.1045 7.18096 26.0096 7.14765 26.9885H7.13452L7.03764 29.5644H7.05982L6.95592 32.6211H6.92267L6.82578 35.197H6.86835L6.796 37.3215C6.78031 37.7845 6.81365 38.2479 6.89633 38.7031C7.51274 41.6022 10.018 43.7902 13.0347 43.7902H29.7168ZM28.4286 3.00521C28.4286 2.76848 28.6153 2.57589 28.8448 2.57589H31.4421C31.6716 2.57589 31.8583 2.76848 31.8583 3.00521V8.40351C30.8448 7.53543 29.6784 6.9064 28.4286 6.5444V3.00521ZM25.8896 8.76078C29.5151 8.76078 32.6112 11.7103 32.7431 15.5855L32.8623 19.0882H28.4282V18.4001C28.4282 17.6888 27.8691 17.1122 27.1795 17.1122C26.4899 17.1122 25.9308 17.6888 25.9308 18.4001V19.0882H16.8471V18.4001C16.8471 17.6888 16.288 17.1122 15.5984 17.1122C14.9087 17.1122 14.3496 17.6888 14.3496 18.4001V19.0882H9.91558L10.0348 15.5855C10.1651 11.7568 13.217 8.76078 16.8882 8.76078H25.8896ZM11.3359 2.57589H13.9332C14.1627 2.57589 14.3494 2.76848 14.3494 3.00521V6.5444C13.0995 6.9064 11.9332 7.53534 10.9196 8.40351V3.00521C10.9196 2.76848 11.1064 2.57589 11.3359 2.57589ZM9.29221 37.4118L9.40839 33.9919C9.44952 32.7817 9.4907 31.5716 9.66088 26.5717L9.82792 21.6642H14.3496V22.3523C14.3496 23.0636 14.9087 23.6403 15.5984 23.6403C16.288 23.6403 16.8471 23.0636 16.8471 22.3523V21.6642H25.9308V22.3523C25.9308 23.0636 26.4899 23.6403 27.1795 23.6403C27.8691 23.6403 28.4282 23.0636 28.4282 22.3523V21.6642H32.9499L33.1081 26.3116C33.2455 30.3482 33.2931 31.7454 33.3406 33.1425L33.4857 37.4117C33.556 39.4916 31.9452 41.2143 29.9261 41.2143H12.8518C10.8371 41.2143 9.22178 39.4957 9.29221 37.4118Z" fill="#0C1E41"/>
<path fill-rule="evenodd" clip-rule="evenodd" d="M17.7168 38.3262H25.0614C26.6181 38.3262 27.8846 37.02 27.8846 35.4144V29.733C27.8846 29.0217 27.3255 28.4451 26.6358 28.4451H16.1423C15.4527 28.4451 14.8936 29.0217 14.8936 29.733V35.4144C14.8936 37.02 16.16 38.3262 17.7168 38.3262ZM17.391 31.021H25.3871V35.4144C25.3871 35.5996 25.2409 35.7503 25.0614 35.7503H17.7168C17.5372 35.7503 17.391 35.5996 17.391 35.4144V31.021Z" fill="#0C1E41"/>
</g>
<defs>
<clipPath id="clip0">
<rect width="43.7902" height="43.7902" fill="white"/>
</clipPath>
</defs>
</svg>
