<svg width="51" height="51" viewBox="0 0 51 51" fill="none" xmlns="http://www.w3.org/2000/svg">
<g clip-path="url(#clip0)">
<path fill-rule="evenodd" clip-rule="evenodd" d="M34.1644 50.126C37.879 50.126 40.9048 47.1794 41.2131 43.4614C41.2234 43.2558 41.2251 43.0494 41.2181 42.8428L41.1368 40.4513H41.1548L41.0457 37.5512H41.0381L40.967 35.4592L40.6582 27.25L40.6948 27.2739C40.6664 26.354 40.6413 25.5113 40.6181 24.7375C40.3863 16.9764 40.3616 16.1515 39.3873 14.0195V4.20768C39.3873 2.34204 37.9157 0.824219 36.1069 0.824219H33.1827C31.3739 0.824219 29.9023 2.34204 29.9023 4.20768V7.78815C29.8953 7.7881 29.8884 7.78798 29.8815 7.78786C29.8729 7.78771 29.8643 7.78757 29.8557 7.78757H19.7213C19.7127 7.78757 19.704 7.78771 19.6954 7.78786C19.6885 7.78798 19.6816 7.7881 19.6747 7.78815V4.20768C19.6747 2.34204 18.2031 0.824219 16.3943 0.824219H13.47C11.6612 0.824219 10.1896 2.34204 10.1896 4.20768V14.0196C9.21903 16.1434 9.1956 16.9199 8.95696 24.8286C8.93454 25.5716 8.91022 26.3778 8.88303 27.2537L8.88879 27.25L8.85512 28.1451C8.82529 29.0885 8.79214 30.1075 8.75463 31.2096H8.73986L8.63078 34.1097H8.65575L8.53878 37.5512H8.50134L8.39226 40.4513H8.44018L8.35873 42.8432C8.34106 43.3644 8.3786 43.8861 8.47169 44.3987C9.16568 47.6627 11.9862 50.126 15.3826 50.126H34.1644ZM32.7141 4.20768C32.7141 3.94116 32.9243 3.72432 33.1827 3.72432H36.1069C36.3653 3.72432 36.5755 3.94116 36.5755 4.20768V10.2854C35.4344 9.30809 34.1213 8.59988 32.7141 8.19232V4.20768ZM29.8556 10.6877C33.9374 10.6877 37.4232 14.0084 37.5716 18.3714L37.7058 22.315H32.7137V21.5403C32.7137 20.7394 32.0842 20.0902 31.3078 20.0902C30.5313 20.0902 29.9019 20.7394 29.9019 21.5403V22.315H19.6749V21.5403C19.6749 20.7394 19.0454 20.0902 18.269 20.0902C17.4926 20.0902 16.8631 20.7394 16.8631 21.5403V22.315H11.8709L12.0052 18.3714C12.1518 14.0608 15.588 10.6877 19.7212 10.6877H29.8556ZM13.47 3.72432H16.3942C16.6526 3.72432 16.8628 3.94116 16.8628 4.20768V8.19232C15.4556 8.59988 14.1425 9.30799 13.0014 10.2854V4.20768C13.0014 3.94116 13.2116 3.72432 13.47 3.72432ZM11.1691 42.9449L11.2999 39.0944C11.3462 37.732 11.3926 36.3695 11.5842 30.7404L11.7723 25.2152H16.8631V25.9899C16.8631 26.7907 17.4926 27.4399 18.269 27.4399C19.0454 27.4399 19.6749 26.7907 19.6749 25.9899V25.2152H29.9019V25.9899C29.9019 26.7907 30.5313 27.4399 31.3078 27.4399C32.0842 27.4399 32.7137 26.7907 32.7137 25.9899V25.2152H37.8045L37.9826 30.4475C38.1373 34.9922 38.1908 36.5652 38.2443 38.1382L38.4077 42.9447C38.4869 45.2864 36.6733 47.2259 34.4001 47.2259H15.1768C12.9084 47.2259 11.0898 45.2911 11.1691 42.9449Z" fill="#41526E"/>
<path fill-rule="evenodd" clip-rule="evenodd" d="M20.6541 43.9744H28.9232C30.6758 43.9744 32.1017 42.5038 32.1017 40.6961V34.2997C32.1017 33.4988 31.4722 32.8496 30.6958 32.8496H18.8815C18.1051 32.8496 17.4756 33.4988 17.4756 34.2997V40.6961C17.4756 42.5038 18.9014 43.9744 20.6541 43.9744ZM20.2874 35.7497H29.2899V40.6961C29.2899 40.9047 29.1253 41.0743 28.9232 41.0743H20.6541C20.452 41.0743 20.2874 40.9047 20.2874 40.6961V35.7497Z" fill="#41526E"/>
</g>
<defs>
<clipPath id="clip0">
<rect width="49.3018" height="49.3018" fill="white" transform="translate(0.707031 0.824219)"/>
</clipPath>
</defs>
</svg>
