<svg width="51" height="50" viewBox="0 0 51 50" fill="none" xmlns="http://www.w3.org/2000/svg">
<path fill-rule="evenodd" clip-rule="evenodd" d="M5.62103 3.18149C5.62103 1.44544 7.03448 0.0380859 8.77806 0.0380859H41.9387C45.5176 0.0380859 48.4189 2.92686 48.4189 6.49033V42.8876C48.4189 46.4511 45.5176 49.3399 41.9387 49.3399H8.77806C7.03448 49.3399 5.62103 47.9325 5.62103 46.1965V42.7222H3.79328C2.96738 42.7222 2.29785 42.0556 2.29785 41.2332C2.29785 40.4109 2.96738 39.7442 3.79328 39.7442H5.62103V34.4501H3.79328C2.96738 34.4501 2.29785 33.7834 2.29785 32.9611C2.29785 32.1388 2.96738 31.4721 3.79328 31.4721H5.62103V26.178H3.79328C2.96738 26.178 2.29785 25.5113 2.29785 24.689C2.29785 23.8666 2.96738 23.2 3.79328 23.2H5.62103V17.9058H3.79328C2.96738 17.9058 2.29785 17.2392 2.29785 16.4169C2.29785 15.5945 2.96738 14.9279 3.79328 14.9279H5.62103V9.63374H3.79328C2.96738 9.63374 2.29785 8.9671 2.29785 8.14476C2.29785 7.32241 2.96738 6.65578 3.79328 6.65578H5.62103V3.18149ZM8.6119 46.1965V42.7222H10.4396C11.2656 42.7222 11.9351 42.0556 11.9351 41.2332C11.9351 40.4109 11.2656 39.7442 10.4396 39.7442H8.6119V34.4501H10.4396C11.2656 34.4501 11.9351 33.7834 11.9351 32.9611C11.9351 32.1388 11.2656 31.4721 10.4396 31.4721H8.6119V26.178H10.4396C11.2656 26.178 11.9351 25.5113 11.9351 24.689C11.9351 23.8666 11.2656 23.2 10.4396 23.2H8.6119V17.9058H10.4396C11.2656 17.9058 11.9351 17.2392 11.9351 16.4169C11.9351 15.5945 11.2656 14.9279 10.4396 14.9279H8.6119V9.63374H10.4396C11.2656 9.63374 11.9351 8.9671 11.9351 8.14476C11.9351 7.32241 11.2656 6.65578 10.4396 6.65578H8.6119V3.18149C8.6119 3.09012 8.68629 3.01605 8.77806 3.01605H15.4244V46.3619H8.77806C8.68629 46.3619 8.6119 46.2879 8.6119 46.1965ZM18.4153 46.3619H41.9387C43.8658 46.3619 45.428 44.8064 45.428 42.8876V6.49033C45.428 4.57154 43.8658 3.01605 41.9387 3.01605H18.4153V46.3619Z" fill="#41526E"/>
<path d="M42.0578 15.5798H40.3041V13.8337C40.3041 13.0308 39.6504 12.3799 38.844 12.3799C38.0376 12.3799 37.3839 13.0307 37.3839 13.8337V15.5798H35.63C34.8237 15.5798 34.1699 16.2307 34.1699 17.0336C34.1699 17.8365 34.8236 18.4874 35.63 18.4874H37.3839V20.2336C37.3839 21.0365 38.0375 21.6874 38.844 21.6874C39.6503 21.6874 40.3041 21.0366 40.3041 20.2336V18.4874H42.0578C42.8642 18.4874 43.5179 17.8366 43.5179 17.0336C43.5178 16.2307 42.8642 15.5798 42.0578 15.5798Z" fill="#41526E"/>
<path d="M40.5762 32.5679L34.1416 21.4709C33.5369 20.4281 32.454 19.8057 31.2448 19.8057C30.0356 19.8057 28.9527 20.4283 28.3435 21.4791L21.9198 32.5572C21.5108 33.2491 21.7424 34.1401 22.4374 34.5475C23.1322 34.9547 24.0273 34.7242 24.4364 34.0322L26.8524 29.9459H35.6839L38.0472 34.0216C38.3176 34.488 38.8084 34.7486 39.313 34.7486C39.5607 34.7486 39.8118 34.6858 40.0417 34.5536C40.7402 34.1523 40.9794 33.2632 40.5762 32.5679ZM28.5274 27.0385L30.8772 22.9247C30.9839 22.7408 31.1533 22.7132 31.2448 22.7132C31.3364 22.7132 31.506 22.7408 31.6126 22.9248L33.998 27.0385H28.5274Z" fill="#41526E"/>
</svg>
