<svg width="57" height="57" viewBox="0 0 57 57" fill="none" xmlns="http://www.w3.org/2000/svg">
<path d="M30.3906 37.5228H45.5858C46.1556 37.5228 46.5355 37.143 46.5355 36.5732V28.0258C46.5355 27.456 46.1556 27.0762 45.5858 27.0762H30.3906C29.8208 27.0762 29.4409 27.456 29.4409 28.0258V36.5732C29.4408 37.1429 29.8208 37.5228 30.3906 37.5228ZM31.3403 28.9755H44.6361V35.6234H31.3403V28.9755Z" fill="#0C1E41"/>
<path d="M4.74849 25.1767H12.3462C12.916 25.1767 13.2958 24.7968 13.2958 24.227C13.2958 23.6572 12.916 23.2773 12.3462 23.2773H4.74849C4.17867 23.2773 3.79883 23.6572 3.79883 24.227C3.79883 24.7968 4.17867 25.1767 4.74849 25.1767Z" fill="#0C1E41"/>
<path d="M16.145 25.1767H23.7426C24.3125 25.1767 24.6923 24.7968 24.6923 24.227C24.6923 23.6572 24.3125 23.2773 23.7426 23.2773H16.145C15.5752 23.2773 15.1953 23.6572 15.1953 24.227C15.1953 24.7968 15.5752 25.1767 16.145 25.1767Z" fill="#0C1E41"/>
<path d="M4.74849 28.9755H17.0946C17.6644 28.9755 18.0443 28.5957 18.0443 28.0258C18.0443 27.456 17.6644 27.0762 17.0946 27.0762H4.74849C4.17867 27.0762 3.79883 27.456 3.79883 28.0258C3.79883 28.5957 4.17867 28.9755 4.74849 28.9755Z" fill="#0C1E41"/>
<path d="M23.7426 27.0742H20.8935C20.3237 27.0742 19.9438 27.4541 19.9438 28.0239C19.9438 28.5937 20.3237 28.9736 20.8935 28.9736H23.7426C24.3124 28.9736 24.6923 28.5937 24.6923 28.0239C24.6923 27.4541 24.3124 27.0742 23.7426 27.0742Z" fill="#0C1E41"/>
<path d="M56.1275 15.2992C55.4627 14.4445 54.608 13.9696 53.5633 13.8747L51.284 13.5985V10.9305V9.0312C51.284 6.94189 49.5745 5.23242 47.4852 5.23242H3.79878C1.70947 5.23231 0 6.94178 0 9.0312V10.9306V18.5283V39.4217C0 41.1371 1.15267 42.5956 2.72146 43.063C2.6736 44.9842 4.1272 46.652 6.07818 46.8294L49.9545 51.7678C50.0494 51.7678 50.2394 51.7678 50.3343 51.7678C52.2338 51.7678 53.9432 50.3433 54.1331 48.5389L56.9822 18.0534C57.0771 17.1036 56.7922 16.0589 56.1275 15.2992ZM1.89944 11.8803H49.3846V14.3496V17.5785H1.89944V11.8803ZM3.79878 7.13175H47.4851C48.5298 7.13175 49.3845 7.98649 49.3845 9.0312V9.98086H1.89944V9.0312C1.89944 7.98649 2.75418 7.13175 3.79878 7.13175ZM1.89944 39.4216V19.4779H49.3846V39.4216C49.3846 40.4663 48.5299 41.3211 47.4852 41.3211H3.89382H3.79889C2.75418 41.3211 1.89944 40.4663 1.89944 39.4216ZM55.0828 17.6735L52.2336 48.1589C52.1387 49.2036 51.1889 49.9633 50.1443 49.8684L6.36298 44.93C5.41331 44.835 4.74844 44.0752 4.65351 43.2205H47.4851C49.5744 43.2205 51.2839 41.511 51.2839 39.4217V18.5282V15.3942L53.4682 15.5841C53.9431 15.5841 54.4179 15.8691 54.7028 16.2489C54.9878 16.6287 55.1778 17.1986 55.0828 17.6735Z" fill="#0C1E41"/>
</svg>
