<svg width="42" height="43" viewBox="0 0 42 43" fill="none" xmlns="http://www.w3.org/2000/svg">
<path d="M5.65407 21.5273H0.623886C0.279419 21.5273 0 21.8064 0 22.1509V40.2151C0 40.5596 0.279419 40.839 0.623886 40.839H5.65407C5.99854 40.839 6.27795 40.5596 6.27795 40.2151V34.5146C6.27795 34.1701 5.99854 33.891 5.65407 33.891C5.3096 33.891 5.0305 34.1701 5.0305 34.5146V39.5915H1.24745V22.7748H5.0305V32.4353C5.0305 32.78 5.3096 33.0591 5.65407 33.0591C5.99854 33.0591 6.27795 32.78 6.27795 32.4353V22.1509C6.27795 21.8064 5.99854 21.5273 5.65407 21.5273Z" fill="#0C1E41"/>
<path d="M14.5847 27.332H9.55455C9.21008 27.332 8.93066 27.6111 8.93066 27.9556V40.2151C8.93066 40.5596 9.21008 40.839 9.55455 40.839H14.5847C14.9295 40.839 15.2086 40.5596 15.2086 40.2151V27.9556C15.2086 27.6111 14.9295 27.332 14.5847 27.332ZM13.9612 39.5915H10.1781V28.5795H13.9612V39.5915Z" fill="#0C1E41"/>
<path d="M23.5157 17.6562H18.4852C18.1407 17.6562 17.8613 17.9353 17.8613 18.2798V40.2139C17.8613 40.5583 18.1407 40.8378 18.4852 40.8378H23.5157C23.8602 40.8378 24.1393 40.5583 24.1393 40.2139V18.2798C24.1393 17.9353 23.8602 17.6562 23.5157 17.6562ZM22.8918 39.5903H19.1088V18.9037H22.8918V39.5903Z" fill="#0C1E41"/>
<path d="M32.4464 20.5586H27.4159C27.0714 20.5586 26.792 20.8377 26.792 21.1822V40.2137C26.792 40.5582 27.0714 40.8376 27.4159 40.8376H32.4464C32.7908 40.8376 33.0699 40.5582 33.0699 40.2137V21.1822C33.0699 20.8377 32.7908 20.5586 32.4464 20.5586ZM31.8225 39.5902H28.0394V21.806H31.8225V39.5902Z" fill="#0C1E41"/>
<path d="M41.3757 11.8516H36.3456C36.0011 11.8516 35.7217 12.1307 35.7217 12.4751V20.7074C35.7217 21.0519 36.0011 21.3313 36.3456 21.3313C36.69 21.3313 36.9691 21.0519 36.9691 20.7074V13.099H40.7522V39.5903H36.9691V22.787C36.9691 22.4426 36.69 22.1631 36.3456 22.1631C36.0011 22.1631 35.7217 22.4426 35.7217 22.787V40.2139C35.7217 40.5583 36.0011 40.8378 36.3456 40.8378H41.3757C41.7202 40.8378 41.9996 40.5583 41.9996 40.2139V12.4751C41.9996 12.1307 41.7202 11.8516 41.3757 11.8516Z" fill="#0C1E41"/>
<path d="M37.0941 7.01318C37.5979 7.35733 38.2064 7.5592 38.861 7.5592C40.592 7.5592 42 6.15089 42 4.42023C42 2.68924 40.592 1.28125 38.861 1.28125C37.13 1.28125 35.722 2.68924 35.722 4.42023C35.722 5.04604 35.9069 5.62923 36.2238 6.11949L31.6971 10.5341C31.1937 10.19 30.5852 9.98842 29.9305 9.98842C28.7606 9.98842 27.7391 10.6322 27.1991 11.5835L24.1178 10.5828C24.1313 10.4652 24.139 10.346 24.139 10.2249C24.139 8.49423 22.7307 7.08592 21 7.08592C19.269 7.08592 17.861 8.49423 17.861 10.2249C17.861 10.91 18.0824 11.5444 18.4564 12.061L13.6973 17.2165C13.2224 16.9274 12.6649 16.7605 12.0695 16.7605C11.1941 16.7605 10.4016 17.121 9.83189 17.701L6.0575 15.248C6.19913 14.8907 6.27795 14.5017 6.27795 14.0948C6.27795 12.3638 4.86964 10.9558 3.13866 10.9558C1.40799 10.9558 0 12.3638 0 14.0948C0 15.8255 1.40799 17.2338 3.13898 17.2338C4.0144 17.2338 4.80684 16.873 5.37689 16.293L9.15097 18.7459C9.00934 19.1032 8.93051 19.4922 8.93051 19.8995C8.93051 21.6304 10.3388 23.0384 12.0695 23.0384C13.8005 23.0384 15.2088 21.6304 15.2088 19.8995C15.2088 19.2144 14.9874 18.5802 14.6134 18.0634L19.3725 12.9079C19.8474 13.1973 20.4046 13.3639 21.0003 13.3639C22.1699 13.3639 23.1918 12.7201 23.7317 11.7688L26.8127 12.7695C26.7992 12.8871 26.7919 13.0063 26.7919 13.1274C26.7919 14.8584 28.1998 16.2664 29.9308 16.2664C31.6618 16.2664 33.0698 14.8584 33.0698 13.1274C33.0698 12.5013 32.8849 11.9181 32.568 11.4281L37.0941 7.01318ZM3.13898 15.9863C2.09596 15.9863 1.24745 15.1378 1.24745 14.0948C1.24745 13.0518 2.09596 12.2033 3.13898 12.2033C4.18199 12.2033 5.0305 13.0518 5.0305 14.0948C5.0305 15.1378 4.18199 15.9863 3.13898 15.9863ZM12.0695 21.791C11.0265 21.791 10.178 20.9425 10.178 19.8995C10.178 18.8564 11.0265 18.0079 12.0695 18.0079C13.1125 18.0079 13.961 18.8564 13.961 19.8995C13.961 20.9425 13.1125 21.791 12.0695 21.791ZM21 12.1164C19.957 12.1164 19.1085 11.2679 19.1085 10.2249C19.1085 9.18188 19.957 8.33337 21 8.33337C22.043 8.33337 22.8915 9.18188 22.8915 10.2249C22.8915 11.2679 22.043 12.1164 21 12.1164ZM38.861 2.5287C39.904 2.5287 40.7525 3.37721 40.7525 4.42023C40.7525 5.46324 39.904 6.31175 38.861 6.31175C37.818 6.31175 36.9695 5.46324 36.9695 4.42023C36.9695 3.37721 37.818 2.5287 38.861 2.5287ZM29.9305 15.0186C28.8875 15.0186 28.039 14.1704 28.039 13.1274C28.039 12.0844 28.8875 11.2359 29.9305 11.2359C30.9735 11.2359 31.822 12.0844 31.822 13.1274C31.822 14.1704 30.9735 15.0186 29.9305 15.0186Z" fill="#0C1E41"/>
</svg>
