<svg width="42" height="40" viewBox="0 0 42 40" fill="none" xmlns="http://www.w3.org/2000/svg">
<path d="M35.3091 19.7175V8.125C35.3091 7.43563 34.7344 6.875 34.0278 6.875H30.1841V1.875C30.1841 1.18562 29.6094 0.625 28.9028 0.625H13.5278C12.8212 0.625 12.2466 1.18562 12.2466 1.875V6.875H8.40283C7.69622 6.875 7.12158 7.43563 7.12158 8.125V19.7744C6.30414 21.0737 5.84033 22.5781 5.84033 24.1544C5.84033 27.635 7.62447 30.8488 10.613 32.75L21.2153 39.4963L31.778 32.775C34.7915 30.8587 36.5903 27.6188 36.5903 24.1088V24.0363C36.5903 22.4913 36.1329 21.0006 35.3091 19.7175ZM33.7402 17.9081C33.2783 17.5138 32.7799 17.1712 32.2559 16.875H34.0278V18.1819C33.9311 18.0912 33.8414 17.995 33.7402 17.9081ZM30.1841 11.875V10.625H31.4653V13.125H10.9653V10.625H12.2466V11.875H30.1841ZM16.0903 6.81188C17.3434 6.5625 18.3325 5.5975 18.5881 4.375H23.8425C24.0981 5.5975 25.0873 6.5625 26.3403 6.81188V10.625H25.0591C25.0591 8.55688 23.3352 6.875 21.2153 6.875C19.0955 6.875 17.3716 8.55688 17.3716 10.625H16.0903V6.81188ZM16.0903 5.51V4.375H17.2537C17.0602 4.90438 16.6329 5.32125 16.0903 5.51ZM26.3403 5.51C25.7977 5.32125 25.3704 4.90438 25.177 4.375H26.3403V5.51ZM18.6528 10.625C18.6528 9.24625 19.8021 8.125 21.2153 8.125C22.6286 8.125 23.7778 9.24625 23.7778 10.625H18.6528ZM13.5278 1.875H28.9028V10.625H27.6216V3.125H14.8091V10.625H13.5278V1.875ZM12.2466 8.125V9.375H9.68408V14.375H32.7466V9.375H30.1841V8.125H34.0278V15.625H8.40283V8.125H12.2466ZM22.7714 16.875C22.3646 17.1044 21.9719 17.3588 21.6023 17.6469L21.2153 17.9494L20.829 17.6481C20.4594 17.3594 20.0661 17.105 19.6586 16.875H22.7714ZM10.1697 16.875C10.0006 16.9706 9.83271 17.0694 9.66871 17.1756C9.20554 17.4769 8.79041 17.8275 8.40219 18.2013V16.875H10.1697ZM35.3091 24.1088C35.3091 27.1944 33.7274 30.0431 31.0784 31.7281L21.2153 38.0037L11.3126 31.7038C8.68791 30.0331 7.12158 27.2113 7.12158 24.1544C7.12158 21.7619 8.33941 19.5425 10.3798 18.2156C11.7277 17.3388 13.2972 16.875 14.918 16.875C16.7681 16.875 18.5836 17.4963 20.0289 18.6238L21.2153 19.5506L22.4031 18.6231C23.847 17.4956 25.6613 16.875 27.5114 16.875C29.4928 16.875 31.4051 17.5763 32.8965 18.8488C34.4295 20.1575 35.3091 22.0487 35.3091 24.0363V24.1088Z" fill="#5E6D85"/>
<path d="M21.856 21.9381V20.625H20.5747V21.875H18.0122V25C18.0122 26.7231 19.4491 28.125 21.2153 28.125C22.2749 28.125 23.1372 28.9663 23.1372 30V31.875H21.2153C20.1557 31.875 19.2935 31.0337 19.2935 30V28.125H18.0122V30C18.0122 31.5087 19.1147 32.7712 20.5747 33.0619V34.375H21.856V33.125H24.4185V30C24.4185 28.2769 22.9815 26.875 21.2153 26.875C20.1557 26.875 19.2935 26.0338 19.2935 25V23.125H21.2153C22.2749 23.125 23.1372 23.9662 23.1372 25V26.875H24.4185V25C24.4185 23.4913 23.3159 22.2288 21.856 21.9381Z" fill="#5E6D85"/>
</svg>
