<svg width="42" height="42" viewBox="0 0 42 42" fill="none" xmlns="http://www.w3.org/2000/svg">
<path d="M40.0696 11.1787H15.0819C14.0174 11.1787 13.1515 12.0447 13.1515 13.1091V28.8908C13.1515 29.9553 14.0175 30.8212 15.0819 30.8212H40.0696C41.1341 30.8212 42 29.9552 42 28.8908V13.1092C42 12.0447 41.134 11.1787 40.0696 11.1787ZM15.0819 12.4092H40.0696C40.3629 12.4092 40.6142 12.5906 40.7182 12.8471L29.926 21.2024C28.5422 22.2737 26.6091 22.2737 25.2253 21.2024L14.4333 12.8471C14.5373 12.5908 14.7886 12.4092 15.0819 12.4092ZM40.7695 27.6364L33.8705 22.2953C33.6019 22.0873 33.2154 22.1364 33.0074 22.4051C32.7994 22.6737 32.8486 23.0602 33.1172 23.2682L40.7181 29.1528C40.6142 29.4093 40.3629 29.5908 40.0696 29.5908H15.0819C14.7886 29.5908 14.5373 29.4093 14.4333 29.1529L22.0342 23.2683C22.3028 23.0603 22.352 22.6738 22.144 22.4052C21.936 22.1365 21.5496 22.0873 21.2809 22.2953L14.3819 27.6365V14.3636L24.4721 22.1753C25.3857 22.8827 26.4807 23.2364 27.5756 23.2364C28.6706 23.2364 29.7655 22.8827 30.6792 22.1753L40.7695 14.3636V27.6364Z" fill="#0C1E41"/>
<path d="M11.1364 22.3574H3.24548C2.90571 22.3574 2.63025 22.6329 2.63025 22.9727C2.63025 23.3124 2.90571 23.5879 3.24548 23.5879H11.1364C11.4762 23.5879 11.7516 23.3124 11.7516 22.9727C11.7516 22.6329 11.4762 22.3574 11.1364 22.3574Z" fill="#0C1E41"/>
<path d="M11.1364 25.6454H0.615234C0.275461 25.6454 0 25.9208 0 26.2606C0 26.6004 0.275461 26.8759 0.615234 26.8759H11.1364C11.4762 26.8759 11.7516 26.6004 11.7516 26.2606C11.7516 25.9208 11.4762 25.6454 11.1364 25.6454Z" fill="#0C1E41"/>
<path d="M11.1364 19.0697H5.87582C5.53604 19.0697 5.26058 19.3452 5.26058 19.6849C5.26058 20.0247 5.53604 20.3002 5.87582 20.3002H11.1364C11.4762 20.3002 11.7516 20.0247 11.7516 19.6849C11.7516 19.3451 11.4762 19.0697 11.1364 19.0697Z" fill="#0C1E41"/>
<path d="M11.1364 15.7817H8.50606C8.16628 15.7817 7.89082 16.0572 7.89082 16.397C7.89082 16.7367 8.16628 17.0122 8.50606 17.0122H11.1364C11.4762 17.0122 11.7516 16.7367 11.7516 16.397C11.7516 16.0572 11.4762 15.7817 11.1364 15.7817Z" fill="#0C1E41"/>
</svg>
