<svg width="40" height="40" viewBox="0 0 40 40" fill="none" xmlns="http://www.w3.org/2000/svg">
<path d="M24.1045 6.74149C24.7463 6.74149 25.2666 6.21474 25.2666 5.56502V5.23702C25.2666 4.58729 24.7463 4.06055 24.1045 4.06055C23.4627 4.06055 22.9424 4.58729 22.9424 5.23702V5.56502C22.9424 6.21474 23.4627 6.74149 24.1045 6.74149Z" fill="#5E6D85"/>
<path d="M27.4648 6.74149C28.1066 6.74149 28.627 6.21474 28.627 5.56502V5.23702C28.627 4.58729 28.1067 4.06055 27.4648 4.06055C26.823 4.06055 26.3027 4.58729 26.3027 5.23702V5.56502C26.3027 6.21474 26.823 6.74149 27.4648 6.74149Z" fill="#5E6D85"/>
<path d="M21.9649 34.4473H18.5195C17.8778 34.4473 17.3574 34.974 17.3574 35.6237C17.3574 36.2735 17.8777 36.8002 18.5195 36.8002H21.9649C22.6068 36.8002 23.1271 36.2735 23.1271 35.6237C23.1271 34.974 22.6068 34.4473 21.9649 34.4473Z" fill="#5E6D85"/>
<path d="M14.7342 11.1354C14.7342 10.4857 14.2139 9.95898 13.5721 9.95898H5.58496C4.9432 9.95898 4.42285 10.4857 4.42285 11.1354C4.42285 11.7852 4.94313 12.3119 5.58496 12.3119H13.5721C14.2138 12.3119 14.7342 11.7852 14.7342 11.1354Z" fill="#5E6D85"/>
<path d="M38.8377 15.2941H32.5009V3.45333C32.5009 1.54918 30.9703 0 29.0891 0H11.3958C9.51447 0 7.98395 1.5491 7.98395 3.45333V6.14353H1.64746C1.00562 6.14353 0.485352 6.67028 0.485352 7.32V15.2675C0.485352 15.9172 1.00562 16.4439 1.64746 16.4439H7.98395V36.5467C7.98395 38.4636 9.52997 40 11.3956 40H11.3958H29.0891H29.0893C30.9522 40 32.5009 38.4662 32.5009 36.5467V26.2441H38.8377C39.4794 26.2441 39.9998 25.7173 39.9998 25.0676V16.4706C39.9998 15.8209 39.4795 15.2941 38.8377 15.2941ZM2.80957 8.49647H16.6051V15.5486L14.6131 14.2732C14.4273 14.1542 14.2119 14.091 13.992 14.091C13.6001 14.091 3.58855 14.091 2.80957 14.091V8.49647ZM11.3958 37.6471C10.8085 37.6471 10.3085 37.1622 10.3085 36.5465V33.599H30.1765V36.5465C30.1765 37.162 29.6767 37.6471 29.0891 37.6471H11.3958ZM30.1768 31.246H10.3081V16.4439H13.6553L17.1459 18.679C17.9183 19.1736 18.9292 18.6105 18.9292 17.6847V7.32C18.9292 6.67028 18.4089 6.14353 17.7671 6.14353H10.308V3.45333C10.308 2.84659 10.796 2.35294 11.3957 2.35294H29.089C29.6888 2.35294 30.1767 2.84651 30.1767 3.45333V15.2941H22.3462C21.7044 15.2941 21.1841 15.8209 21.1841 16.4706V28.2347C21.1841 29.2551 22.377 29.7834 23.1198 29.1126L26.2957 26.2441H30.1768V31.246ZM37.6756 23.8911H31.3419C31.3409 23.8911 31.3399 23.891 31.3389 23.891C31.3379 23.891 31.3369 23.8911 31.3359 23.8911H25.8527C25.5673 23.8911 25.292 23.9974 25.079 24.1897L23.5083 25.6084V17.6471H37.6755V23.8911H37.6756Z" fill="#5E6D85"/>
<path d="M30.9482 20.823C30.9482 21.4727 31.4685 21.9994 32.1104 21.9994H35.4171C36.0589 21.9994 36.5792 21.4727 36.5792 20.823C36.5792 20.1732 36.0589 19.6465 35.4171 19.6465H32.1104C31.4685 19.6465 30.9482 20.1732 30.9482 20.823Z" fill="#5E6D85"/>
<path d="M28.4328 19.6465H25.9023C25.2605 19.6465 24.7402 20.1732 24.7402 20.823C24.7402 21.4727 25.2605 21.9994 25.9023 21.9994H28.4328C29.0747 21.9994 29.5949 21.4727 29.5949 20.823C29.5949 20.1732 29.0747 19.6465 28.4328 19.6465Z" fill="#5E6D85"/>
</svg>
