<svg width="42" height="42" viewBox="0 0 42 42" fill="none" xmlns="http://www.w3.org/2000/svg">
<g clip-path="url(#clip0)">
<path d="M41.5985 11.6651L28.3171 6.60161C27.9951 6.47889 27.6346 6.64039 27.5119 6.9621C27.3891 7.28414 27.5506 7.64463 27.8727 7.76735L39.6253 12.248L31.4894 15.3501L21.2573 10.7173C20.9433 10.575 20.5738 10.7144 20.4319 11.0281C20.2896 11.3421 20.429 11.7116 20.7427 11.8539L29.8472 15.9762L21 19.3491L2.37474 12.248L21 5.14684L25.5899 6.89705C25.9113 7.01946 26.2721 6.85828 26.3952 6.53625C26.5179 6.21453 26.3564 5.85404 26.0343 5.73131L21.2224 3.89651C21.0791 3.84203 20.9209 3.84171 20.7776 3.89651L0.401505 11.6651C0.159897 11.7574 0 11.9894 0 12.248V15.0967C0 15.3552 0.159897 15.5872 0.401505 15.6795L6.76437 18.1052V20.2669C6.76437 20.6113 7.04347 20.8908 7.38794 20.8908C7.73273 20.8908 8.01183 20.6113 8.01183 20.2669V18.5811L20.7776 23.4481C20.8494 23.4754 20.9247 23.4892 21 23.4892C21.0753 23.4892 21.1506 23.4754 21.2224 23.4481L30.845 19.7795V29.6514C27.824 31.2373 24.4363 32.0871 21 32.0871C16.3101 32.0871 11.71 30.506 8.01183 27.6288V22.7621C8.01183 22.4176 7.73273 22.1382 7.38794 22.1382C7.04347 22.1382 6.76437 22.4176 6.76437 22.7621V27.931C6.76437 28.1204 6.85025 28.2995 6.99797 28.4178C10.9557 31.5885 15.9285 33.3345 21 33.3345C24.4203 33.3345 27.7951 32.5392 30.845 31.0495V33.5742C29.8398 33.8488 29.0987 34.7694 29.0987 35.8605C29.0987 37.1672 30.1619 38.2307 31.4686 38.2307C32.7757 38.2307 33.8389 37.1672 33.8389 35.8605C33.8389 34.7694 33.0977 33.8488 32.0925 33.5742V30.3907C33.1092 29.8123 34.0833 29.1541 35.0024 28.4178C35.1501 28.2995 35.2363 28.1204 35.2363 27.931V18.1049L41.5985 15.6792C41.8401 15.5872 42 15.3552 42 15.0963V12.248C42 11.9894 41.8401 11.7574 41.5985 11.6651ZM32.5914 35.8605C32.5914 36.4793 32.0877 36.983 31.4686 36.983C30.8498 36.983 30.3461 36.4793 30.3461 35.8605C30.3461 35.2414 30.8498 34.7377 31.4686 34.7377C32.0877 34.7377 32.5914 35.2414 32.5914 35.8605ZM1.24745 13.1535L20.3761 20.4466V21.9597L1.24745 14.6666V13.1535ZM21.6239 21.9597V20.4466L30.845 16.9308V18.4442L21.6239 21.9597ZM33.9885 27.6285C33.38 28.1021 32.7465 28.5398 32.0925 28.9417V19.3036L33.9885 18.5807V27.6285ZM32.0925 17.9684V16.4553L40.7526 13.1535V14.6666L32.0925 17.9684Z" fill="#0C1E41"/>
</g>
<defs>
<clipPath id="clip0">
<rect width="42" height="42" fill="white"/>
</clipPath>
</defs>
</svg>
