<svg width="50" height="50" viewBox="0 0 50 50" fill="none" xmlns="http://www.w3.org/2000/svg">
<g clip-path="url(#clip0)">
<path d="M16.8506 38.272C16.8379 38.2095 16.8193 38.1479 16.7949 38.0884C16.7705 38.0298 16.7402 37.9731 16.7051 37.9204C16.6699 37.8667 16.6289 37.8169 16.584 37.772C16.5391 37.7271 16.4893 37.686 16.4355 37.6509C16.3828 37.6157 16.3262 37.5854 16.2666 37.561C16.208 37.5366 16.1465 37.5171 16.084 37.5054C15.958 37.48 15.8281 37.48 15.7031 37.5054C15.6406 37.5171 15.5791 37.5366 15.5195 37.561C15.4609 37.5854 15.4043 37.6157 15.3516 37.6509C15.2979 37.686 15.248 37.7271 15.2031 37.772C15.1582 37.8169 15.1172 37.8667 15.082 37.9204C15.0459 37.9731 15.0166 38.0298 14.9922 38.0884C14.9678 38.1479 14.9482 38.2095 14.9365 38.272C14.9238 38.3345 14.917 38.3989 14.917 38.4624C14.917 38.5259 14.9238 38.5903 14.9365 38.6528C14.9482 38.7153 14.9678 38.7769 14.9922 38.8354C15.0166 38.895 15.0459 38.9517 15.082 39.0044C15.1172 39.0581 15.1582 39.1079 15.2031 39.1528C15.248 39.1978 15.2979 39.2388 15.3516 39.2739C15.4043 39.3092 15.4609 39.3395 15.5195 39.3639C15.5791 39.3883 15.6406 39.4078 15.7031 39.4195C15.7656 39.4322 15.8301 39.4391 15.8936 39.4391C15.957 39.4391 16.0215 39.4322 16.084 39.4195C16.1465 39.4078 16.208 39.3883 16.2666 39.3639C16.3262 39.3395 16.3828 39.3091 16.4355 39.2739C16.4893 39.2388 16.5391 39.1978 16.584 39.1528C16.6289 39.1079 16.6699 39.0581 16.7051 39.0044C16.7402 38.9517 16.7705 38.895 16.7949 38.8354C16.8193 38.7769 16.8379 38.7153 16.8506 38.6528C16.8633 38.5903 16.8701 38.5259 16.8701 38.4624C16.8701 38.3989 16.8633 38.3345 16.8506 38.272Z" fill="#0C1E41"/>
<path d="M44.9212 38.5723C44.9174 38.5625 44.9135 38.5528 44.9094 38.5433C44.0106 36.44 41.9025 35.6627 39.4078 36.5147L32.6043 38.3962C32.2109 37.205 31.2298 36.1913 29.8425 35.6765C29.8339 35.6733 29.8253 35.6702 29.8166 35.6673L22.338 33.129C21.7155 32.3244 19.7657 30.2656 16.115 30.2656C13.5638 30.2656 11.3068 32.0158 10.0156 33.9235H0.976563C0.437207 33.9235 0 34.3607 0 34.9001V47.2123C0 47.7517 0.437207 48.1889 0.976563 48.1889H6.78291C7.32227 48.1889 7.75947 47.7517 7.75947 47.2123V46.3691H10.4824C11.0218 46.3691 11.459 45.9319 11.459 45.3926V45.1115C13.0463 45.25 13.5684 45.5511 15.0262 46.3917C16.1473 47.0382 17.8417 48.0152 20.8931 49.3872C20.9072 49.3936 20.9216 49.3996 20.9359 49.4053C21.5216 49.6356 22.6664 49.9976 24.0778 49.9976C25.0603 49.9976 26.1721 49.8221 27.3133 49.3048L42.3515 43.9204C42.3782 43.9108 42.4046 43.9001 42.4304 43.8882C43.8676 43.227 46.0093 41.3634 44.9212 38.5723ZM5.80635 46.2356H1.95313V35.8766H5.80635V46.2356ZM9.50586 44.4159H7.75947V35.8766H9.50586V44.4159ZM41.65 42.0969L26.6186 47.4788C26.6054 47.4835 26.5875 47.4905 26.5745 47.4958C26.5613 47.5012 26.5481 47.5068 26.5352 47.5128C24.4417 48.4749 22.4518 47.8989 21.6719 47.5957C18.7244 46.2694 17.1513 45.3623 16.0019 44.6995C14.4038 43.778 13.6338 43.3339 11.459 43.1543V35.2889C12.3847 33.7717 14.1798 32.2187 16.1151 32.2187C19.4341 32.2187 20.8404 34.3773 20.8957 34.4645C21.0149 34.6584 21.1982 34.8046 21.4138 34.8777L29.175 37.5119C30.4146 37.9771 31.0696 39.0387 30.7686 40.0973C30.6296 40.5861 30.3085 40.9916 29.8646 41.239C29.4244 41.4842 28.9156 41.5448 28.4307 41.4106L19.6813 38.638C19.1669 38.475 18.6183 38.7598 18.4554 39.2739C18.2924 39.7881 18.5771 40.3369 19.0913 40.4999L27.8559 43.2773C27.8651 43.2803 27.8744 43.2831 27.8838 43.2857C28.2337 43.3853 28.5899 43.4345 28.944 43.4345C29.5923 43.4345 30.2334 43.2693 30.8152 42.9451C31.7149 42.4439 32.3655 41.6222 32.6472 40.6314C32.6696 40.5523 32.6896 40.4732 32.7068 40.3941L40.0392 38.3629C41.0981 38.0012 42.4883 37.8708 43.1072 39.2963C43.7479 40.9698 42.0828 41.8904 41.65 42.0969Z" fill="#0C1E41"/>
<path d="M35.0645 12.8462C35.0518 12.7837 35.0332 12.7222 35.0078 12.6626C34.9834 12.604 34.9541 12.5474 34.918 12.4946C34.8828 12.4409 34.8418 12.3911 34.7969 12.3462C34.752 12.3013 34.7021 12.2603 34.6484 12.2251C34.5957 12.1899 34.5391 12.1597 34.4805 12.1353C34.4209 12.1108 34.3594 12.0913 34.2979 12.0796C34.1719 12.0542 34.042 12.0542 33.916 12.0796C33.8535 12.0913 33.792 12.1108 33.7334 12.1353C33.6738 12.1597 33.6172 12.1899 33.5645 12.2251C33.5107 12.2603 33.4609 12.3013 33.416 12.3462C33.3711 12.3911 33.3301 12.4409 33.2949 12.4946C33.2598 12.5474 33.2295 12.604 33.2051 12.6626C33.1807 12.7222 33.1611 12.7837 33.1494 12.8462C33.1367 12.9087 33.1299 12.9731 33.1299 13.0366C33.1299 13.1001 33.1367 13.1646 33.1494 13.2271C33.1611 13.2896 33.1807 13.3511 33.2051 13.4097C33.2295 13.4692 33.2598 13.5259 33.2949 13.5786C33.3301 13.6323 33.3711 13.6821 33.416 13.7271C33.4609 13.772 33.5107 13.813 33.5645 13.8481C33.6172 13.8833 33.6738 13.9136 33.7334 13.938C33.792 13.9624 33.8535 13.981 33.916 13.9937C33.9785 14.0063 34.043 14.0132 34.1064 14.0132C34.1699 14.0132 34.2344 14.0063 34.2979 13.9937C34.3594 13.981 34.4209 13.9624 34.4805 13.938C34.5391 13.9136 34.5957 13.8833 34.6484 13.8481C34.7021 13.813 34.752 13.772 34.7969 13.7271C34.8418 13.6821 34.8828 13.6323 34.918 13.5786C34.9541 13.5259 34.9834 13.4692 35.0078 13.4097C35.0332 13.3511 35.0518 13.2896 35.0645 13.2271C35.0771 13.1646 35.083 13.1001 35.083 13.0366C35.083 12.9731 35.0771 12.9087 35.0645 12.8462Z" fill="#0C1E41"/>
<path d="M49.0234 3.30935H43.217C42.6777 3.30935 42.2405 3.74656 42.2405 4.28591V5.12908H39.5175C38.9782 5.12908 38.541 5.56628 38.541 6.10564V6.38669C36.9536 6.24812 36.4316 5.94714 34.9739 5.10652C33.8528 4.46003 32.1583 3.48298 29.1069 2.11101C29.0927 2.10457 29.0784 2.09861 29.0639 2.09294C28.0706 1.70212 25.4674 0.933178 22.687 2.19324L18.7574 3.60027L15.4449 0.287964C15.0636 -0.0933838 14.4452 -0.0933838 14.0639 0.287964L3.18909 11.1627C2.83733 11.5145 2.76985 12.1246 3.18909 12.5438L21.7718 31.1265C22.0692 31.424 22.7655 31.5139 23.153 31.1265L33.0812 21.1984C33.3393 21.2207 33.6072 21.2327 33.8848 21.2327C36.4362 21.2327 38.693 19.4825 39.9841 17.5749H49.0234C49.5627 17.5749 49.9999 17.1377 49.9999 16.5983V4.28591C49.9999 3.74656 49.5627 3.30935 49.0234 3.30935ZM14.7543 2.35955L16.9801 4.58533C16.3185 4.99451 15.5535 5.21345 14.7543 5.21345C13.955 5.21345 13.1902 4.9946 12.5285 4.58533L14.7543 2.35955ZM7.48655 14.0791L5.26077 11.8532L7.48655 9.62742C7.89573 10.289 8.11468 11.054 8.11468 11.8532C8.11468 12.6524 7.89583 13.4174 7.48655 14.0791ZM22.4624 29.0549L20.237 26.8295C21.5957 25.991 23.3289 25.991 24.6877 26.8295L22.4624 29.0549ZM26.0948 25.4226C23.9367 23.8572 20.9881 23.8572 18.8301 25.4226L8.89348 15.4859C9.65608 14.4371 10.0678 13.1772 10.0678 11.8532C10.0678 10.5291 9.65618 9.26931 8.89348 8.22048L11.1217 5.99236C12.1705 6.75496 13.4303 7.16667 14.7544 7.16667C16.0785 7.16667 17.3383 6.75496 18.3871 5.99236L20.4993 8.10456C20.0436 8.17185 19.5991 8.32204 19.1847 8.553C18.4847 8.94304 17.9355 9.52712 17.5935 10.2338C16.4919 10.4378 15.4721 10.9711 14.6721 11.771C12.5017 13.9415 12.5017 17.473 14.6722 19.6435C15.7574 20.7287 17.1828 21.2714 18.6084 21.2714C20.0339 21.2714 21.4595 20.7288 22.5448 19.6435C23.2508 18.9375 23.7454 18.0697 23.9932 17.124L27.2905 18.243C26.9193 19.9626 27.2994 21.7716 28.3249 23.1925L26.0948 25.4226ZM20.1574 15.8218C20.166 15.8249 20.1746 15.828 20.1833 15.8309L22.1361 16.4937C21.9886 17.1593 21.6549 17.7712 21.1637 18.2625C19.7547 19.6713 17.4621 19.6715 16.0533 18.2625C14.6444 16.8536 14.6444 14.5611 16.0533 13.1521C16.3932 12.8121 16.7943 12.5464 17.2313 12.3662C17.4116 13.8664 18.4917 15.2036 20.1574 15.8218ZM29.7321 21.7852C29.3551 21.171 29.1418 20.4699 29.1081 19.7544C29.5759 20.0926 30.1476 20.4239 30.8304 20.6869L29.7321 21.7852ZM38.5409 16.209C37.6153 17.7263 35.8201 19.2794 33.8848 19.2794C33.5227 19.2794 33.1833 19.2536 32.866 19.2077C32.8648 19.2075 32.8635 19.2073 32.8622 19.2071C30.7533 18.9008 29.6188 17.7021 29.2449 17.2275C29.2249 17.1982 29.1401 17.0872 29.1275 17.0687C29.0137 16.8654 28.8272 16.7019 28.5893 16.6212L20.8248 13.9859C19.5858 13.5209 18.9308 12.4598 19.231 11.4016C19.2312 11.401 19.2314 11.4003 19.2316 11.3996C19.2319 11.3988 19.2321 11.3979 19.2323 11.3971C19.3718 10.9098 19.6923 10.5056 20.1353 10.2589C20.5753 10.0136 21.084 9.95281 21.5692 10.0873L30.3185 12.8598C30.8327 13.023 31.3816 12.7381 31.5445 12.2239C31.7074 11.7097 31.4227 11.1609 30.9085 10.9979L23.95 8.79285L23.8893 8.7321C23.8887 8.73152 23.8881 8.73083 23.8874 8.73025L20.2849 5.12771L23.3814 4.01892C23.3918 4.01511 23.4047 4.01033 23.4151 4.00613C23.4177 4.00505 23.4228 4.0031 23.4253 4.00203C23.4386 3.99665 23.4517 3.99099 23.4647 3.98503C25.558 3.02292 27.5479 3.5988 28.3279 3.90212C31.2754 5.22839 32.8487 6.13552 33.9981 6.79831C35.5961 7.7199 36.3661 8.16394 38.5409 8.34353V16.209ZM42.2405 15.6216H40.4941V7.0822H42.2405V15.6216ZM48.0468 15.6216H44.1936V5.26247H48.0468V15.6216Z" fill="#0C1E41"/>
</g>
<defs>
<clipPath id="clip0">
<rect width="50" height="50" fill="white"/>
</clipPath>
</defs>
</svg>
