<svg width="40" height="40" viewBox="0 0 40 40" fill="none" xmlns="http://www.w3.org/2000/svg">
<g clip-path="url(#clip0)">
<path d="M34.0047 0.0605469C30.6989 0.0605469 28.0095 2.75004 28.0095 6.05585C28.0095 9.36166 30.699 12.0511 34.0047 12.0511C37.3105 12.0511 40 9.36159 40 6.05585C40 2.74997 37.3105 0.0605469 34.0047 0.0605469ZM34.0047 10.8807C31.3442 10.8807 29.1798 8.71625 29.1798 6.05585C29.1798 3.39538 31.3443 1.23091 34.0047 1.23091C36.6652 1.23091 38.8296 3.39538 38.8296 6.05585C38.8296 8.71625 36.6652 10.8807 34.0047 10.8807ZM6.59968 9.44289V9.13555C7.33514 8.90296 7.86984 8.21432 7.86984 7.40294V7.34521C7.86984 6.31154 7.02889 5.47067 5.99531 5.47067C5.60698 5.47067 5.29106 5.15475 5.29106 4.76643V4.70869C5.29106 4.35219 5.58108 4.06218 5.93757 4.06218H6.05304C6.34088 4.06218 6.59672 4.25521 6.67513 4.53157C6.7633 4.84242 7.08671 5.02281 7.39779 4.9348C7.70872 4.84663 7.88927 4.52307 7.80102 4.21214C7.63202 3.61643 7.17012 3.15951 6.59976 2.97795V2.66874C6.59976 2.34557 6.33776 2.08356 6.01458 2.08356C5.6914 2.08356 5.4294 2.34557 5.4294 2.66874V2.96469C4.6742 3.18511 4.12077 3.88327 4.12077 4.70869V4.76643C4.12077 5.80009 4.96172 6.64104 5.99538 6.64104C6.38371 6.64104 6.69955 6.95696 6.69955 7.34521V7.40294C6.69955 7.75944 6.40954 8.04945 6.05304 8.04945H5.93757C5.65317 8.04945 5.39826 7.85939 5.31759 7.58724C5.22575 7.27732 4.90008 7.10076 4.59025 7.19243C4.28041 7.28427 4.10369 7.60994 4.19544 7.91978C4.37264 8.51752 4.8489 8.97318 5.42932 9.14468V9.44289C5.42932 9.76606 5.69132 10.0281 6.0145 10.0281C6.33768 10.0281 6.59968 9.76606 6.59968 9.44289ZM20.0451 10.0281C20.3682 10.0281 20.6302 9.76606 20.6302 9.44289V9.13555C21.3657 8.90296 21.9004 8.21432 21.9004 7.40294V7.34521C21.9004 6.31154 21.0595 5.47067 20.0259 5.47067C19.6375 5.47067 19.3217 5.15475 19.3217 4.76643V4.70869C19.3217 4.35219 19.6117 4.06218 19.9682 4.06218H20.0836C20.3715 4.06218 20.6273 4.25521 20.7057 4.53157C20.7939 4.84242 21.1172 5.02281 21.4284 4.9348C21.7393 4.84663 21.9198 4.52307 21.8316 4.21214C21.6626 3.61643 21.2006 3.15951 20.6302 2.97795V2.66874C20.6302 2.34557 20.3682 2.08356 20.0451 2.08356C19.7219 2.08356 19.4599 2.34557 19.4599 2.66874V2.96469C18.7047 3.18511 18.1513 3.88327 18.1513 4.70869V4.76643C18.1513 5.80009 18.9922 6.64104 20.0258 6.64104C20.4141 6.64104 20.73 6.95696 20.73 7.34521V7.40294C20.73 7.75944 20.4399 8.04945 20.0834 8.04945H19.9681C19.6837 8.04945 19.4287 7.85939 19.3481 7.58724C19.2562 7.27732 18.9304 7.10076 18.6207 7.19243C18.3109 7.28427 18.1342 7.60994 18.2259 7.91978C18.4031 8.51752 18.8794 8.97318 19.4598 9.14468V9.44289C19.4599 9.76606 19.7219 10.0281 20.0451 10.0281ZM16.5805 10.9275C17.64 11.7008 18.8806 12.0843 20.118 12.0843C21.4866 12.0843 22.851 11.6151 23.9617 10.685C24.2094 10.4776 24.2421 10.1084 24.0347 9.86071C23.8272 9.61298 23.4581 9.58021 23.2103 9.78776C21.5087 11.2128 19.0662 11.2928 17.2705 9.98219C15.1216 8.41375 14.6493 5.38937 16.2177 3.24043C16.9775 2.19943 18.0972 1.51664 19.3705 1.31775C20.6441 1.11902 21.9185 1.42784 22.9595 2.18764C24.8231 3.54784 25.4647 6.04782 24.4852 8.13216C24.3477 8.42467 24.4734 8.77321 24.7659 8.91068C25.0584 9.04816 25.407 8.92254 25.5444 8.62995C26.7619 6.03924 25.9651 2.93231 23.6495 1.2423C22.356 0.298209 20.7723 -0.0857486 19.1901 0.161432C17.6078 0.408535 16.2166 1.25697 15.2725 2.55046C13.3235 5.2206 13.9103 8.97857 16.5805 10.9275ZM30.0366 24.9526H29.5493C29.2261 24.9526 28.9641 25.2146 28.9641 25.5377C28.9641 25.8609 29.2261 26.1229 29.5493 26.1229H30.0366C30.5928 26.1229 31.0452 26.5754 31.0452 27.1315C31.0452 27.6877 30.5928 28.1402 30.0366 28.1402H28.6017C28.0787 26.5606 27.02 25.1926 25.5578 24.2761C25.2839 24.1045 24.9228 24.1874 24.7512 24.4612C24.5795 24.735 24.6624 25.0961 24.9362 25.2678C26.265 26.1006 27.1964 27.3777 27.5901 28.8431C27.5945 28.865 27.6006 28.8863 27.6074 28.9073C27.734 29.4001 27.8002 29.9136 27.8002 30.4383C27.8002 33.8004 25.0649 36.5356 21.7028 36.5356H17.887C15.1185 36.5356 12.6936 34.6681 11.9901 31.9942C11.9495 31.8396 11.8473 31.7084 11.7075 31.631L9.63225 30.483C9.60978 30.4706 9.59589 30.4469 9.59589 30.4212V28.2409C9.59589 28.202 9.62757 28.1703 9.6665 28.1703H11.8428C12.0691 28.1703 12.2752 28.0398 12.3718 27.8352C12.8089 26.911 13.4776 26.109 14.2994 25.5087V25.6311C14.2994 25.9542 14.5614 26.2162 14.8846 26.2162C15.2078 26.2162 15.4698 25.9542 15.4698 25.6311V22.0525C15.8904 22.2782 16.3681 22.6281 16.7084 23.1533C17.3596 24.1582 17.057 25.1409 16.9487 25.4181C16.8311 25.7191 16.9798 26.0585 17.2809 26.1761C17.3508 26.2034 17.4228 26.2164 17.4937 26.2164C17.7277 26.2164 17.9486 26.075 18.0389 25.844C18.1289 25.6133 18.3103 25.0514 18.2794 24.3409H21.7029C22.0627 24.3409 22.4232 24.3724 22.7744 24.4347C22.809 24.4409 22.8433 24.4438 22.8772 24.4438C23.1556 24.4438 23.4024 24.2443 23.4527 23.9606C23.5091 23.6424 23.2968 23.3387 22.9786 23.2824C22.5602 23.2082 22.131 23.1706 21.7028 23.1706H18.029C17.9434 22.9555 17.8328 22.7366 17.6906 22.517C16.8913 21.2836 15.5813 20.7777 15.0552 20.6174C14.8777 20.5634 14.6853 20.5966 14.5363 20.7069C14.3873 20.8173 14.2994 20.9917 14.2994 21.1772V24.1181C13.1132 24.7936 12.1302 25.7986 11.4831 27.0001H9.66643C8.98215 27.0001 8.42545 27.5568 8.42545 28.241V30.4214C8.42545 30.8727 8.67084 31.2888 9.06572 31.5072L10.9273 32.5371C11.4169 34.1651 12.4478 35.5252 13.7901 36.4411V39.0747C13.7901 39.5515 14.178 39.9395 14.6548 39.9395H15.8481C16.1746 39.9395 16.4697 39.7589 16.6182 39.4682L17.5239 37.696C17.6444 37.702 17.7653 37.7061 17.887 37.7061H21.7028C21.8256 37.7061 21.9475 37.703 22.0688 37.6969L22.9739 39.4682C23.1225 39.7589 23.4176 39.9395 23.744 39.9395H24.9373C25.4141 39.9395 25.8021 39.5515 25.8021 39.0747V36.4364C27.7138 35.1257 28.9706 32.9262 28.9706 30.4383C28.9706 30.0565 28.9409 29.6798 28.8837 29.3105H30.0368C31.2383 29.3105 32.2158 28.333 32.2158 27.1315C32.2158 25.93 31.2381 24.9526 30.0366 24.9526ZM15.661 38.7691H14.9604V37.0898C15.3869 37.2776 15.8334 37.425 16.295 37.5285L15.661 38.7691ZM24.6316 38.7691H23.9309L23.2974 37.5294C23.7603 37.4254 24.2066 37.277 24.6316 37.0891V38.7691H24.6316ZM11.9905 6.05585C11.9905 2.75004 9.30104 0.0605469 5.99531 0.0605469C2.6895 0.0605469 0 2.74997 0 6.05585C0 9.36166 2.6895 12.0511 5.99531 12.0511C9.30112 12.0511 11.9905 9.36159 11.9905 6.05585ZM1.17036 6.05585C1.17036 3.39538 3.33484 1.23091 5.99531 1.23091C8.65578 1.23091 10.8202 3.39538 10.8202 6.05585C10.8202 8.71633 8.6557 10.8807 5.99531 10.8807C3.33484 10.8807 1.17036 8.71625 1.17036 6.05585ZM34.0047 13.3661C33.6815 13.3661 33.4195 13.6281 33.4195 13.9513V14.7707C33.4195 15.7387 32.632 16.5262 31.664 16.5262H20.5852V13.9513C20.5852 13.6281 20.3232 13.3661 20 13.3661C19.6769 13.3661 19.4149 13.6281 19.4149 13.9513V16.5262H8.33603C7.36799 16.5262 6.58049 15.7387 6.58049 14.7707V13.9513C6.58049 13.6281 6.31848 13.3661 5.99531 13.3661C5.67213 13.3661 5.41012 13.6281 5.41012 13.9513V14.7707C5.41012 16.3841 6.72265 17.6966 8.33603 17.6966H19.4149V20.8281C19.4149 21.1513 19.6769 21.4133 20 21.4133C20.3232 21.4133 20.5852 21.1513 20.5852 20.8281V17.6966H31.664C33.2774 17.6966 34.59 16.3841 34.59 14.7707V13.9513C34.5899 13.6281 34.3279 13.3661 34.0047 13.3661ZM14.6069 28.7065C14.6069 29.0297 14.8691 29.2917 15.1925 29.2917C15.5159 29.2917 15.7781 29.0297 15.7781 28.7065C15.7781 28.3834 15.5159 28.1214 15.1925 28.1214C14.8691 28.1214 14.6069 28.3834 14.6069 28.7065ZM34.0047 5.47067C33.6164 5.47067 33.3005 5.15475 33.3005 4.76643V4.70869C33.3005 4.35219 33.5905 4.06218 33.947 4.06218H34.0625C34.3503 4.06218 34.6062 4.25521 34.6846 4.53157C34.7728 4.84242 35.0961 5.02281 35.4073 4.9348C35.7182 4.84663 35.8987 4.52307 35.8105 4.21214C35.6415 3.61643 35.1796 3.15951 34.6092 2.97795V2.66874C34.6092 2.34557 34.3472 2.08356 34.024 2.08356C33.7009 2.08356 33.4389 2.34557 33.4389 2.66874V2.96469C32.6837 3.18511 32.1302 3.88327 32.1302 4.70869V4.76643C32.1302 5.80009 32.9712 6.64104 34.0048 6.64104C34.3931 6.64104 34.709 6.95696 34.709 7.34521V7.40294C34.709 7.75944 34.419 8.04945 34.0625 8.04945H33.947C33.6626 8.04945 33.4076 7.85939 33.3271 7.58724C33.2351 7.2774 32.9096 7.10083 32.5996 7.19251C32.2898 7.28435 32.1131 7.61002 32.2049 7.91993C32.3821 8.51768 32.8584 8.97326 33.4389 9.14476V9.44297C33.4389 9.76614 33.7009 10.0281 34.024 10.0281C34.3472 10.0281 34.6092 9.76614 34.6092 9.44297V9.13563C35.3447 8.90304 35.8794 8.2144 35.8794 7.40302V7.34528C35.8793 6.31154 35.0384 5.47067 34.0047 5.47067Z" fill="#5E6D85"/>
</g>
<defs>
<clipPath id="clip0">
<rect width="40" height="40" fill="white"/>
</clipPath>
</defs>
</svg>
