<svg width="51" height="50" viewBox="0 0 51 50" fill="none" xmlns="http://www.w3.org/2000/svg">
<g clip-path="url(#clip0)">
<path d="M46.7212 1.07129H3.99465C2.18194 1.07129 0.707031 2.5463 0.707031 4.35891V31.474C0.707031 31.9276 1.07516 32.2957 1.5287 32.2957H49.1871C49.6406 32.2957 50.0087 31.9276 50.0087 31.474V4.35891C50.0088 2.5463 48.5339 1.07129 46.7212 1.07129ZM48.3654 30.6524H2.35046V4.35891C2.35046 3.45174 3.08835 2.71471 3.99465 2.71471H46.7212C47.6275 2.71471 48.3654 3.45174 48.3654 4.35891V30.6524Z" fill="#41526E"/>
<path d="M49.1872 30.6523H1.5287C1.07516 30.6523 0.707031 31.0205 0.707031 31.474V35.5817C0.707031 37.3944 2.18194 38.8693 3.99465 38.8693H46.7212C48.5339 38.8693 50.0088 37.3944 50.0088 35.5817V31.474C50.0088 31.0205 49.6407 30.6523 49.1872 30.6523ZM48.3654 35.5817C48.3654 36.4889 47.6275 37.2259 46.7212 37.2259H3.99465C3.08835 37.2259 2.35046 36.4889 2.35046 35.5817V32.2958H48.3655V35.5817H48.3654Z" fill="#41526E"/>
<path d="M27.8231 33.9395H22.893C22.4394 33.9395 22.0713 34.3076 22.0713 34.7611C22.0713 35.2147 22.4394 35.5828 22.893 35.5828H27.8231C28.2767 35.5828 28.6448 35.2147 28.6448 34.7611C28.6448 34.3076 28.2767 33.9395 27.8231 33.9395Z" fill="#41526E"/>
<path d="M45.9006 4.3584H4.81581C4.36227 4.3584 3.99414 4.72652 3.99414 5.18006V31.4744C3.99414 31.9279 4.36227 32.296 4.81581 32.296H45.9007C46.3542 32.296 46.7223 31.9279 46.7223 31.4744V5.18006C46.7223 4.72652 46.3542 4.3584 45.9006 4.3584ZM45.0789 30.6526H5.63747V6.00173H45.0789V30.6526Z" fill="#41526E"/>
<path d="M36.0401 43.7998H14.676C13.317 43.7998 12.2109 44.9058 12.2109 46.2649C12.2109 47.624 13.317 48.73 14.676 48.73H36.0402C37.3992 48.73 38.5053 47.624 38.5053 46.2649C38.5053 44.9058 37.3992 43.7998 36.0401 43.7998ZM36.0401 47.0866H14.676C14.2225 47.0866 13.8544 46.7177 13.8544 46.2649C13.8544 45.8121 14.2225 45.4432 14.676 45.4432H36.0402C36.4937 45.4432 36.8618 45.8121 36.8618 46.2649C36.8618 46.7177 36.4937 47.0866 36.0401 47.0866Z" fill="#41526E"/>
<path d="M34.397 43.8001C31.6706 43.8001 30.2885 41.865 30.2885 38.0482C30.2885 37.5947 29.9203 37.2266 29.4668 37.2266H21.2499C20.7963 37.2266 20.4282 37.5947 20.4282 38.0482C20.4282 41.865 19.0461 43.8001 16.3197 43.8001C15.8662 43.8001 15.498 44.1682 15.498 44.6217C15.498 45.0753 15.8662 45.4434 16.3197 45.4434H34.397C34.8505 45.4434 35.2186 45.0753 35.2186 44.6217C35.2186 44.1682 34.8505 43.8001 34.397 43.8001ZM20.3221 43.8001C21.3337 42.6793 21.9293 41.0104 22.0493 38.8699H28.6681C28.7872 41.0104 29.3829 42.6793 30.3953 43.8001H20.3221Z" fill="#41526E"/>
<path d="M35.2188 7.64551H12.2113C11.7578 7.64551 11.3896 8.01363 11.3896 8.46717V12.5757C11.3896 13.0292 11.7578 13.3974 12.2113 13.3974H35.2188C35.6723 13.3974 36.0405 13.0292 36.0405 12.5757V8.46717C36.0405 8.01363 35.6723 7.64551 35.2188 7.64551ZM34.3971 11.754H13.033V9.28893H34.3971V11.754Z" fill="#41526E"/>
<path d="M22.071 16.6836H15.4974C15.0439 16.6836 14.6758 17.0517 14.6758 17.5053V20.792C14.6758 21.2456 15.0439 21.6137 15.4974 21.6137H22.071C22.5246 21.6137 22.8927 21.2456 22.8927 20.792V17.5053C22.8927 17.0517 22.5246 16.6836 22.071 16.6836ZM21.2493 19.9703H16.3191V18.3269H21.2493V19.9703Z" fill="#41526E"/>
<path d="M35.2188 7.64551H12.2113C11.7578 7.64551 11.3896 8.01363 11.3896 8.46717V24.0794C11.3896 24.5329 11.7578 24.901 12.2113 24.901H31.7727C32.0331 24.901 32.2771 24.7787 32.4317 24.5699C32.587 24.3612 32.6347 24.0917 32.5599 23.8427L31.5196 20.3743L34.9831 21.4138C35.2321 21.4886 35.5016 21.441 35.7094 21.2856C35.9181 21.1312 36.0405 20.8863 36.0405 20.6266V8.46717C36.0405 8.01363 35.6723 7.64551 35.2188 7.64551ZM34.3971 19.5223L30.5293 18.3621C30.2393 18.275 29.9263 18.3547 29.7126 18.5684C29.4981 18.7828 29.4193 19.0958 29.5063 19.386L30.6682 23.2578H13.033V9.28893H34.3971V19.5223Z" fill="#41526E"/>
<path d="M39.9708 25.2821L37.9873 23.2986L39.0908 22.1951C39.2954 21.9905 39.3775 21.693 39.3068 21.4128C39.2362 21.1326 39.0234 20.9108 38.7464 20.827L30.5295 18.3619C30.2395 18.2747 29.9264 18.3545 29.7128 18.5681C29.4983 18.7818 29.4195 19.0956 29.5065 19.3849L31.9716 27.6018C32.0546 27.8795 32.2772 28.0924 32.5574 28.163C32.8368 28.2321 33.1351 28.1515 33.3397 27.9469L34.5016 26.7842L36.4851 28.7686C36.6388 28.9231 36.8483 29.0093 37.066 29.0093C37.2837 29.0093 37.4933 28.9231 37.647 28.7686L39.9707 26.444C40.292 26.1228 40.292 25.6035 39.9708 25.2821ZM37.066 27.0258L35.26 25.2189C35.0504 25.0094 34.776 24.905 34.5016 24.905C34.2263 24.905 33.9518 25.0101 33.7432 25.218L33.1499 25.8113L31.5188 20.3741L36.956 22.0052L36.32 22.6412C36.1449 22.8171 36.0488 23.0505 36.0488 23.2986C36.0488 23.5476 36.1458 23.7826 36.3216 23.9568L38.2279 25.8631L37.066 27.0258Z" fill="#41526E"/>
</g>
<defs>
<clipPath id="clip0">
<rect width="49.3018" height="49.3018" fill="white" transform="translate(0.707031 0.25)"/>
</clipPath>
</defs>
</svg>
