<svg width="42" height="43" viewBox="0 0 42 43" fill="none" xmlns="http://www.w3.org/2000/svg">
<path d="M40.4936 24.0688C39.5917 23.8456 38.68 24.3961 38.457 25.2982C36.5083 33.181 29.4678 38.6862 21.3358 38.6862C11.6115 38.6862 3.7003 30.7751 3.7003 21.0505C3.7003 11.326 11.6115 3.41509 21.3358 3.41509C26.2738 3.41509 30.8697 5.45001 34.1509 8.92606L32.1385 10.3179C31.3054 10.8942 31.3938 12.1524 32.2996 12.6061L39.6686 16.2987C40.6099 16.7704 41.7009 16.0159 41.5918 14.9686L40.7372 6.7705C40.6322 5.76289 39.4862 5.23614 38.653 5.8124L36.9442 6.99423C33.0181 2.62375 27.3942 0.0507812 21.3358 0.0507812C9.75654 0.0507812 0.335999 9.47132 0.335999 21.0508C0.335999 32.6302 9.75654 42.0508 21.3358 42.0508C31.0187 42.0508 39.4023 35.494 41.723 26.1057C41.946 25.2035 41.3954 24.2918 40.4936 24.0688Z" fill="#0C1E41"/>
<path d="M19.9716 13.3418C19.0425 13.3418 18.2894 14.0949 18.2894 15.0239V22.9736C18.2894 23.9026 19.0425 24.6557 19.9716 24.6557H32.1967C33.1258 24.6557 33.8789 23.9026 33.8789 22.9736C33.8789 22.0445 33.1258 21.2914 32.1967 21.2914H21.6537V15.0239C21.6537 14.0947 20.9006 13.3418 19.9716 13.3418Z" fill="#0C1E41"/>
</svg>
