<svg width="42" height="43" viewBox="0 0 42 43" fill="none" xmlns="http://www.w3.org/2000/svg">
<g clip-path="url(#clip0)">
<path d="M38.3086 0.0507812H23.4609C21.4255 0.0507812 19.7695 1.70679 19.7695 3.74219V8.66406C19.7695 10.6995 21.4255 12.3555 23.4609 12.3555H29.6133V14.8984H23.4609C21.4255 14.8984 19.7695 16.5541 19.7695 18.5895V23.5114C19.7695 25.5471 21.4255 27.2028 23.4609 27.2028H29.6133V29.7458H23.4609C21.4255 29.7458 19.7695 31.4018 19.7695 33.4372V38.3591C19.7695 40.3945 21.4255 42.0505 23.4609 42.0505H38.3086C40.344 42.0505 42 40.3945 42 38.3591V33.4372C42 31.4018 40.344 29.7458 38.3086 29.7458H32.0742V27.2028H38.3086C40.344 27.2028 42 25.5471 42 23.5114V18.5895C42 16.5541 40.344 14.8984 38.3086 14.8984H32.0742V12.3555H38.3086C40.344 12.3555 42 10.6995 42 8.66406V3.74219C42 1.70679 40.344 0.0507812 38.3086 0.0507812ZM39.5391 33.4372V38.3591C39.5391 39.0377 38.987 39.5895 38.3086 39.5895H23.4609C22.7823 39.5895 22.2305 39.0377 22.2305 38.3591V33.4372C22.2305 32.7588 22.7823 32.2067 23.4609 32.2067H38.3086C38.987 32.2067 39.5391 32.7588 39.5391 33.4372ZM39.5391 18.5895V23.5114C39.5391 24.1901 38.987 24.7419 38.3086 24.7419H23.4609C22.7823 24.7419 22.2305 24.1901 22.2305 23.5114V18.5895C22.2305 17.9112 22.7823 17.3594 23.4609 17.3594H38.3086C38.987 17.3594 39.5391 17.9112 39.5391 18.5895ZM39.5391 8.66406C39.5391 9.34242 38.987 9.89453 38.3086 9.89453H23.4609C22.7823 9.89453 22.2305 9.34242 22.2305 8.66406V3.74219C22.2305 3.06351 22.7823 2.51172 23.4609 2.51172H38.3086C38.987 2.51172 39.5391 3.06351 39.5391 3.74219V8.66406Z" fill="#0C1E41"/>
<path d="M6.23438 37.1289C6.91402 37.1289 7.46484 36.5781 7.46484 35.8984C7.46484 35.2191 6.91402 34.668 6.23438 34.668C4.18904 34.668 2.46094 32.9777 2.46094 30.9766C2.46094 30.2972 1.91011 29.7461 1.23047 29.7461C0.550827 29.7461 0 30.2972 0 30.9766C0 34.3773 2.83296 37.1289 6.23438 37.1289Z" fill="#0C1E41"/>
<path d="M1.23047 27.2031C1.91011 27.2031 2.46094 26.6523 2.46094 25.9727V21.0508C2.46094 20.3715 1.91011 19.8203 1.23047 19.8203C0.550827 19.8203 0 20.3715 0 21.0508V25.9727C0 26.6523 0.550827 27.2031 1.23047 27.2031Z" fill="#0C1E41"/>
<path d="M1.23047 17.3597C1.91011 17.3597 2.46094 16.8086 2.46094 16.1292V11.1253C2.46094 9.12421 4.18904 7.43392 6.23438 7.43392H12.0141L8.01279 10.1012C7.44722 10.4784 7.29437 11.2423 7.67152 11.8075C8.05028 12.376 8.81516 12.524 9.37784 12.1488L16.7607 7.22724C17.1029 6.99877 17.3086 6.61457 17.3086 6.20313C17.3086 5.79169 17.1029 5.40749 16.7607 5.17934L9.37784 0.257467C8.81227 -0.119364 8.04836 0.0334829 7.67152 0.59873C7.29437 1.1643 7.44722 1.92821 8.01279 2.30504L12.0141 4.97266H6.23438C2.8336 4.97266 0 7.72359 0 11.125V16.1289C0 16.8086 0.550827 17.3597 1.23047 17.3597Z" fill="#0C1E41"/>
<path d="M11.1562 34.668C10.4766 34.668 9.92578 35.2191 9.92578 35.8984C9.92578 36.5781 10.4766 37.1289 11.1562 37.1289H16.0781C16.7578 37.1289 17.3086 36.5781 17.3086 35.8984C17.3086 35.2191 16.7578 34.668 16.0781 34.668H11.1562Z" fill="#0C1E41"/>
<path d="M35.8477 4.97266H25.9219C25.2422 4.97266 24.6914 5.52348 24.6914 6.20312C24.6914 6.88245 25.2422 7.43359 25.9219 7.43359H35.8477C36.527 7.43359 37.0781 6.88245 37.0781 6.20312C37.0781 5.52348 36.527 4.97266 35.8477 4.97266Z" fill="#0C1E41"/>
<path d="M24.6914 21.0508C24.6914 21.7304 25.2422 22.2812 25.9219 22.2812H35.8477C36.527 22.2812 37.0781 21.7304 37.0781 21.0508C37.0781 20.3715 36.527 19.8203 35.8477 19.8203H25.9219C25.2422 19.8203 24.6914 20.3715 24.6914 21.0508Z" fill="#0C1E41"/>
<path d="M24.6914 35.8984C24.6914 36.5781 25.2422 37.1289 25.9219 37.1289H35.8477C36.527 37.1289 37.0781 36.5781 37.0781 35.8984C37.0781 35.2191 36.527 34.668 35.8477 34.668H25.9219C25.2422 34.668 24.6914 35.2188 24.6914 35.8984Z" fill="#0C1E41"/>
</g>
<defs>
<clipPath id="clip0">
<rect width="42" height="42" fill="white" transform="translate(0 0.0507812)"/>
</clipPath>
</defs>
</svg>
