<svg width="1150" height="18" viewBox="0 0 1150 18" fill="none" xmlns="http://www.w3.org/2000/svg">
<path d="M395.66 9L387 0.339746L378.34 9L387 17.6603L395.66 9ZM2 7.5C1.17157 7.5 0.5 8.17157 0.5 9C0.5 9.82843 1.17157 10.5 2 10.5V7.5ZM386 7.5C385.172 7.5 384.5 8.17157 384.5 9C384.5 9.82843 385.172 10.5 386 10.5V7.5ZM381 10.5C381.828 10.5 382.5 9.82843 382.5 9C382.5 8.17157 381.828 7.5 381 7.5V10.5ZM379 7.5C378.172 7.5 377.5 8.17157 377.5 9C377.5 9.82843 378.172 10.5 379 10.5V7.5ZM374 10.5C374.828 10.5 375.5 9.82843 375.5 9C375.5 8.17157 374.828 7.5 374 7.5V10.5ZM372 7.5C371.172 7.5 370.5 8.17157 370.5 9C370.5 9.82843 371.172 10.5 372 10.5V7.5ZM367 10.5C367.828 10.5 368.5 9.82843 368.5 9C368.5 8.17157 367.828 7.5 367 7.5V10.5ZM365 7.5C364.172 7.5 363.5 8.17157 363.5 9C363.5 9.82843 364.172 10.5 365 10.5V7.5ZM360 10.5C360.828 10.5 361.5 9.82843 361.5 9C361.5 8.17157 360.828 7.5 360 7.5V10.5ZM358 7.5C357.172 7.5 356.5 8.17157 356.5 9C356.5 9.82843 357.172 10.5 358 10.5V7.5ZM353 10.5C353.828 10.5 354.5 9.82843 354.5 9C354.5 8.17157 353.828 7.5 353 7.5V10.5ZM351 7.5C350.172 7.5 349.5 8.17157 349.5 9C349.5 9.82843 350.172 10.5 351 10.5V7.5ZM346 10.5C346.828 10.5 347.5 9.82843 347.5 9C347.5 8.17157 346.828 7.5 346 7.5V10.5ZM344 7.5C343.172 7.5 342.5 8.17157 342.5 9C342.5 9.82843 343.172 10.5 344 10.5V7.5ZM339 10.5C339.828 10.5 340.5 9.82843 340.5 9C340.5 8.17157 339.828 7.5 339 7.5V10.5ZM337 7.5C336.172 7.5 335.5 8.17157 335.5 9C335.5 9.82843 336.172 10.5 337 10.5V7.5ZM332 10.5C332.828 10.5 333.5 9.82843 333.5 9C333.5 8.17157 332.828 7.5 332 7.5V10.5ZM330 7.5C329.172 7.5 328.5 8.17157 328.5 9C328.5 9.82843 329.172 10.5 330 10.5V7.5ZM325 10.5C325.828 10.5 326.5 9.82843 326.5 9C326.5 8.17157 325.828 7.5 325 7.5V10.5ZM323 7.5C322.172 7.5 321.5 8.17157 321.5 9C321.5 9.82843 322.172 10.5 323 10.5V7.5ZM318 10.5C318.828 10.5 319.5 9.82843 319.5 9C319.5 8.17157 318.828 7.5 318 7.5V10.5ZM316 7.5C315.172 7.5 314.5 8.17157 314.5 9C314.5 9.82843 315.172 10.5 316 10.5V7.5ZM311 10.5C311.828 10.5 312.5 9.82843 312.5 9C312.5 8.17157 311.828 7.5 311 7.5V10.5ZM309 7.5C308.172 7.5 307.5 8.17157 307.5 9C307.5 9.82843 308.172 10.5 309 10.5V7.5ZM304 10.5C304.828 10.5 305.5 9.82843 305.5 9C305.5 8.17157 304.828 7.5 304 7.5V10.5ZM302 7.5C301.172 7.5 300.5 8.17157 300.5 9C300.5 9.82843 301.172 10.5 302 10.5V7.5ZM297 10.5C297.828 10.5 298.5 9.82843 298.5 9C298.5 8.17157 297.828 7.5 297 7.5V10.5ZM295 7.5C294.172 7.5 293.5 8.17157 293.5 9C293.5 9.82843 294.172 10.5 295 10.5V7.5ZM290 10.5C290.828 10.5 291.5 9.82843 291.5 9C291.5 8.17157 290.828 7.5 290 7.5V10.5ZM288 7.5C287.172 7.5 286.5 8.17157 286.5 9C286.5 9.82843 287.172 10.5 288 10.5V7.5ZM283 10.5C283.828 10.5 284.5 9.82843 284.5 9C284.5 8.17157 283.828 7.5 283 7.5V10.5ZM281 7.5C280.172 7.5 279.5 8.17157 279.5 9C279.5 9.82843 280.172 10.5 281 10.5V7.5ZM276 10.5C276.828 10.5 277.5 9.82843 277.5 9C277.5 8.17157 276.828 7.5 276 7.5V10.5ZM274 7.5C273.172 7.5 272.5 8.17157 272.5 9C272.5 9.82843 273.172 10.5 274 10.5V7.5ZM269 10.5C269.828 10.5 270.5 9.82843 270.5 9C270.5 8.17157 269.828 7.5 269 7.5V10.5ZM267 7.5C266.172 7.5 265.5 8.17157 265.5 9C265.5 9.82843 266.172 10.5 267 10.5V7.5ZM262 10.5C262.828 10.5 263.5 9.82843 263.5 9C263.5 8.17157 262.828 7.5 262 7.5V10.5ZM260 7.5C259.172 7.5 258.5 8.17157 258.5 9C258.5 9.82843 259.172 10.5 260 10.5V7.5ZM255 10.5C255.828 10.5 256.5 9.82843 256.5 9C256.5 8.17157 255.828 7.5 255 7.5V10.5ZM253 7.5C252.172 7.5 251.5 8.17157 251.5 9C251.5 9.82843 252.172 10.5 253 10.5V7.5ZM248 10.5C248.828 10.5 249.5 9.82843 249.5 9C249.5 8.17157 248.828 7.5 248 7.5V10.5ZM246 7.5C245.172 7.5 244.5 8.17157 244.5 9C244.5 9.82843 245.172 10.5 246 10.5V7.5ZM241 10.5C241.828 10.5 242.5 9.82843 242.5 9C242.5 8.17157 241.828 7.5 241 7.5V10.5ZM239 7.5C238.172 7.5 237.5 8.17157 237.5 9C237.5 9.82843 238.172 10.5 239 10.5V7.5ZM234 10.5C234.828 10.5 235.5 9.82843 235.5 9C235.5 8.17157 234.828 7.5 234 7.5V10.5ZM232 7.5C231.172 7.5 230.5 8.17157 230.5 9C230.5 9.82843 231.172 10.5 232 10.5V7.5ZM227 10.5C227.828 10.5 228.5 9.82843 228.5 9C228.5 8.17157 227.828 7.5 227 7.5V10.5ZM225 7.5C224.172 7.5 223.5 8.17157 223.5 9C223.5 9.82843 224.172 10.5 225 10.5V7.5ZM220 10.5C220.828 10.5 221.5 9.82843 221.5 9C221.5 8.17157 220.828 7.5 220 7.5V10.5ZM218 7.5C217.172 7.5 216.5 8.17157 216.5 9C216.5 9.82843 217.172 10.5 218 10.5V7.5ZM213 10.5C213.828 10.5 214.5 9.82843 214.5 9C214.5 8.17157 213.828 7.5 213 7.5V10.5ZM211 7.5C210.172 7.5 209.5 8.17157 209.5 9C209.5 9.82843 210.172 10.5 211 10.5V7.5ZM206 10.5C206.828 10.5 207.5 9.82843 207.5 9C207.5 8.17157 206.828 7.5 206 7.5V10.5ZM204 7.5C203.172 7.5 202.5 8.17157 202.5 9C202.5 9.82843 203.172 10.5 204 10.5V7.5ZM199 10.5C199.828 10.5 200.5 9.82843 200.5 9C200.5 8.17157 199.828 7.5 199 7.5V10.5ZM197 7.5C196.172 7.5 195.5 8.17157 195.5 9C195.5 9.82843 196.172 10.5 197 10.5V7.5ZM192 10.5C192.828 10.5 193.5 9.82843 193.5 9C193.5 8.17157 192.828 7.5 192 7.5V10.5ZM190 7.5C189.172 7.5 188.5 8.17157 188.5 9C188.5 9.82843 189.172 10.5 190 10.5V7.5ZM185 10.5C185.828 10.5 186.5 9.82843 186.5 9C186.5 8.17157 185.828 7.5 185 7.5V10.5ZM183 7.5C182.172 7.5 181.5 8.17157 181.5 9C181.5 9.82843 182.172 10.5 183 10.5V7.5ZM178 10.5C178.828 10.5 179.5 9.82843 179.5 9C179.5 8.17157 178.828 7.5 178 7.5V10.5ZM176 7.5C175.172 7.5 174.5 8.17157 174.5 9C174.5 9.82843 175.172 10.5 176 10.5V7.5ZM171 10.5C171.828 10.5 172.5 9.82843 172.5 9C172.5 8.17157 171.828 7.5 171 7.5V10.5ZM169 7.5C168.172 7.5 167.5 8.17157 167.5 9C167.5 9.82843 168.172 10.5 169 10.5V7.5ZM164 10.5C164.828 10.5 165.5 9.82843 165.5 9C165.5 8.17157 164.828 7.5 164 7.5V10.5ZM162 7.5C161.172 7.5 160.5 8.17157 160.5 9C160.5 9.82843 161.172 10.5 162 10.5V7.5ZM157 10.5C157.828 10.5 158.5 9.82843 158.5 9C158.5 8.17157 157.828 7.5 157 7.5V10.5ZM155 7.5C154.172 7.5 153.5 8.17157 153.5 9C153.5 9.82843 154.172 10.5 155 10.5V7.5ZM150 10.5C150.828 10.5 151.5 9.82843 151.5 9C151.5 8.17157 150.828 7.5 150 7.5V10.5ZM148 7.5C147.172 7.5 146.5 8.17157 146.5 9C146.5 9.82843 147.172 10.5 148 10.5V7.5ZM143 10.5C143.828 10.5 144.5 9.82843 144.5 9C144.5 8.17157 143.828 7.5 143 7.5V10.5ZM141 7.5C140.172 7.5 139.5 8.17157 139.5 9C139.5 9.82843 140.172 10.5 141 10.5V7.5ZM136 10.5C136.828 10.5 137.5 9.82843 137.5 9C137.5 8.17157 136.828 7.5 136 7.5V10.5ZM134 7.5C133.172 7.5 132.5 8.17157 132.5 9C132.5 9.82843 133.172 10.5 134 10.5V7.5ZM129 10.5C129.828 10.5 130.5 9.82843 130.5 9C130.5 8.17157 129.828 7.5 129 7.5V10.5ZM127 7.5C126.172 7.5 125.5 8.17157 125.5 9C125.5 9.82843 126.172 10.5 127 10.5V7.5ZM122 10.5C122.828 10.5 123.5 9.82843 123.5 9C123.5 8.17157 122.828 7.5 122 7.5V10.5ZM120 7.5C119.172 7.5 118.5 8.17157 118.5 9C118.5 9.82843 119.172 10.5 120 10.5V7.5ZM115 10.5C115.828 10.5 116.5 9.82843 116.5 9C116.5 8.17157 115.828 7.5 115 7.5V10.5ZM113 7.5C112.172 7.5 111.5 8.17157 111.5 9C111.5 9.82843 112.172 10.5 113 10.5V7.5ZM108 10.5C108.828 10.5 109.5 9.82843 109.5 9C109.5 8.17157 108.828 7.5 108 7.5V10.5ZM106 7.5C105.172 7.5 104.5 8.17157 104.5 9C104.5 9.82843 105.172 10.5 106 10.5V7.5ZM101 10.5C101.828 10.5 102.5 9.82843 102.5 9C102.5 8.17157 101.828 7.5 101 7.5V10.5ZM99 7.5C98.1716 7.5 97.5 8.17157 97.5 9C97.5 9.82843 98.1716 10.5 99 10.5V7.5ZM94 10.5C94.8284 10.5 95.5 9.82843 95.5 9C95.5 8.17157 94.8284 7.5 94 7.5V10.5ZM92 7.5C91.1716 7.5 90.5 8.17157 90.5 9C90.5 9.82843 91.1716 10.5 92 10.5V7.5ZM87 10.5C87.8284 10.5 88.5 9.82843 88.5 9C88.5 8.17157 87.8284 7.5 87 7.5V10.5ZM85 7.5C84.1716 7.5 83.5 8.17157 83.5 9C83.5 9.82843 84.1716 10.5 85 10.5V7.5ZM80 10.5C80.8284 10.5 81.5 9.82843 81.5 9C81.5 8.17157 80.8284 7.5 80 7.5V10.5ZM78 7.5C77.1716 7.5 76.5 8.17157 76.5 9C76.5 9.82843 77.1716 10.5 78 10.5V7.5ZM73 10.5C73.8284 10.5 74.5 9.82843 74.5 9C74.5 8.17157 73.8284 7.5 73 7.5V10.5ZM71 7.5C70.1716 7.5 69.5 8.17157 69.5 9C69.5 9.82843 70.1716 10.5 71 10.5V7.5ZM66 10.5C66.8284 10.5 67.5 9.82843 67.5 9C67.5 8.17157 66.8284 7.5 66 7.5V10.5ZM64 7.5C63.1716 7.5 62.5 8.17157 62.5 9C62.5 9.82843 63.1716 10.5 64 10.5V7.5ZM59 10.5C59.8284 10.5 60.5 9.82843 60.5 9C60.5 8.17157 59.8284 7.5 59 7.5V10.5ZM57 7.5C56.1716 7.5 55.5 8.17157 55.5 9C55.5 9.82843 56.1716 10.5 57 10.5V7.5ZM52 10.5C52.8284 10.5 53.5 9.82843 53.5 9C53.5 8.17157 52.8284 7.5 52 7.5V10.5ZM50 7.5C49.1716 7.5 48.5 8.17157 48.5 9C48.5 9.82843 49.1716 10.5 50 10.5V7.5ZM45 10.5C45.8284 10.5 46.5 9.82843 46.5 9C46.5 8.17157 45.8284 7.5 45 7.5V10.5ZM43 7.5C42.1716 7.5 41.5 8.17157 41.5 9C41.5 9.82843 42.1716 10.5 43 10.5V7.5ZM38 10.5C38.8284 10.5 39.5 9.82843 39.5 9C39.5 8.17157 38.8284 7.5 38 7.5V10.5ZM36 7.5C35.1716 7.5 34.5 8.17157 34.5 9C34.5 9.82843 35.1716 10.5 36 10.5V7.5ZM31 10.5C31.8284 10.5 32.5 9.82843 32.5 9C32.5 8.17157 31.8284 7.5 31 7.5V10.5ZM29 7.5C28.1716 7.5 27.5 8.17157 27.5 9C27.5 9.82843 28.1716 10.5 29 10.5V7.5ZM24 10.5C24.8284 10.5 25.5 9.82843 25.5 9C25.5 8.17157 24.8284 7.5 24 7.5V10.5ZM22 7.5C21.1716 7.5 20.5 8.17157 20.5 9C20.5 9.82843 21.1716 10.5 22 10.5V7.5ZM17 10.5C17.8284 10.5 18.5 9.82843 18.5 9C18.5 8.17157 17.8284 7.5 17 7.5V10.5ZM15 7.5C14.1716 7.5 13.5 8.17157 13.5 9C13.5 9.82843 14.1716 10.5 15 10.5V7.5ZM10 10.5C10.8284 10.5 11.5 9.82843 11.5 9C11.5 8.17157 10.8284 7.5 10 7.5V10.5ZM8 7.5C7.17157 7.5 6.5 8.17157 6.5 9C6.5 9.82843 7.17157 10.5 8 10.5V7.5ZM3 10.5C3.82843 10.5 4.5 9.82843 4.5 9C4.5 8.17157 3.82843 7.5 3 7.5V10.5ZM387 7.5H386V10.5H387V7.5ZM381 7.5H379V10.5H381V7.5ZM374 7.5H372V10.5H374V7.5ZM367 7.5H365V10.5L367 10.5V7.5ZM360 7.5H358V10.5H360V7.5ZM353 7.5H351V10.5H353V7.5ZM346 7.5H344V10.5H346V7.5ZM339 7.5L337 7.5V10.5L339 10.5V7.5ZM332 7.5H330V10.5H332V7.5ZM325 7.5L323 7.5V10.5H325V7.5ZM318 7.5H316V10.5H318V7.5ZM311 7.5L309 7.5V10.5H311V7.5ZM304 7.5H302V10.5H304V7.5ZM297 7.5L295 7.5V10.5H297V7.5ZM290 7.5L288 7.5V10.5H290V7.5ZM283 7.5H281V10.5H283V7.5ZM276 7.5L274 7.5V10.5H276V7.5ZM269 7.5H267V10.5H269V7.5ZM262 7.5L260 7.5V10.5H262V7.5ZM255 7.5H253V10.5H255V7.5ZM248 7.5L246 7.5V10.5H248V7.5ZM241 7.5H239V10.5H241V7.5ZM234 7.5H232V10.5L234 10.5V7.5ZM227 7.5H225V10.5H227V7.5ZM220 7.5H218V10.5H220V7.5ZM213 7.5H211V10.5H213V7.5ZM206 7.5H204V10.5L206 10.5V7.5ZM199 7.5H197V10.5H199V7.5ZM192 7.5H190V10.5H192V7.5ZM185 7.5H183V10.5H185V7.5ZM178 7.5H176V10.5H178V7.5ZM171 7.5H169V10.5H171V7.5ZM164 7.5H162V10.5L164 10.5V7.5ZM157 7.5H155V10.5H157V7.5ZM150 7.5H148V10.5H150V7.5ZM143 7.5H141V10.5H143V7.5ZM136 7.5L134 7.5V10.5L136 10.5V7.5ZM129 7.5H127V10.5H129V7.5ZM122 7.5L120 7.5V10.5H122V7.5ZM115 7.5H113V10.5H115V7.5ZM108 7.5L106 7.5V10.5H108V7.5ZM101 7.5H99V10.5H101V7.5ZM94 7.5L92 7.5V10.5H94V7.5ZM87 7.5L85 7.5V10.5H87V7.5ZM80 7.5H78V10.5H80V7.5ZM73 7.5L71 7.5V10.5H73V7.5ZM66 7.5H64V10.5H66V7.5ZM59 7.5L57 7.5V10.5H59V7.5ZM52 7.5H50V10.5H52V7.5ZM45 7.5L43 7.5V10.5H45V7.5ZM38 7.5H36V10.5H38V7.5ZM31 7.5H29V10.5L31 10.5V7.5ZM24 7.5H22V10.5H24V7.5ZM17 7.5H15V10.5H17V7.5ZM10 7.5H8V10.5H10V7.5ZM3 7.5H2V10.5H3V7.5Z" fill="url(#paint0_linear)"/>
<path d="M763.66 9L755 0.339746L746.34 9L755 17.6603L763.66 9ZM378.34 9L387 17.6603L395.66 9L387 0.339746L378.34 9ZM754.008 7.5C753.18 7.5 752.508 8.17157 752.508 9C752.508 9.82843 753.18 10.5 754.008 10.5V7.5ZM749.049 10.5C749.877 10.5 750.549 9.82843 750.549 9C750.549 8.17157 749.877 7.5 749.049 7.5V10.5ZM747.065 7.5C746.236 7.5 745.565 8.17157 745.565 9C745.565 9.82843 746.236 10.5 747.065 10.5V7.5ZM742.105 10.5C742.934 10.5 743.605 9.82843 743.605 9C743.605 8.17157 742.934 7.5 742.105 7.5V10.5ZM740.121 7.5C739.293 7.5 738.621 8.17157 738.621 9C738.621 9.82843 739.293 10.5 740.121 10.5V7.5ZM735.162 10.5C735.99 10.5 736.662 9.82843 736.662 9C736.662 8.17157 735.99 7.5 735.162 7.5V10.5ZM733.178 7.5C732.349 7.5 731.678 8.17157 731.678 9C731.678 9.82843 732.349 10.5 733.178 10.5V7.5ZM728.218 10.5C729.047 10.5 729.718 9.82843 729.718 9C729.718 8.17157 729.047 7.5 728.218 7.5V10.5ZM726.235 7.5C725.406 7.5 724.735 8.17157 724.735 9C724.735 9.82843 725.406 10.5 726.235 10.5V7.5ZM721.275 10.5C722.103 10.5 722.775 9.82843 722.775 9C722.775 8.17157 722.103 7.5 721.275 7.5V10.5ZM719.291 7.5C718.463 7.5 717.791 8.17157 717.791 9C717.791 9.82843 718.463 10.5 719.291 10.5V7.5ZM714.332 10.5C715.16 10.5 715.832 9.82843 715.832 9C715.832 8.17157 715.16 7.5 714.332 7.5V10.5ZM712.348 7.5C711.519 7.5 710.848 8.17157 710.848 9C710.848 9.82843 711.519 10.5 712.348 10.5V7.5ZM707.388 10.5C708.217 10.5 708.888 9.82843 708.888 9C708.888 8.17157 708.217 7.5 707.388 7.5V10.5ZM705.404 7.5C704.576 7.5 703.904 8.17157 703.904 9C703.904 9.82843 704.576 10.5 705.404 10.5V7.5ZM700.445 10.5C701.273 10.5 701.945 9.82843 701.945 9C701.945 8.17157 701.273 7.5 700.445 7.5V10.5ZM698.461 7.5C697.632 7.5 696.961 8.17157 696.961 9C696.961 9.82843 697.632 10.5 698.461 10.5V7.5ZM693.501 10.5C694.33 10.5 695.001 9.82843 695.001 9C695.001 8.17157 694.33 7.5 693.501 7.5V10.5ZM691.518 7.5C690.689 7.5 690.018 8.17157 690.018 9C690.018 9.82843 690.689 10.5 691.518 10.5V7.5ZM686.558 10.5C687.386 10.5 688.058 9.82843 688.058 9C688.058 8.17157 687.386 7.5 686.558 7.5V10.5ZM684.574 7.5C683.746 7.5 683.074 8.17157 683.074 9C683.074 9.82843 683.746 10.5 684.574 10.5V7.5ZM679.615 10.5C680.443 10.5 681.115 9.82843 681.115 9C681.115 8.17157 680.443 7.5 679.615 7.5V10.5ZM677.631 7.5C676.802 7.5 676.131 8.17157 676.131 9C676.131 9.82843 676.802 10.5 677.631 10.5V7.5ZM672.671 10.5C673.5 10.5 674.171 9.82843 674.171 9C674.171 8.17157 673.5 7.5 672.671 7.5V10.5ZM670.687 7.5C669.859 7.5 669.187 8.17157 669.187 9C669.187 9.82843 669.859 10.5 670.687 10.5V7.5ZM665.728 10.5C666.556 10.5 667.228 9.82843 667.228 9C667.228 8.17157 666.556 7.5 665.728 7.5V10.5ZM663.744 7.5C662.916 7.5 662.244 8.17157 662.244 9C662.244 9.82843 662.916 10.5 663.744 10.5V7.5ZM658.784 10.5C659.613 10.5 660.284 9.82843 660.284 9C660.284 8.17157 659.613 7.5 658.784 7.5V10.5ZM656.801 7.5C655.972 7.5 655.301 8.17157 655.301 9C655.301 9.82843 655.972 10.5 656.801 10.5V7.5ZM651.841 10.5C652.669 10.5 653.341 9.82843 653.341 9C653.341 8.17157 652.669 7.5 651.841 7.5V10.5ZM649.857 7.5C649.029 7.5 648.357 8.17157 648.357 9C648.357 9.82843 649.029 10.5 649.857 10.5V7.5ZM644.898 10.5C645.726 10.5 646.398 9.82843 646.398 9C646.398 8.17157 645.726 7.5 644.898 7.5V10.5ZM642.914 7.5C642.085 7.5 641.414 8.17157 641.414 9C641.414 9.82843 642.085 10.5 642.914 10.5V7.5ZM637.954 10.5C638.783 10.5 639.454 9.82843 639.454 9C639.454 8.17157 638.783 7.5 637.954 7.5V10.5ZM635.97 7.5C635.142 7.5 634.47 8.17157 634.47 9C634.47 9.82843 635.142 10.5 635.97 10.5V7.5ZM631.011 10.5C631.839 10.5 632.511 9.82843 632.511 9C632.511 8.17157 631.839 7.5 631.011 7.5V10.5ZM629.027 7.5C628.199 7.5 627.527 8.17157 627.527 9C627.527 9.82843 628.199 10.5 629.027 10.5V7.5ZM624.067 10.5C624.896 10.5 625.567 9.82843 625.567 9C625.567 8.17157 624.896 7.5 624.067 7.5V10.5ZM622.084 7.5C621.255 7.5 620.584 8.17157 620.584 9C620.584 9.82843 621.255 10.5 622.084 10.5V7.5ZM617.124 10.5C617.952 10.5 618.624 9.82843 618.624 9C618.624 8.17157 617.952 7.5 617.124 7.5V10.5ZM615.14 7.5C614.312 7.5 613.64 8.17157 613.64 9C613.64 9.82843 614.312 10.5 615.14 10.5V7.5ZM610.181 10.5C611.009 10.5 611.681 9.82843 611.681 9C611.681 8.17157 611.009 7.5 610.181 7.5V10.5ZM608.197 7.5C607.368 7.5 606.697 8.17157 606.697 9C606.697 9.82843 607.368 10.5 608.197 10.5V7.5ZM603.237 10.5C604.066 10.5 604.737 9.82843 604.737 9C604.737 8.17157 604.066 7.5 603.237 7.5V10.5ZM601.253 7.5C600.425 7.5 599.753 8.17157 599.753 9C599.753 9.82843 600.425 10.5 601.253 10.5V7.5ZM596.294 10.5C597.122 10.5 597.794 9.82843 597.794 9C597.794 8.17157 597.122 7.5 596.294 7.5V10.5ZM594.31 7.5C593.482 7.5 592.81 8.17157 592.81 9C592.81 9.82843 593.482 10.5 594.31 10.5V7.5ZM589.35 10.5C590.179 10.5 590.85 9.82843 590.85 9C590.85 8.17157 590.179 7.5 589.35 7.5V10.5ZM587.367 7.5C586.538 7.5 585.867 8.17157 585.867 9C585.867 9.82843 586.538 10.5 587.367 10.5V7.5ZM582.407 10.5C583.235 10.5 583.907 9.82843 583.907 9C583.907 8.17157 583.235 7.5 582.407 7.5V10.5ZM580.423 7.5C579.595 7.5 578.923 8.17157 578.923 9C578.923 9.82843 579.595 10.5 580.423 10.5V7.5ZM575.464 10.5C576.292 10.5 576.964 9.82843 576.964 9C576.964 8.17157 576.292 7.5 575.464 7.5V10.5ZM573.48 7.5C572.651 7.5 571.98 8.17157 571.98 9C571.98 9.82843 572.651 10.5 573.48 10.5V7.5ZM568.52 10.5C569.349 10.5 570.02 9.82843 570.02 9C570.02 8.17157 569.349 7.5 568.52 7.5V10.5ZM566.536 7.5C565.708 7.5 565.036 8.17157 565.036 9C565.036 9.82843 565.708 10.5 566.536 10.5V7.5ZM561.577 10.5C562.405 10.5 563.077 9.82843 563.077 9C563.077 8.17157 562.405 7.5 561.577 7.5V10.5ZM559.593 7.5C558.765 7.5 558.093 8.17157 558.093 9C558.093 9.82843 558.765 10.5 559.593 10.5V7.5ZM554.633 10.5C555.462 10.5 556.133 9.82843 556.133 9C556.133 8.17157 555.462 7.5 554.633 7.5V10.5ZM552.65 7.5C551.821 7.5 551.15 8.17157 551.15 9C551.15 9.82843 551.821 10.5 552.65 10.5V7.5ZM547.69 10.5C548.519 10.5 549.19 9.82843 549.19 9C549.19 8.17157 548.519 7.5 547.69 7.5V10.5ZM545.706 7.5C544.878 7.5 544.206 8.17157 544.206 9C544.206 9.82843 544.878 10.5 545.706 10.5V7.5ZM540.747 10.5C541.575 10.5 542.247 9.82843 542.247 9C542.247 8.17157 541.575 7.5 540.747 7.5V10.5ZM538.763 7.5C537.934 7.5 537.263 8.17157 537.263 9C537.263 9.82843 537.934 10.5 538.763 10.5V7.5ZM533.803 10.5C534.632 10.5 535.303 9.82843 535.303 9C535.303 8.17157 534.632 7.5 533.803 7.5V10.5ZM531.819 7.5C530.991 7.5 530.319 8.17157 530.319 9C530.319 9.82843 530.991 10.5 531.819 10.5V7.5ZM526.86 10.5C527.688 10.5 528.36 9.82843 528.36 9C528.36 8.17157 527.688 7.5 526.86 7.5V10.5ZM524.876 7.5C524.048 7.5 523.376 8.17157 523.376 9C523.376 9.82843 524.048 10.5 524.876 10.5V7.5ZM519.917 10.5C520.745 10.5 521.417 9.82843 521.417 9C521.417 8.17157 520.745 7.5 519.917 7.5V10.5ZM517.933 7.5C517.104 7.5 516.433 8.17157 516.433 9C516.433 9.82843 517.104 10.5 517.933 10.5V7.5ZM512.973 10.5C513.802 10.5 514.473 9.82843 514.473 9C514.473 8.17157 513.802 7.5 512.973 7.5V10.5ZM510.989 7.5C510.161 7.5 509.489 8.17157 509.489 9C509.489 9.82843 510.161 10.5 510.989 10.5V7.5ZM506.03 10.5C506.858 10.5 507.53 9.82843 507.53 9C507.53 8.17157 506.858 7.5 506.03 7.5V10.5ZM504.046 7.5C503.217 7.5 502.546 8.17157 502.546 9C502.546 9.82843 503.217 10.5 504.046 10.5V7.5ZM499.086 10.5C499.915 10.5 500.586 9.82843 500.586 9C500.586 8.17157 499.915 7.5 499.086 7.5V10.5ZM497.103 7.5C496.274 7.5 495.603 8.17157 495.603 9C495.603 9.82843 496.274 10.5 497.103 10.5V7.5ZM492.143 10.5C492.971 10.5 493.643 9.82843 493.643 9C493.643 8.17157 492.971 7.5 492.143 7.5V10.5ZM490.159 7.5C489.331 7.5 488.659 8.17157 488.659 9C488.659 9.82843 489.331 10.5 490.159 10.5V7.5ZM485.2 10.5C486.028 10.5 486.7 9.82843 486.7 9C486.7 8.17157 486.028 7.5 485.2 7.5V10.5ZM483.216 7.5C482.387 7.5 481.716 8.17157 481.716 9C481.716 9.82843 482.387 10.5 483.216 10.5V7.5ZM478.256 10.5C479.085 10.5 479.756 9.82843 479.756 9C479.756 8.17157 479.085 7.5 478.256 7.5V10.5ZM476.272 7.5C475.444 7.5 474.772 8.17157 474.772 9C474.772 9.82843 475.444 10.5 476.272 10.5V7.5ZM471.313 10.5C472.141 10.5 472.813 9.82843 472.813 9C472.813 8.17157 472.141 7.5 471.313 7.5V10.5ZM469.329 7.5C468.501 7.5 467.829 8.17157 467.829 9C467.829 9.82843 468.501 10.5 469.329 10.5V7.5ZM464.369 10.5C465.198 10.5 465.869 9.82843 465.869 9C465.869 8.17157 465.198 7.5 464.369 7.5V10.5ZM462.386 7.5C461.557 7.5 460.886 8.17157 460.886 9C460.886 9.82843 461.557 10.5 462.386 10.5V7.5ZM457.426 10.5C458.254 10.5 458.926 9.82843 458.926 9C458.926 8.17157 458.254 7.5 457.426 7.5V10.5ZM455.442 7.5C454.614 7.5 453.942 8.17157 453.942 9C453.942 9.82843 454.614 10.5 455.442 10.5V7.5ZM450.483 10.5C451.311 10.5 451.983 9.82843 451.983 9C451.983 8.17157 451.311 7.5 450.483 7.5V10.5ZM448.499 7.5C447.67 7.5 446.999 8.17157 446.999 9C446.999 9.82843 447.67 10.5 448.499 10.5V7.5ZM443.539 10.5C444.368 10.5 445.039 9.82843 445.039 9C445.039 8.17157 444.368 7.5 443.539 7.5V10.5ZM441.555 7.5C440.727 7.5 440.055 8.17157 440.055 9C440.055 9.82843 440.727 10.5 441.555 10.5V7.5ZM436.596 10.5C437.424 10.5 438.096 9.82843 438.096 9C438.096 8.17157 437.424 7.5 436.596 7.5V10.5ZM434.612 7.5C433.784 7.5 433.112 8.17157 433.112 9C433.112 9.82843 433.784 10.5 434.612 10.5V7.5ZM429.652 10.5C430.481 10.5 431.152 9.82843 431.152 9C431.152 8.17157 430.481 7.5 429.652 7.5V10.5ZM427.669 7.5C426.84 7.5 426.169 8.17157 426.169 9C426.169 9.82843 426.84 10.5 427.669 10.5V7.5ZM422.709 10.5C423.538 10.5 424.209 9.82843 424.209 9C424.209 8.17157 423.538 7.5 422.709 7.5V10.5ZM420.725 7.5C419.897 7.5 419.225 8.17157 419.225 9C419.225 9.82843 419.897 10.5 420.725 10.5V7.5ZM415.766 10.5C416.594 10.5 417.266 9.82843 417.266 9C417.266 8.17157 416.594 7.5 415.766 7.5V10.5ZM413.782 7.5C412.953 7.5 412.282 8.17157 412.282 9C412.282 9.82843 412.953 10.5 413.782 10.5V7.5ZM408.822 10.5C409.651 10.5 410.322 9.82843 410.322 9C410.322 8.17157 409.651 7.5 408.822 7.5V10.5ZM406.838 7.5C406.01 7.5 405.338 8.17157 405.338 9C405.338 9.82843 406.01 10.5 406.838 10.5V7.5ZM401.879 10.5C402.707 10.5 403.379 9.82843 403.379 9C403.379 8.17157 402.707 7.5 401.879 7.5V10.5ZM399.895 7.5C399.067 7.5 398.395 8.17157 398.395 9C398.395 9.82843 399.067 10.5 399.895 10.5V7.5ZM394.936 10.5C395.764 10.5 396.436 9.82843 396.436 9C396.436 8.17157 395.764 7.5 394.936 7.5V10.5ZM392.952 7.5C392.123 7.5 391.452 8.17157 391.452 9C391.452 9.82843 392.123 10.5 392.952 10.5V7.5ZM387.992 10.5C388.821 10.5 389.492 9.82843 389.492 9C389.492 8.17157 388.821 7.5 387.992 7.5V10.5ZM755 7.5H754.008V10.5H755V7.5ZM749.049 7.5H747.065V10.5H749.049V7.5ZM742.105 7.5H740.121V10.5H742.105V7.5ZM735.162 7.5H733.178V10.5L735.162 10.5V7.5ZM728.218 7.5H726.235V10.5H728.218V7.5ZM721.275 7.5H719.291V10.5H721.275V7.5ZM714.332 7.5H712.348V10.5H714.332V7.5ZM707.388 7.5L705.404 7.5V10.5H707.388V7.5ZM700.445 7.5H698.461V10.5H700.445V7.5ZM693.501 7.5L691.518 7.5V10.5H693.501V7.5ZM686.558 7.5H684.574V10.5H686.558V7.5ZM679.615 7.5L677.631 7.5V10.5H679.615V7.5ZM672.671 7.5L670.687 7.5V10.5H672.671V7.5ZM665.728 7.5H663.744V10.5H665.728V7.5ZM658.784 7.5L656.801 7.5V10.5H658.784V7.5ZM651.841 7.5H649.857V10.5H651.841V7.5ZM644.898 7.5L642.914 7.5V10.5H644.898V7.5ZM637.954 7.5H635.97V10.5H637.954V7.5ZM631.011 7.5H629.027V10.5L631.011 10.5V7.5ZM624.067 7.5H622.084V10.5H624.067V7.5ZM617.124 7.5H615.14V10.5H617.124V7.5ZM610.181 7.5H608.197V10.5H610.181V7.5ZM603.237 7.5H601.253V10.5L603.237 10.5V7.5ZM596.294 7.5H594.31V10.5H596.294V7.5ZM589.35 7.5H587.367V10.5L589.35 10.5V7.5ZM582.407 7.5H580.423V10.5H582.407V7.5ZM575.464 7.5H573.48V10.5H575.464V7.5ZM568.52 7.5H566.536V10.5H568.52V7.5ZM561.577 7.5H559.593V10.5L561.577 10.5V7.5ZM554.633 7.5H552.65V10.5H554.633V7.5ZM547.69 7.5L545.706 7.5V10.5H547.69V7.5ZM540.747 7.5H538.763V10.5H540.747V7.5ZM533.803 7.5L531.819 7.5V10.5H533.803V7.5ZM526.86 7.5H524.876V10.5H526.86V7.5ZM519.917 7.5L517.933 7.5V10.5H519.917V7.5ZM512.973 7.5L510.989 7.5V10.5H512.973V7.5ZM506.03 7.5H504.046V10.5H506.03V7.5ZM499.086 7.5L497.103 7.5V10.5H499.086V7.5ZM492.143 7.5H490.159V10.5H492.143V7.5ZM485.2 7.5L483.216 7.5V10.5H485.2V7.5ZM478.256 7.5H476.272V10.5H478.256V7.5ZM471.313 7.5L469.329 7.5V10.5H471.313V7.5ZM464.369 7.5H462.386V10.5H464.369V7.5ZM457.426 7.5H455.442V10.5L457.426 10.5V7.5ZM450.483 7.5H448.499V10.5H450.483V7.5ZM443.539 7.5H441.555V10.5H443.539V7.5ZM436.596 7.5H434.612V10.5H436.596V7.5ZM429.652 7.5H427.669V10.5L429.652 10.5V7.5ZM422.709 7.5H420.725V10.5H422.709V7.5ZM415.766 7.5H413.782V10.5L415.766 10.5V7.5ZM408.822 7.5H406.838V10.5H408.822V7.5ZM401.879 7.5H399.895V10.5H401.879V7.5ZM394.936 7.5H392.952V10.5H394.936V7.5ZM387.992 7.5L387 7.5V10.5H387.992V7.5Z" fill="#96A0AF"/>
<path d="M1149.66 9L1141 0.339746L1132.34 9L1141 17.6603L1149.66 9ZM746.34 9L755 17.6603L763.66 9L755 0.339746L746.34 9ZM1140 7.5C1139.17 7.5 1138.5 8.17157 1138.5 9C1138.5 9.82843 1139.17 10.5 1140 10.5V7.5ZM1134.98 10.5C1135.81 10.5 1136.48 9.82843 1136.48 9C1136.48 8.17157 1135.81 7.5 1134.98 7.5V10.5ZM1132.98 7.5C1132.15 7.5 1131.48 8.17157 1131.48 9C1131.48 9.82843 1132.15 10.5 1132.98 10.5V7.5ZM1127.97 10.5C1128.79 10.5 1129.47 9.82843 1129.47 9C1129.47 8.17157 1128.79 7.5 1127.97 7.5V10.5ZM1125.96 7.5C1125.13 7.5 1124.46 8.17157 1124.46 9C1124.46 9.82843 1125.13 10.5 1125.96 10.5V7.5ZM1120.95 10.5C1121.78 10.5 1122.45 9.82843 1122.45 9C1122.45 8.17157 1121.78 7.5 1120.95 7.5V10.5ZM1118.94 7.5C1118.11 7.5 1117.44 8.17157 1117.44 9C1117.44 9.82843 1118.11 10.5 1118.94 10.5V7.5ZM1113.93 10.5C1114.76 10.5 1115.43 9.82843 1115.43 9C1115.43 8.17157 1114.76 7.5 1113.93 7.5V10.5ZM1111.92 7.5C1111.1 7.5 1110.42 8.17157 1110.42 9C1110.42 9.82843 1111.1 10.5 1111.92 10.5V7.5ZM1106.91 10.5C1107.74 10.5 1108.41 9.82843 1108.41 9C1108.41 8.17157 1107.74 7.5 1106.91 7.5V10.5ZM1104.91 7.5C1104.08 7.5 1103.41 8.17157 1103.41 9C1103.41 9.82843 1104.08 10.5 1104.91 10.5V7.5ZM1099.89 10.5C1100.72 10.5 1101.39 9.82843 1101.39 9C1101.39 8.17157 1100.72 7.5 1099.89 7.5V10.5ZM1097.89 7.5C1097.06 7.5 1096.39 8.17157 1096.39 9C1096.39 9.82843 1097.06 10.5 1097.89 10.5V7.5ZM1092.88 10.5C1093.7 10.5 1094.38 9.82843 1094.38 9C1094.38 8.17157 1093.7 7.5 1092.88 7.5V10.5ZM1090.87 7.5C1090.04 7.5 1089.37 8.17157 1089.37 9C1089.37 9.82843 1090.04 10.5 1090.87 10.5V7.5ZM1085.86 10.5C1086.69 10.5 1087.36 9.82843 1087.36 9C1087.36 8.17157 1086.69 7.5 1085.86 7.5V10.5ZM1083.85 7.5C1083.02 7.5 1082.35 8.17157 1082.35 9C1082.35 9.82843 1083.02 10.5 1083.85 10.5V7.5ZM1078.84 10.5C1079.67 10.5 1080.34 9.82843 1080.34 9C1080.34 8.17157 1079.67 7.5 1078.84 7.5V10.5ZM1076.83 7.5C1076.01 7.5 1075.33 8.17157 1075.33 9C1075.33 9.82843 1076.01 10.5 1076.83 10.5V7.5ZM1071.82 10.5C1072.65 10.5 1073.32 9.82843 1073.32 9C1073.32 8.17157 1072.65 7.5 1071.82 7.5V10.5ZM1069.82 7.5C1068.99 7.5 1068.32 8.17157 1068.32 9C1068.32 9.82843 1068.99 10.5 1069.82 10.5V7.5ZM1064.8 10.5C1065.63 10.5 1066.3 9.82843 1066.3 9C1066.3 8.17157 1065.63 7.5 1064.8 7.5V10.5ZM1062.8 7.5C1061.97 7.5 1061.3 8.17157 1061.3 9C1061.3 9.82843 1061.97 10.5 1062.8 10.5V7.5ZM1057.78 10.5C1058.61 10.5 1059.28 9.82843 1059.28 9C1059.28 8.17157 1058.61 7.5 1057.78 7.5V10.5ZM1055.78 7.5C1054.95 7.5 1054.28 8.17157 1054.28 9C1054.28 9.82843 1054.95 10.5 1055.78 10.5V7.5ZM1050.77 10.5C1051.59 10.5 1052.27 9.82843 1052.27 9C1052.27 8.17157 1051.59 7.5 1050.77 7.5V10.5ZM1048.76 7.5C1047.93 7.5 1047.26 8.17157 1047.26 9C1047.26 9.82843 1047.93 10.5 1048.76 10.5V7.5ZM1043.75 10.5C1044.58 10.5 1045.25 9.82843 1045.25 9C1045.25 8.17157 1044.58 7.5 1043.75 7.5V10.5ZM1041.74 7.5C1040.91 7.5 1040.24 8.17157 1040.24 9C1040.24 9.82843 1040.91 10.5 1041.74 10.5V7.5ZM1036.73 10.5C1037.56 10.5 1038.23 9.82843 1038.23 9C1038.23 8.17157 1037.56 7.5 1036.73 7.5V10.5ZM1034.72 7.5C1033.9 7.5 1033.22 8.17157 1033.22 9C1033.22 9.82843 1033.9 10.5 1034.72 10.5V7.5ZM1029.71 10.5C1030.54 10.5 1031.21 9.82843 1031.21 9C1031.21 8.17157 1030.54 7.5 1029.71 7.5V10.5ZM1027.71 7.5C1026.88 7.5 1026.21 8.17157 1026.21 9C1026.21 9.82843 1026.88 10.5 1027.71 10.5V7.5ZM1022.69 10.5C1023.52 10.5 1024.19 9.82843 1024.19 9C1024.19 8.17157 1023.52 7.5 1022.69 7.5V10.5ZM1020.69 7.5C1019.86 7.5 1019.19 8.17157 1019.19 9C1019.19 9.82843 1019.86 10.5 1020.69 10.5V7.5ZM1015.68 10.5C1016.5 10.5 1017.18 9.82843 1017.18 9C1017.18 8.17157 1016.5 7.5 1015.68 7.5V10.5ZM1013.67 7.5C1012.84 7.5 1012.17 8.17157 1012.17 9C1012.17 9.82843 1012.84 10.5 1013.67 10.5V7.5ZM1008.66 10.5C1009.49 10.5 1010.16 9.82843 1010.16 9C1010.16 8.17157 1009.49 7.5 1008.66 7.5V10.5ZM1006.65 7.5C1005.82 7.5 1005.15 8.17157 1005.15 9C1005.15 9.82843 1005.82 10.5 1006.65 10.5V7.5ZM1001.64 10.5C1002.47 10.5 1003.14 9.82843 1003.14 9C1003.14 8.17157 1002.47 7.5 1001.64 7.5V10.5ZM999.634 7.5C998.805 7.5 998.134 8.17157 998.134 9C998.134 9.82843 998.805 10.5 999.634 10.5V7.5ZM994.621 10.5C995.449 10.5 996.121 9.82843 996.121 9C996.121 8.17157 995.449 7.5 994.621 7.5V10.5ZM992.616 7.5C991.787 7.5 991.116 8.17157 991.116 9C991.116 9.82843 991.787 10.5 992.616 10.5V7.5ZM987.603 10.5C988.431 10.5 989.103 9.82843 989.103 9C989.103 8.17157 988.431 7.5 987.603 7.5V10.5ZM985.597 7.5C984.769 7.5 984.097 8.17157 984.097 9C984.097 9.82843 984.769 10.5 985.597 10.5V7.5ZM980.584 10.5C981.413 10.5 982.084 9.82843 982.084 9C982.084 8.17157 981.413 7.5 980.584 7.5V10.5ZM978.579 7.5C977.751 7.5 977.079 8.17157 977.079 9C977.079 9.82843 977.751 10.5 978.579 10.5V7.5ZM973.566 10.5C974.395 10.5 975.066 9.82843 975.066 9C975.066 8.17157 974.395 7.5 973.566 7.5V10.5ZM971.561 7.5C970.733 7.5 970.061 8.17157 970.061 9C970.061 9.82843 970.733 10.5 971.561 10.5V7.5ZM966.548 10.5C967.377 10.5 968.048 9.82843 968.048 9C968.048 8.17157 967.377 7.5 966.548 7.5V10.5ZM964.543 7.5C963.714 7.5 963.043 8.17157 963.043 9C963.043 9.82843 963.714 10.5 964.543 10.5V7.5ZM959.53 10.5C960.358 10.5 961.03 9.82843 961.03 9C961.03 8.17157 960.358 7.5 959.53 7.5V10.5ZM957.525 7.5C956.696 7.5 956.025 8.17157 956.025 9C956.025 9.82843 956.696 10.5 957.525 10.5V7.5ZM952.512 10.5C953.34 10.5 954.012 9.82843 954.012 9C954.012 8.17157 953.34 7.5 952.512 7.5V10.5ZM950.507 7.5C949.678 7.5 949.007 8.17157 949.007 9C949.007 9.82843 949.678 10.5 950.507 10.5V7.5ZM945.494 10.5C946.322 10.5 946.994 9.82843 946.994 9C946.994 8.17157 946.322 7.5 945.494 7.5V10.5ZM943.488 7.5C942.66 7.5 941.988 8.17157 941.988 9C941.988 9.82843 942.66 10.5 943.488 10.5V7.5ZM938.475 10.5C939.304 10.5 939.975 9.82843 939.975 9C939.975 8.17157 939.304 7.5 938.475 7.5V10.5ZM936.47 7.5C935.642 7.5 934.97 8.17157 934.97 9C934.97 9.82843 935.642 10.5 936.47 10.5V7.5ZM931.457 10.5C932.286 10.5 932.957 9.82843 932.957 9C932.957 8.17157 932.286 7.5 931.457 7.5V10.5ZM929.452 7.5C928.624 7.5 927.952 8.17157 927.952 9C927.952 9.82843 928.624 10.5 929.452 10.5V7.5ZM924.439 10.5C925.268 10.5 925.939 9.82843 925.939 9C925.939 8.17157 925.268 7.5 924.439 7.5V10.5ZM922.434 7.5C921.605 7.5 920.934 8.17157 920.934 9C920.934 9.82843 921.605 10.5 922.434 10.5V7.5ZM917.421 10.5C918.249 10.5 918.921 9.82843 918.921 9C918.921 8.17157 918.249 7.5 917.421 7.5V10.5ZM915.416 7.5C914.587 7.5 913.916 8.17157 913.916 9C913.916 9.82843 914.587 10.5 915.416 10.5V7.5ZM910.403 10.5C911.231 10.5 911.903 9.82843 911.903 9C911.903 8.17157 911.231 7.5 910.403 7.5V10.5ZM908.398 7.5C907.569 7.5 906.898 8.17157 906.898 9C906.898 9.82843 907.569 10.5 908.398 10.5V7.5ZM903.385 10.5C904.213 10.5 904.885 9.82843 904.885 9C904.885 8.17157 904.213 7.5 903.385 7.5V10.5ZM901.379 7.5C900.551 7.5 899.879 8.17157 899.879 9C899.879 9.82843 900.551 10.5 901.379 10.5V7.5ZM896.366 10.5C897.195 10.5 897.866 9.82843 897.866 9C897.866 8.17157 897.195 7.5 896.366 7.5V10.5ZM894.361 7.5C893.533 7.5 892.861 8.17157 892.861 9C892.861 9.82843 893.533 10.5 894.361 10.5V7.5ZM889.348 10.5C890.177 10.5 890.848 9.82843 890.848 9C890.848 8.17157 890.177 7.5 889.348 7.5V10.5ZM887.343 7.5C886.515 7.5 885.843 8.17157 885.843 9C885.843 9.82843 886.515 10.5 887.343 10.5V7.5ZM882.33 10.5C883.158 10.5 883.83 9.82843 883.83 9C883.83 8.17157 883.158 7.5 882.33 7.5V10.5ZM880.325 7.5C879.496 7.5 878.825 8.17157 878.825 9C878.825 9.82843 879.496 10.5 880.325 10.5V7.5ZM875.312 10.5C876.14 10.5 876.812 9.82843 876.812 9C876.812 8.17157 876.14 7.5 875.312 7.5V10.5ZM873.307 7.5C872.478 7.5 871.807 8.17157 871.807 9C871.807 9.82843 872.478 10.5 873.307 10.5V7.5ZM868.294 10.5C869.122 10.5 869.794 9.82843 869.794 9C869.794 8.17157 869.122 7.5 868.294 7.5V10.5ZM866.288 7.5C865.46 7.5 864.788 8.17157 864.788 9C864.788 9.82843 865.46 10.5 866.288 10.5V7.5ZM861.275 10.5C862.104 10.5 862.775 9.82843 862.775 9C862.775 8.17157 862.104 7.5 861.275 7.5V10.5ZM859.27 7.5C858.442 7.5 857.77 8.17157 857.77 9C857.77 9.82843 858.442 10.5 859.27 10.5V7.5ZM854.257 10.5C855.086 10.5 855.757 9.82843 855.757 9C855.757 8.17157 855.086 7.5 854.257 7.5V10.5ZM852.252 7.5C851.424 7.5 850.752 8.17157 850.752 9C850.752 9.82843 851.424 10.5 852.252 10.5V7.5ZM847.239 10.5C848.068 10.5 848.739 9.82843 848.739 9C848.739 8.17157 848.068 7.5 847.239 7.5V10.5ZM845.234 7.5C844.405 7.5 843.734 8.17157 843.734 9C843.734 9.82843 844.405 10.5 845.234 10.5V7.5ZM840.221 10.5C841.049 10.5 841.721 9.82843 841.721 9C841.721 8.17157 841.049 7.5 840.221 7.5V10.5ZM838.216 7.5C837.387 7.5 836.716 8.17157 836.716 9C836.716 9.82843 837.387 10.5 838.216 10.5V7.5ZM833.203 10.5C834.031 10.5 834.703 9.82843 834.703 9C834.703 8.17157 834.031 7.5 833.203 7.5V10.5ZM831.198 7.5C830.369 7.5 829.698 8.17157 829.698 9C829.698 9.82843 830.369 10.5 831.198 10.5V7.5ZM826.185 10.5C827.013 10.5 827.685 9.82843 827.685 9C827.685 8.17157 827.013 7.5 826.185 7.5V10.5ZM824.179 7.5C823.351 7.5 822.679 8.17157 822.679 9C822.679 9.82843 823.351 10.5 824.179 10.5V7.5ZM819.166 10.5C819.995 10.5 820.666 9.82843 820.666 9C820.666 8.17157 819.995 7.5 819.166 7.5V10.5ZM817.161 7.5C816.333 7.5 815.661 8.17157 815.661 9C815.661 9.82843 816.333 10.5 817.161 10.5V7.5ZM812.148 10.5C812.977 10.5 813.648 9.82843 813.648 9C813.648 8.17157 812.977 7.5 812.148 7.5V10.5ZM810.143 7.5C809.315 7.5 808.643 8.17157 808.643 9C808.643 9.82843 809.315 10.5 810.143 10.5V7.5ZM805.13 10.5C805.958 10.5 806.63 9.82843 806.63 9C806.63 8.17157 805.958 7.5 805.13 7.5V10.5ZM803.125 7.5C802.296 7.5 801.625 8.17157 801.625 9C801.625 9.82843 802.296 10.5 803.125 10.5V7.5ZM798.112 10.5C798.94 10.5 799.612 9.82843 799.612 9C799.612 8.17157 798.94 7.5 798.112 7.5V10.5ZM796.107 7.5C795.278 7.5 794.607 8.17157 794.607 9C794.607 9.82843 795.278 10.5 796.107 10.5V7.5ZM791.094 10.5C791.922 10.5 792.594 9.82843 792.594 9C792.594 8.17157 791.922 7.5 791.094 7.5V10.5ZM789.088 7.5C788.26 7.5 787.588 8.17157 787.588 9C787.588 9.82843 788.26 10.5 789.088 10.5V7.5ZM784.075 10.5C784.904 10.5 785.575 9.82843 785.575 9C785.575 8.17157 784.904 7.5 784.075 7.5V10.5ZM782.07 7.5C781.242 7.5 780.57 8.17157 780.57 9C780.57 9.82843 781.242 10.5 782.07 10.5V7.5ZM777.057 10.5C777.886 10.5 778.557 9.82843 778.557 9C778.557 8.17157 777.886 7.5 777.057 7.5V10.5ZM775.052 7.5C774.224 7.5 773.552 8.17157 773.552 9C773.552 9.82843 774.224 10.5 775.052 10.5V7.5ZM770.039 10.5C770.867 10.5 771.539 9.82843 771.539 9C771.539 8.17157 770.867 7.5 770.039 7.5V10.5ZM768.034 7.5C767.205 7.5 766.534 8.17157 766.534 9C766.534 9.82843 767.205 10.5 768.034 10.5V7.5ZM763.021 10.5C763.849 10.5 764.521 9.82843 764.521 9C764.521 8.17157 763.849 7.5 763.021 7.5V10.5ZM761.016 7.5C760.187 7.5 759.516 8.17157 759.516 9C759.516 9.82843 760.187 10.5 761.016 10.5V7.5ZM756.003 10.5C756.831 10.5 757.503 9.82843 757.503 9C757.503 8.17157 756.831 7.5 756.003 7.5V10.5ZM1141 7.5H1140V10.5H1141V7.5ZM1134.98 7.5H1132.98V10.5H1134.98V7.5ZM1127.97 7.5H1125.96V10.5H1127.97V7.5ZM1120.95 7.5H1118.94V10.5L1120.95 10.5V7.5ZM1113.93 7.5H1111.92V10.5H1113.93V7.5ZM1106.91 7.5H1104.91V10.5H1106.91V7.5ZM1099.89 7.5H1097.89V10.5H1099.89V7.5ZM1092.88 7.5H1090.87V10.5L1092.88 10.5V7.5ZM1085.86 7.5H1083.85V10.5H1085.86V7.5ZM1078.84 7.5L1076.83 7.5V10.5H1078.84V7.5ZM1071.82 7.5H1069.82V10.5H1071.82V7.5ZM1064.8 7.5L1062.8 7.5V10.5H1064.8V7.5ZM1057.78 7.5H1055.78V10.5H1057.78V7.5ZM1050.77 7.5L1048.76 7.5V10.5H1050.77V7.5ZM1043.75 7.5H1041.74V10.5H1043.75V7.5ZM1036.73 7.5L1034.72 7.5V10.5H1036.73V7.5ZM1029.71 7.5L1027.71 7.5V10.5H1029.71V7.5ZM1022.69 7.5H1020.69V10.5H1022.69V7.5ZM1015.68 7.5L1013.67 7.5V10.5H1015.68V7.5ZM1008.66 7.5H1006.65V10.5H1008.66V7.5ZM1001.64 7.5L999.634 7.5V10.5H1001.64V7.5ZM994.621 7.5H992.616V10.5H994.621V7.5ZM987.603 7.5L985.597 7.5V10.5H987.603V7.5ZM980.584 7.5H978.579V10.5H980.584V7.5ZM973.566 7.5H971.561V10.5H973.566V7.5ZM966.548 7.5H964.543V10.5H966.548V7.5ZM959.53 7.5H957.525V10.5L959.53 10.5V7.5ZM952.512 7.5H950.507V10.5H952.512V7.5ZM945.494 7.5H943.488V10.5H945.494V7.5ZM938.475 7.5H936.47V10.5H938.475V7.5ZM931.457 7.5H929.452V10.5L931.457 10.5V7.5ZM924.439 7.5H922.434V10.5H924.439V7.5ZM917.421 7.5H915.416V10.5L917.421 10.5V7.5ZM910.403 7.5H908.398V10.5H910.403V7.5ZM903.385 7.5H901.379V10.5H903.385V7.5ZM896.366 7.5H894.361V10.5H896.366V7.5ZM889.348 7.5H887.343V10.5L889.348 10.5V7.5ZM882.33 7.5H880.325V10.5H882.33V7.5ZM875.312 7.5H873.307V10.5H875.312V7.5ZM868.294 7.5H866.288V10.5H868.294V7.5ZM861.275 7.5L859.27 7.5V10.5H861.275V7.5ZM854.257 7.5H852.252V10.5H854.257V7.5ZM847.239 7.5L845.234 7.5V10.5H847.239V7.5ZM840.221 7.5H838.216V10.5H840.221V7.5ZM833.203 7.5L831.198 7.5V10.5H833.203V7.5ZM826.185 7.5H824.179V10.5H826.185V7.5ZM819.166 7.5L817.161 7.5V10.5H819.166V7.5ZM812.148 7.5L810.143 7.5V10.5H812.148V7.5ZM805.13 7.5H803.125V10.5H805.13V7.5ZM798.112 7.5L796.107 7.5V10.5H798.112V7.5ZM791.094 7.5H789.088V10.5H791.094V7.5ZM784.075 7.5L782.07 7.5V10.5H784.075V7.5ZM777.057 7.5H775.052V10.5H777.057V7.5ZM770.039 7.5L768.034 7.5V10.5H770.039V7.5ZM763.021 7.5H761.016V10.5H763.021V7.5ZM756.003 7.5H755V10.5L756.003 10.5V7.5Z" fill="#96A0AF"/>
<defs>
<linearGradient id="paint0_linear" x1="263.5" y1="38.5002" x2="1.99999" y2="38.5002" gradientUnits="userSpaceOnUse">
<stop stop-color="#96A0AF"/>
<stop offset="0.796875" stop-color="#96A0AF" stop-opacity="0.890625"/>
<stop offset="1" stop-color="#96A0AF" stop-opacity="0"/>
</linearGradient>
</defs>
</svg>
