<svg width="638" height="604" viewBox="0 0 638 604" fill="none" xmlns="http://www.w3.org/2000/svg">
<path d="M157.187 410.11H126.404V346.66H189.877V377.432C190.15 395.405 175.439 410.11 157.187 410.11Z" fill="url(#paint0_linear)"/>
<path d="M162.636 587.116C163.453 595.83 152.011 603.183 137.029 603.727C121.773 604.272 108.697 597.737 107.608 589.022L79.821 331.682L134.849 329.504L162.636 587.116Z" fill="#284C98"/>
<path d="M93.9867 152.225L182.25 146.779L194.781 346.66L106.518 352.106C51.2172 355.646 3.5443 313.437 0.275299 258.429C-3.26613 203.421 38.6861 155.765 93.9867 152.225Z" fill="#284C98"/>
<path d="M179.253 146.779C180.343 146.779 181.16 146.779 182.25 146.779L499.343 2.17822L527.402 450.413L194.781 346.932C194.509 346.932 194.236 346.932 193.964 346.932C161.001 349.383 131.036 306.629 126.949 251.349C122.863 196.068 146.291 149.23 179.253 146.779Z" fill="url(#paint1_linear)"/>
<path d="M511.057 0.272121C571.261 -4.35728 627.651 93.4047 636.641 218.126C645.903 342.847 604.496 447.69 544.564 452.319C492.805 456.132 443.77 383.967 425.245 284.027C422.249 267.96 420.07 251.349 418.98 234.193C417.89 217.037 417.345 200.425 417.89 184.086C421.432 82.512 459.298 3.81225 511.057 0.272121Z" fill="#BB2629"/>
<path d="M488.174 55.5521C533.667 52.2843 576.164 125.81 582.975 220.032C590.058 314.254 558.73 393.498 513.508 396.766C474.28 399.489 437.504 345.298 423.611 269.866C421.432 257.884 419.797 245.357 418.707 232.286C417.89 219.215 417.618 206.688 417.89 194.434C420.342 117.64 448.946 58.2753 488.174 55.5521Z" fill="#8E0F1B"/>
<path d="M435.052 175.1C454.394 173.738 472.101 198.247 474.553 230.38C477.005 262.242 463.111 289.201 443.497 290.563C436.959 291.107 430.966 288.656 425.245 284.299C422.249 268.233 420.07 251.621 418.98 234.465C417.89 217.309 417.345 200.698 417.89 184.359C422.794 178.64 428.514 175.372 435.052 175.1Z" fill="url(#paint2_linear)"/>
<defs>
<linearGradient id="paint0_linear" x1="158.265" y1="375.801" x2="158.265" y2="435.612" gradientUnits="userSpaceOnUse">
<stop offset="0.0737432" stop-color="#BE1E2D"/>
<stop offset="0.4211" stop-color="#BE1F2D"/>
<stop offset="0.5462" stop-color="#BA202E"/>
<stop offset="0.6354" stop-color="#B52230"/>
<stop offset="0.7075" stop-color="#AD2532"/>
<stop offset="0.7693" stop-color="#A12835"/>
<stop offset="0.823" stop-color="#932C39"/>
<stop offset="0.8678" stop-color="#85303D"/>
</linearGradient>
<linearGradient id="paint1_linear" x1="332.488" y1="217.519" x2="314.582" y2="617.756" gradientUnits="userSpaceOnUse">
<stop stop-color="white"/>
<stop offset="0.484" stop-color="#D6D5C5"/>
<stop offset="1" stop-color="#CDCBBA"/>
</linearGradient>
<linearGradient id="paint2_linear" x1="474.725" y1="232.694" x2="417.677" y2="232.694" gradientUnits="userSpaceOnUse">
<stop offset="0.0737432" stop-color="#BE1E2D"/>
<stop offset="0.4211" stop-color="#BE1F2D"/>
<stop offset="0.5462" stop-color="#BA202E"/>
<stop offset="0.6354" stop-color="#B52230"/>
<stop offset="0.7075" stop-color="#AD2532"/>
<stop offset="0.7693" stop-color="#A12835"/>
<stop offset="0.823" stop-color="#932C39"/>
<stop offset="0.8678" stop-color="#85303D"/>
</linearGradient>
</defs>
</svg>
