<?xml version="1.0" encoding="utf-8"?>
<!-- Generator: Adobe Illustrator 24.0.2, SVG Export Plug-In . SVG Version: 6.00 Build 0)  -->
<svg version="1.1" id="Layer_1" xmlns="http://www.w3.org/2000/svg" xmlns:xlink="http://www.w3.org/1999/xlink" x="0px" y="0px"
	 viewBox="0 0 819.1 339.5" style="enable-background:new 0 0 819.1 339.5;" xml:space="preserve">
<style type="text/css">
	.st0{fill:none;}
	.st1{fill:none;stroke:#EFEFEF;stroke-width:6;}
	.st2{fill:#EFEFEF;}
</style>
<g id="symbols" transform="translate(-804.717 -75.976)">
	<g id="_4" transform="translate(849.413 155.977)">
		<ellipse class="st0" cx="10" cy="7.4" rx="21.8" ry="21.8"/>
		<ellipse class="st1" cx="10" cy="7.4" rx="18.8" ry="18.8"/>
	</g>
	<g id="_3" transform="translate(839.413 397.307)">
		<ellipse class="st0" cx="4.5" cy="1.9" rx="16.3" ry="16.3"/>
		<ellipse class="st1" cx="4.5" cy="1.9" rx="13.3" ry="13.3"/>
	</g>
	<g id="_2" transform="translate(1486.245 108)">
		<ellipse class="st0" cx="2" cy="-0.6" rx="13.8" ry="13.8"/>
		<ellipse class="st1" cx="2" cy="-0.6" rx="10.8" ry="10.8"/>
	</g>
	<g id="_1" transform="translate(1584.983 239.801)">
		<ellipse class="st0" cx="9" cy="6.4" rx="20.8" ry="20.8"/>
		<ellipse class="st1" cx="9" cy="6.4" rx="17.8" ry="17.8"/>
	</g>
	<path id="_4-2" class="st2" d="M1557.4,306.7l39,15.1l-33.2,25.7L1557.4,306.7z"/>
	<path id="_3-2" class="st2" d="M834.3,252.2l10.8,40.4l-40.3-11.8L834.3,252.2z"/>
	<path id="_2-2" class="st2" d="M966.9,130.1l26.4,20.7l-31.5,11.9L966.9,130.1z"/>
	<path id="_2-3" class="st2" d="M1260.9,110.1l26.4,20.7l-31.5,11.9L1260.9,110.1z"/>
	<path id="_1-2" class="st2" d="M1623.8,140.8l-24.1,23.3l-7.4-32.8L1623.8,140.8z"/>
	<path id="_9" class="st2" d="M1064.1,173.1l10.6,4.5l4.6-10.4l5.6,2.5l5,2.1l4.6-10.4l0.1,0.1l0.1-0.2l10.4,4.8l4.7-10.5l0.1,0.1
		l0.1-0.2l16,7.5l-2.6,5.7l-10.4-4.8l-4.7,10.5l-0.1-0.1l-0.1,0.2l-10.4-4.8l-4.7,10.5l-5.6-2.5l-5-2.1l-4.6,10.4l-5.6-2.5
		l-10.7-4.5L1064.1,173.1z"/>
	<path id="_7" class="st2" d="M1548.9,193.1l-3.5-10.2l-10.2,3.3l-1.8-5.5l-1.7-4.8l-10.2,3.3l0-0.1l-0.2,0.1l-3.1-10.3l-10.3,3.3
		l0-0.1l-0.2,0.1l-4.8-15.9l5.6-1.7l3.1,10.3l10.3-3.3l0,0.1l0.2-0.1l3.1,10.3l10.3-3.3l1.8,5.5l1.7,4.8l10.2-3.3l1.8,5.5l3.5,10.3
		L1548.9,193.1z"/>
	<path id="_6" class="st2" d="M1046.8,132.2v-9.7h-9.7v-8.6h9.7v-9.7h8.6v9.7h9.7v8.6h-9.7v9.7L1046.8,132.2z"/>
	<path id="_5" class="st2" d="M874.6,353.1v-9.7h-9.7v-8.6h9.7v-9.7h8.6v9.7h9.7v8.6h-9.7v9.7L874.6,353.1z"/>
	<path id="_2-4" class="st2" d="M1441,253.2l0.9-12.9l-12.9-0.9l0.8-11.5l12.9,0.9l0.9-12.9l11.5,0.8l-0.9,12.9l12.9,0.9l-0.8,11.5
		l-12.9-0.9l-0.9,12.9L1441,253.2z"/>
	<path id="_1-3" class="st2" d="M1209,111.7l-4.2-10l-9.9,4l-2.2-5.4l-2-4.7l-9.9,4l-0.1-0.1l-0.2,0.1l-3.8-10l-10,4l-0.1-0.1
		l-0.2,0.1l-5.9-15.5l5.5-2.1l3.8,10l10-4l0.1,0.1l0.2-0.1l3.8,10l10-4l2.2,5.3l2,4.7l9.9-4l2.1,5.3l4.3,10L1209,111.7z"/>
</g>
</svg>
