<svg width="592" height="332" viewBox="0 0 592 332" fill="none" xmlns="http://www.w3.org/2000/svg">
<g clip-path="url(#clip0)">
<path d="M13.9081 23.4699V27.2199H22.8587C22.5874 29.3283 21.8792 30.8645 20.8244 31.9337C19.5135 33.244 17.4793 34.6747 13.9081 34.6747C8.39306 34.6747 4.08352 30.2319 4.08352 24.7199C4.08352 19.2078 8.39306 14.7651 13.9081 14.7651C16.8765 14.7651 19.0614 15.9398 20.6587 17.4458L23.2957 14.8102C21.0655 12.6416 18.082 11 13.9081 11C6.35884 11 0 17.1446 0 24.7048C0 32.2651 6.35884 38.4096 13.9081 38.4096C17.9916 38.4096 21.0655 37.0693 23.4765 34.5693C25.9477 32.0994 26.7162 28.6205 26.7162 25.8193C26.7162 24.9458 26.6559 24.1476 26.5203 23.4699H13.9081Z" fill="#557EBF"/>
<path d="M37.9124 20.4277C33.0302 20.4277 29.0371 24.1476 29.0371 29.2681C29.0371 34.3585 33.0302 38.1085 37.9124 38.1085C42.7945 38.1085 46.7876 34.3585 46.7876 29.2681C46.7876 24.1326 42.8096 20.4277 37.9124 20.4277ZM37.9124 34.6295C35.2302 34.6295 32.9097 32.4157 32.9097 29.2681C32.9097 26.0904 35.2302 23.9067 37.9124 23.9067C40.5945 23.9067 42.915 26.0904 42.915 29.2681C42.915 32.4157 40.5945 34.6295 37.9124 34.6295Z" fill="#EA4535"/>
<path d="M81.4441 22.4006H81.3085C80.4346 21.3615 78.762 20.4277 76.6524 20.4277C72.2374 20.4277 68.3799 24.2832 68.3799 29.2681C68.3799 34.238 72.2374 38.1085 76.6524 38.1085C78.777 38.1085 80.4496 37.1597 81.3085 36.1054H81.4441V37.3404C81.4441 40.7139 79.6359 42.5362 76.7277 42.5362C74.3469 42.5362 72.8702 40.8344 72.2675 39.3886L68.8922 40.7892C69.8716 43.1386 72.4483 46.0151 76.7428 46.0151C81.2934 46.0151 85.1509 43.3344 85.1509 36.7982V20.8795H81.4592V22.4006H81.4441ZM76.9839 34.6295C74.3017 34.6295 72.2675 32.3404 72.2675 29.2681C72.2675 26.1506 74.3017 23.9067 76.9839 23.9067C79.6359 23.9067 81.7003 26.1958 81.7003 29.2982C81.7154 32.3856 79.6359 34.6295 76.9839 34.6295Z" fill="#557EBF"/>
<path d="M57.7122 20.4277C52.83 20.4277 48.8369 24.1476 48.8369 29.2681C48.8369 34.3585 52.83 38.1085 57.7122 38.1085C62.5943 38.1085 66.5874 34.3585 66.5874 29.2681C66.6025 24.1326 62.6094 20.4277 57.7122 20.4277ZM57.7122 34.6295C55.03 34.6295 52.7095 32.4157 52.7095 29.2681C52.7095 26.0904 55.03 23.9067 57.7122 23.9067C60.3943 23.9067 62.7149 26.0904 62.7149 29.2681C62.7149 32.4157 60.3943 34.6295 57.7122 34.6295Z" fill="#F9BC15"/>
<path d="M88.1797 11.3613H92.007V38.1083H88.1797V11.3613Z" fill="#36A852"/>
<path d="M103.806 34.6295C101.832 34.6295 100.431 33.7259 99.5114 31.9488L111.34 27.0693L110.948 26.0603C110.21 24.0874 107.965 20.4277 103.384 20.4277C98.8334 20.4277 95.0361 24.0121 95.0361 29.2681C95.0361 34.238 98.7881 38.1085 103.806 38.1085C107.859 38.1085 110.21 35.6235 111.174 34.1928L108.161 32.1898C107.166 33.6506 105.795 34.6295 103.806 34.6295ZM103.535 23.741C105.102 23.741 106.443 24.5542 106.88 25.6838L98.8786 28.982C98.8936 25.2771 101.531 23.741 103.535 23.741Z" fill="#EA4535"/>
<path d="M130.175 38.0784C126.634 38.0784 123.681 36.8887 121.3 34.5092C118.949 32.1296 117.759 29.1628 117.759 25.6086C117.759 22.0543 118.934 19.1025 121.3 16.7381C123.651 14.3435 126.619 13.1387 130.175 13.1387C133.776 13.1387 136.7 14.4339 138.945 17.0393L136.745 19.1778C135.027 17.1146 132.842 16.0754 130.175 16.0754C127.523 16.0754 125.323 16.964 123.53 18.7411C121.767 20.5031 120.893 22.7923 120.893 25.6086C120.893 28.4248 121.767 30.714 123.53 32.476C125.308 34.2531 127.523 35.1417 130.175 35.1417C132.948 35.1417 135.374 33.982 137.408 31.6477L139.638 33.8164C138.508 35.1718 137.107 36.226 135.464 36.964C133.822 37.7019 132.059 38.0784 130.175 38.0784Z" fill="#3D4043"/>
<path d="M145.439 13.666V37.5365H142.365V13.666H145.439Z" fill="#3D4043"/>
<path d="M155.219 20.6689C157.494 20.6689 159.272 21.2714 160.583 22.4912C161.894 23.6961 162.557 25.3677 162.557 27.4762V37.5515H159.619V35.2774H159.483C158.217 37.1449 156.53 38.0786 154.42 38.0786C152.612 38.0786 151.105 37.5515 149.899 36.4822C148.694 35.4129 148.076 34.0876 148.076 32.4762C148.076 30.7894 148.709 29.4491 149.99 28.44C151.271 27.431 152.973 26.934 155.113 26.934C156.936 26.934 158.443 27.2653 159.619 27.928V27.2352C159.619 26.1659 159.197 25.2623 158.353 24.5244C157.509 23.7864 156.514 23.4099 155.384 23.4099C153.667 23.4099 152.31 24.1328 151.316 25.5786L148.619 23.8768C150.11 21.7382 152.31 20.6689 155.219 20.6689ZM151.256 32.5364C151.256 33.3346 151.602 33.9973 152.28 34.5394C152.958 35.0665 153.757 35.3376 154.661 35.3376C155.957 35.3376 157.102 34.8557 158.112 33.9069C159.121 32.9581 159.634 31.8286 159.634 30.5334C158.684 29.7804 157.343 29.4039 155.625 29.4039C154.375 29.4039 153.335 29.7051 152.506 30.3075C151.662 30.9099 151.256 31.6479 151.256 32.5364Z" fill="#3D4043"/>
<path d="M178.364 33.0027C178.364 34.4184 177.746 35.6232 176.495 36.6021C175.245 37.581 173.677 38.063 171.794 38.063C170.151 38.063 168.705 37.6413 167.454 36.7828C166.204 35.9244 165.315 34.7949 164.787 33.3943L167.514 32.2346C167.921 33.2136 168.494 33.9666 169.262 34.5238C170.031 35.066 170.875 35.3371 171.779 35.3371C172.758 35.3371 173.572 35.1262 174.235 34.7045C174.898 34.2828 175.214 33.7859 175.214 33.1985C175.214 32.1593 174.416 31.3913 172.819 30.8943L170.016 30.1865C166.836 29.3883 165.239 27.8521 165.239 25.5931C165.239 24.1021 165.842 22.9124 167.062 22.0087C168.283 21.1051 169.82 20.6533 171.719 20.6533C173.165 20.6533 174.476 20.9997 175.636 21.6925C176.797 22.3852 177.625 23.3039 178.092 24.4636L175.365 25.5931C175.049 24.9003 174.551 24.3732 173.843 23.9816C173.135 23.5901 172.366 23.3943 171.493 23.3943C170.694 23.3943 169.971 23.5901 169.338 23.9967C168.705 24.4033 168.388 24.8852 168.388 25.4575C168.388 26.3913 169.262 27.0539 171.025 27.4606L173.497 28.0931C176.751 28.9063 178.364 30.5328 178.364 33.0027Z" fill="#3D4043"/>
<path d="M193.538 33.0027C193.538 34.4184 192.92 35.6232 191.669 36.6021C190.418 37.581 188.851 38.063 186.968 38.063C185.325 38.063 183.879 37.6413 182.628 36.7828C181.377 35.9244 180.488 34.7949 179.961 33.3943L182.688 32.2346C183.095 33.2136 183.668 33.9666 184.436 34.5238C185.205 35.066 186.049 35.3371 186.953 35.3371C187.932 35.3371 188.746 35.1262 189.409 34.7045C190.072 34.2828 190.388 33.7859 190.388 33.1985C190.388 32.1593 189.59 31.3913 187.992 30.8943L185.19 30.1865C182.01 29.3883 180.413 27.8521 180.413 25.5931C180.413 24.1021 181.016 22.9124 182.236 22.0087C183.457 21.1051 184.994 20.6533 186.892 20.6533C188.339 20.6533 189.65 20.9997 190.81 21.6925C191.97 22.3852 192.799 23.3039 193.266 24.4636L190.539 25.5931C190.223 24.9003 189.725 24.3732 189.017 23.9816C188.309 23.5901 187.54 23.3943 186.666 23.3943C185.868 23.3943 185.144 23.5901 184.512 23.9967C183.879 24.4033 183.562 24.8852 183.562 25.4575C183.562 26.3913 184.436 27.0539 186.199 27.4606L188.67 28.0931C191.925 28.9063 193.538 30.5328 193.538 33.0027Z" fill="#3D4043"/>
<path d="M199.113 37.5363H196.039V21.211H198.977V23.8767H199.113C199.429 23.0032 200.062 22.2652 201.027 21.6628C201.991 21.0453 202.94 20.7441 203.875 20.7441C204.764 20.7441 205.517 20.8797 206.15 21.1508L205.216 24.1176C204.839 23.967 204.236 23.8917 203.407 23.8917C202.247 23.8917 201.238 24.3586 200.394 25.2923C199.535 26.2261 199.113 27.3104 199.113 28.5604V37.5363Z" fill="#3D4043"/>
<path d="M206.225 29.3738C206.225 26.8587 207.008 24.7804 208.59 23.1388C210.188 21.4973 212.207 20.6689 214.633 20.6689C217.059 20.6689 219.063 21.4973 220.63 23.1388C222.227 24.7804 223.026 26.8587 223.026 29.3738C223.026 31.9039 222.227 33.9822 220.63 35.6087C219.048 37.2503 217.044 38.0786 214.633 38.0786C212.207 38.0786 210.203 37.2503 208.59 35.6087C207.008 33.9671 206.225 31.8888 206.225 29.3738ZM209.283 29.3738C209.283 31.1358 209.796 32.5515 210.82 33.6358C211.845 34.7202 213.111 35.2623 214.618 35.2623C216.124 35.2623 217.39 34.7202 218.415 33.6358C219.44 32.5515 219.952 31.1208 219.952 29.3738C219.952 27.6418 219.44 26.2262 218.415 25.1418C217.375 24.0274 216.094 23.4701 214.618 23.4701C213.126 23.4701 211.86 24.0274 210.82 25.1418C209.796 26.2262 209.283 27.6418 209.283 29.3738Z" fill="#3D4043"/>
<path d="M224.895 29.3738C224.895 26.8587 225.678 24.7804 227.26 23.1388C228.858 21.4973 230.877 20.6689 233.303 20.6689C235.729 20.6689 237.733 21.4973 239.3 23.1388C240.897 24.7804 241.696 26.8587 241.696 29.3738C241.696 31.9039 240.897 33.9822 239.3 35.6087C237.718 37.2503 235.714 38.0786 233.303 38.0786C230.877 38.0786 228.873 37.2503 227.26 35.6087C225.693 33.9671 224.895 31.8888 224.895 29.3738ZM227.968 29.3738C227.968 31.1358 228.481 32.5515 229.505 33.6358C230.53 34.7202 231.796 35.2623 233.303 35.2623C234.81 35.2623 236.075 34.7202 237.1 33.6358C238.125 32.5515 238.637 31.1208 238.637 29.3738C238.637 27.6418 238.125 26.2262 237.1 25.1418C236.06 24.0274 234.779 23.4701 233.303 23.4701C231.811 23.4701 230.545 24.0274 229.505 25.1418C228.481 26.2262 227.968 27.6418 227.968 29.3738Z" fill="#3D4043"/>
<path d="M247.241 37.536H244.167V21.2107H247.105V23.4848H247.241C247.708 22.6866 248.431 22.024 249.396 21.4818C250.36 20.9547 251.324 20.6836 252.274 20.6836C253.479 20.6836 254.534 20.9547 255.438 21.5119C256.342 22.0691 257.02 22.8372 257.442 23.8161C258.798 21.7228 260.682 20.6836 263.078 20.6836C264.961 20.6836 266.423 21.2559 267.448 22.4155C268.472 23.5752 268.985 25.2167 268.985 27.3553V37.5511H265.911V27.8221C265.911 26.286 265.624 25.1866 265.082 24.5089C264.524 23.8312 263.59 23.4848 262.279 23.4848C261.104 23.4848 260.109 23.9818 259.311 24.9908C258.512 25.9999 258.105 27.1746 258.105 28.53V37.5661H255.031V27.8372C255.031 26.3011 254.745 25.2017 254.203 24.524C253.645 23.8462 252.711 23.4999 251.4 23.4999C250.224 23.4999 249.23 23.9968 248.431 25.0059C247.633 25.9999 247.226 27.1896 247.226 28.545V37.536H247.241Z" fill="#3D4043"/>
</g>
<path d="M357.351 167.966C357.351 169.709 355.966 171.11 354.244 171.11C352.521 171.11 351.136 169.709 351.136 167.966C351.136 166.224 352.521 164.823 354.244 164.823C355.966 164.823 357.351 166.224 357.351 167.966ZM354.244 172.801C349.279 172.801 345.107 176.868 343.976 182.369C347.218 183.565 350.731 184.231 354.396 184.231C357.959 184.231 361.371 183.616 364.546 182.471C363.414 176.919 359.243 172.801 354.244 172.801ZM367.18 161.235C368.396 162.465 368.396 164.447 367.18 165.677C365.964 166.907 364.005 166.907 362.789 165.677C361.573 164.447 361.573 162.465 362.789 161.235C363.988 160.005 365.964 160.005 367.18 161.235ZM368.346 166.89C364.833 170.444 364.731 176.304 367.771 181.002C370.896 179.533 373.851 177.483 376.435 174.869C378.952 172.323 380.944 169.436 382.38 166.36C377.719 163.234 371.875 163.319 368.346 166.89ZM369.41 149.463C371.132 149.463 372.517 150.864 372.517 152.607C372.517 154.35 371.132 155.751 369.41 155.751C367.687 155.751 366.302 154.35 366.302 152.607C366.302 150.881 367.704 149.463 369.41 149.463ZM374.189 152.624C374.189 157.647 378.209 161.867 383.647 163.012C384.829 159.731 385.487 156.178 385.487 152.47C385.487 148.865 384.879 145.414 383.748 142.202C378.276 143.33 374.189 147.567 374.189 152.624ZM362.772 139.537C363.988 138.307 365.947 138.307 367.163 139.537C368.379 140.767 368.379 142.749 367.163 143.979C365.947 145.209 363.988 145.209 362.772 143.979C361.556 142.749 361.556 140.767 362.772 139.537ZM368.363 138.358C371.875 141.912 377.668 142.014 382.312 138.939C380.86 135.778 378.833 132.789 376.249 130.175C373.733 127.629 370.879 125.613 367.839 124.161C364.748 128.876 364.816 134.77 368.363 138.358ZM351.136 137.282C351.136 135.539 352.521 134.138 354.244 134.138C355.966 134.138 357.351 135.539 357.351 137.282C357.351 139.025 355.966 140.425 354.244 140.425C352.521 140.425 351.136 139.007 351.136 137.282ZM354.244 132.43C359.209 132.43 363.38 128.364 364.512 122.862C361.269 121.666 357.757 121 354.092 121C350.528 121 347.117 121.615 343.942 122.76C345.073 128.312 349.245 132.43 354.244 132.43ZM341.307 143.996C340.091 142.766 340.091 140.784 341.307 139.554C342.523 138.324 344.482 138.324 345.698 139.554C346.914 140.784 346.914 142.766 345.698 143.996C344.499 145.226 342.523 145.226 341.307 143.996ZM340.142 138.341C343.655 134.787 343.756 128.927 340.716 124.229C337.592 125.698 334.636 127.749 332.052 130.362C329.536 132.908 327.543 135.795 326.107 138.871C330.769 141.997 336.612 141.912 340.142 138.341ZM339.078 155.768C337.355 155.768 335.97 154.367 335.97 152.624C335.97 150.881 337.355 149.48 339.078 149.48C340.8 149.48 342.185 150.881 342.185 152.624C342.185 154.367 340.784 155.768 339.078 155.768ZM334.298 152.607C334.298 147.584 330.279 143.364 324.841 142.219C323.659 145.5 323 149.053 323 152.761C323 156.366 323.608 159.817 324.74 163.029C330.211 161.901 334.298 157.664 334.298 152.607ZM345.715 165.694C344.499 166.924 342.54 166.924 341.324 165.694C340.108 164.464 340.108 162.482 341.324 161.252C342.54 160.022 344.499 160.022 345.715 161.252C346.931 162.482 346.931 164.464 345.715 165.694ZM340.125 166.89C336.612 163.336 330.819 163.234 326.175 166.309C327.627 169.47 329.654 172.46 332.238 175.074C334.754 177.619 337.609 179.635 340.648 181.087C343.739 176.372 343.672 170.461 340.125 166.89Z" fill="#CC2927"/>
<path d="M429.938 140.613L425.649 144.953C425.649 144.953 423.369 141.861 419.434 141.861C416.427 141.861 411.969 143.655 411.969 152.795C411.969 161.935 417.103 163.08 419.619 163.08C423.419 163.08 425.649 160.039 425.649 160.039L429.938 164.191C429.938 164.191 426.729 168.769 419.907 168.769C413.084 168.769 405.636 164.737 405.636 152.197C405.636 139.657 413.675 136.154 419.755 136.154C425.834 136.154 429.938 140.613 429.938 140.613ZM460.506 145.91C460.506 151.309 460.506 168.547 460.506 168.547H454.325V165.199C454.325 165.199 452.738 168.769 446.219 168.769C439.7 168.769 434.954 165.489 434.954 159.099C434.954 152.71 440.561 149.908 444.142 149.908C447.722 149.908 454.258 149.856 454.258 149.856L454.156 146.166C454.156 146.166 453.768 141.57 447.705 141.57C442.25 141.57 440.426 144.663 440.426 144.663L436.271 140.87C436.271 140.87 439.683 136.171 447.671 136.171C455.659 136.171 460.506 140.511 460.506 145.91ZM454.19 154.35C453.65 154.35 450.036 154.35 446.134 154.35C442.233 154.35 441.203 157.493 441.203 158.894C441.203 160.295 441.406 163.439 447.739 163.439C454.933 163.439 454.19 157.903 454.19 154.35ZM559.287 145.91C559.287 151.309 559.287 168.547 559.287 168.547H553.106V165.199C553.106 165.199 551.519 168.769 545 168.769C538.481 168.769 533.735 165.489 533.735 159.099C533.735 152.71 539.342 149.908 542.922 149.908C546.503 149.908 553.039 149.856 553.039 149.856L552.937 146.166C552.937 146.166 552.549 141.57 546.486 141.57C541.031 141.57 539.207 144.663 539.207 144.663L535.052 140.87C535.052 140.87 538.464 136.171 546.452 136.171C554.44 136.171 559.287 140.511 559.287 145.91ZM552.954 154.35C552.414 154.35 548.8 154.35 544.898 154.35C540.997 154.35 539.967 157.493 539.967 158.894C539.967 160.295 540.17 163.439 546.503 163.439C553.697 163.439 552.954 157.903 552.954 154.35ZM485.603 136.171C481.651 136.171 478.763 138.239 477.159 139.776V136.564H470.792V168.445H477.159V147.618C478.104 144.543 480.013 141.912 483.829 141.912C488.474 141.912 490.011 145.209 490.011 148.302C490.011 153.94 490.011 168.428 490.011 168.428H496.428C496.428 168.428 496.428 151.24 496.428 146.251C496.411 141.263 491.919 136.171 485.603 136.171ZM523.805 136.667L516.255 158.894L508.858 136.667H502.086L513.536 168.445H518.772L530.425 136.667H523.805V136.667ZM586.714 143.808L590.751 139.759C590.751 139.759 587.424 136.171 579.233 136.171C571.042 136.171 567.225 141.075 567.225 145.978C567.225 160.176 585.785 150.916 585.785 158.911C585.785 161.987 582.526 163.456 578.996 163.456C572.899 163.456 569.91 159.885 569.91 159.885L565.756 164.225C565.756 164.225 568.981 168.769 578.979 168.769C588.977 168.769 592 163.165 592 158.518C592 144.423 573.271 153.718 573.271 145.585C573.271 142.544 576.682 141.621 579.266 141.621C583.708 141.621 586.714 143.808 586.714 143.808Z" fill="#7F7B77"/>
<g clip-path="url(#clip1)">
<path d="M417.951 32.3559L416.348 36.7977H416.214C415.947 35.7961 415.457 34.272 414.655 32.4429L406.06 11.3223H397.643V44.9847H403.21V24.2124C403.21 22.906 403.21 21.4253 403.165 19.5963C403.121 18.6818 403.031 17.9851 402.987 17.4625H403.121C403.388 18.7689 403.7 19.727 403.922 20.3367L414.255 44.8976H418.174L428.417 20.1189C428.64 19.5528 428.863 18.4205 429.085 17.4625H429.219C429.085 19.9447 428.996 22.1657 428.952 23.5156V44.8541H434.875V11.2352H426.769L417.951 32.3559ZM440.487 20.7286H446.276V44.8541H440.487V20.7286ZM443.426 10.5384C442.446 10.5384 441.645 10.8868 440.977 11.4964C440.308 12.1061 439.952 12.89 439.952 13.848C439.952 14.7625 440.308 15.5464 440.977 16.1561C441.645 16.7657 442.446 17.0706 443.426 17.0706C444.406 17.0706 445.252 16.7222 445.876 16.1561C446.544 15.5464 446.9 14.7625 446.9 13.848C446.9 12.9335 446.544 12.1497 445.876 11.4964C445.297 10.8868 444.45 10.5384 443.426 10.5384ZM466.808 20.5108C465.739 20.2931 464.625 20.1625 463.556 20.1625C460.929 20.1625 458.524 20.7286 456.52 21.8608C454.516 22.9931 452.912 24.5608 451.888 26.5204C450.819 28.5236 450.285 30.8317 450.285 33.4881C450.285 35.7961 450.819 37.8429 451.843 39.7154C452.868 41.5444 454.293 43.0251 456.208 44.0267C458.034 45.0283 460.172 45.5508 462.577 45.5508C465.338 45.5508 467.698 44.9847 469.569 43.9396L469.613 43.896V38.6703L469.391 38.8445C468.545 39.4541 467.565 39.9767 466.585 40.2816C465.561 40.6299 464.625 40.8041 463.824 40.8041C461.508 40.8041 459.682 40.1509 458.39 38.7138C457.054 37.3203 456.386 35.4042 456.386 33.0091C456.386 30.5268 457.054 28.5672 458.435 27.1301C459.815 25.693 461.641 24.9527 463.868 24.9527C465.739 24.9527 467.654 25.5624 469.391 26.7817L469.613 26.9559V21.4253L469.569 21.3818C468.812 21.077 467.966 20.7286 466.808 20.5108ZM485.914 20.3367C484.489 20.3367 483.152 20.7721 481.995 21.6866C481.015 22.4705 480.347 23.6027 479.768 24.9527H479.723V20.7286H473.933V44.8541H479.723V32.53C479.723 30.4397 480.169 28.6978 481.148 27.4349C482.128 26.1285 483.375 25.4753 484.889 25.4753C485.424 25.4753 485.958 25.6059 486.626 25.693C487.25 25.8672 487.695 26.0414 488.007 26.2592L488.23 26.4333V20.7721L488.096 20.7286C487.695 20.4673 486.894 20.3367 485.914 20.3367ZM501.68 20.206C497.627 20.206 494.376 21.3818 492.104 23.6898C489.788 25.9979 488.675 29.1769 488.675 33.1833C488.675 36.9284 489.833 39.9767 492.06 42.1977C494.287 44.3751 497.315 45.5073 501.101 45.5073C505.064 45.5073 508.227 44.3315 510.498 41.9799C512.814 39.6283 513.927 36.4929 513.927 32.6171C513.927 28.7849 512.858 25.7366 510.676 23.5156C508.583 21.2947 505.51 20.206 501.68 20.206ZM506.311 38.7574C505.243 40.1074 503.55 40.7606 501.457 40.7606C499.364 40.7606 497.671 40.1074 496.469 38.6703C495.266 37.3203 494.687 35.3607 494.687 32.8784C494.687 30.3091 495.311 28.3495 496.469 26.9559C497.671 25.5624 499.319 24.8656 501.412 24.8656C503.461 24.8656 505.064 25.5188 506.222 26.8688C507.38 28.2188 508.004 30.1785 508.004 32.7478C507.915 35.3607 507.425 37.4074 506.311 38.7574ZM526.843 30.7446C525.017 30.0043 523.859 29.4382 523.324 28.9591C522.879 28.5236 522.656 27.914 522.656 27.1301C522.656 26.4769 522.924 25.8237 523.592 25.3882C524.26 24.9527 525.017 24.735 526.13 24.735C527.11 24.735 528.134 24.9092 529.114 25.1705C530.094 25.4317 530.985 25.8237 531.697 26.3463L531.92 26.5204V21.2076L531.786 21.1641C531.118 20.9028 530.227 20.6415 529.159 20.4237C528.09 20.2496 527.11 20.1625 526.308 20.1625C523.547 20.1625 521.276 20.8157 519.494 22.2528C517.713 23.6027 516.867 25.4317 516.867 27.5656C516.867 28.6978 517.045 29.6994 517.446 30.5268C517.846 31.3543 518.425 32.1381 519.227 32.7913C520.029 33.401 521.187 34.0978 522.79 34.751C524.126 35.3171 525.15 35.7526 525.774 36.101C526.397 36.4494 526.798 36.8413 527.11 37.1461C527.333 37.4945 527.466 37.93 527.466 38.4961C527.466 40.1074 526.219 40.8912 523.681 40.8912C522.701 40.8912 521.676 40.717 520.474 40.3251C519.272 39.9332 518.158 39.3671 517.223 38.7138L517 38.5396V44.0702L517.134 44.1138C517.98 44.5057 519.004 44.767 520.251 45.0718C521.498 45.2896 522.612 45.4638 523.592 45.4638C526.576 45.4638 529.025 44.8105 530.762 43.3735C532.543 41.9799 533.479 40.1945 533.479 37.8864C533.479 36.2752 533.033 34.8381 532.053 33.7494C530.762 32.7042 529.159 31.6155 526.843 30.7446ZM548.755 20.206C544.702 20.206 541.451 21.3818 539.179 23.6898C536.908 25.9979 535.75 29.1769 535.75 33.1833C535.75 36.9284 536.908 39.9767 539.135 42.1977C541.362 44.3751 544.39 45.5073 548.176 45.5073C552.139 45.5073 555.301 44.3315 557.573 41.9799C559.889 39.6283 561.002 36.4929 561.002 32.6171C561.002 28.7849 559.933 25.7366 557.751 23.5156C555.658 21.2947 552.585 20.206 548.755 20.206ZM553.342 38.7574C552.273 40.1074 550.581 40.7606 548.487 40.7606C546.35 40.7606 544.702 40.1074 543.499 38.6703C542.297 37.3203 541.718 35.3607 541.718 32.8784C541.718 30.3091 542.341 28.3495 543.499 26.9559C544.702 25.5624 546.35 24.8656 548.443 24.8656C550.447 24.8656 552.095 25.5188 553.253 26.8688C554.411 28.2188 555.034 30.1785 555.034 32.7478C555.034 35.3607 554.455 37.4074 553.342 38.7574ZM591.955 25.3882V20.7286H586.121V13.5867L585.943 13.6303L580.42 15.2416L580.286 15.2851V20.7286H571.557V17.6802C571.557 16.2867 571.914 15.198 572.537 14.5012C573.161 13.8045 574.096 13.4561 575.254 13.4561C576.055 13.4561 576.902 13.6303 577.837 14.0222L578.06 14.1529V9.23196L577.926 9.18841C577.124 8.92712 576.055 8.75293 574.675 8.75293C572.938 8.75293 571.424 9.14486 570.043 9.79808C568.662 10.5384 567.638 11.54 566.881 12.89C566.124 14.1964 565.723 15.677 565.723 17.3754V20.7286H561.67V25.3447H565.723V44.8541H571.557V25.3882H580.286V37.7993C580.286 42.8944 582.736 45.4638 587.635 45.4638C588.437 45.4638 589.283 45.3331 590.084 45.2025C590.931 45.0283 591.554 44.8105 591.91 44.6363L591.955 44.5928V39.9332L591.732 40.1074C591.376 40.3251 591.064 40.4993 590.53 40.6299C590.084 40.7606 589.684 40.8041 589.372 40.8041C588.214 40.8041 587.412 40.5428 586.833 39.8896C586.299 39.28 586.032 38.2784 586.032 36.7977V25.3882H591.955Z" fill="#737373"/>
<path d="M323 0H350.301V26.6948H323V0Z" fill="#F25022"/>
<path d="M353.151 0H380.452V26.6948H353.151V0Z" fill="#7FBA00"/>
<path d="M323 29.4814H350.301V56.1763H323V29.4814Z" fill="#00A4EF"/>
<path d="M353.151 29.4814H380.452V56.1763H353.151V29.4814Z" fill="#FFB900"/>
</g>
<path d="M40.4784 194.69L2.81836 171.408V111.309H40.4784V194.69Z" fill="#F1F1F3"/>
<path d="M40.4785 194.69L78.1385 171.408V111.309H40.4785V194.69Z" fill="white"/>
<path d="M40.4777 138.825H37.7236V167.239H40.4777V138.825Z" fill="#DF8026"/>
<path d="M6.98119 167.752V115.991H40.4781V109H0V172.819L40.4781 197V188.79L6.98119 167.752Z" fill="#DF8026"/>
<path d="M8.83887 166.726L40.4784 186.61V172.82H32.1522V138.825H23.2496V134.143H40.4784V129.461H23.2496V124.843H40.4784V117.852H8.83887V166.726Z" fill="#DF8026"/>
<path d="M43.2326 138.825H40.4785V167.239H43.2326V138.825Z" fill="#F9A64A"/>
<path d="M73.9754 167.752V115.991H40.4785V109H80.9566V172.819L40.4785 197V188.79L73.9754 167.752Z" fill="#F9A64A"/>
<path d="M72.118 166.726L40.4785 186.61V172.82H48.8047V138.825H57.6433V134.143H40.4785V129.461H57.6433V124.843H40.4785V117.852H72.118V166.726Z" fill="#F9A64A"/>
<path d="M108.496 180.067C108.753 179.874 109.009 179.81 109.457 179.81C109.841 179.81 110.162 179.939 110.418 180.131C110.674 180.323 110.738 180.644 110.738 181.029H112.98C112.98 180.452 112.852 179.939 112.531 179.554C112.211 179.105 111.827 178.784 111.314 178.527C110.802 178.271 110.226 178.143 109.521 178.143C108.817 178.143 108.24 178.271 107.664 178.463C107.087 178.656 106.703 178.976 106.383 179.361C106.063 179.746 105.934 180.195 105.934 180.708C105.934 181.734 106.511 182.568 107.728 183.146C108.112 183.338 108.56 183.53 109.137 183.723C109.713 183.915 110.098 184.108 110.354 184.3C110.61 184.492 110.674 184.749 110.674 185.07C110.674 185.326 110.546 185.583 110.354 185.711C110.162 185.839 109.841 185.968 109.457 185.968C108.881 185.968 108.496 185.839 108.24 185.647C107.984 185.39 107.856 185.07 107.856 184.557H105.614C105.614 185.134 105.742 185.711 106.063 186.16C106.383 186.609 106.831 186.994 107.408 187.25C107.984 187.507 108.689 187.635 109.457 187.635C110.546 187.635 111.379 187.379 111.955 186.93C112.531 186.481 112.852 185.839 112.852 185.006C112.852 183.979 112.339 183.21 111.379 182.632C110.994 182.376 110.418 182.183 109.777 181.991C109.137 181.799 108.689 181.606 108.432 181.414C108.176 181.221 108.048 181.029 108.048 180.772C108.112 180.452 108.24 180.259 108.496 180.067Z" fill="#DE7F23"/>
<path d="M119.064 180.452C119.32 180.067 119.704 179.811 120.281 179.811C120.857 179.811 121.241 179.939 121.498 180.196C121.754 180.452 121.882 180.837 121.946 181.414H124.188C124.124 180.388 123.739 179.554 123.035 178.977C122.33 178.4 121.434 178.079 120.345 178.079C119.576 178.079 118.872 178.272 118.295 178.656C117.719 179.041 117.271 179.554 116.95 180.26C116.63 180.965 116.502 181.735 116.502 182.633V183.082C116.502 184.493 116.822 185.648 117.527 186.417C118.231 187.187 119.192 187.572 120.409 187.572C121.113 187.572 121.818 187.444 122.394 187.187C122.971 186.93 123.419 186.546 123.739 186.032C124.06 185.519 124.252 184.942 124.252 184.301H122.01C122.01 184.814 121.818 185.199 121.562 185.455C121.306 185.712 120.921 185.84 120.409 185.84C119.832 185.84 119.384 185.648 119.128 185.199C118.872 184.75 118.744 184.044 118.744 183.082V182.441C118.68 181.543 118.808 180.901 119.064 180.452Z" fill="#DE7F23"/>
<path d="M133.283 181.927H130.016V178.207H127.839V187.443H130.016V183.595H133.283V187.443H135.525V178.207H133.283V181.927Z" fill="#DE7F23"/>
<path d="M145.452 178.656C144.812 178.272 144.171 178.079 143.339 178.079C142.57 178.079 141.866 178.272 141.225 178.656C140.585 179.041 140.136 179.554 139.816 180.26C139.496 180.965 139.304 181.735 139.304 182.633V183.146C139.304 184.044 139.496 184.814 139.816 185.455C140.136 186.097 140.649 186.674 141.225 186.995C141.802 187.379 142.506 187.508 143.339 187.508C144.107 187.508 144.812 187.315 145.452 186.93C146.093 186.546 146.541 186.032 146.861 185.327C147.182 184.621 147.374 183.852 147.374 182.954V182.505C147.374 181.607 147.182 180.837 146.861 180.132C146.541 179.554 146.029 179.041 145.452 178.656ZM145.132 183.082C145.132 183.98 145.004 184.685 144.684 185.134C144.363 185.583 143.979 185.84 143.403 185.84C142.826 185.84 142.378 185.583 142.058 185.134C141.738 184.621 141.609 183.98 141.609 183.018V182.312C141.673 180.645 142.25 179.811 143.403 179.811C143.979 179.811 144.428 180.067 144.748 180.516C145.068 180.965 145.196 181.671 145.196 182.633V183.082H145.132Z" fill="#DE7F23"/>
<path d="M156.981 178.656C156.34 178.272 155.7 178.079 154.867 178.079C154.098 178.079 153.394 178.272 152.753 178.656C152.113 179.041 151.665 179.554 151.344 180.26C151.024 180.965 150.832 181.735 150.832 182.633V183.146C150.832 184.044 151.024 184.814 151.344 185.455C151.665 186.097 152.177 186.674 152.753 186.995C153.33 187.379 154.034 187.508 154.867 187.508C155.636 187.508 156.34 187.315 156.981 186.93C157.621 186.546 158.069 186.032 158.39 185.327C158.71 184.621 158.902 183.852 158.902 182.954V182.505C158.902 181.607 158.71 180.837 158.39 180.132C158.069 179.554 157.621 179.041 156.981 178.656ZM156.724 183.082C156.724 183.98 156.596 184.685 156.276 185.134C155.956 185.583 155.572 185.84 154.995 185.84C154.419 185.84 153.97 185.583 153.65 185.134C153.33 184.621 153.202 183.98 153.202 183.018V182.312C153.266 180.645 153.842 179.811 154.995 179.811C155.572 179.811 156.02 180.067 156.34 180.516C156.66 180.965 156.788 181.671 156.788 182.633V183.082H156.724Z" fill="#DE7F23"/>
<path d="M164.987 178.207H162.745V187.443H168.83V185.776H164.987V178.207Z" fill="#DE7F23"/>
<path d="M180.806 180.068C181.062 179.875 181.318 179.811 181.767 179.811C182.151 179.811 182.471 179.939 182.727 180.132C182.984 180.324 183.048 180.645 183.048 181.03H185.289C185.289 180.453 185.161 179.939 184.841 179.555C184.521 179.106 184.136 178.785 183.624 178.528C183.112 178.272 182.535 178.144 181.831 178.144C181.126 178.144 180.55 178.272 179.973 178.464C179.397 178.657 179.013 178.977 178.692 179.362C178.372 179.747 178.244 180.196 178.244 180.709C178.244 181.735 178.821 182.569 180.037 183.146C180.422 183.339 180.87 183.531 181.446 183.724C182.023 183.916 182.407 184.109 182.663 184.301C182.92 184.493 182.984 184.75 182.984 185.071C182.984 185.327 182.855 185.584 182.663 185.712C182.471 185.84 182.151 185.969 181.767 185.969C181.19 185.969 180.806 185.84 180.55 185.648C180.294 185.391 180.165 185.071 180.165 184.558H177.924C177.924 185.135 178.052 185.712 178.372 186.161C178.692 186.61 179.141 186.995 179.717 187.251C180.294 187.508 180.998 187.636 181.767 187.636C182.855 187.636 183.688 187.38 184.265 186.931C184.841 186.482 185.161 185.84 185.161 185.007C185.161 183.98 184.649 183.211 183.688 182.633C183.304 182.377 182.727 182.184 182.087 181.992C181.446 181.8 180.998 181.607 180.742 181.415C180.486 181.222 180.358 181.03 180.358 180.773C180.422 180.453 180.55 180.26 180.806 180.068Z" fill="#DE7F23"/>
<path d="M194.897 178.656C194.256 178.272 193.616 178.079 192.783 178.079C192.014 178.079 191.31 178.272 190.669 178.656C190.029 179.041 189.581 179.554 189.26 180.26C188.94 180.965 188.748 181.735 188.748 182.633V183.146C188.748 184.044 188.94 184.814 189.26 185.455C189.581 186.097 190.093 186.674 190.669 186.995C191.246 187.379 191.95 187.508 192.783 187.508C193.616 187.508 194.256 187.315 194.897 186.93C195.537 186.546 195.985 186.032 196.306 185.327C196.626 184.621 196.818 183.852 196.818 182.954V182.505C196.818 181.607 196.626 180.837 196.306 180.132C195.985 179.554 195.473 179.041 194.897 178.656ZM194.576 183.082C194.576 183.98 194.448 184.685 194.128 185.134C193.808 185.583 193.424 185.84 192.847 185.84C192.271 185.84 191.822 185.583 191.502 185.134C191.182 184.621 191.054 183.98 191.054 183.018V182.312C191.118 180.645 191.694 179.811 192.847 179.811C193.424 179.811 193.872 180.067 194.192 180.516C194.512 180.965 194.64 181.671 194.64 182.633V183.082H194.576Z" fill="#DE7F23"/>
<path d="M202.838 178.207H200.597V187.443H206.681V185.776H202.838V178.207Z" fill="#DE7F23"/>
<path d="M215.136 184.237C215.136 184.814 215.008 185.199 214.752 185.456C214.495 185.712 214.175 185.84 213.727 185.84C212.83 185.84 212.318 185.327 212.318 184.301V178.144H210.076V184.237C210.076 185.263 210.396 186.033 211.037 186.61C211.677 187.187 212.574 187.508 213.663 187.508C214.431 187.508 215.072 187.38 215.584 187.123C216.097 186.867 216.545 186.482 216.865 185.969C217.185 185.455 217.314 184.878 217.314 184.173V178.144H215.072V184.237H215.136Z" fill="#DE7F23"/>
<path d="M220.9 179.939H223.59V187.443H225.832V179.939H228.586V178.207H220.9V179.939Z" fill="#DE7F23"/>
<path d="M234.542 178.207H232.301V187.443H234.542V178.207Z" fill="#DE7F23"/>
<path d="M244.533 178.656C243.893 178.272 243.252 178.079 242.42 178.079C241.651 178.079 240.947 178.272 240.306 178.656C239.666 179.041 239.217 179.554 238.897 180.26C238.577 180.965 238.385 181.735 238.385 182.633V183.146C238.385 184.044 238.577 184.814 238.897 185.455C239.217 186.097 239.73 186.674 240.306 186.995C240.883 187.379 241.587 187.508 242.42 187.508C243.252 187.508 243.893 187.315 244.533 186.93C245.174 186.546 245.622 186.032 245.942 185.327C246.263 184.621 246.455 183.852 246.455 182.954V182.505C246.455 181.607 246.263 180.837 245.942 180.132C245.622 179.554 245.174 179.041 244.533 178.656ZM244.277 183.082C244.277 183.98 244.149 184.685 243.829 185.134C243.509 185.583 243.124 185.84 242.548 185.84C241.971 185.84 241.523 185.583 241.203 185.134C240.883 184.621 240.755 183.98 240.755 183.018V182.312C240.819 180.645 241.395 179.811 242.548 179.811C243.124 179.811 243.573 180.067 243.893 180.516C244.213 180.965 244.341 181.671 244.341 182.633V183.082H244.277Z" fill="#DE7F23"/>
<path d="M255.742 183.98L252.54 178.207H250.298V187.443H252.54V181.735L255.806 187.443H257.984V178.207H255.742V183.98Z" fill="#DE7F23"/>
<path d="M267.527 182.633C267.143 182.376 266.566 182.184 265.926 181.991C265.285 181.799 264.837 181.606 264.581 181.414C264.325 181.222 264.197 181.029 264.197 180.773C264.197 180.516 264.325 180.26 264.517 180.131C264.773 179.939 265.029 179.875 265.478 179.875C265.862 179.875 266.182 180.003 266.438 180.195C266.695 180.388 266.759 180.708 266.759 181.093H269C269 180.516 268.872 180.003 268.552 179.618C268.232 179.169 267.847 178.848 267.335 178.592C266.823 178.335 266.246 178.207 265.542 178.207C264.837 178.207 264.261 178.335 263.684 178.528C263.108 178.72 262.724 179.041 262.403 179.426C262.083 179.811 261.955 180.26 261.955 180.773C261.955 181.799 262.531 182.633 263.748 183.21C264.133 183.402 264.581 183.595 265.157 183.787C265.734 183.98 266.118 184.172 266.374 184.364C266.63 184.557 266.695 184.813 266.695 185.134C266.695 185.391 266.566 185.647 266.374 185.776C266.182 185.904 265.862 186.032 265.478 186.032C264.901 186.032 264.517 185.904 264.261 185.711C264.005 185.455 263.876 185.134 263.876 184.621H261.635C261.635 185.198 261.763 185.776 262.083 186.225C262.403 186.673 262.852 187.058 263.428 187.315C264.005 187.571 264.709 187.7 265.478 187.7C266.566 187.7 267.399 187.443 267.975 186.994C268.552 186.545 268.872 185.904 268.872 185.07C269 183.98 268.488 183.21 267.527 182.633Z" fill="#DE7F23"/>
<path d="M128.351 126.189H94.8545V134.592H105.55V169.997H117.207V134.592H128.351V126.189Z" fill="#3A3F45"/>
<path d="M181.383 126.189H147.886V134.592H158.582V169.997H170.238V134.592H181.383V126.189Z" fill="#3A3F45"/>
<path d="M212.574 169.997H224.167L207.45 126.189H193.488L176.771 169.997H188.428L192.015 160.697H209.051L212.574 169.997ZM194.961 152.743L200.469 138.376L205.977 152.743H194.961Z" fill="#3A3F45"/>
<path d="M143.722 126.189H132.578V169.997H143.722V126.189Z" fill="#3A3F45"/>
<path d="M257.664 126.189V156.977L242.293 126.189H227.882V169.997H238.129V140.172L252.988 169.997H267.912V126.189H257.664Z" fill="#3A3F45"/>
<g clip-path="url(#clip2)">
<path d="M25.2061 308.436C25.2061 300.074 31.9347 296.521 36.7862 296.521C56.4027 296.521 67.0336 326.644 67.0336 326.644C67.0336 326.644 63.4478 327 60.3893 327C35.837 327 25.2061 317.844 25.2061 308.436Z" fill="url(#paint0_linear)"/>
<path d="M0 255.63C0 255.63 5.35764 254.836 8.43723 254.836C8.43723 260.209 8.43723 302.186 8.43723 302.186C8.43723 302.186 16.2839 300.2 22.5485 300.2C40.3722 300.2 49.168 310.485 49.168 310.485C49.168 310.485 40.5198 306.262 31.8716 306.262C13.6261 306.283 0 315.774 0 315.774V255.63Z" fill="#46331A"/>
<path d="M16.9375 267.902C16.9375 267.902 23.0545 267.107 25.5857 267.107C25.5857 272.982 25.5857 294.284 25.5857 294.284C25.5857 294.284 22.9279 294.117 21.2616 294.117C19.5952 294.117 16.9375 294.284 16.9375 294.284V267.902Z" fill="#46331A"/>
<path d="M30.374 267.107H39.0222L48.3453 294.284C48.3453 294.284 42.2283 291.901 39.3597 291.901L30.374 267.107Z" fill="#46331A"/>
<path d="M60.3261 267.107H69.7758L57.3941 300.074C57.3941 300.074 53.6607 297.169 51.0029 295.726L60.3261 267.107Z" fill="#46331A"/>
<path d="M73.9736 267.839C73.9736 267.839 79.9641 267.107 82.4531 267.107C82.4531 272.083 82.4531 306.409 82.4531 306.409H73.9736V267.839Z" fill="#46331A"/>
<path d="M88.3379 267.839L94.1174 267.107L95.615 270.703C95.615 270.703 98.9055 266.354 106.794 266.354C116.371 266.354 120.273 272.793 120.273 280.005C120.273 287.218 120.273 306.408 120.273 306.408H112.089C112.089 306.408 112.089 283.559 112.089 280.089C112.089 275.448 108.397 273.964 105.107 273.964C98.6102 273.964 96.522 277.434 96.522 277.434V306.408H88.3379V267.839Z" fill="#46331A"/>
<path d="M136.704 294.346C133.983 294.346 132.57 293.615 132.57 292.235C132.57 291.294 133.73 290.374 134.975 289.643C136.494 289.998 138.181 290.186 140.079 290.186C150.12 290.186 154.591 286.486 154.591 278.417C154.591 276.849 154.359 275.427 153.938 274.173L158.114 270.87L156.975 267.839L150.204 269.114C147.652 267.274 144.066 266.354 139.805 266.354C128.752 266.354 125.293 271.999 125.293 278.417C125.293 282.096 126.854 285.42 130.039 287.594C127.824 288.556 124.956 290.5 124.956 294.074C124.956 296.959 126.2 298.736 128.141 299.823C126.285 301.266 124.618 303.461 124.618 306.722C124.618 314.039 131.811 317.007 140.775 317.007C149.74 317.007 158.072 313.913 158.072 304.611C158.135 295.329 147.821 294.346 136.704 294.346ZM140.037 272.689C144.931 272.689 146.618 274.466 146.618 278.417C146.618 282.368 145.015 284.145 140.037 284.145C135.059 284.145 133.541 281.678 133.541 278.417C133.541 275.155 135.608 272.689 140.037 272.689ZM141.218 310.506C134.089 310.506 131.769 308.52 131.769 305.489C131.769 303.962 133.119 302.562 135.101 301.537C142.189 302.123 150.394 301.078 150.394 305.948C150.415 308.792 148.348 310.506 141.218 310.506Z" fill="#46331A"/>
<path d="M73.3613 257.888C73.3613 260.062 74.2683 261.839 78.1916 261.839C82.136 261.839 83.4649 260.522 83.4649 257.888C83.4649 255.254 81.7564 254 78.4237 254C75.091 254 73.3613 255.631 73.3613 257.888Z" fill="#46331A"/>
<path d="M16.4316 257.888C16.4316 260.062 17.3386 261.839 21.262 261.839C25.1853 261.839 26.5352 260.522 26.5352 257.888C26.5352 255.254 24.8267 254 21.494 254C18.1613 254 16.4316 255.631 16.4316 257.888Z" fill="#46331A"/>
<path d="M178.489 271.059V267.776H168.111C168.111 261.777 168.111 257.282 168.111 257.282L165.116 257.805L164.125 267.756H159.273L160.328 271.059H164.125C164.125 277.246 164.125 290.542 164.125 297.232C164.125 306.137 170.854 306.994 173.638 306.994C175.494 306.994 178.152 306.409 178.152 306.409L177.878 302.792C177.878 302.792 177.35 303.775 174.608 303.775C171.887 303.775 168.09 301.998 168.09 297.963C168.09 295.601 168.09 281.908 168.09 271.059H178.489Z" fill="#46331A"/>
<path d="M183.004 268.362L186.4 267.631L186.8 277.519C186.8 277.519 189.521 267.233 199.498 267.233C202.219 267.233 202.958 267.902 202.958 267.902L202.557 272C202.557 272 201.502 271.331 199.562 271.331C193.107 271.331 187.18 277.205 187.18 284.919V306.284H182.982V268.362H183.004Z" fill="#46331A"/>
<path d="M206.649 284.145H230.843C230.843 284.145 231.686 270.703 219.706 270.703C210.72 270.703 208.083 277.037 208.083 286.34C208.083 295.643 210.024 303.399 221.963 303.399C228.143 303.399 232.488 300.785 232.488 300.785L233.142 304.193C233.142 304.193 227.658 307.266 221.562 307.266C215.466 307.266 203.991 306.827 203.991 285.608C203.991 273.4 209.729 267.254 219.6 267.254C229.472 267.254 234.471 273.295 234.471 284.856C234.471 286.382 234.471 286.758 234.471 286.758H206.543L206.649 284.145Z" fill="#46331A"/>
<path d="M241.157 284.145H265.351C265.351 284.145 266.194 270.703 254.213 270.703C245.228 270.703 242.591 277.037 242.591 286.34C242.591 295.643 244.532 303.399 256.47 303.399C262.651 303.399 266.996 300.785 266.996 300.785L267.65 304.193C267.65 304.193 262.165 307.266 256.07 307.266C249.974 307.266 238.499 306.827 238.499 285.608C238.499 273.4 244.236 267.254 254.108 267.254C263.979 267.254 268.979 273.295 268.979 284.856C268.979 286.382 268.979 286.758 268.979 286.758H241.03L241.157 284.145Z" fill="#46331A"/>
</g>
<path d="M414.034 272.223C419.612 272.223 426.215 276.705 426.215 276.705L424.356 279.074C424.035 279.458 423.523 279.522 423.138 279.202C421.92 278.114 418.971 276 414.034 276C407.431 276 402.238 281.891 402.238 290.215C402.238 298.539 407.431 303.726 414.034 303.726C419.035 303.726 422.24 301.485 423.523 300.46C423.843 300.14 424.356 300.204 424.677 300.524L426.536 302.637C426.536 302.637 423.074 307.824 414.355 307.824C405.7 307.952 397.366 301.357 397.366 290.279C397.366 279.202 404.995 272.223 414.034 272.223Z" fill="#01426A"/>
<path d="M546.098 272.223C551.675 272.223 558.279 276.705 558.279 276.705L556.419 279.074C556.099 279.458 555.586 279.522 555.201 279.202C553.983 278.114 551.034 276 546.098 276C539.495 276 534.302 281.891 534.302 290.215C534.302 298.539 539.495 303.726 546.098 303.726C551.098 303.726 554.304 301.485 555.586 300.46C555.907 300.14 556.419 300.204 556.74 300.524L558.599 302.637C558.599 302.637 555.137 307.824 546.418 307.824C537.764 307.952 529.43 301.357 529.43 290.279C529.43 279.202 537.123 272.223 546.098 272.223Z" fill="#01426A"/>
<path d="M436.665 276.705V288.166H453.333V292.008H436.665V303.47H453.333V307.247H431.793V272.927H453.333V276.705H436.665Z" fill="#01426A"/>
<path d="M475.579 293.353C475.579 293.353 475.194 292.841 474.553 292.393C478.207 291.24 482.503 288.231 482.503 281.892C482.503 277.025 478.015 272.863 471.733 272.863C468.655 272.863 466.347 272.863 464.809 272.863H462.373H459.937V307.248H464.809V293.033C465.835 293.033 467.117 293.033 468.271 293.033C470.002 293.033 470.514 293.865 471.733 295.466C480.451 307.184 480.451 307.248 480.451 307.248H485.644L475.579 293.353ZM464.809 276.513C464.809 276.513 470.002 276.513 472.438 276.513C475.9 276.513 478.336 279.138 478.336 283.3C478.336 286.758 474.489 289.575 471.412 289.575C469.809 289.575 466.732 289.575 464.809 289.575V276.513V276.513Z" fill="#01426A"/>
<path d="M513.082 272.927H485.644V276.384H497.119V307.247H501.671V276.384H513.082V272.927Z" fill="#01426A"/>
<path d="M522.443 272.927H517.955V307.311H522.443V272.927Z" fill="#01426A"/>
<path d="M588.282 307.248H592L578.089 272.863H573.601L559.689 307.248H563.408C563.921 307.248 564.369 306.928 564.498 306.48L567.959 297.835H583.666L587.128 306.48C587.384 306.992 587.833 307.248 588.282 307.248ZM569.37 294.442L575.845 278.498L582.32 294.442H569.37Z" fill="#01426A"/>
<path d="M357.426 290.28C357.426 294.442 360.888 298.604 360.888 298.604C360.888 298.604 356.721 296.491 352.169 296.491C341.72 296.491 341.079 301.357 334.475 301.357C327.872 301.357 323 295.466 323 290.28C323 285.093 327.872 279.202 334.796 279.202C341.72 279.202 341.399 284.069 352.169 284.069C357.747 284.069 360.888 281.955 360.888 281.955C360.888 281.955 357.426 286.117 357.426 290.28Z" fill="#B8312D"/>
<path d="M375.12 300.461C378.71 298.348 380.633 293.289 380.633 293.289C380.633 293.289 380.89 297.963 383.198 301.869C388.391 310.898 392.942 309.041 396.276 314.739C399.61 320.438 396.917 327.61 392.365 330.235C387.878 332.86 380.313 331.58 376.851 325.561C373.389 319.542 377.749 317.429 372.363 308.08C369.607 303.278 366.209 301.613 366.209 301.613C366.209 301.613 371.53 302.574 375.12 300.461Z" fill="#004269"/>
<path d="M375.121 280.034C371.531 277.921 366.146 278.882 366.146 278.882C366.146 278.882 370.056 276.321 372.3 272.415C377.493 263.386 373.646 260.377 376.98 254.678C380.314 248.979 387.814 247.699 392.366 250.26C396.918 252.821 399.546 259.993 396.084 266.012C392.622 272.031 388.584 269.277 383.198 278.626C380.442 283.428 380.634 287.206 380.634 287.206C380.634 287.206 378.775 282.147 375.121 280.034Z" fill="#B7B09D"/>
<defs>
<linearGradient id="paint0_linear" x1="46.1192" y1="326.622" x2="46.1192" y2="298.441" gradientUnits="userSpaceOnUse">
<stop stop-color="#55B948"/>
<stop offset="1" stop-color="#A9CF38"/>
</linearGradient>
<clipPath id="clip0">
<rect width="269" height="35" fill="white" transform="translate(0 11)"/>
</clipPath>
<clipPath id="clip1">
<rect width="269" height="56.1767" fill="white" transform="translate(323)"/>
</clipPath>
<clipPath id="clip2">
<rect width="269" height="73" fill="white" transform="translate(0 254)"/>
</clipPath>
</defs>
</svg>
