<svg width="1920" height="339" viewBox="0 0 1920 339" fill="none" xmlns="http://www.w3.org/2000/svg">
<path opacity="0.15" fill-rule="evenodd" clip-rule="evenodd" d="M1455.67 169.5L1625.33 0.000191398L1795 169.5L1625.33 339L1455.67 169.5ZM-564 169.5C-564 153.286 -550.843 140.142 -534.613 140.142L-444.615 140.142C-428.385 140.142 -415.228 153.286 -415.228 169.5C-415.228 185.714 -428.385 198.858 -444.615 198.858L-534.613 198.858C-550.843 198.858 -564 185.714 -564 169.5ZM-294.007 169.5C-294.007 153.286 -280.85 140.142 -264.62 140.142L-84.6241 140.142C-68.3941 140.142 -55.237 153.286 -55.237 169.5C-55.237 185.714 -68.3941 198.858 -84.6241 198.858L-264.62 198.858C-280.85 198.858 -294.007 185.714 -294.007 169.5ZM65.9845 169.5C65.9845 153.286 79.1415 140.142 95.3715 140.142L275.367 140.142C291.597 140.142 304.754 153.286 304.754 169.5C304.754 185.714 291.597 198.858 275.367 198.858L95.3715 198.858C79.1415 198.858 65.9845 185.714 65.9845 169.5ZM425.976 169.5C425.976 153.286 439.133 140.142 455.363 140.142L635.358 140.142C651.588 140.142 664.745 153.286 664.745 169.5C664.745 185.714 651.588 198.858 635.358 198.858L455.363 198.858C439.133 198.858 425.976 185.714 425.976 169.5ZM785.967 169.5C785.967 153.286 799.124 140.142 815.354 140.142L995.349 140.142C1011.58 140.142 1024.74 153.286 1024.74 169.5C1024.74 185.714 1011.58 198.858 995.349 198.858L815.354 198.858C799.124 198.858 785.967 185.714 785.967 169.5ZM1145.96 169.5C1145.96 153.286 1159.11 140.142 1175.34 140.142L1355.34 140.142C1371.57 140.142 1384.73 153.286 1384.73 169.5C1384.73 185.714 1371.57 198.858 1355.34 198.858L1175.34 198.858C1159.11 198.858 1145.96 185.714 1145.96 169.5Z" fill="url(#paint0_linear)"/>
<defs>
<linearGradient id="paint0_linear" x1="144.5" y1="171.335" x2="1625.33" y2="171.331" gradientUnits="userSpaceOnUse">
<stop stop-color="#477B9A" stop-opacity="0"/>
<stop offset="0.369792" stop-color="#477B9A" stop-opacity="0.55"/>
<stop offset="0.729167" stop-color="#63AEC7"/>
<stop offset="1" stop-color="#49A774"/>
</linearGradient>
</defs>
</svg>
