<svg width="576" height="407" viewBox="0 0 576 407" fill="none" xmlns="http://www.w3.org/2000/svg">
<rect width="516.853" height="343.962" transform="matrix(-1 0 0 1 576 0)" fill="url(#paint0_linear)"/>
<path d="M59.1469 0H-7.62939e-06V406.749L59.1469 343.962V0Z" fill="url(#paint1_linear)"/>
<path d="M372.446 385.274H541.599C549.316 385.274 555.598 379.017 555.598 371.33V137.326C555.598 129.907 549.586 123.918 542.138 123.918H372.446V385.274Z" fill="#3D63A4"/>
<path d="M372.446 385.274H203.023C195.395 385.274 189.293 379.106 189.293 371.598V137.594C189.293 129.996 195.395 123.918 202.933 123.918H372.446V385.274Z" fill="#3D63A4"/>
<path d="M372.48 371.102H544.504V153.276L372.48 153.276V371.102Z" fill="#D2D3D4"/>
<path d="M372.446 385.542C372.446 378.481 378.996 371.062 388.867 371.062H404.571V153.236H372.446V385.542Z" fill="#D2D3D4"/>
<path d="M404.571 153.236H544.471V371.062H404.571H388.867C378.996 371.062 372.446 378.481 372.446 385.542V371.062V153.236H404.571Z" fill="#D2D3D4"/>
<path d="M388.957 362.571H404.661H544.471V364.269H404.571H388.867C378.996 364.269 372.446 371.688 372.446 378.749V377.051C372.446 369.989 379.086 362.571 388.957 362.571Z" fill="#E6E7E7"/>
<path d="M388.957 355.688H404.661H544.471V357.386H404.571H388.867C378.996 357.386 372.446 364.805 372.446 371.866V370.168C372.446 363.107 379.086 355.688 388.957 355.688Z" fill="#E6E7E7"/>
<path d="M372.48 350.095H544.504V132.269L372.48 132.269V350.095Z" fill="#EAF1FA"/>
<path d="M372.446 364.626C372.446 357.565 378.996 350.146 388.867 350.146H404.571V132.32H372.446V364.626Z" fill="#D9E6F6"/>
<path d="M372.535 153.236H200.51V371.062H372.535V153.236Z" fill="#D2D3D4"/>
<path d="M372.446 385.542C372.446 378.481 365.895 371.062 356.024 371.062H340.32V153.236H372.446V385.542Z" fill="#D2D3D4"/>
<path d="M372.535 132.32H200.51V350.146H372.535V132.32Z" fill="#D9E6F6"/>
<path d="M372.446 364.626C372.446 357.565 365.895 350.146 356.024 350.146H340.32V132.32H372.446V364.626Z" fill="#EAF1FA"/>
<path d="M356.832 362.571H341.128H201.318V364.269H341.217H356.921C366.792 364.269 373.343 371.688 373.343 378.749V377.051C373.343 369.989 366.703 362.571 356.832 362.571Z" fill="#E6E7E7"/>
<path d="M356.832 355.688H341.128H201.318V357.386H341.217H356.921C366.792 357.386 373.343 364.805 373.343 371.866V370.168C373.343 363.107 366.703 355.688 356.832 355.688Z" fill="#E6E7E7"/>
<path d="M226.048 332.636H213.393C212.05 332.636 210.965 331.556 210.965 330.218V317.613C210.965 316.275 212.05 315.194 213.393 315.194H226.048C227.391 315.194 228.476 316.275 228.476 317.613V330.218C228.476 331.556 227.391 332.636 226.048 332.636Z" fill="#BB2629"/>
<path d="M277.12 307.636H264.465C263.122 307.636 262.038 306.556 262.038 305.218V292.613C262.038 291.275 263.122 290.195 264.465 290.195H277.12C278.463 290.195 279.548 291.275 279.548 292.613V305.218C279.548 306.556 278.463 307.636 277.12 307.636Z" fill="#BB2629"/>
<path d="M251.438 332.636H238.783C237.44 332.636 236.356 331.556 236.356 330.218V317.613C236.356 316.275 237.44 315.194 238.783 315.194H251.438C252.781 315.194 253.866 316.275 253.866 317.613V330.218C253.866 331.556 252.781 332.636 251.438 332.636Z" fill="white"/>
<path d="M226.048 307.636H213.393C212.05 307.636 210.965 306.556 210.965 305.218V292.613C210.965 291.275 212.05 290.195 213.393 290.195H226.048C227.391 290.195 228.476 291.275 228.476 292.613V305.218C228.476 306.556 227.391 307.636 226.048 307.636Z" fill="white"/>
<path d="M277.12 332.636H264.465C263.122 332.636 262.038 331.556 262.038 330.218V317.613C262.038 316.275 263.122 315.194 264.465 315.194H277.12C278.463 315.194 279.548 316.275 279.548 317.613V330.218C279.548 331.556 278.463 332.636 277.12 332.636Z" fill="#284A92"/>
<path d="M251.69 307.636H238.824C237.458 307.636 236.356 306.556 236.356 305.218V292.613C236.356 291.275 237.458 290.195 238.824 290.195H251.69C253.055 290.195 254.158 291.275 254.158 292.613V305.218C254.158 306.556 253.055 307.636 251.69 307.636Z" fill="#284A92"/>
<path d="M302.803 332.636H290.148C288.805 332.636 287.72 331.556 287.72 330.218V317.613C287.72 316.275 288.805 315.194 290.148 315.194H302.803C304.146 315.194 305.23 316.275 305.23 317.613V330.218C305.23 331.556 304.146 332.636 302.803 332.636Z" fill="#BB2629"/>
<path d="M328.193 332.636H315.538C314.195 332.636 313.11 331.556 313.11 330.218V317.613C313.11 316.275 314.195 315.194 315.538 315.194H328.193C329.536 315.194 330.621 316.275 330.621 317.613V330.218C330.621 331.556 329.536 332.636 328.193 332.636Z" fill="white"/>
<path d="M302.803 307.636H290.148C288.805 307.636 287.72 306.556 287.72 305.218V292.613C287.72 291.275 288.805 290.195 290.148 290.195H302.803C304.146 290.195 305.23 291.275 305.23 292.613V305.218C305.23 306.556 304.146 307.636 302.803 307.636Z" fill="white"/>
<path d="M328.444 307.636H315.578C314.213 307.636 313.11 306.556 313.11 305.218V292.613C313.11 291.275 314.213 290.195 315.578 290.195H328.444C329.81 290.195 330.913 291.275 330.913 292.613V305.218C330.913 306.556 329.81 307.636 328.444 307.636Z" fill="#284A92"/>
<path d="M226.048 282.637H213.393C212.05 282.637 210.965 281.556 210.965 280.219V267.613C210.965 266.276 212.05 265.195 213.393 265.195H226.048C227.391 265.195 228.476 266.276 228.476 267.613V280.219C228.476 281.556 227.391 282.637 226.048 282.637Z" fill="#BB2629"/>
<path d="M251.438 282.637H238.783C237.44 282.637 236.356 281.556 236.356 280.219V267.613C236.356 266.276 237.44 265.195 238.783 265.195H251.438C252.781 265.195 253.866 266.276 253.866 267.613V280.219C253.866 281.556 252.781 282.637 251.438 282.637Z" fill="white"/>
<path d="M277.12 282.637H264.465C263.122 282.637 262.038 281.556 262.038 280.219V267.613C262.038 266.276 263.122 265.195 264.465 265.195H277.12C278.463 265.195 279.548 266.276 279.548 267.613V280.219C279.548 281.556 278.463 282.637 277.12 282.637Z" fill="#284A92"/>
<path d="M302.803 282.637H290.148C288.805 282.637 287.72 281.556 287.72 280.219V267.613C287.72 266.276 288.805 265.195 290.148 265.195H302.803C304.146 265.195 305.23 266.276 305.23 267.613V280.219C305.23 281.556 304.146 282.637 302.803 282.637Z" fill="#BB2629"/>
<path d="M328.193 282.637H315.538C314.195 282.637 313.11 281.556 313.11 280.219V267.613C313.11 266.276 314.195 265.195 315.538 265.195H328.193C329.536 265.195 330.621 266.276 330.621 267.613V280.219C330.621 281.556 329.536 282.637 328.193 282.637Z" fill="white"/>
<path d="M284.324 224.742H210.471V231.267H284.324V224.742Z" fill="#B3CDE7"/>
<path d="M329.633 240.388H210.117V244.898H329.633V240.388Z" fill="#B3CDE7"/>
<path d="M488.924 155.47H415.071V161.995H488.924V155.47Z" fill="#C8DDF2"/>
<path d="M534.779 171.202H415.43V175.492H534.779V171.202Z" fill="#C8DDF2"/>
<path d="M534.779 183.09H415.43V187.38H534.779V183.09Z" fill="#C8DDF2"/>
<path d="M534.779 195.067H415.43V199.357H534.779V195.067Z" fill="#C8DDF2"/>
<path d="M534.779 207.044H415.43V211.335H534.779V207.044Z" fill="#C8DDF2"/>
<path d="M494.308 218.932H415.43V223.223H494.308V218.932Z" fill="#C8DDF2"/>
<path d="M489.103 242.261H415.25V248.786H489.103V242.261Z" fill="#C8DDF2"/>
<path d="M534.869 257.993H415.519V262.283H534.869V257.993Z" fill="#C8DDF2"/>
<path d="M534.869 269.97H415.519V274.26H534.869V269.97Z" fill="#C8DDF2"/>
<path d="M534.869 281.858H415.519V286.148H534.869V281.858Z" fill="#C8DDF2"/>
<path d="M534.869 293.835H415.519V298.126H534.869V293.835Z" fill="#C8DDF2"/>
<path d="M494.398 305.723H415.519V310.013H494.398V305.723Z" fill="#C8DDF2"/>
<path d="M212.628 138.282H229.613C230.153 138.282 230.601 138.731 230.601 139.273V156.933C230.601 157.491 230.153 157.939 229.597 157.939H212.628C212.412 157.939 212.242 157.769 212.242 157.553V138.669C212.242 138.452 212.412 138.282 212.628 138.282Z" fill="white"/>
<path d="M212.411 138.282C211.609 138.282 210.96 138.932 210.96 139.737V156.515C210.96 157.274 211.547 157.893 212.288 157.97L219.298 138.297H212.411V138.282Z" fill="url(#paint2_linear)"/>
<path d="M230.6 139.737C230.6 138.932 229.951 138.282 229.148 138.282H225.026L230.584 154.054V139.737H230.6Z" fill="url(#paint3_linear)"/>
<path d="M226.06 154.735H218.063L216.997 157.955H227.095L226.06 154.735Z" fill="url(#paint4_radial)"/>
<path d="M222.108 142.415L219.297 150.974H224.856L222.108 142.415Z" fill="url(#paint5_linear)"/>
<path d="M410.315 241.367L427.993 220.899L445.671 241.367V132.32H410.315V241.367Z" fill="url(#paint6_linear)"/>
<path d="M215.755 222.912V189.65L212.372 187.395L201.097 187.959L189.822 194.724L186.44 207.127L192.641 219.529L205.607 226.294L215.755 222.912Z" fill="#D9E6F6"/>
<path d="M201.097 223.475V186.832L212.372 187.395L223.647 194.16L227.03 206.563L220.829 218.965L207.862 225.73L201.097 223.475Z" fill="#284A92"/>
<rect x="210.96" y="167.01" width="119.013" height="47.1949" fill="#284A92"/>
<path d="M149.716 251.433C142.279 249.045 119.352 247.134 119.284 247.953C117.919 270.129 120.103 287.392 119.761 305.815C119.557 318.371 119.966 362.791 121.536 369.683C126.585 372.617 133.135 373.094 136.956 370.502C137.093 352.761 137.434 327.514 140.709 310.933C145.213 288.757 148.283 274.223 149.716 251.433Z" fill="url(#paint7_linear)"/>
<path d="M135.592 166.003C135.592 166.003 134.227 178.9 135.319 199.233C135.933 210.697 138.185 217.588 140.573 220.523C142.415 222.706 152.787 224.344 152.923 218.134C153.06 213.494 155.039 189.135 151.763 180.06C148.283 170.166 135.592 166.003 135.592 166.003Z" fill="#1F4493"/>
<path d="M134.773 167.846C134.773 167.846 134.227 178.9 135.319 199.165C135.933 210.629 138.185 217.52 140.573 220.455C142.142 222.365 145.622 213.358 146.85 208.923C149.648 198.756 150.262 191.796 149.58 182.994C148.624 170.098 134.773 167.846 134.773 167.846Z" fill="#284C98"/>
<path fill-rule="evenodd" clip-rule="evenodd" d="M177.821 231.355C178.199 231.033 177.922 230.26 177.65 230.158C176.656 229.787 173.215 232.931 173.215 232.931C172.837 233.253 172.719 233.982 172.946 234.478C173.172 234.975 173.652 235.206 174.03 234.884L177.821 231.355Z" fill="#B07550"/>
<path fill-rule="evenodd" clip-rule="evenodd" d="M170.391 231.031C168.822 230.826 167.252 229.325 166.434 228.847C165.751 230.417 162.817 235.125 161.657 236.49C162.34 236.899 163.977 237.581 164.728 238.059C169.163 240.993 171.278 241.88 172.916 242.972C174.417 243.995 175.714 243.791 176.396 242.562C177.283 242.972 178.852 242.29 179.262 241.334C180.217 241.812 181.445 240.788 181.445 239.97C182.946 240.788 184.311 239.492 183.765 238.4C183.219 237.172 180.353 235.534 178.989 234.647C176.669 233.078 173.394 231.44 170.391 231.031Z" fill="#B07550"/>
<path fill-rule="evenodd" clip-rule="evenodd" d="M171.619 233.01C170.187 232.669 168.958 233.351 168.071 234.443C167.935 235.739 167.662 236.967 167.321 238.332C167.252 238.673 167.116 239.083 167.048 239.424C169.982 241.266 171.688 242.017 172.984 242.904C173.121 242.972 173.189 243.04 173.325 243.108C173.871 241.198 175.441 239.56 177.488 239.014C178.648 238.673 179.739 238.332 180.899 237.923C177.692 236.353 175.031 233.829 171.619 233.01Z" fill="#A16049"/>
<path d="M185.306 224.637L188.103 227.298L195.336 219.861L192.539 217.131L185.306 224.637Z" fill="#0B192A"/>
<path d="M183.191 224.501L168.452 239.717C167.087 241.15 167.156 243.402 168.52 244.766C169.953 246.131 172.205 246.063 173.57 244.698L188.308 229.482C189.673 228.049 189.605 225.797 188.24 224.433C186.807 223.068 184.555 223.068 183.191 224.501Z" fill="#0B192A"/>
<path d="M222.289 190.929L221.675 190.315C217.785 186.426 212.6 184.311 207.073 184.242H206.595H205.981C194.449 184.72 185.511 194.068 185.579 205.6C185.579 207.783 185.988 209.967 186.671 212.082L186.875 212.696L187.08 213.174C190.219 221.157 197.724 226.479 206.322 226.684H206.8H207.482C218.945 226.411 228.225 216.79 228.157 205.327C228.089 200.073 226.11 195.023 222.562 191.134L222.289 190.929ZM224.745 205.327C224.404 215.153 216.762 222.863 207.345 222.999H206.663L206.049 222.931C199.635 222.454 193.562 218.155 190.969 212.287L190.696 211.673L190.492 211.058C189.878 209.216 189.605 207.374 189.673 205.532C190.014 196.183 196.974 188.609 205.844 187.927L206.527 187.859H207.141C211.371 187.859 215.807 189.633 219.15 192.635L219.696 193.181L220.037 193.591C223.244 196.934 224.882 201.096 224.745 205.327Z" fill="#BB2629"/>
<path d="M132.385 207.627C127.881 207.49 118.465 215.951 130.815 222.843C138.935 227.415 162.613 239.287 162.613 239.287C166.707 233.829 169.095 229.393 169.095 229.393C169.095 229.393 150.945 219.09 145.349 215.064C141.801 212.403 136.547 207.763 132.385 207.627Z" fill="#1F4493"/>
<path d="M129.587 208.309C124.128 209.674 120.717 217.179 130.815 222.843C138.935 227.414 162.613 239.287 162.613 239.287C163.704 237.786 164.728 236.421 165.547 235.125C162.749 232.668 152.855 229.939 149.443 227.756C139.14 221.205 136.138 213.29 129.587 208.309Z" fill="#284C98"/>
<path fill-rule="evenodd" clip-rule="evenodd" d="M170.664 240.106C170.187 239.901 169.845 240.515 169.982 240.857C170.391 242.017 174.895 243.927 174.895 243.927C175.372 244.132 175.918 243.927 176.123 243.45C176.328 242.972 176.123 242.426 175.645 242.221L170.664 240.106Z" fill="#B07550"/>
<path fill-rule="evenodd" clip-rule="evenodd" d="M176.737 233.487C176.123 233.078 175.577 233.828 175.645 234.306C175.918 236.012 181.582 239.697 181.582 239.697C182.196 240.106 183.015 239.97 183.356 239.355C183.765 238.741 183.629 237.923 183.015 237.581L176.737 233.487Z" fill="#B07550"/>
<path fill-rule="evenodd" clip-rule="evenodd" d="M174.349 234.989C173.735 234.579 173.189 235.33 173.257 235.807C173.53 237.513 179.194 241.198 179.194 241.198C179.808 241.607 180.626 241.471 180.968 240.857C181.377 240.243 181.241 239.424 180.626 239.083L174.349 234.989Z" fill="#B07550"/>
<path fill-rule="evenodd" clip-rule="evenodd" d="M172.302 236.558C171.756 236.217 171.21 236.899 171.278 237.308C171.551 238.878 176.737 242.221 176.737 242.221C177.283 242.562 178.034 242.426 178.375 241.88C178.716 241.334 178.579 240.584 178.034 240.242L172.302 236.558Z" fill="#B07550"/>
<path d="M96.9774 242.451C96.256 260.619 99.0693 285.388 98.2037 309.068C97.4102 329.073 92.9378 347.309 92 370.377C95.8953 371.33 101.378 373.099 106.932 371.057C109.673 362.211 128.14 288.79 133.622 258.918C135.354 249.324 140.836 248.235 136.147 240.07C133.045 234.694 103.397 241.363 96.9774 242.451Z" fill="#BB2629"/>
<path d="M121.808 166.003C103.59 166.003 96.4253 181.356 96.63 193.161C96.8347 206.262 95.6747 252.183 96.2206 255.458C96.6982 258.324 148.283 256.96 149.921 252.934C150.74 250.887 148.761 180.333 146.987 175.283C145.622 171.326 129.382 166.003 121.808 166.003Z" fill="#284C98"/>
<path d="M114 179C108.5 179.5 106 188.5 106 188.5C106 188.5 104.272 193.502 115.736 210.288C122.218 219.772 128.359 224.412 131.907 225.64C134.636 226.596 143.098 226.05 141.869 219.977C140.778 213.972 119.477 178.502 114 179Z" fill="url(#paint8_linear)"/>
<path d="M128.291 166.822C125.834 166.345 123.583 166.003 121.808 166.003C103.59 166.003 96.4253 181.356 96.63 193.161C96.8347 206.262 95.6747 252.183 96.2206 255.458C96.4253 256.687 106.388 257.164 117.646 256.891C115.258 251.228 107.82 251.091 106.729 246.042C105.773 241.607 111.437 242.016 111.437 236.285C111.437 233.896 109.049 233.692 105.228 227.892C102.43 223.525 108.776 219.84 108.776 212.334C108.776 208.036 103.18 193.707 102.976 189.408C102.362 175.624 115.667 171.599 128.291 166.822Z" fill="url(#paint9_linear)"/>
<path d="M111.096 149.559C111.096 149.559 111.642 160.954 111.846 167.095C112.051 173.236 130.474 171.667 130.474 167.436C130.474 162.387 124.538 160.818 124.06 156.519C123.583 152.152 111.096 149.559 111.096 149.559Z" fill="#B07550"/>
<path d="M135.387 129.089C134.432 127.11 132.521 126.087 130.406 125.677C127.54 125.063 124.538 124.79 121.604 125.2C118.67 125.609 115.804 126.905 113.893 129.157C111.642 131.75 110.823 135.298 110.686 138.778C110.55 142.19 111.027 145.67 110.959 149.082C110.959 150.173 115.531 161.091 126.653 164.639C131.566 166.208 137.366 162.387 139.276 157.611C140.505 154.677 140.163 151.333 139.822 148.194C139.072 141.644 138.321 134.957 135.387 129.089Z" fill="#B07550"/>
<path d="M135.387 129.089C134.432 127.11 132.521 126.087 130.406 125.677C127.54 125.063 124.538 124.79 121.604 125.2C120.58 125.336 119.625 125.609 118.67 125.95C118.67 125.95 118.738 125.95 118.738 126.018C123.241 128.884 127.608 129.021 130.201 133.865C130.406 134.275 130.542 135.025 130.611 135.844C130.679 136.185 130.679 136.458 130.679 136.799C130.747 137.413 130.747 137.959 130.815 138.301C131.157 140.279 135.933 143.896 136.274 146.284C136.956 150.787 133.818 159.658 130.884 162.66C129.724 163.82 128.495 164.434 127.131 164.775C131.839 165.867 137.229 162.114 139.072 157.611C140.3 154.677 139.959 151.333 139.618 148.194C139.072 141.644 138.321 134.957 135.387 129.089Z" fill="#A16049"/>
<path d="M138.662 128.27C135.797 127.588 131.634 120.764 121.194 122.197C108.844 123.903 102.43 133.933 110.345 153.926C111.164 153.653 114.303 150.651 115.19 147.99C115.872 145.874 120.239 145.329 118.943 132.978C118.738 131.068 130.952 134.002 138.662 128.27Z" fill="#0B192A"/>
<path d="M121.194 122.197C119.352 122.47 117.646 122.88 116.145 123.494C113.279 124.654 113.689 128.816 116.759 129.43C126.448 131.204 136.411 127.178 136.547 127.11C133.681 124.995 129.382 121.106 121.194 122.197Z" fill="url(#paint10_linear)"/>
<path d="M117.169 140.825C115.599 140.279 113.757 140.279 112.529 141.371C111.164 142.599 111.232 144.851 111.846 146.557C112.324 147.921 113.143 149.218 114.303 150.105C115.872 151.265 118.124 151.538 119.966 150.719C125.902 148.058 121.467 142.258 117.169 140.825Z" fill="#B07550"/>
<path d="M114.166 143.691C112.187 145.465 116.486 148.536 116.486 148.536C116.486 148.536 116.964 146.762 117.441 146.011C117.919 145.329 119.352 144.715 119.352 144.715C119.352 144.715 116.145 141.917 114.166 143.691Z" fill="#A16049"/>
<path d="M139.754 146.557C138.799 145.533 133.477 146.693 131.225 147.375C128.564 148.126 127.199 150.173 127.131 152.084C122.559 150.924 117.714 134.206 117.714 134.206L114.78 138.3C114.78 138.3 120.648 143.691 119.42 150.378C118.874 153.312 115.122 163.82 123.651 168.869C132.453 174.055 142.347 168.528 143.848 161.022C144.326 158.498 142.688 156.451 141.255 152.698C140.641 150.992 141.938 148.945 139.754 146.557Z" fill="#0B192A"/>
<path d="M119.898 140.552C119.761 141.098 122.627 152.152 124.197 150.992C124.538 150.719 124.333 150.173 124.401 149.764C122.695 147.444 121.126 143.759 119.898 140.552Z" fill="#1E498A"/>
<path d="M139.754 146.557C139.413 146.216 138.457 146.079 137.298 146.216C138.253 147.649 138.867 149.286 138.048 150.173C136.206 152.289 132.521 151.402 132.658 153.108C132.794 155.018 139.072 154.813 139.686 155.086C140.846 155.7 141.664 158.976 141.255 161.091C140.027 167.437 132.316 171.258 124.811 169.416C133.272 173.578 142.483 168.187 143.916 161.023C144.394 158.498 142.756 156.451 141.323 152.698C140.641 150.992 141.937 148.945 139.754 146.557Z" fill="url(#paint11_linear)"/>
<path fill-rule="evenodd" clip-rule="evenodd" d="M139.686 165.321C139.618 164.161 138.117 162.933 136.888 163.07C136.888 161.841 135.182 161.159 134.295 161.568C134.295 159.59 132.317 158.907 131.361 160.067C130.406 161.296 130.27 165.117 130.065 167.027C129.792 170.234 129.928 174.533 131.088 177.808C131.703 179.514 131.225 188.657 131.157 189.749C133.135 189.613 139.618 190.705 141.665 191.182C141.733 190.227 141.255 180.742 141.324 179.787C141.938 173.714 141.665 170.985 141.938 168.733C142.211 166.55 141.255 165.321 139.686 165.321Z" fill="#B07550"/>
<path fill-rule="evenodd" clip-rule="evenodd" d="M134.295 161.568C134.295 159.59 132.317 158.907 131.361 160.067C130.406 161.296 130.27 165.117 130.065 167.027C129.792 170.234 129.928 174.533 131.088 177.808C131.703 179.514 131.225 188.657 131.157 189.749C131.771 189.749 132.862 189.817 134.091 189.954C134.022 188.18 134.091 186.406 134.432 184.632C134.91 182.175 135.455 180.06 134.91 177.467C134.568 175.761 133.613 174.26 133.408 172.554C132.794 167.71 135.455 164.98 139.004 164.093C138.458 163.479 137.639 163.07 136.888 163.138C136.888 161.841 135.182 161.159 134.295 161.568Z" fill="#A16049"/>
<path fill-rule="evenodd" clip-rule="evenodd" d="M138.662 156.792L132.044 159.59C131.43 159.863 131.157 160.545 131.361 161.159C131.634 161.773 132.317 162.046 132.931 161.841L138.867 159.59C139.481 159.317 140.505 158.089 140.232 157.474C139.959 156.792 139.277 156.519 138.662 156.792Z" fill="#A16049"/>
<path fill-rule="evenodd" clip-rule="evenodd" d="M141.323 180.469C140.232 180.264 135.933 179.377 131.566 180.06C131.361 180.06 131.225 180.196 131.225 180.401C131.157 181.015 131.02 182.311 131.157 183.267C131.157 183.471 131.361 183.608 131.634 183.608C132.862 183.403 136.752 182.857 141.255 183.949C141.46 184.017 141.733 183.881 141.733 183.608C141.801 182.994 141.869 181.766 141.665 180.742C141.596 180.606 141.46 180.537 141.323 180.469Z" fill="#720B09"/>
<path d="M141.801 186.269C141.801 186.269 137.775 185.246 130.884 185.86C130.884 185.86 128.768 206.33 128.291 215.61C127.608 229.734 140.641 226.596 142.074 222.297C143.439 218.135 144.189 213.426 143.848 209.059C143.371 202.168 141.801 186.269 141.801 186.269Z" fill="url(#paint12_linear)"/>
<path fill-rule="evenodd" clip-rule="evenodd" d="M135.592 178.286C133.818 178.217 132.385 179.582 132.248 181.288C132.18 183.062 133.545 184.495 135.251 184.631C137.025 184.7 138.458 183.335 138.594 181.629C138.731 179.855 137.366 178.354 135.592 178.286Z" fill="#BB2629"/>
<path fill-rule="evenodd" clip-rule="evenodd" d="M135.592 179.105C134.295 179.036 133.204 180.06 133.135 181.356C133.067 182.653 134.091 183.744 135.387 183.813C136.683 183.881 137.775 182.857 137.843 181.561C137.843 180.265 136.82 179.173 135.592 179.105Z" fill="#BE1E2D"/>
<path d="M137.957 142.061C137.334 142.061 136.829 141.051 136.829 139.806C136.829 138.56 137.334 137.551 137.957 137.551C138.58 137.551 139.085 138.56 139.085 139.806C139.085 141.051 138.58 142.061 137.957 142.061Z" fill="#3C1500"/>
<path d="M130.064 142.061C129.442 142.061 128.937 141.051 128.937 139.806C128.937 138.56 129.442 137.551 130.064 137.551C130.687 137.551 131.192 138.56 131.192 139.806C131.192 141.051 130.687 142.061 130.064 142.061Z" fill="#3C1500"/>
<path d="M134.624 132.741C134.624 132.741 136.019 132.294 136.981 132.247C137.938 132.2 139.274 132.509 139.274 132.509" stroke="#0B192A" stroke-width="1.5" stroke-linecap="round"/>
<path d="M126.772 135.253C126.772 135.253 128.108 134.652 129.058 134.497C130.004 134.343 131.367 134.5 131.367 134.5" stroke="#0B192A" stroke-width="1.5" stroke-linecap="round"/>
<path d="M92.6625 370.572L91.9368 379.732L99.6702 380.958L100.575 378.884L104.137 379.727L108.599 381.641L126.294 379.736C126.294 379.736 126.674 378.185 126.15 377.661C124.664 376.149 117.39 376.58 117.39 376.58L106.936 371.996L92.6625 370.572Z" fill="#203858"/>
<path d="M121.662 369.572L120.937 378.732L128.67 379.958L129.575 377.884L133.137 378.727L137.599 380.641L155.294 378.736C155.294 378.736 155.674 377.185 155.15 376.661C153.664 375.149 146.39 375.58 146.39 375.58L135.936 370.996L121.662 369.572Z" fill="#1C2E46"/>
<defs>
<linearGradient id="paint0_linear" x1="4.36223e-06" y1="166.976" x2="516.853" y2="171.981" gradientUnits="userSpaceOnUse">
<stop stop-color="#2B5E13"/>
<stop offset="0.119792" stop-color="#245616"/>
<stop offset="0.864583" stop-color="#2F5114"/>
<stop offset="1" stop-color="#114817"/>
</linearGradient>
<linearGradient id="paint1_linear" x1="59" y1="208.5" x2="10.4152" y2="213.105" gradientUnits="userSpaceOnUse">
<stop stop-color="#2B5420"/>
<stop offset="1" stop-color="#106026"/>
</linearGradient>
<linearGradient id="paint2_linear" x1="209.8" y1="145.943" x2="216.823" y2="148.511" gradientUnits="userSpaceOnUse">
<stop stop-color="#284C98"/>
<stop offset="0.3503" stop-color="#284B96"/>
<stop offset="0.5383" stop-color="#294A90"/>
<stop offset="0.6878" stop-color="#2A4887"/>
<stop offset="0.817" stop-color="#2B467B"/>
<stop offset="0.932" stop-color="#2B426C"/>
<stop offset="1" stop-color="#2A3F61"/>
</linearGradient>
<linearGradient id="paint3_linear" x1="232.026" y1="144.495" x2="226.846" y2="146.535" gradientUnits="userSpaceOnUse">
<stop offset="0.0737432" stop-color="#BE1E2D"/>
<stop offset="0.4211" stop-color="#BE1F2D"/>
<stop offset="0.5462" stop-color="#BA202E"/>
<stop offset="0.6354" stop-color="#B52230"/>
<stop offset="0.7075" stop-color="#AD2532"/>
<stop offset="0.7693" stop-color="#A12835"/>
<stop offset="0.823" stop-color="#932C39"/>
<stop offset="0.8678" stop-color="#85303D"/>
</linearGradient>
<radialGradient id="paint4_radial" cx="0" cy="0" r="1" gradientUnits="userSpaceOnUse" gradientTransform="translate(222.045 156.346) scale(3.74737 2.25399)">
<stop stop-color="#284C98"/>
<stop offset="0.4669" stop-color="#274B96"/>
<stop offset="0.7175" stop-color="#244992"/>
<stop offset="0.9162" stop-color="#20458D"/>
<stop offset="1" stop-color="#1E4389"/>
</radialGradient>
<linearGradient id="paint5_linear" x1="222.075" y1="148.794" x2="222.075" y2="143.216" gradientUnits="userSpaceOnUse">
<stop offset="0.0749372" stop-color="#284C98"/>
<stop offset="0.2803" stop-color="#274994"/>
<stop offset="0.5865" stop-color="#24448B"/>
<stop offset="0.9542" stop-color="#1F3B7B"/>
<stop offset="1" stop-color="#1E3979"/>
</linearGradient>
<linearGradient id="paint6_linear" x1="427.993" y1="132.32" x2="427.993" y2="241.367" gradientUnits="userSpaceOnUse">
<stop stop-color="#284A92"/>
<stop offset="1" stop-color="#284A92" stop-opacity="0.37"/>
</linearGradient>
<linearGradient id="paint7_linear" x1="134.273" y1="247.76" x2="134.273" y2="372.193" gradientUnits="userSpaceOnUse">
<stop stop-color="#BB2629"/>
<stop offset="1" stop-color="#893125"/>
</linearGradient>
<linearGradient id="paint8_linear" x1="127.5" y1="192" x2="112" y2="208.5" gradientUnits="userSpaceOnUse">
<stop offset="0.5" stop-color="#244792"/>
<stop offset="0.875" stop-color="#1E3B7A"/>
<stop offset="1" stop-color="#1A356D"/>
</linearGradient>
<linearGradient id="paint9_linear" x1="96.083" y1="211.486" x2="128.27" y2="211.486" gradientUnits="userSpaceOnUse">
<stop stop-color="#284C98"/>
<stop offset="0.6899" stop-color="#284C98"/>
<stop offset="0.78" stop-color="#274B96"/>
<stop offset="0.8362" stop-color="#264892"/>
<stop offset="0.8831" stop-color="#24448B"/>
<stop offset="0.9249" stop-color="#213F82"/>
<stop offset="0.9629" stop-color="#1C3776"/>
<stop offset="0.9984" stop-color="#152C66"/>
<stop offset="1" stop-color="#152C65"/>
</linearGradient>
<linearGradient id="paint10_linear" x1="125.378" y1="122.008" x2="116" y2="129" gradientUnits="userSpaceOnUse">
<stop stop-color="#1E498A"/>
<stop offset="0.473958" stop-color="#1B417B"/>
<stop offset="0.880208" stop-color="#0B192A"/>
</linearGradient>
<linearGradient id="paint11_linear" x1="142.5" y1="154" x2="132" y2="156" gradientUnits="userSpaceOnUse">
<stop stop-color="#1E498A"/>
<stop offset="1" stop-color="#1E498A" stop-opacity="0"/>
</linearGradient>
<linearGradient id="paint12_linear" x1="136" y1="211" x2="126" y2="219.5" gradientUnits="userSpaceOnUse">
<stop offset="0.5" stop-color="#244792"/>
<stop offset="0.875" stop-color="#1E3B7A"/>
<stop offset="1" stop-color="#1A356D"/>
</linearGradient>
</defs>
</svg>
