<svg width="1920" height="581" viewBox="0 0 1920 581" fill="none" xmlns="http://www.w3.org/2000/svg">
<path d="M1814.36 151.861C1844.11 172.388 1894.58 163.614 1910.54 133.598C1919.2 117.273 1916.34 77.7628 1886.59 57.2359C1856.83 36.7091 1817.03 42.8223 1797.69 70.8847C1778.35 98.9286 1784.62 131.33 1814.36 151.861Z" fill="#6FA186"/>
<path d="M1814.36 151.858C1808.77 148.01 1804.02 143.741 1800.11 139.167C1821.04 125.413 1849.99 125.365 1872.97 141.218C1878.78 145.243 1883.56 149.978 1887.44 155.13C1865.32 166.228 1834.89 166.019 1814.36 151.858Z" fill="#6FA186"/>
<path d="M1797.49 286.911C1849.26 286.568 1901.35 243.374 1895.47 203.096C1892.28 181.189 1856.53 144.519 1804.78 144.858C1753.01 145.201 1711.27 178.479 1711.55 219.174C1711.81 259.875 1745.72 287.255 1797.49 286.911Z" fill="#6FA186"/>
<path fill-rule="evenodd" clip-rule="evenodd" d="M2014.41 192.911L1801.85 70.9331L1797.11 79.2001L2009.67 201.178L2014.41 192.911Z" fill="#508769"/>
<path d="M1820.29 284.077C1818.95 266.271 1823.46 246.975 1834.4 229.604C1848.88 206.591 1871.33 194.697 1891.04 190.775C1893.41 195.13 1894.95 199.333 1895.48 203.095C1900.46 237.422 1863.37 273.833 1820.29 284.077Z" fill="#6FA186"/>
<path fill-rule="evenodd" clip-rule="evenodd" d="M1890.64 194.163C1890.64 194.163 1890.64 194.163 1890.74 198.768C1890.84 203.373 1890.84 203.374 1890.85 203.374L1891.02 203.417C1891.14 203.445 1891.31 203.487 1891.54 203.54C1891.98 203.648 1892.64 203.804 1893.49 204.002C1895.17 204.396 1897.6 204.954 1900.57 205.607C1906.5 206.914 1914.62 208.605 1923.31 210.144C1931.99 211.681 1941.29 213.071 1949.6 213.767C1957.83 214.455 1965.35 214.491 1970.33 213.158C1979.69 210.649 2001.02 201.619 2019.82 193.317C2029.26 189.147 2038.12 185.131 2044.63 182.158C2047.88 180.671 2050.55 179.445 2052.4 178.591C2053.32 178.163 2054.04 177.829 2054.53 177.601C2054.67 177.537 2054.79 177.481 2054.9 177.434L2055.29 177.252C2055.29 177.252 2055.29 177.252 2053.7 172.776C2052.12 168.299 2052.12 168.299 2052.12 168.3L2051.93 168.387C2051.81 168.446 2051.62 168.532 2051.38 168.646C2050.89 168.873 2050.17 169.206 2049.25 169.632C2047.4 170.485 2044.74 171.708 2041.49 173.192C2035 176.16 2026.15 180.168 2016.73 184.328C1997.81 192.687 1976.83 201.547 1967.86 203.952C1963.67 205.075 1956.82 205.116 1948.63 204.43C1940.53 203.752 1931.39 202.388 1922.78 200.864C1914.17 199.342 1906.13 197.665 1900.24 196.369C1897.3 195.721 1894.89 195.168 1893.22 194.778C1892.39 194.583 1891.74 194.429 1891.3 194.323C1891.08 194.271 1890.91 194.23 1890.8 194.203L1890.64 194.163Z" fill="#508769"/>
<path fill-rule="evenodd" clip-rule="evenodd" d="M1712.45 226.811L1894.79 203.051L1894.17 198.325L1711.84 222.085L1712.45 226.811Z" fill="#508769"/>
<path fill-rule="evenodd" clip-rule="evenodd" d="M1716.52 244.889L1734.86 223.406L1731.24 220.311L1712.9 241.795L1716.52 244.889Z" fill="#508769"/>
<path fill-rule="evenodd" clip-rule="evenodd" d="M1722.62 256.268L1751.19 221.512L1747.5 218.485L1718.94 253.242L1722.62 256.268Z" fill="#508769"/>
<path fill-rule="evenodd" clip-rule="evenodd" d="M1733.94 270.275L1775.03 217.584L1771.28 214.653L1730.18 267.344L1733.94 270.275Z" fill="#508769"/>
<path fill-rule="evenodd" clip-rule="evenodd" d="M1749.68 280.042L1796.45 214.806L1792.57 212.029L1745.81 277.265L1749.68 280.042Z" fill="#508769"/>
<path fill-rule="evenodd" clip-rule="evenodd" d="M1769.63 286.643L1815.68 213.059L1811.64 210.531L1765.59 284.114L1769.63 286.643Z" fill="#508769"/>
<path fill-rule="evenodd" clip-rule="evenodd" d="M1793.79 290.064L1835.29 209.926L1831.06 207.734L1789.56 287.872L1793.79 290.064Z" fill="#508769"/>
<path fill-rule="evenodd" clip-rule="evenodd" d="M1818.26 287.432L1854.54 207.432L1850.2 205.463L1813.92 285.463L1818.26 287.432Z" fill="#508769"/>
<path fill-rule="evenodd" clip-rule="evenodd" d="M1852.12 274.614L1874.45 204.368L1869.91 202.924L1847.58 273.17L1852.12 274.614Z" fill="#508769"/>
<path fill-rule="evenodd" clip-rule="evenodd" d="M1880.31 255.899L1894.09 202.499L1889.48 201.307L1875.69 254.707L1880.31 255.899Z" fill="#508769"/>
<path fill-rule="evenodd" clip-rule="evenodd" d="M1709.73 195.872L1729.46 222.713L1733.3 219.89L1713.57 193.049L1709.73 195.872Z" fill="#508769"/>
<path fill-rule="evenodd" clip-rule="evenodd" d="M1722.09 178.72L1746.11 221.474L1750.26 219.14L1726.25 176.385L1722.09 178.72Z" fill="#508769"/>
<path fill-rule="evenodd" clip-rule="evenodd" d="M1739.78 162.369L1769.05 217.287L1773.25 215.045L1743.99 160.128L1739.78 162.369Z" fill="#508769"/>
<path fill-rule="evenodd" clip-rule="evenodd" d="M1758.49 149.773L1791.05 215.088L1795.31 212.962L1762.75 147.646L1758.49 149.773Z" fill="#508769"/>
<path fill-rule="evenodd" clip-rule="evenodd" d="M1778.93 143.72L1810.77 211.991L1815.09 209.976L1783.25 141.705L1778.93 143.72Z" fill="#508769"/>
<path fill-rule="evenodd" clip-rule="evenodd" d="M1798.35 143.077L1831.04 209.878L1835.32 207.783L1802.63 140.982L1798.35 143.077Z" fill="#508769"/>
<path fill-rule="evenodd" clip-rule="evenodd" d="M1821 143.428L1848.52 206.841L1852.89 204.943L1825.37 141.53L1821 143.428Z" fill="#508769"/>
<path fill-rule="evenodd" clip-rule="evenodd" d="M1843.32 148.03L1869.08 204.873L1873.42 202.906L1847.66 146.062L1843.32 148.03Z" fill="#508769"/>
<path fill-rule="evenodd" clip-rule="evenodd" d="M1867.08 159.866L1888.84 201.725L1893.07 199.527L1871.31 157.668L1867.08 159.866Z" fill="#508769"/>
<path d="M1944.96 315.955C1963.66 286.258 1955.95 239.427 1928.89 226.87C1914.17 220.037 1878.43 225.965 1859.73 255.648C1841.03 285.345 1846.38 322.322 1871.66 338.253C1896.95 354.199 1926.26 345.652 1944.96 315.955Z" fill="#61977A"/>
<path fill-rule="evenodd" clip-rule="evenodd" d="M1933.06 228.838L1863.38 331.813L1867.33 334.484L1937.01 231.509L1933.06 228.838Z" fill="#508769"/>
<path fill-rule="evenodd" clip-rule="evenodd" d="M1850.28 306.087L1892.62 295.14L1891.42 290.526L1849.09 301.473L1850.28 306.087Z" fill="#508769"/>
<path fill-rule="evenodd" clip-rule="evenodd" d="M1850.03 278.061L1913.75 265.921L1912.86 261.24L1849.14 273.38L1850.03 278.061Z" fill="#508769"/>
<path fill-rule="evenodd" clip-rule="evenodd" d="M1862.64 253.187L1926.14 246.965L1925.67 242.222L1862.18 248.444L1862.64 253.187Z" fill="#508769"/>
<path fill-rule="evenodd" clip-rule="evenodd" d="M1906.85 346.307L1894.44 292.658L1889.8 293.733L1902.21 347.381L1906.85 346.307Z" fill="#508769"/>
<path fill-rule="evenodd" clip-rule="evenodd" d="M1937.65 329.727L1914.32 262.093L1909.82 263.647L1933.15 331.281L1937.65 329.727Z" fill="#508769"/>
<path d="M21.4221 530.549C21.7279 530.447 11.0769 503.794 -1.15409 496.319C-9.37603 490.985 -23.153 488.93 -23.153 488.913C-23.153 488.93 -19.4327 496.149 -12.7397 502.35C-5.80882 508.397 16.4618 523.618 21.4221 530.549Z" fill="#508769"/>
<path fill-rule="evenodd" clip-rule="evenodd" d="M-15.5824 491.905C-11.1478 493.078 -5.81344 494.883 -1.88323 497.432L-1.8682 497.442L-1.85292 497.451C1.00244 499.196 3.84382 502.116 6.51454 505.612C9.17384 509.092 11.6061 513.065 13.6628 516.833C15.1945 519.64 16.5112 522.321 17.5518 524.581C17.0006 524.083 16.4242 523.575 15.8281 523.061C12.906 520.54 9.41724 517.781 5.88442 515.063C3.52456 513.247 1.15361 511.456 -1.08644 509.763C-5.59067 506.36 -9.56568 503.357 -11.8571 501.359C-15.1029 498.35 -17.6384 495.084 -19.3654 492.56C-19.8199 491.896 -20.2174 491.284 -20.556 490.745C-19.2192 491.016 -17.4959 491.399 -15.5824 491.905ZM-21.8299 488.911C-21.9648 488.328 -22.4661 487.777 -22.599 487.706C-22.6536 487.682 -22.7388 487.65 -22.7684 487.641C-22.8145 487.627 -22.8514 487.618 -22.8596 487.616L-22.8603 487.616C-22.8739 487.613 -22.8844 487.611 -22.8891 487.61L-22.9004 487.608C-22.9056 487.607 -22.9051 487.607 -22.8926 487.609L-22.7819 487.628C-22.6784 487.645 -22.5234 487.671 -22.3232 487.706C-21.9229 487.776 -21.343 487.88 -20.622 488.021C-19.1809 488.304 -17.1729 488.735 -14.9029 489.335C-10.3988 490.527 -4.7417 492.414 -0.451836 495.193C2.80256 497.186 5.87379 500.396 8.62617 503.998C11.3943 507.62 13.8989 511.718 15.9956 515.56C18.0939 519.405 19.7958 523.016 20.9554 525.675C21.5351 527.005 21.9824 528.104 22.2776 528.882C22.4241 529.268 22.5388 529.589 22.6139 529.826C22.6495 529.939 22.6867 530.065 22.7118 530.181C22.722 530.228 22.7452 530.34 22.7502 530.473C22.7523 530.53 22.7563 530.687 22.7062 530.878C22.6674 531.025 22.4865 531.591 21.8361 531.808L20.906 532.118L20.3354 531.32C19.1965 529.729 16.984 527.568 14.0923 525.074C11.2271 522.602 7.78503 519.879 4.26387 517.169C1.97912 515.411 -0.347454 513.654 -2.56689 511.976C-7.14032 508.521 -11.2588 505.409 -13.6192 503.349L-13.6341 503.336L-13.6486 503.323C-17.0888 500.136 -19.7549 496.697 -21.5587 494.061C-22.4621 492.741 -23.1531 491.616 -23.6203 490.816C-23.8539 490.416 -24.0321 490.097 -24.1532 489.874C-24.2137 489.762 -24.2605 489.674 -24.2933 489.612C-24.3095 489.581 -24.3233 489.554 -24.3341 489.532C-24.3391 489.522 -24.3457 489.509 -24.3523 489.496C-24.355 489.49 -24.3618 489.476 -24.3698 489.458C-24.3729 489.451 -24.3825 489.43 -24.3935 489.402C-24.3996 489.387 -24.4147 489.345 -24.4235 489.319C-24.4391 489.267 -24.4788 489.063 -24.4876 488.911L-21.8299 488.911Z" fill="#508769"/>
<path d="M22.4553 525.486C22.4553 525.486 32.597 522.31 42.212 520.441C51.844 518.573 58.673 517.333 66.6232 516.908C74.5734 516.5 77.2405 516.857 77.2405 516.857C77.2405 516.908 63.4294 527.542 51.589 528.833C39.7317 530.209 25.7679 527.796 22.4553 525.486Z" fill="#508769"/>
<path fill-rule="evenodd" clip-rule="evenodd" d="M74.9464 515.4C73.2473 515.361 70.5595 515.375 66.5578 515.58L66.555 515.58C58.5028 516.01 51.5923 517.268 41.9616 519.136C37.1075 520.079 32.1319 521.35 28.3783 522.383C26.4996 522.899 24.9226 523.357 23.8145 523.686C23.2604 523.851 22.8233 523.983 22.5241 524.075C22.3744 524.12 22.2593 524.156 22.1812 524.18L22.0922 524.208L22.0615 524.217C22.0613 524.217 22.0608 524.218 22.4579 525.486L22.0615 524.217L19.4769 525.027L21.6978 526.576C22.726 527.293 24.4103 527.924 26.3936 528.46C28.4214 529.008 30.9067 529.493 33.6445 529.859C39.1132 530.589 45.6799 530.856 51.7402 530.153C57.9393 529.476 64.5449 526.382 69.518 523.532C72.0236 522.097 74.1523 520.701 75.6563 519.66C76.4086 519.139 77.0067 518.706 77.4196 518.399C77.6257 518.245 77.7878 518.122 77.9013 518.034C77.9571 517.99 78.0059 517.952 78.044 517.92C78.0613 517.906 78.0862 517.886 78.1113 517.864C78.1212 517.855 78.1488 517.83 78.1807 517.799C78.1936 517.786 78.2324 517.747 78.2763 517.692C78.3001 517.662 78.3578 517.58 78.3902 517.527C78.4427 517.428 78.5504 517.094 78.5719 516.856L78.5719 515.693L77.4192 515.539L77.2431 516.856C77.4192 515.539 77.4196 515.539 77.4192 515.539L77.416 515.539L77.4117 515.538L77.4004 515.537L77.3656 515.532C77.3371 515.529 77.2977 515.525 77.2468 515.52C77.1451 515.509 76.9971 515.496 76.798 515.481C76.3999 515.453 75.7962 515.42 74.9464 515.4ZM73.3147 518.041C71.9459 518.963 70.1943 520.082 68.197 521.226C63.3056 524.028 57.0876 526.896 51.4476 527.511L51.4385 527.512C45.6427 528.185 39.3007 527.933 33.9964 527.224C31.347 526.87 28.9791 526.405 27.0866 525.894C26.8479 525.829 26.6189 525.765 26.3995 525.7C27.1929 525.472 28.0957 525.217 29.0829 524.945C32.8039 523.922 37.7068 522.67 42.4676 521.745C52.1004 519.876 58.8476 518.654 66.6952 518.234C69.5579 518.088 71.7226 518.041 73.3147 518.041Z" fill="#508769"/>
<path d="M28.741 501.723C29.0637 501.57 12.858 476.939 3.09029 471.673C-8.10437 465.048 -28.1326 461.6 -32.1586 460.547C-32.1416 460.53 -19.588 469.907 -8.54624 478.791C2.56346 487.386 20.4851 501.061 28.741 501.723Z" fill="#508769"/>
<path fill-rule="evenodd" clip-rule="evenodd" d="M-17.5631 465.305C-10.6724 467.122 -3.01793 469.603 2.41172 472.816L2.43454 472.83L2.45788 472.843C4.70473 474.054 7.42941 476.451 10.2974 479.482C13.1421 482.488 16.0426 486.026 18.6427 489.423C21.2408 492.817 23.526 496.053 25.1393 498.447C25.4602 498.923 25.7539 499.365 26.0175 499.767C24.7122 499.337 23.2257 498.701 21.5873 497.881C18.6398 496.405 15.3282 494.397 11.9 492.124C5.04865 487.581 -2.16915 482.046 -7.72498 477.747C-13.2552 473.298 -19.1594 468.728 -23.6822 465.274C-24.6722 464.518 -25.5962 463.815 -26.4359 463.179C-23.8962 463.739 -20.8288 464.444 -17.5631 465.305ZM-31.8258 459.266L-31.8243 459.261C-31.1577 459.435 -30.0322 459.678 -28.5338 460.002C-27.8462 460.15 -27.0801 460.316 -26.2438 460.499C-23.617 461.076 -20.3659 461.817 -16.8856 462.735C-9.96592 464.559 -2.02058 467.111 3.7427 470.516C6.3738 471.941 9.32872 474.591 12.2278 477.655C15.1587 480.752 18.1209 484.369 20.753 487.808C23.3869 491.249 25.7031 494.528 27.3429 496.961C28.1622 498.176 28.8173 499.187 29.261 499.906C29.4809 500.262 29.6582 500.561 29.7791 500.784C29.8361 500.888 29.899 501.01 29.9472 501.124C29.9664 501.17 30.0139 501.285 30.0435 501.428C30.0562 501.489 30.0894 501.661 30.0626 501.878C30.0367 502.088 29.9046 502.642 29.308 502.924L28.987 503.076L28.633 503.048C26.3034 502.861 23.4458 501.784 20.3975 500.258C17.3156 498.714 13.9044 496.642 10.4314 494.339C3.48468 489.733 -3.80868 484.138 -9.36125 479.842L-9.37126 479.834L-9.38112 479.826C-14.8899 475.394 -20.7791 470.836 -25.2952 467.387C-27.5528 465.662 -29.4658 464.216 -30.8149 463.203C-31.4895 462.696 -32.0223 462.298 -32.3862 462.028C-32.5308 461.92 -32.6476 461.834 -32.7356 461.769L-34.7391 461.245L-33.1002 459.606C-32.6823 459.332 -32.0495 459.247 -31.8258 459.266Z" fill="#508769"/>
<path d="M31.0834 499.531C31.0834 499.531 33.6825 497.985 40.3077 494.485C46.882 491.071 65.8912 481.031 73.8585 478.381C81.7747 475.833 97.981 474.066 103.621 473.591C105.727 473.438 90.7951 482.577 81.3669 487.249C74.1981 490.867 63.8016 496.048 56.5819 497.22C53.2183 497.781 37.4878 498.494 31.8478 503.115C26.1739 507.719 31.1004 499.531 31.0834 499.531Z" fill="#508769"/>
<path fill-rule="evenodd" clip-rule="evenodd" d="M104.252 472.367C103.941 472.246 103.654 472.258 103.525 472.267L103.517 472.268L103.51 472.268C97.8934 472.742 81.5358 474.516 73.4519 477.118L73.4396 477.122C69.3521 478.482 62.5243 481.698 55.9696 484.959C50.4542 487.702 45.0602 490.513 41.5268 492.355C40.8425 492.711 40.228 493.032 39.696 493.308L39.6878 493.312C36.3673 495.066 34.0524 496.332 32.5648 497.162C31.821 497.576 31.284 497.882 30.9315 498.084C30.7552 498.186 30.625 498.261 30.5382 498.312L30.4401 498.37L30.4148 498.385L30.4059 498.39C30.4058 498.39 30.4049 498.39 31.0841 499.533L30.4049 498.39L26.2501 500.862L28.8548 500.862C28.5756 501.422 28.2922 502.042 28.0921 502.608C27.9506 503.009 27.8104 503.491 27.7902 503.947C27.7741 504.31 27.829 505.371 28.8904 505.75C29.3112 505.901 29.7098 505.854 29.9855 505.787C30.2721 505.718 30.5506 505.596 30.8101 505.459C31.3297 505.183 31.9504 504.746 32.6857 504.149L32.6905 504.145C33.9058 503.149 35.7564 502.3 38.0159 501.594C40.2537 500.894 42.7864 500.366 45.2832 499.959C47.7761 499.552 50.2056 499.268 52.2333 499.051C52.7282 498.998 53.2047 498.949 53.6549 498.902C55.0101 498.761 56.128 498.645 56.7981 498.534C60.5748 497.92 65.1006 496.278 69.5196 494.374C73.9569 492.463 78.3793 490.247 81.9616 488.439C86.7203 486.081 92.8439 482.609 97.5142 479.746C99.8465 478.316 101.846 477.02 103.139 476.081C103.761 475.629 104.309 475.198 104.634 474.844C104.72 474.751 104.827 474.624 104.919 474.472C104.986 474.362 105.178 474.029 105.148 473.58C105.13 473.318 105.037 473.037 104.839 472.793C104.651 472.561 104.426 472.435 104.252 472.367ZM32.0625 500.5C32.1188 500.468 32.1832 500.43 32.256 500.389C32.5978 500.192 33.1246 499.892 33.8587 499.483C35.3265 498.665 37.6224 497.409 40.9248 495.665C41.4597 495.387 42.0757 495.066 42.7605 494.709C46.2955 492.867 51.6628 490.069 57.153 487.339C63.7348 484.065 70.3916 480.938 74.2722 479.646C80.5605 477.624 92.3099 476.084 99.5438 475.32C98.5589 475.966 97.4009 476.697 96.1253 477.479C91.5006 480.315 85.4463 483.746 80.7775 486.06L80.7687 486.064C77.1829 487.874 72.8246 490.057 68.4684 491.933C64.0932 493.818 59.8119 495.352 56.3695 495.91L56.364 495.911C55.7818 496.008 54.7926 496.111 53.4776 496.248C53.0087 496.297 52.4985 496.35 51.9505 496.409C49.9065 496.627 47.4201 496.917 44.855 497.336C42.2938 497.754 39.6262 498.306 37.2231 499.057C35.006 499.75 32.9194 500.641 31.3471 501.822C31.4267 501.666 31.5068 501.513 31.5854 501.365C31.7636 501.031 31.9264 500.74 32.0446 500.532C32.0507 500.521 32.0567 500.51 32.0625 500.5Z" fill="#508769"/>
<path d="M32.7505 483.582C32.9374 483.514 23.2887 462.857 15.1347 456.436C7.71116 450.252 -2.49843 444.137 -13.8122 440.723C-25.092 437.291 -35.1826 434.522 -35.1826 434.522C-35.1487 434.488 -24.7693 444.613 -15.8509 451.017C-6.84748 457.37 0.644037 464.25 11.1084 469.907C21.6577 475.53 32.7845 483.582 32.7505 483.582Z" fill="#508769"/>
<path fill-rule="evenodd" clip-rule="evenodd" d="M-35.08 433.191C-35.2998 433.192 -35.8415 433.363 -36.1206 433.576L-37.7371 435.193L-35.8368 435.714C-35.7757 435.771 -35.7023 435.84 -35.6163 435.921C-35.5462 435.987 -35.4684 436.06 -35.3833 436.14C-35.101 436.405 -34.7382 436.747 -34.3077 437.149C-33.1862 438.198 -31.5996 439.667 -29.7335 441.339C-26.0086 444.676 -21.1422 448.846 -16.6243 452.09L-16.6154 452.096C-13.7767 454.1 -11.0526 456.187 -8.31224 458.286C-2.53094 462.716 3.32271 467.201 10.4781 471.069L10.485 471.073C15.7063 473.856 21.0857 477.249 25.1655 479.954C27.1012 481.237 28.7394 482.362 29.9232 483.189L25.2086 484.904L32.7521 484.904C32.8847 484.873 33.0244 484.8 33.1607 484.699L33.2062 484.824C33.6162 484.675 33.8432 484.373 33.9505 484.151C34.0482 483.949 34.071 483.77 34.0785 483.685C34.0935 483.513 34.071 483.377 34.0643 483.337C34.0466 483.232 34.0195 483.145 34.0084 483.109C33.9803 483.02 33.9435 482.924 33.9091 482.837C33.8365 482.655 33.7296 482.407 33.5957 482.108C33.3258 481.507 32.9254 480.655 32.4177 479.621C31.4018 477.554 29.9457 474.741 28.2263 471.726C26.5081 468.714 24.5178 465.484 22.4328 462.593C20.3642 459.724 18.1519 457.116 15.9729 455.397C8.43498 449.121 -1.92373 442.916 -13.4253 439.444C-19.0744 437.726 -24.4243 436.174 -28.3615 435.051C-30.3304 434.49 -31.9467 434.036 -33.071 433.722C-33.6331 433.565 -34.0723 433.443 -34.3712 433.361L-34.8289 433.234C-34.8289 433.234 -34.8293 433.234 -34.8308 433.24C-34.9121 433.22 -35.0079 433.2 -35.08 433.191ZM-35.531 435.792C-35.531 435.792 -35.5309 435.792 -35.531 435.792V435.792ZM-30.2602 437.274C-29.886 437.381 -29.4955 437.492 -29.0901 437.607C-25.1623 438.727 -19.8276 440.275 -14.1974 441.988L-14.1945 441.988C-3.07616 445.344 6.97815 451.364 14.2859 457.45L14.2999 457.462L14.3142 457.473C16.2075 458.964 18.2538 461.341 20.2772 464.147C22.2888 466.937 24.2279 470.08 25.9178 473.043C27.304 475.473 28.5164 477.772 29.457 479.638C28.6148 479.063 27.6662 478.423 26.634 477.738C22.5225 475.012 17.0655 471.569 11.7387 468.729C4.7666 464.96 -0.799576 460.692 -6.48434 456.334C-9.2616 454.204 -12.0672 452.053 -15.0788 449.928C-19.4782 446.768 -24.2586 442.675 -27.9602 439.359C-28.7877 438.618 -29.5598 437.916 -30.2602 437.274Z" fill="#508769"/>
<path d="M35.1304 477.109C37.118 473.627 39.5133 470.467 48.0922 466.136C56.654 461.889 76.0371 449.267 88.2853 445.53C100.483 441.963 118.337 435.983 119.203 435.371C120.052 434.93 97.0169 455.077 82.883 461.124C71.0425 466.356 58.3867 469.873 50.963 471.928C43.5394 474.001 36.4554 477.025 33.6184 480.779C33.6184 480.796 34.3489 478.451 35.1304 477.109Z" fill="#508769"/>
<path fill-rule="evenodd" clip-rule="evenodd" d="M118.586 434.19L118.506 434.231L118.478 434.251C118.461 434.259 118.412 434.283 118.317 434.324C118.159 434.392 117.935 434.483 117.645 434.594C117.067 434.817 116.264 435.11 115.275 435.459C113.3 436.158 110.615 437.071 107.572 438.078C101.485 440.092 93.9874 442.474 87.9085 444.252L87.9011 444.254L87.8938 444.256C81.6164 446.172 73.5939 450.33 66.1554 454.478C63.2905 456.076 60.5177 457.669 57.9478 459.146C53.7695 461.546 50.1275 463.638 47.498 464.943L47.4895 464.947C43.1339 467.146 40.2757 469.084 38.236 470.961C36.1808 472.852 35.0061 474.638 33.9752 476.444C33.5255 477.217 33.1165 478.225 32.8326 478.987C32.6864 479.379 32.5661 479.726 32.4824 479.973C32.46 480.039 32.4402 480.098 32.4233 480.149L32.2859 480.331L32.2859 480.776C32.2881 480.853 32.3218 481.083 32.3671 481.234C32.5501 481.572 33.3528 482.079 33.9337 482.066C34.2179 481.961 34.5639 481.706 34.6484 481.611C34.6564 481.601 34.6651 481.589 34.674 481.577C35.9029 479.951 38.158 478.369 41.1478 476.916C44.1063 475.478 47.6513 474.229 51.3139 473.207C58.731 471.153 71.4707 467.615 83.4091 462.34C90.6473 459.242 100.055 452.598 107.471 446.863C111.198 443.981 114.456 441.302 116.731 439.369C117.867 438.403 118.763 437.619 119.353 437.087C119.644 436.824 119.874 436.61 120.023 436.461C120.078 436.407 120.186 436.299 120.271 436.187C120.292 436.158 120.352 436.078 120.408 435.966C120.435 435.913 120.491 435.793 120.524 435.631C120.552 435.494 120.608 435.109 120.374 434.701C120.101 434.226 119.651 434.076 119.381 434.043C119.143 434.013 118.957 434.057 118.886 434.075C118.732 434.114 118.618 434.173 118.586 434.19ZM37.4478 475.886C38.1296 474.898 38.9372 473.927 40.0356 472.916C41.8347 471.261 44.4625 469.453 48.6834 467.321C51.377 465.985 55.1483 463.819 59.3944 461.38C61.9513 459.912 64.6803 458.344 67.4498 456.8C74.9023 452.643 82.6921 448.624 88.662 446.801C94.7789 445.011 102.304 442.621 108.407 440.601C110.034 440.063 111.563 439.55 112.938 439.082C110.948 440.731 108.519 442.693 105.845 444.76C98.4249 450.499 89.2512 456.95 82.3566 459.9L82.3494 459.903L82.3422 459.906C70.6017 465.094 58.0334 468.588 50.6047 470.645L50.602 470.646C46.8419 471.695 43.1341 472.995 39.9861 474.525C39.1017 474.955 38.2504 475.408 37.4478 475.886ZM32.364 480.328L32.3629 480.331L32.3615 480.335C32.3618 480.334 32.3627 480.332 32.364 480.328Z" fill="#508769"/>
<path d="M35.9805 455.428C35.9465 455.462 33.2626 446.696 22.017 436.708C10.7713 426.719 -0.28753 418.667 -6.62387 415.524C-12.9262 412.331 -28.4359 408.815 -30.4234 407.965C-32.309 407.031 -21.7259 418.65 -17.9547 421.98C-14.0646 425.241 -5.65579 430.966 5.86173 436.436C17.5152 441.838 32.7699 452.081 35.9805 455.428Z" fill="#508769"/>
<path fill-rule="evenodd" clip-rule="evenodd" d="M-29.3932 407.577C-29.3929 407.578 -29.3925 407.579 -29.3922 407.579C-29.3954 407.572 -29.3962 407.571 -29.3932 407.577ZM-27.2481 410.303C-26.6751 410.97 -26.0223 411.712 -25.3226 412.49C-22.4524 415.681 -18.9165 419.36 -17.0883 420.977C-13.2937 424.155 -4.99242 429.814 6.42582 435.238C12.3264 437.973 19.1072 441.918 24.8065 445.59C27.5195 447.338 30.0237 449.048 32.086 450.552C32.0794 450.541 32.0728 450.53 32.0661 450.52C30.049 447.189 26.6502 442.606 21.1342 437.706C9.91285 427.739 -1.03989 419.782 -7.21456 416.72L-7.21458 416.72L-7.22478 416.715C-10.2405 415.187 -15.5654 413.541 -20.5023 412.15C-22.3239 411.636 -24.0679 411.164 -25.5995 410.75C-26.1274 410.607 -26.6301 410.471 -27.102 410.343C-27.1509 410.329 -27.1997 410.316 -27.2481 410.303ZM34.9979 456.329C33.4937 454.775 29.0258 451.471 23.3671 447.825C17.7248 444.189 11.0541 440.313 5.30257 437.646L5.30255 437.647L5.29137 437.641C-6.3094 432.132 -14.8177 426.349 -18.8087 423.003L-18.8217 422.992L-18.8344 422.981C-20.7811 421.262 -24.4125 417.476 -27.2987 414.267C-28.7446 412.659 -30.0341 411.162 -30.8499 410.114C-31.235 409.619 -31.5905 409.129 -31.7747 408.757C-31.8227 408.66 -31.8938 408.504 -31.9365 408.317C-31.9606 408.212 -32.0846 407.67 -31.7106 407.155C-31.2535 406.527 -30.5665 406.574 -30.3659 406.604C-30.158 406.636 -29.985 406.707 -29.8774 406.758C-29.4641 406.928 -28.255 407.274 -26.4036 407.778C-25.9388 407.905 -25.4409 408.039 -24.916 408.181C-23.3818 408.597 -21.6177 409.074 -19.7816 409.591C-14.8939 410.968 -9.31608 412.676 -6.02876 414.341C0.469938 417.566 11.632 425.711 22.899 435.719C28.6286 440.808 32.1946 445.601 34.3393 449.142C35.4113 450.912 36.1269 452.367 36.5798 453.387C36.8063 453.897 36.9663 454.297 37.0715 454.57C37.0904 454.619 37.1075 454.664 37.1228 454.704L37.8401 455.452L36.9196 456.372C36.725 456.533 36.2418 456.736 35.9687 456.762C35.7495 456.742 35.3992 456.628 35.269 456.556C35.1491 456.48 35.0587 456.395 34.9979 456.329Z" fill="#508769"/>
<path d="M36.8464 453.667C40.6856 450.167 50.8613 444.409 56.909 440.672C62.9736 436.849 69.0382 436.017 90.7997 419.505C110.064 404.811 121.921 388.639 121.888 388.656C121.904 388.639 117.929 390.831 104.39 396.606C90.8509 402.433 74.5765 417.807 60.6294 428.695C46.7164 439.635 39.0039 448.791 38.9869 448.808C38.2734 450.422 37.5599 452.036 36.8464 453.667Z" fill="#508769"/>
<path fill-rule="evenodd" clip-rule="evenodd" d="M117.099 392.534L115.158 393.504L115.467 393.196C112.866 394.379 109.416 395.905 104.915 397.825C104.915 397.825 104.916 397.825 104.917 397.824L104.391 396.604L104.913 397.826C104.913 397.826 104.914 397.826 104.915 397.825C98.3192 400.664 90.9839 405.866 83.4881 411.792C79.8965 414.632 76.2914 417.618 72.731 420.568L72.2959 420.928C68.6003 423.989 64.9542 427.003 61.4505 429.739C48.9577 439.562 41.5438 447.893 40.1627 449.476C41.7484 448.393 43.5315 447.255 45.3506 446.126C47.2494 444.949 49.2157 443.765 51.0798 442.645C51.2403 442.548 51.3999 442.453 51.5587 442.357C53.2464 441.343 54.8343 440.39 56.2072 439.541C57.9836 438.422 59.7063 437.57 61.7397 436.564C66.9918 433.966 74.3172 430.342 89.9964 418.445C99.5488 411.159 107.271 403.501 112.601 397.665C114.373 395.725 115.879 393.988 117.099 392.534ZM89.9964 418.445C89.9969 418.445 89.9974 418.444 89.9978 418.444L90.8008 419.502L89.9952 418.446C89.9956 418.446 89.996 418.445 89.9964 418.445ZM56.2072 439.541C56.2087 439.54 56.2103 439.539 56.2119 439.538L56.9102 440.669L56.2019 439.545C56.2037 439.544 56.2054 439.542 56.2072 439.541ZM40.1374 449.493C40.1458 449.487 40.1543 449.482 40.1627 449.476C40.1503 449.49 40.1383 449.504 40.1268 449.517C39.4388 451.073 38.7519 452.627 38.0651 454.197L36.8477 453.664L35.9527 452.682C36.9367 451.785 38.295 450.763 39.8633 449.681L38.9883 448.806L40.2036 449.343L40.2006 449.35C40.1795 449.398 40.1585 449.445 40.1374 449.493ZM61.4505 429.739C61.4498 429.739 61.4492 429.74 61.4485 429.74L60.6308 428.693L61.4521 429.738C61.4516 429.738 61.451 429.738 61.4505 429.739Z" fill="#508769"/>
<path d="M41.16 431.105C41.3469 431.003 25.4978 410.585 15.4582 402.329C5.72449 393.904 -1.42722 387.177 -16.5971 386.463C-31.8519 385.716 -39.4283 383.966 -39.4283 383.966C-39.3944 383.932 -25.5836 392.969 -14.0831 399.424C-2.42969 405.727 12.4173 415.121 17.9212 417.72C23.629 420.183 38.4759 432.227 41.16 431.105Z" fill="#508769"/>
<path fill-rule="evenodd" clip-rule="evenodd" d="M-39.4057 382.637C-39.5895 382.647 -40.0913 382.815 -40.3671 383.026L-42.0623 384.721L-39.9295 385.214C-39.8306 385.276 -39.6918 385.364 -39.5134 385.477C-39.2709 385.631 -38.9626 385.828 -38.5936 386.064C-38.3499 386.219 -38.0798 386.392 -37.7847 386.58C-36.3039 387.524 -34.2114 388.854 -31.7595 390.388C-26.8591 393.454 -20.5103 397.34 -14.7326 400.583L-14.7235 400.588L-14.7143 400.593C-9.07171 403.645 -2.67048 407.428 3.07145 410.822C3.23147 410.916 3.39099 411.011 3.54996 411.105C9.37438 414.547 14.5318 417.588 17.3548 418.921L17.3751 418.931L17.3957 418.94C18.7043 419.504 20.6137 420.658 22.8581 422.121C24.2622 423.036 25.7506 424.041 27.2604 425.061C28.1497 425.661 29.0464 426.267 29.9376 426.862C32.3171 428.45 34.6482 429.959 36.5658 431.001C37.5208 431.52 38.4212 431.95 39.202 432.212C39.5929 432.344 39.9931 432.447 40.3807 432.488C40.7563 432.528 41.2209 432.52 41.673 432.331L41.7366 432.305L41.7972 432.272C42.2106 432.046 42.3919 431.676 42.4551 431.411C42.5108 431.177 42.489 430.986 42.4766 430.903C42.4509 430.731 42.3967 430.603 42.3816 430.567L42.3815 430.567C42.3407 430.471 42.2947 430.392 42.2753 430.359C42.2266 430.277 42.1659 430.186 42.1076 430.102C41.9854 429.924 41.8084 429.68 41.5877 429.384C41.1434 428.788 40.4929 427.94 39.6806 426.906C38.0549 424.836 35.7676 422.004 33.1601 418.917C27.97 412.772 21.4366 405.527 16.3162 401.313C15.9168 400.967 15.5211 400.624 15.1285 400.283C5.97809 392.34 -1.50616 385.843 -16.5324 385.136C-24.1193 384.764 -29.7871 384.143 -33.5486 383.618C-35.4296 383.355 -36.8339 383.116 -37.7633 382.944C-38.228 382.858 -38.574 382.789 -38.8015 382.741C-38.9152 382.718 -38.9993 382.7 -39.0538 382.688L-39.1134 382.674L-39.1265 382.672L-39.1289 382.671C-39.1289 382.671 -39.1289 382.671 -39.1291 382.672C-39.2011 382.659 -39.3233 382.641 -39.4057 382.637ZM-39.7257 385.259C-39.7231 385.247 -39.6953 385.126 -39.4275 383.966L-39.7262 385.259C-39.726 385.259 -39.7259 385.259 -39.7257 385.259ZM-33.1887 386.35C-29.3644 386.863 -23.8588 387.438 -16.6613 387.79L-16.6587 387.79C-2.56274 388.453 4.2995 394.407 13.4741 402.367C13.842 402.686 14.2136 403.008 14.5895 403.334L14.6022 403.345L14.6152 403.355C19.5324 407.399 25.9366 414.484 31.1298 420.632C33.7039 423.68 35.962 426.475 37.5679 428.519C35.8159 427.546 33.6782 426.163 31.4133 424.651C30.548 424.073 29.6626 423.476 28.7775 422.878C27.2523 421.848 25.728 420.819 24.3094 419.894C22.0911 418.448 20.0132 417.178 18.4701 416.508C15.7843 415.237 10.7763 412.288 4.90205 408.816C4.73661 408.719 4.57053 408.62 4.40385 408.522C-1.32008 405.139 -7.75513 401.335 -13.4409 398.26C-19.1612 395.049 -25.4641 391.192 -30.3501 388.135C-31.3638 387.501 -32.316 386.901 -33.1887 386.35ZM40.7512 429.849C40.7512 429.849 40.7504 429.849 40.7489 429.849L40.7512 429.849ZM-40.0659 385.13C-40.0666 385.129 -40.0663 385.13 -40.0652 385.13L-40.0659 385.13Z" fill="#508769"/>
<path d="M39.0218 416.701C42.912 411.231 47.3799 406.373 58.439 396.469C68.8866 387.126 81.4066 375.761 88.7114 371.09C95.9652 366.605 119.884 350.909 120.53 350.433C121.192 350.127 107.262 371.752 96.4747 380.314C85.7553 388.961 76.8706 397.03 61.5646 404.266C46.2756 411.486 39.6843 418.094 37.5438 423.479C35.4542 428.847 38.1044 418.009 39.0218 416.701Z" fill="#508769"/>
<path fill-rule="evenodd" clip-rule="evenodd" d="M120.644 349.104C120.31 349.078 120.06 349.183 119.968 349.226L119.846 349.282L119.737 349.362C119.738 349.362 119.737 349.362 119.734 349.364C119.726 349.37 119.701 349.387 119.651 349.422C119.59 349.463 119.507 349.519 119.402 349.589C119.192 349.729 118.901 349.923 118.536 350.164C117.808 350.647 116.794 351.316 115.571 352.119C113.126 353.727 109.851 355.873 106.368 358.144C99.3972 362.691 91.6186 367.727 88.0082 369.959L87.9995 369.964L87.991 369.97C81.1418 374.35 69.8559 384.457 59.988 393.294C59.1639 394.032 58.3496 394.762 57.5487 395.478L57.548 395.478C46.4631 405.405 41.9096 410.341 37.9343 415.93L37.9292 415.937C37.7077 416.253 37.5157 416.712 37.3624 417.115C37.1926 417.562 37.0127 418.101 36.8358 418.674C36.4814 419.821 36.1214 421.161 35.8568 422.29C35.7247 422.854 35.6131 423.379 35.5378 423.808C35.5003 424.023 35.4694 424.226 35.45 424.407C35.4335 424.561 35.4142 424.791 35.4388 425.014L35.439 425.015C35.4476 425.094 35.4799 425.388 35.6735 425.679C35.7882 425.852 36.0018 426.086 36.3518 426.211C36.7121 426.34 37.0443 426.291 37.2737 426.208C37.6421 426.074 37.8533 425.817 37.9062 425.753L37.9085 425.75C37.9952 425.645 38.0631 425.537 38.112 425.453C38.2967 425.138 38.5165 424.631 38.7758 423.965C40.7245 419.068 46.9187 412.649 62.1274 405.467L62.128 405.467C75.5735 399.11 84.1467 392.096 93.1607 384.722C94.5244 383.606 95.8981 382.482 97.3004 381.351C102.842 376.951 109.108 369.28 113.861 362.836C116.25 359.597 118.281 356.634 119.676 354.494C120.372 353.426 120.917 352.553 121.271 351.948C121.444 351.653 121.589 351.392 121.683 351.194C121.716 351.124 121.798 350.951 121.841 350.759C121.854 350.702 121.874 350.598 121.877 350.469C121.878 350.364 121.874 350.081 121.701 349.777C121.477 349.383 121.077 349.139 120.644 349.104ZM41.3843 415.719C44.9493 411.007 49.5005 406.253 59.3202 397.459C60.0997 396.762 60.8898 396.055 61.6874 395.34C71.6332 386.435 82.7585 376.473 89.4144 372.214C94.6695 368.965 108.65 359.846 116.245 354.857C115.006 356.694 113.461 358.901 111.722 361.259C106.979 367.689 100.888 375.11 95.6441 379.272L95.6359 379.279L95.6359 379.279C94.2155 380.425 92.8301 381.558 91.4606 382.678C82.4509 390.046 74.1266 396.854 60.9927 403.064C51.6234 407.488 45.3684 411.742 41.3843 415.719ZM119.296 350.023C119.296 350.023 119.294 350.027 119.291 350.036C119.295 350.027 119.296 350.022 119.296 350.023Z" fill="#508769"/>
<path d="M37.1314 401.442C37.1654 401.425 29.521 392.031 21.0951 389.738C12.8392 387.309 -6.30578 377.032 -12.2514 373.414C-17.8573 369.489 -43.7124 356.24 -45.3941 355.016C-46.889 353.573 -33.8765 357.378 -23.1742 358.346C-12.4041 359.229 2.05229 366.007 11.7691 372.887C21.7068 379.614 36.367 394.477 37.658 397.094C39.0849 399.642 37.1144 401.442 37.1314 401.442Z" fill="#508769"/>
<path fill-rule="evenodd" clip-rule="evenodd" d="M-46.6557 355.53C-46.5447 355.736 -46.404 355.886 -46.3105 355.976L-46.2438 356.04L-46.1689 356.095C-45.8763 356.308 -45.2005 356.694 -44.3544 357.163C-43.4674 357.655 -42.2911 358.292 -40.9162 359.03C-39.5886 359.743 -38.0551 360.561 -36.4088 361.44C-34.6672 362.369 -32.7994 363.366 -30.9156 364.377C-23.5004 368.355 -15.7275 372.601 -13.0066 374.506L-12.9717 374.53L-12.9353 374.553C-9.92328 376.386 -3.61803 379.876 2.9617 383.211C9.51257 386.531 16.4656 389.763 20.727 391.017L20.74 391.021L20.7531 391.024C24.6661 392.089 28.4971 394.846 31.4087 397.44C32.8492 398.723 34.0332 399.938 34.853 400.831C35.2627 401.278 35.5794 401.641 35.7897 401.89C35.8953 402.015 35.9717 402.108 36.0184 402.167L36.0455 402.201C36.0525 402.21 36.0554 402.214 36.0553 402.214L36.0498 402.206C36.047 402.202 36.0393 402.192 36.0292 402.176L36.0287 402.176C36.023 402.167 35.9936 402.123 35.962 402.063L35.9612 402.062C35.9496 402.04 35.8992 401.944 35.8614 401.813C35.8532 401.781 35.8436 401.725 35.8352 401.66C35.9107 401.91 36.1383 402.317 36.334 402.504C36.553 402.639 36.9646 402.764 37.1383 402.775L37.452 402.775L37.7325 402.635C38.0618 402.401 38.4095 401.826 38.4626 401.55C38.4409 401.82 38.3443 402.006 38.3328 402.028C38.3323 402.029 38.332 402.03 38.3318 402.03C38.2671 402.162 38.1918 402.256 38.186 402.263L38.1857 402.263C38.1649 402.29 38.1478 402.31 38.1411 402.317C38.1328 402.327 38.1262 402.334 38.123 402.338C38.1179 402.343 38.1133 402.348 38.1133 402.348C38.1133 402.348 38.115 402.346 38.1194 402.342L38.1199 402.341C38.1345 402.326 38.1619 402.297 38.1962 402.259C38.2657 402.183 38.361 402.074 38.4684 401.934C38.681 401.657 38.9497 401.249 39.1615 400.727C39.599 399.65 39.7627 398.144 38.8399 396.476C38.6003 396.004 38.1497 395.395 37.6211 394.744C37.0546 394.046 36.3181 393.204 35.4521 392.259C33.7186 390.368 31.4346 388.035 28.885 385.578C23.8021 380.681 17.5937 375.226 12.5324 371.798C2.71992 364.853 -11.9551 357.938 -23.0531 357.026C-28.3182 356.549 -34.1732 355.372 -38.5876 354.478L-38.791 354.437C-40.8849 354.012 -42.676 353.65 -43.8625 353.48C-44.4221 353.399 -45.0338 353.331 -45.4824 353.392C-45.6067 353.41 -45.8112 353.448 -46.0263 353.554C-46.2441 353.661 -46.6162 353.914 -46.7715 354.417C-46.9245 354.913 -46.7655 355.326 -46.6557 355.53ZM38.4637 401.535C38.4645 401.446 38.4546 401.331 38.4422 401.234C38.4493 401.258 38.455 401.28 38.4591 401.301C38.4682 401.384 38.4687 401.463 38.4637 401.535ZM35.8136 401.345C35.8135 401.347 35.8134 401.348 35.8133 401.349C35.8133 401.348 35.8133 401.347 35.8133 401.347C35.8134 401.346 35.8135 401.346 35.8136 401.345ZM36.8513 399.078C36.8744 398.708 36.796 398.265 36.5056 397.747L36.4887 397.716L36.4734 397.685C36.3855 397.507 36.1044 397.093 35.5578 396.42C35.0366 395.778 34.3384 394.977 33.4932 394.055C31.8043 392.213 29.56 389.92 27.041 387.493C21.9905 382.626 15.9055 377.291 11.0312 373.991L11.0196 373.983L11.0082 373.975C1.38871 367.164 -12.8386 360.53 -23.2761 359.674L-23.2872 359.673C-28.5965 359.193 -34.4442 358.028 -38.8062 357.145C-37.6842 357.746 -36.4576 358.401 -35.1595 359.094C-33.4274 360.018 -31.5679 361.011 -29.6594 362.035C-22.3552 365.953 -14.4327 370.273 -11.5183 372.304C-8.57011 374.095 -2.3539 377.537 4.16301 380.84C10.7282 384.167 17.4685 387.285 21.4646 388.463C25.9723 389.694 30.171 392.777 33.1766 395.455C34.6962 396.809 35.9436 398.089 36.8108 399.034C36.8244 399.049 36.8379 399.063 36.8513 399.078Z" fill="#508769"/>
<path d="M38.1007 389.131C38.1007 389.131 47.2062 378.803 55.836 369.817C64.4489 360.949 80.8083 347.173 84.8684 342.739C88.8945 338.509 112.032 321.318 112.355 320.163C112.711 319.143 103.164 338.747 89.8286 352.846C76.544 366.963 66.1305 374.03 55.5472 380.621C44.9808 387.161 39.2048 392.393 37.9987 395.79C36.8095 399.154 38.1177 389.131 38.1007 389.131Z" fill="#508769"/>
<path fill-rule="evenodd" clip-rule="evenodd" d="M111.127 319.586C111.138 319.567 111.148 319.549 111.158 319.533C111.176 319.503 111.198 319.465 111.223 319.427C111.235 319.409 111.255 319.38 111.279 319.347L111.279 319.346C111.295 319.325 111.352 319.248 111.439 319.165C111.475 319.131 111.59 319.022 111.77 318.934C111.915 318.862 112.483 318.625 113.078 319.007C113.6 319.342 113.668 319.87 113.679 319.963C113.699 320.125 113.684 320.253 113.678 320.299C113.665 320.406 113.641 320.489 113.634 320.513C113.626 320.539 113.619 320.562 113.612 320.581C113.528 320.837 113.384 321.033 113.315 321.119C113.282 321.179 113.244 321.249 113.2 321.331C113.139 321.443 113.069 321.573 112.99 321.718C112.747 322.168 112.421 322.771 112.021 323.498C110.961 325.425 109.374 328.24 107.355 331.53C103.325 338.101 97.549 346.614 90.7912 353.759C77.4016 367.987 66.886 375.123 56.2456 381.75L56.2425 381.752C50.9954 384.999 46.9754 387.9 44.1337 390.385C41.2455 392.912 39.7286 394.879 39.2469 396.236C39.1649 396.468 39.0794 396.684 38.9883 396.866C38.9428 396.957 38.8826 397.066 38.8053 397.175C38.7416 397.264 38.5962 397.455 38.3526 397.604C38.06 397.783 37.5507 397.932 37.0169 397.668C36.5961 397.46 36.4169 397.111 36.3589 396.986C36.2316 396.712 36.2011 396.427 36.1886 396.297C36.1301 395.688 36.1965 394.623 36.2821 393.611C36.3719 392.549 36.4984 391.386 36.6006 390.495C36.6018 390.483 36.6031 390.472 36.6044 390.461L35.1536 390.461L37.1 388.254L38.0967 389.132C37.1 388.254 37.0999 388.254 37.1 388.254L37.1018 388.251L37.2055 388.134C37.2747 388.056 37.3771 387.94 37.5104 387.79C37.7771 387.489 38.1673 387.049 38.6625 386.494C39.6529 385.383 41.0631 383.808 42.7433 381.953C46.1026 378.243 50.5461 373.403 54.8737 368.897L54.879 368.892C59.2224 364.42 65.5007 358.728 71.1667 353.628C71.6658 353.179 72.1597 352.735 72.6468 352.296C77.7363 347.719 82.0835 343.809 83.8845 341.842L83.8932 341.832L83.902 341.823C84.9789 340.692 87.252 338.768 89.9749 336.558C92.7249 334.326 96.0129 331.738 99.1756 329.253C99.4423 329.044 99.7082 328.835 99.9727 328.627C102.85 326.367 105.574 324.228 107.651 322.549C108.787 321.632 109.716 320.863 110.366 320.292C110.693 320.005 110.933 319.783 111.088 319.626C111.102 319.612 111.115 319.599 111.127 319.586ZM107.525 326.056C106.806 327.296 105.991 328.67 105.09 330.141C101.102 336.642 95.4365 344.98 88.8593 351.934L88.857 351.936C75.6789 365.94 65.3683 372.937 54.8428 379.492C49.5241 382.784 45.3732 385.77 42.3841 388.385C41.1221 389.489 40.0383 390.551 39.1548 391.565C39.1843 391.295 39.2134 391.037 39.2409 390.797C39.29 390.369 39.3338 390.001 39.3654 389.735L39.368 389.713C39.3686 389.709 39.3691 389.704 39.3697 389.699C39.4089 389.654 39.4522 389.606 39.4993 389.553C39.7643 389.253 40.1528 388.816 40.6461 388.263C41.6328 387.156 43.0383 385.587 44.7132 383.737C48.0634 380.037 52.4864 375.22 56.7878 370.741C61.0572 366.346 67.2637 360.717 72.9445 355.604C73.463 355.137 73.9778 354.674 74.4866 354.217C79.4975 349.71 83.9356 345.719 85.8353 343.647C86.7758 342.661 88.9002 340.854 91.6498 338.622C94.3805 336.405 97.652 333.83 100.817 331.343C101.085 331.133 101.352 330.923 101.618 330.714C103.726 329.058 105.763 327.459 107.525 326.056ZM38.8394 396.083C38.8394 396.082 38.8386 396.075 38.8363 396.064C38.8381 396.078 38.8393 396.084 38.8394 396.083ZM111.213 319.492C111.215 319.49 111.217 319.488 111.218 319.486C111.238 319.461 111.232 319.465 111.213 319.492Z" fill="#508769"/>
<path d="M32.4123 360.284C32.5312 360.183 14.8473 345.472 4.89259 340.817C-4.85826 335.993 -15.5944 329.792 -25.2433 327.601C-34.8413 325.342 -49.6545 322.284 -49.6715 322.318C-49.6205 322.267 -35.1132 332.748 -24.2922 338.915C-13.3692 344.979 -1.59682 351.961 11.2967 357.159C24.2073 362.34 35.2152 365.092 35.2152 365.075C34.2979 363.461 33.3636 361.881 32.4123 360.284Z" fill="#508769"/>
<path fill-rule="evenodd" clip-rule="evenodd" d="M-41.325 325.401C-36.4227 326.443 -30.3311 327.77 -25.5463 328.896L-25.5361 328.899L-25.5361 328.899C-20.8554 329.962 -15.8637 332.01 -10.7823 334.424C-7.73873 335.87 -4.72763 337.414 -1.74519 338.943C0.284348 339.984 2.30061 341.018 4.3048 342.01L4.31795 342.016L4.33124 342.023C9.16699 344.284 15.976 349.045 21.6301 353.32C24.441 355.445 26.9385 357.429 28.7237 358.886C29.6168 359.614 30.3281 360.208 30.8093 360.621C31.0514 360.828 31.2278 360.983 31.3378 361.083C31.3409 361.086 31.3439 361.089 31.3468 361.092C31.7199 361.718 32.0896 362.341 32.4562 362.964C31.3714 362.658 30.0312 362.268 28.487 361.797C24.1476 360.471 18.2057 358.501 11.7946 355.928C0.977762 351.567 -9.03894 345.944 -18.5045 340.63C-20.2339 339.659 -21.945 338.699 -23.6391 337.758C-29.0012 334.702 -35.2952 330.566 -40.2728 327.187C-41.4609 326.38 -42.5726 325.618 -43.5769 324.925C-42.8639 325.075 -42.1098 325.234 -41.325 325.401ZM-49.7828 320.996C-49.7773 320.995 -49.7724 320.995 -49.768 320.994C-49.68 320.988 -49.6105 320.992 -49.5915 320.993L-49.5911 320.993C-49.5403 320.996 -49.4993 321.001 -49.4873 321.003L-49.4871 321.003C-49.4541 321.007 -49.4231 321.012 -49.4048 321.015C-49.3628 321.022 -49.3099 321.032 -49.252 321.043C-49.1334 321.065 -48.9634 321.098 -48.7494 321.141C-48.3201 321.227 -47.6995 321.353 -46.9278 321.512C-45.3836 321.829 -43.2276 322.28 -40.7725 322.801C-35.8662 323.844 -29.7548 325.175 -24.9424 326.308C-19.9758 327.437 -14.7767 329.584 -9.64195 332.023C-6.58438 333.475 -3.48477 335.065 -0.458433 336.616C1.56191 337.652 3.5496 338.671 5.47034 339.621C10.5881 342.017 17.591 346.934 23.2329 351.2C26.0725 353.347 28.5958 355.351 30.404 356.826C31.3076 357.564 32.0361 358.172 32.5381 358.602C32.7876 358.816 32.9887 358.992 33.1295 359.12C33.1968 359.182 33.2662 359.247 33.3236 359.305C33.3466 359.329 33.4 359.384 33.4539 359.453L33.4545 359.454C33.4722 359.476 33.5332 359.555 33.5919 359.667C34.5316 361.245 35.4594 362.815 36.3719 364.42L36.5455 364.725L36.5455 365.077C36.3575 365.758 35.6325 366.339 35.4054 366.392C35.319 366.402 35.1883 366.405 35.1444 366.404C35.0785 366.4 35.0265 366.392 35.0145 366.39L35.0135 366.39C34.9796 366.385 34.9521 366.379 34.9443 366.378L34.944 366.378C34.922 366.373 34.9011 366.368 34.8877 366.365C34.8573 366.358 34.8185 366.349 34.7742 366.338C34.684 366.316 34.5543 366.284 34.388 366.241C34.0548 366.155 33.5679 366.027 32.9452 365.858C31.6996 365.518 29.9073 365.01 27.7107 364.339C23.3189 362.997 17.3022 361.002 10.8033 358.394L10.8014 358.393C-0.188359 353.963 -10.3747 348.243 -19.8372 342.93C-21.5605 341.963 -23.2599 341.009 -24.9357 340.078L-24.9421 340.075L-24.9485 340.071C-30.4061 336.961 -36.7734 332.775 -41.7654 329.386C-44.265 327.689 -46.4266 326.188 -47.9649 325.114C-48.2772 324.896 -48.563 324.697 -48.8204 324.517C-49.0786 324.337 -49.3083 324.176 -49.5079 324.037L-54.5208 329.05L-50.8585 321.725C-50.7851 321.619 -50.6837 321.511 -50.5759 321.414L-50.6095 321.38C-50.5213 321.309 -50.3988 321.236 -50.2724 321.174C-50.1785 321.11 -50.0965 321.064 -50.0436 321.044C-49.9745 321.027 -49.8712 321.008 -49.8067 320.999C-49.8013 320.998 -49.7962 320.997 -49.7912 320.996C-49.7884 320.996 -49.7856 320.996 -49.7828 320.996Z" fill="#508769"/>
<path d="M35.6707 357.666C35.6877 357.751 51.2996 338.045 60.2522 328.057C69.2048 318.289 85.0546 302.661 92.4273 296.953C99.8 291.33 105.967 285.146 105.967 285.146C106.085 285.367 84.8504 320.497 72.0246 330.775C59.2668 341.562 37.3524 360.282 35.1949 368.079C33.0543 375.995 35.7387 357.683 35.6707 357.666Z" fill="#508769"/>
<path fill-rule="evenodd" clip-rule="evenodd" d="M106.291 282.947L107.139 284.521C107.332 284.88 107.299 285.215 107.293 285.279C107.293 285.28 107.292 285.282 107.292 285.283C107.282 285.395 107.259 285.481 107.248 285.521C107.225 285.604 107.197 285.671 107.186 285.699C107.158 285.765 107.127 285.828 107.104 285.873C107.055 285.971 106.987 286.096 106.908 286.236C106.748 286.523 106.513 286.927 106.214 287.432C105.613 288.444 104.738 289.884 103.647 291.632C101.464 295.13 98.4104 299.879 94.9497 304.944C88.0747 315.007 79.4625 326.519 72.8721 331.806C66.4925 337.2 57.86 344.548 50.5546 351.515C46.8982 355.002 43.5961 358.374 41.0827 361.342C38.5253 364.362 36.9345 366.796 36.4796 368.435C36.2197 369.396 35.9953 370.114 35.7891 370.517C35.7404 370.612 35.6334 370.811 35.4521 370.99C35.3601 371.081 35.1676 371.248 34.871 371.339C34.5198 371.446 34.1209 371.413 33.7752 371.208C33.4817 371.034 33.3294 370.797 33.2612 370.672C33.187 370.537 33.147 370.412 33.1251 370.332C33.0813 370.173 33.0636 370.019 33.0545 369.91C33.0193 369.488 33.0498 368.85 33.1006 368.173C33.1538 367.465 33.2382 366.612 33.3377 365.707C33.5369 363.897 33.8007 361.842 34.0094 360.246C34.0501 359.935 34.0887 359.642 34.1242 359.372C34.1802 358.946 34.2288 358.575 34.2671 358.278C34.2967 358.049 34.3191 357.87 34.3336 357.746L33.9589 355.873L35.1866 356.18C35.2332 356.122 35.2828 356.061 35.3354 355.996C35.7282 355.512 36.2771 354.831 36.9538 353.992L37.2284 353.651C38.8345 351.659 41.0692 348.89 43.5836 345.805C48.6072 339.641 54.7661 332.195 59.2656 327.175L59.2706 327.17L59.2756 327.164C68.2401 317.383 84.1515 301.686 91.6166 295.907L91.6243 295.901C95.2693 293.121 98.6229 290.197 101.069 287.965C102.29 286.849 103.283 285.909 103.969 285.248C104.312 284.918 104.578 284.658 104.758 284.481C104.848 284.392 104.916 284.325 104.962 284.28L105.013 284.229L106.291 282.947ZM36.9536 358.218C37.0689 358.078 37.219 357.893 37.3999 357.67C37.7956 357.182 38.3481 356.496 39.0257 355.656L39.2971 355.32C40.9028 353.328 43.1338 350.563 45.6436 347.484C50.6664 341.321 56.787 333.923 61.2397 328.955C70.1797 319.201 85.9591 303.649 93.2397 298.012C95.6632 296.163 97.9548 294.257 99.9433 292.528C97.9556 295.659 95.4823 299.454 92.7555 303.445C85.8411 313.565 77.4302 324.748 71.1966 329.743L71.183 329.754L71.1696 329.765C64.7927 335.157 56.0961 342.558 48.7206 349.592C45.034 353.108 41.6556 356.553 39.0546 359.624C38.0307 360.834 37.1029 362.012 36.3183 363.136C36.4304 362.238 36.5436 361.363 36.6446 360.591C36.6846 360.285 36.7228 359.995 36.7582 359.725C36.8148 359.295 36.8643 358.918 36.9029 358.618C36.9224 358.467 36.9395 358.332 36.9536 358.218ZM33.4269 369.299C33.4197 369.311 33.4188 369.315 33.4239 369.305C33.4249 369.303 33.4259 369.301 33.4269 369.299ZM35.3608 358.923C34.9591 358.727 34.491 358.259 34.3719 357.935C34.3786 357.968 34.3874 358.006 34.399 358.045C34.4218 358.116 34.4992 358.292 34.5591 358.394C34.6776 358.551 35.0691 358.855 35.3515 358.961L35.3608 358.923Z" fill="#508769"/>
<path d="M27.0109 331.675C27.1638 331.539 7.59422 315.758 0.289592 311.529C-6.76022 307.078 -21.8621 302.22 -30.9165 301.812C-39.886 301.302 -60.9846 299.502 -64.4501 297.837C-67.8646 296.087 -53.5442 306.568 -40.7356 310.917C-27.791 315.13 -9.49542 320.922 4.5363 326.222C18.568 331.522 25.2952 332.949 28.8965 339.812C32.4638 346.743 27.0789 331.641 27.0109 331.675Z" fill="#508769"/>
<path fill-rule="evenodd" clip-rule="evenodd" d="M-58.7605 300.473C-56.2077 300.863 -53.1192 301.238 -49.8913 301.579C-43.0403 302.303 -35.5019 302.883 -30.9962 303.139L-30.9884 303.139L-30.9806 303.139C-26.6162 303.336 -20.7008 304.616 -14.965 306.422C-9.22737 308.227 -3.81135 310.514 -0.424119 312.652L-0.402629 312.666L-0.380635 312.678C3.17953 314.74 9.82556 319.684 15.6277 324.187C18.5136 326.427 21.1661 328.538 23.0855 330.097C23.8577 330.723 24.5083 331.258 25.0064 331.675L23.8717 332.684C23.0457 332.174 22.157 331.696 21.2013 331.234C18.4628 329.912 15.0696 328.676 10.9445 327.173C9.11042 326.505 7.13164 325.784 5.00142 324.979C-7.00663 320.444 -22.124 315.55 -34.3309 311.598C-36.4231 310.921 -38.4297 310.271 -40.3206 309.656C-46.5853 307.528 -53.2662 303.881 -57.981 300.96C-58.2476 300.795 -58.5076 300.632 -58.7605 300.473ZM21.7866 334.537C21.2427 334.228 20.6634 333.926 20.0454 333.628C17.4318 332.365 14.2357 331.201 10.1963 329.73C8.33849 329.053 6.30233 328.312 4.06239 327.466C-7.87957 322.955 -22.9232 318.085 -35.1355 314.131C-37.2344 313.452 -39.2496 312.8 -41.151 312.181L-41.1591 312.178L-41.167 312.175C-47.7086 309.954 -54.5886 306.188 -59.3804 303.22C-61.7795 301.734 -63.6867 300.428 -64.7927 299.59C-65.0698 299.381 -65.3078 299.192 -65.4955 299.031C-65.6433 298.905 -65.8735 298.702 -66.0277 298.483C-66.0697 298.423 -66.1611 298.287 -66.2243 298.097C-66.2766 297.94 -66.4129 297.424 -66.0637 296.908C-65.7156 296.393 -65.1886 296.326 -65.0249 296.316C-64.8259 296.303 -64.6655 296.336 -64.5937 296.352C-64.3378 296.411 -64.0633 296.544 -63.866 296.645C-63.5735 296.783 -62.9949 296.964 -62.0931 297.169C-61.2065 297.369 -60.0946 297.573 -58.807 297.776C-56.2336 298.182 -53.0163 298.576 -49.6118 298.936C-42.8087 299.655 -35.3178 300.231 -30.8531 300.485C-26.1642 300.697 -20.005 302.049 -14.1672 303.886C-8.33926 305.721 -2.69018 308.083 0.973015 310.391C4.722 312.566 11.4978 317.617 17.2571 322.087C20.1575 324.338 22.8253 326.462 24.7605 328.033C25.7273 328.818 26.5157 329.468 27.0604 329.93C27.3309 330.159 27.5508 330.349 27.7048 330.489C27.7782 330.555 27.8559 330.628 27.9204 330.695C27.946 330.721 28.0078 330.786 28.0689 330.869L28.0692 330.869C28.0888 330.896 28.1533 330.983 28.2123 331.111C28.2269 331.141 28.2379 331.165 28.2437 331.179C28.2666 331.231 28.2911 331.291 28.3138 331.349C28.3614 331.469 28.4248 331.636 28.4993 331.838C28.6493 332.242 28.8538 332.81 29.0848 333.466C29.5463 334.776 30.1198 336.46 30.5806 337.933C30.8106 338.668 31.0165 339.363 31.1667 339.939C31.3014 340.454 31.4367 341.034 31.4406 341.447C31.4416 341.548 31.4393 341.781 31.348 342.035C31.2499 342.309 30.8976 342.932 30.0945 342.96C29.5449 342.979 29.1821 342.67 29.1034 342.603L29.101 342.6C28.9661 342.485 28.8604 342.359 28.7876 342.265C28.5088 341.905 28.1529 341.28 27.713 340.425C26.5496 338.21 25.0319 336.606 22.9 335.214L18.6137 337.357L21.7866 334.537ZM25.594 333.867L26.2843 333.522C26.3744 333.773 26.4732 334.051 26.578 334.348C26.6338 334.507 26.6912 334.671 26.7498 334.839C26.3819 334.5 25.9968 334.177 25.594 333.867ZM30.8978 340.649C30.8978 340.649 30.8966 340.647 30.8942 340.644C30.8966 340.647 30.8978 340.649 30.8978 340.649Z" fill="#508769"/>
<path d="M28.9455 328.177C28.9625 328.194 36.777 315.606 44.1158 306.857C51.4716 298.194 63.584 286.863 69.1221 280.73C74.6262 274.785 96.4557 256.013 97.1522 253.958C97.9336 252.106 85.2434 281.393 70.328 295.628C55.5316 310 44.0308 317.559 38.8834 323.08C33.7361 328.567 29.1833 334.632 29.1833 334.632C29.1153 332.44 29.0305 330.317 28.9455 328.177Z" fill="#508769"/>
<path fill-rule="evenodd" clip-rule="evenodd" d="M95.8938 253.505C95.9102 253.469 95.9247 253.438 95.9374 253.41C95.9509 253.381 95.9635 253.354 95.9735 253.333C95.978 253.323 95.9852 253.308 95.9932 253.292C95.9966 253.285 96.0053 253.268 96.0168 253.246C96.0232 253.235 96.0405 253.204 96.0517 253.186C96.0743 253.15 96.1692 253.022 96.2485 252.936C96.898 252.58 98.284 253.127 98.5151 253.912C98.5058 254.038 98.4745 254.205 98.4629 254.248C98.448 254.299 98.4323 254.341 98.4302 254.346C98.4302 254.346 98.4301 254.347 98.4302 254.346C98.4215 254.369 98.4129 254.391 98.4096 254.399C98.4037 254.413 98.3968 254.43 98.3892 254.448C98.3503 254.55 98.3016 254.651 98.2475 254.748C98.1929 254.867 98.1231 255.018 98.042 255.194C97.7381 255.851 97.2447 256.906 96.584 258.268C95.2631 260.993 93.2724 264.948 90.7876 269.41C85.8371 278.3 78.8581 289.325 71.25 296.588C63.8128 303.812 57.2057 309.321 51.8271 313.706C51.0698 314.323 50.3391 314.917 49.6357 315.488C45.3021 319.007 42.0004 321.689 39.8554 323.989L39.8526 323.992C37.3092 326.703 34.9065 329.564 33.1362 331.752C32.252 332.845 31.5278 333.767 31.0253 334.415C30.7741 334.739 30.5784 334.995 30.4459 335.169C30.3797 335.256 30.3292 335.322 30.2956 335.367L30.2578 335.417L30.2486 335.429L27.9725 338.461L27.8552 334.676C27.7896 332.561 27.7082 330.508 27.626 328.436L27.4832 324.837L28.7185 326.073C28.8564 325.858 29.009 325.621 29.1752 325.364C30.0287 324.044 31.2419 322.19 32.6852 320.061C35.5669 315.81 39.385 310.432 43.0979 306.006L43.1031 306C46.8183 301.624 51.7193 296.592 56.357 291.912C57.2904 290.97 58.2124 290.043 59.1121 289.138C62.7055 285.526 65.9434 282.27 68.1362 279.842L68.1417 279.836L68.1473 279.83C70.6463 277.131 76.4047 271.877 82.018 266.756C82.6975 266.136 83.3749 265.518 84.0441 264.907C87.1618 262.059 90.1159 259.345 92.3326 257.216C93.4425 256.151 94.3534 255.245 95.003 254.55C95.329 254.201 95.5744 253.921 95.7418 253.71C95.8222 253.608 95.869 253.541 95.8938 253.505ZM92.3066 260.903C91.2252 263.027 89.9324 265.483 88.4658 268.117C83.5387 276.964 76.7165 287.697 69.4109 294.67L69.4025 294.678C62.0448 301.824 55.5047 307.279 50.1479 311.646C49.4023 312.254 48.6773 312.842 47.9745 313.413C43.669 316.908 40.1949 319.728 37.9131 322.175C35.3097 324.95 32.8628 327.865 31.0702 330.08C30.8292 330.378 30.5999 330.664 30.3835 330.935C30.3531 330.137 30.3217 329.343 30.2901 328.548C30.3293 328.486 30.3732 328.417 30.4213 328.342C30.6504 327.983 30.9842 327.461 31.4071 326.807C32.253 325.498 33.4552 323.662 34.885 321.552C37.7489 317.328 41.5064 312.039 45.1316 307.717C48.7718 303.43 53.6038 298.466 58.2446 293.783C59.1631 292.856 60.0749 291.939 60.9683 291.041C64.5642 287.426 67.8628 284.11 70.1029 281.63C72.5218 279.018 78.183 273.853 83.8305 268.7C84.5011 268.088 85.1716 267.477 85.8364 266.869C88.1502 264.756 90.3885 262.703 92.3066 260.903ZM95.949 253.394C95.9498 253.392 95.9499 253.392 95.949 253.394V253.394Z" fill="#508769"/>
<path d="M16.6504 300.315C16.7183 300.247 -0.642834 287.999 -15.6598 283.48C-30.5578 278.809 -52.8624 279.556 -60.9145 279.573C-68.9836 279.59 -73.6212 280.542 -73.6212 280.542C-73.6212 280.542 -61.0845 285.332 -47.0019 289.715C-32.8853 294.046 -13.9612 296.187 -5.34848 297.07C3.28119 297.885 17.2449 302.931 19.0455 305.496C20.9141 307.993 16.6673 300.298 16.6504 300.315Z" fill="#508769"/>
<path fill-rule="evenodd" clip-rule="evenodd" d="M-40.9169 281.104C-32.5033 281.498 -23.3402 282.473 -16.0577 284.757L-16.0503 284.759L-16.043 284.761C-8.6856 286.975 -0.698216 291.104 5.48054 294.722C8.56077 296.525 11.1727 298.19 13.0079 299.407C13.9256 300.015 14.6465 300.51 15.1325 300.852C15.3474 301.003 15.5127 301.122 15.627 301.206C15.6417 301.233 15.6577 301.261 15.675 301.292C15.7617 301.447 15.8764 301.654 16.0098 301.897C14.2926 301.06 12.1582 300.192 9.84949 299.381C5.00186 297.679 -0.756438 296.178 -5.2184 295.756C-13.8434 294.871 -32.638 292.74 -46.6102 288.453C-53.6279 286.269 -60.2637 283.983 -65.1468 282.241C-66.204 281.864 -67.1787 281.513 -68.0572 281.194C-66.1432 281.039 -63.7436 280.917 -60.9123 280.911C-60.0954 280.909 -59.138 280.9 -58.0614 280.89C-53.7856 280.849 -47.6289 280.791 -40.9169 281.104ZM-73.6218 280.55C-74.0961 281.791 -74.096 281.791 -74.0959 281.792L-73.9491 281.847C-73.8529 281.884 -73.7104 281.938 -73.5242 282.008C-73.1519 282.148 -72.605 282.353 -71.905 282.613C-70.5052 283.132 -68.4927 283.87 -66.0394 284.745C-61.1342 286.494 -54.4612 288.794 -47.3972 290.992L-47.3922 290.994C-33.1342 295.369 -14.0867 297.518 -5.48435 298.4L-5.47377 298.401C-1.30677 298.795 4.22901 300.224 8.96892 301.889C11.3319 302.719 13.4615 303.595 15.0947 304.409C15.9123 304.817 16.5844 305.199 17.0913 305.541C17.6253 305.901 17.8757 306.151 17.9578 306.268L17.9694 306.284L17.9815 306.3C18.1074 306.469 18.2252 306.618 18.3317 306.738C18.3844 306.798 18.4489 306.867 18.5215 306.933C18.5727 306.98 18.7175 307.111 18.928 307.207C19.0346 307.255 19.2603 307.343 19.5575 307.33C19.9101 307.315 20.2728 307.159 20.5315 306.85C20.7515 306.587 20.8129 306.313 20.8334 306.177C20.8557 306.03 20.8497 305.907 20.8434 305.836C20.8225 305.597 20.7423 305.378 20.7095 305.288C20.5396 304.825 20.141 304.02 19.7358 303.234C19.3142 302.417 18.8348 301.525 18.4606 300.839C18.2733 300.496 18.1111 300.203 17.9942 299.994C17.9362 299.89 17.8875 299.804 17.8518 299.742C17.8348 299.713 17.8165 299.681 17.8002 299.654C17.7959 299.647 17.7877 299.634 17.777 299.617C17.7379 299.554 17.7046 299.512 17.6914 299.495C17.6281 299.415 17.5677 299.358 17.5517 299.343L17.5509 299.343C17.5061 299.3 17.4631 299.265 17.4412 299.248C17.389 299.206 17.3245 299.156 17.2566 299.106C17.1165 299.002 16.9157 298.857 16.6621 298.679C16.153 298.32 15.4114 297.812 14.4764 297.192C12.6061 295.952 9.95197 294.26 6.82326 292.428C0.586124 288.776 -7.61237 284.523 -15.2699 282.218C-22.8842 279.832 -32.3192 278.846 -40.7927 278.449C-47.5893 278.132 -53.8464 278.191 -58.119 278.232C-59.1823 278.242 -60.1227 278.251 -60.9179 278.253C-65.004 278.261 -68.2287 278.506 -70.4405 278.751C-71.5465 278.874 -72.3994 278.996 -72.9804 279.089C-73.2709 279.135 -73.4934 279.174 -73.6456 279.202C-73.7217 279.216 -73.7802 279.227 -73.8208 279.235L-73.8683 279.244L-73.882 279.247L-73.8877 279.248C-73.888 279.248 -73.8888 279.248 -73.6218 280.55ZM15.7106 299.383L17.5897 301.263C17.205 301.53 16.4542 301.637 16.167 301.561C16.034 301.5 15.8443 301.379 15.783 301.33C15.7681 301.317 15.7539 301.304 15.7407 301.292C15.7561 301.303 15.7659 301.311 15.7709 301.315C15.7804 301.323 15.7605 301.307 15.7304 301.279L15.7295 301.278C15.7192 301.269 15.6652 301.218 15.6061 301.143C15.5944 301.128 15.5645 301.091 15.5293 301.035L15.5275 301.032C15.5276 301.032 15.5278 301.033 15.5282 301.033C15.4953 300.982 15.4574 300.914 15.4238 300.833C15.3982 300.772 15.0813 300.012 15.7106 299.383ZM-73.6218 280.55L-73.8888 279.248L-78.3546 280.164L-74.0959 281.792L-73.6218 280.55ZM18.2237 306.23C18.2262 306.239 18.228 306.244 18.2282 306.244C18.2284 306.245 18.2271 306.24 18.2237 306.23Z" fill="#508769"/>
<path d="M20.0803 300.847C20.1143 300.881 28.8632 283.299 38.4275 272.24C48.0426 261.266 56.1969 250.054 61.633 244.822C67.1031 239.675 79.6403 224.233 79.6403 224.166C79.6742 224.149 75.0534 242.733 64.4019 257.512C56.4515 268.843 29.8145 293.305 22.8664 302.444C17.2943 309.935 20.0973 300.847 20.0803 300.847Z" fill="#508769"/>
<path fill-rule="evenodd" clip-rule="evenodd" d="M80.9203 223.805C80.7437 223.425 79.7728 222.845 79.0477 222.979L78.3131 223.346L78.3131 223.712C78.2414 223.802 78.1561 223.908 78.0578 224.03C77.7073 224.465 77.1987 225.091 76.57 225.858C75.3128 227.391 73.5792 229.483 71.6753 231.733C67.8481 236.256 63.3947 241.344 60.7242 243.857L60.7187 243.862L60.7133 243.867C57.9244 246.551 54.4724 250.732 50.5675 255.543C50.0756 256.148 49.576 256.765 49.0688 257.391C45.5263 261.763 41.6173 266.587 37.4298 271.366L37.4241 271.373L37.4241 271.373C32.5621 276.995 27.9354 284.238 24.5357 290.033C22.8315 292.938 21.4274 295.493 20.4473 297.32C19.9571 298.234 19.5728 298.966 19.3106 299.467C19.3011 299.485 19.2919 299.503 19.2828 299.52L16.8738 299.52L18.5976 301.244C18.5506 301.424 18.4993 301.628 18.4477 301.847C18.2731 302.587 18.0645 303.62 18.0631 304.455C18.0626 304.818 18.0926 305.439 18.4276 305.956C18.628 306.265 18.9567 306.563 19.4285 306.683C19.8711 306.796 20.2729 306.709 20.5636 306.596C21.1047 306.387 21.6185 305.95 22.1008 305.456C22.6137 304.93 23.2173 304.203 23.9299 303.245C26.9633 299.257 33.867 292.242 41.3858 284.602C42.3191 283.654 43.2618 282.696 44.2078 281.733C52.6924 273.097 61.431 264.061 65.4865 258.284C70.9021 250.768 74.7672 242.314 77.2709 235.767C78.5252 232.487 79.4426 229.673 80.0453 227.677C80.3466 226.678 80.5696 225.883 80.7171 225.335C80.7907 225.061 80.8459 224.847 80.8828 224.698C80.9011 224.625 80.9159 224.564 80.9265 224.518C80.9313 224.497 80.9376 224.469 80.9431 224.441L80.9432 224.441C80.9451 224.431 80.9517 224.398 80.9574 224.358C80.9574 224.358 80.9575 224.358 80.9576 224.357C80.9594 224.344 80.9691 224.277 80.9707 224.193C80.9707 224.188 80.9705 224.182 80.9702 224.176C80.9704 224.173 80.9706 224.17 80.9707 224.168L80.9699 224.168C80.9658 224.089 80.9472 223.922 80.9203 223.805ZM76.4615 230.162C75.9943 231.552 75.4377 233.121 74.7887 234.818C72.3283 241.251 68.5588 249.476 63.3256 256.737L63.3207 256.744L63.3159 256.751C59.4189 262.305 50.8673 271.162 42.3121 279.87C41.3611 280.838 40.4098 281.805 39.4653 282.764C31.9963 290.352 24.9535 297.507 21.8103 301.641L21.8019 301.653L21.8019 301.653C21.4959 302.064 21.2209 302.417 20.9745 302.719C20.9938 302.631 21.0139 302.544 21.0343 302.457C21.1162 302.11 21.1982 301.801 21.2596 301.576C21.2835 301.489 21.3042 301.416 21.3208 301.357C21.3343 301.331 21.3489 301.303 21.3643 301.274C21.4113 301.185 21.4735 301.066 21.5489 300.922C21.5848 300.853 21.6236 300.779 21.6653 300.699C21.9253 300.202 22.3049 299.48 22.7891 298.577C23.7578 296.771 25.1451 294.247 26.8279 291.378C30.2014 285.627 34.7301 278.552 39.4313 273.115C43.6541 268.295 47.5964 263.43 51.136 259.061C51.6426 258.436 52.1409 257.821 52.6307 257.218C56.5631 252.374 59.9044 248.335 62.5508 245.787C65.3509 243.151 69.8976 237.948 73.704 233.45C74.6815 232.295 75.6143 231.181 76.4615 230.162ZM20.0821 302.072L20.0821 302.178C19.9418 302.142 19.803 302.081 19.6712 302.004C19.8077 302.038 19.9484 302.06 20.0821 302.072ZM20.9203 300.011L21.0217 299.909C20.8767 299.813 20.6893 299.742 20.4931 299.694C20.648 299.784 20.7934 299.895 20.9203 300.011Z" fill="#508769"/>
<path d="M6.99849 276.757C7.08343 276.706 -8.47696 261.384 -28.947 257.783C-43.3695 255.116 -62.7184 255.473 -73.3527 256.781C-86.756 258.377 -94.5873 257.902 -94.5873 257.902C-94.5703 257.868 -82.4412 263.185 -72.9961 264.935C-63.483 266.616 -47.3278 269.249 -33.9925 271.118C-20.6063 272.867 4.94305 274.702 9.07096 280.665C13.2159 286.542 7.01548 276.723 6.99849 276.757Z" fill="#508769"/>
<path fill-rule="evenodd" clip-rule="evenodd" d="M-73.1895 258.099C-62.6516 256.803 -43.4438 256.453 -29.1877 259.089L-29.1763 259.091C-19.1876 260.849 -10.354 265.477 -4.00164 269.707C-0.831662 271.818 1.70395 273.819 3.43742 275.29C3.82775 275.622 4.17691 275.926 4.48299 276.198C3.97459 276.004 3.44441 275.818 2.8959 275.64C-0.38324 274.571 -4.45874 273.715 -8.77051 273C-14.5336 272.044 -20.8549 271.32 -26.3873 270.686C-29.1065 270.375 -31.6352 270.085 -33.8133 269.801C-47.1268 267.935 -63.2592 265.306 -72.7584 263.627C-77.3682 262.772 -82.6757 261.037 -86.8692 259.501C-87.1177 259.41 -87.362 259.32 -87.6018 259.231C-84.016 259.113 -79.1487 258.809 -73.1945 258.1L-73.1895 258.099ZM-94.4939 256.576C-94.4916 256.576 -94.4892 256.576 -94.4869 256.576L-94.4273 256.579C-94.371 256.582 -94.2847 256.586 -94.1689 256.591C-93.9374 256.601 -93.5882 256.613 -93.1255 256.622C-92.2002 256.642 -90.8215 256.651 -89.0247 256.611C-85.4313 256.531 -80.1663 256.254 -73.5113 255.461C-62.7815 254.142 -43.297 253.778 -28.7101 256.475C-18.2312 258.319 -9.0516 263.151 -2.52871 267.495C0.739544 269.671 3.35748 271.736 5.15738 273.264C6.05739 274.028 6.75534 274.66 7.23009 275.108C7.46672 275.331 7.65182 275.511 7.78075 275.642C7.84339 275.706 7.90187 275.766 7.94894 275.819C7.96871 275.841 8.00659 275.883 8.04511 275.933L8.04585 275.934C8.05384 275.944 8.07503 275.972 8.10144 276.012C8.10473 276.016 8.10746 276.02 8.10952 276.023C8.13098 276.054 8.1557 276.091 8.1797 276.127C8.2297 276.203 8.29873 276.309 8.38123 276.438C8.54715 276.696 8.77683 277.057 9.03767 277.471C9.55886 278.299 10.2111 279.348 10.7344 280.216C10.9952 280.648 11.2298 281.046 11.4014 281.352C11.486 281.503 11.5639 281.647 11.6238 281.769C11.6528 281.828 11.6876 281.902 11.7181 281.98C11.7332 282.018 11.7548 282.076 11.7742 282.145C11.7872 282.191 11.8306 282.347 11.8278 282.547C11.8263 282.652 11.7953 283.469 10.9622 283.783C10.6195 283.912 10.3204 283.867 10.1649 283.828C10.0044 283.788 9.88573 283.726 9.82302 283.691C9.62915 283.58 9.49293 283.436 9.46231 283.403C9.46083 283.402 9.4596 283.4 9.45861 283.399C9.35473 283.29 9.23779 283.145 9.12191 282.995C8.87617 282.676 8.50587 282.167 7.986 281.43L7.97941 281.421C7.6261 280.91 6.97075 280.35 5.93846 279.775C5.70524 279.645 5.4572 279.516 5.19481 279.39L3.77 280.244L4.38149 279.022C3.68879 278.727 2.91697 278.442 2.07255 278.167C-1.01811 277.16 -4.94056 276.329 -9.2054 275.622C-14.908 274.676 -21.087 273.969 -26.5805 273.34C-29.3282 273.025 -31.9044 272.731 -34.1638 272.435L-34.176 272.434C-47.5293 270.563 -63.7003 267.927 -73.2264 266.243L-73.2371 266.241C-78.0712 265.345 -83.5482 263.548 -87.7831 261.997C-89.9084 261.219 -91.7356 260.497 -93.0323 259.972C-93.6807 259.709 -94.1966 259.496 -94.5491 259.35L-94.5799 259.338C-94.701 259.287 -94.7991 259.247 -94.8754 259.215L-96.6743 259.106L-95.7747 257.307C-95.554 256.991 -95.0579 256.659 -94.8516 256.599C-94.7458 256.582 -94.5799 256.574 -94.506 256.575C-94.506 256.575 -94.506 256.575 -94.506 256.575L-94.5031 256.575L-94.4998 256.575C-94.4977 256.576 -94.4958 256.576 -94.4939 256.576ZM-94.6663 259.228C-94.6662 259.221 -94.6608 259.129 -94.5863 257.902L-94.6663 259.228C-94.6662 259.228 -94.6665 259.228 -94.6663 259.228ZM5.76315 276.258C5.84973 276.032 6.01407 275.799 6.31585 275.618L6.36956 275.707C6.13698 275.839 5.92504 276.004 5.81096 276.163L5.76315 276.258Z" fill="#508769"/>
<path d="M5.96615 273.159C5.96615 273.159 10.3831 264.971 14.6131 257.038C18.8942 249.173 27.2693 232.491 34.6421 224.015C42.0489 215.776 61.2284 191.976 61.5512 190.227C62.0099 188.647 55.9789 215.385 48.3682 227.735C40.8934 240.323 22.7672 259.841 14.477 268.844C6.16987 277.933 4.53914 275.979 5.96615 273.159Z" fill="#508769"/>
<path fill-rule="evenodd" clip-rule="evenodd" d="M60.3124 189.71C60.2922 189.765 60.2764 189.819 60.268 189.848L60.2609 189.872C60.2605 189.873 60.2601 189.874 60.2597 189.875C60.2363 189.924 60.1936 190.004 60.1243 190.122C59.9863 190.357 59.7793 190.678 59.5017 191.085C58.9487 191.895 58.158 192.981 57.1829 194.279C55.2351 196.869 52.5852 200.254 49.7086 203.848C43.9513 211.042 37.324 219.028 33.6468 223.118L33.6395 223.126L33.6324 223.134C29.8537 227.479 25.8625 233.867 22.3073 240.088C19.824 244.434 17.5193 248.76 15.633 252.301C14.8168 253.833 14.0789 255.219 13.4388 256.394L13.4334 256.405C11.3193 260.369 9.1583 264.398 7.52568 267.436C6.7094 268.955 6.02529 270.226 5.54526 271.117L4.79024 272.519L4.78965 272.52L4.78118 272.535L4.7733 272.551C4.38295 273.322 4.04697 274.306 4.21245 275.189C4.30698 275.694 4.59165 276.262 5.20524 276.592C5.77241 276.897 6.38213 276.866 6.86534 276.753C7.8078 276.534 8.94197 275.849 10.2705 274.774C11.6385 273.667 13.3468 272.034 15.4488 269.735C15.7375 269.421 16.0385 269.094 16.3509 268.755C24.9545 259.418 42.1963 240.705 49.498 228.414C53.4016 222.076 56.8505 212.158 59.2517 204.13C60.4593 200.092 61.4133 196.492 62.0371 193.998C62.3489 192.752 62.5792 191.778 62.7179 191.161C62.786 190.859 62.8359 190.625 62.8617 190.486C62.868 190.452 62.8758 190.408 62.882 190.365C62.8847 190.345 62.8903 190.305 62.8938 190.256C62.8955 190.233 62.8985 190.184 62.8971 190.123C62.8971 190.123 62.8971 190.122 62.897 190.121C62.8968 190.097 62.8948 189.896 62.8061 189.669C62.7325 189.511 62.4315 189.141 62.1786 188.971C61.8133 188.845 61.1515 188.889 60.8943 189.005C60.7625 189.094 60.5786 189.263 60.5195 189.334C60.4848 189.38 60.4313 189.461 60.4112 189.495C60.3519 189.599 60.3182 189.693 60.3129 189.708C60.3127 189.709 60.3125 189.709 60.3124 189.71ZM56.7055 203.368C54.3044 211.397 50.9345 221.018 47.2298 227.029L47.2241 227.039L47.2185 227.048C40.0686 239.089 22.9688 257.649 14.3194 267.038C14.0343 267.347 13.7584 267.647 13.4923 267.936L13.489 267.939C11.4382 270.183 9.82811 271.713 8.59896 272.708C8.0007 273.192 7.51959 273.526 7.14406 273.753L7.88507 272.378C8.36541 271.486 9.04991 270.214 9.86663 268.694C11.4993 265.656 13.6607 261.627 15.7758 257.66C16.4338 256.451 17.1821 255.046 18.0046 253.502C19.8841 249.974 22.1512 245.718 24.6147 241.407C28.1583 235.206 32.0384 229.019 35.6306 224.887C39.3617 220.735 46.0224 212.708 51.7835 205.509C54.31 202.352 56.6708 199.346 58.5421 196.887C58.0278 198.805 57.4103 201.011 56.7055 203.368Z" fill="#508769"/>
<path d="M-5.93185 250.953C-5.76197 250.783 -31.634 235.732 -46.3453 233.507C-60.8358 231.01 -77.9763 230.551 -93.7238 231.843C-109.488 233.151 -113.99 234.238 -113.973 234.238C-113.888 234.085 -87.1327 241.406 -74.409 243.275C-61.5494 244.923 -48.8936 247.335 -35.2525 248.099C-21.5945 248.846 -7.13797 250.885 -2.95909 256.898C1.23678 262.912 -5.88089 250.919 -5.93185 250.953Z" fill="#508769"/>
<path d="M-4.10871 251.617C-4.10871 251.617 -2.69865 244.584 -0.558016 231.911C1.59961 219.255 4.53876 203.338 7.56268 196.407C10.6885 189.731 30.7344 162.602 31.0572 161.515C31.5499 160.615 32.6028 188.525 26.8437 201.724C20.1843 217.455 10.1274 228.446 3.50197 243.582C-3.22539 258.649 -2.03632 259.176 -2.00235 259.21C-2.69881 256.696 -3.39526 254.148 -4.10871 251.617Z" fill="#508769"/>
<path fill-rule="evenodd" clip-rule="evenodd" d="M30.1777 160.511C30.0223 160.652 29.9341 160.797 29.8914 160.875L29.8235 160.999L29.8118 161.038C29.7794 161.095 29.7278 161.18 29.653 161.298C29.4991 161.54 29.275 161.876 28.9849 162.302C28.4063 163.152 27.5899 164.319 26.6033 165.719C25.8507 166.787 24.9991 167.99 24.082 169.286C22.6025 171.376 20.9527 173.708 19.2734 176.1C16.5504 179.978 13.7336 184.041 11.4 187.554C9.08653 191.038 7.18975 194.068 6.35911 195.842L6.35164 195.858L6.3446 195.874C4.77336 199.475 3.25992 205.307 1.87821 211.731C0.489494 218.188 -0.78857 225.354 -1.86809 231.686L-1.86843 231.688C-2.93749 238.017 -3.82391 242.936 -4.44278 246.272C-4.75221 247.939 -4.99476 249.211 -5.15979 250.066C-5.24231 250.493 -5.30545 250.815 -5.34789 251.031L-5.39585 251.273L-5.41156 251.352L-5.47468 251.667L-5.38785 251.975C-4.89097 253.738 -4.40294 255.507 -3.91627 257.271C-3.75136 257.869 -3.58661 258.466 -3.42172 259.062C-3.40244 259.275 -3.35451 259.502 -3.24934 259.72C-3.18133 259.862 -3.09281 259.993 -2.9835 260.108C-2.95747 260.135 -2.93246 260.159 -2.90937 260.18L0.624826 263.715L-0.721894 258.853C-0.73769 258.796 -0.753489 258.739 -0.769289 258.682C-0.752467 258.487 -0.69288 258.089 -0.502021 257.374C0.00902964 255.461 1.35768 251.641 4.7152 244.121L4.71913 244.112C7.89985 236.846 11.8855 230.541 15.9575 224.099C16.066 223.927 16.1746 223.756 16.2833 223.584C20.4538 216.984 24.6876 210.222 28.0645 202.247C31.0486 195.403 32.2269 184.91 32.6221 176.392C32.8212 172.101 32.8237 168.25 32.7447 165.521C32.7053 164.16 32.6453 163.061 32.5769 162.319C32.544 161.961 32.5048 161.635 32.4545 161.397C32.4539 161.394 32.4534 161.391 32.4527 161.388C32.437 161.313 32.3839 161.058 32.2408 160.822C32.1948 160.746 32.1006 160.606 31.9399 160.473C31.7705 160.332 31.4663 160.154 31.0528 160.163C30.6389 160.172 30.3419 160.363 30.1777 160.511ZM-2.13131 253.753C-2.3343 253.022 -2.53827 252.291 -2.74352 251.561L-2.74029 251.544C-2.69725 251.326 -2.63351 251 -2.55039 250.57C-2.38414 249.709 -2.14038 248.431 -1.82971 246.756C-1.20841 243.408 -0.319523 238.475 0.751994 232.131C1.83006 225.808 3.1003 218.688 4.47645 212.29C5.85744 205.869 7.323 200.285 8.77335 196.953C9.51017 195.386 11.2872 192.528 13.6138 189.025C15.928 185.54 18.729 181.501 21.4485 177.627C23.1269 175.236 24.768 172.917 26.244 170.832C27.162 169.535 28.0162 168.328 28.7757 167.25C29.251 166.576 29.6892 165.952 30.0819 165.389C30.084 165.458 30.0861 165.528 30.0882 165.598C30.1652 168.261 30.1633 172.045 29.9673 176.269C29.5725 184.777 28.3984 194.836 25.6257 201.191L25.6199 201.204C22.3378 208.957 18.2146 215.553 14.0367 222.164C13.9162 222.354 13.7957 222.545 13.6751 222.736C9.62874 229.137 5.54899 235.59 2.28657 243.042C0.0814587 247.981 -1.28868 251.391 -2.13131 253.753ZM29.854 161.945C29.8438 161.91 29.8454 161.905 29.854 161.945V161.945Z" fill="#508769"/>
<path d="M-22.2351 225.167C-22.2011 225.116 -27.8579 210.966 -23.8825 194.947C-19.8392 178.826 -20.1958 171.164 -16.3225 164.624C-12.3982 158.22 -0.608322 134.522 -0.659284 134.42C-0.404467 134.454 1.3787 170.757 -4.00663 184.363C-9.10317 198.089 -18.5825 211.153 -20.2136 225.456C-21.0801 232.88 -22.2181 225.167 -22.2351 225.167Z" fill="#508769"/>
<path fill-rule="evenodd" clip-rule="evenodd" d="M-1.67665 139.536C-1.66687 139.803 -1.65726 140.08 -1.64791 140.365C-1.52966 143.967 -1.45152 148.91 -1.54881 154.274C-1.64615 159.641 -1.91881 165.412 -2.49896 170.675C-3.08189 175.963 -3.96549 180.639 -5.24449 183.871L-5.24971 183.884L-5.25464 183.897C-7.05182 188.737 -9.38732 193.465 -11.7592 198.266C-12.7154 200.201 -13.6775 202.148 -14.6126 204.12C-17.6044 210.428 -20.2823 216.917 -21.3243 223.718C-21.4476 223.343 -21.5981 222.868 -21.7642 222.3C-22.2154 220.758 -22.7818 218.536 -23.228 215.826C-24.1218 210.396 -24.5265 203.046 -22.5954 195.264C-20.9947 188.882 -20.0757 183.799 -19.3217 179.629C-19.1176 178.501 -18.9257 177.439 -18.7356 176.437C-17.8385 171.706 -16.9921 168.358 -15.1865 165.306C-13.1894 162.045 -9.23909 154.474 -5.81845 147.758C-4.25858 144.696 -2.80114 141.796 -1.67665 139.536ZM-20.2438 227.75C-20.2402 227.755 -20.2386 227.758 -20.2388 227.758C-20.239 227.758 -20.2402 227.756 -20.2425 227.752C-20.2429 227.751 -20.2433 227.751 -20.2438 227.75ZM-2.1339 134.444L-2.97166 132.768L-0.485975 133.099C-0.00681418 133.163 0.267236 133.455 0.357593 133.562C0.465251 133.69 0.524222 133.809 0.549149 133.863C0.60212 133.977 0.62823 134.075 0.637307 134.11C0.659719 134.196 0.672919 134.277 0.680161 134.324C0.696597 134.432 0.711299 134.566 0.724842 134.708C0.752635 135.001 0.78328 135.416 0.814956 135.933C0.87854 136.971 0.948579 138.458 1.00831 140.278C1.12778 143.917 1.20663 148.906 1.1084 154.323C1.01022 159.736 0.734848 165.594 0.142681 170.966C-0.445976 176.306 -1.35745 181.265 -2.76812 184.836C-4.61559 189.808 -7.0444 194.725 -9.43827 199.57C-10.3806 201.478 -11.3175 203.374 -12.2114 205.259C-15.4098 212.002 -18.1062 218.68 -18.8957 225.603L-18.8961 225.607C-19.0071 226.558 -19.1263 227.302 -19.2554 227.867C-19.3722 228.379 -19.5322 228.917 -19.813 229.311C-19.9577 229.514 -20.2637 229.861 -20.7842 229.974C-21.3635 230.099 -21.8221 229.858 -22.0733 229.652C-22.3061 229.462 -22.4549 229.235 -22.5426 229.084C-22.6389 228.917 -22.7173 228.742 -22.7812 228.58C-23.0261 227.96 -23.2158 227.125 -23.3388 226.516C-23.3404 226.508 -23.3419 226.5 -23.3435 226.493L-24.7206 226.493L-23.707 224.972C-23.7112 224.96 -23.7155 224.948 -23.7198 224.935C-23.8684 224.497 -24.077 223.86 -24.3149 223.046C-24.7906 221.42 -25.3836 219.093 -25.8504 216.257C-26.7827 210.594 -27.2186 202.86 -25.1746 194.623L-25.1738 194.62C-23.5966 188.332 -22.6968 183.356 -21.9436 179.192C-21.7373 178.051 -21.5419 176.971 -21.3467 175.941C-20.4438 171.18 -19.5325 167.429 -17.4682 163.943L-17.4631 163.935L-17.4579 163.926C-15.529 160.778 -11.6262 153.305 -8.18657 146.552C-6.47282 143.187 -4.88328 140.02 -3.72588 137.688C-3.147 136.521 -2.67727 135.566 -2.35456 134.901C-2.27024 134.727 -2.19653 134.574 -2.1339 134.444ZM-23.5389 225.429C-23.5392 225.428 -23.5392 225.428 -23.5389 225.429L-23.5389 225.429Z" fill="#508769"/>
<path d="M4.85507 579.473C5.17784 579.643 27.1947 530.006 34.8737 491.529C45.9504 451.082 41.6365 372.872 35.9629 353.082C33.9926 332.153 6.21842 265.138 -3.31155 250.461C-11.5334 231.316 -46.9694 184.38 -66.4712 167.103C-77.3942 156.384 -89.4725 151.373 -90.2369 150.439C-90.9504 149.42 -78.0738 162.992 -73.708 167.273C-69.0533 171.299 -49.1779 192.449 -38.7476 205.393C-27.8585 218.015 -13.691 241.644 -8.10217 251.82C-1.34114 261.366 24.4116 317.714 30.221 354.016C31.8347 362.085 35.6736 390.369 35.0616 420.896C34.9253 451.388 30.3551 484.123 26.2098 500.125C20.1278 525.029 11.09 544.989 6.23137 553.873C1.49164 562.775 1.81428 577.282 4.85507 579.473Z" fill="#508769"/>
<path fill-rule="evenodd" clip-rule="evenodd" d="M-91.4404 151.011C-91.3941 151.1 -91.3453 151.171 -91.325 151.2L-91.2964 151.241L-91.2648 151.279C-91.0954 151.486 -90.8772 151.646 -90.7374 151.742C-90.4566 152.016 -90.0414 152.433 -89.5166 152.967C-88.346 154.159 -86.6709 155.89 -84.8319 157.791L-84.3104 158.33C-80.7621 162 -76.7335 166.166 -74.6378 168.221L-74.6081 168.25L-74.5767 168.277C-70.0077 172.229 -50.189 193.31 -39.7818 206.226L-39.7678 206.243L-39.7532 206.26C-28.9611 218.769 -14.849 242.294 -9.26644 252.458L-9.22996 252.525L-9.18616 252.586C-7.56884 254.87 -4.73471 260.087 -1.27613 267.285C2.16673 274.45 6.18986 283.497 10.1847 293.381C18.184 313.174 26.0287 336.225 28.9092 354.225L28.9133 354.25L28.9183 354.275C30.514 362.254 34.3434 390.442 33.7334 420.868L33.7332 420.878L33.7331 420.888C33.5972 451.288 29.0372 483.911 24.9238 499.791L24.9215 499.8L24.9193 499.809C18.8669 524.591 9.87342 544.444 5.06591 553.235L5.06235 553.241L5.05887 553.248C2.56168 557.937 1.43265 564.011 1.29754 569.154C1.22975 571.734 1.41024 574.14 1.82131 576.076C2.02666 577.043 2.29677 577.927 2.64262 578.669C2.98023 579.394 3.43857 580.089 4.07858 580.55L4.15416 580.605L4.2366 580.648C4.74424 580.915 5.20959 580.771 5.3994 580.687C5.59147 580.601 5.71704 580.491 5.7649 580.447C5.87124 580.349 5.94063 580.254 5.9631 580.223C6.02195 580.141 6.0712 580.057 6.10263 580.002C6.17299 579.879 6.25778 579.715 6.35116 579.527C6.54144 579.145 6.80514 578.586 7.13137 577.873C7.78544 576.444 8.70676 574.357 9.82458 571.734C12.0607 566.488 15.0899 559.08 18.3491 550.463C24.8569 533.256 32.3045 511.169 36.1681 491.834C41.748 471.424 43.4319 441.629 43.0287 414.538C42.6271 387.554 40.1496 362.986 37.2744 352.833C36.7462 347.442 34.6089 339.262 31.601 329.875C28.5596 320.384 24.5944 309.557 20.3967 298.937C12.056 277.835 2.73028 257.375 -2.13492 249.831C-6.34929 240.081 -17.3198 223.508 -29.6014 207.278C-41.9289 190.987 -55.714 174.863 -65.5643 166.13C-71.1161 160.687 -76.9482 156.701 -81.4754 153.963C-83.7432 152.592 -85.6886 151.531 -87.1007 150.761L-87.1183 150.752C-87.8226 150.368 -88.3739 150.067 -88.7751 149.834C-88.8931 149.765 -88.991 149.706 -89.071 149.656C-89.184 149.549 -89.2989 149.443 -89.3917 149.37C-89.4178 149.349 -89.4899 149.292 -89.5839 149.238C-89.6202 149.217 -89.7431 149.146 -89.915 149.1L-89.9172 149.099C-89.9865 149.081 -90.7165 148.883 -91.2638 149.509C-91.5217 149.803 -91.5814 150.125 -91.5917 150.313C-91.6019 150.498 -91.5711 150.643 -91.5523 150.717C-91.5146 150.865 -91.4594 150.974 -91.4404 151.011ZM-82.3307 156.554C-77.9856 159.217 -72.5575 162.991 -67.4014 168.051L-67.3772 168.075L-67.3518 168.097C-57.702 176.646 -44.0313 192.613 -31.7206 208.882C-19.3969 225.168 -8.57293 241.575 -4.53212 250.984L-4.48737 251.088L-4.42561 251.183C0.256621 258.394 9.53913 278.697 17.9251 299.914C22.1085 310.498 26.0518 321.267 29.0701 330.686C32.0988 340.138 34.1624 348.13 34.6402 353.205L34.6518 353.328L34.6858 353.447C37.4699 363.158 39.9683 387.503 40.3713 414.578C40.774 441.632 39.0793 471.141 33.5925 491.177L33.5801 491.222L33.571 491.268C29.7529 510.399 22.3592 532.347 15.8633 549.522C12.618 558.103 9.60255 565.477 7.37977 570.692C6.27972 573.273 5.37547 575.322 4.73484 576.723C4.62137 576.37 4.51575 575.97 4.42098 575.523C4.06446 573.845 3.89036 571.656 3.95429 569.223C4.08252 564.342 5.16096 558.715 7.40097 554.504C12.3109 545.524 21.3887 525.463 27.4989 500.448C31.6749 484.322 36.253 451.487 36.3907 420.911C37.003 390.319 33.1639 361.971 31.5294 353.779C28.5973 335.481 20.6646 312.219 12.6487 292.385C8.63402 282.452 4.58818 273.353 1.11931 266.134C-2.30499 259.007 -5.20536 253.63 -6.97295 251.113C-12.5903 240.895 -26.7659 217.251 -37.7264 204.541C-48.1603 191.595 -68.011 170.46 -72.8061 166.295C-74.8661 164.273 -78.8047 160.201 -82.3307 156.554Z" fill="#508769"/>
<g opacity="0.3">
<path d="M45.3203 97.2331C42.033 94.7509 41.329 90.0209 43.8453 86.6995C46.3617 83.3781 51.0583 82.7066 54.3792 85.2223C57.7001 87.7379 58.3706 92.4345 55.8542 95.7559C53.3378 99.0773 48.6412 99.7487 45.3203 97.2331Z" fill="#5B7F94"/>
<path d="M67.125 113.669C63.8042 111.153 63.1338 106.457 65.6503 103.135C68.1667 99.8137 72.8634 99.1421 76.1842 101.658C79.505 104.173 80.1754 108.87 77.6589 112.191C75.1425 115.513 70.4123 116.151 67.125 113.669Z" fill="#5B7F94"/>
<path d="M77.8969 87.5344C74.0724 89.1451 69.6779 87.3676 68.0345 83.5769C66.4246 79.7528 68.2031 75.3579 72.0276 73.7473C75.8521 72.1366 80.2466 73.9141 81.8564 77.7383C83.4999 81.4619 81.7214 85.8567 77.8969 87.5344Z" fill="#5B7F94"/>
<path d="M60.6221 65.0947C60.1184 69.2212 56.3942 72.1403 52.2678 71.6375C48.1414 71.1348 45.2567 67.3777 45.7268 63.2848C46.2305 59.1583 49.9883 56.2056 54.0811 56.7419C58.241 57.2111 61.1257 60.9682 60.6221 65.0947Z" fill="#5B7F94"/>
<path d="M32.609 68.82C35.9299 71.3357 36.6003 76.0321 34.0839 79.3536C31.5675 82.675 26.8708 83.3465 23.5499 80.8308C20.229 78.3151 19.5587 73.6187 22.075 70.2972C24.5579 67.0093 29.2881 66.3043 32.609 68.82Z" fill="#5B7F94"/>
<path d="M21.8051 94.9885C25.6296 93.3778 30.0241 95.1553 31.6674 98.9459C33.2772 102.77 31.4987 107.165 27.6742 108.776C23.8497 110.386 19.4553 108.609 17.8119 104.818C16.2021 100.994 17.9806 96.5992 21.8051 94.9885Z" fill="#5B7F94"/>
<path d="M39.0799 117.431C39.5835 113.305 43.3074 110.386 47.4337 110.889C51.5599 111.392 54.5117 115.149 53.9746 119.241C53.471 123.368 49.747 126.287 45.6208 125.784C41.4945 125.281 38.5427 121.524 39.0799 117.431Z" fill="#5B7F94"/>
</g>
<g opacity="0.3">
<path d="M1779.43 352.288C1778.86 348.208 1781.7 344.366 1785.83 343.796C1789.96 343.227 1793.76 346.073 1794.33 350.2C1794.89 354.327 1792.05 358.122 1787.92 358.692C1783.79 359.261 1780 356.415 1779.43 352.288Z" fill="#5B7F94"/>
<path d="M1783.22 379.328C1782.65 375.201 1785.5 371.406 1789.63 370.837C1793.76 370.267 1797.55 373.114 1798.12 377.241C1798.69 381.368 1795.84 385.162 1791.72 385.732C1787.59 386.301 1783.79 383.407 1783.22 379.328Z" fill="#5B7F94"/>
<path d="M1809.32 368.465C1805.48 366.899 1803.63 362.535 1805.14 358.693C1806.71 354.85 1811.08 353 1814.92 354.566C1818.76 356.131 1820.61 360.495 1819.05 364.338C1817.58 368.133 1813.21 369.983 1809.32 368.465Z" fill="#5B7F94"/>
<path d="M1812.97 340.382C1809.7 342.944 1805 342.375 1802.44 339.102C1799.88 335.828 1800.49 331.132 1803.72 328.57C1806.99 326.008 1811.74 326.578 1814.25 329.851C1816.86 333.124 1816.25 337.821 1812.97 340.382Z" fill="#5B7F94"/>
<path d="M1790.53 323.209C1791.1 327.336 1788.25 331.131 1784.12 331.7C1780 332.269 1776.2 329.423 1775.63 325.296C1775.06 321.169 1777.91 317.374 1782.04 316.805C1786.12 316.235 1789.96 319.082 1790.53 323.209Z" fill="#5B7F94"/>
<path d="M1764.39 334.073C1768.23 335.639 1770.08 340.003 1768.56 343.845C1767 347.688 1762.63 349.538 1758.79 347.972C1754.94 346.407 1753.09 342.043 1754.61 338.2C1756.18 334.358 1760.54 332.508 1764.39 334.073Z" fill="#5B7F94"/>
<path d="M1760.73 362.158C1764.01 359.596 1768.7 360.165 1771.26 363.439C1773.83 366.712 1773.26 371.456 1769.98 373.97C1766.71 376.531 1762.01 375.962 1759.45 372.689C1756.89 369.416 1757.46 364.672 1760.73 362.158Z" fill="#5B7F94"/>
</g>
</svg>
