<svg width="1921" height="525" viewBox="0 0 1921 525" fill="none" xmlns="http://www.w3.org/2000/svg">
<g filter="url(#filter0_d)">
<path opacity="0.59" d="M1921 0H0.5V524.5L1920.5 524L1921 0Z" fill="url(#paint0_linear)"/>
</g>
<path opacity="0.31" d="M1365.03 498.071L1365.03 498.071C1365 503.713 1370.52 523.3 1355.58 523.326L75.1231 523.326C60.1813 523.352 8.97554 524.297 1.73244 524.449L8.97546 172L351.865 184.977C712.357 185.462 737.882 318.699 939.848 398.652C1101.77 462.743 1365.05 495.569 1365.03 498.071Z" fill="url(#paint1_linear)"/>
<path opacity="0.67" d="M1363.2 524.5L1.2659 522.789C1.46749 528.82 0.57383 510.902 1.2659 522.789L1.26592 242.117C19.879 241.726 234.252 306.908 393.722 326.77C711.05 366.294 995.241 225.341 1216.4 367.449C1315.62 431.201 1363.19 524.5 1363.2 524.5Z" fill="url(#paint2_linear)" fill-opacity="0.6"/>
<defs>
<filter id="filter0_d" x="-39.5" y="-45" width="2010.5" height="614.5" filterUnits="userSpaceOnUse" color-interpolation-filters="sRGB">
<feFlood flood-opacity="0" result="BackgroundImageFix"/>
<feColorMatrix in="SourceAlpha" type="matrix" values="0 0 0 0 0 0 0 0 0 0 0 0 0 0 0 0 0 0 127 0"/>
<feOffset dx="5"/>
<feGaussianBlur stdDeviation="22.5"/>
<feColorMatrix type="matrix" values="0 0 0 0 0.388235 0 0 0 0 0.403922 0 0 0 0 1 0 0 0 0.341 0"/>
<feBlend mode="normal" in2="BackgroundImageFix" result="effect1_dropShadow"/>
<feBlend mode="normal" in="SourceGraphic" in2="effect1_dropShadow" result="shape"/>
</filter>
<linearGradient id="paint0_linear" x1="-5.18406" y1="271.712" x2="1902.29" y2="468.261" gradientUnits="userSpaceOnUse">
<stop stop-color="#000095"/>
<stop offset="0.0001" stop-color="#000095"/>
<stop offset="0.0625" stop-color="#00079B"/>
<stop offset="1" stop-color="#0077EE"/>
</linearGradient>
<linearGradient id="paint1_linear" x1="1269.65" y1="502.03" x2="1042.38" y2="23.6215" gradientUnits="userSpaceOnUse">
<stop stop-color="#181743" stop-opacity="0"/>
<stop offset="1" stop-color="#1649A0"/>
</linearGradient>
<linearGradient id="paint2_linear" x1="1312.18" y1="491.093" x2="1175.78" y2="96.9016" gradientUnits="userSpaceOnUse">
<stop stop-color="#D33227"/>
<stop offset="0.25" stop-color="#9E3849" stop-opacity="0.467808"/>
<stop offset="0.90625" stop-color="#1649A0"/>
<stop offset="1" stop-color="#1649A0" stop-opacity="0.54"/>
<stop offset="1" stop-color="#1649A0"/>
</linearGradient>
</defs>
</svg>
