<svg width="246" height="246" viewBox="0 0 246 246" fill="none" xmlns="http://www.w3.org/2000/svg">
<path d="M123.8 52.2C123.1 47.9 120.1 39.5 108.2 39.5C81.5 39.5 19 74.5 19 144.7C19 192.1 48.3 219.7 48.3 219.7C48.3 219.7 0 187.8 0 123C0 84.2 18.9 47.7 49.2 24.8C57 21.7 66 19.7 75.8 19.7C112.1 19.7 122.2 42.7 123.8 52.2Z" fill="url(#paint0_linear)"/>
<path d="M246 123C246 183.7 198.5 238.3 152 238.3C145.1 238.3 137.4 236.6 130 233.2C114.8 226.1 101.3 211.6 101.3 189.4C101.3 124.5 203.5 131.3 203.5 55.2C203.5 37.4 196.7 24.4 196.7 24.4C196.7 24.4 220.4 41 220.4 74.5C220.4 75.8 220.4 77.1 220.3 78.4C220.3 78.8 220.3 79.2 220.2 79.7C220.2 80.1 220.2 80.5 220.1 80.9C220.1 81.4 220 81.8 220 82.3C219.9 83 219.9 83.6 219.8 84.3C219.8 84.6 219.7 84.9 219.7 85.2C219.7 85.6 219.6 86 219.5 86.4C219.4 86.9 219.3 87.5 219.2 88C219.1 88.5 219 89 218.9 89.6C218.7 90.7 218.5 91.7 218.2 92.7C210.2 126.4 180.2 144.1 159.1 159.8C159 159.9 158.9 159.9 158.8 160C156.1 162 153.6 163.9 151.3 165.9C150.9 166.2 150.6 166.5 150.2 166.8C142.4 173.5 137.2 180.3 137.2 188.1C137.2 197 145.5 207.6 156.8 207.6C188.8 207.6 242.4 145.7 242.4 93.8C242.7 93.7 246 106.2 246 123Z" fill="url(#paint1_linear)"/>
<path d="M246 123C246 183.7 198.5 238.3 152 238.3C145.1 238.3 137.4 236.6 130 233.2C121 227.1 121.2 217.7 121.2 217.7C121.2 195.2 134 180.2 150.5 166.7C142.7 173.4 137.5 180.2 137.5 188C137.5 196.9 145.8 207.5 157.1 207.5C189.1 207.5 242.7 145.6 242.7 93.7C242.7 93.7 246 106.2 246 123Z" fill="url(#paint2_linear)"/>
<path d="M123 246C100.7 246 68.5 231.3 52.4 203C52.1 200 51.9 196.7 51.9 193.3C51.9 153.8 93.6 137 130.1 116.3C103.8 132.5 77.6 149.4 77.6 187.7C77.6 235.4 123 246 123 246Z" fill="url(#paint3_linear)"/>
<path d="M183.7 50.6C183 71.2 173.4 84.8 160.2 96C173.6 84.2 183 70 183.7 50.6Z" fill="#63CADC"/>
<path d="M183.7 48.4C183.7 49.2 183.7 49.9 183.7 50.6C183.7 51.2 183.7 51.8 183.6 52.4C182.5 72 173 85.2 160.2 96C160.2 96 160.1 96.1 160 96.1C151.1 103.5 140.7 109.8 130.2 116.2L130.1 116.3C93.6 137 51.9 153.8 51.9 193.3C51.9 196.7 52.1 199.9 52.4 203C46.2 192.2 42.4 179.3 42.4 164.6C42.4 155.6 43.8 147.4 46.3 140.1C46.8 138.7 47.3 137.3 47.9 135.9C48.5 134.5 49.1 133.2 49.7 131.9C50 131.3 50.3 130.7 50.6 130.1C51.2 128.9 51.9 127.8 52.5 126.6C53.2 125.5 53.9 124.4 54.6 123.3C75.7 91.2 117.1 77.3 123.2 59.3C123.4 58.6 123.6 58 123.7 57.3C123.8 56.5 123.9 55.7 123.9 54.8C123.9 54.7 123.9 54.6 123.9 54.5C123.9 54.3 123.9 54.1 123.9 53.8C123.9 53.7 123.9 53.5 123.9 53.4C123.9 53.1 123.8 52.7 123.8 52.4C122.3 42.9 112.2 19.9 75.9 19.9C66 19.9 57.1 21.9 49.3 25C69.1 9.7 93.9 0.4 121.4 0C121.9 0 122.5 0 123 0C155.9 0 183.7 18.2 183.7 48.4Z" fill="url(#paint4_linear)"/>
<defs>
<linearGradient id="paint0_linear" x1="-20" y1="179" x2="107" y2="20" gradientUnits="userSpaceOnUse">
<stop stop-color="#57A5DA"/>
<stop offset="0.5448" stop-color="#396DB5"/>
<stop offset="1" stop-color="#1D3878"/>
</linearGradient>
<linearGradient id="paint1_linear" x1="134.92" y1="233.026" x2="238" y2="57" gradientUnits="userSpaceOnUse">
<stop stop-color="#1649A0"/>
<stop offset="0.39878" stop-color="#396DB5"/>
<stop offset="0.909295" stop-color="#D33227"/>
</linearGradient>
<linearGradient id="paint2_linear" x1="154" y1="238" x2="236" y2="88" gradientUnits="userSpaceOnUse">
<stop stop-color="#57A5DA"/>
<stop offset="1" stop-color="#345BA9"/>
</linearGradient>
<linearGradient id="paint3_linear" x1="91" y1="246" x2="91" y2="130" gradientUnits="userSpaceOnUse">
<stop stop-color="#57A5DA"/>
<stop offset="1" stop-color="#1649A0"/>
</linearGradient>
<linearGradient id="paint4_linear" x1="36" y1="161" x2="154" y2="4.99999" gradientUnits="userSpaceOnUse">
<stop stop-color="#467FC1"/>
<stop offset="0.390625" stop-color="#467FC1"/>
<stop offset="1" stop-color="#D33227"/>
</linearGradient>
</defs>
</svg>
