<svg width="40" height="40" viewBox="0 0 40 40" fill="none" xmlns="http://www.w3.org/2000/svg">
<path d="M20.0394 15.7285L12.6989 23.069C12.0899 23.678 12.0899 24.6654 12.6989 25.2744C13.3079 25.8834 14.2953 25.8834 14.9043 25.2744L18.48 21.6987V35.6337C18.48 36.495 19.1782 37.1932 20.0394 37.1932C20.9007 37.1932 21.5989 36.495 21.5989 35.6338V21.6987L25.1746 25.2744C25.7836 25.8834 26.771 25.8834 27.38 25.2744C27.989 24.6654 27.989 23.678 27.38 23.069L20.0394 15.7285Z" fill="#57A5DA"/>
<path d="M32.5099 15.0921C32.3255 8.28682 26.7321 2.80713 19.883 2.80713C16.7366 2.80713 13.722 3.97119 11.3942 6.08471C9.38852 7.9058 8.0332 10.3001 7.5025 12.923C5.60641 13.3307 3.8757 14.3115 2.53664 15.755C0.900859 17.5188 0 19.8156 0 22.2223C0 27.4676 4.26734 31.7349 9.51266 31.7349C9.52508 31.7349 9.53734 31.7348 9.54633 31.7346H9.59062C10.4519 31.7346 11.1501 31.0364 11.1501 30.1752C11.1501 29.3139 10.4519 28.6157 9.59062 28.6157H9.53344L9.50375 28.616C5.98234 28.6112 3.11891 25.7449 3.11891 22.2223C3.11891 18.9125 5.69945 16.1132 8.99383 15.8496L9.01131 15.8482C9.75113 15.7889 10.3432 15.21 10.419 14.4717L10.4208 14.4543C10.9196 9.59236 14.9876 5.92596 19.883 5.92596C25.1284 5.92596 29.3957 10.1933 29.3957 15.4386V16.6292C29.3957 17.4789 30.0845 18.1677 30.9342 18.1677H31.6569C34.5375 18.1677 36.881 20.5112 36.881 23.3918C36.881 26.2724 34.5375 28.616 31.6569 28.616L30.4875 28.6157C29.6262 28.6156 28.9278 29.3138 28.9278 30.1751C28.9278 31.0363 29.626 31.7345 30.4872 31.7345H31.6061C31.6231 31.7348 31.6399 31.735 31.6569 31.735C36.2573 31.735 40 27.9923 40 23.3919C40 19.0793 36.7113 15.5206 32.5099 15.0921Z" fill="#505F79"/>
</svg>
