<svg width="104" height="104" viewBox="0 0 104 104" fill="none" xmlns="http://www.w3.org/2000/svg">
<path d="M52.3382 22.0683C52.0423 20.2504 50.774 16.6992 45.7431 16.6992C34.4553 16.6992 8.03252 31.4959 8.03252 61.174C8.03252 81.213 20.4195 92.8813 20.4195 92.8813C20.4195 92.8813 0 79.3951 0 52C0 35.5968 7.99024 20.1659 20.8 10.4846C24.0976 9.17399 27.9024 8.32846 32.0455 8.32846C47.3919 8.32846 51.6618 18.052 52.3382 22.0683Z" fill="url(#paint0_linear_4560_10442)"/>
<path d="M52.3382 22.0683C52.0423 20.2504 50.774 16.6992 45.7431 16.6992C34.4553 16.6992 8.03252 31.4959 8.03252 61.174C8.03252 81.213 20.4195 92.8813 20.4195 92.8813C20.4195 92.8813 0 79.3951 0 52C0 35.5968 7.99024 20.1659 20.8 10.4846C24.0976 9.17399 27.9024 8.32846 32.0455 8.32846C47.3919 8.32846 51.6618 18.052 52.3382 22.0683Z" fill="url(#paint1_linear_4560_10442)"/>
<path d="M104 52C104 77.6618 83.9187 100.745 64.2602 100.745C61.3431 100.745 58.0878 100.026 54.9594 98.5886C48.5334 95.587 42.826 89.4569 42.826 80.0715C42.826 52.6341 86.0326 55.5089 86.0326 23.3366C86.0326 15.8114 83.1578 10.3154 83.1578 10.3154C83.1578 10.3154 93.1773 17.3333 93.1773 31.4959C93.1773 32.0455 93.1773 32.5951 93.135 33.1447C93.135 33.3138 93.135 33.4829 93.0927 33.6943C93.0927 33.8634 93.0927 34.0325 93.0504 34.2016C93.0504 34.413 93.0082 34.5821 93.0082 34.7935C92.9659 35.0894 92.9659 35.3431 92.9236 35.639C92.9236 35.7659 92.8813 35.8927 92.8813 36.0195C92.8813 36.1886 92.8391 36.3577 92.7968 36.5268C92.7545 36.7382 92.7122 36.9919 92.67 37.2033C92.6277 37.4146 92.5854 37.626 92.5431 37.8797C92.4586 38.3447 92.374 38.7675 92.2472 39.1902C88.8651 53.4374 76.1821 60.9203 67.2618 67.5577C67.2195 67.6 67.1773 67.6 67.135 67.6423C65.9935 68.4878 64.9366 69.2911 63.9643 70.1366C63.7952 70.2634 63.6683 70.3902 63.4992 70.5171C60.2017 73.3496 58.0033 76.2244 58.0033 79.522C58.0033 83.2846 61.5122 87.7659 66.2895 87.7659C79.8179 87.7659 102.478 61.5967 102.478 39.6553C102.605 39.613 104 44.8976 104 52Z" fill="url(#paint2_linear_4560_10442)"/>
<path d="M104 52C104 77.6618 83.9187 100.745 64.2602 100.745C61.3431 100.745 58.0878 100.026 54.9594 98.5886C51.1545 96.0098 51.239 92.0358 51.239 92.0358C51.239 82.5236 56.6504 76.1821 63.626 70.4748C60.3285 73.3073 58.1301 76.1821 58.1301 79.4797C58.1301 83.2423 61.639 87.7236 66.4163 87.7236C79.9447 87.7236 102.605 61.5545 102.605 39.613C102.605 39.613 104 44.8976 104 52Z" fill="url(#paint3_linear_4560_10442)"/>
<path d="M51.9999 104C42.5723 104 28.9593 97.7854 22.1528 85.8211C22.026 84.5528 21.9414 83.1577 21.9414 81.7203C21.9414 65.0211 39.5707 57.9187 55.0016 49.1675C43.8829 56.0163 32.8064 63.161 32.8064 79.3528C32.8064 99.5187 51.9999 104 51.9999 104Z" fill="url(#paint4_linear_4560_10442)"/>
<path d="M77.6618 21.3919C77.3658 30.1008 73.3073 35.8504 67.7268 40.5854C73.3918 35.5968 77.3658 29.5935 77.6618 21.3919Z" fill="#63CADC"/>
<path d="M77.6618 20.4618C77.6618 20.8 77.6618 21.0959 77.6618 21.3919C77.6618 21.6455 77.6618 21.8992 77.6195 22.1528C77.1544 30.439 73.1382 36.0195 67.7268 40.5854C67.7268 40.5854 67.6845 40.6276 67.6422 40.6276C63.8796 43.7561 59.4829 46.4195 55.0439 49.1252L55.0016 49.1675C39.5707 57.9187 21.9414 65.0211 21.9414 81.7203C21.9414 83.1577 22.026 84.5106 22.1528 85.8211C19.5317 81.2553 17.9252 75.8016 17.9252 69.587C17.9252 65.7821 18.517 62.3154 19.574 59.2293C19.7853 58.6374 19.9967 58.0455 20.2504 57.4537C20.504 56.8618 20.7577 56.3122 21.0113 55.7626C21.1382 55.5089 21.265 55.2553 21.3918 55.0016C21.6455 54.4943 21.9414 54.0293 22.1951 53.5219C22.491 53.0569 22.787 52.5919 23.0829 52.1268C32.0032 38.5561 49.5057 32.6797 52.0845 25.0699C52.1691 24.774 52.2536 24.5203 52.2959 24.2244C52.3382 23.8862 52.3805 23.548 52.3805 23.1675C52.3805 23.1252 52.3805 23.0829 52.3805 23.0406C52.3805 22.9561 52.3805 22.8715 52.3805 22.7447C52.3805 22.7024 52.3805 22.6179 52.3805 22.5756C52.3805 22.4488 52.3382 22.2797 52.3382 22.1528C51.704 18.1366 47.4341 8.41301 32.0878 8.41301C27.9024 8.41301 24.1398 9.25854 20.8422 10.5691C29.213 4.10081 39.6975 0.169106 51.3235 0C51.5349 0 51.7886 0 52 0C65.9089 0 77.6618 7.69431 77.6618 20.4618Z" fill="url(#paint5_linear_4560_10442)"/>
<defs>
<linearGradient id="paint0_linear_4560_10442" x1="-8.45528" y1="75.6748" x2="45.2358" y2="8.45529" gradientUnits="userSpaceOnUse">
<stop stop-color="#192AD9"/>
<stop offset="0.5448" stop-color="#396DB5"/>
<stop offset="1" stop-color="#1D3878"/>
</linearGradient>
<linearGradient id="paint1_linear_4560_10442" x1="-8.45528" y1="75.6748" x2="45.2358" y2="8.45529" gradientUnits="userSpaceOnUse">
<stop stop-color="#192AD9"/>
<stop offset="0.5448" stop-color="#396DB5"/>
<stop offset="1" stop-color="#1D3878"/>
</linearGradient>
<linearGradient id="paint2_linear_4560_10442" x1="57.0394" y1="98.5151" x2="100.618" y2="24.0976" gradientUnits="userSpaceOnUse">
<stop stop-color="#1649A0"/>
<stop offset="0.39878" stop-color="#396DB5"/>
<stop offset="0.909295" stop-color="#D33227"/>
</linearGradient>
<linearGradient id="paint3_linear_4560_10442" x1="65.1057" y1="100.618" x2="99.7724" y2="37.2033" gradientUnits="userSpaceOnUse">
<stop stop-color="#0D2EA5"/>
<stop offset="1" stop-color="#345BA9"/>
</linearGradient>
<linearGradient id="paint4_linear_4560_10442" x1="38.4715" y1="104" x2="38.4715" y2="54.9594" gradientUnits="userSpaceOnUse">
<stop stop-color="#0B1A9F"/>
<stop offset="1" stop-color="#1649A0"/>
</linearGradient>
<linearGradient id="paint5_linear_4560_10442" x1="15.2195" y1="68.065" x2="65.1057" y2="2.11381" gradientUnits="userSpaceOnUse">
<stop stop-color="#0D38D1"/>
<stop offset="0.390625" stop-color="#284F7D"/>
<stop offset="1" stop-color="#D33227"/>
</linearGradient>
</defs>
</svg>
