<svg width="930" height="196" viewBox="0 0 930 196" fill="none" xmlns="http://www.w3.org/2000/svg">
<g clip-path="url(#clip0)">
<path d="M152.835 84.8648L32.1825 130.308L104.971 0L152.835 84.8648Z" fill="#9D4A23"/>
<path d="M210.981 187.923H0L159.479 96.6089L210.981 187.923Z" fill="#1A4686"/>
<path d="M318.172 40.749H297.042L251.933 157.353H273.44L283.549 126.799H329.413L339.663 157.353H360.746L318.172 40.749ZM288.54 111.704L306.331 57.9622L324.359 111.704H288.54Z" fill="white"/>
<path d="M423.016 71.6509C414.31 71.6509 401.745 77.1357 393.983 88.3583V73.4054H374.727V196H393.967V143.807C399.368 153.512 407.87 159.472 419.505 159.472C441.202 159.472 455.892 139.808 455.892 113.807C455.907 87.8051 443.658 71.6509 423.016 71.6509ZM415.664 145.42C406.768 145.42 397.683 140.172 393.967 128.775V104.181C397.51 92.057 406.075 84.8335 415.664 84.8335C429.314 84.8335 437.706 98.0002 437.706 115.561C437.706 133.122 427.22 145.42 415.664 145.42Z" fill="white"/>
<path d="M538.835 137.69V152.675C538.835 152.675 529.735 159.93 510.384 159.93C491.034 159.93 470.267 148.518 470.267 115.119C470.267 81.7196 494.057 71.6509 511.093 71.6509C533.954 71.6509 545.621 86.6354 545.621 120.351C537.229 120.351 483.571 120.351 483.571 120.351V107.231H527.657C527.657 107.231 529.751 84.8176 510.636 84.8176C491.506 84.8176 487.082 106.599 487.082 115.103C487.082 123.607 488.909 145.42 515.502 145.42C532.758 145.42 538.835 137.69 538.835 137.69Z" fill="white"/>
<path d="M554.454 73.9902H576.843L594.336 107.01L613.009 73.9902H633.068L605.31 115.798L633.068 157.353H611.372L593.753 125.282L574.986 157.353H553.525L581.976 115.672L554.454 73.9902Z" fill="white"/>
<path d="M713.997 42.3773V61.8193C713.997 61.8193 705.825 53.1573 688.333 53.1573C670.84 53.1573 663.834 61.3609 663.834 70.2441C663.834 91.0928 718.878 92.0254 718.878 127.147C718.878 145.42 703.715 159.93 676.193 159.93C659.394 159.93 643.775 152.675 643.775 152.675V133.012C643.775 133.012 652.167 144.25 676.193 144.25C694.158 144.25 699.291 137.453 699.291 127.163C699.291 104.686 643.775 104.923 643.775 71.6667C643.775 48.7157 663.361 38.647 689.261 38.647C707.478 38.6312 713.997 42.3773 713.997 42.3773Z" fill="white"/>
<path d="M835.767 175.863C820.51 175.863 811.016 164.182 806.655 157.085C829.831 149.513 844.868 127.463 844.868 98.1899C844.868 61.7244 821.55 38.647 790.28 38.647C753.894 38.647 732.198 63.7002 732.198 99.2963C732.198 134.813 754.729 159.835 787.95 159.946C795.996 171.469 813.016 191.1 835.751 191.1C844.143 191.1 850.221 189.456 850.221 189.456V172.828C850.221 172.812 844.868 175.863 835.767 175.863ZM751.784 99.2805C751.784 71.1766 770.206 54.327 789.099 54.327C809.631 54.327 824.557 70.2441 824.557 99.2805C824.557 128.317 807.993 144.013 789.099 144.013C770.206 144.013 751.784 127.384 751.784 99.2805Z" fill="white"/>
<path d="M864.927 40.5117H885.678V141.91H930V158.997H864.927V40.5117Z" fill="white"/>
</g>
<defs>
<clipPath id="clip0">
<rect width="930" height="196" fill="white"/>
</clipPath>
</defs>
</svg>
