<svg width="240" height="51" viewBox="0 0 240 51" fill="none" xmlns="http://www.w3.org/2000/svg">
<g clip-path="url(#clip0)">
<path d="M39.3968 21.8758L8.2959 33.5899L27.0587 0L39.3968 21.8758Z" fill="#9D4A23"/>
<path d="M54.385 48.4415H0L41.1094 24.9033L54.385 48.4415Z" fill="#1A4686"/>
<path d="M82.0159 10.5039H76.5692L64.9414 40.5612H70.4854L73.091 32.6853H84.9137L87.5558 40.5612H92.9903L82.0159 10.5039ZM74.3776 28.7942L78.9638 14.941L83.6109 28.7942H74.3776Z" fill="#747475"/>
<path d="M109.041 18.4697C106.797 18.4697 103.558 19.8836 101.557 22.7764V18.922H96.5938V50.5235H101.553V37.0697C102.945 39.5714 105.137 41.1074 108.136 41.1074C113.729 41.1074 117.516 36.0388 117.516 29.3363C117.52 22.6338 114.362 18.4697 109.041 18.4697ZM107.146 37.4852C104.853 37.4852 102.511 36.1325 101.553 33.1948V26.855C102.467 23.7299 104.674 21.8678 107.146 21.8678C110.665 21.8678 112.828 25.2619 112.828 29.7886C112.828 34.3153 110.125 37.4852 107.146 37.4852Z" fill="#747475"/>
<path d="M138.897 35.4928V39.3554C138.897 39.3554 136.551 41.2256 131.563 41.2256C126.575 41.2256 121.222 38.2838 121.222 29.6745C121.222 21.0652 127.354 18.4697 131.746 18.4697C137.639 18.4697 140.646 22.3323 140.646 31.0231C138.483 31.0231 124.651 31.0231 124.651 31.0231V27.6413H136.015C136.015 27.6413 136.555 21.8638 131.628 21.8638C126.697 21.8638 125.556 27.4784 125.556 29.6704C125.556 31.8625 126.027 37.4852 132.882 37.4852C137.33 37.4852 138.897 35.4928 138.897 35.4928Z" fill="#747475"/>
<path d="M142.923 19.0728H148.694L153.203 27.5843L158.017 19.0728H163.188L156.032 29.8497L163.188 40.5615H157.595L153.053 32.2944L148.215 40.5615H142.684L150.017 29.8171L142.923 19.0728Z" fill="#747475"/>
<path d="M184.049 10.9235V15.9351C184.049 15.9351 181.942 13.7023 177.433 13.7023C172.924 13.7023 171.118 15.8169 171.118 18.1068C171.118 23.481 185.307 23.7214 185.307 32.7748C185.307 37.4849 181.398 41.2253 174.304 41.2253C169.973 41.2253 165.947 39.3551 165.947 39.3551V34.2865C165.947 34.2865 168.11 37.1834 174.304 37.1834C178.935 37.1834 180.258 35.4314 180.258 32.7789C180.258 26.985 165.947 27.0462 165.947 18.4735C165.947 12.5574 170.996 9.96193 177.672 9.96193C182.368 9.95785 184.049 10.9235 184.049 10.9235Z" fill="#747475"/>
<path d="M215.438 45.3323C211.505 45.3323 209.057 42.3213 207.933 40.4919C213.908 38.5402 217.783 32.8563 217.783 25.3104C217.783 15.9106 211.773 9.96191 203.712 9.96191C194.333 9.96191 188.74 16.4199 188.74 25.5956C188.74 34.7509 194.548 41.2008 203.112 41.2293C205.186 44.1996 209.573 49.2601 215.434 49.2601C217.597 49.2601 219.163 48.8364 219.163 48.8364V44.55C219.163 44.546 217.783 45.3323 215.438 45.3323ZM193.789 25.5916C193.789 18.3472 198.538 14.0038 203.408 14.0038C208.7 14.0038 212.548 18.1068 212.548 25.5916C212.548 33.0763 208.278 37.1223 203.408 37.1223C198.538 37.1223 193.789 32.8359 193.789 25.5916Z" fill="#747475"/>
<path d="M222.954 10.4429H228.303V36.5806H239.728V40.985H222.954V10.4429Z" fill="#747475"/>
</g>
<defs>
<clipPath id="clip0">
<rect width="239.728" height="50.5233" fill="white"/>
</clipPath>
</defs>
</svg>
