<svg width="839" height="195" viewBox="0 0 839 195" fill="none" xmlns="http://www.w3.org/2000/svg">
<path d="M107.14 144.841C107.14 150.215 102.821 154.535 97.4479 154.535C92.0751 154.535 87.7558 150.215 87.7558 144.841C87.7558 139.466 92.0751 135.146 97.4479 135.146C102.821 135.146 107.14 139.466 107.14 144.841ZM97.4479 159.751C81.9616 159.751 68.951 172.291 65.4218 189.257C75.5353 192.945 86.4916 195 97.922 195C109.036 195 119.677 193.103 129.579 189.573C126.05 172.449 113.04 159.751 97.4479 159.751ZM137.797 124.081C141.589 127.875 141.589 133.987 137.797 137.78C134.004 141.574 127.894 141.574 124.101 137.78C120.309 133.987 120.309 127.875 124.101 124.081C127.841 120.288 134.004 120.288 137.797 124.081ZM141.431 141.521C130.475 152.48 130.159 170.553 139.64 185.042C149.385 180.511 158.603 174.188 166.662 166.127C174.511 158.276 180.726 149.372 185.204 139.888C170.666 130.246 152.44 130.509 141.431 141.521ZM144.75 87.779C150.122 87.779 154.442 92.0994 154.442 97.4737C154.442 102.848 150.122 107.168 144.75 107.168C139.377 107.168 135.058 102.848 135.058 97.4737C135.058 92.1521 139.43 87.779 144.75 87.779ZM159.657 97.5263C159.657 113.017 172.193 126.031 189.154 129.561C192.841 119.445 194.896 108.486 194.896 97.0522C194.896 85.9349 193 75.2918 189.47 65.3864C172.404 68.8638 159.657 81.9305 159.657 97.5263ZM124.049 57.167C127.841 53.3734 133.951 53.3734 137.744 57.167C141.536 60.9606 141.536 67.0724 137.744 70.866C133.951 74.6595 127.841 74.6595 124.049 70.866C120.256 67.0724 120.256 60.9606 124.049 57.167ZM141.484 53.5315C152.44 64.4907 170.507 64.8068 184.993 55.3229C180.463 45.5755 174.142 36.355 166.083 28.2937C158.234 20.4431 149.332 14.2259 139.851 9.74736C130.211 24.2894 130.422 42.4669 141.484 53.5315ZM87.7558 50.2121C87.7558 44.8379 92.0751 40.5174 97.4479 40.5174C102.821 40.5174 107.14 44.8379 107.14 50.2121C107.14 55.5863 102.821 59.9068 97.4479 59.9068C92.0751 59.9068 87.7558 55.5336 87.7558 50.2121ZM97.4479 35.2486C112.934 35.2486 125.945 22.7087 129.474 5.74302C119.361 2.05483 108.404 0 96.9738 0C85.8595 0 75.2192 1.89678 65.3164 5.42691C68.8456 22.5507 81.8562 35.2486 97.4479 35.2486ZM57.0992 70.9187C53.3066 67.1251 53.3066 61.0132 57.0992 57.2196C60.8918 53.4261 67.002 53.4261 70.7946 57.2196C74.5872 61.0132 74.5872 67.1251 70.7946 70.9187C67.0547 74.7122 60.8918 74.7122 57.0992 70.9187ZM53.4647 53.4788C64.421 42.5196 64.737 24.4474 55.2556 9.95812C45.5108 14.4893 36.2928 20.8119 28.2336 28.8733C20.385 36.7238 14.1695 45.6282 9.69212 55.1121C24.2303 64.7541 42.4557 64.4907 53.4647 53.4788ZM50.1462 107.221C44.7734 107.221 40.454 102.901 40.454 97.5263C40.454 92.1521 44.7734 87.8317 50.1462 87.8317C55.519 87.8317 59.8383 92.1521 59.8383 97.5263C59.8383 102.901 55.4663 107.221 50.1462 107.221ZM35.2393 97.4737C35.2393 81.9833 22.7027 68.9692 5.74153 65.4391C2.05431 75.5553 0 86.5145 0 97.9478C0 109.065 1.89628 119.708 5.42548 129.614C22.492 126.136 35.2393 113.069 35.2393 97.4737ZM70.8473 137.833C67.0547 141.627 60.9444 141.627 57.1519 137.833C53.3593 134.039 53.3593 127.928 57.1519 124.134C60.9444 120.34 67.0547 120.34 70.8473 124.134C74.6398 127.928 74.6398 134.039 70.8473 137.833ZM53.412 141.521C42.4557 130.562 24.3883 130.246 9.90281 139.73C14.4328 149.477 20.7538 158.698 28.813 166.759C36.6615 174.61 45.5635 180.827 55.0449 185.305C64.6843 170.763 64.4736 152.533 53.412 141.521Z" fill="#CC2927"/>
<path d="M333.535 60.4871L320.156 73.87C320.156 73.87 313.045 64.3334 300.772 64.3334C291.396 64.3334 277.489 69.8656 277.489 98.0539C277.489 126.242 293.503 129.772 301.351 129.772C313.203 129.772 320.156 120.394 320.156 120.394L333.535 133.197C333.535 133.197 323.527 147.318 302.246 147.318C280.966 147.318 257.737 134.883 257.737 96.2099C257.737 57.5365 282.81 46.7354 301.772 46.7354C320.735 46.7354 333.535 60.4871 333.535 60.4871ZM428.876 76.8205C428.876 93.4701 428.876 146.633 428.876 146.633H409.597V136.306C409.597 136.306 404.646 147.318 384.313 147.318C363.981 147.318 349.18 137.201 349.18 117.496C349.18 97.7905 366.667 89.1496 377.834 89.1496C389.001 89.1496 409.387 88.9916 409.387 88.9916L409.07 77.6108C409.07 77.6108 407.859 63.4376 388.949 63.4376C371.935 63.4376 366.246 72.9743 366.246 72.9743L353.288 61.2774C353.288 61.2774 363.928 46.7881 388.843 46.7881C413.758 46.7881 428.876 60.1709 428.876 76.8205ZM409.176 102.849C407.49 102.849 396.218 102.849 384.05 102.849C371.882 102.849 368.669 112.543 368.669 116.864C368.669 121.184 369.301 130.879 389.054 130.879C411.493 130.879 409.176 113.808 409.176 102.849ZM736.969 76.8205C736.969 93.4701 736.969 146.633 736.969 146.633H717.691V136.306C717.691 136.306 712.739 147.318 692.407 147.318C672.074 147.318 657.273 137.201 657.273 117.496C657.273 97.7905 674.761 89.1496 685.928 89.1496C697.095 89.1496 717.48 88.9916 717.48 88.9916L717.164 77.6108C717.164 77.6108 715.952 63.4376 697.042 63.4376C680.028 63.4376 674.339 72.9743 674.339 72.9743L661.381 61.2774C661.381 61.2774 672.022 46.7881 696.937 46.7881C721.852 46.7881 736.969 60.1709 736.969 76.8205ZM717.217 102.849C715.531 102.849 704.259 102.849 692.091 102.849C679.923 102.849 676.71 112.543 676.71 116.864C676.71 121.184 677.342 130.879 697.095 130.879C719.534 130.879 717.217 113.808 717.217 102.849ZM507.15 46.7881C494.825 46.7881 485.817 53.1634 480.813 57.9054V47.9999H460.955V146.317H480.813V82.0893C483.763 72.6054 489.715 64.4914 501.62 64.4914C516.105 64.4914 520.898 74.6603 520.898 84.1969C520.898 101.584 520.898 146.264 520.898 146.264H540.915C540.915 146.264 540.915 93.2593 540.915 77.8743C540.862 62.4893 526.851 46.7881 507.15 46.7881ZM626.3 48.3161L602.755 116.864L579.683 48.3161H558.561L594.274 146.317H610.603L646.949 48.3161H626.3ZM822.513 70.3398L835.102 57.8527C835.102 57.8527 824.725 46.7881 799.178 46.7881C773.631 46.7881 761.726 61.9097 761.726 77.0313C761.726 120.815 819.616 92.2582 819.616 116.916C819.616 126.4 809.45 130.932 798.441 130.932C779.425 130.932 770.102 119.92 770.102 119.92L757.144 133.303C757.144 133.303 767.205 147.318 798.388 147.318C829.571 147.318 839 130.036 839 115.705C839 72.2366 780.584 100.899 780.584 75.8194C780.584 66.4409 791.224 63.5957 799.283 63.5957C813.137 63.5957 822.513 70.3398 822.513 70.3398Z" fill="#7F7B77"/>
</svg>
