<svg width="839" height="195" viewBox="0 0 839 195" fill="none" xmlns="http://www.w3.org/2000/svg">
<path d="M107.14 144.827C107.14 150.203 102.821 154.524 97.4479 154.524C92.0751 154.524 87.7558 150.203 87.7558 144.827C87.7558 139.451 92.0751 135.13 97.4479 135.13C102.821 135.13 107.14 139.504 107.14 144.827ZM97.4479 159.742C81.9616 159.742 68.951 172.285 65.4218 189.255C75.5353 192.945 86.4916 195 97.922 195C109.036 195 119.677 193.103 129.579 189.572C126.05 172.496 113.04 159.742 97.4479 159.742ZM137.797 124.115C141.589 127.909 141.589 134.023 137.797 137.818C134.004 141.612 127.894 141.612 124.101 137.818C120.309 134.023 120.309 127.909 124.101 124.115C127.841 120.32 134.004 120.32 137.797 124.115ZM141.431 141.559C130.475 152.522 130.159 170.599 139.64 185.092C149.385 180.559 158.603 174.235 166.662 166.172C174.511 158.319 180.726 149.412 185.204 139.926C170.666 130.281 152.44 130.492 141.431 141.559ZM144.75 87.8027C150.122 87.8027 154.442 92.1243 154.442 97.5C154.442 102.876 150.122 107.197 144.75 107.197C139.377 107.197 135.058 102.876 135.058 97.5C135.058 92.1243 139.43 87.8027 144.75 87.8027ZM159.657 97.5C159.657 112.995 172.193 126.012 189.154 129.543C192.841 119.424 194.896 108.462 194.896 97.0257C194.896 85.9054 193 75.2595 189.47 65.3513C172.404 68.8824 159.657 81.9 159.657 97.5ZM124.049 57.1297C127.841 53.3351 133.951 53.3351 137.744 57.1297C141.536 60.9243 141.536 67.0378 137.744 70.8324C133.951 74.627 127.841 74.627 124.049 70.8324C120.256 67.0905 120.256 60.9243 124.049 57.1297ZM141.484 53.4932C152.44 64.4554 170.507 64.7716 184.993 55.2851C180.463 45.5351 174.142 36.3122 166.083 28.2486C158.234 20.3959 149.332 14.177 139.851 9.6973C130.211 24.2432 130.422 42.4784 141.484 53.4932ZM87.7558 50.173C87.7558 44.7973 92.0751 40.4757 97.4479 40.4757C102.821 40.4757 107.14 44.7973 107.14 50.173C107.14 55.5487 102.821 59.8703 97.4479 59.8703C92.0751 59.8703 87.7558 55.4959 87.7558 50.173ZM97.4479 35.2581C112.934 35.2581 125.945 22.7149 129.474 5.7446C119.361 2.05541 108.404 0 96.9738 0C85.8595 0 75.2192 1.8973 65.3164 5.42838C68.8456 22.5041 81.8562 35.2581 97.4479 35.2581ZM57.0992 70.8851C53.3066 67.0905 53.3066 60.977 57.0992 57.1824C60.8918 53.3878 67.002 53.3878 70.7946 57.1824C74.5872 60.977 74.5872 67.0905 70.7946 70.8851C67.0547 74.6797 60.8918 74.6797 57.0992 70.8851ZM53.4647 53.4405C64.421 42.4784 64.737 24.4014 55.2556 9.90811C45.5108 14.4405 36.2928 20.7649 28.2336 28.8284C20.385 36.6811 14.1695 45.5878 9.69212 55.0743C24.2303 64.7189 42.4557 64.5081 53.4647 53.4405ZM50.1462 107.197C44.7734 107.197 40.454 102.876 40.454 97.5C40.454 92.1243 44.7734 87.8027 50.1462 87.8027C55.519 87.8027 59.8383 92.1243 59.8383 97.5C59.8383 102.876 55.4663 107.197 50.1462 107.197ZM35.2393 97.5C35.2393 82.0054 22.7027 68.9878 5.74153 65.4568C2.05431 75.5757 0 86.5378 0 97.9743C0 109.095 1.89628 119.741 5.42548 129.649C22.492 126.118 35.2393 113.1 35.2393 97.5ZM70.8473 137.87C67.0547 141.665 60.9444 141.665 57.1519 137.87C53.3593 134.076 53.3593 127.962 57.1519 124.168C60.9444 120.373 67.0547 120.373 70.8473 124.168C74.6398 127.909 74.6398 134.076 70.8473 137.87ZM53.412 141.507C42.4557 130.545 24.3883 130.228 9.90281 139.715C14.4328 149.465 20.7538 158.688 28.813 166.751C36.6615 174.604 45.5635 180.823 55.0449 185.303C64.6843 170.757 64.4736 152.522 53.412 141.507Z" fill="white"/>
<path d="M333.535 60.4506L320.156 73.8371C320.156 73.8371 313.045 64.2979 300.772 64.2979C291.396 64.2979 277.489 69.8317 277.489 98.0276C277.489 126.224 293.503 129.755 301.351 129.755C313.203 129.755 320.156 120.374 320.156 120.374L333.535 133.18C333.535 133.18 323.527 147.305 302.246 147.305C280.966 147.305 257.737 134.867 257.737 96.183C257.737 57.4992 282.81 46.6952 301.772 46.6952C320.735 46.6952 333.535 60.4506 333.535 60.4506ZM428.876 76.7884C428.876 93.4425 428.876 146.619 428.876 146.619H409.597V136.29C409.597 136.29 404.646 147.305 384.313 147.305C363.981 147.305 349.18 137.186 349.18 117.475C349.18 97.7641 366.667 89.1208 377.834 89.1208C389.001 89.1208 409.387 88.9627 409.387 88.9627L409.07 77.5789C409.07 77.5789 407.859 63.4019 388.949 63.4019C371.935 63.4019 366.246 72.9411 366.246 72.9411L353.288 61.2411C353.288 61.2411 363.928 46.7479 388.843 46.7479C413.758 46.7479 428.876 60.1871 428.876 76.7884ZM409.176 102.876C407.49 102.876 396.218 102.876 384.05 102.876C371.882 102.876 368.669 112.574 368.669 116.895C368.669 121.217 369.301 130.914 389.054 130.914C411.493 130.914 409.176 113.786 409.176 102.876ZM736.969 76.7884C736.969 93.4425 736.969 146.619 736.969 146.619H717.691V136.29C717.691 136.29 712.739 147.305 692.407 147.305C672.074 147.305 657.273 137.186 657.273 117.475C657.273 97.7641 674.761 89.1208 685.928 89.1208C697.095 89.1208 717.48 88.9627 717.48 88.9627L717.164 77.5789C717.164 77.5789 715.952 63.4019 697.042 63.4019C680.028 63.4019 674.339 72.9411 674.339 72.9411L661.381 61.2411C661.381 61.2411 672.022 46.7479 696.937 46.7479C721.852 46.7479 736.969 60.1871 736.969 76.7884ZM717.217 102.876C715.531 102.876 704.259 102.876 692.091 102.876C679.923 102.876 676.71 112.574 676.71 116.895C676.71 121.217 677.342 130.914 697.095 130.914C719.534 130.914 717.217 113.786 717.217 102.876ZM507.15 46.7479C494.825 46.7479 485.817 53.1249 480.813 57.8681V48.0127H460.955V146.356H480.813V82.1114C483.763 72.6249 489.715 64.5087 501.62 64.5087C516.105 64.5087 520.898 74.6803 520.898 84.2195C520.898 101.611 520.898 146.303 520.898 146.303H540.915C540.915 146.303 540.915 93.2844 540.915 77.8952C540.915 62.506 526.851 46.7479 507.15 46.7479ZM626.3 48.2762L602.755 116.842L579.683 48.2762H558.561L594.274 146.303H610.603L646.949 48.2762H626.3ZM822.513 70.306L835.102 57.8154C835.102 57.8154 824.725 46.7479 799.178 46.7479C773.631 46.7479 761.726 61.8735 761.726 76.9992C761.726 120.795 819.616 92.2303 819.616 116.895C819.616 126.382 809.45 130.914 798.441 130.914C779.425 130.914 770.102 119.899 770.102 119.899L757.144 133.286C757.144 133.286 767.205 147.305 798.388 147.305C829.571 147.305 839 130.018 839 115.683C839 72.2033 780.584 100.874 780.584 75.7871C780.584 66.406 791.224 63.56 799.283 63.56C813.137 63.6127 822.513 70.306 822.513 70.306Z" fill="#DADBDC"/>
</svg>
