<svg width="240" height="46" viewBox="0 0 240 46" fill="none" xmlns="http://www.w3.org/2000/svg">
<g clip-path="url(#clip0)">
<rect x="14.8584" y="12.2866" width="34.8592" height="29.716" fill="white"/>
<path d="M31.7352 3.48193L30.2114 7.62874H0V6.19105C0 4.69468 1.21119 3.48193 2.70565 3.48193H31.7352Z" fill="#E69724"/>
<path d="M26.8025 33.3603V31.5705C26.8025 31.0522 27.2225 30.6316 27.7402 30.6316H29.8793V28.4898C29.8793 27.9714 30.2993 27.5509 30.817 27.5509H32.6045C33.1222 27.5509 33.5422 27.9714 33.5422 28.4898V30.6316H35.6813C36.199 30.6316 36.619 31.0522 36.619 31.5705V33.3603C36.619 33.8787 36.199 34.2992 35.6813 34.2992H33.5422V36.4411C33.5422 36.9594 33.1222 37.38 32.6045 37.38H30.817C30.2993 37.38 29.8793 36.9594 29.8793 36.4411V34.2992H27.7402C27.2225 34.2992 26.8025 33.8787 26.8025 33.3603ZM35.8669 22.1228C35.8669 19.8538 34.0208 17.9956 31.745 17.9956C29.4789 17.9956 27.623 19.8441 27.623 22.1228V24.1865H35.8571V22.1228H35.8669ZM2.85216 45.1455C1.27957 45.1455 0 43.8643 0 42.2799V13.2913C0 11.7167 1.27957 10.4355 2.85216 10.4355H32.4189L35.5837 2.63088C36.2283 1.0367 37.7618 0 39.4712 0H60.9796C62.3569 0 63.4704 1.11494 63.4704 2.49395V42.2896C63.4704 43.8643 62.1908 45.1455 60.6182 45.1455H2.85216ZM19.8577 37.9374C19.8577 39.561 21.1763 40.8813 22.7978 40.8813H40.7117C42.3331 40.8813 43.6518 39.561 43.6518 37.9374V27.1303C43.6518 25.5068 42.3331 24.1865 40.7117 24.1865H38.8656V22.1228C38.8656 18.1912 35.6716 15.0028 31.7547 15.0028C27.8281 15.0028 24.6439 18.201 24.6439 22.1228V24.1865H22.7978C21.1763 24.1865 19.8577 25.5068 19.8577 27.1303V37.9374V37.9374Z" fill="#027D91"/>
<path d="M60.9796 0H39.4712C37.7618 0 36.2283 1.0367 35.5837 2.6211L32.4189 10.4257H2.85216C1.27957 10.4257 0 11.7069 0 13.2913V28.9201C6.4662 30.3871 13.0887 31.414 19.8577 31.9715V27.1205C19.8577 25.497 21.1763 24.1767 22.7978 24.1767H24.6439V22.1131C24.6439 18.1814 27.8379 14.9931 31.7547 14.9931C35.6813 14.9931 38.8656 18.1912 38.8656 22.1131V24.1767H40.7117C42.3331 24.1767 43.6518 25.497 43.6518 27.1205V31.9617C50.4012 31.4043 57.0237 30.3676 63.4704 28.9005V2.49395C63.4704 1.11494 62.3569 0 60.9796 0Z" fill="#3BAEBE"/>
<path d="M26.8027 31.5704V32.3822C28.4339 32.4409 30.0749 32.4702 31.7159 32.4702C33.3568 32.4702 34.9978 32.4409 36.629 32.3822V31.5704C36.629 31.0521 36.209 30.6315 35.6913 30.6315H33.5522V28.4897C33.5522 27.9713 33.1322 27.5508 32.6145 27.5508H30.827C30.3093 27.5508 29.8893 27.9713 29.8893 28.4897V30.6315H27.7404C27.2227 30.6218 26.8027 31.0423 26.8027 31.5704Z" fill="#3BAEBE"/>
<path d="M35.867 22.1229C35.867 19.8538 34.0209 17.9956 31.745 17.9956C29.4789 17.9956 27.623 19.8441 27.623 22.1229V24.1865H35.8572V22.1229H35.867Z" fill="#3BAEBE"/>
<mask id="mask0" mask-type="alpha" maskUnits="userSpaceOnUse" x="72" y="7" width="88" height="32">
<path d="M87.2668 7.14307C92.5921 7.14307 96.2983 9.50934 96.2983 9.50934L94.5622 13.9595C94.5622 13.9595 92.6506 12.0509 87.6179 12.0509C82.5853 12.0509 78.5279 15.2936 78.5279 22.4508C78.5279 29.6081 81.7075 33.2597 87.9008 33.2597C92.8164 33.2597 95.0206 31.5848 95.0206 31.5848L96.2983 35.9765C96.2983 35.9765 93.6357 38.002 87.4131 38.002C81.1906 38.002 72.8613 34.5256 72.8613 22.5677C72.8613 10.6097 81.3076 7.14307 87.2668 7.14307ZM108.334 14.534C104.92 14.534 101.565 15.576 101.565 15.576L102.199 19.7924C102.199 19.7924 104.745 18.8089 107.758 18.8089C110.772 18.8089 112.391 20.0845 112.391 24.1841C112.391 28.2837 112.391 33.4253 112.391 33.4253C112.391 33.4253 111.64 33.8342 108.977 33.8342C106.315 33.8342 104.52 32.9676 104.52 30.6013C104.52 30.6013 104.228 27.3099 109.494 27.3099C112.732 27.3099 113.376 28.235 113.376 28.235V24.6515C113.376 24.6515 112.099 23.668 108.743 23.668C105.388 23.668 99.3706 24.7684 99.3706 30.6597C99.3706 36.5511 104.345 38.002 108.344 38.002C112.342 38.002 117.258 36.8432 117.258 36.8432C117.258 36.8432 117.258 26.0927 117.258 22.3437C117.258 18.5947 115.512 14.534 108.334 14.534ZM123.676 16.2186V37.3106H128.942V19.6269C128.942 19.6269 130.22 18.9355 132.414 18.9355C134.609 18.9355 136.238 19.8021 136.238 19.8021L137.398 15.4104C137.398 15.4104 134.502 14.5438 132.132 14.5438C125.87 14.534 123.676 16.2186 123.676 16.2186ZM142.646 27.865H159.528C159.528 27.865 159.723 27.1931 159.723 25.9174C159.723 20.143 157.236 14.534 150.409 14.534C147.054 14.534 139.583 16.2673 139.583 26.268C139.583 36.2687 146.937 38.002 151.16 38.002C155.383 38.002 158.28 36.6192 158.28 36.6192L157.529 32.4612C157.529 32.4612 155.559 33.5616 151.745 33.5616C145.318 33.5616 144.86 28.8193 144.86 26.2777C144.86 23.7362 145.435 18.8868 150.068 18.8868C154.701 18.8868 154.642 24.0867 154.642 24.0867H142.948L142.646 27.865Z" fill="#C4C4C4"/>
</mask>
<g mask="url(#mask0)">
<path d="M159.741 7.08057H72.75V38.3577H159.741V7.08057Z" fill="url(#paint0_linear)"/>
</g>
<path d="M173.601 7.59912C167.633 7.59912 165.367 8.29352 165.367 8.29352V36.9593C165.367 36.9593 167.164 37.7711 174.178 37.7711C181.191 37.7711 190.578 34.9837 190.578 22.6215C190.578 10.2593 181.826 7.59912 173.601 7.59912ZM173.767 33.2722C171.765 33.2722 170.749 33.0766 170.749 33.0766V12.3034C170.749 12.3034 171.56 12.098 173.709 12.098C183.271 12.098 184.951 18.1324 184.951 22.69C184.961 31.8834 177.391 33.2722 173.767 33.2722Z" fill="#E69724"/>
<path d="M205.561 14.5039C200.726 14.5039 194.807 18.1617 194.807 26.2891C194.807 34.4164 200.433 38.0742 205.561 38.0742C210.689 38.0742 216.374 34.6511 216.374 26.3184C216.374 17.9857 210.806 14.5039 205.561 14.5039ZM205.532 33.6536C201.478 33.6536 200.081 29.2427 200.081 26.3086C200.081 23.3746 201.527 18.9637 205.532 18.9637C209.468 18.9637 211.041 22.8562 211.041 26.2793C211.041 29.7024 209.585 33.6536 205.532 33.6536Z" fill="#E69724"/>
<path d="M226.161 25.8785C226.161 25.8785 221.179 32.265 218.337 37.3702C219.148 37.3702 223.67 37.3702 223.67 37.3702C223.67 37.3702 225.233 34.0645 228.945 29.8884C232.363 34.1232 234.043 37.3702 234.043 37.3702C234.043 37.3702 237.696 37.3702 239.718 37.3702C237.462 32.842 231.777 25.8785 231.777 25.8785L239.25 15.0225H233.623L229.013 21.986C229.013 21.986 227.128 18.9639 224.285 15.0225C222.371 15.0225 220.75 15.0225 218.552 15.0225C222.684 20.8319 226.161 25.8785 226.161 25.8785Z" fill="#E69724"/>
</g>
<defs>
<linearGradient id="paint0_linear" x1="116.249" y1="38.3563" x2="116.249" y2="7.07744" gradientUnits="userSpaceOnUse">
<stop stop-color="#007C91"/>
<stop offset="1" stop-color="#5FB6C7"/>
</linearGradient>
<clipPath id="clip0">
<rect width="239.728" height="45.1455" fill="white"/>
</clipPath>
</defs>
</svg>
