<svg width="6146" height="1125" viewBox="0 0 6146 1125" fill="none" xmlns="http://www.w3.org/2000/svg">
<path d="M281 711C91.499 711 47.9995 547.667 46.4995 466C46.4995 466 0.499591 529.499 0.499512 613.5C0.499433 697.5 51.5 826 259 826C681.5 826 1338 99.5 1338 99.5C1338 99.5 697 711 281 711Z" fill="#1B1311"/>
<path d="M474 1091.5L289 906C512.2 852.8 811 605.833 932.5 489L1005 560.5L474 1091.5Z" fill="#1B1311"/>
<path d="M245.5 430.5C245.5 571 341 613.5 438.5 613.5C616 613.5 876.5 430.5 876.5 430.5L461.5 -0.000244141C356.5 95.5 245.5 289.999 245.5 430.5Z" fill="#FF0000"/>
<path fill-rule="evenodd" clip-rule="evenodd" d="M1737 54.5C1820.2 54.5 1887 96.1666 1910 117L1944.5 76.5C1917 51.8334 1837.9 2.5 1741.5 2.5C1621 2.5 1455.5 80 1455.5 290.5C1455.5 501 1608 594 1741.5 594C1848.3 594 1929 537.667 1956 509.5L1925 466C1906 491.5 1842.7 542.5 1741.5 542.5C1615 542.5 1511.5 433 1511.5 290.5C1511.5 148 1633 54.5 1737 54.5ZM5882 97C5956 97 6019.83 140 6042.5 161.5L6098.5 86.5C6098.5 86.5 6030.5 9 5892.5 9C5754.5 9 5683.5 92 5683.5 173.5C5683.5 294.139 5788.23 318.034 5879.33 338.821C5949.45 354.821 6011.5 368.979 6011.5 424C6011.5 443 5987 498.5 5905.5 498.5C5787.5 498.5 5721.5 424 5721.5 424L5664 498.5C5664 498.5 5735.5 589.5 5900 589.5C6041.5 589.5 6112.5 507 6112.5 413.5C6112.5 286.835 6000.22 260.531 5907.65 238.844C5842.73 223.635 5787.5 210.696 5787.5 167C5787.5 145.5 5809.5 97 5882 97ZM3881 501.488C3843.74 552.095 3788.81 594 3724 594C3591.5 594 3586 502.5 3586 464.5V176.5H3640V438C3640 513.5 3680.5 544 3732.5 544C3784.5 544 3881 490 3881 370V176.5H3933V370V580H3881V501.488ZM2469.5 183H2415.5V231H2469.5V460C2469.5 527 2529 587.5 2582.5 587.5H2634.5V538.5H2612C2561 538.5 2529 500.5 2529 445.5V231H2629V183H2529V61H2469.5V183ZM4206 183H4260V61H4319.5V183H4419.5V231H4319.5V445.5C4319.5 500.5 4351.5 538.5 4402.5 538.5H4425V587.5H4373C4319.5 587.5 4260 527 4260 460V231H4206V183ZM4053 15H4108.5V493C4108.44 521.141 4125.5 536.5 4142.5 536.5H4167V587.5H4125.5C4094.5 587.5 4053 552.5 4053 493V15ZM2073.5 254.5L2042 207.5C2052.5 192 2121.5 161 2193.5 161C2287 161 2338 229.5 2338 292V335V583H2287V515.981C2254.08 564.456 2207.31 595 2153 595C2045.8 595 2016.33 515.667 2015 476C2015 364.8 2133 335 2209 335H2287C2286.85 259.795 2252.36 213.5 2187.5 213.5C2135.5 213.5 2089.83 240.833 2073.5 254.5ZM2287 400.795V380H2233C2114 380 2072 426 2072 468C2072 510 2108 549 2162 549C2212.27 549 2278.14 491.799 2287 400.795ZM2760.5 254.5C2776.83 240.833 2822.5 213.5 2874.5 213.5C2939.36 213.5 2973.85 259.795 2974 335H2896C2820 335 2702 364.8 2702 476C2703.33 515.667 2732.8 595 2840 595C2894.31 595 2941.08 564.456 2974 515.981V583H3025V335V292C3025 229.5 2974 161 2880.5 161C2808.5 161 2739.5 192 2729 207.5L2760.5 254.5ZM2974 380V400.795C2965.14 491.799 2899.27 549 2849 549C2795 549 2759 510 2759 468C2759 426 2801 380 2920 380H2974ZM4909.5 15H4520V580H4909.5V493H4621V336H4909.5V251H4621V103H4909.5V15ZM3494.5 373C3494.5 310.5 3471 163 3319.5 163C3253.81 163 3211.9 195.623 3185.5 237.02V171.5H3128V745H3185.5V530.03C3211.95 566.593 3253.9 595 3319.5 595C3470 595 3494.5 435.5 3494.5 373ZM3185.5 425.377C3200.32 488.219 3244.55 548.5 3312 548.5C3396 548.5 3438.5 459 3438.5 379.5C3438.5 300 3402.5 212.5 3312 212.5C3240.4 212.5 3199.47 269.768 3185.5 331.076V425.377ZM5297 404L5448.25 15H5589V580H5491V154L5316.9 580H5275.66L5102.5 154.5V580H4999V15H5144.36L5297 404Z" fill="#1B1311"/>
<path d="M1576.03 952.005H1472.62V1042.21H1591.52V1058H1453.94V836.898H1590.76V852.843H1472.62V936.212H1576.03V952.005Z" fill="#1B1311"/>
<path d="M1651.86 893.692L1652.47 920.419C1658.54 910.498 1666.13 903.057 1675.24 898.096C1684.35 893.136 1694.48 890.655 1705.61 890.655C1731.53 890.655 1747.98 901.285 1754.97 922.545C1760.84 912.32 1768.69 904.474 1778.51 899.007C1788.33 893.439 1799.16 890.655 1811 890.655C1846.23 890.655 1864.2 909.89 1864.91 948.36V1058H1846.69V949.727C1846.59 935.048 1843.4 924.165 1837.12 917.078C1830.95 909.992 1820.82 906.448 1806.75 906.448C1793.69 906.651 1782.66 910.903 1773.65 919.204C1764.64 927.404 1759.62 937.427 1758.61 949.271V1058H1740.39V948.36C1740.29 934.288 1736.95 923.81 1730.37 916.926C1723.89 909.941 1713.87 906.448 1700.3 906.448C1688.86 906.448 1679.04 909.738 1670.84 916.319C1662.64 922.798 1656.57 932.466 1652.62 945.323V1058H1634.39V893.692H1651.86Z" fill="#1B1311"/>
<path d="M1983.25 1061.04C1969.28 1061.04 1956.63 1057.6 1945.29 1050.71C1934.05 1043.83 1925.3 1034.26 1919.02 1022.01C1912.74 1009.66 1909.61 995.84 1909.61 980.554V974.024C1909.61 958.231 1912.64 944.007 1918.72 931.353C1924.89 918.698 1933.45 908.777 1944.38 901.589C1955.31 894.3 1967.16 890.655 1979.91 890.655C1999.86 890.655 2015.65 897.489 2027.29 911.156C2039.04 924.722 2044.91 943.299 2044.91 966.887V977.061H1927.68V980.554C1927.68 999.181 1932.99 1014.72 1943.62 1027.17C1954.35 1039.52 1967.82 1045.7 1984.01 1045.7C1993.73 1045.7 2002.29 1043.93 2009.68 1040.38C2017.17 1036.84 2023.95 1031.17 2030.03 1023.38L2041.42 1032.03C2028.05 1051.37 2008.67 1061.04 1983.25 1061.04ZM1979.91 906.145C1966.25 906.145 1954.71 911.156 1945.29 921.178C1935.98 931.201 1930.31 944.665 1928.28 961.572H2026.84V959.598C2026.33 943.805 2021.83 930.948 2013.32 921.026C2004.82 911.105 1993.68 906.145 1979.91 906.145Z" fill="#1B1311"/>
<path d="M2164.77 909.182C2160.92 908.473 2156.82 908.119 2152.47 908.119C2141.13 908.119 2131.51 911.308 2123.62 917.686C2115.82 923.962 2110.25 933.124 2106.91 945.171V1058H2088.84V893.692H2106.61L2106.91 919.812C2116.53 900.374 2131.97 890.655 2153.23 890.655C2158.29 890.655 2162.29 891.313 2165.23 892.629L2164.77 909.182Z" fill="#1B1311"/>
<path d="M2191.85 974.328C2191.85 948.613 2197.52 928.265 2208.86 913.282C2220.3 898.197 2235.79 890.655 2255.33 890.655C2277.7 890.655 2294.71 899.564 2306.35 917.382L2307.26 893.692H2324.27V1054.66C2324.27 1075.82 2318.35 1092.57 2306.5 1104.92C2294.66 1117.27 2278.61 1123.45 2258.36 1123.45C2246.92 1123.45 2235.99 1120.87 2225.56 1115.71C2215.24 1110.64 2207.09 1103.86 2201.11 1095.36L2211.29 1084.42C2224.14 1100.22 2239.43 1108.11 2257.15 1108.11C2272.33 1108.11 2284.18 1103.61 2292.68 1094.6C2301.19 1085.69 2305.59 1073.29 2305.89 1057.39V1036.74C2294.25 1052.94 2277.29 1061.04 2255.02 1061.04C2235.99 1061.04 2220.7 1053.44 2209.16 1038.26C2197.62 1023.07 2191.85 1002.57 2191.85 976.757V974.328ZM2210.22 977.517C2210.22 998.473 2214.43 1015.02 2222.83 1027.17C2231.23 1039.22 2243.08 1045.24 2258.36 1045.24C2280.74 1045.24 2296.58 1035.22 2305.89 1015.18V938.793C2301.64 928.265 2295.52 920.267 2287.52 914.8C2279.52 909.232 2269.9 906.448 2258.67 906.448C2243.38 906.448 2231.48 912.472 2222.98 924.519C2214.48 936.465 2210.22 954.131 2210.22 977.517Z" fill="#1B1311"/>
<path d="M2443.83 1061.04C2429.86 1061.04 2417.2 1057.6 2405.86 1050.71C2394.63 1043.83 2385.87 1034.26 2379.59 1022.01C2373.31 1009.66 2370.18 995.84 2370.18 980.554V974.024C2370.18 958.231 2373.21 944.007 2379.29 931.353C2385.46 918.698 2394.02 908.777 2404.95 901.589C2415.89 894.3 2427.73 890.655 2440.49 890.655C2460.43 890.655 2476.22 897.489 2487.86 911.156C2499.61 924.722 2505.48 943.299 2505.48 966.887V977.061H2388.25V980.554C2388.25 999.181 2393.56 1014.72 2404.19 1027.17C2414.92 1039.52 2428.39 1045.7 2444.59 1045.7C2454.3 1045.7 2462.86 1043.93 2470.25 1040.38C2477.74 1036.84 2484.52 1031.17 2490.6 1023.38L2501.99 1032.03C2488.62 1051.37 2469.24 1061.04 2443.83 1061.04ZM2440.49 906.145C2426.82 906.145 2415.28 911.156 2405.86 921.178C2396.55 931.201 2390.88 944.665 2388.85 961.572H2487.41V959.598C2486.9 943.805 2482.4 930.948 2473.89 921.026C2465.39 911.105 2454.25 906.145 2440.49 906.145Z" fill="#1B1311"/>
<path d="M2566.73 893.692L2567.33 921.786C2573.51 911.662 2581.2 903.968 2590.42 898.704C2599.63 893.338 2609.8 890.655 2620.94 890.655C2638.55 890.655 2651.66 895.616 2660.27 905.537C2668.87 915.458 2673.23 930.34 2673.33 950.183V1058H2655.26V950.031C2655.16 935.351 2652.02 924.418 2645.84 917.23C2639.77 910.042 2630 906.448 2616.53 906.448C2605.3 906.448 2595.33 909.992 2586.62 917.078C2578.01 924.063 2571.64 933.529 2567.49 945.475V1058H2549.41V893.692H2566.73Z" fill="#1B1311"/>
<path d="M2789.7 1045.7C2802.35 1045.7 2812.93 1042.16 2821.44 1035.07C2830.04 1027.88 2834.7 1018.62 2835.41 1007.28H2852.87C2852.36 1017.3 2849.23 1026.46 2843.46 1034.77C2837.68 1042.97 2829.99 1049.39 2820.37 1054.05C2810.86 1058.71 2800.63 1061.04 2789.7 1061.04C2768.14 1061.04 2751.03 1053.55 2738.37 1038.56C2725.82 1023.58 2719.54 1003.43 2719.54 978.124V972.657C2719.54 956.459 2722.38 942.134 2728.05 929.682C2733.71 917.23 2741.81 907.612 2752.34 900.83C2762.97 894.047 2775.37 890.655 2789.55 890.655C2807.57 890.655 2822.4 896.021 2834.04 906.752C2845.78 917.483 2852.06 931.606 2852.87 949.12H2835.41C2834.6 936.263 2829.94 925.886 2821.44 917.989C2813.03 910.093 2802.4 906.145 2789.55 906.145C2773.15 906.145 2760.39 912.067 2751.28 923.912C2742.27 935.756 2737.76 952.359 2737.76 973.72V979.035C2737.76 999.991 2742.27 1016.34 2751.28 1028.08C2760.39 1039.83 2773.2 1045.7 2789.7 1045.7Z" fill="#1B1311"/>
<path d="M2949.95 1031.88L2997.94 893.692H3017.53L2947.37 1085.94L2943.73 1094.45C2934.72 1114.39 2920.8 1124.36 2901.97 1124.36C2897.62 1124.36 2892.96 1123.65 2888 1122.23L2887.85 1107.2L2897.26 1108.11C2906.17 1108.11 2913.36 1105.89 2918.82 1101.43C2924.39 1097.08 2929.1 1089.54 2932.95 1078.8L2941 1056.63L2879.04 893.692H2898.93L2949.95 1031.88Z" fill="#1B1311"/>
<path d="M3167.51 836.898L3249.06 1032.03L3330.91 836.898H3355.81V1058H3337.13V961.724L3338.65 863.018L3256.34 1058H3241.92L3159.92 863.777L3161.43 961.116V1058H3142.76V836.898H3167.51Z" fill="#1B1311"/>
<path d="M3519.86 1058C3518.04 1052.84 3516.88 1045.19 3516.37 1035.07C3509.99 1043.37 3501.84 1049.8 3491.92 1054.36C3482.1 1058.81 3471.67 1061.04 3460.64 1061.04C3444.85 1061.04 3432.04 1056.63 3422.22 1047.83C3412.5 1039.02 3407.64 1027.88 3407.64 1014.42C3407.64 998.422 3414.27 985.767 3427.53 976.454C3440.9 967.14 3459.47 962.483 3483.27 962.483H3516.22V943.805C3516.22 932.061 3512.57 922.849 3505.28 916.167C3498.1 909.384 3487.57 905.993 3473.7 905.993C3461.04 905.993 3450.57 909.232 3442.26 915.711C3433.96 922.191 3429.81 929.986 3429.81 939.097L3411.59 938.945C3411.59 925.886 3417.66 914.598 3429.81 905.082C3441.96 895.464 3456.89 890.655 3474.61 890.655C3492.93 890.655 3507.36 895.262 3517.89 904.474C3528.52 913.585 3533.98 926.341 3534.29 942.742V1020.49C3534.29 1036.39 3535.96 1048.28 3539.3 1056.18V1058H3519.86ZM3462.76 1044.94C3474.91 1044.94 3485.75 1042 3495.26 1036.13C3504.88 1030.26 3511.86 1022.42 3516.22 1012.6V976.454H3483.72C3465.6 976.656 3451.43 979.997 3441.2 986.476C3430.98 992.854 3425.86 1001.66 3425.86 1012.9C3425.86 1022.11 3429.26 1029.75 3436.04 1035.83C3442.92 1041.9 3451.83 1044.94 3462.76 1044.94Z" fill="#1B1311"/>
<path d="M3608.75 893.692L3609.35 921.786C3615.53 911.662 3623.22 903.968 3632.44 898.704C3641.65 893.338 3651.82 890.655 3662.96 890.655C3680.57 890.655 3693.68 895.616 3702.29 905.537C3710.89 915.458 3715.25 930.34 3715.35 950.183V1058H3697.28V950.031C3697.18 935.351 3694.04 924.418 3687.86 917.23C3681.79 910.042 3672.02 906.448 3658.55 906.448C3647.32 906.448 3637.35 909.992 3628.64 917.078C3620.03 924.063 3613.66 933.529 3609.51 945.475V1058H3591.43V893.692H3608.75Z" fill="#1B1311"/>
<path d="M3874.69 1058C3872.87 1052.84 3871.71 1045.19 3871.2 1035.07C3864.82 1043.37 3856.67 1049.8 3846.75 1054.36C3836.93 1058.81 3826.51 1061.04 3815.47 1061.04C3799.68 1061.04 3786.87 1056.63 3777.05 1047.83C3767.33 1039.02 3762.47 1027.88 3762.47 1014.42C3762.47 998.422 3769.1 985.767 3782.37 976.454C3795.73 967.14 3814.31 962.483 3838.1 962.483H3871.05V943.805C3871.05 932.061 3867.4 922.849 3860.12 916.167C3852.93 909.384 3842.4 905.993 3828.53 905.993C3815.88 905.993 3805.4 909.232 3797.1 915.711C3788.79 922.191 3784.64 929.986 3784.64 939.097L3766.42 938.945C3766.42 925.886 3772.5 914.598 3784.64 905.082C3796.79 895.464 3811.72 890.655 3829.44 890.655C3847.76 890.655 3862.19 895.262 3872.72 904.474C3883.35 913.585 3888.82 926.341 3889.12 942.742V1020.49C3889.12 1036.39 3890.79 1048.28 3894.13 1056.18V1058H3874.69ZM3817.6 1044.94C3829.74 1044.94 3840.58 1042 3850.09 1036.13C3859.71 1030.26 3866.7 1022.42 3871.05 1012.6V976.454H3838.55C3820.43 976.656 3806.26 979.997 3796.03 986.476C3785.81 992.854 3780.7 1001.66 3780.7 1012.9C3780.7 1022.11 3784.09 1029.75 3790.87 1035.83C3797.75 1041.9 3806.66 1044.94 3817.6 1044.94Z" fill="#1B1311"/>
<path d="M3938.98 974.328C3938.98 948.613 3944.65 928.265 3955.99 913.282C3967.42 898.197 3982.91 890.655 4002.45 890.655C4024.83 890.655 4041.83 899.564 4053.48 917.382L4054.39 893.692H4071.4V1054.66C4071.4 1075.82 4065.47 1092.57 4053.63 1104.92C4041.78 1117.27 4025.74 1123.45 4005.49 1123.45C3994.05 1123.45 3983.12 1120.87 3972.69 1115.71C3962.36 1110.64 3954.21 1103.86 3948.24 1095.36L3958.41 1084.42C3971.27 1100.22 3986.56 1108.11 4004.28 1108.11C4019.46 1108.11 4031.31 1103.61 4039.81 1094.6C4048.31 1085.69 4052.72 1073.29 4053.02 1057.39V1036.74C4041.38 1052.94 4024.42 1061.04 4002.15 1061.04C3983.12 1061.04 3967.83 1053.44 3956.29 1038.26C3944.75 1023.07 3938.98 1002.57 3938.98 976.757V974.328ZM3957.35 977.517C3957.35 998.473 3961.55 1015.02 3969.96 1027.17C3978.36 1039.22 3990.2 1045.24 4005.49 1045.24C4027.86 1045.24 4043.71 1035.22 4053.02 1015.18V938.793C4048.77 928.265 4042.64 920.267 4034.65 914.8C4026.65 909.232 4017.03 906.448 4005.79 906.448C3990.51 906.448 3978.61 912.472 3970.11 924.519C3961.6 936.465 3957.35 954.131 3957.35 977.517Z" fill="#1B1311"/>
<path d="M4190.95 1061.04C4176.98 1061.04 4164.33 1057.6 4152.99 1050.71C4141.75 1043.83 4133 1034.26 4126.72 1022.01C4120.44 1009.66 4117.3 995.84 4117.3 980.554V974.024C4117.3 958.231 4120.34 944.007 4126.42 931.353C4132.59 918.698 4141.15 908.777 4152.08 901.589C4163.01 894.3 4174.86 890.655 4187.61 890.655C4207.56 890.655 4223.35 897.489 4234.99 911.156C4246.74 924.722 4252.61 943.299 4252.61 966.887V977.061H4135.38V980.554C4135.38 999.181 4140.69 1014.72 4151.32 1027.17C4162.05 1039.52 4175.52 1045.7 4191.71 1045.7C4201.43 1045.7 4209.99 1043.93 4217.38 1040.38C4224.87 1036.84 4231.65 1031.17 4237.73 1023.38L4249.11 1032.03C4235.75 1051.37 4216.36 1061.04 4190.95 1061.04ZM4187.61 906.145C4173.95 906.145 4162.41 911.156 4152.99 921.178C4143.68 931.201 4138.01 944.665 4135.98 961.572H4234.54V959.598C4234.03 943.805 4229.53 930.948 4221.02 921.026C4212.52 911.105 4201.38 906.145 4187.61 906.145Z" fill="#1B1311"/>
<path d="M4313.09 893.692L4313.7 920.419C4319.78 910.498 4327.37 903.057 4336.48 898.096C4345.59 893.136 4355.72 890.655 4366.85 890.655C4392.77 890.655 4409.22 901.285 4416.2 922.545C4422.08 912.32 4429.92 904.474 4439.74 899.007C4449.56 893.439 4460.39 890.655 4472.24 890.655C4507.47 890.655 4525.44 909.89 4526.15 948.36V1058H4507.93V949.727C4507.82 935.048 4504.63 924.165 4498.36 917.078C4492.18 909.992 4482.06 906.448 4467.99 906.448C4454.93 906.651 4443.89 910.903 4434.88 919.204C4425.87 927.404 4420.86 937.427 4419.85 949.271V1058H4401.63V948.36C4401.52 934.288 4398.18 923.81 4391.6 916.926C4385.12 909.941 4375.1 906.448 4361.54 906.448C4350.1 906.448 4340.28 909.738 4332.08 916.319C4323.88 922.798 4317.8 932.466 4313.85 945.323V1058H4295.63V893.692H4313.09Z" fill="#1B1311"/>
<path d="M4644.49 1061.04C4630.52 1061.04 4617.87 1057.6 4606.53 1050.71C4595.29 1043.83 4586.53 1034.26 4580.26 1022.01C4573.98 1009.66 4570.84 995.84 4570.84 980.554V974.024C4570.84 958.231 4573.88 944.007 4579.95 931.353C4586.13 918.698 4594.68 908.777 4605.62 901.589C4616.55 894.3 4628.4 890.655 4641.15 890.655C4661.09 890.655 4676.89 897.489 4688.53 911.156C4700.27 924.722 4706.15 943.299 4706.15 966.887V977.061H4588.91V980.554C4588.91 999.181 4594.23 1014.72 4604.86 1027.17C4615.59 1039.52 4629.05 1045.7 4645.25 1045.7C4654.97 1045.7 4663.52 1043.93 4670.91 1040.38C4678.41 1036.84 4685.19 1031.17 4691.26 1023.38L4702.65 1032.03C4689.29 1051.37 4669.9 1061.04 4644.49 1061.04ZM4641.15 906.145C4627.48 906.145 4615.94 911.156 4606.53 921.178C4597.21 931.201 4591.54 944.665 4589.52 961.572H4688.07V959.598C4687.57 943.805 4683.06 930.948 4674.56 921.026C4666.06 911.105 4654.92 906.145 4641.15 906.145Z" fill="#1B1311"/>
<path d="M4767.39 893.692L4768 921.786C4774.17 911.662 4781.87 903.968 4791.08 898.704C4800.29 893.338 4810.47 890.655 4821.6 890.655C4839.22 890.655 4852.33 895.616 4860.93 905.537C4869.54 915.458 4873.89 930.34 4873.99 950.183V1058H4855.92V950.031C4855.82 935.351 4852.68 924.418 4846.51 917.23C4840.43 910.042 4830.66 906.448 4817.2 906.448C4805.96 906.448 4795.99 909.992 4787.28 917.078C4778.68 924.063 4772.3 933.529 4768.15 945.475V1058H4750.08V893.692H4767.39Z" fill="#1B1311"/>
<path d="M4957.87 851.628V893.692H4991.88V908.574H4957.87V1018.06C4957.87 1027.17 4959.49 1033.96 4962.73 1038.41C4966.07 1042.87 4971.58 1045.09 4979.28 1045.09C4982.32 1045.09 4987.23 1044.59 4994.01 1043.57L4994.77 1058.46C4990.01 1060.18 4983.53 1061.04 4975.33 1061.04C4962.88 1061.04 4953.82 1057.44 4948.15 1050.26C4942.48 1042.97 4939.64 1032.29 4939.64 1018.21V908.574H4909.42V893.692H4939.64V851.628H4957.87Z" fill="#1B1311"/>
<path d="M5251.65 1003.64C5251.65 991.386 5247.35 981.718 5238.74 974.631C5230.14 967.444 5214.4 960.661 5191.52 954.283C5168.64 947.804 5151.93 940.768 5141.41 933.175C5126.42 922.444 5118.93 908.372 5118.93 890.959C5118.93 874.052 5125.87 860.335 5139.73 849.806C5153.71 839.176 5171.52 833.861 5193.19 833.861C5207.87 833.861 5220.98 836.696 5232.52 842.365C5244.16 848.035 5253.17 855.931 5259.55 866.055C5265.93 876.178 5269.12 887.466 5269.12 899.918H5250.29C5250.29 884.834 5245.12 872.736 5234.8 863.625C5224.47 854.412 5210.6 849.806 5193.19 849.806C5176.28 849.806 5162.82 853.603 5152.79 861.195C5142.77 868.687 5137.76 878.507 5137.76 890.655C5137.76 901.893 5142.27 911.055 5151.28 918.141C5160.29 925.228 5174.71 931.504 5194.55 936.971C5214.4 942.337 5229.43 947.955 5239.66 953.827C5249.88 959.598 5257.57 966.532 5262.74 974.631C5267.9 982.73 5270.48 992.297 5270.48 1003.33C5270.48 1020.74 5263.5 1034.72 5249.53 1045.24C5235.66 1055.77 5217.33 1061.04 5194.55 1061.04C5178.96 1061.04 5164.64 1058.25 5151.58 1052.69C5138.62 1047.12 5128.75 1039.32 5121.97 1029.3C5115.29 1019.28 5111.95 1007.79 5111.95 994.828H5130.62C5130.62 1010.42 5136.44 1022.72 5148.09 1031.73C5159.73 1040.74 5175.22 1045.24 5194.55 1045.24C5211.76 1045.24 5225.58 1041.45 5236.01 1033.85C5246.44 1026.26 5251.65 1016.19 5251.65 1003.64Z" fill="#1B1311"/>
<path d="M5367.26 1031.88L5415.25 893.692H5434.84L5364.68 1085.94L5361.04 1094.45C5352.03 1114.39 5338.11 1124.36 5319.28 1124.36C5314.92 1124.36 5310.27 1123.65 5305.31 1122.23L5305.15 1107.2L5314.57 1108.11C5323.48 1108.11 5330.67 1105.89 5336.13 1101.43C5341.7 1097.08 5346.41 1089.54 5350.26 1078.8L5358.3 1056.63L5296.35 893.692H5316.24L5367.26 1031.88Z" fill="#1B1311"/>
<path d="M5570.04 1016.24C5570.04 1007.23 5566.39 999.991 5559.1 994.524C5551.92 989.058 5541.03 984.806 5526.46 981.769C5511.88 978.63 5500.54 975.087 5492.44 971.139C5484.44 967.089 5478.47 962.179 5474.52 956.409C5470.67 950.638 5468.75 943.653 5468.75 935.453C5468.75 922.494 5474.17 911.814 5485 903.411C5495.83 894.907 5509.7 890.655 5526.61 890.655C5544.93 890.655 5559.61 895.211 5570.65 904.322C5581.78 913.332 5587.35 925.126 5587.35 939.705H5569.13C5569.13 930.087 5565.08 922.089 5556.98 915.711C5548.98 909.333 5538.86 906.145 5526.61 906.145C5514.66 906.145 5505.04 908.827 5497.76 914.193C5490.57 919.457 5486.97 926.341 5486.97 934.845C5486.97 943.045 5489.96 949.423 5495.93 953.979C5502.01 958.433 5512.99 962.534 5528.89 966.279C5544.88 970.025 5556.83 974.024 5564.72 978.276C5572.72 982.528 5578.64 987.64 5582.49 993.613C5586.34 999.586 5588.26 1006.82 5588.26 1015.33C5588.26 1029.2 5582.64 1040.28 5571.41 1048.58C5560.27 1056.89 5545.69 1061.04 5527.67 1061.04C5508.54 1061.04 5493 1056.43 5481.05 1047.22C5469.21 1037.9 5463.28 1026.16 5463.28 1011.99H5481.51C5482.22 1022.62 5486.67 1030.92 5494.87 1036.89C5503.17 1042.76 5514.11 1045.7 5527.67 1045.7C5540.33 1045.7 5550.55 1042.92 5558.35 1037.35C5566.14 1031.78 5570.04 1024.74 5570.04 1016.24Z" fill="#1B1311"/>
<path d="M5666.06 851.628V893.692H5700.08V908.574H5666.06V1018.06C5666.06 1027.17 5667.68 1033.96 5670.92 1038.41C5674.26 1042.87 5679.78 1045.09 5687.47 1045.09C5690.51 1045.09 5695.42 1044.59 5702.2 1043.57L5702.96 1058.46C5698.2 1060.18 5691.72 1061.04 5683.52 1061.04C5671.07 1061.04 5662.01 1057.44 5656.34 1050.26C5650.67 1042.97 5647.84 1032.29 5647.84 1018.21V908.574H5617.62V893.692H5647.84V851.628H5666.06Z" fill="#1B1311"/>
<path d="M5809.92 1061.04C5795.94 1061.04 5783.29 1057.6 5771.95 1050.71C5760.71 1043.83 5751.96 1034.26 5745.68 1022.01C5739.4 1009.66 5736.27 995.84 5736.27 980.554V974.024C5736.27 958.231 5739.3 944.007 5745.38 931.353C5751.55 918.698 5760.11 908.777 5771.04 901.589C5781.97 894.3 5793.82 890.655 5806.57 890.655C5826.52 890.655 5842.31 897.489 5853.95 911.156C5865.7 924.722 5871.57 943.299 5871.57 966.887V977.061H5754.34V980.554C5754.34 999.181 5759.65 1014.72 5770.28 1027.17C5781.01 1039.52 5794.48 1045.7 5810.67 1045.7C5820.39 1045.7 5828.95 1043.93 5836.34 1040.38C5843.83 1036.84 5850.61 1031.17 5856.69 1023.38L5868.08 1032.03C5854.71 1051.37 5835.33 1061.04 5809.92 1061.04ZM5806.57 906.145C5792.91 906.145 5781.37 911.156 5771.95 921.178C5762.64 931.201 5756.97 944.665 5754.94 961.572H5853.5V959.598C5852.99 943.805 5848.49 930.948 5839.98 921.026C5831.48 911.105 5820.34 906.145 5806.57 906.145Z" fill="#1B1311"/>
<path d="M5932.06 893.692L5932.66 920.419C5938.74 910.498 5946.33 903.057 5955.44 898.096C5964.55 893.136 5974.68 890.655 5985.81 890.655C6011.73 890.655 6028.18 901.285 6035.17 922.545C6041.04 912.32 6048.88 904.474 6058.7 899.007C6068.52 893.439 6079.36 890.655 6091.2 890.655C6126.43 890.655 6144.4 909.89 6145.11 948.36V1058H6126.89V949.727C6126.79 935.048 6123.6 924.165 6117.32 917.078C6111.14 909.992 6101.02 906.448 6086.95 906.448C6073.89 906.651 6062.85 910.903 6053.84 919.204C6044.83 927.404 6039.82 937.427 6038.81 949.271V1058H6020.59V948.36C6020.49 934.288 6017.15 923.81 6010.57 916.926C6004.09 909.941 5994.06 906.448 5980.5 906.448C5969.06 906.448 5959.24 909.738 5951.04 916.319C5942.84 922.798 5936.76 932.466 5932.82 945.323V1058H5914.59V893.692H5932.06Z" fill="#1B1311"/>
</svg>
