<svg width="1030" height="317" viewBox="0 0 1030 317" fill="none" xmlns="http://www.w3.org/2000/svg">
<path d="M348.57 89.1383C369.926 89.1383 395.21 106.343 395.21 106.343L388.091 115.437C386.864 116.911 384.9 117.157 383.427 115.928C378.763 111.75 367.471 103.639 348.57 103.639C323.286 103.639 303.403 126.251 303.403 158.202C303.403 190.153 323.286 210.061 348.57 210.061C367.717 210.061 379.99 201.459 384.9 197.526C386.127 196.297 388.091 196.543 389.318 197.772L396.437 205.883C396.437 205.883 383.182 225.791 349.797 225.791C316.659 226.282 284.747 200.967 284.747 158.448C284.747 115.928 313.959 89.1383 348.57 89.1383Z" fill="white"/>
<path d="M854.242 89.1383C875.598 89.1383 900.882 106.343 900.882 106.343L893.763 115.437C892.536 116.911 890.572 117.157 889.099 115.928C884.435 111.75 873.143 103.639 854.242 103.639C828.958 103.639 809.075 126.251 809.075 158.202C809.075 190.153 828.958 210.061 854.242 210.061C873.389 210.061 885.662 201.459 890.572 197.526C891.799 196.297 893.763 196.543 894.99 197.772L902.109 205.883C902.109 205.883 888.854 225.791 855.469 225.791C822.331 226.282 790.419 200.967 790.419 158.448C790.419 115.928 819.876 89.1383 854.242 89.1383Z" fill="white"/>
<path d="M435.222 106.343V150.337H499.044V165.084H435.222V209.078H499.044V223.579H416.566V91.8418H499.044V106.343H435.222Z" fill="white"/>
<path d="M584.223 170.245C584.223 170.245 582.75 168.279 580.296 166.558C594.288 162.134 610.734 150.583 610.734 126.251C610.734 107.572 593.551 91.5961 569.495 91.5961C557.712 91.5961 548.875 91.5961 542.984 91.5961H533.656H524.328V223.579H542.984V169.016C546.911 169.016 551.821 169.016 556.239 169.016C562.867 169.016 564.831 172.211 569.495 178.356C602.879 223.333 602.879 223.579 602.879 223.579H622.762L584.223 170.245ZM542.984 105.605C542.984 105.605 562.867 105.605 572.195 105.605C585.451 105.605 594.778 115.682 594.778 131.658C594.778 144.93 580.05 155.744 568.267 155.744C562.131 155.744 550.348 155.744 542.984 155.744V105.605Z" fill="white"/>
<path d="M727.824 91.8418H622.762V105.114H666.702V223.579H684.13V105.114H727.824V91.8418Z" fill="white"/>
<path d="M763.663 91.8418H746.48V223.824H763.663V91.8418Z" fill="white"/>
<path d="M1015.76 223.579H1030L976.732 91.5961H959.549L906.282 223.579H920.519C922.483 223.579 924.201 222.35 924.692 220.629L937.948 187.449H998.089L1011.34 220.629C1012.33 222.596 1014.04 223.579 1015.76 223.579ZM943.348 174.423L968.141 113.225L992.934 174.423H943.348Z" fill="white"/>
<path d="M131.818 158.448C131.818 174.423 145.074 190.399 145.074 190.399C145.074 190.399 129.118 182.288 111.69 182.288C71.6778 182.288 69.2231 200.967 43.9395 200.967C18.6559 200.967 0 178.356 0 158.448C0 138.54 18.6559 115.928 45.1668 115.928C71.6778 115.928 70.4504 134.607 111.69 134.607C133.046 134.607 145.074 126.497 145.074 126.497C145.074 126.497 131.818 142.472 131.818 158.448Z" fill="#B8312D"/>
<path d="M199.568 197.526C213.315 189.415 220.679 169.999 220.679 169.999C220.679 169.999 221.661 187.941 230.498 202.933C250.381 237.588 267.81 230.46 280.574 252.335C293.339 274.209 283.029 301.736 265.6 311.813C248.417 321.89 219.452 316.974 206.196 293.871C192.941 270.768 209.633 262.657 189.013 226.774C178.458 208.34 165.448 201.95 165.448 201.95C165.448 201.95 185.822 205.637 199.568 197.526Z" fill="#004269"/>
<path d="M199.569 119.123C185.822 111.012 165.203 114.699 165.203 114.699C165.203 114.699 180.176 104.868 188.768 89.8756C208.651 55.221 193.923 43.6694 206.687 21.7952C219.452 -0.0789994 248.172 -4.99455 265.601 4.83655C283.029 14.6677 293.093 42.1948 279.838 65.2979C266.582 88.4009 251.118 77.8325 230.498 113.716C219.943 132.149 220.679 146.65 220.679 146.65C220.679 146.65 213.561 127.234 199.569 119.123Z" fill="#B7B09D"/>
</svg>
