<svg width="1030" height="316" viewBox="0 0 1030 316" fill="none" xmlns="http://www.w3.org/2000/svg">
<path d="M348.57 88.9196C369.926 88.9196 395.21 106.082 395.21 106.082L388.091 115.153C386.864 116.624 384.9 116.869 383.427 115.644C378.763 111.476 367.471 103.385 348.57 103.385C323.286 103.385 303.403 125.941 303.403 157.814C303.403 189.686 323.286 209.545 348.57 209.545C367.717 209.545 379.99 200.964 384.9 197.042C386.127 195.816 388.091 196.061 389.318 197.287L396.437 205.377C396.437 205.377 383.182 225.237 349.797 225.237C316.659 225.727 284.747 200.474 284.747 158.059C284.747 115.644 313.959 88.9196 348.57 88.9196Z" fill="#01426A"/>
<path d="M854.242 88.9196C875.598 88.9196 900.882 106.082 900.882 106.082L893.763 115.153C892.536 116.624 890.572 116.869 889.099 115.644C884.435 111.476 873.143 103.385 854.242 103.385C828.958 103.385 809.075 125.941 809.075 157.814C809.075 189.686 828.958 209.545 854.242 209.545C873.389 209.545 885.662 200.964 890.572 197.042C891.799 195.816 893.763 196.061 894.99 197.287L902.109 205.377C902.109 205.377 888.854 225.237 855.469 225.237C822.331 225.727 790.419 200.474 790.419 158.059C790.419 115.644 819.876 88.9196 854.242 88.9196Z" fill="#01426A"/>
<path d="M435.222 106.082V149.968H499.044V164.678H435.222V208.565H499.044V223.03H416.566V91.6165H499.044V106.082H435.222Z" fill="#01426A"/>
<path d="M584.223 169.827C584.223 169.827 582.75 167.866 580.296 166.15C594.288 161.736 610.734 150.213 610.734 125.941C610.734 107.308 593.551 91.3713 569.495 91.3713C557.712 91.3713 548.875 91.3713 542.984 91.3713H533.656H524.328V223.03H542.984V168.601C546.911 168.601 551.821 168.601 556.239 168.601C562.867 168.601 564.831 171.789 569.495 177.918C602.879 222.785 602.879 223.03 602.879 223.03H622.762L584.223 169.827ZM542.984 105.346C542.984 105.346 562.867 105.346 572.195 105.346C585.451 105.346 594.778 115.398 594.778 131.335C594.778 144.574 580.05 155.362 568.267 155.362C562.131 155.362 550.348 155.362 542.984 155.362V105.346Z" fill="#01426A"/>
<path d="M727.824 91.6165H622.762V104.856H666.702V223.03H684.13V104.856H727.824V91.6165Z" fill="#01426A"/>
<path d="M763.663 91.6165H746.48V223.275H763.663V91.6165Z" fill="#01426A"/>
<path d="M1015.76 223.03H1030L976.732 91.3713H959.549L906.282 223.03H920.519C922.483 223.03 924.201 221.804 924.692 220.088L937.948 186.989H998.089L1011.34 220.088C1012.33 222.049 1014.04 223.03 1015.76 223.03ZM943.348 173.995L968.141 112.947L992.934 173.995H943.348Z" fill="#01426A"/>
<path d="M131.818 158.059C131.818 173.995 145.074 189.931 145.074 189.931C145.074 189.931 129.118 181.841 111.69 181.841C71.6778 181.841 69.2231 200.474 43.9395 200.474C18.6559 200.474 0 177.918 0 158.059C0 138.2 18.6559 115.644 45.1668 115.644C71.6778 115.644 70.4504 134.277 111.69 134.277C133.046 134.277 145.074 126.186 145.074 126.186C145.074 126.186 131.818 142.122 131.818 158.059Z" fill="#B8312D"/>
<path d="M199.568 197.041C213.315 188.951 220.679 169.582 220.679 169.582C220.679 169.582 221.661 187.48 230.498 202.435C250.381 237.005 267.81 229.895 280.574 251.715C293.339 273.536 283.029 300.995 265.6 311.048C248.417 321.1 219.452 316.196 206.196 293.15C192.941 270.103 209.633 262.013 189.013 226.217C178.458 207.829 165.448 201.455 165.448 201.455C165.448 201.455 185.822 205.132 199.568 197.041Z" fill="#004269"/>
<path d="M199.569 118.831C185.822 110.74 165.203 114.418 165.203 114.418C165.203 114.418 180.176 104.611 188.768 89.655C208.651 55.0854 193.923 43.5622 206.687 21.7417C219.452 -0.0788055 248.172 -4.98229 265.601 4.82468C283.029 14.6317 293.093 42.0912 279.838 65.1376C266.583 88.184 251.118 77.6415 230.498 113.437C219.943 131.825 220.679 146.29 220.679 146.29C220.679 146.29 213.561 126.922 199.569 118.831Z" fill="#B7B09D"/>
</svg>
