<svg width="1163" height="152" viewBox="0 0 1163 152" fill="none" xmlns="http://www.w3.org/2000/svg">
<g clip-path="url(#clip0)">
<path d="M60.1305 53.9073V70.0858H98.8276C97.655 79.1822 94.5931 85.8096 90.0328 90.4228C84.3651 96.0755 75.5702 102.248 60.1305 102.248C36.2867 102.248 17.6548 83.0807 17.6548 59.3001C17.6548 35.5196 36.2867 16.3522 60.1305 16.3522C72.9644 16.3522 82.4107 21.4202 89.3162 27.9176L100.717 16.5471C91.0752 7.19083 78.1761 0.108643 60.1305 0.108643C27.4919 0.108643 0 26.6181 0 59.2351C0 91.8522 27.4919 118.362 60.1305 118.362C77.7852 118.362 91.0752 112.579 101.499 101.793C112.183 91.1375 115.505 76.1284 115.505 64.0432C115.505 60.2747 115.245 56.8311 114.658 53.9073H60.1305Z" fill="#557EBF"/>
<path d="M163.909 40.7825C142.802 40.7825 125.538 56.8311 125.538 78.9223C125.538 100.884 142.802 117.062 163.909 117.062C185.017 117.062 202.281 100.884 202.281 78.9223C202.281 56.7661 185.082 40.7825 163.909 40.7825ZM163.909 102.053C152.313 102.053 142.281 92.5019 142.281 78.9223C142.281 65.2128 152.313 55.7915 163.909 55.7915C175.505 55.7915 185.538 65.2128 185.538 78.9223C185.538 92.5019 175.505 102.053 163.909 102.053Z" fill="#EA4535"/>
<path d="M352.118 49.2941H351.532C347.753 44.8109 340.522 40.7825 331.402 40.7825C312.314 40.7825 295.636 57.4159 295.636 78.9223C295.636 100.364 312.314 117.062 331.402 117.062C340.587 117.062 347.819 112.969 351.532 108.421H352.118V113.748C352.118 128.303 344.301 136.165 331.727 136.165C321.434 136.165 315.05 128.822 312.444 122.585L297.851 128.628C302.086 138.764 313.226 151.174 331.792 151.174C351.467 151.174 368.144 139.608 368.144 111.409V42.7317H352.183V49.2941H352.118ZM332.835 102.053C321.239 102.053 312.444 92.1771 312.444 78.9223C312.444 65.4727 321.239 55.7915 332.835 55.7915C344.301 55.7915 353.226 65.6676 353.226 79.0523C353.291 92.372 344.301 102.053 332.835 102.053Z" fill="#557EBF"/>
<path d="M249.512 40.7825C228.405 40.7825 211.141 56.8311 211.141 78.9223C211.141 100.884 228.405 117.062 249.512 117.062C270.62 117.062 287.884 100.884 287.884 78.9223C287.949 56.7661 270.685 40.7825 249.512 40.7825ZM249.512 102.053C237.916 102.053 227.883 92.5019 227.883 78.9223C227.883 65.2128 237.916 55.7915 249.512 55.7915C261.108 55.7915 271.141 65.2128 271.141 78.9223C271.141 92.5019 261.108 102.053 249.512 102.053Z" fill="#F9BC15"/>
<path d="M381.239 1.66797H397.786V117.062H381.239V1.66797Z" fill="#36A852"/>
<path d="M448.796 102.053C440.262 102.053 434.203 98.1547 430.229 90.4877L481.369 69.4361L479.676 65.0828C476.483 56.5712 466.777 40.7825 446.972 40.7825C427.298 40.7825 410.881 56.2463 410.881 78.9223C410.881 100.364 427.102 117.062 448.796 117.062C466.32 117.062 476.483 106.341 480.653 100.169L467.623 91.5273C463.324 97.8298 457.395 102.053 448.796 102.053ZM447.623 55.0768C454.399 55.0768 460.197 58.5854 462.086 63.4585L427.493 77.6878C427.558 61.7042 438.959 55.0768 447.623 55.0768Z" fill="#EA4535"/>
<path d="M562.803 116.932C547.493 116.932 534.725 111.799 524.431 101.533C514.269 91.2669 509.122 78.467 509.122 63.1331C509.122 47.7992 514.203 35.0642 524.431 24.8633C534.594 14.5324 547.428 9.33447 562.803 9.33447C578.373 9.33447 591.011 14.9223 600.718 26.1628L591.207 35.3891C583.78 26.4877 574.334 22.0044 562.803 22.0044C551.337 22.0044 541.826 25.8379 534.073 33.5049C526.451 41.1068 522.672 50.9829 522.672 63.1331C522.672 75.2833 526.451 85.1593 534.073 92.7613C541.76 100.428 551.337 104.262 562.803 104.262C574.79 104.262 585.279 99.2587 594.073 89.1877L603.715 98.544C598.829 104.392 592.77 108.94 585.669 112.124C578.568 115.307 570.946 116.932 562.803 116.932Z" fill="#3D4043"/>
<path d="M628.797 11.6091V114.593H615.507V11.6091H628.797Z" fill="#3D4043"/>
<path d="M671.077 41.8215C680.914 41.8215 688.601 44.4205 694.269 49.6834C699.937 54.8813 702.803 62.0935 702.803 71.1899V114.658H690.1V104.846H689.513C684.041 112.903 676.745 116.932 667.624 116.932C659.806 116.932 653.292 114.658 648.08 110.044C642.868 105.431 640.197 99.7135 640.197 92.7613C640.197 85.4842 642.933 79.7015 648.471 75.3482C654.008 70.9949 661.37 68.8508 670.621 68.8508C678.504 68.8508 685.018 70.2802 690.1 73.1391V70.1503C690.1 65.5371 688.276 61.6387 684.627 58.4549C680.979 55.2712 676.679 53.6468 671.793 53.6468C664.367 53.6468 658.503 56.7656 654.204 63.0031L642.543 55.661C648.992 46.4347 658.504 41.8215 671.077 41.8215ZM653.943 93.0212C653.943 96.4648 655.442 99.3237 658.373 101.663C661.305 103.937 664.758 105.106 668.666 105.106C674.269 105.106 679.22 103.027 683.585 98.9338C687.95 94.8405 690.165 89.9674 690.165 84.3796C686.061 81.1309 680.262 79.5066 672.836 79.5066C667.429 79.5066 662.933 80.806 659.35 83.405C655.702 86.004 653.943 89.1877 653.943 93.0212Z" fill="#3D4043"/>
<path d="M771.142 95.0354C771.142 101.143 768.471 106.341 763.064 110.564C757.657 114.788 750.882 116.867 742.738 116.867C735.637 116.867 729.383 115.047 723.976 111.344C718.569 107.64 714.725 102.767 712.445 96.7248L724.237 91.7217C725.995 95.9451 728.471 99.1938 731.794 101.598C735.116 103.937 738.764 105.106 742.673 105.106C746.908 105.106 750.426 104.197 753.292 102.378C756.159 100.558 757.527 98.4141 757.527 95.8801C757.527 91.3969 754.074 88.0832 747.168 85.939L735.051 82.8853C721.305 79.4416 714.399 72.8143 714.399 63.0681C714.399 56.6357 717.005 51.5027 722.282 47.6043C727.559 43.7058 734.204 41.7566 742.413 41.7566C748.667 41.7566 754.334 43.251 759.351 46.2398C764.367 49.2286 767.95 53.192 769.97 58.1951L758.178 63.0681C756.81 60.0793 754.66 57.8052 751.598 56.1159C748.536 54.4266 745.214 53.5819 741.435 53.5819C737.983 53.5819 734.855 54.4266 732.119 56.1809C729.383 57.9352 728.015 60.0143 728.015 62.4834C728.015 66.5118 731.794 69.3706 739.416 71.1249L750.1 73.8538C764.172 77.3624 771.142 84.3797 771.142 95.0354Z" fill="#3D4043"/>
<path d="M836.745 95.0354C836.745 101.143 834.074 106.341 828.667 110.564C823.26 114.788 816.484 116.867 808.341 116.867C801.24 116.867 794.986 115.047 789.579 111.344C784.172 107.64 780.328 102.767 778.048 96.7248L789.839 91.7217C791.598 95.9451 794.074 99.1938 797.396 101.598C800.719 103.937 804.367 105.106 808.276 105.106C812.51 105.106 816.028 104.197 818.895 102.378C821.761 100.558 823.129 98.4141 823.129 95.8801C823.129 91.3969 819.677 88.0832 812.771 85.939L800.654 82.8853C786.908 79.4416 780.002 72.8143 780.002 63.0681C780.002 56.6357 782.608 51.5027 787.885 47.6043C793.162 43.7058 799.807 41.7566 808.015 41.7566C814.269 41.7566 819.937 43.251 824.953 46.2398C829.97 49.2286 833.553 53.192 835.572 58.1951L823.781 63.0681C822.413 60.0793 820.263 57.8052 817.201 56.1159C814.139 54.4266 810.817 53.5819 807.038 53.5819C803.585 53.5819 800.458 54.4266 797.722 56.1809C794.986 57.9352 793.618 60.0143 793.618 62.4834C793.618 66.5118 797.396 69.3706 805.019 71.1249L815.703 73.8538C829.774 77.3624 836.745 84.3797 836.745 95.0354Z" fill="#3D4043"/>
<path d="M860.849 114.593H847.559V44.1609H860.263V55.6614H860.849C862.217 51.8929 864.954 48.7091 869.123 46.1102C873.292 43.4462 877.397 42.1467 881.436 42.1467C885.279 42.1467 888.537 42.7315 891.273 43.901L887.234 56.7009C885.605 56.0512 882.999 55.7263 879.416 55.7263C874.4 55.7263 870.035 57.7405 866.387 61.7689C862.673 65.7973 860.849 70.4755 860.849 75.8683V114.593Z" fill="#3D4043"/>
<path d="M891.599 79.3766C891.599 68.5259 894.986 59.5595 901.827 52.4773C908.732 45.3951 917.462 41.8215 927.95 41.8215C938.439 41.8215 947.104 45.3951 953.879 52.4773C960.784 59.5595 964.237 68.5259 964.237 79.3766C964.237 90.2923 960.784 99.2587 953.879 106.276C947.038 113.358 938.374 116.932 927.95 116.932C917.462 116.932 908.797 113.358 901.827 106.276C894.986 99.1937 891.599 90.2273 891.599 79.3766ZM904.823 79.3766C904.823 86.9786 907.038 93.0862 911.468 97.7643C915.898 102.442 921.371 104.782 927.885 104.782C934.4 104.782 939.872 102.442 944.302 97.7643C948.732 93.0862 950.947 86.9136 950.947 79.3766C950.947 71.9046 948.732 65.797 944.302 61.1189C939.807 56.3108 934.27 53.9067 927.885 53.9067C921.436 53.9067 915.963 56.3108 911.468 61.1189C907.038 65.797 904.823 71.9046 904.823 79.3766Z" fill="#3D4043"/>
<path d="M972.315 79.3766C972.315 68.5259 975.703 59.5595 982.543 52.4773C989.449 45.3951 998.179 41.8215 1008.67 41.8215C1019.16 41.8215 1027.82 45.3951 1034.6 52.4773C1041.5 59.5595 1044.95 68.5259 1044.95 79.3766C1044.95 90.2923 1041.5 99.2587 1034.6 106.276C1027.76 113.358 1019.09 116.932 1008.67 116.932C998.179 116.932 989.514 113.358 982.543 106.276C975.768 99.1937 972.315 90.2273 972.315 79.3766ZM985.605 79.3766C985.605 86.9786 987.82 93.0862 992.25 97.7643C996.68 102.442 1002.15 104.782 1008.67 104.782C1015.18 104.782 1020.65 102.442 1025.08 97.7643C1029.51 93.0862 1031.73 86.9136 1031.73 79.3766C1031.73 71.9046 1029.51 65.797 1025.08 61.1189C1020.59 56.3108 1015.05 53.9067 1008.67 53.9067C1002.22 53.9067 996.745 56.3108 992.25 61.1189C987.82 65.797 985.605 71.9046 985.605 79.3766Z" fill="#3D4043"/>
<path d="M1068.93 114.593H1055.64V44.1606H1068.34V53.9717H1068.93C1070.95 50.528 1074.07 47.6692 1078.24 45.3301C1082.41 43.056 1086.58 41.8865 1090.69 41.8865C1095.9 41.8865 1100.46 43.056 1104.37 45.4601C1108.28 47.8641 1111.21 51.1778 1113.03 55.4011C1118.9 46.3697 1127.04 41.8865 1137.4 41.8865C1145.54 41.8865 1151.86 44.3555 1156.29 49.3585C1160.72 54.3615 1162.93 61.4437 1162.93 70.67V114.658H1149.64V72.6842C1149.64 66.0569 1148.41 61.3138 1146.06 58.3899C1143.65 55.4661 1139.61 53.9717 1133.94 53.9717C1128.86 53.9717 1124.56 56.1158 1121.11 60.4691C1117.66 64.8224 1115.9 69.8903 1115.9 75.738V114.723H1102.61V72.7492C1102.61 66.1218 1101.37 61.3787 1099.03 58.4549C1096.62 55.531 1092.58 54.0366 1086.91 54.0366C1081.83 54.0366 1077.53 56.1808 1074.07 60.5341C1070.62 64.8224 1068.86 69.9553 1068.86 75.803V114.593H1068.93Z" fill="#3D4043"/>
</g>
<defs>
<clipPath id="clip0">
<rect y="0.108643" width="1163" height="151" fill="white"/>
</clipPath>
</defs>
</svg>
