<svg width="1163" height="152" viewBox="0 0 1163 152" fill="none" xmlns="http://www.w3.org/2000/svg">
<g clip-path="url(#clip0)">
<path d="M60.1305 54.6846V70.8632H98.8276C97.655 79.9596 94.5931 86.5869 90.0328 91.2001C84.3651 96.8528 75.5702 103.025 60.1305 103.025C36.2867 103.025 17.6548 83.858 17.6548 60.0775C17.6548 36.2969 36.2867 17.1295 60.1305 17.1295C72.9644 17.1295 82.4107 22.1975 89.3162 28.6949L100.717 17.3245C91.0752 7.96817 78.1761 0.885986 60.1305 0.885986C27.4919 0.885986 0 27.3955 0 60.0125C0 92.6295 27.4919 119.139 60.1305 119.139C77.7852 119.139 91.0752 113.356 101.499 102.571C112.183 91.9148 115.505 76.9058 115.505 64.8206C115.505 61.0521 115.245 57.6084 114.658 54.6846H60.1305Z" fill="#557EBF"/>
<path d="M163.909 41.5598C142.802 41.5598 125.538 57.6084 125.538 79.6997C125.538 101.661 142.802 117.84 163.909 117.84C185.017 117.84 202.281 101.661 202.281 79.6997C202.281 57.5435 185.082 41.5598 163.909 41.5598ZM163.909 102.83C152.313 102.83 142.281 93.2793 142.281 79.6997C142.281 65.9901 152.313 56.5688 163.909 56.5688C175.505 56.5688 185.538 65.9901 185.538 79.6997C185.538 93.2793 175.505 102.83 163.909 102.83Z" fill="#EA4535"/>
<path d="M352.118 50.0714H351.532C347.753 45.5882 340.522 41.5598 331.402 41.5598C312.314 41.5598 295.636 58.1932 295.636 79.6997C295.636 101.141 312.314 117.84 331.402 117.84C340.587 117.84 347.819 113.746 351.532 109.198H352.118V114.526C352.118 129.08 344.301 136.942 331.727 136.942C321.434 136.942 315.05 129.6 312.444 123.362L297.851 129.405C302.086 139.541 313.226 151.951 331.792 151.951C351.467 151.951 368.144 140.386 368.144 112.187V43.509H352.183V50.0714H352.118ZM332.835 102.83C321.239 102.83 312.444 92.9544 312.444 79.6997C312.444 66.25 321.239 56.5688 332.835 56.5688C344.301 56.5688 353.226 66.4449 353.226 79.8296C353.291 93.1493 344.301 102.83 332.835 102.83Z" fill="#557EBF"/>
<path d="M249.512 41.5598C228.405 41.5598 211.141 57.6084 211.141 79.6997C211.141 101.661 228.405 117.84 249.512 117.84C270.62 117.84 287.883 101.661 287.883 79.6997C287.949 57.5435 270.685 41.5598 249.512 41.5598ZM249.512 102.83C237.916 102.83 227.883 93.2793 227.883 79.6997C227.883 65.9901 237.916 56.5688 249.512 56.5688C261.108 56.5688 271.141 65.9901 271.141 79.6997C271.141 93.2793 261.108 102.83 249.512 102.83Z" fill="#F9BC15"/>
<path d="M381.239 2.44531H397.786V117.839H381.239V2.44531Z" fill="#36A852"/>
<path d="M448.796 102.83C440.262 102.83 434.203 98.932 430.229 91.2651L481.369 70.2134L479.676 65.8602C476.483 57.3485 466.777 41.5598 446.972 41.5598C427.298 41.5598 410.881 57.0237 410.881 79.6997C410.881 101.141 427.102 117.84 448.796 117.84C466.32 117.84 476.483 107.119 480.653 100.946L467.623 92.3047C463.324 98.6071 457.395 102.83 448.796 102.83ZM447.623 55.8541C454.399 55.8541 460.197 59.3627 462.086 64.2358L427.493 78.4651C427.558 62.4815 438.959 55.8541 447.623 55.8541Z" fill="#EA4535"/>
<path d="M562.803 117.709C547.493 117.709 534.725 112.576 524.431 102.31C514.269 92.0443 509.122 79.2443 509.122 63.9104C509.122 48.5765 514.203 35.8416 524.431 25.6406C534.594 15.3097 547.428 10.1118 562.803 10.1118C578.373 10.1118 591.011 15.6996 600.718 26.9401L591.207 36.1665C583.78 27.265 574.334 22.7818 562.803 22.7818C551.337 22.7818 541.826 26.6153 534.073 34.2822C526.451 41.8842 522.672 51.7603 522.672 63.9104C522.672 76.0606 526.451 85.9367 534.073 93.5387C541.76 101.206 551.337 105.039 562.803 105.039C574.79 105.039 585.279 100.036 594.073 89.9651L603.715 99.3214C598.829 105.169 592.77 109.717 585.669 112.901C578.568 116.085 570.946 117.709 562.803 117.709Z" fill="white"/>
<path d="M628.797 12.3865V115.371H615.507V12.3865H628.797Z" fill="white"/>
<path d="M671.077 42.5989C680.914 42.5989 688.601 45.1978 694.269 50.4608C699.937 55.6587 702.803 62.8708 702.803 71.9672V115.435H690.1V105.624H689.513C684.041 113.681 676.745 117.709 667.624 117.709C659.806 117.709 653.292 115.435 648.08 110.822C642.868 106.209 640.197 100.491 640.197 93.5386C640.197 86.2615 642.933 80.4788 648.471 76.1256C654.008 71.7723 661.37 69.6281 670.621 69.6281C678.504 69.6281 685.018 71.0576 690.1 73.9164V70.9276C690.1 66.3145 688.276 62.416 684.627 59.2323C680.979 56.0485 676.679 54.4242 671.793 54.4242C664.367 54.4242 658.503 57.5429 654.204 63.7805L642.543 56.4384C648.992 47.212 658.504 42.5989 671.077 42.5989ZM653.943 93.7985C653.943 97.2422 655.442 100.101 658.373 102.44C661.305 104.714 664.758 105.884 668.666 105.884C674.269 105.884 679.22 103.805 683.585 99.7112C687.95 95.6178 690.165 90.7447 690.165 85.157C686.061 81.9083 680.262 80.2839 672.836 80.2839C667.429 80.2839 662.933 81.5834 659.35 84.1824C655.702 86.7813 653.943 89.9651 653.943 93.7985Z" fill="white"/>
<path d="M771.142 95.8128C771.142 101.92 768.471 107.118 763.064 111.342C757.657 115.565 750.882 117.644 742.738 117.644C735.637 117.644 729.383 115.825 723.976 112.121C718.569 108.418 714.725 103.545 712.445 97.5021L724.237 92.4991C725.995 96.7224 728.471 99.9711 731.794 102.375C735.116 104.714 738.764 105.884 742.673 105.884C746.908 105.884 750.426 104.974 753.292 103.155C756.159 101.336 757.527 99.1914 757.527 96.6574C757.527 92.1742 754.074 88.8605 747.168 86.7164L735.051 83.6626C721.305 80.219 714.399 73.5916 714.399 63.8455C714.399 57.413 717.005 52.2801 722.282 48.3816C727.559 44.4832 734.204 42.5339 742.413 42.5339C748.667 42.5339 754.334 44.0283 759.351 47.0172C764.367 50.006 767.95 53.9694 769.97 58.9724L758.178 63.8455C756.81 60.8567 754.66 58.5826 751.598 56.8932C748.536 55.2039 745.214 54.3592 741.435 54.3592C737.983 54.3592 734.855 55.2039 732.119 56.9582C729.383 58.7125 728.015 60.7917 728.015 63.2607C728.015 67.2891 731.794 70.148 739.416 71.9023L750.1 74.6312C764.172 78.1398 771.142 85.157 771.142 95.8128Z" fill="white"/>
<path d="M836.745 95.8128C836.745 101.92 834.074 107.118 828.667 111.342C823.26 115.565 816.484 117.644 808.341 117.644C801.24 117.644 794.986 115.825 789.579 112.121C784.172 108.418 780.328 103.545 778.048 97.5021L789.839 92.4991C791.598 96.7224 794.074 99.9711 797.396 102.375C800.719 104.714 804.367 105.884 808.276 105.884C812.51 105.884 816.028 104.974 818.895 103.155C821.761 101.336 823.129 99.1914 823.129 96.6574C823.129 92.1742 819.677 88.8605 812.771 86.7164L800.654 83.6626C786.908 80.219 780.002 73.5916 780.002 63.8455C780.002 57.413 782.608 52.2801 787.885 48.3816C793.162 44.4832 799.807 42.5339 808.015 42.5339C814.269 42.5339 819.937 44.0283 824.953 47.0172C829.97 50.006 833.553 53.9694 835.572 58.9724L823.781 63.8455C822.413 60.8567 820.263 58.5826 817.201 56.8932C814.139 55.2039 810.817 54.3592 807.038 54.3592C803.585 54.3592 800.458 55.2039 797.722 56.9582C794.986 58.7125 793.618 60.7917 793.618 63.2607C793.618 67.2891 797.396 70.148 805.019 71.9023L815.703 74.6312C829.774 78.1398 836.745 85.157 836.745 95.8128Z" fill="white"/>
<path d="M860.849 115.37H847.559V44.9383H860.263V56.4387H860.849C862.217 52.6702 864.954 49.4865 869.123 46.8875C873.292 44.2236 877.397 42.9241 881.436 42.9241C885.279 42.9241 888.537 43.5088 891.273 44.6784L887.234 57.4783C885.605 56.8285 882.999 56.5037 879.416 56.5037C874.4 56.5037 870.035 58.5179 866.387 62.5463C862.673 66.5747 860.849 71.2528 860.849 76.6457V115.37Z" fill="white"/>
<path d="M891.599 80.1539C891.599 69.3033 894.986 60.3368 901.827 53.2546C908.732 46.1725 917.462 42.5989 927.95 42.5989C938.439 42.5989 947.104 46.1725 953.879 53.2546C960.784 60.3368 964.237 69.3033 964.237 80.1539C964.237 91.0696 960.784 100.036 953.879 107.053C947.038 114.135 938.374 117.709 927.95 117.709C917.462 117.709 908.797 114.135 901.827 107.053C894.986 99.9711 891.599 91.0046 891.599 80.1539ZM904.823 80.1539C904.823 87.7559 907.038 93.8635 911.468 98.5416C915.898 103.22 921.371 105.559 927.885 105.559C934.4 105.559 939.872 103.22 944.302 98.5416C948.732 93.8635 950.947 87.691 950.947 80.1539C950.947 72.6819 948.732 66.5744 944.302 61.8962C939.807 57.0881 934.27 54.6841 927.885 54.6841C921.436 54.6841 915.963 57.0881 911.468 61.8962C907.038 66.5744 904.823 72.6819 904.823 80.1539Z" fill="white"/>
<path d="M972.315 80.1539C972.315 69.3033 975.703 60.3368 982.543 53.2546C989.449 46.1725 998.179 42.5989 1008.67 42.5989C1019.16 42.5989 1027.82 46.1725 1034.6 53.2546C1041.5 60.3368 1044.95 69.3033 1044.95 80.1539C1044.95 91.0696 1041.5 100.036 1034.6 107.053C1027.76 114.135 1019.09 117.709 1008.67 117.709C998.179 117.709 989.514 114.135 982.543 107.053C975.768 99.9711 972.315 91.0046 972.315 80.1539ZM985.605 80.1539C985.605 87.7559 987.82 93.8635 992.25 98.5416C996.68 103.22 1002.15 105.559 1008.67 105.559C1015.18 105.559 1020.65 103.22 1025.08 98.5416C1029.51 93.8635 1031.73 87.691 1031.73 80.1539C1031.73 72.6819 1029.51 66.5744 1025.08 61.8962C1020.59 57.0881 1015.05 54.6841 1008.67 54.6841C1002.22 54.6841 996.745 57.0881 992.25 61.8962C987.82 66.5744 985.605 72.6819 985.605 80.1539Z" fill="white"/>
<path d="M1068.93 115.37H1055.64V44.9379H1068.34V54.749H1068.93C1070.95 51.3054 1074.07 48.4465 1078.24 46.1075C1082.41 43.8334 1086.58 42.6638 1090.69 42.6638C1095.9 42.6638 1100.46 43.8334 1104.37 46.2374C1108.28 48.6414 1111.21 51.9551 1113.03 56.1784C1118.9 47.147 1127.04 42.6638 1137.4 42.6638C1145.54 42.6638 1151.86 45.1328 1156.29 50.1358C1160.72 55.1389 1162.93 62.221 1162.93 71.4474V115.435H1149.64V73.4616C1149.64 66.8342 1148.41 62.0911 1146.06 59.1673C1143.65 56.2434 1139.61 54.749 1133.94 54.749C1128.86 54.749 1124.56 56.8932 1121.11 61.2464C1117.66 65.5997 1115.9 70.6677 1115.9 76.5154V115.5H1102.61V73.5266C1102.61 66.8992 1101.37 62.1561 1099.03 59.2322C1096.62 56.3084 1092.58 54.814 1086.91 54.814C1081.83 54.814 1077.53 56.9581 1074.07 61.3114C1070.62 65.5997 1068.86 70.7327 1068.86 76.5803V115.37H1068.93Z" fill="white"/>
</g>
<defs>
<clipPath id="clip0">
<rect y="0.885986" width="1163" height="151" fill="white"/>
</clipPath>
</defs>
</svg>
