<svg width="840" height="217" viewBox="0 0 840 217" fill="none" xmlns="http://www.w3.org/2000/svg">
<path d="M318.469 57.7755V90.7616C318.469 96.1593 318.868 99.5579 319.467 100.957C320.066 102.357 321.264 103.556 323.061 104.556C324.858 105.555 327.254 106.155 330.249 106.155H333.843V109.154H278.136V106.155H281.73C284.725 106.155 287.321 105.555 289.118 104.556C290.515 103.756 291.514 102.557 292.312 100.757C292.911 99.5579 293.111 96.1593 293.111 90.7616V20.5912C293.111 15.1935 292.911 11.7949 292.312 10.3955C291.713 8.99612 290.515 7.79662 288.918 6.79704C287.121 5.79746 284.725 5.19771 281.73 5.19771H278.136V2.19897H333.444V5.19771H329.85C326.855 5.19771 324.259 5.79746 322.462 6.79704C321.064 7.5967 320.066 8.79618 319.267 10.5954C318.668 11.7949 318.469 15.1935 318.469 20.5912V50.7785H356.006V20.5912C356.006 15.1935 355.806 11.7949 355.207 10.3955C354.608 8.99612 353.41 7.79662 351.613 6.79704C349.816 5.79746 347.42 5.19771 344.425 5.19771H341.031V2.19897H396.538V5.19771H393.144C389.949 5.19771 387.553 5.79746 385.756 6.79704C384.359 7.5967 383.36 8.79618 382.562 10.5954C381.963 11.7949 381.763 15.1935 381.763 20.5912V90.7616C381.763 96.1593 381.963 99.5579 382.562 100.957C383.161 102.357 384.359 103.556 386.156 104.556C387.953 105.555 390.349 106.155 393.344 106.155H396.738V109.154H341.231V106.155H344.625C347.82 106.155 350.216 105.555 352.013 104.556C353.41 103.756 354.409 102.557 355.207 100.757C355.806 99.5579 356.006 96.1593 356.006 90.7616V57.7755H318.469Z" fill="#095BA6"/>
<path d="M474.408 78.5667H436.871L432.478 88.9623C431.081 92.3609 430.282 95.3596 430.282 97.5587C430.282 100.557 431.48 102.756 433.876 104.156C435.274 104.956 438.668 105.555 444.259 105.955V108.954H408.918V105.955C412.711 105.355 415.906 103.756 418.302 101.157C420.698 98.5583 423.893 93.1605 427.487 85.1639L465.623 0.199829H467.021L505.357 87.5629C508.951 95.7594 511.946 100.957 514.342 103.156C516.139 104.756 518.535 105.755 521.929 105.955V108.954H470.415V105.955H472.611C476.804 105.955 479.6 105.355 481.397 104.156C482.595 103.356 483.194 102.157 483.194 100.557C483.194 99.5578 482.994 98.5583 482.794 97.5587C482.595 97.1589 481.996 95.1597 480.398 91.7611L474.408 78.5667ZM471.613 72.7692L455.839 35.9847L439.467 72.7692H471.613Z" fill="#095BA6"/>
<path d="M630.947 2.3989V5.39764C627.353 5.79747 624.758 6.79705 622.961 8.39637C620.365 10.5954 616.172 16.5929 610.581 26.3888L587.42 64.9725V90.7616C587.42 96.3592 587.62 99.7578 588.219 100.957C588.818 102.357 590.016 103.556 591.613 104.556C593.41 105.555 595.606 106.155 598.402 106.155H604.392V109.154H544.691V106.155H550.282C553.477 106.155 555.873 105.555 557.67 104.556C559.067 103.756 560.066 102.557 560.864 100.757C561.463 99.5579 561.663 96.1593 561.663 90.7616V69.3706L536.705 23.7899C531.713 14.7937 528.319 9.39594 526.122 7.79662C524.126 6.19729 521.33 5.39764 517.936 5.39764V2.3989H568.851V5.39764H566.655C563.66 5.39764 561.463 5.79746 560.265 6.79704C559.067 7.5967 558.468 8.59627 558.468 9.59585C558.468 11.3951 560.465 16.1931 564.658 23.7899L583.826 58.975L602.994 26.7886C607.786 18.9919 610.182 13.7941 610.182 11.1952C610.182 9.79577 609.583 8.59627 608.185 7.59669C606.388 6.19728 603.194 5.59754 598.402 5.19771V2.19897H630.947V2.3989Z" fill="#095BA6"/>
<path d="M684.658 8.59634V51.978H686.854C693.643 51.978 698.435 49.7789 701.43 45.5807C704.425 41.3825 706.421 34.9852 707.22 26.7887H710.215V82.5651H707.22C706.621 76.5676 705.223 71.5697 703.227 67.5714C701.23 63.773 698.834 61.1741 696.238 59.7747C693.643 58.3753 689.649 57.7756 684.658 57.7756V87.7629C684.658 93.5605 684.857 97.1589 685.456 98.5583C685.856 99.9578 686.854 100.957 688.252 101.757C689.649 102.557 691.846 102.957 694.841 102.957H701.23C711.213 102.957 719.2 100.558 725.19 95.9595C731.18 91.3614 735.573 84.3644 738.168 74.9683H741.163L736.371 108.754H644.325V105.755H647.919C650.914 105.755 653.51 105.156 655.307 104.156C656.704 103.356 657.703 102.157 658.501 100.358C659.1 99.1581 659.3 95.7596 659.3 90.3618V20.1914C659.3 15.3935 659.1 12.3947 658.901 11.3952C658.302 9.59593 657.503 8.19651 655.906 7.19693C653.909 5.79752 651.114 4.99788 647.719 4.99788H644.125V1.99915H733.177V33.5858H730.182C728.584 25.7891 726.588 20.3914 723.792 16.9928C720.997 13.5942 717.203 11.1952 712.212 9.59591C709.217 8.59634 703.826 8.19651 695.639 8.19651H684.658V8.59634Z" fill="#095BA6"/>
<path d="M831.613 0L832.411 35.5849H829.216C827.619 26.5887 824.025 19.5917 818.035 14.194C812.045 8.79626 805.656 5.99746 798.867 5.99746C793.476 5.99746 789.283 7.39685 786.288 10.1957C783.093 12.9945 781.696 16.3931 781.696 19.9915C781.696 22.3905 782.295 24.3897 783.293 26.1889C784.89 28.5879 787.286 30.9869 790.681 33.5858C793.077 35.385 798.867 38.3838 807.652 42.7819C820.032 48.9793 828.418 54.7768 832.811 60.1745C837.004 65.5723 839.2 71.7696 839.2 78.9666C839.2 87.9628 835.806 95.5596 828.817 101.957C821.829 108.354 813.043 111.553 802.461 111.553C799.067 111.553 795.872 111.153 792.877 110.553C789.882 109.953 786.088 108.554 781.696 106.755C779.1 105.755 777.103 105.156 775.506 105.156C774.108 105.156 772.711 105.755 771.113 106.755C769.516 107.754 768.318 109.354 767.519 111.553H764.524V71.3698H767.519C769.915 82.765 774.308 91.3613 780.897 97.1589C787.486 103.156 794.474 106.155 802.062 106.155C807.852 106.155 812.644 104.556 816.039 101.357C819.433 98.1585 821.23 94.3601 821.23 90.1618C821.23 87.563 820.631 85.164 819.233 82.765C817.835 80.366 815.839 78.1669 813.243 75.9679C810.448 73.7688 805.656 71.1699 798.867 67.7713C789.283 62.9734 782.295 58.975 777.902 55.5765C773.709 52.1779 770.315 48.5794 768.118 44.3812C765.922 40.183 764.724 35.7849 764.724 30.787C764.724 22.3905 767.919 14.9936 774.108 9.19609C780.298 3.19863 788.085 0.199897 797.669 0.199897C801.063 0.199897 804.458 0.59974 807.652 1.3994C810.048 1.99915 813.043 3.19863 816.637 4.79796C820.231 6.5972 822.628 7.39687 824.025 7.39687C825.423 7.39687 826.421 6.99702 827.22 6.19736C828.018 5.3977 828.817 3.39854 829.416 0.199897H831.613V0Z" fill="#095BA6"/>
<path d="M307.687 151.336L308.086 167.529H306.688C306.089 163.531 304.292 160.132 301.697 157.733C298.901 155.334 296.106 154.135 292.911 154.135C290.515 154.135 288.519 154.734 287.121 156.134C285.723 157.333 284.924 158.933 284.924 160.532C284.924 161.532 285.124 162.531 285.723 163.331C286.322 164.53 287.52 165.53 289.118 166.729C290.316 167.529 292.911 168.929 296.904 170.928C302.495 173.727 306.289 176.325 308.285 178.724C310.282 181.123 311.28 184.122 311.28 187.321C311.28 191.319 309.683 194.918 306.489 197.716C303.294 200.715 299.301 202.115 294.509 202.115C292.911 202.115 291.514 201.915 290.116 201.715C288.718 201.315 287.121 200.915 284.924 199.915C283.727 199.516 282.928 199.116 282.129 199.116C281.53 199.116 280.931 199.316 280.133 199.915C279.534 200.315 278.935 201.115 278.535 202.115H277.138V183.922H278.535C279.534 189.12 281.53 192.918 284.525 195.717C287.52 198.516 290.715 199.716 294.109 199.716C296.705 199.716 298.901 198.916 300.499 197.516C302.096 196.117 302.894 194.318 302.894 192.519C302.894 191.319 302.495 190.32 301.896 189.12C301.297 188.12 300.299 187.121 299.101 186.121C297.903 185.122 295.707 183.922 292.512 182.323C288.119 180.124 284.924 178.325 282.928 176.725C280.931 175.126 279.534 173.527 278.535 171.527C277.537 169.728 276.938 167.529 276.938 165.33C276.938 161.532 278.336 158.133 281.131 155.534C283.926 152.735 287.52 151.536 291.913 151.536C293.51 151.536 294.908 151.736 296.505 152.136C297.703 152.336 298.901 152.935 300.499 153.735C302.096 154.535 303.294 154.934 303.893 154.934C304.492 154.934 305.091 154.735 305.29 154.335C305.69 153.935 305.889 153.135 306.289 151.536H307.687V151.336Z" fill="#095BA6"/>
<path d="M333.444 166.53C336.439 166.53 339.034 167.329 341.63 168.729C344.226 170.328 346.023 172.327 347.221 175.126C348.419 177.925 349.217 180.924 349.217 184.122C349.217 188.92 348.019 192.919 345.623 195.917C342.628 199.716 338.635 201.715 333.643 201.715C328.652 201.715 324.858 199.916 322.063 196.517C319.267 192.918 318.069 188.92 318.069 184.322C318.069 179.524 319.467 175.326 322.262 171.727C324.858 168.329 328.652 166.53 333.444 166.53ZM333.643 168.929C332.445 168.929 331.447 169.328 330.449 170.328C329.65 171.328 329.051 173.127 328.652 175.726C328.452 178.525 328.252 182.123 328.252 186.921C328.252 189.52 328.452 191.919 328.652 194.118C328.851 195.717 329.45 197.117 330.249 197.916C331.048 198.716 332.046 199.316 333.244 199.316C334.242 199.316 335.241 199.116 335.84 198.516C336.838 197.716 337.437 196.517 337.637 195.118C338.036 192.919 338.435 188.32 338.435 181.323C338.435 177.325 338.236 174.526 337.836 172.927C337.437 171.328 336.638 170.328 335.84 169.528C335.44 169.328 334.642 168.929 333.643 168.929Z" fill="#095BA6"/>
<path d="M370.182 170.928V194.118C370.182 196.317 370.382 197.716 370.981 198.316C371.78 199.116 373.177 199.516 375.174 199.516V200.715H355.407V199.516C357.004 199.516 358.003 199.316 358.602 198.916C359.201 198.516 359.6 198.116 359.999 197.517C360.199 196.917 360.399 195.717 360.399 193.918V170.728H355.407V167.129H360.199V164.73V163.131C360.199 159.732 361.397 156.934 363.993 154.535C366.588 152.336 369.983 151.136 374.176 151.136C377.171 151.136 379.367 151.736 380.765 152.735C382.162 153.735 382.961 155.134 382.961 156.334C382.961 157.334 382.562 158.333 381.563 159.133C380.765 159.932 379.567 160.332 377.969 160.332C376.771 160.332 375.773 159.932 374.974 159.333C374.176 158.733 373.976 157.933 373.976 157.134C373.976 156.934 373.976 156.534 374.176 155.734C374.176 155.334 374.375 154.934 374.375 154.535C374.375 153.935 374.176 153.735 373.976 153.335C373.577 152.935 373.177 152.735 372.578 152.735C371.979 152.735 371.38 152.935 370.781 153.535C370.382 154.135 370.182 154.935 370.182 156.334V162.531V166.73H375.174V170.328H370.182V170.928Z" fill="#095BA6"/>
<path d="M394.342 155.334V167.529H402.329V171.128H394.342V191.719C394.342 193.718 394.342 194.917 394.542 195.517C394.741 196.117 394.941 196.517 395.54 196.917C395.939 197.317 396.339 197.516 396.738 197.516C398.335 197.516 399.733 196.317 401.131 193.918L402.129 194.718C400.132 199.316 397.137 201.515 392.745 201.515C390.548 201.515 388.751 200.915 387.354 199.715C385.956 198.516 384.958 197.316 384.558 195.717C384.359 194.918 384.159 192.718 384.159 189.12V171.128H379.766V169.928C382.761 167.729 385.357 165.53 387.354 163.331C389.55 160.932 391.347 158.333 392.944 155.534H394.342V155.334Z" fill="#095BA6"/>
<path d="M439.666 201.915L430.482 177.325L421.497 201.915H419.7L410.914 177.725C409.517 174.127 408.518 171.728 407.52 170.528C406.921 169.728 405.923 169.129 404.725 168.929V167.529H421.497V168.929C420.299 168.929 419.5 169.129 419.101 169.528C418.701 169.928 418.502 170.328 418.502 170.728C418.502 171.128 418.901 172.327 419.7 174.326L424.492 187.321L429.284 174.326L428.884 173.527C428.086 171.728 427.487 170.528 427.087 170.128C426.488 169.728 425.69 169.329 424.691 169.129V167.729H441.863V169.129C440.465 169.129 439.666 169.329 439.267 169.728C438.868 169.928 438.668 170.528 438.668 170.928C438.668 171.528 439.067 172.527 439.666 174.326L444.458 187.321L448.651 175.326C449.25 173.527 449.65 172.527 449.65 171.728C449.65 170.728 449.45 170.128 449.051 169.728C448.651 169.329 447.653 169.129 446.455 168.929V167.529H456.239V168.929C455.24 169.129 454.242 169.528 453.643 170.128C453.044 170.728 452.245 172.527 451.047 175.526L441.663 202.115H439.666V201.915Z" fill="#095BA6"/>
<path d="M479.001 195.917C475.007 199.516 471.214 201.315 468.019 201.315C466.022 201.315 464.625 200.715 463.227 199.516C462.029 198.316 461.43 196.717 461.43 194.918C461.43 192.319 462.428 190.12 464.625 188.12C466.821 186.121 471.613 183.323 479.001 179.924V176.525C479.001 173.926 478.801 172.327 478.601 171.727C478.402 171.128 477.803 170.528 477.004 169.928C476.205 169.528 475.407 169.128 474.408 169.128C472.811 169.128 471.613 169.528 470.615 170.128C470.016 170.528 469.616 171.128 469.616 171.527C469.616 171.927 470.016 172.727 470.615 173.327C471.613 174.326 472.012 175.326 472.012 176.325C472.012 177.525 471.613 178.525 470.615 179.324C469.616 180.124 468.618 180.524 467.22 180.524C465.623 180.524 464.425 180.124 463.427 179.124C462.428 178.125 461.829 177.125 461.829 175.926C461.829 174.126 462.428 172.527 463.826 170.928C465.224 169.328 467.021 168.129 469.417 167.329C471.813 166.53 474.408 166.13 477.004 166.13C480.199 166.13 482.595 166.73 484.591 168.129C486.388 169.528 487.586 170.928 488.185 172.527C488.585 173.527 488.784 175.726 488.784 179.324V192.319C488.784 193.918 488.784 194.718 488.984 195.118C489.184 195.517 489.184 195.717 489.583 195.917C489.783 196.117 490.182 196.117 490.382 196.117C490.981 196.117 491.58 195.717 492.179 194.718L493.177 195.517C491.979 197.317 490.781 198.516 489.583 199.316C488.385 200.115 486.788 200.515 485.19 200.515C483.194 200.515 481.796 200.115 480.798 199.116C479.999 199.116 479.4 197.716 479.001 195.917ZM479.001 193.318V182.123C476.205 183.722 474.009 185.721 472.611 187.521C471.613 188.72 471.214 190.12 471.214 191.319C471.214 192.319 471.613 193.318 472.412 194.118C473.011 194.718 473.809 195.118 475.007 195.118C476.205 195.317 477.603 194.718 479.001 193.318Z" fill="#095BA6"/>
<path d="M512.345 167.529V175.126C514.541 171.727 516.538 169.328 518.135 168.329C519.733 167.129 521.33 166.729 522.927 166.729C524.325 166.729 525.323 167.129 526.122 167.929C526.921 168.729 527.32 169.928 527.32 171.328C527.32 172.927 526.921 174.126 526.122 175.126C525.323 175.926 524.325 176.525 523.327 176.525C522.129 176.525 520.931 176.126 520.132 175.326C519.134 174.526 518.734 174.126 518.535 173.926C518.335 173.727 517.936 173.727 517.736 173.727C517.137 173.727 516.338 173.926 515.739 174.526C514.741 175.326 513.942 176.525 513.543 177.925C512.744 180.324 512.345 182.723 512.345 185.522V193.118V195.118C512.345 196.517 512.345 197.317 512.545 197.716C512.744 198.316 513.343 198.916 513.743 199.116C514.342 199.316 515.34 199.516 516.538 199.716V200.915H498.568V199.716C499.966 199.516 500.964 199.116 501.563 198.516C502.162 197.916 502.362 196.117 502.362 193.118V174.726C502.362 172.727 502.362 171.527 502.162 171.128C501.962 170.528 501.563 169.928 501.164 169.728C500.764 169.328 499.966 169.128 498.768 169.128V167.729H512.345V167.529Z" fill="#095BA6"/>
<path d="M559.067 182.923H540.697C540.897 187.321 542.095 190.919 544.292 193.518C545.889 195.517 547.886 196.517 550.282 196.517C551.679 196.517 553.077 196.117 554.075 195.317C555.273 194.518 556.471 193.118 557.869 190.919L559.067 191.719C557.27 195.317 555.273 198.116 553.077 199.516C550.881 201.115 548.285 201.915 545.49 201.915C540.498 201.915 536.704 199.916 534.308 196.117C532.312 193.118 531.313 189.32 531.313 184.722C531.313 179.124 532.91 174.726 535.905 171.328C538.9 168.129 542.495 166.33 546.488 166.33C549.882 166.33 552.877 167.729 555.273 170.528C557.47 173.327 558.867 177.525 559.067 182.923ZM550.282 180.524C550.282 176.725 550.082 174.126 549.683 172.727C549.283 171.328 548.684 170.128 547.686 169.528C547.087 169.129 546.488 168.929 545.689 168.929C544.491 168.929 543.493 169.528 542.694 170.728C541.296 172.927 540.498 175.726 540.498 179.524V180.724H550.282V180.524Z" fill="#095BA6"/>
<path d="M615.772 151.336L616.172 167.529H614.774C614.175 163.531 612.378 160.132 609.782 157.733C606.987 155.334 604.192 154.135 600.997 154.135C598.601 154.135 596.604 154.734 595.207 156.134C593.809 157.333 593.01 158.933 593.01 160.532C593.01 161.532 593.21 162.531 593.809 163.331C594.408 164.53 595.606 165.53 597.203 166.729C598.401 167.529 600.997 168.929 604.99 170.928C610.581 173.727 614.375 176.325 616.372 178.724C618.368 181.123 619.367 184.122 619.367 187.321C619.367 191.319 617.769 194.918 614.574 197.716C611.38 200.715 607.386 202.115 602.594 202.115C600.997 202.115 599.599 201.915 598.202 201.715C596.804 201.315 595.207 200.915 593.01 199.915C591.812 199.516 591.014 199.116 590.215 199.116C589.616 199.116 589.017 199.316 588.218 199.915C587.619 200.315 587.02 201.115 586.621 202.115H585.223V183.922H586.621C587.619 189.12 589.616 192.918 592.611 195.717C595.606 198.516 598.801 199.716 602.195 199.716C604.791 199.716 606.987 198.916 608.584 197.516C610.182 196.117 610.98 194.318 610.98 192.519C610.98 191.319 610.581 190.32 609.982 189.12C609.383 188.12 608.385 187.121 607.187 186.121C605.989 185.122 603.792 183.922 600.598 182.323C596.205 180.124 593.01 178.325 591.014 176.725C589.017 175.126 587.619 173.527 586.621 171.527C585.623 169.528 585.024 167.529 585.024 165.33C585.024 161.532 586.421 158.133 589.217 155.534C592.012 152.735 595.606 151.536 599.999 151.536C601.596 151.536 602.994 151.736 604.591 152.136C605.789 152.336 606.987 152.935 608.584 153.735C610.182 154.535 611.38 154.934 611.979 154.934C612.578 154.934 613.177 154.735 613.377 154.335C613.776 153.935 613.976 153.135 614.375 151.536H615.772V151.336Z" fill="#095BA6"/>
<path d="M641.13 202.115L630.348 177.325C628.751 173.527 627.553 171.328 626.754 170.528C625.955 169.728 624.957 169.129 623.959 168.729V167.329H641.729V168.729C640.531 168.729 639.732 168.929 639.333 169.328C638.934 169.728 638.534 170.128 638.534 170.728C638.534 171.727 639.133 173.327 640.331 176.126L646.122 189.12L649.915 178.924C651.313 175.326 652.112 172.927 652.112 171.328C652.112 170.528 651.912 169.728 651.313 169.128C650.714 168.529 649.716 168.329 648.318 168.329V166.929H659.499V168.329C658.501 168.529 657.503 168.929 656.904 169.528C656.305 170.328 655.107 172.727 653.509 176.925L643.925 201.715C641.529 207.912 639.732 211.711 638.534 213.11C636.937 215.109 634.741 216.109 632.345 216.109C630.348 216.109 628.751 215.509 627.553 214.509C626.355 213.31 625.756 212.11 625.756 210.511C625.756 209.112 626.155 207.912 626.954 207.112C627.752 206.313 628.751 205.713 630.148 205.713C631.346 205.713 632.345 206.113 632.944 206.913C633.742 207.712 634.142 208.912 634.142 210.511C634.142 211.511 634.341 211.91 634.541 212.31C634.741 212.51 634.94 212.71 635.34 212.71C635.939 212.71 636.538 212.31 637.137 211.71C638.135 210.711 639.133 208.512 640.531 204.913L641.13 202.115Z" fill="#095BA6"/>
<path d="M684.657 166.53L685.256 177.925H684.058C682.661 174.526 681.063 172.327 679.466 170.928C677.869 169.728 676.271 169.129 674.874 169.129C673.875 169.129 673.077 169.528 672.278 170.128C671.679 170.728 671.28 171.528 671.28 172.327C671.28 172.927 671.479 173.527 672.078 174.126C672.877 175.126 674.874 176.725 678.468 179.124C682.062 181.523 684.258 183.522 685.456 185.122C686.654 186.721 687.053 188.72 687.053 190.719C687.053 192.519 686.654 194.318 685.656 196.117C684.657 197.916 683.459 199.316 681.662 200.315C680.065 201.315 678.068 201.715 676.072 201.715C674.474 201.715 672.278 201.315 669.682 200.315C668.884 200.115 668.484 199.916 668.285 199.916C667.486 199.916 666.887 200.515 666.288 201.715H665.09L664.491 189.72H665.689C666.687 192.918 668.285 195.317 670.082 196.717C671.879 198.316 673.676 199.116 675.473 199.116C676.671 199.116 677.469 198.716 678.268 198.116C679.067 197.317 679.266 196.517 679.266 195.517C679.266 194.318 678.867 193.318 678.268 192.519C677.469 191.719 675.872 190.519 673.476 188.72C669.882 186.121 667.486 184.322 666.488 182.923C664.89 180.924 664.092 178.724 664.092 176.525C664.092 173.926 664.89 171.527 666.687 169.528C668.484 167.529 671.08 166.33 674.275 166.33C676.072 166.33 677.869 166.73 679.466 167.729C680.065 168.129 680.664 168.329 681.063 168.329C681.463 168.329 681.862 168.329 682.062 168.129C682.261 167.929 682.661 167.529 683.26 166.53H684.657Z" fill="#095BA6"/>
<path d="M706.421 155.334V167.529H714.408V171.128H706.421V191.719C706.421 193.718 706.421 194.917 706.621 195.517C706.821 196.117 707.02 196.517 707.619 196.917C708.019 197.317 708.418 197.516 708.817 197.516C710.415 197.516 711.812 196.317 713.21 193.918L714.208 194.718C712.212 199.316 709.217 201.515 704.824 201.515C702.628 201.515 700.831 200.915 699.433 199.715C698.035 198.516 697.037 197.316 696.638 195.717C696.438 194.918 696.238 192.718 696.238 189.12V171.128H691.846V169.928C694.841 167.729 697.436 165.53 699.433 163.331C701.629 160.932 703.426 158.333 705.024 155.534H706.421V155.334Z" fill="#095BA6"/>
<path d="M747.153 182.923H728.784C728.984 187.321 730.182 190.919 732.378 193.518C733.975 195.517 735.972 196.517 738.368 196.517C739.766 196.517 741.163 196.117 742.162 195.317C743.36 194.518 744.558 193.118 745.955 190.919L747.153 191.719C745.356 195.317 743.36 198.116 741.163 199.516C738.967 201.115 736.371 201.915 733.576 201.915C728.584 201.915 724.791 199.916 722.395 196.117C720.398 193.118 719.4 189.32 719.4 184.722C719.4 179.124 720.997 174.726 723.992 171.328C726.987 168.129 730.581 166.33 734.574 166.33C737.969 166.33 740.964 167.729 743.36 170.528C745.556 173.327 746.954 177.525 747.153 182.923ZM738.368 180.524C738.368 176.725 738.168 174.126 737.769 172.727C737.37 171.328 736.771 170.128 735.772 169.528C735.173 169.129 734.574 168.929 733.776 168.929C732.578 168.929 731.579 169.528 730.781 170.728C729.383 172.927 728.584 175.726 728.584 179.524V180.724H738.368V180.524Z" fill="#095BA6"/>
<path d="M766.321 167.529V171.927C768.118 169.928 769.915 168.529 771.313 167.729C772.91 166.93 774.508 166.53 776.504 166.53C778.701 166.53 780.498 167.129 781.895 167.929C783.293 168.929 784.491 170.528 785.29 172.527C787.286 170.328 789.083 168.929 790.681 167.929C792.478 166.93 794.275 166.53 796.072 166.53C798.468 166.53 800.265 167.129 801.662 168.129C803.06 169.129 804.058 170.528 804.458 172.127C805.057 173.727 805.256 176.326 805.256 179.924V193.518C805.256 196.117 805.456 197.716 805.855 198.316C806.255 198.916 807.253 199.316 808.85 199.516V200.715H791.679V199.516C793.077 199.316 794.075 198.916 794.674 197.916C795.073 197.317 795.273 195.717 795.273 193.518V179.124C795.273 176.126 795.073 174.326 794.874 173.527C794.674 172.727 794.275 172.127 793.676 171.727C793.077 171.328 792.478 171.128 791.879 171.128C790.88 171.128 789.882 171.528 788.684 172.327C787.686 173.127 786.488 174.126 785.489 175.726V193.718C785.489 196.117 785.689 197.716 786.088 198.316C786.687 199.116 787.686 199.716 789.283 199.716V200.915H772.112V199.716C773.11 199.716 773.709 199.516 774.308 199.116C774.907 198.716 775.107 198.116 775.306 197.517C775.506 196.917 775.506 195.717 775.506 193.718V179.324C775.506 176.326 775.306 174.326 775.107 173.727C774.907 172.927 774.508 172.327 773.909 171.927C773.31 171.528 772.711 171.328 772.112 171.328C771.113 171.328 770.315 171.528 769.516 172.127C768.318 172.927 767.12 174.126 765.922 175.926V193.918C765.922 196.317 766.122 197.916 766.521 198.516C766.92 199.316 767.919 199.716 769.516 199.916V201.115H752.744V199.916C754.142 199.716 755.14 199.316 755.739 198.516C756.138 197.916 756.338 196.517 756.338 193.918V174.726C756.338 172.127 756.138 170.728 755.739 169.928C755.34 169.328 754.341 168.929 752.744 168.729V167.329H766.321V167.529Z" fill="#095BA6"/>
<path d="M835.605 166.53L836.204 177.925H835.006C833.609 174.526 832.011 172.327 830.414 170.928C828.817 169.728 827.22 169.129 825.822 169.129C824.824 169.129 824.025 169.528 823.226 170.128C822.627 170.728 822.228 171.528 822.228 172.327C822.228 172.927 822.428 173.527 823.027 174.126C823.825 175.126 825.822 176.725 829.416 179.124C833.01 181.523 835.206 183.522 836.404 185.122C837.602 186.721 838.001 188.72 838.001 190.719C838.001 192.519 837.602 194.318 836.604 196.117C835.605 197.916 834.407 199.316 832.61 200.315C831.013 201.315 829.017 201.715 827.02 201.715C825.423 201.715 823.226 201.315 820.631 200.315C819.832 200.115 819.433 199.916 819.233 199.916C818.434 199.916 817.835 200.515 817.236 201.715H816.038L815.439 189.72H816.637C817.636 192.918 819.233 195.317 821.03 196.717C822.827 198.316 824.624 199.116 826.421 199.116C827.619 199.116 828.417 198.716 829.216 198.116C830.015 197.317 830.214 196.517 830.214 195.517C830.214 194.318 829.815 193.318 829.216 192.519C828.417 191.719 826.82 190.519 824.424 188.72C820.83 186.121 818.434 184.322 817.436 182.923C815.839 180.924 815.04 178.724 815.04 176.525C815.04 173.926 815.839 171.527 817.636 169.528C819.433 167.529 822.028 166.33 825.223 166.33C827.02 166.33 828.817 166.73 830.414 167.729C831.013 168.129 831.612 168.329 832.011 168.329C832.411 168.329 832.81 168.329 833.01 168.129C833.209 167.929 833.609 167.529 834.208 166.53H835.605Z" fill="#095BA6"/>
<path d="M69.2843 84.9642C84.8583 84.9642 136.971 84.9642 161.93 84.9642C191.281 84.9642 209.251 65.5723 215.44 55.5766L245.191 3.59852V2.39905H117.204L69.2843 84.9642Z" fill="#095BA6"/>
<path d="M30.7486 151.336L0.79855 202.914H130.981L177.703 121.349C164.725 121.349 108.818 121.349 87.2543 121.349C62.6953 121.349 42.7286 131.145 30.7486 151.336Z" fill="#095BA6"/>
<path d="M184.093 202.914H245.191V97.9587L184.093 202.914Z" fill="#095BA6"/>
<path d="M69.2844 2.59888H0V123.348L69.2844 2.59888Z" fill="#095BA6"/>
</svg>
