<svg width="840" height="217" viewBox="0 0 840 217" fill="none" xmlns="http://www.w3.org/2000/svg">
<path d="M318.469 58.5529V91.5389C318.469 96.9367 318.868 100.335 319.467 101.735C320.066 103.134 321.264 104.334 323.061 105.333C324.858 106.333 327.254 106.932 330.249 106.932H333.843V109.931H278.136V106.932H281.73C284.725 106.932 287.321 106.333 289.118 105.333C290.515 104.533 291.514 103.334 292.312 101.535C292.911 100.335 293.111 96.9367 293.111 91.5389V21.3686C293.111 15.9708 292.911 12.5723 292.312 11.1729C291.713 9.77346 290.515 8.57396 288.918 7.57438C287.121 6.57481 284.725 5.97505 281.73 5.97505H278.136V2.97632H333.444V5.97505H329.85C326.855 5.97505 324.259 6.57481 322.462 7.57438C321.064 8.37405 320.066 9.57353 319.267 11.3728C318.668 12.5723 318.469 15.9708 318.469 21.3686V51.5558H356.006V21.3686C356.006 15.9708 355.806 12.5723 355.207 11.1729C354.608 9.77346 353.41 8.57396 351.613 7.57438C349.816 6.57481 347.42 5.97505 344.425 5.97505H341.031V2.97632H396.538V5.97505H393.144C389.949 5.97505 387.553 6.57481 385.756 7.57438C384.359 8.37405 383.36 9.57353 382.562 11.3728C381.963 12.5723 381.763 15.9708 381.763 21.3686V91.5389C381.763 96.9367 381.963 100.335 382.562 101.735C383.161 103.134 384.359 104.334 386.156 105.333C387.953 106.333 390.349 106.932 393.344 106.932H396.738V109.931H341.231V106.932H344.625C347.82 106.932 350.216 106.333 352.013 105.333C353.41 104.533 354.409 103.334 355.207 101.535C355.806 100.335 356.006 96.9367 356.006 91.5389V58.5529H318.469Z" fill="white"/>
<path d="M474.408 79.344H436.871L432.478 89.7397C431.081 93.1382 430.282 96.137 430.282 98.336C430.282 101.335 431.48 103.534 433.876 104.933C435.274 105.733 438.668 106.333 444.259 106.732V109.731H408.918V106.732C412.711 106.133 415.906 104.533 418.302 101.935C420.698 99.3356 423.893 93.9379 427.487 85.9413L465.623 0.977173H467.021L505.357 88.3402C508.951 96.5368 511.946 101.735 514.342 103.934C516.139 105.533 518.535 106.533 521.929 106.732V109.731H470.415V106.732H472.611C476.804 106.732 479.6 106.133 481.397 104.933C482.595 104.134 483.194 102.934 483.194 101.335C483.194 100.335 482.994 99.3356 482.794 98.336C482.595 97.9362 481.996 95.937 480.398 92.5385L474.408 79.344ZM471.613 73.5465L455.839 36.7621L439.467 73.5465H471.613Z" fill="white"/>
<path d="M630.947 3.17625V6.17498C627.353 6.57481 624.758 7.57439 622.961 9.17372C620.365 11.3728 616.172 17.3703 610.581 27.1661L587.42 65.7498V91.5389C587.42 97.1366 587.62 100.535 588.219 101.735C588.818 103.134 590.016 104.334 591.613 105.333C593.41 106.333 595.606 106.932 598.402 106.932H604.392V109.931H544.691V106.932H550.282C553.477 106.932 555.873 106.333 557.67 105.333C559.067 104.533 560.066 103.334 560.864 101.535C561.463 100.335 561.663 96.9367 561.663 91.5389V70.148L536.705 24.5672C531.713 15.571 528.319 10.1733 526.122 8.57396C524.126 6.97464 521.33 6.17498 517.936 6.17498V3.17625H568.851V6.17498H566.655C563.66 6.17498 561.463 6.57481 560.265 7.57438C559.067 8.37405 558.468 9.37361 558.468 10.3732C558.468 12.1724 560.465 16.9704 564.658 24.5672L583.826 59.7524L602.994 27.5659C607.786 19.7692 610.182 14.5714 610.182 11.9725C610.182 10.5731 609.583 9.37361 608.185 8.37403C606.388 6.97463 603.194 6.37488 598.402 5.97505V2.97632H630.947V3.17625Z" fill="white"/>
<path d="M684.658 9.37368V52.7554H686.854C693.643 52.7554 698.435 50.5563 701.43 46.3581C704.425 42.1598 706.421 35.7626 707.22 27.566H710.215V83.3424H707.22C706.621 77.345 705.223 72.3471 703.227 68.3488C701.23 64.5504 698.834 61.9515 696.238 60.5521C693.643 59.1527 689.649 58.5529 684.658 58.5529V88.5403C684.658 94.3378 684.857 97.9363 685.456 99.3357C685.856 100.735 686.854 101.735 688.252 102.534C689.649 103.334 691.846 103.734 694.841 103.734H701.23C711.213 103.734 719.2 101.335 725.19 96.7368C731.18 92.1388 735.573 85.1417 738.168 75.7457H741.163L736.371 109.531H644.325V106.533H647.919C650.914 106.533 653.51 105.933 655.307 104.933C656.704 104.134 657.703 102.934 658.501 101.135C659.1 99.9355 659.3 96.5369 659.3 91.1392V20.9688C659.3 16.1708 659.1 13.1721 658.901 12.1725C658.302 10.3733 657.503 8.97385 655.906 7.97428C653.909 6.57487 651.114 5.77522 647.719 5.77522H644.125V2.77649H733.177V34.3631H730.182C728.584 26.5664 726.588 21.1687 723.792 17.7702C720.997 14.3716 717.203 11.9726 712.212 10.3733C709.217 9.37368 703.826 8.97385 695.639 8.97385H684.658V9.37368Z" fill="white"/>
<path d="M831.613 0.777344L832.411 36.3623H829.217C827.619 27.3661 824.025 20.369 818.035 14.9713C812.045 9.5736 805.656 6.77481 798.867 6.77481C793.476 6.77481 789.283 8.1742 786.288 10.973C783.093 13.7718 781.696 17.1704 781.696 20.7689C781.696 23.1679 782.295 25.167 783.293 26.9662C784.89 29.3652 787.286 31.7642 790.681 34.3631C793.077 36.1624 798.867 39.1611 807.653 43.5592C820.032 49.7566 828.418 55.5542 832.811 60.9519C837.004 66.3496 839.2 72.547 839.2 79.7439C839.2 88.7401 835.806 96.3369 828.817 102.734C821.829 109.132 813.044 112.33 802.461 112.33C799.067 112.33 795.872 111.93 792.877 111.331C789.882 110.731 786.088 109.331 781.696 107.532C779.1 106.533 777.103 105.933 775.506 105.933C774.108 105.933 772.711 106.533 771.113 107.532C769.516 108.532 768.318 110.131 767.519 112.33H764.524V72.1471H767.519C769.915 83.5423 774.308 92.1387 780.897 97.9362C787.486 103.934 794.475 106.932 802.062 106.932C807.852 106.932 812.644 105.333 816.039 102.134C819.433 98.9358 821.23 95.1374 821.23 90.9392C821.23 88.3403 820.631 85.9413 819.233 83.5423C817.835 81.1433 815.839 78.9443 813.243 76.7452C810.448 74.5461 805.656 71.9472 798.867 68.5487C789.283 63.7507 782.295 59.7524 777.902 56.3538C773.709 52.9552 770.315 49.3568 768.118 45.1586C765.922 40.9603 764.724 36.5622 764.724 31.5643C764.724 23.1679 767.919 15.771 774.108 9.97344C780.298 3.97597 788.085 0.977241 797.669 0.977241C801.064 0.977241 804.458 1.37708 807.653 2.17675C810.049 2.77649 813.044 3.97598 816.638 5.5753C820.232 7.37454 822.628 8.17421 824.025 8.17421C825.423 8.17421 826.421 7.77437 827.22 6.9747C828.019 6.17504 828.817 4.17589 829.416 0.977241H831.613V0.777344Z" fill="white"/>
<path d="M307.687 152.113L308.086 168.306H306.688C306.089 164.308 304.292 160.91 301.697 158.511C298.901 156.112 296.106 154.912 292.911 154.912C290.515 154.912 288.519 155.512 287.121 156.911C285.723 158.111 284.925 159.71 284.925 161.309C284.925 162.309 285.124 163.309 285.723 164.108C286.322 165.308 287.52 166.307 289.118 167.507C290.316 168.306 292.911 169.706 296.905 171.705C302.495 174.504 306.289 177.103 308.286 179.502C310.282 181.901 311.281 184.899 311.281 188.098C311.281 192.096 309.683 195.695 306.489 198.494C303.294 201.492 299.301 202.892 294.509 202.892C292.911 202.892 291.514 202.692 290.116 202.492C288.718 202.092 287.121 201.692 284.925 200.693C283.727 200.293 282.928 199.893 282.129 199.893C281.53 199.893 280.931 200.093 280.133 200.693C279.534 201.093 278.935 201.892 278.535 202.892H277.138V184.7H278.535C279.534 189.897 281.53 193.696 284.525 196.495C287.52 199.293 290.715 200.493 294.109 200.493C296.705 200.493 298.901 199.693 300.499 198.294C302.096 196.894 302.895 195.095 302.895 193.296C302.895 192.096 302.495 191.097 301.896 189.897C301.297 188.898 300.299 187.898 299.101 186.899C297.903 185.899 295.707 184.7 292.512 183.1C288.119 180.901 284.925 179.102 282.928 177.503C280.931 175.903 279.534 174.304 278.535 172.305C277.537 170.506 276.938 168.306 276.938 166.107C276.938 162.309 278.336 158.91 281.131 156.311C283.926 153.513 287.52 152.313 291.913 152.313C293.51 152.313 294.908 152.513 296.505 152.913C297.703 153.113 298.901 153.713 300.499 154.512C302.096 155.312 303.294 155.712 303.893 155.712C304.492 155.712 305.091 155.512 305.291 155.112C305.69 154.712 305.89 153.913 306.289 152.313H307.687V152.113Z" fill="white"/>
<path d="M333.444 167.307C336.439 167.307 339.034 168.107 341.63 169.506C344.226 171.105 346.023 173.105 347.221 175.903C348.419 178.702 349.217 181.701 349.217 184.9C349.217 189.698 348.019 193.696 345.623 196.695C342.628 200.493 338.635 202.492 333.643 202.492C328.652 202.492 324.858 200.693 322.063 197.294C319.267 193.696 318.069 189.698 318.069 185.099C318.069 180.302 319.467 176.103 322.262 172.505C324.858 169.106 328.652 167.307 333.444 167.307ZM333.643 169.706C332.445 169.706 331.447 170.106 330.449 171.105C329.65 172.105 329.051 173.904 328.652 176.503C328.452 179.302 328.252 182.9 328.252 187.698C328.252 190.297 328.452 192.696 328.652 194.895C328.851 196.495 329.45 197.894 330.249 198.694C331.048 199.493 332.046 200.093 333.244 200.093C334.242 200.093 335.241 199.893 335.84 199.293C336.838 198.494 337.437 197.294 337.637 195.895C338.036 193.696 338.435 189.098 338.435 182.101C338.435 178.102 338.236 175.304 337.836 173.704C337.437 172.105 336.638 171.105 335.84 170.306C335.44 170.106 334.642 169.706 333.643 169.706Z" fill="white"/>
<path d="M370.182 171.705V194.895C370.182 197.094 370.382 198.494 370.981 199.094C371.78 199.893 373.177 200.293 375.174 200.293V201.493H355.407V200.293C357.004 200.293 358.003 200.093 358.602 199.693C359.201 199.293 359.6 198.894 359.999 198.294C360.199 197.694 360.399 196.495 360.399 194.695V171.505H355.407V167.907H360.199V165.508V163.908C360.199 160.51 361.397 157.711 363.993 155.312C366.588 153.113 369.983 151.913 374.176 151.913C377.171 151.913 379.367 152.513 380.765 153.513C382.162 154.512 382.961 155.912 382.961 157.111C382.961 158.111 382.562 159.11 381.563 159.91C380.765 160.71 379.567 161.11 377.969 161.11C376.771 161.11 375.773 160.71 374.974 160.11C374.176 159.51 373.976 158.711 373.976 157.911C373.976 157.711 373.976 157.311 374.176 156.512C374.176 156.112 374.375 155.712 374.375 155.312C374.375 154.712 374.176 154.512 373.976 154.113C373.577 153.713 373.177 153.513 372.578 153.513C371.979 153.513 371.38 153.713 370.781 154.312C370.382 154.912 370.182 155.712 370.182 157.111V163.309V167.507H375.174V171.105H370.182V171.705Z" fill="white"/>
<path d="M394.342 156.112V168.306H402.329V171.905H394.342V192.496C394.342 194.495 394.342 195.695 394.542 196.295C394.741 196.894 394.941 197.294 395.54 197.694C395.939 198.094 396.339 198.294 396.738 198.294C398.335 198.294 399.733 197.094 401.131 194.695L402.129 195.495C400.132 200.093 397.137 202.292 392.745 202.292C390.548 202.292 388.751 201.692 387.354 200.493C385.956 199.293 384.958 198.094 384.558 196.495C384.359 195.695 384.159 193.496 384.159 189.897V171.905H379.766V170.705C382.761 168.506 385.357 166.307 387.354 164.108C389.55 161.709 391.347 159.11 392.944 156.311H394.342V156.112Z" fill="white"/>
<path d="M439.666 202.692L430.482 178.103L421.497 202.692H419.7L410.914 178.502C409.517 174.904 408.518 172.505 407.52 171.305C406.921 170.506 405.923 169.906 404.725 169.706V168.307H421.497V169.706C420.299 169.706 419.5 169.906 419.101 170.306C418.701 170.706 418.502 171.105 418.502 171.505C418.502 171.905 418.901 173.105 419.7 175.104L424.492 188.098L429.284 175.104L428.884 174.304C428.086 172.505 427.487 171.305 427.087 170.906C426.488 170.506 425.69 170.106 424.691 169.906V168.507H441.863V169.906C440.465 169.906 439.666 170.106 439.267 170.506C438.868 170.706 438.668 171.305 438.668 171.705C438.668 172.305 439.067 173.305 439.666 175.104L444.458 188.098L448.651 176.103C449.25 174.304 449.65 173.305 449.65 172.505C449.65 171.505 449.45 170.906 449.051 170.506C448.651 170.106 447.653 169.906 446.455 169.706V168.307H456.239V169.706C455.24 169.906 454.242 170.306 453.643 170.906C453.044 171.505 452.245 173.305 451.047 176.303L441.663 202.892H439.666V202.692Z" fill="white"/>
<path d="M479.001 196.695C475.007 200.293 471.214 202.092 468.019 202.092C466.022 202.092 464.625 201.492 463.227 200.293C462.029 199.094 461.43 197.494 461.43 195.695C461.43 193.096 462.428 190.897 464.625 188.898C466.821 186.899 471.613 184.1 479.001 180.701V177.303C479.001 174.704 478.801 173.104 478.601 172.505C478.402 171.905 477.803 171.305 477.004 170.706C476.205 170.306 475.407 169.906 474.408 169.906C472.811 169.906 471.613 170.306 470.615 170.905C470.016 171.305 469.616 171.905 469.616 172.305C469.616 172.705 470.016 173.504 470.615 174.104C471.613 175.104 472.012 176.103 472.012 177.103C472.012 178.302 471.613 179.302 470.615 180.102C469.616 180.901 468.618 181.301 467.22 181.301C465.623 181.301 464.425 180.901 463.427 179.902C462.428 178.902 461.829 177.902 461.829 176.703C461.829 174.904 462.428 173.304 463.826 171.705C465.224 170.106 467.021 168.906 469.417 168.107C471.813 167.307 474.408 166.907 477.004 166.907C480.199 166.907 482.595 167.507 484.591 168.906C486.388 170.306 487.586 171.705 488.185 173.304C488.585 174.304 488.784 176.503 488.784 180.102V193.096C488.784 194.695 488.784 195.495 488.984 195.895C489.184 196.295 489.184 196.495 489.583 196.695C489.783 196.894 490.182 196.894 490.382 196.894C490.981 196.894 491.58 196.495 492.179 195.495L493.177 196.295C491.979 198.094 490.781 199.293 489.583 200.093C488.385 200.893 486.788 201.293 485.19 201.293C483.194 201.293 481.796 200.893 480.798 199.893C479.999 199.893 479.4 198.494 479.001 196.695ZM479.001 194.096V182.9C476.205 184.5 474.009 186.499 472.611 188.298C471.613 189.498 471.214 190.897 471.214 192.096C471.214 193.096 471.613 194.096 472.412 194.895C473.011 195.495 473.809 195.895 475.007 195.895C476.205 196.095 477.603 195.495 479.001 194.096Z" fill="white"/>
<path d="M512.345 168.306V175.903C514.541 172.505 516.538 170.106 518.135 169.106C519.733 167.907 521.33 167.507 522.927 167.507C524.325 167.507 525.323 167.907 526.122 168.706C526.921 169.506 527.32 170.705 527.32 172.105C527.32 173.704 526.921 174.904 526.122 175.903C525.323 176.703 524.325 177.303 523.327 177.303C522.129 177.303 520.931 176.903 520.132 176.103C519.134 175.304 518.734 174.904 518.535 174.704C518.335 174.504 517.936 174.504 517.736 174.504C517.137 174.504 516.338 174.704 515.739 175.304C514.741 176.103 513.942 177.303 513.543 178.702C512.744 181.101 512.345 183.5 512.345 186.299V193.896V195.895C512.345 197.294 512.345 198.094 512.545 198.494C512.744 199.094 513.343 199.693 513.743 199.893C514.342 200.093 515.34 200.293 516.538 200.493V201.692H498.568V200.493C499.966 200.293 500.964 199.893 501.563 199.293C502.162 198.694 502.362 196.894 502.362 193.896V175.503C502.362 173.504 502.362 172.305 502.162 171.905C501.962 171.305 501.563 170.705 501.164 170.506C500.764 170.106 499.966 169.906 498.768 169.906V168.506H512.345V168.306Z" fill="white"/>
<path d="M559.067 183.7H540.698C540.897 188.098 542.095 191.697 544.292 194.296C545.889 196.295 547.886 197.294 550.282 197.294C551.679 197.294 553.077 196.894 554.075 196.095C555.273 195.295 556.471 193.896 557.869 191.697L559.067 192.496C557.27 196.095 555.273 198.894 553.077 200.293C550.881 201.892 548.285 202.692 545.49 202.692C540.498 202.692 536.704 200.693 534.308 196.894C532.312 193.896 531.313 190.097 531.313 185.499C531.313 179.902 532.911 175.504 535.906 172.105C538.901 168.906 542.495 167.107 546.488 167.107C549.882 167.107 552.877 168.506 555.273 171.305C557.47 174.104 558.867 178.302 559.067 183.7ZM550.282 181.301C550.282 177.503 550.082 174.904 549.683 173.504C549.283 172.105 548.684 170.905 547.686 170.306C547.087 169.906 546.488 169.706 545.689 169.706C544.491 169.706 543.493 170.306 542.694 171.505C541.297 173.704 540.498 176.503 540.498 180.301V181.501H550.282V181.301Z" fill="white"/>
<path d="M615.773 152.113L616.172 168.306H614.774C614.175 164.308 612.378 160.91 609.782 158.511C606.987 156.112 604.192 154.912 600.997 154.912C598.601 154.912 596.604 155.512 595.207 156.911C593.809 158.111 593.01 159.71 593.01 161.309C593.01 162.309 593.21 163.309 593.809 164.108C594.408 165.308 595.606 166.307 597.203 167.507C598.401 168.306 600.997 169.706 604.99 171.705C610.581 174.504 614.375 177.103 616.372 179.502C618.368 181.901 619.367 184.899 619.367 188.098C619.367 192.096 617.769 195.695 614.574 198.494C611.38 201.492 607.386 202.892 602.594 202.892C600.997 202.892 599.599 202.692 598.202 202.492C596.804 202.092 595.207 201.692 593.01 200.693C591.812 200.293 591.014 199.893 590.215 199.893C589.616 199.893 589.017 200.093 588.218 200.693C587.619 201.093 587.02 201.892 586.621 202.892H585.223V184.7H586.621C587.619 189.897 589.616 193.696 592.611 196.495C595.606 199.293 598.801 200.493 602.195 200.493C604.791 200.493 606.987 199.693 608.584 198.294C610.182 196.894 610.981 195.095 610.981 193.296C610.981 192.096 610.581 191.097 609.982 189.897C609.383 188.898 608.385 187.898 607.187 186.899C605.989 185.899 603.792 184.7 600.598 183.1C596.205 180.901 593.01 179.102 591.014 177.503C589.017 175.903 587.619 174.304 586.621 172.305C585.623 170.306 585.024 168.306 585.024 166.107C585.024 162.309 586.421 158.91 589.217 156.311C592.012 153.513 595.606 152.313 599.999 152.313C601.596 152.313 602.994 152.513 604.591 152.913C605.789 153.113 606.987 153.713 608.584 154.512C610.182 155.312 611.38 155.712 611.979 155.712C612.578 155.712 613.177 155.512 613.377 155.112C613.776 154.712 613.976 153.913 614.375 152.313H615.773V152.113Z" fill="white"/>
<path d="M641.13 202.892L630.348 178.102C628.751 174.304 627.553 172.105 626.754 171.305C625.955 170.506 624.957 169.906 623.959 169.506V168.107H641.729V169.506C640.531 169.506 639.733 169.706 639.333 170.106C638.934 170.506 638.534 170.905 638.534 171.505C638.534 172.505 639.134 174.104 640.332 176.903L646.122 189.897L649.916 179.702C651.313 176.103 652.112 173.704 652.112 172.105C652.112 171.305 651.912 170.506 651.313 169.906C650.714 169.306 649.716 169.106 648.318 169.106V167.707H659.499V169.106C658.501 169.306 657.503 169.706 656.904 170.306C656.305 171.105 655.107 173.504 653.509 177.703L643.926 202.492C641.53 208.689 639.732 212.488 638.534 213.887C636.937 215.886 634.741 216.886 632.345 216.886C630.348 216.886 628.751 216.286 627.553 215.287C626.355 214.087 625.756 212.888 625.756 211.288C625.756 209.889 626.155 208.689 626.954 207.89C627.752 207.09 628.751 206.49 630.149 206.49C631.347 206.49 632.345 206.89 632.944 207.69C633.743 208.49 634.142 209.689 634.142 211.288C634.142 212.288 634.341 212.688 634.541 213.088C634.741 213.287 634.941 213.487 635.34 213.487C635.939 213.487 636.538 213.088 637.137 212.488C638.135 211.488 639.133 209.289 640.531 205.691L641.13 202.892Z" fill="white"/>
<path d="M684.657 167.307L685.256 178.702H684.058C682.661 175.304 681.063 173.105 679.466 171.705C677.869 170.506 676.271 169.906 674.874 169.906C673.875 169.906 673.077 170.306 672.278 170.905C671.679 171.505 671.28 172.305 671.28 173.105C671.28 173.704 671.479 174.304 672.078 174.904C672.877 175.903 674.874 177.503 678.468 179.902C682.062 182.301 684.258 184.3 685.456 185.899C686.654 187.498 687.053 189.498 687.053 191.497C687.053 193.296 686.654 195.095 685.656 196.894C684.657 198.694 683.459 200.093 681.662 201.093C680.065 202.092 678.068 202.492 676.072 202.492C674.474 202.492 672.278 202.092 669.682 201.093C668.884 200.893 668.484 200.693 668.285 200.693C667.486 200.693 666.887 201.293 666.288 202.492H665.09L664.491 190.497H665.689C666.687 193.696 668.285 196.095 670.082 197.494C671.879 199.094 673.676 199.893 675.473 199.893C676.671 199.893 677.469 199.493 678.268 198.894C679.067 198.094 679.266 197.294 679.266 196.295C679.266 195.095 678.867 194.096 678.268 193.296C677.469 192.496 675.872 191.297 673.476 189.498C669.882 186.899 667.486 185.099 666.488 183.7C664.89 181.701 664.092 179.502 664.092 177.303C664.092 174.704 664.89 172.305 666.687 170.306C668.484 168.307 671.08 167.107 674.275 167.107C676.072 167.107 677.869 167.507 679.466 168.506C680.065 168.906 680.664 169.106 681.063 169.106C681.463 169.106 681.862 169.106 682.062 168.906C682.261 168.706 682.661 168.307 683.26 167.307H684.657Z" fill="white"/>
<path d="M706.421 156.112V168.306H714.408V171.905H706.421V192.496C706.421 194.495 706.421 195.695 706.621 196.295C706.821 196.894 707.02 197.294 707.619 197.694C708.019 198.094 708.418 198.294 708.817 198.294C710.415 198.294 711.812 197.094 713.21 194.695L714.208 195.495C712.212 200.093 709.217 202.292 704.824 202.292C702.628 202.292 700.831 201.692 699.433 200.493C698.035 199.293 697.037 198.094 696.638 196.495C696.438 195.695 696.238 193.496 696.238 189.897V171.905H691.846V170.705C694.841 168.506 697.436 166.307 699.433 164.108C701.629 161.709 703.426 159.11 705.024 156.311H706.421V156.112Z" fill="white"/>
<path d="M747.153 183.7H728.784C728.984 188.098 730.182 191.697 732.378 194.296C733.975 196.295 735.972 197.294 738.368 197.294C739.766 197.294 741.163 196.894 742.162 196.095C743.36 195.295 744.558 193.896 745.955 191.697L747.153 192.496C745.356 196.095 743.36 198.894 741.163 200.293C738.967 201.892 736.371 202.692 733.576 202.692C728.584 202.692 724.791 200.693 722.395 196.894C720.398 193.896 719.4 190.097 719.4 185.499C719.4 179.902 720.997 175.504 723.992 172.105C726.987 168.906 730.581 167.107 734.574 167.107C737.969 167.107 740.964 168.506 743.36 171.305C745.556 174.104 746.954 178.302 747.153 183.7ZM738.368 181.301C738.368 177.503 738.168 174.904 737.769 173.504C737.37 172.105 736.771 170.905 735.772 170.306C735.173 169.906 734.574 169.706 733.776 169.706C732.578 169.706 731.579 170.306 730.781 171.505C729.383 173.704 728.584 176.503 728.584 180.301V181.501H738.368V181.301Z" fill="white"/>
<path d="M766.321 168.307V172.705C768.118 170.706 769.915 169.306 771.313 168.507C772.91 167.707 774.508 167.307 776.504 167.307C778.701 167.307 780.498 167.907 781.895 168.706C783.293 169.706 784.491 171.305 785.29 173.304C787.286 171.105 789.083 169.706 790.681 168.706C792.478 167.707 794.275 167.307 796.072 167.307C798.468 167.307 800.265 167.907 801.662 168.906C803.06 169.906 804.058 171.305 804.458 172.905C805.057 174.504 805.256 177.103 805.256 180.701V194.296C805.256 196.894 805.456 198.494 805.855 199.094C806.255 199.693 807.253 200.093 808.85 200.293V201.493H791.679V200.293C793.077 200.093 794.075 199.693 794.674 198.694C795.073 198.094 795.273 196.495 795.273 194.296V179.902C795.273 176.903 795.073 175.104 794.874 174.304C794.674 173.504 794.275 172.905 793.676 172.505C793.077 172.105 792.478 171.905 791.879 171.905C790.88 171.905 789.882 172.305 788.684 173.105C787.686 173.904 786.488 174.904 785.489 176.503V194.495C785.489 196.894 785.689 198.494 786.088 199.094C786.687 199.893 787.686 200.493 789.283 200.493V201.692H772.112V200.493C773.11 200.493 773.709 200.293 774.308 199.893C774.907 199.493 775.107 198.894 775.306 198.294C775.506 197.694 775.506 196.495 775.506 194.495V180.102C775.506 177.103 775.306 175.104 775.107 174.504C774.907 173.704 774.508 173.105 773.909 172.705C773.31 172.305 772.711 172.105 772.112 172.105C771.113 172.105 770.315 172.305 769.516 172.905C768.318 173.704 767.12 174.904 765.922 176.703V194.695C765.922 197.094 766.122 198.694 766.521 199.293C766.92 200.093 767.919 200.493 769.516 200.693V201.892H752.744V200.693C754.142 200.493 755.14 200.093 755.739 199.293C756.138 198.694 756.338 197.294 756.338 194.695V175.504C756.338 172.905 756.138 171.505 755.739 170.706C755.34 170.106 754.341 169.706 752.744 169.506V168.107H766.321V168.307Z" fill="white"/>
<path d="M835.605 167.307L836.204 178.702H835.006C833.609 175.304 832.011 173.105 830.414 171.705C828.817 170.506 827.22 169.906 825.822 169.906C824.824 169.906 824.025 170.306 823.226 170.905C822.627 171.505 822.228 172.305 822.228 173.105C822.228 173.704 822.428 174.304 823.027 174.904C823.825 175.903 825.822 177.503 829.416 179.902C833.01 182.301 835.206 184.3 836.404 185.899C837.602 187.498 838.001 189.498 838.001 191.497C838.001 193.296 837.602 195.095 836.604 196.894C835.605 198.694 834.407 200.093 832.61 201.093C831.013 202.092 829.017 202.492 827.02 202.492C825.423 202.492 823.226 202.092 820.631 201.093C819.832 200.893 819.433 200.693 819.233 200.693C818.434 200.693 817.835 201.293 817.236 202.492H816.038L815.439 190.497H816.637C817.636 193.696 819.233 196.095 821.03 197.494C822.827 199.094 824.624 199.893 826.421 199.893C827.619 199.893 828.417 199.493 829.216 198.894C830.015 198.094 830.214 197.294 830.214 196.295C830.214 195.095 829.815 194.096 829.216 193.296C828.417 192.496 826.82 191.297 824.424 189.498C820.83 186.899 818.434 185.099 817.436 183.7C815.839 181.701 815.04 179.502 815.04 177.303C815.04 174.704 815.839 172.305 817.636 170.306C819.433 168.307 822.028 167.107 825.223 167.107C827.02 167.107 828.817 167.507 830.414 168.506C831.013 168.906 831.612 169.106 832.011 169.106C832.411 169.106 832.81 169.106 833.01 168.906C833.209 168.706 833.609 168.307 834.208 167.307H835.605Z" fill="white"/>
<path d="M69.2843 85.7415C84.8583 85.7415 136.971 85.7415 161.93 85.7415C191.281 85.7415 209.251 66.3497 215.44 56.3539L245.191 4.37587V3.17639H117.204L69.2843 85.7415Z" fill="white"/>
<path d="M30.7485 152.113L0.798523 203.692H130.981L177.703 122.126C164.725 122.126 108.818 122.126 87.2542 122.126C62.6952 122.126 42.7285 131.922 30.7485 152.113Z" fill="white"/>
<path d="M184.093 203.692H245.191V98.7361L184.093 203.692Z" fill="white"/>
<path d="M69.2844 3.37622H0V124.125L69.2844 3.37622Z" fill="white"/>
</svg>
