<svg width="240" height="47" viewBox="0 0 240 47" fill="none" xmlns="http://www.w3.org/2000/svg">
<g clip-path="url(#clip0)">
<path d="M57.4634 18.3305L52.5065 41.6501H46.1104L51.0141 18.3305H57.4634ZM51.7331 14.7062L52.9058 9.4292H59.3551L58.1824 14.7062H51.7331Z" fill="#13181A"/>
<path d="M69.1891 9.4292L62.3401 41.6229H55.9707L62.7665 9.4292H69.1891Z" fill="#13181A"/>
<path d="M79.0504 9.4292L72.2014 41.6229H65.832L72.6279 9.4292H79.0504Z" fill="#13181A"/>
<path d="M91.6289 41.6231L92.3483 38.3716H92.2684C90.1896 40.93 87.4713 42.2094 84.1132 42.2094C79.5824 42.2094 77.3174 40.1307 77.3174 35.9999C77.3174 35.7601 77.3438 35.4403 77.3973 35.0674C77.4505 34.6941 77.504 34.3212 77.584 33.9215C77.6639 33.5218 77.7438 33.1753 77.797 32.8288C77.8769 32.4827 77.9305 32.2157 78.0104 32.003L80.8886 18.3311H87.2847L84.433 32.003C84.3798 32.1893 84.3263 32.4027 84.2731 32.6689C84.2195 32.9355 84.1932 33.1753 84.1396 33.4687C84.0864 33.7349 84.0597 34.0019 84.0597 34.2681C84.0333 34.5346 84.0333 34.7213 84.0333 34.8812C84.0333 35.5742 84.353 36.1338 84.9925 36.587C85.632 37.0403 86.3251 37.2533 87.0977 37.2533C88.0573 37.2533 88.9098 37.0666 89.6561 36.6933C90.4023 36.32 91.0154 35.8408 91.5482 35.2277C92.0809 34.6146 92.5074 33.9483 92.8539 33.1489C93.2005 32.376 93.467 31.5766 93.6533 30.7504L96.2652 18.3582H102.661L97.7844 41.6774H91.6281V41.6231H91.6289Z" fill="#13181A"/>
<path d="M112.416 18.3303L111.696 21.6085H111.776C112.735 20.2492 113.908 19.2632 115.294 18.6233C116.68 17.9838 118.225 17.6641 119.931 17.6641C121.371 17.6641 122.596 17.9838 123.636 18.6233C124.648 19.2632 125.315 20.3024 125.581 21.7413C125.981 21.1281 126.461 20.5954 127.073 20.0893C127.686 19.5829 128.326 19.1565 129.019 18.81C129.712 18.4367 130.431 18.1701 131.204 17.9838C131.977 17.7972 132.723 17.6905 133.469 17.6905C134.375 17.6905 135.254 17.8239 136.107 18.0637C136.96 18.3036 137.733 18.6769 138.373 19.1561C139.039 19.6361 139.572 20.2488 139.945 20.9954C140.345 21.7412 140.531 22.6209 140.531 23.607C140.531 24.3264 140.451 25.0462 140.318 25.7924C140.158 26.5386 140.025 27.2317 139.864 27.9243L136.986 41.6223H130.59L133.655 26.8848C133.762 26.2717 133.842 25.7389 133.842 25.2057C133.842 24.5127 133.575 23.9263 133.042 23.4467C132.509 22.9667 131.843 22.7269 131.043 22.7269C130.191 22.7269 129.444 22.9403 128.778 23.34C128.112 23.7401 127.526 24.2461 127.019 24.886C126.513 25.4991 126.113 26.1917 125.767 26.9379C125.447 27.6842 125.208 28.4304 125.047 29.1498L122.436 41.6491H115.986L119.051 26.9112C119.158 26.2981 119.238 25.7653 119.238 25.2321C119.238 24.5391 118.971 23.9527 118.438 23.4731C117.906 22.9935 117.239 22.7537 116.44 22.7537C115.587 22.7537 114.841 22.9667 114.174 23.3668C113.508 23.7665 112.922 24.2729 112.415 24.9124C111.909 25.5255 111.509 26.2181 111.163 26.9643C110.843 27.7105 110.603 28.4568 110.443 29.1762L107.831 41.6755H101.462L106.286 18.3563H112.415V18.3303H112.416Z" fill="#13181A"/>
<path d="M151.913 18.3305L146.956 41.6229H140.56L145.463 18.3038H151.912V18.3305H151.913ZM146.183 14.7062L147.355 9.4292H153.805L152.632 14.7062H146.183Z" fill="#13181A"/>
<path d="M161.373 18.3304L160.653 21.5818H160.733C162.812 18.9967 165.53 17.7173 168.888 17.7173C173.419 17.7173 175.684 19.7964 175.684 23.9803C175.684 24.2201 175.658 24.5399 175.604 24.9128C175.551 25.2861 175.471 25.659 175.391 26.0587C175.311 26.4588 175.231 26.8049 175.178 27.1514C175.098 27.4976 175.044 27.7645 175.017 27.9776L172.14 41.6492H165.743L168.595 27.9776C168.648 27.6043 168.728 27.1247 168.835 26.5383C168.941 25.9248 168.994 25.4724 168.994 25.1522C168.994 24.4592 168.675 23.9 168.035 23.4468C167.395 22.9935 166.703 22.7805 165.93 22.7805C164.97 22.7805 164.118 22.9672 163.371 23.3401C162.625 23.7134 162.012 24.193 161.479 24.8061C160.946 25.4192 160.52 26.1119 160.173 26.8849C159.827 27.6578 159.56 28.4572 159.374 29.2834L156.762 41.6756H150.42L155.243 18.3564H161.373V18.3304Z" fill="#13181A"/>
<path d="M180.721 21.7153C181.414 20.7293 182.267 19.9563 183.253 19.3436C184.239 18.7309 185.358 18.304 186.584 18.0642C187.81 17.7976 189.089 17.6909 190.422 17.6909C191.461 17.6909 192.581 17.7708 193.7 17.9043C194.846 18.0642 195.885 18.3576 196.844 18.7836C197.804 19.2101 198.603 19.8232 199.216 20.623C199.829 21.4223 200.122 22.4883 200.096 23.7941C200.096 24.9136 199.936 26.2194 199.589 27.7118L197.511 37.0928C197.377 37.5188 197.297 38.0252 197.271 38.6383C197.217 39.2514 197.191 39.7842 197.191 40.2375C197.191 40.6372 197.271 41.09 197.404 41.5968H191.008V39.3314C190.129 40.3174 189.063 41.0636 187.81 41.5169C186.558 41.9701 185.252 42.2099 183.893 42.2099C182.64 42.2099 181.521 42.05 180.588 41.7035C179.628 41.3838 178.856 40.9305 178.216 40.3713C177.576 39.8114 177.124 39.1719 176.83 38.4257C176.537 37.6795 176.377 36.9065 176.377 36.1071C176.377 33.8417 177.15 32.0559 178.696 30.6966C180.241 29.3373 182.427 28.5115 185.252 28.165C186.744 27.9787 188.05 27.8453 189.169 27.7653C190.289 27.6854 191.195 27.5255 191.941 27.3389C192.687 27.1526 193.22 26.8592 193.593 26.4863C193.966 26.1134 194.126 25.5539 194.126 24.8073C194.126 24.1941 193.993 23.7145 193.726 23.368C193.46 22.9947 193.113 22.7281 192.714 22.5155C192.314 22.302 191.861 22.1689 191.408 22.089C190.928 22.0091 190.502 21.9827 190.076 21.9827C188.93 21.9827 187.917 22.2489 187.011 22.8084C186.105 23.3684 185.545 24.2209 185.331 25.394H179.335C179.575 23.9272 180.028 22.7014 180.721 21.7153ZM190.262 31.3365C189.33 31.4428 188.397 31.5228 187.464 31.5763C186.851 31.6299 186.265 31.7362 185.705 31.8697C185.145 32.0032 184.639 32.2158 184.186 32.4828C183.76 32.749 183.386 33.1223 183.12 33.5751C182.853 34.0551 182.72 34.6411 182.72 35.3609C182.72 36.2402 183.066 36.8801 183.786 37.333C184.479 37.759 185.305 37.9992 186.238 37.9992C187.224 37.9992 188.077 37.839 188.743 37.5192C189.409 37.1995 189.995 36.7998 190.449 36.2934C190.902 35.787 191.275 35.2274 191.541 34.6143C191.808 33.9748 192.047 33.3617 192.207 32.7222L192.847 30.4568C192.074 30.9364 191.195 31.2294 190.262 31.3365Z" fill="#13181A"/>
<path d="M217.872 18.3304L216.886 22.6214H212.329L209.93 34.2146C209.877 34.4544 209.824 34.6678 209.797 34.8805C209.77 35.0672 209.744 35.227 209.744 35.307C209.744 35.7334 209.823 36.0532 209.957 36.2666C210.09 36.48 210.277 36.6663 210.463 36.7726C210.676 36.9061 210.916 36.9592 211.156 36.986C211.423 37.0128 211.662 37.0128 211.902 37.0128C212.675 37.0128 213.448 36.9593 214.194 36.8793L213.102 41.7827C212.436 41.8362 211.77 41.8894 211.13 41.9429C210.464 41.9961 209.797 42.0228 209.104 42.0228C208.358 42.0228 207.612 41.9429 206.865 41.8094C206.119 41.6759 205.48 41.4361 204.893 41.0896C204.307 40.7435 203.854 40.2635 203.508 39.6775C203.161 39.0644 203.001 38.2914 203.028 37.3322C203.028 37.0388 203.054 36.6923 203.108 36.3194C203.161 35.9465 203.241 35.5464 203.321 35.1203L205.933 22.621H201.749L202.735 18.33H206.839L208.278 11.2412H214.674L213.235 18.33H217.872V18.3304Z" fill="#13181A"/>
<path d="M222.189 31.922C222.189 32.0555 222.189 32.1622 222.189 32.2953V32.8816C222.189 34.2409 222.616 35.3333 223.442 36.1594C224.294 37.0124 225.574 37.4121 227.306 37.4121C227.946 37.4121 228.505 37.3053 228.985 37.1187C229.491 36.9324 229.918 36.6655 230.291 36.3725C230.664 36.0795 230.984 35.733 231.277 35.3329C231.571 34.9332 231.837 34.5599 232.077 34.2138H238.473C237.967 35.5459 237.354 36.6919 236.661 37.6783C235.968 38.6647 235.142 39.5176 234.182 40.1835C233.223 40.8497 232.104 41.3561 230.825 41.7027C229.545 42.0228 228.08 42.2091 226.374 42.2091C224.802 42.2091 223.389 41.9956 222.11 41.5696C220.831 41.1431 219.738 40.5036 218.832 39.6503C217.926 38.7978 217.233 37.7314 216.727 36.4792C216.22 35.2266 215.98 33.7338 215.98 32.0551C215.98 30.1898 216.274 28.404 216.887 26.6717C217.499 24.9395 218.326 23.4207 219.445 22.0614C220.537 20.7288 221.897 19.6629 223.469 18.8631C225.068 18.0637 226.853 17.6641 228.826 17.6641C230.451 17.6641 231.917 17.8771 233.276 18.3036C234.609 18.73 235.755 19.3695 236.714 20.2224C237.674 21.0754 238.394 22.1417 238.926 23.4207C239.46 24.6997 239.726 26.1657 239.726 27.8712C239.726 29.0171 239.592 30.2429 239.352 31.5223H222.163C222.216 31.6822 222.189 31.8153 222.189 31.922ZM233.436 25.6857C233.329 25.0998 233.116 24.5666 232.822 24.0866C232.529 23.607 232.076 23.2341 231.517 22.9407C230.957 22.6473 230.184 22.5146 229.251 22.5146C228.345 22.5146 227.546 22.6477 226.853 22.9143C226.16 23.1805 225.574 23.5538 225.041 24.0067C224.535 24.4599 224.108 24.9927 223.762 25.579C223.415 26.1921 223.122 26.8048 222.882 27.4711H233.569C233.595 26.8588 233.543 26.2721 233.436 25.6857Z" fill="#13181A"/>
<g clip-path="url(#clip1)">
<path d="M28.2947 44.5374C28.2823 44.5385 28.2699 44.5407 28.2575 44.5419C28.0107 42.9586 26.3679 34.4995 18.7631 28.4563C15.5326 25.8965 11.955 24.5481 8.78987 23.7705C5.35202 12.728 9.1065 1.86982 8.26929 0C9.14707 1.93724 20.273 6.5084 26.1042 17.3823C26.3972 17.9273 26.6766 18.4892 26.9403 19.0667C32.9371 32.2476 28.2947 44.5374 28.2947 44.5374Z" fill="url(#paint0_linear)"/>
<path d="M28.295 44.8026C26.6634 45.9173 16.7216 46.7735 12.0646 44.9172C9.62847 43.9677 9.67016 41.3304 11.2623 40.0629C10.9581 39.8516 10.6606 39.6179 10.3643 39.3842C2.63896 33.2432 1.30483 23.1604 0 22.1108C0.75608 22.7143 4.37197 22.6862 8.79013 23.7705C11.9553 24.5481 15.5329 25.8965 18.7634 28.4563C26.3681 34.4995 28.011 42.9586 28.2578 44.5419C28.2848 44.7116 28.295 44.8026 28.295 44.8026Z" fill="url(#paint1_linear)"/>
<path d="M36.3268 28.1628C35.6113 37.1209 30.2026 42.9359 28.6623 44.4215C28.2443 44.59 28.0031 44.6664 28.0031 44.6664C27.9705 44.6338 27.9367 44.5956 27.9006 44.5529C28.0493 44.5574 28.1812 44.5518 28.295 44.5372C28.295 44.5372 30.8168 37.8614 29.7418 29.0741C29.3587 25.9379 28.517 22.5331 26.9406 19.0666C26.6769 18.489 26.3975 17.9272 26.1045 17.3822C28.4302 13.265 31.1435 10.5086 31.2269 9.5332C31.1232 10.7974 34.7729 15.618 35.9966 22.2657C36.3358 24.1041 36.4902 26.0818 36.3268 28.1628Z" fill="url(#paint2_linear)"/>
<path d="M39.7385 34.4296C36.3694 40.8684 30.6025 43.6405 28.6621 44.4215C30.2024 42.9359 35.6111 37.1209 36.3266 28.1628C36.49 26.0818 36.3356 24.1041 35.9964 22.2657C38.9193 20.1419 41.5696 19.0104 41.9301 18.3306C41.2957 19.5363 43.4874 27.2369 39.7385 34.4296Z" fill="url(#paint3_linear)"/>
<path d="M37.7029 35.6514C35.3941 40.0664 31.7196 42.3969 29.6182 43.4318C31.7579 41.0709 35.722 35.7413 36.3271 28.1631C36.4274 26.8866 36.4082 25.6494 36.2989 24.4595C37.9745 23.4088 39.2895 22.7672 39.5159 22.3413C38.9909 23.338 40.8027 29.7037 37.7029 35.6514Z" fill="#F89520"/>
<path d="M34.6682 30.4418C34.1127 37.403 30.1284 42.0675 28.5937 43.6238C29.4962 40.6145 31.8591 30.5845 27.2686 19.8106C28.8742 17.3564 30.3954 15.7024 30.4529 15.0405C30.3436 16.3743 35.2902 22.5007 34.6682 30.4418Z" fill="#8EC640"/>
<path d="M27.5199 43.9802V43.9892C27.121 41.9362 25.4849 35.7189 19.7529 31.1634C17.1162 29.0745 14.2023 27.9621 11.6118 27.3171C8.49283 18.0174 11.7245 8.73688 11.0202 7.1626C11.7808 8.84476 21.8882 12.9282 26.4551 22.9257C31.413 33.8232 27.5199 43.9802 27.5199 43.9802Z" fill="#1E75BC"/>
<path d="M27.5194 43.989C25.2106 44.2014 15.0086 40.0775 11.3532 35.9187C9.4129 33.7466 10.8056 31.1464 13.0401 30.6868C12.8451 30.3239 12.6693 29.9418 12.4936 29.5598C12.1544 28.8148 11.8626 28.0653 11.6113 27.3169C14.2018 27.9619 17.1157 29.0743 19.7524 31.1633C25.4844 35.7187 27.1205 41.9361 27.5194 43.989Z" fill="#27A9E1"/>
<path d="M27.5198 43.9893C26.1699 44.9107 18.0649 46.3063 14.2146 44.7725C12.1999 43.987 12.2348 41.8071 13.5509 40.7587C13.2997 40.5845 13.054 40.3912 12.8084 40.1968C6.42171 35.1211 5.31858 26.7856 4.24023 25.917C4.87124 26.4204 7.91133 26.3923 11.6117 27.3171C11.863 28.0655 12.1548 28.815 12.494 29.56C12.6698 29.942 12.8456 30.3241 13.0405 30.687C10.8061 31.1466 9.41335 33.7469 11.3537 35.9189C15.009 40.0777 25.211 44.2017 27.5198 43.9893Z" fill="#A1DCEC"/>
</g>
</g>
<defs>
<linearGradient id="paint0_linear" x1="27.7135" y1="43.5688" x2="8.74214" y2="0.660751" gradientUnits="userSpaceOnUse">
<stop offset="0.5291" stop-color="#1E75BC" stop-opacity="0"/>
<stop offset="0.8291" stop-color="#4294D1" stop-opacity="0.1274"/>
<stop offset="1" stop-color="#50A5DB" stop-opacity="0.2"/>
</linearGradient>
<linearGradient id="paint1_linear" x1="26.514" y1="45.8199" x2="-1.42109" y2="22.9917" gradientUnits="userSpaceOnUse">
<stop offset="0.5291" stop-color="#A1DCEC" stop-opacity="0"/>
<stop offset="1" stop-color="#A1DCEC" stop-opacity="0.2"/>
</linearGradient>
<linearGradient id="paint2_linear" x1="32.4263" y1="10.9895" x2="29.0708" y2="43.9125" gradientUnits="userSpaceOnUse">
<stop stop-color="#8EC640" stop-opacity="0.2"/>
<stop offset="0.4815" stop-color="#8EC640" stop-opacity="0"/>
</linearGradient>
<linearGradient id="paint3_linear" x1="29.1306" y1="44.515" x2="42.6822" y2="19.3022" gradientUnits="userSpaceOnUse">
<stop offset="0.4339" stop-color="#F89520" stop-opacity="0"/>
<stop offset="0.5668" stop-color="#F69620" stop-opacity="0.047"/>
<stop offset="0.684" stop-color="#F29A1D" stop-opacity="0.0884"/>
<stop offset="0.7952" stop-color="#EDA31A" stop-opacity="0.1276"/>
<stop offset="0.902" stop-color="#E8AE12" stop-opacity="0.1654"/>
<stop offset="1" stop-color="#E1BA04" stop-opacity="0.2"/>
</linearGradient>
<clipPath id="clip0">
<rect width="239.728" height="46.0027" fill="white"/>
</clipPath>
<clipPath id="clip1">
<rect width="42.0024" height="46.0027" fill="white"/>
</clipPath>
</defs>
</svg>
