<svg width="839" height="161" viewBox="0 0 839 161" fill="none" xmlns="http://www.w3.org/2000/svg">
<path d="M201.11 64.1529L183.762 145.767H161.377L178.539 64.1529H201.11ZM181.056 51.4685L185.16 33H207.731L203.627 51.4685H181.056Z" fill="#EAF7FB"/>
<path d="M242.149 33L218.179 145.672H195.887L219.671 33H242.149Z" fill="#EAF7FB"/>
<path d="M276.659 33L252.689 145.672H230.397L254.181 33H276.659Z" fill="#EAF7FB"/>
<path d="M320.684 145.672L323.202 134.292H322.922C315.647 143.246 306.133 147.724 294.38 147.724C278.524 147.724 270.596 140.448 270.596 125.992C270.596 125.152 270.689 124.033 270.876 122.728C271.062 121.422 271.25 120.117 271.529 118.718C271.809 117.319 272.089 116.106 272.275 114.893C272.555 113.682 272.742 112.748 273.022 112.003L283.095 64.1542H305.48L295.5 112.003C295.313 112.655 295.126 113.402 294.94 114.334C294.753 115.267 294.66 116.106 294.473 117.133C294.287 118.064 294.193 118.999 294.193 119.93C294.101 120.863 294.101 121.517 294.101 122.076C294.101 124.502 295.22 126.46 297.458 128.046C299.696 129.633 302.121 130.378 304.825 130.378C308.184 130.378 311.168 129.725 313.779 128.418C316.391 127.112 318.537 125.435 320.401 123.289C322.266 121.143 323.758 118.811 324.971 116.014C326.184 113.308 327.117 110.511 327.769 107.62L336.91 64.2493H359.295L342.227 145.862H320.681V145.672H320.684Z" fill="#EAF7FB"/>
<path d="M393.435 64.1529L390.915 75.626H391.195C394.552 70.8686 398.656 67.4178 403.506 65.1783C408.357 62.9402 413.766 61.8211 419.736 61.8211C424.774 61.8211 429.064 62.9402 432.701 65.1783C436.245 67.4178 438.577 71.0547 439.509 76.0905C440.908 73.9447 442.588 72.0801 444.732 70.3091C446.878 68.5368 449.116 67.0443 451.54 65.8315C453.966 64.5251 456.483 63.5921 459.187 62.9402C461.893 62.287 464.504 61.9135 467.116 61.9135C470.287 61.9135 473.364 62.3806 476.349 63.2199C479.333 64.0592 482.038 65.3657 484.278 67.043C486.608 68.7229 488.476 70.8673 489.779 73.4802C491.18 76.0905 491.831 79.1692 491.831 82.6201C491.831 85.138 491.552 87.6572 491.085 90.2688C490.525 92.8804 490.059 95.3059 489.498 97.7301L479.425 145.67H457.04L467.766 94.0918C468.14 91.9461 468.42 90.0814 468.42 88.2154C468.42 85.7899 467.487 83.7378 465.622 82.0592C463.756 80.3793 461.425 79.54 458.626 79.54C455.643 79.54 453.03 80.287 450.699 81.6858C448.368 83.0859 446.316 84.8569 444.543 87.0963C442.771 89.2421 441.372 91.6663 440.161 94.2779C439.042 96.8894 438.202 99.501 437.641 102.019L428.502 145.764H405.93L416.656 94.1842C417.03 92.0384 417.31 90.1738 417.31 88.3078C417.31 85.8822 416.377 83.8302 414.512 82.1516C412.647 80.473 410.316 79.6337 407.517 79.6337C404.531 79.6337 401.92 80.3793 399.588 81.7795C397.256 83.1783 395.204 84.9506 393.432 87.1887C391.66 89.3345 390.261 91.7586 389.048 94.3702C387.929 96.9818 387.09 99.5934 386.53 102.111L377.389 145.856H355.097L371.98 64.244H393.432V64.1529H393.435Z" fill="#EAF7FB"/>
<path d="M531.663 64.1529L514.314 145.672H491.929L509.09 64.0593H531.661V64.1529H531.663ZM511.61 51.4685L515.713 33H538.285L534.182 51.4685H511.61Z" fill="#EAF7FB"/>
<path d="M564.774 64.1528L562.255 75.5322H562.534C569.811 66.4847 579.324 62.0071 591.076 62.0071C606.931 62.0071 614.86 69.2836 614.86 83.9265C614.86 84.7658 614.767 85.8848 614.58 87.19C614.394 88.4964 614.114 89.8015 613.833 91.2004C613.553 92.6005 613.274 93.8119 613.088 95.0247C612.808 96.2361 612.62 97.1705 612.527 97.9161L602.455 145.764H580.069L590.049 97.9161C590.236 96.6096 590.516 94.931 590.888 92.879C591.261 90.7319 591.448 89.1483 591.448 88.0279C591.448 85.6024 590.329 83.6454 588.091 82.0591C585.851 80.4729 583.427 79.7273 580.722 79.7273C577.363 79.7273 574.38 80.3806 571.768 81.6857C569.156 82.9921 567.011 84.6707 565.146 86.8165C563.281 88.9623 561.789 91.3864 560.576 94.0917C559.363 96.797 558.43 99.5947 557.778 102.486L548.637 145.856H526.441L543.322 64.2439H564.774V64.1528Z" fill="#EAF7FB"/>
<path d="M632.489 75.9983C634.914 72.5474 637.898 69.8421 641.349 67.6977C644.8 65.5532 648.718 64.0594 653.008 63.2201C657.298 62.2871 661.776 61.9136 666.44 61.9136C670.077 61.9136 673.995 62.1934 677.911 62.6605C681.922 63.2201 685.559 64.2468 688.917 65.738C692.276 67.2305 695.073 69.3762 697.218 72.1752C699.363 74.9729 700.389 78.7035 700.296 83.2735C700.296 87.1915 699.737 91.7614 698.524 96.9846L691.249 129.816C690.782 131.307 690.502 133.08 690.41 135.225C690.222 137.371 690.13 139.236 690.13 140.822C690.13 142.221 690.41 143.806 690.877 145.579H668.492V137.651C665.414 141.102 661.684 143.713 657.3 145.3C652.917 146.886 648.346 147.725 643.589 147.725C639.206 147.725 635.288 147.166 632.023 145.953C628.665 144.834 625.961 143.248 623.723 141.291C621.483 139.331 619.898 137.093 618.872 134.481C617.846 131.87 617.285 129.164 617.285 126.367C617.285 118.438 619.991 112.188 625.4 107.431C630.809 102.674 638.458 99.7836 648.345 98.5708C653.568 97.9189 658.138 97.4518 662.056 97.172C665.974 96.8923 669.145 96.3327 671.755 95.6795C674.367 95.0276 676.233 94.0009 677.538 92.6958C678.843 91.3907 679.404 89.4323 679.404 86.8194C679.404 84.6736 678.937 82.995 678.005 81.7823C677.073 80.4758 675.859 79.5428 674.462 78.7986C673.062 78.0516 671.477 77.5858 669.89 77.306C668.212 77.0263 666.721 76.9339 665.228 76.9339C661.218 76.9339 657.672 77.8656 654.501 79.8239C651.331 81.7836 649.371 84.7673 648.624 88.8728H627.638C628.479 83.7393 630.063 79.4491 632.489 75.9983ZM665.88 109.67C662.617 110.043 659.352 110.322 656.088 110.51C653.941 110.697 651.89 111.069 649.931 111.536C647.972 112.004 646.2 112.748 644.614 113.682C643.123 114.614 641.816 115.92 640.883 117.505C639.952 119.185 639.484 121.236 639.484 123.755C639.484 126.832 640.697 129.072 643.215 130.657C645.641 132.148 648.532 132.989 651.795 132.989C655.246 132.989 658.233 132.428 660.563 131.309C662.895 130.19 664.947 128.791 666.533 127.019C668.12 125.246 669.425 123.288 670.356 121.142C671.289 118.904 672.129 116.758 672.688 114.52L674.926 106.592C672.222 108.27 669.145 109.296 665.88 109.67Z" fill="#EAF7FB"/>
<path d="M762.509 64.153L759.058 79.1706H743.109L734.714 119.745C734.528 120.584 734.342 121.331 734.248 122.075C734.155 122.728 734.061 123.288 734.061 123.568C734.061 125.06 734.341 126.179 734.808 126.926C735.275 127.673 735.927 128.325 736.58 128.697C737.326 129.164 738.165 129.35 739.006 129.444C739.937 129.538 740.777 129.538 741.616 129.538C744.321 129.538 747.027 129.35 749.638 129.07L745.814 146.231C743.483 146.419 741.152 146.605 738.912 146.792C736.582 146.978 734.25 147.072 731.824 147.072C729.213 147.072 726.601 146.792 723.988 146.325C721.375 145.858 719.138 145.018 717.086 143.806C715.034 142.594 713.448 140.914 712.237 138.864C711.024 136.718 710.464 134.013 710.557 130.655C710.557 129.629 710.65 128.416 710.838 127.111C711.024 125.806 711.304 124.406 711.583 122.914L720.725 79.1693H706.082L709.533 64.1517H723.896L728.933 39.3423H751.318L746.281 64.1517H762.509V64.153Z" fill="#EAF7FB"/>
<path d="M777.619 111.721C777.619 112.188 777.619 112.562 777.619 113.027V115.08C777.619 119.837 779.111 123.66 782.003 126.551C784.986 129.536 789.464 130.935 795.526 130.935C797.766 130.935 799.724 130.562 801.404 129.908C803.175 129.257 804.668 128.322 805.974 127.297C807.28 126.271 808.399 125.059 809.425 123.659C810.452 122.26 811.383 120.953 812.222 119.742H834.609C832.837 124.404 830.691 128.415 828.267 131.867C825.843 135.319 822.95 138.304 819.593 140.634C816.234 142.966 812.318 144.739 807.841 145.951C803.364 147.072 798.234 147.724 792.264 147.724C786.761 147.724 781.818 146.977 777.342 145.486C772.864 143.993 769.041 141.755 765.87 138.768C762.699 135.785 760.273 132.053 758.501 127.67C756.729 123.286 755.889 118.062 755.889 112.187C755.889 105.659 756.916 99.4087 759.06 93.3462C761.205 87.2837 764.098 81.9682 768.014 77.2109C771.837 72.5472 776.595 68.8166 782.098 66.0176C787.694 63.2199 793.943 61.8211 800.844 61.8211C806.535 61.8211 811.664 62.5667 816.422 64.0593C821.085 65.5518 825.096 67.7899 828.453 70.7749C831.811 73.76 834.331 77.492 836.195 81.9682C838.061 86.4445 838.993 91.5752 838.993 97.544C838.993 101.554 838.526 105.845 837.686 110.322H777.528C777.711 110.882 777.619 111.348 777.619 111.721ZM816.979 89.8953C816.606 87.8446 815.859 85.9786 814.833 84.2987C813.806 82.6201 812.221 81.315 810.263 80.2883C808.304 79.2616 805.599 78.7971 802.334 78.7971C799.163 78.7971 796.366 79.2629 793.94 80.1959C791.515 81.1276 789.464 82.434 787.599 84.0189C785.827 85.6051 784.334 87.4698 783.122 89.5219C781.909 91.6676 780.882 93.812 780.043 96.1439H817.444C817.538 94.0008 817.353 91.9474 816.979 89.8953Z" fill="#EAF7FB"/>
<path d="M99.0266 155.872C98.9833 155.876 98.9399 155.884 98.8965 155.888C98.0329 150.346 92.2832 120.741 65.6681 99.5912C54.3619 90.6326 41.8412 85.9133 30.7637 83.1919C18.7319 44.5455 31.8718 6.54398 28.9418 0C32.0138 6.77994 70.9525 22.7781 91.3604 60.8346C92.3857 62.742 93.3637 64.7083 94.2865 66.7297C115.274 112.86 99.0266 155.872 99.0266 155.872Z" fill="url(#paint0_linear)"/>
<path d="M99.0266 156.8C93.3164 160.701 58.5224 163.698 42.2237 157.201C33.6977 153.878 33.8436 144.648 39.4158 140.212C38.3511 139.472 37.31 138.654 36.2728 137.836C9.23581 116.344 4.56664 81.0565 0 77.3833C2.64613 79.4952 15.301 79.3969 30.7637 83.1919C41.8411 85.9133 54.3619 90.6325 65.6681 99.5912C92.2832 120.741 98.0329 150.346 98.8965 155.888C98.9912 156.481 99.0266 156.8 99.0266 156.8Z" fill="url(#paint1_linear)"/>
<path d="M127.136 98.5647C124.632 129.916 105.703 150.268 100.312 155.467C98.8492 156.057 98.0052 156.324 98.0052 156.324C97.8909 156.21 97.7726 156.076 97.6464 155.927C98.1669 155.942 98.6283 155.923 99.0266 155.872C99.0266 155.872 107.852 132.508 104.09 101.754C102.749 90.778 99.8035 78.8619 94.2865 66.7296C93.3637 64.7082 92.3857 62.7419 91.3604 60.8345C99.4999 46.4252 108.996 36.7783 109.288 33.3648C108.925 37.789 121.698 54.6602 125.981 77.926C127.168 84.3598 127.708 91.2814 127.136 98.5647Z" fill="url(#paint2_linear)"/>
<path d="M139.077 120.497C127.286 143.032 107.103 152.734 100.312 155.467C105.703 150.268 124.632 129.916 127.136 98.5648C127.708 91.2815 127.168 84.36 125.981 77.9261C136.21 70.4934 145.486 66.5332 146.748 64.1539C144.527 68.3737 152.198 95.3243 139.077 120.497Z" fill="url(#paint3_linear)"/>
<path d="M131.951 124.772C123.871 140.224 111.011 148.38 103.656 152.002C111.145 143.739 125.019 125.087 127.136 98.5647C127.487 94.0972 127.42 89.7673 127.038 85.6026C132.902 81.9256 137.504 79.68 138.297 78.1895C136.459 81.6778 142.8 103.956 131.951 124.772Z" fill="#F89520"/>
<path d="M121.331 106.54C119.387 130.903 105.443 147.228 100.072 152.674C103.23 142.143 111.5 107.04 95.4341 69.3331C101.054 60.7441 106.377 54.9552 106.579 52.6389C106.196 57.3069 123.508 78.7479 121.331 106.54Z" fill="#8EC640"/>
<path d="M96.3135 153.921V153.953C94.9174 146.768 89.1914 125.008 69.1305 109.065C59.9026 101.754 49.7046 97.8608 40.6383 95.6035C29.7226 63.0566 41.0327 30.5766 38.568 25.0669C41.2299 30.9541 76.6036 45.2455 92.5868 80.2346C109.938 118.374 96.3135 153.921 96.3135 153.921Z" fill="#1E75BC"/>
<path d="M96.3134 153.953C88.2331 154.696 52.5281 140.263 39.7352 125.708C32.9444 118.106 37.8187 109.006 45.6387 107.398C44.9565 106.127 44.3413 104.79 43.7261 103.453C42.5391 100.846 41.5177 98.2228 40.6383 95.6036C49.7046 97.861 59.9026 101.754 69.1305 109.065C89.1914 125.008 94.9174 146.768 96.3134 153.953Z" fill="#27A9E1"/>
<path d="M96.3135 153.953C91.5891 157.178 63.2231 162.062 49.748 156.694C42.6969 153.945 42.8191 146.316 47.4252 142.646C46.5458 142.037 45.6861 141.36 44.8264 140.68C22.4743 122.916 18.6136 93.7434 14.8396 90.7034C17.048 92.4653 27.6877 92.367 40.6383 95.6036C41.5178 98.2227 42.5391 100.846 43.7262 103.453C44.3413 104.79 44.9565 106.127 45.6388 107.398C37.8187 109.006 32.9445 118.106 39.7353 125.708C52.5282 140.263 88.2331 154.696 96.3135 153.953Z" fill="#A1DCEC"/>
<defs>
<linearGradient id="paint0_linear" x1="96.9926" y1="152.482" x2="30.5966" y2="2.3125" gradientUnits="userSpaceOnUse">
<stop offset="0.5291" stop-color="#1E75BC" stop-opacity="0"/>
<stop offset="0.8291" stop-color="#4294D1" stop-opacity="0.1274"/>
<stop offset="1" stop-color="#50A5DB" stop-opacity="0.2"/>
</linearGradient>
<linearGradient id="paint1_linear" x1="92.7937" y1="160.36" x2="-4.97355" y2="80.4661" gradientUnits="userSpaceOnUse">
<stop offset="0.5291" stop-color="#A1DCEC" stop-opacity="0"/>
<stop offset="1" stop-color="#A1DCEC" stop-opacity="0.2"/>
</linearGradient>
<linearGradient id="paint2_linear" x1="113.485" y1="38.4615" x2="101.742" y2="153.685" gradientUnits="userSpaceOnUse">
<stop stop-color="#8EC640" stop-opacity="0.2"/>
<stop offset="0.4815" stop-color="#8EC640" stop-opacity="0"/>
</linearGradient>
<linearGradient id="paint3_linear" x1="101.952" y1="155.794" x2="149.38" y2="67.5546" gradientUnits="userSpaceOnUse">
<stop offset="0.4339" stop-color="#F89520" stop-opacity="0"/>
<stop offset="0.5668" stop-color="#F69620" stop-opacity="0.047"/>
<stop offset="0.684" stop-color="#F29A1D" stop-opacity="0.0884"/>
<stop offset="0.7952" stop-color="#EDA31A" stop-opacity="0.1276"/>
<stop offset="0.902" stop-color="#E8AE12" stop-opacity="0.1654"/>
<stop offset="1" stop-color="#E1BA04" stop-opacity="0.2"/>
</linearGradient>
</defs>
</svg>
