<svg width="930" height="249" viewBox="0 0 930 249" fill="none" xmlns="http://www.w3.org/2000/svg">
<g clip-path="url(#clip0)">
<path d="M371.619 75.5208H391.885V173.502H371.619V75.5208ZM437.243 74.5145H438.828L487.311 127.53L535.105 74.4688H536.851V173.502H517.297V136.77C517.297 130.138 518.033 119.617 518.033 119.617C514.741 124.363 511.214 128.943 507.463 133.34L487.909 155.204H486.025L466.494 133.454C462.743 129.058 459.215 124.478 455.924 119.731C455.924 119.731 456.659 130.252 456.659 136.885V173.502H437.266V74.4688L437.243 74.5145ZM570.192 124.511C570.192 95.5561 592.779 74.1943 621.134 74.1943C649.488 74.1943 672.098 95.5104 672.098 124.511C672.098 153.512 649.511 174.828 621.134 174.828C592.756 174.828 570.192 153.466 570.192 124.511ZM651.257 124.511C651.257 106.214 639.102 92.2398 621.157 92.2398C603.211 92.2398 591.056 106.214 591.056 124.511C591.056 142.808 603.188 156.806 621.18 156.806C639.171 156.806 651.257 142.808 651.257 124.511ZM737.493 127.965C733.316 123.739 729.402 119.263 725.774 114.562C726.567 120.487 727.05 126.45 727.222 132.425V173.593H708.265V74.6517H710.287L759.942 121.058C764.052 125.279 767.889 129.756 771.431 134.46C771.431 134.46 770.121 123.368 770.121 116.598V75.4294H789.078V174.279H787.056L737.493 127.965ZM828.117 124.511C828.117 95.5561 850.704 74.1943 879.081 74.1943C907.459 74.1943 930.023 95.5104 930.023 124.511C930.023 153.512 907.436 174.828 879.081 174.828C850.727 174.828 828.094 153.466 828.094 124.511H828.117ZM909.182 124.511C909.182 106.214 897.027 92.2398 879.081 92.2398C861.136 92.2398 848.981 106.214 848.981 124.511C848.981 142.808 861.113 156.806 879.059 156.806C897.004 156.806 909.159 142.808 909.159 124.511H909.182ZM251.652 173.502H271.918V129.36L307.672 173.456H333.131L293.747 124.42L333.131 75.4751H307.695L271.918 119.891V75.5208H251.652V173.502Z" fill="#646464"/>
<path d="M62.0628 61.7754H188.096L125.068 0L62.0628 61.7754Z" fill="#FFCC32"/>
<path d="M188.096 187.225H62.0628L125.068 249L188.096 187.225Z" fill="#FFCC32"/>
<path d="M62.0628 187.224V61.7749L0 124.488L62.0628 187.224Z" fill="#FFCC32"/>
<path d="M188.096 187.224V61.7749L126.056 124.488L188.096 187.224Z" fill="#FFCC32"/>
</g>
<defs>
<clipPath id="clip0">
<rect width="930" height="249" fill="white"/>
</clipPath>
</defs>
</svg>
