<svg width="839" height="229" viewBox="0 0 839 229" fill="none" xmlns="http://www.w3.org/2000/svg">
<g clip-path="url(#clip0)">
<path d="M78.6172 170.767C78.6172 144.535 99.6037 133.387 114.735 133.387C175.918 133.387 209.076 227.886 209.076 227.886C209.076 227.886 197.892 229 188.352 229C111.775 229 78.6172 200.277 78.6172 170.767Z" fill="url(#paint0_linear)"/>
<path d="M0 5.1146C0 5.1146 16.7103 2.62262 26.3154 2.62262C26.3154 19.4763 26.3154 151.158 26.3154 151.158C26.3154 151.158 50.7887 144.928 70.3278 144.928C125.919 144.928 153.353 177.192 153.353 177.192C153.353 177.192 126.38 163.946 99.4063 163.946C42.4993 164.011 0 193.784 0 193.784V5.1146Z" fill="#46331A"/>
<path d="M52.8281 43.6098C52.8281 43.6098 71.9068 41.1178 79.8014 41.1178C79.8014 59.5453 79.8014 126.37 79.8014 126.37C79.8014 126.37 71.512 125.845 66.3147 125.845C61.1175 125.845 52.8281 126.37 52.8281 126.37V43.6098Z" fill="#46331A"/>
<path d="M94.7354 41.1178H121.709L150.787 126.37C150.787 126.37 131.708 118.894 122.761 118.894L94.7354 41.1178Z" fill="#46331A"/>
<path d="M188.155 41.1178H217.628L179.01 144.535C179.01 144.535 167.366 135.42 159.076 130.895L188.155 41.1178Z" fill="#46331A"/>
<path d="M230.72 43.413C230.72 43.413 249.404 41.1178 257.167 41.1178C257.167 56.7255 257.167 164.405 257.167 164.405H230.72V43.413Z" fill="#46331A"/>
<path d="M275.522 43.4125L293.548 41.1173L298.219 52.3968C298.219 52.3968 308.482 38.7565 333.087 38.7565C362.955 38.7565 375.126 58.9546 375.126 81.5792C375.126 104.204 375.126 164.405 375.126 164.405H349.6C349.6 164.405 349.6 92.7275 349.6 81.8415C349.6 67.2831 338.087 62.627 327.824 62.627C307.561 62.627 301.048 73.5131 301.048 73.5131V164.405H275.522V43.4125Z" fill="#46331A"/>
<path d="M426.375 126.566C417.888 126.566 413.48 124.271 413.48 119.943C413.48 116.992 417.099 114.106 420.98 111.811C425.717 112.926 430.98 113.516 436.901 113.516C468.216 113.516 482.164 101.909 482.164 76.5953C482.164 71.6769 481.44 67.2175 480.124 63.2828L493.15 52.9214L489.598 43.4125L468.48 47.4128C460.519 41.6419 449.335 38.7565 436.046 38.7565C401.573 38.7565 390.783 56.4627 390.783 76.5953C390.783 88.1371 395.652 98.564 405.586 105.384C398.678 108.401 389.731 114.5 389.731 125.714C389.731 134.763 393.612 140.338 399.665 143.748C393.875 148.273 388.678 155.158 388.678 165.389C388.678 188.341 411.112 197.653 439.072 197.653C467.032 197.653 493.019 187.947 493.019 158.765C493.216 129.648 461.045 126.566 426.375 126.566ZM436.769 58.6267C452.032 58.6267 457.295 64.2009 457.295 76.5953C457.295 88.9896 452.296 94.5638 436.769 94.5638C421.243 94.5638 416.507 86.8255 416.507 76.5953C416.507 66.365 422.954 58.6267 436.769 58.6267ZM440.454 177.258C418.217 177.258 410.98 171.028 410.98 161.519C410.98 156.732 415.191 152.338 421.375 149.125C443.48 150.961 469.072 147.682 469.072 162.962C469.137 171.881 462.69 177.258 440.454 177.258Z" fill="#46331A"/>
<path d="M228.812 12.1976C228.812 19.0178 231.641 24.5919 243.878 24.5919C256.18 24.5919 260.325 20.4605 260.325 12.1976C260.325 3.93471 254.996 0 244.601 0C234.207 0 228.812 5.11512 228.812 12.1976Z" fill="#46331A"/>
<path d="M51.2492 12.1976C51.2492 19.0178 54.0781 24.5919 66.3148 24.5919C78.5514 24.5919 82.7619 20.4605 82.7619 12.1976C82.7619 3.93471 77.433 0 67.0384 0C56.6439 0 51.2492 5.11512 51.2492 12.1976Z" fill="#46331A"/>
<path d="M556.702 53.5123V43.2165H524.334C524.334 24.3955 524.334 10.2961 524.334 10.2961L514.992 11.9356L511.9 43.151H496.769L500.058 53.5123H511.9C511.9 72.9236 511.9 114.631 511.9 135.617C511.9 163.553 532.886 166.242 541.57 166.242C547.36 166.242 555.649 164.406 555.649 164.406L554.794 153.06C554.794 153.06 553.149 156.143 544.597 156.143C536.11 156.143 524.268 150.568 524.268 137.912C524.268 130.501 524.268 87.5476 524.268 53.5123H556.702Z" fill="#46331A"/>
<path d="M570.781 45.0528L581.372 42.7575L582.622 73.7761C582.622 73.7761 591.109 41.5115 622.227 41.5115C630.714 41.5115 633.016 43.61 633.016 43.61L631.766 56.4634C631.766 56.4634 628.477 54.3649 622.424 54.3649C602.293 54.3649 583.807 72.7925 583.807 96.9909V164.012H570.715V45.0528H570.781Z" fill="#46331A"/>
<path d="M644.529 94.5646H719.989C719.989 94.5646 722.62 52.3977 685.252 52.3977C657.227 52.3977 649.003 72.2679 649.003 101.45C649.003 130.633 655.056 154.962 692.292 154.962C711.568 154.962 725.12 146.765 725.12 146.765L727.16 157.454C727.16 157.454 710.055 167.094 691.042 167.094C672.029 167.094 636.24 165.717 636.24 99.1551C636.24 60.8573 654.134 41.5772 684.923 41.5772C715.712 41.5772 731.304 60.5294 731.304 96.7943C731.304 101.582 731.304 102.762 731.304 102.762H644.2L644.529 94.5646Z" fill="#46331A"/>
<path d="M752.159 94.5646H827.619C827.619 94.5646 830.25 52.3977 792.882 52.3977C764.856 52.3977 756.633 72.2679 756.633 101.45C756.633 130.633 762.685 154.962 799.922 154.962C819.198 154.962 832.75 146.765 832.75 146.765L834.79 157.454C834.79 157.454 817.685 167.094 798.672 167.094C779.659 167.094 743.87 165.717 743.87 99.1551C743.87 60.8573 761.764 41.5772 792.553 41.5772C823.342 41.5772 838.934 60.5294 838.934 96.7943C838.934 101.582 838.934 102.762 838.934 102.762H751.765L752.159 94.5646Z" fill="#46331A"/>
</g>
<defs>
<linearGradient id="paint0_linear" x1="143.844" y1="227.815" x2="143.844" y2="139.41" gradientUnits="userSpaceOnUse">
<stop stop-color="#55B948"/>
<stop offset="1" stop-color="#A9CF38"/>
</linearGradient>
<clipPath id="clip0">
<rect width="839" height="229" fill="white"/>
</clipPath>
</defs>
</svg>
