<svg width="839" height="180" viewBox="0 0 839 180" fill="none" xmlns="http://www.w3.org/2000/svg">
<g clip-path="url(#clip0)">
<path d="M296.15 103.984L291.15 118.138H290.733C289.899 114.946 288.372 110.09 285.871 104.262L259.062 36.9634H232.809V144.225H250.172V78.0363C250.172 73.8735 250.172 69.1557 250.033 63.3278C249.894 60.4138 249.616 58.1937 249.477 56.5285H249.894C250.728 60.6913 251.7 63.7441 252.395 65.6867L284.621 143.947H296.845L328.794 64.9929C329.488 63.189 330.183 59.5813 330.877 56.5285H331.294C330.877 64.4378 330.599 71.5146 330.46 75.8161V143.808H348.935V36.6859H323.654L296.15 103.984ZM366.437 66.9355H384.495V143.808H366.437V66.9355ZM375.605 34.4658C372.549 34.4658 370.049 35.5758 367.965 37.5185C365.882 39.4611 364.771 41.9588 364.771 45.0115C364.771 47.9254 365.882 50.4231 367.965 52.3658C370.049 54.3084 372.549 55.2797 375.605 55.2797C378.661 55.2797 381.3 54.1696 383.245 52.3658C385.329 50.4231 386.44 47.9254 386.44 45.0115C386.44 42.0975 385.329 39.5999 383.245 37.5185C381.439 35.5758 378.8 34.4658 375.605 34.4658ZM448.532 66.2417C445.198 65.5479 441.725 65.1316 438.391 65.1316C430.196 65.1316 422.695 66.9355 416.444 70.5433C410.193 74.151 405.193 79.1464 401.998 85.3906C398.664 91.7735 396.997 99.1278 396.997 107.592C396.997 114.946 398.664 121.468 401.859 127.435C405.054 133.263 409.499 137.98 415.472 141.172C421.167 144.363 427.834 146.029 435.335 146.029C443.948 146.029 451.31 144.225 457.144 140.894L457.283 140.756V124.105L456.588 124.66C453.949 126.602 450.893 128.267 447.837 129.239C444.642 130.349 441.725 130.904 439.225 130.904C432.002 130.904 426.306 128.822 422.278 124.243C418.111 119.803 416.027 113.698 416.027 106.066C416.027 98.1565 418.111 91.9123 422.417 87.3332C426.723 82.7541 432.418 80.3952 439.364 80.3952C445.198 80.3952 451.171 82.3379 456.588 86.2231L457.283 86.7782V69.1557L457.144 69.0169C454.782 68.0456 452.143 66.9355 448.532 66.2417ZM508.123 65.6867C503.678 65.6867 499.511 67.0743 495.899 69.9882C492.843 72.4859 490.759 76.0937 488.954 80.3952H488.815V66.9355H470.757V143.808H488.815V104.539C488.815 97.8789 490.204 92.3285 493.26 88.3045C496.316 84.1417 500.205 82.0603 504.928 82.0603C506.595 82.0603 508.262 82.4766 510.345 82.7541C512.29 83.3092 513.679 83.8642 514.651 84.558L515.346 85.113V67.0743L514.929 66.9355C513.679 66.103 511.179 65.6867 508.123 65.6867ZM557.296 65.2704C544.655 65.2704 534.515 69.0169 527.431 76.3712C520.208 83.7255 516.735 93.8549 516.735 106.621C516.735 118.554 520.347 128.267 527.292 135.344C534.237 142.282 543.683 145.89 555.49 145.89C567.853 145.89 577.715 142.143 584.8 134.65C592.023 127.157 595.496 117.167 595.496 104.817C595.496 92.6061 592.162 82.8929 585.355 75.8161C578.827 68.7394 569.242 65.2704 557.296 65.2704ZM571.742 124.382C568.409 128.684 563.13 130.765 556.601 130.765C550.073 130.765 544.794 128.684 541.044 124.105C537.293 119.803 535.488 113.559 535.488 105.649C535.488 97.4627 537.432 91.2185 541.044 86.7782C544.794 82.3379 549.934 80.1177 556.463 80.1177C562.852 80.1177 567.853 82.1991 571.465 86.5006C575.076 90.8022 577.021 97.0464 577.021 105.233C576.743 113.559 575.215 120.08 571.742 124.382ZM635.779 98.8503C630.083 96.4913 626.472 94.6875 624.805 93.1611C623.416 91.7735 622.721 89.8309 622.721 87.3332C622.721 85.2518 623.555 83.1704 625.638 81.7828C627.722 80.3952 630.083 79.7014 633.556 79.7014C636.612 79.7014 639.807 80.2565 642.863 81.089C645.919 81.9216 648.697 83.1704 650.919 84.8355L651.614 85.3906V68.4619L651.197 68.3231C649.114 67.4906 646.336 66.658 643.002 65.9642C639.668 65.4092 636.612 65.1316 634.112 65.1316C625.499 65.1316 618.415 67.213 612.859 71.7921C607.303 76.0937 604.663 81.9216 604.663 88.7208C604.663 92.3285 605.219 95.52 606.469 98.1565C607.719 100.793 609.525 103.291 612.025 105.372C614.526 107.315 618.137 109.535 623.138 111.616C627.305 113.42 630.5 114.808 632.445 115.918C634.389 117.028 635.64 118.277 636.612 119.248C637.307 120.358 637.723 121.746 637.723 123.549C637.723 128.684 633.834 131.181 625.916 131.181C622.86 131.181 619.665 130.626 615.915 129.377C612.164 128.129 608.692 126.325 605.775 124.243L605.08 123.688V141.311L605.497 141.449C608.136 142.698 611.331 143.531 615.22 144.502C619.11 145.196 622.582 145.751 625.638 145.751C634.945 145.751 642.585 143.67 648.002 139.091C653.559 134.65 656.476 128.961 656.476 121.607C656.476 116.473 655.087 111.894 652.031 108.425C648.002 105.094 643.002 101.625 635.779 98.8503ZM704.121 65.2704C691.48 65.2704 681.34 69.0169 674.256 76.3712C667.172 83.7255 663.56 93.8549 663.56 106.621C663.56 118.554 667.172 128.267 674.117 135.344C681.062 142.282 690.508 145.89 702.315 145.89C714.678 145.89 724.54 142.143 731.625 134.65C738.848 127.157 742.321 117.167 742.321 104.817C742.321 92.6061 738.987 82.8929 732.18 75.8161C725.652 68.7394 716.067 65.2704 704.121 65.2704ZM718.428 124.382C715.095 128.684 709.816 130.765 703.288 130.765C696.62 130.765 691.48 128.684 687.73 124.105C683.979 119.803 682.174 113.559 682.174 105.649C682.174 97.4627 684.118 91.2185 687.73 86.7782C691.48 82.3379 696.62 80.1177 703.149 80.1177C709.399 80.1177 714.539 82.1991 718.151 86.5006C721.762 90.8022 723.707 97.0464 723.707 105.233C723.707 113.559 721.901 120.08 718.428 124.382ZM838.861 81.7828V66.9355H820.664V44.1789L820.109 44.3177L802.884 49.4518L802.467 49.5906V66.9355H775.241V57.2223C775.241 52.782 776.353 49.313 778.297 47.0929C780.242 44.8727 783.159 43.7627 786.771 43.7627C789.271 43.7627 791.91 44.3177 794.827 45.5665L795.522 45.9828V30.303L795.105 30.1642C792.605 29.3317 789.271 28.7766 784.965 28.7766C779.548 28.7766 774.825 30.0254 770.519 32.1068C766.213 34.4658 763.018 37.6572 760.656 41.9588C758.295 46.1216 757.045 50.8394 757.045 56.251V66.9355H744.404V81.6441H757.045V143.808H775.241V81.7828H802.467V121.329C802.467 137.564 810.107 145.751 825.387 145.751C827.887 145.751 830.527 145.335 833.027 144.918C835.666 144.363 837.611 143.67 838.722 143.115L838.861 142.976V128.129L838.167 128.684C837.055 129.377 836.083 129.932 834.416 130.349C833.027 130.765 831.777 130.904 830.804 130.904C827.193 130.904 824.693 130.071 822.887 127.99C821.22 126.047 820.386 122.856 820.386 118.138V81.7828H838.861Z" fill="white"/>
<path d="M0 0.885986H85.1502V85.9457H0V0.885986Z" fill="#F25022"/>
<path d="M94.0402 0.885986H179.19V85.9457H94.0402V0.885986Z" fill="#7FBA00"/>
<path d="M0 94.8262H85.1502V179.886H0V94.8262Z" fill="#00A4EF"/>
<path d="M94.0402 94.8262H179.19V179.886H94.0402V94.8262Z" fill="#FFB900"/>
</g>
<defs>
<clipPath id="clip0">
<rect y="0.885986" width="839" height="179" fill="white"/>
</clipPath>
</defs>
</svg>
