<svg width="839" height="180" viewBox="0 0 839 180" fill="none" xmlns="http://www.w3.org/2000/svg">
<g clip-path="url(#clip0)">
<path d="M296.15 103.207L291.15 117.361H290.733C289.9 114.169 288.372 109.312 285.871 103.485L259.062 36.1861H232.809V143.447H250.172V77.259C250.172 73.0962 250.172 68.3783 250.033 62.5504C249.894 59.6365 249.616 57.4163 249.477 55.7512H249.894C250.728 59.914 251.7 62.9667 252.395 64.9093L284.621 143.17H296.845L328.794 64.2155C329.488 62.4117 330.183 58.8039 330.877 55.7512H331.294C330.877 63.6605 330.599 70.7373 330.46 75.0388V143.031H348.935V35.9086H323.654L296.15 103.207ZM366.437 66.1582H384.495V143.031H366.437V66.1582ZM375.605 33.6884C372.549 33.6884 370.049 34.7985 367.965 36.7411C365.882 38.6838 364.771 41.1814 364.771 44.2341C364.771 47.1481 365.882 49.6458 367.965 51.5884C370.049 53.531 372.549 54.5024 375.605 54.5024C378.661 54.5024 381.3 53.3923 383.245 51.5884C385.329 49.6458 386.44 47.1481 386.44 44.2341C386.44 41.3202 385.329 38.8225 383.245 36.7411C381.439 34.7985 378.8 33.6884 375.605 33.6884ZM448.532 65.4644C445.198 64.7706 441.725 64.3543 438.391 64.3543C430.196 64.3543 422.695 66.1582 416.444 69.7659C410.193 73.3737 405.193 78.369 401.998 84.6132C398.664 90.9962 396.997 98.3504 396.997 106.815C396.997 114.169 398.664 120.691 401.859 126.657C405.054 132.485 409.499 137.203 415.472 140.395C421.167 143.586 427.834 145.251 435.335 145.251C443.948 145.251 451.31 143.447 457.144 140.117L457.283 139.978V123.327L456.588 123.882C453.949 125.825 450.893 127.49 447.837 128.461C444.642 129.571 441.725 130.126 439.225 130.126C432.002 130.126 426.306 128.045 422.278 123.466C418.111 119.026 416.027 112.92 416.027 105.288C416.027 97.3791 418.111 91.1349 422.417 86.5559C426.723 81.9768 432.418 79.6179 439.364 79.6179C445.198 79.6179 451.171 81.5605 456.588 85.4458L457.283 86.0008V68.3783L457.144 68.2396C454.782 67.2683 452.143 66.1582 448.532 65.4644ZM508.123 64.9093C503.678 64.9093 499.511 66.2969 495.899 69.2109C492.843 71.7086 490.759 75.3163 488.954 79.6179H488.815V66.1582H470.757V143.031H488.815V103.762C488.815 97.1016 490.204 91.5512 493.26 87.5272C496.316 83.3644 500.205 81.283 504.928 81.283C506.595 81.283 508.262 81.6993 510.345 81.9768C512.29 82.5318 513.679 83.0869 514.651 83.7807L515.346 84.3357V66.2969L514.929 66.1582C513.679 65.3256 511.179 64.9093 508.123 64.9093ZM557.296 64.4931C544.655 64.4931 534.515 68.2396 527.431 75.5938C520.208 82.9481 516.735 93.0776 516.735 105.843C516.735 117.777 520.347 127.49 527.292 134.567C534.237 141.505 543.683 145.112 555.49 145.112C567.853 145.112 577.715 141.366 584.8 133.873C592.023 126.38 595.496 116.389 595.496 104.04C595.496 91.8287 592.162 82.1155 585.355 75.0388C578.827 67.9621 569.242 64.4931 557.296 64.4931ZM571.742 123.605C568.409 127.906 563.13 129.988 556.602 129.988C550.073 129.988 544.794 127.906 541.044 123.327C537.293 119.026 535.488 112.781 535.488 104.872C535.488 96.6853 537.432 90.4411 541.044 86.0008C544.794 81.5605 549.934 79.3404 556.463 79.3404C562.852 79.3404 567.853 81.4217 571.465 85.7233C575.076 90.0248 577.021 96.269 577.021 104.456C576.743 112.781 575.215 119.303 571.742 123.605ZM635.779 98.0729C630.083 95.714 626.472 93.9101 624.805 92.3838C623.416 90.9962 622.721 89.0535 622.721 86.5559C622.721 84.4745 623.555 82.3931 625.638 81.0055C627.722 79.6179 630.083 78.9241 633.556 78.9241C636.612 78.9241 639.807 79.4791 642.863 80.3117C645.919 81.1442 648.697 82.3931 650.92 84.0582L651.614 84.6132V67.6845L651.197 67.5458C649.114 66.7132 646.336 65.8807 643.002 65.1869C639.668 64.6318 636.612 64.3543 634.112 64.3543C625.499 64.3543 618.415 66.4357 612.859 71.0148C607.303 75.3163 604.663 81.1442 604.663 87.9434C604.663 91.5512 605.219 94.7427 606.469 97.3791C607.719 100.016 609.525 102.513 612.025 104.595C614.526 106.537 618.137 108.757 623.138 110.839C627.305 112.643 630.5 114.03 632.445 115.14C634.39 116.25 635.64 117.499 636.612 118.471C637.307 119.581 637.723 120.968 637.723 122.772C637.723 127.906 633.834 130.404 625.916 130.404C622.86 130.404 619.665 129.849 615.915 128.6C612.164 127.351 608.692 125.547 605.775 123.466L605.08 122.911V140.533L605.497 140.672C608.136 141.921 611.331 142.754 615.22 143.725C619.11 144.419 622.582 144.974 625.638 144.974C634.945 144.974 642.585 142.892 648.002 138.313C653.559 133.873 656.476 128.184 656.476 120.829C656.476 115.695 655.087 111.116 652.031 107.647C648.002 104.317 643.002 100.848 635.779 98.0729ZM704.121 64.4931C691.48 64.4931 681.34 68.2396 674.256 75.5938C667.172 82.9481 663.56 93.0776 663.56 105.843C663.56 117.777 667.172 127.49 674.117 134.567C681.062 141.505 690.508 145.112 702.315 145.112C714.678 145.112 724.54 141.366 731.625 133.873C738.848 126.38 742.321 116.389 742.321 104.04C742.321 91.8287 738.987 82.1155 732.18 75.0388C725.652 67.9621 716.067 64.4931 704.121 64.4931ZM718.428 123.605C715.095 127.906 709.816 129.988 703.288 129.988C696.62 129.988 691.48 127.906 687.73 123.327C683.979 119.026 682.174 112.781 682.174 104.872C682.174 96.6853 684.118 90.4411 687.73 86.0008C691.48 81.5605 696.62 79.3404 703.149 79.3404C709.4 79.3404 714.539 81.4217 718.151 85.7233C721.762 90.0248 723.707 96.269 723.707 104.456C723.707 112.781 721.901 119.303 718.428 123.605ZM838.861 81.0055V66.1582H820.664V43.4016L820.109 43.5404L802.884 48.6745L802.467 48.8132V66.1582H775.241V56.445C775.241 52.0047 776.353 48.5357 778.297 46.3155C780.242 44.0954 783.159 42.9853 786.771 42.9853C789.271 42.9853 791.91 43.5404 794.827 44.7892L795.522 45.2055V29.5256L795.105 29.3869C792.605 28.5543 789.271 27.9993 784.965 27.9993C779.548 27.9993 774.825 29.2481 770.519 31.3295C766.213 33.6884 763.018 36.8799 760.656 41.1814C758.295 45.3442 757.045 50.0621 757.045 55.4737V66.1582H744.404V80.8667H757.045V143.031H775.241V81.0055H802.467V120.552C802.467 136.787 810.107 144.974 825.387 144.974C827.887 144.974 830.527 144.557 833.027 144.141C835.666 143.586 837.611 142.892 838.722 142.337L838.861 142.198V127.351L838.167 127.906C837.055 128.6 836.083 129.155 834.416 129.571C833.027 129.988 831.777 130.126 830.804 130.126C827.193 130.126 824.693 129.294 822.887 127.212C821.22 125.27 820.386 122.078 820.386 117.361V81.0055H838.861Z" fill="#737373"/>
<path d="M0 0.108643H85.1502V85.1683H0V0.108643Z" fill="#F25022"/>
<path d="M94.0402 0.108643H179.19V85.1683H94.0402V0.108643Z" fill="#7FBA00"/>
<path d="M0 94.0488H85.1502V179.109H0V94.0488Z" fill="#00A4EF"/>
<path d="M94.0402 94.0488H179.19V179.109H94.0402V94.0488Z" fill="#FFB900"/>
</g>
<defs>
<clipPath id="clip0">
<rect y="0.108643" width="839" height="179" fill="white"/>
</clipPath>
</defs>
</svg>
