<svg width="1141" height="248" viewBox="0 0 1141 248" fill="none" xmlns="http://www.w3.org/2000/svg">
<g clip-path="url(#clip0)">
<path d="M236.861 0.885986H0V239.861H236.861V0.885986Z" fill="#ED2124"/>
<path d="M190.019 22.2866C174.818 22.2866 162.003 31.5603 152.192 43.0632L157.318 24.07L116.663 25.8534L114.895 34.7704H129.125C133.102 34.7704 135.93 38.6047 134.781 42.439L93.684 180.117H114.895L132.837 114.042C136.195 126.883 144.238 139.099 163.505 139.099C204.16 139.099 224.488 88.2722 224.488 65.0881C224.488 41.904 211.231 22.2866 190.019 22.2866ZM160.854 128.399C140.526 128.399 138.758 109.673 138.758 101.648C138.758 67.7632 165.273 32.987 182.949 32.987C202.393 32.987 203.277 54.3877 203.277 61.5213C203.277 92.7307 182.949 128.399 160.854 128.399Z" fill="white"/>
<path d="M286.178 35.6622H307.566L310.218 25.8535H288.741L295.193 0.885986H275.749C275.749 0.885986 273.009 11.4972 269.297 25.8535H250.118L247.467 35.6622H266.823C259.575 64.0181 250.295 100.043 249.235 104.323C247.467 111.456 246.583 113.24 246.583 119.482C246.583 134.641 258.073 139.099 266.027 139.099C288.122 139.099 307.566 101.648 307.566 101.648L300.496 97.1892C300.496 97.1892 285.471 127.507 271.33 127.507C264.259 127.507 266.027 113.24 266.027 113.24L286.178 35.6622Z" fill="#ED2124"/>
<path d="M506.424 97.1893C506.424 97.1893 492.283 125.724 479.909 125.724C468.42 125.724 493.167 71.3301 493.167 45.4709C493.167 32.0954 485.035 23.1785 472.485 23.1785C453.837 23.1785 438.724 40.3882 427.146 61.3431C428.03 55.2796 428.648 49.8402 428.648 45.4709C428.648 32.0954 420.694 23.1785 408.321 23.1785C390.026 23.1785 375.089 40.3882 363.777 61.4323L372.968 24.0702L336.732 25.8536L334.964 33.8788H344.598C349.105 33.8788 352.375 38.159 351.226 42.5283L327.01 136.424L345.57 135.532L348.398 124.029C355.292 97.6352 374.559 34.7705 400.366 34.7705C408.321 34.7705 411.856 39.229 411.856 49.0377C411.856 57.0629 389.761 136.424 389.761 136.424L399.836 135.978L408.409 135.532C408.409 135.532 408.586 134.819 408.939 133.481C410.442 128.577 414.419 115.558 418.396 100.489C428.118 71.3301 444.292 34.7705 464.354 34.7705C471.955 34.7705 475.49 41.9041 475.49 49.0377C475.49 57.0629 458.698 108.781 458.698 119.482C458.698 130.182 462.233 137.316 472.839 137.316C494.934 137.316 512.61 100.756 512.61 100.756L506.424 97.1893Z" fill="#ED2124"/>
<path d="M721.367 185.11H731.619L732.856 180.384H722.604L727.465 163.085H718.185C718.185 163.085 715.091 173.518 713.324 180.384H704.132L702.895 185.11H712.175C708.728 198.664 706.077 210.524 705.546 212.575C704.663 215.963 704.309 216.855 704.309 219.797C704.309 227.02 709.789 229.16 713.589 229.16C724.106 229.16 733.386 211.237 733.386 211.237L730.028 209.097C730.028 209.097 722.869 223.543 716.064 223.543C712.705 223.543 713.501 216.766 713.501 216.766L721.367 185.11Z" fill="white"/>
<path d="M940.552 185.11H950.804L952.041 180.384H941.789L946.65 163.085H937.37C937.37 163.085 934.277 173.518 932.509 180.384H923.317L922.08 185.11H931.36C927.913 198.664 925.262 210.524 924.731 212.575C923.848 215.963 923.494 216.855 923.494 219.797C923.494 227.02 928.974 229.16 932.774 229.16C943.291 229.16 952.572 211.237 952.572 211.237L949.213 209.097C949.213 209.097 942.054 223.543 935.249 223.543C931.89 223.543 932.686 216.766 932.686 216.766L940.552 185.11Z" fill="white"/>
<path d="M302.263 223.81C299.789 223.81 298.728 222.027 298.728 221.135C298.728 218.46 319.056 150.691 319.056 150.691L298.728 151.583L297.844 156.041H305.18C307.213 156.041 308.715 158.092 308.097 160.054L299.612 187.25C299.612 187.25 298.728 178.334 283.703 178.334C273.098 178.334 259.84 193.492 259.84 210.435C259.84 222.027 267.795 229.16 276.633 229.16C285.471 229.16 291.658 219.352 291.658 219.352C291.658 219.352 291.658 229.16 299.612 229.16C307.566 229.16 316.404 212.218 316.404 212.218L313.753 210.435C313.753 210.435 305.799 223.81 302.263 223.81ZM278.4 224.702C273.098 224.702 268.679 219.352 268.679 213.11C268.679 198.843 277.517 182.792 288.122 182.792C294.309 182.792 297.844 189.034 297.844 193.492C297.844 205.976 288.122 224.702 278.4 224.702Z" fill="white"/>
<path d="M351.757 178.333C336.732 178.333 323.475 194.384 323.475 207.759C323.475 212.218 327.01 229.16 343.803 229.16C360.595 229.16 369.433 211.326 369.433 198.843C369.433 186.359 360.595 178.333 351.757 178.333ZM342.919 225.593C335.848 225.593 333.197 219.352 333.197 211.326C333.197 205.976 338.5 181.9 350.873 181.9C359.711 181.9 360.595 189.034 360.595 194.384C360.595 199.734 357.06 225.593 342.919 225.593Z" fill="white"/>
<path d="M407.437 178.333C415.391 178.333 418.926 183.684 418.926 189.034C418.926 194.384 416.275 196.167 413.624 196.167C410.972 196.167 408.321 194.384 408.321 191.709C408.321 186.359 413.624 186.359 413.624 186.359C413.624 186.359 414.507 181.009 408.321 181.009C398.599 181.009 388.877 195.276 388.877 209.543C388.877 223.81 395.947 224.702 398.599 224.702C405.669 224.702 413.624 214.893 413.624 214.893L416.275 217.568C416.275 217.568 408.321 229.16 395.947 229.16C383.574 229.16 379.155 217.568 379.155 209.543C379.155 196.167 389.761 178.333 407.437 178.333Z" fill="white"/>
<path d="M430.416 179.225L448.976 178.333C448.976 178.333 438.37 214.893 438.37 218.46C438.37 222.027 441.022 223.632 443.673 223.81C457.814 224.702 469.304 179.225 469.304 179.225H478.142C478.142 179.225 466.652 214.001 466.652 222.027C466.652 223.81 467.536 224.702 469.304 224.702C473.723 224.702 480.793 211.326 480.793 211.326L484.328 213.11C484.328 213.11 477.258 229.16 465.768 229.16C454.279 229.16 461.349 211.326 461.349 211.326C461.349 211.326 453.395 229.16 440.138 229.16C432.184 229.16 430.416 222.027 430.416 219.352C430.416 214.001 435.807 196.702 438.547 188.32C439.342 186.002 437.575 183.684 435.189 183.684H429.532L430.416 179.225Z" fill="white"/>
<path d="M498.469 182.792L500.237 179.225L516.146 178.333L512.61 192.601C512.61 192.601 521.449 178.333 531.17 178.333C542.66 178.333 540.009 192.601 540.009 192.601C540.009 192.601 547.963 179.225 558.569 179.225C567.407 179.225 569.174 184.575 569.174 188.142C569.174 191.709 560.336 216.676 560.336 221.135C560.336 222.027 561.22 222.918 562.988 222.918C567.407 222.918 573.593 210.435 573.593 210.435L577.129 213.11C577.129 213.11 569.174 229.16 560.336 229.16C554.15 229.16 552.382 222.918 552.382 220.243C552.382 206.868 567.407 184.575 556.801 184.575C545.488 184.575 538.506 204.014 534.706 216.676C532.85 222.829 531.17 227.377 531.17 227.377H522.332C522.332 227.377 525.602 216.855 528.519 205.976C531.436 195.008 533.822 183.684 527.635 183.684C515.262 183.684 503.772 227.377 503.772 227.377H494.934L506.07 187.25C506.689 185.021 505.01 182.792 502.712 182.792H498.469Z" fill="white"/>
<path d="M1013.73 182.792L1015.5 179.225L1031.41 178.333L1027.87 192.601C1027.87 192.601 1036.71 178.333 1046.43 178.333C1057.92 178.333 1055.27 192.601 1055.27 192.601C1055.27 192.601 1063.22 179.225 1073.83 179.225C1082.67 179.225 1084.44 184.575 1084.44 188.142C1084.44 191.709 1075.6 216.676 1075.6 221.135C1075.6 222.027 1076.48 222.918 1078.25 222.918C1082.67 222.918 1088.86 210.435 1088.86 210.435L1092.39 213.11C1092.39 213.11 1084.44 229.16 1075.6 229.16C1069.41 229.16 1067.64 222.918 1067.64 220.243C1067.64 206.868 1082.67 184.575 1072.06 184.575C1060.75 184.575 1053.77 204.014 1049.97 216.676C1048.11 222.829 1046.43 227.377 1046.43 227.377H1037.59C1037.59 227.377 1040.86 216.855 1043.78 205.976C1046.7 195.008 1049.08 183.684 1042.9 183.684C1030.52 183.684 1019.03 227.377 1019.03 227.377H1010.2L1021.33 187.25C1021.95 185.021 1020.27 182.792 1017.97 182.792H1013.73Z" fill="white"/>
<path d="M645.182 227.377H635.46L646.596 187.25C647.215 185.021 645.536 182.792 643.238 182.792H638.995L640.763 179.225L656.672 178.333L653.136 192.601C653.136 192.601 661.091 179.225 671.696 179.225C680.534 179.225 682.302 184.575 682.302 188.142C682.302 191.709 673.464 216.676 673.464 221.135C673.464 222.027 674.348 222.918 676.115 222.918C680.534 222.918 686.721 210.435 686.721 210.435L690.256 213.11C690.256 213.11 682.302 229.16 673.464 229.16C667.277 229.16 665.51 222.918 665.51 220.243C665.51 206.868 680.534 184.575 669.929 184.575C658.616 184.575 651.634 204.014 647.833 216.676C645.977 222.829 645.182 227.377 645.182 227.377Z" fill="white"/>
<path d="M615.133 178.333C625.738 178.333 627.506 185.467 627.506 189.034C627.506 196.167 616.016 208.651 593.037 208.651L592.153 205.976C592.153 205.976 618.668 205.084 618.668 189.034C618.668 183.684 616.9 181.9 613.365 181.9C603.643 181.9 595.689 199.734 595.689 211.326C595.689 222.918 600.108 224.702 606.294 224.702C616.016 224.702 621.319 214.893 621.319 214.893L624.854 217.568C624.854 217.568 616.9 229.16 604.527 229.16C592.153 229.16 586.851 219.352 586.851 209.543C586.851 199.734 595.689 178.333 615.133 178.333Z" fill="white"/>
<path d="M986.333 178.333C996.939 178.333 998.706 185.467 998.706 189.034C998.706 196.167 987.217 208.651 964.238 208.651L963.354 205.976C963.354 205.976 989.868 205.084 989.868 189.034C989.868 183.684 988.101 181.9 984.565 181.9C974.844 181.9 966.889 199.734 966.889 211.326C966.889 222.918 971.308 224.702 977.495 224.702C987.217 224.702 992.52 214.893 992.52 214.893L996.055 217.568C996.055 217.568 988.101 229.16 975.727 229.16C963.354 229.16 958.051 219.352 958.051 209.543C958.051 199.734 966.889 178.333 986.333 178.333Z" fill="white"/>
<path d="M794.546 178.333C804.268 178.333 809.571 182.792 809.571 188.142C809.571 193.492 806.919 195.276 804.268 195.276C801.617 195.276 798.965 192.601 798.965 190.817C798.965 189.034 799.849 185.467 802.5 185.467C802.5 185.467 800.733 181.9 794.546 181.9C788.359 181.9 782.173 186.359 782.173 191.709C782.173 201.518 806.036 196.167 806.036 212.218C806.036 224.702 796.314 229.16 784.824 229.16C773.335 229.16 768.916 221.135 768.916 216.676C768.916 213.11 770.683 209.543 775.102 209.543C779.521 209.543 780.405 213.11 780.405 214.893C780.405 219.352 776.87 220.243 776.87 220.243C776.87 220.243 777.754 225.593 786.592 225.593C798.081 225.593 798.965 216.676 798.965 215.785C798.965 205.084 775.986 209.543 775.986 195.276C775.986 187.25 781.289 178.333 794.546 178.333Z" fill="white"/>
<path d="M896.184 178.333C905.906 178.333 911.209 182.792 911.209 188.142C911.209 193.492 908.558 195.276 905.906 195.276C903.255 195.276 900.603 192.601 900.603 190.817C900.603 189.034 901.487 185.467 904.139 185.467C904.139 185.467 902.371 181.9 896.184 181.9C889.998 181.9 883.811 186.359 883.811 191.709C883.811 201.518 907.674 196.167 907.674 212.218C907.674 224.702 897.952 229.16 886.462 229.16C874.973 229.16 870.554 221.135 870.554 216.676C870.554 213.11 872.321 209.543 876.741 209.543C881.16 209.543 882.043 213.11 882.043 214.893C882.043 219.352 878.508 220.243 878.508 220.243C878.508 220.243 879.392 225.593 888.23 225.593C899.72 225.593 900.603 216.676 900.603 215.785C900.603 205.084 877.624 209.543 877.624 195.276C877.624 187.25 882.927 178.333 896.184 178.333Z" fill="white"/>
<path d="M1125.98 178.333C1135.7 178.333 1141 182.792 1141 188.142C1141 193.492 1138.35 195.276 1135.7 195.276C1133.05 195.276 1130.39 192.601 1130.39 190.817C1130.39 189.034 1131.28 185.467 1133.93 185.467C1133.93 185.467 1132.16 181.9 1125.98 181.9C1119.79 181.9 1113.6 186.359 1113.6 191.709C1113.6 201.518 1137.46 196.167 1137.46 212.218C1137.46 224.702 1127.74 229.16 1116.25 229.16C1104.76 229.16 1100.34 221.135 1100.34 216.676C1100.34 213.11 1102.11 209.543 1106.53 209.543C1110.95 209.543 1111.83 213.11 1111.83 214.893C1111.83 219.352 1108.3 220.243 1108.3 220.243C1108.3 220.243 1109.18 225.593 1118.02 225.593C1129.51 225.593 1130.39 216.676 1130.39 215.785C1130.39 205.084 1107.42 209.543 1107.42 195.276C1107.42 187.25 1112.72 178.333 1125.98 178.333Z" fill="white"/>
<path d="M859.948 178.333C857.297 178.333 854.645 180.117 854.645 183.684C854.645 187.25 856.413 186.359 856.413 190.817C856.413 194.919 852.171 204.817 846.514 215.071C844.039 203.836 837.853 178.333 831.666 178.333C823.712 178.333 818.409 192.601 818.409 192.601L821.944 194.384C821.944 194.384 825.479 185.467 828.131 185.467C833.169 185.467 838.206 215.161 839.886 226.128C833.434 236.205 826.628 244.319 822.828 244.319C819.293 244.319 820.177 243.427 820.177 243.427C820.177 243.427 821.06 242.536 821.06 239.861C821.06 238.077 819.293 234.51 815.758 234.51C812.222 234.51 810.455 238.077 810.455 240.752C810.455 243.427 812.222 247.886 820.177 247.886C839.62 247.886 864.367 192.601 864.367 183.684C864.367 181.009 863.483 178.333 859.948 178.333Z" fill="white"/>
</g>
<defs>
<clipPath id="clip0">
<rect y="0.885986" width="1141" height="247" fill="white"/>
</clipPath>
</defs>
</svg>
