<svg width="240" height="52" viewBox="0 0 240 52" fill="none" xmlns="http://www.w3.org/2000/svg">
<g clip-path="url(#clip0)">
<path d="M49.7654 0H0V50.2094H49.7654V0Z" fill="#ED2124"/>
<path d="M39.924 4.49658C36.7301 4.49658 34.0376 6.44501 31.9764 8.8618L33.0534 4.87128L24.5116 5.24598L24.1402 7.11946H27.1298C27.9654 7.11946 28.5597 7.92506 28.3183 8.73066L19.6836 37.6573H24.1402L27.9097 23.7748C28.6154 26.4726 30.3052 29.0393 34.3532 29.0393C42.8951 29.0393 47.166 18.3604 47.166 13.4893C47.166 8.61825 44.3806 4.49658 39.924 4.49658ZM33.7962 26.7911C29.5253 26.7911 29.1539 22.8567 29.1539 21.1706C29.1539 14.0514 34.7246 6.74477 38.4385 6.74477C42.5237 6.74477 42.7094 11.2411 42.7094 12.7399C42.7094 19.2971 38.4385 26.7911 33.7962 26.7911Z" fill="white"/>
<path d="M60.1276 7.3066H64.6213L65.1784 5.24576H60.6661L62.0216 0H57.9364C57.9364 0 57.3608 2.22945 56.5809 5.24576H52.5514L51.9943 7.3066H56.0609C54.5383 13.2643 52.5885 20.8332 52.3657 21.7324C51.9943 23.2312 51.8086 23.6059 51.8086 24.9174C51.8086 28.1023 54.2226 29.039 55.8938 29.039C60.5361 29.039 64.6213 21.1704 64.6213 21.1704L63.1358 20.2337C63.1358 20.2337 59.979 26.6035 57.008 26.6035C55.5224 26.6035 55.8938 23.6059 55.8938 23.6059L60.1276 7.3066Z" fill="#ED2124"/>
<path d="M106.402 20.2335C106.402 20.2335 103.431 26.2287 100.832 26.2287C98.4177 26.2287 103.617 14.8004 103.617 9.36731C103.617 6.55708 101.909 4.68359 99.2719 4.68359C95.3538 4.68359 92.1785 8.29942 89.7459 12.7021C89.9316 11.4281 90.0616 10.2853 90.0616 9.36731C90.0616 6.55708 88.3904 4.68359 85.7907 4.68359C81.9469 4.68359 78.8087 8.29942 76.4318 12.7208L78.363 4.87094L70.7496 5.24564L70.3783 6.93178H72.4023C73.3493 6.93178 74.0364 7.83105 73.795 8.74906L68.707 28.4769L72.6066 28.2895L73.2008 25.8727C74.6492 20.3272 78.6973 7.11913 84.1195 7.11913C85.7907 7.11913 86.5334 8.05587 86.5334 10.1167C86.5334 11.8028 81.8912 28.4769 81.8912 28.4769L84.008 28.3832L85.8092 28.2895C85.8092 28.2895 85.8464 28.1396 85.9207 27.8586C86.2363 26.8282 87.072 24.0929 87.9076 20.9267C89.9502 14.8004 93.3483 7.11913 97.5635 7.11913C99.1605 7.11913 99.9033 8.61791 99.9033 10.1167C99.9033 11.8028 96.3751 22.6691 96.3751 24.9172C96.3751 27.1654 97.1179 28.6642 99.3462 28.6642C103.988 28.6642 107.702 20.9829 107.702 20.9829L106.402 20.2335Z" fill="#ED2124"/>
<path d="M151.563 38.7061H153.717L153.977 37.7132H151.823L152.844 34.0786H150.894C150.894 34.0786 150.244 36.2706 149.873 37.7132H147.942L147.682 38.7061H149.631C148.907 41.5538 148.35 44.0456 148.239 44.4765C148.053 45.1884 147.979 45.3757 147.979 45.994C147.979 47.5115 149.13 47.9612 149.929 47.9612C152.138 47.9612 154.088 44.1954 154.088 44.1954L153.382 43.7458C153.382 43.7458 151.878 46.7809 150.448 46.7809C149.743 46.7809 149.91 45.357 149.91 45.357L151.563 38.7061Z" fill="#515151"/>
<path d="M197.613 38.7061H199.767L200.027 37.7132H197.873L198.895 34.0786H196.945C196.945 34.0786 196.295 36.2706 195.924 37.7132H193.992L193.732 38.7061H195.682C194.958 41.5538 194.401 44.0456 194.289 44.4765C194.104 45.1884 194.03 45.3757 194.03 45.994C194.03 47.5115 195.181 47.9612 195.979 47.9612C198.189 47.9612 200.139 44.1954 200.139 44.1954L199.433 43.7458C199.433 43.7458 197.929 46.7809 196.499 46.7809C195.794 46.7809 195.961 45.357 195.961 45.357L197.613 38.7061Z" fill="#515151"/>
<path d="M63.507 46.8372C62.987 46.8372 62.7642 46.4625 62.7642 46.2752C62.7642 45.7131 67.0351 31.4746 67.0351 31.4746L62.7642 31.662L62.5785 32.5987H64.1197C64.5468 32.5987 64.8625 33.0296 64.7325 33.4418L62.9499 39.1559C62.9499 39.1559 62.7642 37.2824 59.6074 37.2824C57.3791 37.2824 54.5938 40.4673 54.5938 44.027C54.5938 46.4625 56.265 47.9613 58.1219 47.9613C59.9788 47.9613 61.2787 45.9005 61.2787 45.9005C61.2787 45.9005 61.2787 47.9613 62.9499 47.9613C64.6211 47.9613 66.478 44.4017 66.478 44.4017L65.9209 44.027C65.9209 44.027 64.2497 46.8372 63.507 46.8372ZM58.4933 47.0245C57.3791 47.0245 56.4507 45.9005 56.4507 44.589C56.4507 41.5914 58.3076 38.2192 60.5359 38.2192C61.8357 38.2192 62.5785 39.5306 62.5785 40.4673C62.5785 43.0902 60.5359 47.0245 58.4933 47.0245Z" fill="#515151"/>
<path d="M73.905 37.2822C70.7483 37.2822 67.9629 40.6545 67.9629 43.4647C67.9629 44.4015 68.7057 47.9611 72.2338 47.9611C75.7619 47.9611 77.6189 44.2141 77.6189 41.5912C77.6189 38.9684 75.7619 37.2822 73.905 37.2822ZM72.0481 47.2117C70.5626 47.2117 70.0055 45.9003 70.0055 44.2141C70.0055 43.09 71.1196 38.0316 73.7193 38.0316C75.5762 38.0316 75.7619 39.5304 75.7619 40.6545C75.7619 41.7786 75.0192 47.2117 72.0481 47.2117Z" fill="#515151"/>
<path d="M85.6042 37.2822C87.2755 37.2822 88.0182 38.4063 88.0182 39.5304C88.0182 40.6545 87.4612 41.0292 86.9041 41.0292C86.347 41.0292 85.7899 40.6545 85.7899 40.0925C85.7899 38.9684 86.9041 38.9684 86.9041 38.9684C86.9041 38.9684 87.0898 37.8443 85.7899 37.8443C83.7473 37.8443 81.7047 40.8419 81.7047 43.8394C81.7047 46.837 83.1902 47.0244 83.7473 47.0244C85.2329 47.0244 86.9041 44.9635 86.9041 44.9635L87.4612 45.5256C87.4612 45.5256 85.7899 47.9611 83.1902 47.9611C80.5906 47.9611 79.6621 45.5256 79.6621 43.8394C79.6621 41.0292 81.8904 37.2822 85.6042 37.2822Z" fill="#515151"/>
<path d="M90.4318 37.4696L94.3313 37.2822C94.3313 37.2822 92.103 44.9635 92.103 45.7129C92.103 46.4623 92.6601 46.7995 93.2172 46.837C96.1882 47.0244 98.6022 37.4696 98.6022 37.4696H100.459C100.459 37.4696 98.0451 44.7762 98.0451 46.4623C98.0451 46.837 98.2308 47.0244 98.6022 47.0244C99.5307 47.0244 101.016 44.2141 101.016 44.2141L101.759 44.5888C101.759 44.5888 100.273 47.9611 97.8594 47.9611C95.4455 47.9611 96.931 44.2141 96.931 44.2141C96.931 44.2141 95.2598 47.9611 92.4744 47.9611C90.8032 47.9611 90.4318 46.4623 90.4318 45.9003C90.4318 44.7762 91.5645 41.1416 92.1402 39.3805C92.3073 38.8934 91.9359 38.4063 91.4345 38.4063H90.2461L90.4318 37.4696Z" fill="#515151"/>
<path d="M104.731 38.219L105.102 37.4696L108.445 37.2822L107.702 40.2798C107.702 40.2798 109.559 37.2822 111.602 37.2822C114.016 37.2822 113.459 40.2798 113.459 40.2798C113.459 40.2798 115.13 37.4696 117.358 37.4696C119.215 37.4696 119.586 38.5937 119.586 39.3431C119.586 40.0925 117.729 45.3382 117.729 46.275C117.729 46.4623 117.915 46.6497 118.287 46.6497C119.215 46.6497 120.515 44.0268 120.515 44.0268L121.258 44.5888C121.258 44.5888 119.586 47.9611 117.729 47.9611C116.43 47.9611 116.058 46.6497 116.058 46.0876C116.058 43.2774 119.215 38.5937 116.987 38.5937C114.61 38.5937 113.143 42.6779 112.344 45.3382C111.954 46.6309 111.602 47.5864 111.602 47.5864H109.745C109.745 47.5864 110.432 45.3757 111.045 43.09C111.657 40.7856 112.159 38.4063 110.859 38.4063C108.259 38.4063 105.845 47.5864 105.845 47.5864H103.988L106.328 39.1557C106.458 38.6873 106.105 38.219 105.622 38.219H104.731Z" fill="#515151"/>
<path d="M212.989 38.219L213.36 37.4696L216.703 37.2822L215.96 40.2798C215.96 40.2798 217.817 37.2822 219.859 37.2822C222.273 37.2822 221.716 40.2798 221.716 40.2798C221.716 40.2798 223.388 37.4696 225.616 37.4696C227.473 37.4696 227.844 38.5937 227.844 39.3431C227.844 40.0925 225.987 45.3382 225.987 46.275C225.987 46.4623 226.173 46.6497 226.544 46.6497C227.473 46.6497 228.773 44.0268 228.773 44.0268L229.515 44.5888C229.515 44.5888 227.844 47.9611 225.987 47.9611C224.687 47.9611 224.316 46.6497 224.316 46.0876C224.316 43.2774 227.473 38.5937 225.245 38.5937C222.868 38.5937 221.401 42.6779 220.602 45.3382C220.212 46.6309 219.859 47.5864 219.859 47.5864H218.003C218.003 47.5864 218.69 45.3757 219.302 43.09C219.915 40.7856 220.417 38.4063 219.117 38.4063C216.517 38.4063 214.103 47.5864 214.103 47.5864H212.246L214.586 39.1557C214.716 38.6873 214.363 38.219 213.88 38.219H212.989Z" fill="#515151"/>
<path d="M135.556 47.5864H133.514L135.853 39.1557C135.983 38.6873 135.631 38.219 135.148 38.219H134.256L134.628 37.4696L137.97 37.2822L137.228 40.2798C137.228 40.2798 138.899 37.4696 141.127 37.4696C142.984 37.4696 143.355 38.5937 143.355 39.3431C143.355 40.0925 141.498 45.3382 141.498 46.275C141.498 46.4623 141.684 46.6497 142.055 46.6497C142.984 46.6497 144.284 44.0268 144.284 44.0268L145.027 44.5888C145.027 44.5888 143.355 47.9611 141.498 47.9611C140.199 47.9611 139.827 46.6497 139.827 46.0876C139.827 43.2774 142.984 38.5937 140.756 38.5937C138.379 38.5937 136.912 42.6779 136.113 45.3382C135.723 46.6309 135.556 47.5864 135.556 47.5864Z" fill="#515151"/>
<path d="M129.241 37.2822C131.469 37.2822 131.841 38.781 131.841 39.5304C131.841 41.0292 129.427 43.6521 124.599 43.6521L124.413 43.09C124.413 43.09 129.984 42.9027 129.984 39.5304C129.984 38.4063 129.612 38.0316 128.87 38.0316C126.827 38.0316 125.156 41.7786 125.156 44.2141C125.156 46.6497 126.084 47.0244 127.384 47.0244C129.427 47.0244 130.541 44.9635 130.541 44.9635L131.284 45.5256C131.284 45.5256 129.612 47.9611 127.013 47.9611C124.413 47.9611 123.299 45.9003 123.299 43.8394C123.299 41.7786 125.156 37.2822 129.241 37.2822Z" fill="#515151"/>
<path d="M207.233 37.2822C209.461 37.2822 209.833 38.781 209.833 39.5304C209.833 41.0292 207.419 43.6521 202.591 43.6521L202.405 43.09C202.405 43.09 207.976 42.9027 207.976 39.5304C207.976 38.4063 207.605 38.0316 206.862 38.0316C204.819 38.0316 203.148 41.7786 203.148 44.2141C203.148 46.6497 204.076 47.0244 205.376 47.0244C207.419 47.0244 208.533 44.9635 208.533 44.9635L209.276 45.5256C209.276 45.5256 207.605 47.9611 205.005 47.9611C202.405 47.9611 201.291 45.9003 201.291 43.8394C201.291 41.7786 203.148 37.2822 207.233 37.2822Z" fill="#515151"/>
<path d="M166.938 37.2822C168.98 37.2822 170.095 38.219 170.095 39.3431C170.095 40.4672 169.537 40.8419 168.98 40.8419C168.423 40.8419 167.866 40.2798 167.866 39.9051C167.866 39.5304 168.052 38.781 168.609 38.781C168.609 38.781 168.238 38.0316 166.938 38.0316C165.638 38.0316 164.338 38.9684 164.338 40.0925C164.338 42.1533 169.352 41.0292 169.352 44.4015C169.352 47.0244 167.309 47.9611 164.895 47.9611C162.481 47.9611 161.553 46.275 161.553 45.3382C161.553 44.5888 161.924 43.8394 162.853 43.8394C163.781 43.8394 163.967 44.5888 163.967 44.9635C163.967 45.9003 163.224 46.0876 163.224 46.0876C163.224 46.0876 163.41 47.2117 165.267 47.2117C167.681 47.2117 167.866 45.3382 167.866 45.1509C167.866 42.9027 163.038 43.8394 163.038 40.8419C163.038 39.1557 164.152 37.2822 166.938 37.2822Z" fill="#515151"/>
<path d="M188.291 37.2822C190.334 37.2822 191.448 38.219 191.448 39.3431C191.448 40.4672 190.891 40.8419 190.334 40.8419C189.777 40.8419 189.22 40.2798 189.22 39.9051C189.22 39.5304 189.405 38.781 189.963 38.781C189.963 38.781 189.591 38.0316 188.291 38.0316C186.991 38.0316 185.692 38.9684 185.692 40.0925C185.692 42.1533 190.705 41.0292 190.705 44.4015C190.705 47.0244 188.663 47.9611 186.249 47.9611C183.835 47.9611 182.906 46.275 182.906 45.3382C182.906 44.5888 183.278 43.8394 184.206 43.8394C185.135 43.8394 185.32 44.5888 185.32 44.9635C185.32 45.9003 184.577 46.0876 184.577 46.0876C184.577 46.0876 184.763 47.2117 186.62 47.2117C189.034 47.2117 189.22 45.3382 189.22 45.1509C189.22 42.9027 184.392 43.8394 184.392 40.8419C184.392 39.1557 185.506 37.2822 188.291 37.2822Z" fill="#515151"/>
<path d="M236.573 37.2822C238.615 37.2822 239.729 38.219 239.729 39.3431C239.729 40.4672 239.172 40.8419 238.615 40.8419C238.058 40.8419 237.501 40.2798 237.501 39.9051C237.501 39.5304 237.687 38.781 238.244 38.781C238.244 38.781 237.872 38.0316 236.573 38.0316C235.273 38.0316 233.973 38.9684 233.973 40.0925C233.973 42.1533 238.987 41.0292 238.987 44.4015C238.987 47.0244 236.944 47.9611 234.53 47.9611C232.116 47.9611 231.188 46.275 231.188 45.3382C231.188 44.5888 231.559 43.8394 232.487 43.8394C233.416 43.8394 233.601 44.5888 233.601 44.9635C233.601 45.9003 232.859 46.0876 232.859 46.0876C232.859 46.0876 233.044 47.2117 234.901 47.2117C237.315 47.2117 237.501 45.3382 237.501 45.1509C237.501 42.9027 232.673 43.8394 232.673 40.8419C232.673 39.1557 233.787 37.2822 236.573 37.2822Z" fill="#515151"/>
<path d="M180.678 37.2822C180.121 37.2822 179.564 37.6569 179.564 38.4063C179.564 39.1557 179.935 38.9684 179.935 39.9051C179.935 40.7669 179.044 42.8465 177.856 45.001C177.336 42.6404 176.036 37.2822 174.736 37.2822C173.065 37.2822 171.951 40.2798 171.951 40.2798L172.693 40.6545C172.693 40.6545 173.436 38.781 173.993 38.781C175.052 38.781 176.11 45.0197 176.463 47.3241C175.107 49.4412 173.677 51.146 172.879 51.146C172.136 51.146 172.322 50.9587 172.322 50.9587C172.322 50.9587 172.508 50.7713 172.508 50.2093C172.508 49.8346 172.136 49.0852 171.393 49.0852C170.651 49.0852 170.279 49.8346 170.279 50.3966C170.279 50.9587 170.651 51.8954 172.322 51.8954C176.407 51.8954 181.606 40.2798 181.606 38.4063C181.606 37.8443 181.421 37.2822 180.678 37.2822Z" fill="#515151"/>
</g>
<defs>
<clipPath id="clip0">
<rect width="239.728" height="51.8956" fill="white"/>
</clipPath>
</defs>
</svg>
