<svg width="1076" height="194" viewBox="0 0 1076 194" fill="none" xmlns="http://www.w3.org/2000/svg">
<g clip-path="url(#clip0)">
<path d="M290.264 57.8911C325.106 57.8911 330.742 85.2434 331.254 89.5891C325.618 90.1004 313.321 92.1454 313.321 92.1454C313.577 81.409 307.685 72.2063 288.983 70.4169C288.983 70.4169 269 70.4169 269 84.7322C269 107.739 333.048 92.9123 333.048 129.979C333.048 150.429 313.065 160.398 293.85 160.398C255.934 160.398 248.505 135.602 248.505 126.4L267.207 123.843C267.207 123.843 263.364 147.361 293.85 147.361C313.833 147.361 316.139 137.392 316.139 131.768C316.139 118.22 301.792 117.708 286.933 114.385C270.537 110.806 253.116 105.438 253.116 87.7997C253.116 71.6951 263.62 57.8911 290.264 57.8911Z" fill="white"/>
<path d="M416.566 92.1457L433.987 90.3563C433.987 90.3563 429.119 58.147 392.228 58.147C355.592 58.147 343.039 84.7324 343.039 109.017C343.039 133.302 355.592 160.399 390.178 160.399C429.375 160.399 436.292 126.911 436.292 122.566L418.359 121.287C418.359 121.287 416.566 147.362 392.996 147.362C392.996 147.362 361.229 149.918 361.229 108.25C361.229 77.8304 377.369 69.9059 391.715 69.9059C409.649 69.6503 416.566 87.0331 416.566 92.1457Z" fill="white"/>
<path d="M446.284 13.4119H462.424V71.1841C462.424 71.1841 470.622 58.147 494.191 58.147C517.761 58.147 525.959 77.3191 525.959 89.845C525.959 102.371 525.959 157.331 525.959 157.331H509.819C509.819 157.331 509.819 111.318 509.819 100.837C509.819 87.2887 506.745 72.2066 489.324 72.2066C471.903 72.2066 462.68 86.5218 462.68 100.07C462.68 113.618 462.68 157.075 462.68 157.075H446.54V13.4119H446.284Z" fill="white"/>
<path d="M590.519 57.8911C568.743 57.8911 542.099 70.4169 542.099 108.761C542.099 147.106 568.23 160.143 590.519 160.143C612.808 160.143 636.633 142.76 636.633 108.761C636.633 74.7626 614.857 57.8911 590.519 57.8911ZM591.031 147.361C575.404 147.361 560.032 139.948 560.032 109.017C560.032 78.0858 577.966 71.1838 589.75 71.1838C605.89 71.1838 618.444 81.6646 618.444 107.739C618.444 133.813 606.659 147.361 591.031 147.361Z" fill="white"/>
<path d="M696.326 57.8911C674.55 57.8911 647.906 70.4169 647.906 108.761C647.906 147.106 674.037 160.143 696.326 160.143C718.614 160.143 742.44 142.76 742.44 108.761C742.44 74.7626 720.408 57.8911 696.326 57.8911ZM696.838 147.361C681.21 147.361 665.839 139.948 665.839 109.017C665.839 78.0858 683.772 71.1838 695.557 71.1838C711.697 71.1838 724.251 81.6646 724.251 107.739C724.251 133.813 712.466 147.361 696.838 147.361Z" fill="white"/>
<path d="M839.792 57.8911C818.016 57.8911 791.372 70.4169 791.372 108.761C791.372 147.106 817.504 160.143 839.792 160.143C862.081 160.143 885.907 142.76 885.907 108.761C885.907 74.7626 864.13 57.8911 839.792 57.8911ZM840.305 147.361C824.677 147.361 809.306 139.948 809.306 109.017C809.306 78.0858 827.239 71.1838 839.024 71.1838C855.164 71.1838 867.717 81.6646 867.717 107.739C867.717 133.813 855.932 147.361 840.305 147.361Z" fill="white"/>
<path d="M775.232 13.4119H759.092V157.331H775.232V13.4119Z" fill="white"/>
<path d="M989.664 105.694V157.075H977.879V144.294C968.912 155.03 956.103 160.399 943.806 160.399C921.517 160.399 895.386 147.362 895.386 109.017C895.386 70.6728 922.029 58.147 943.806 58.147C963.02 58.147 980.697 68.6278 987.102 90.1006L969.681 91.3788C965.582 76.8079 955.334 69.9059 943.037 69.9059C930.484 69.9059 913.319 76.8079 913.319 109.017C913.319 139.948 928.947 147.362 944.318 147.362C961.227 147.362 969.681 136.625 971.218 116.43H943.549V105.694H989.664Z" fill="white"/>
<path d="M990.945 59.9363H1009.39L1033.22 98.7919L1058.58 59.9363H1076L1041.16 112.596V157.075H1025.02V112.596L990.945 59.9363Z" fill="white"/>
<path d="M95.5591 43.5759C131.17 43.5759 137.062 71.4395 137.574 76.0408C131.938 76.5521 119.129 78.5971 119.129 78.5971C119.385 67.6051 113.492 58.1468 94.2781 56.3574C94.2781 56.3574 73.7829 56.3574 73.7829 70.9282C73.7829 94.4461 139.368 79.1084 139.368 117.197C139.368 138.159 118.872 148.384 99.1457 148.384C60.2048 148.384 52.7753 123.077 52.7753 113.363L71.9896 110.806C71.9896 110.806 68.1467 134.836 99.4019 134.836C119.897 134.836 122.203 124.61 122.203 118.987C122.203 104.927 107.6 104.416 92.2286 101.092C75.0638 97.258 57.1305 91.8898 57.1305 73.7402C57.3867 57.6355 68.1467 43.5759 95.5591 43.5759Z" fill="white"/>
<path d="M96.5838 193.886C43.2962 193.886 0 150.429 0 97.2582C0 44.0873 43.2962 0.885986 96.5838 0.885986C149.871 0.885986 193.168 44.0873 193.168 97.2582C193.168 150.429 149.871 193.886 96.5838 193.886ZM96.5838 15.2012C51.2381 15.2012 14.3467 52.0118 14.3467 97.2582C14.3467 142.505 51.2381 179.571 96.5838 179.571C141.93 179.571 178.821 142.76 178.821 97.5138C178.821 52.2674 142.186 15.2012 96.5838 15.2012Z" fill="#50ADE1"/>
</g>
<defs>
<clipPath id="clip0">
<rect y="0.885986" width="1076" height="193" fill="white"/>
</clipPath>
</defs>
</svg>
