<svg width="839" height="161" viewBox="0 0 839 161" fill="none" xmlns="http://www.w3.org/2000/svg">
<path d="M63.8777 113.082L15.6396 85.1471C10.645 82.2637 4.27014 83.9766 1.39577 88.9726C-1.4786 93.9828 0.228946 100.378 5.20929 103.261L53.4475 131.196C58.4421 134.079 64.8169 132.366 67.6913 127.37C70.5799 122.36 68.8723 115.965 63.8777 113.082Z" fill="white"/>
<path d="M112.13 85.532L16.0804 29.9054C11.0858 27.022 4.71093 28.7349 1.83656 33.7309C-1.0378 38.7269 0.669742 45.136 5.65009 48.0194L101.7 103.646C106.694 106.529 113.069 104.816 115.943 99.8205C118.818 94.8245 117.124 88.4154 112.13 85.532Z" fill="white"/>
<path d="M53.4044 19.5284L101.643 47.463C106.637 50.3464 113.012 48.6335 115.886 43.6375C118.761 38.6416 117.053 32.2324 112.073 29.349L63.8489 1.40015C58.8543 -1.48324 52.4795 0.229664 49.6051 5.22564C46.7165 10.2359 48.4241 16.645 53.4044 19.5284Z" fill="white"/>
<path d="M234.937 126.103C206.463 126.103 192.508 106.529 188.15 98.8414C187.245 97.2695 187.93 95.2557 189.595 94.5189L206.512 87.0527C207.883 86.4388 209.475 86.9054 210.307 88.1825C213.098 92.505 220.664 101.543 234.961 101.543C239.221 101.543 250.875 98.8168 250.875 90.0736C250.875 84.8915 244.828 81.8215 230.334 76.4921C215.228 70.9416 194.565 63.3281 194.565 40.9543C194.565 21.0365 210.014 6.57091 231.289 6.57091C252.785 6.57091 266.544 21.0365 271.416 27.2255C272.542 28.65 272.2 30.713 270.682 31.6954L255.209 41.8139C253.911 42.649 252.222 42.4034 251.218 41.2245C248.207 37.7125 241.205 31.1305 231.265 31.1305C227.592 31.1305 219.023 32.0883 219.023 40.9543C219.023 45.4242 225.119 48.3959 238.756 53.4306C254.205 59.1039 275.334 66.8893 275.334 90.0736C275.334 114.928 251.732 126.103 234.937 126.103Z" fill="white"/>
<path d="M626.856 124.187H608.494C606.805 124.187 605.434 122.812 605.434 121.117V9.64086C605.434 7.94625 606.805 6.57091 608.494 6.57091H626.856C628.546 6.57091 629.917 7.94625 629.917 9.64086V121.117C629.917 122.812 628.546 124.187 626.856 124.187Z" fill="white"/>
<path d="M746.529 4.11378H723.638C722.56 4.11378 721.557 4.67866 721.018 5.61192L689.802 58.366V7.18374C689.802 5.48912 688.431 4.11378 686.742 4.11378H668.38C666.691 4.11378 665.32 5.48912 665.32 7.18374V121.116C665.32 122.81 666.691 124.186 668.38 124.186H686.742C688.431 124.186 689.802 122.81 689.802 121.116V69.9335L721.018 122.688C721.581 123.621 722.56 124.186 723.638 124.186H746.529C748.904 124.186 750.373 121.607 749.149 119.544L716.366 64.1375L749.149 8.73098C750.373 6.7171 748.904 4.11378 746.529 4.11378Z" fill="white"/>
<path d="M380.07 44.8336V47.9772C372.529 43.0899 363.887 39.848 355.048 39.848C331.716 39.848 317.247 56.3766 317.247 82.9747C317.247 109.794 338.106 122 357.497 122C365.429 122 373.19 119.397 380.07 115.369V122C380.07 134.967 370.13 136.466 362.662 136.466C352.771 136.466 346.822 131.701 344.202 128.95C343.199 127.919 341.632 127.698 340.408 128.459L324.494 138.136C322.927 139.093 322.535 141.206 323.661 142.655C329.709 150.514 342.954 161.001 362.638 161.001C393.56 161.001 404.528 139.978 404.528 121.975V44.8091C404.528 43.1144 403.157 41.7391 401.468 41.7391H383.106C381.441 41.7637 380.07 43.139 380.07 44.8336ZM360.116 99.9454C348.903 99.9454 339.795 91.0302 339.795 80.0275C339.795 69.0248 348.879 60.1097 360.116 60.1097C371.329 60.1097 380.07 69.0248 380.07 80.0275C380.07 91.0302 371.354 99.9454 360.116 99.9454Z" fill="white"/>
<path d="M567.609 44.8336V47.9772C560.068 43.0899 551.426 39.848 542.588 39.848C519.256 39.848 504.786 56.3766 504.786 82.9747C504.786 109.794 525.646 123.449 545.036 123.449C552.968 123.449 562.541 120.182 567.609 115.369V118.93C567.609 120.625 568.98 122 570.669 122H589.032C590.721 122 592.092 120.625 592.092 118.93V44.8336C592.092 43.139 590.721 41.7637 589.032 41.7637H570.669C568.956 41.7637 567.609 43.139 567.609 44.8336ZM547.656 99.9454C536.443 99.9454 527.335 91.0302 527.335 80.0275C527.335 69.0248 536.418 60.1097 547.656 60.1097C558.869 60.1097 567.609 69.0248 567.609 80.0275C567.609 91.0302 558.869 99.9454 547.656 99.9454Z" fill="white"/>
<path d="M286.302 124.187H304.664C306.353 124.187 307.724 122.812 307.724 121.117V44.835C307.724 43.1404 306.353 41.765 304.664 41.765H286.302C284.612 41.765 283.241 43.1404 283.241 44.835V121.117C283.241 122.812 284.612 124.187 286.302 124.187Z" fill="white"/>
<path d="M295.484 33.9049C303.772 33.9049 310.492 27.1646 310.492 18.8499C310.492 10.5352 303.772 3.79486 295.484 3.79486C287.195 3.79486 280.476 10.5352 280.476 18.8499C280.476 27.1646 287.195 33.9049 295.484 33.9049Z" fill="white"/>
<path d="M763.985 124.187H782.347C784.036 124.187 785.407 122.812 785.407 121.117V44.835C785.407 43.1404 784.036 41.765 782.347 41.765H763.985C762.296 41.765 760.925 43.1404 760.925 44.835V121.117C760.925 122.812 762.296 124.187 763.985 124.187Z" fill="white"/>
<path d="M773.167 33.9049C781.467 33.9049 788.175 27.1756 788.175 18.8499C788.175 10.5242 781.467 3.79486 773.167 3.79486C764.868 3.79486 758.159 10.5242 758.159 18.8499C758.159 27.1756 764.868 33.9049 773.167 33.9049Z" fill="white"/>
<path d="M464.683 38.9643C455.967 38.9643 448.083 41.7641 441.644 46.6023V42.943C441.644 41.2484 440.273 39.873 438.584 39.873H420.222C418.533 39.873 417.162 41.2484 417.162 42.943V121.116C417.162 122.811 418.533 124.186 420.222 124.186H438.584C440.273 124.186 441.644 122.811 441.644 121.116V83.6137C441.644 71.5795 447.961 63.4994 457.338 63.4994C467.743 63.4994 472.468 72.611 472.468 81.0595V121.116C472.468 122.811 473.839 124.186 475.529 124.186H493.891C495.58 124.186 496.951 122.811 496.951 121.116V81.0595C496.951 47.7812 484.71 38.9643 464.683 38.9643Z" fill="white"/>
<path d="M839 61.0922V42.6725C839 40.9779 837.629 39.6025 835.94 39.6025H822.131V29.5822C822.131 27.8876 820.76 26.5122 819.071 26.5122H800.709C799.02 26.5122 797.649 27.8876 797.649 29.5822V96.3598C797.649 117.653 813.979 124.186 824.433 124.186C829.794 124.186 834.177 123.326 836.674 122.688C838.045 122.344 838.975 121.116 838.975 119.716V102.721C838.975 100.707 837.09 99.2332 835.156 99.749C830.186 101.075 822.107 102.23 822.107 95.8195C822.107 93.0197 822.107 78.9225 822.107 64.1621H835.915C837.629 64.1621 839 62.7868 839 61.0922Z" fill="white"/>
</svg>
