<svg width="839" height="167" viewBox="0 0 839 167" fill="none" xmlns="http://www.w3.org/2000/svg">
<g clip-path="url(#clip0)">
<path d="M159.953 123.854H117.701L81.4856 66.5086L43.7608 123.854H0L81.4856 0.108643L159.953 123.854Z" fill="#636466"/>
<path d="M322.924 132.909C286.709 75.5632 280.673 66.5086 280.673 66.5086L242.948 123.854H199.187L280.673 0.108643L359.14 123.854C359.14 123.854 365.176 132.909 383.284 132.909C401.392 132.909 839 132.909 839 132.909V166.109C839 166.109 395.356 166.109 380.266 166.109C347.068 166.109 334.996 151.018 322.924 132.909Z" fill="#636466"/>
<path d="M256.529 0.108643H214.277L178.061 57.4541L140.336 0.108643H96.5755L178.061 123.854L256.529 0.108643Z" fill="#007071"/>
<path d="M443.644 36.327V24.2542H389.32V48.3997H443.04C453.301 48.3997 461.752 56.8506 461.752 67.1124V102.123C461.752 112.385 453.301 120.836 443.04 120.836H386.906C376.645 120.836 368.194 112.385 368.194 102.123V90.6542L386.302 84.6179V99.7088H443.644V72.5451H389.924C379.663 72.5451 371.212 64.0942 371.212 53.8324V21.8397C371.212 11.5779 379.663 3.12695 389.924 3.12695H440.022C450.283 3.12695 458.734 11.5779 458.734 21.8397V30.2906L443.644 36.327Z" fill="#007071"/>
<path d="M820.892 36.327V24.2542H766.568V48.3997H820.288C830.55 48.3997 839 56.8506 839 67.1124V102.123C839 112.385 830.55 120.836 820.288 120.836H764.154C753.893 120.836 745.442 112.385 745.442 102.123V90.6542L763.55 84.6179V99.7088H820.892V72.5451H767.172C756.911 72.5451 748.46 64.0942 748.46 53.8324V21.8397C748.46 11.5779 756.911 3.12695 767.172 3.12695H817.27C827.532 3.12695 835.982 11.5779 835.982 21.8397V30.2906L820.892 36.327Z" fill="#007071"/>
<path d="M507.022 3.12695H485.896V120.836H507.022V3.12695Z" fill="#007071"/>
<path d="M627.741 120.836L590.318 75.5633H599.976C610.237 75.5633 618.687 67.1124 618.687 56.8506V21.8397C618.687 11.5779 610.237 3.12695 599.976 3.12695H531.166V120.836H549.273V75.5633H565.872L600.579 120.836H627.741ZM549.273 24.2542H594.241C597.561 24.2542 600.579 26.9706 600.579 30.5924V51.4179C600.579 54.7379 597.863 57.7561 594.241 57.7561H549.273V24.2542Z" fill="#007071"/>
<path d="M716.772 120.836H736.389L689.61 3.12695H688.101H671.502H669.993L623.214 120.836H642.831L653.394 93.6724H706.209L716.772 120.836ZM660.335 75.5633L679.952 24.8579L699.569 75.5633H660.335Z" fill="#007071"/>
<path d="M695.646 163.091H677.236C675.425 163.091 673.614 161.581 673.614 159.469V155.243H678.745V157.658H694.137V152.527H677.84C675.425 152.527 673.614 150.716 673.614 148.301V138.945C673.614 137.134 675.123 135.323 677.236 135.323H695.646C697.456 135.323 699.267 136.832 699.267 138.945V143.171H694.137V140.756H678.745V147.698H695.042C697.456 147.698 699.267 149.509 699.267 151.923V159.469C699.267 161.581 697.758 163.091 695.646 163.091Z" fill="white"/>
<path d="M829.644 163.091H811.234C809.424 163.091 807.613 161.581 807.613 159.469V155.243H812.743V157.658H828.135V152.527H811.838C809.424 152.527 807.613 150.716 807.613 148.301V138.945C807.613 137.134 809.122 135.323 811.234 135.323H829.644C831.455 135.323 833.266 136.832 833.266 138.945V143.171H828.135V140.756H812.743V147.698H829.041C831.455 147.698 833.266 149.509 833.266 151.923V159.469C833.266 161.581 831.757 163.091 829.644 163.091Z" fill="white"/>
<path d="M631.061 163.091H612.651C610.84 163.091 609.03 161.581 609.03 159.469V155.243H614.16V157.658H629.552V152.527H613.255C610.84 152.527 609.03 150.716 609.03 148.301V138.945C609.03 137.134 610.539 135.323 612.651 135.323H631.061C632.872 135.323 634.682 136.832 634.682 138.945V143.171H629.552V140.756H614.16V147.698H630.457C632.872 147.698 634.682 149.509 634.682 151.923V159.469C634.682 161.581 633.173 163.091 631.061 163.091Z" fill="white"/>
<path d="M731.56 135.927H720.393H715.263H704.398V141.058H715.263V163.09H720.393V141.058H731.56V135.927Z" fill="white"/>
<path d="M742.425 157.959V151.319H753.591V146.189H742.425V141.058H760.231V135.927H737.294V163.09H761.136V157.959H742.425Z" fill="white"/>
<path d="M792.523 135.927L784.073 150.716L774.717 135.927H768.077V163.09H773.208V142.869L784.073 160.374L793.428 144.378V163.09H798.559V135.927H792.523Z" fill="white"/>
<path d="M669.691 135.927H663.051L654.903 144.981L645.849 135.927H638.907L652.488 149.81V163.09H657.619V149.509L669.691 135.927Z" fill="white"/>
</g>
<defs>
<clipPath id="clip0">
<rect y="0.108643" width="839" height="166" fill="white"/>
</clipPath>
</defs>
</svg>
