<svg width="839" height="167" viewBox="0 0 839 167" fill="none" xmlns="http://www.w3.org/2000/svg">
<g clip-path="url(#clip0)">
<path d="M159.953 124.631H117.701L81.4856 67.286L43.7608 124.631H0L81.4856 0.885986L159.953 124.631Z" fill="white"/>
<path d="M322.924 133.686C286.709 76.3405 280.673 67.286 280.673 67.286L242.948 124.631H199.187L280.673 0.885986L359.14 124.631C359.14 124.631 365.176 133.686 383.284 133.686C401.392 133.686 839 133.686 839 133.686V166.886C839 166.886 395.356 166.886 380.266 166.886C347.068 166.886 334.996 151.795 322.924 133.686Z" fill="white"/>
<path d="M256.529 0.885986H214.277L178.061 58.2314L140.336 0.885986H96.5756L178.061 124.631L256.529 0.885986Z" fill="#007071"/>
<path d="M443.644 37.1043V25.0316H389.32V49.177H443.04C453.301 49.177 461.752 57.6279 461.752 67.8898V102.901C461.752 113.162 453.301 121.613 443.04 121.613H386.906C376.645 121.613 368.194 113.162 368.194 102.901V91.4316L386.302 85.3952V100.486H443.644V73.3225H389.924C379.663 73.3225 371.212 64.8716 371.212 54.6098V22.617C371.212 12.3552 379.663 3.9043 389.924 3.9043H440.022C450.283 3.9043 458.734 12.3552 458.734 22.617V31.0679L443.644 37.1043Z" fill="#007071"/>
<path d="M820.892 37.1043V25.0316H766.568V49.177H820.288C830.55 49.177 839 57.6279 839 67.8898V102.901C839 113.162 830.55 121.613 820.288 121.613H764.154C753.893 121.613 745.442 113.162 745.442 102.901V91.4316L763.55 85.3952V100.486H820.892V73.3225H767.172C756.911 73.3225 748.46 64.8716 748.46 54.6098V22.617C748.46 12.3552 756.911 3.9043 767.172 3.9043H817.27C827.532 3.9043 835.982 12.3552 835.982 22.617V31.0679L820.892 37.1043Z" fill="#007071"/>
<path d="M507.022 3.9043H485.896V121.613H507.022V3.9043Z" fill="#007071"/>
<path d="M627.741 121.613L590.318 76.3407H599.976C610.237 76.3407 618.687 67.8898 618.687 57.6279V22.617C618.687 12.3552 610.237 3.9043 599.976 3.9043H531.166V121.613H549.273V76.3407H565.872L600.579 121.613H627.741ZM549.273 25.0316H594.241C597.561 25.0316 600.579 27.7479 600.579 31.3698V52.1952C600.579 55.5152 597.863 58.5334 594.241 58.5334H549.273V25.0316Z" fill="#007071"/>
<path d="M716.772 121.613H736.389L689.61 3.9043H669.993L623.214 121.613H642.831L653.394 94.4498H706.209L716.772 121.613ZM660.335 76.3407L679.952 25.6352L699.569 76.3407H660.335Z" fill="#007071"/>
<path d="M695.646 163.868H677.236C675.425 163.868 673.614 162.359 673.614 160.246V156.021H678.745V158.435H694.137V153.304H677.84C675.425 153.304 673.614 151.493 673.614 149.079V139.722C673.614 137.911 675.123 136.101 677.236 136.101H695.646C697.456 136.101 699.267 137.61 699.267 139.722V143.948H694.137V141.533H678.745V148.475H695.042C697.456 148.475 699.267 150.286 699.267 152.701V160.246C699.267 162.359 697.758 163.868 695.646 163.868Z" fill="#636466"/>
<path d="M829.644 163.868H811.234C809.424 163.868 807.613 162.359 807.613 160.246V156.021H812.743V158.435H828.135V153.304H811.838C809.424 153.304 807.613 151.493 807.613 149.079V139.722C807.613 137.911 809.122 136.101 811.234 136.101H829.644C831.455 136.101 833.266 137.61 833.266 139.722V143.948H828.135V141.533H812.743V148.475H829.041C831.455 148.475 833.266 150.286 833.266 152.701V160.246C833.266 162.359 831.757 163.868 829.644 163.868Z" fill="#636466"/>
<path d="M631.061 163.868H612.651C610.84 163.868 609.03 162.359 609.03 160.246V156.021H614.16V158.435H629.552V153.304H613.255C610.84 153.304 609.03 151.493 609.03 149.079V139.722C609.03 137.911 610.539 136.101 612.651 136.101H631.061C632.872 136.101 634.682 137.61 634.682 139.722V143.948H629.552V141.533H614.16V148.475H630.457C632.872 148.475 634.682 150.286 634.682 152.701V160.246C634.682 162.359 633.173 163.868 631.061 163.868Z" fill="#636466"/>
<path d="M731.56 136.704H704.398V141.835H715.263V163.868H720.393V141.835H731.56V136.704Z" fill="#636466"/>
<path d="M742.425 158.737V152.097H753.591V146.966H742.425V141.835H760.231V136.704H737.294V163.868H761.136V158.737H742.425Z" fill="#636466"/>
<path d="M792.523 136.704L784.073 151.493L774.717 136.704H768.077V163.868H773.208V143.646L784.073 161.151L793.428 145.155V163.868H798.559V136.704H792.523Z" fill="#636466"/>
<path d="M669.691 136.704H663.051L654.903 145.759L645.849 136.704H638.907L652.488 150.588V163.868H657.619V150.286L669.691 136.704Z" fill="#636466"/>
</g>
<defs>
<clipPath id="clip0">
<rect y="0.885986" width="839" height="166" fill="white"/>
</clipPath>
</defs>
</svg>
