<svg width="1027" height="337" viewBox="0 0 1027 337" fill="none" xmlns="http://www.w3.org/2000/svg">
<path d="M154.539 328.07L10.7589 239.172V9.70227H154.539V328.07Z" fill="#F1F1F3"/>
<path d="M154.539 328.07L298.319 239.172V9.70227H154.539V328.07Z" fill="white"/>
<path d="M154.539 114.764H144.024V223.253H154.539V114.764Z" fill="#DF8026"/>
<path d="M26.6531 225.213V27.5798H154.539V0.885986H0V244.559L154.539 336.886V305.539L26.6531 225.213Z" fill="#DF8026"/>
<path d="M33.7444 221.294L154.539 297.213V244.56H122.751V114.764H88.7623V96.8861H154.539V79.0085H88.7623V61.3759H154.539V34.682H33.7444V221.294Z" fill="#DF8026"/>
<path d="M165.053 114.764H154.539V223.253H165.053V114.764Z" fill="#F9A64A"/>
<path d="M282.425 225.213V27.5798H154.539V0.885986H309.078V244.559L154.539 336.886V305.539L282.425 225.213Z" fill="#F9A64A"/>
<path d="M275.334 221.294L154.539 297.213V244.56H186.327V114.764H220.071V96.8861H154.539V79.0085H220.071V61.3759H154.539V34.682H275.334V221.294Z" fill="#F9A64A"/>
<path d="M414.223 272.233C415.201 271.498 416.179 271.253 417.891 271.253C419.358 271.253 420.581 271.743 421.559 272.478C422.537 273.212 422.782 274.437 422.782 275.906H431.34C431.34 273.702 430.851 271.743 429.628 270.274C428.406 268.559 426.938 267.335 424.982 266.355C423.026 265.376 420.825 264.886 418.136 264.886C415.446 264.886 413.245 265.376 411.044 266.11C408.844 266.845 407.377 268.069 406.154 269.539C404.931 271.008 404.442 272.723 404.442 274.682C404.442 278.6 406.643 281.784 411.289 283.988C412.756 284.723 414.468 285.457 416.668 286.192C418.869 286.927 420.336 287.661 421.314 288.396C422.292 289.131 422.537 290.11 422.537 291.335C422.537 292.314 422.048 293.294 421.314 293.784C420.581 294.274 419.358 294.763 417.891 294.763C415.69 294.763 414.223 294.274 413.245 293.539C412.267 292.559 411.778 291.335 411.778 289.376H403.22C403.22 291.58 403.709 293.784 404.931 295.498C406.154 297.212 407.866 298.682 410.066 299.661C412.267 300.641 414.957 301.131 417.891 301.131C422.048 301.131 425.227 300.151 427.427 298.437C429.628 296.723 430.851 294.274 430.851 291.09C430.851 287.172 428.895 284.233 425.227 282.029C423.76 281.049 421.559 280.314 419.114 279.58C416.668 278.845 414.957 278.11 413.979 277.376C413.001 276.641 412.512 275.906 412.512 274.927C412.756 273.702 413.245 272.967 414.223 272.233Z" fill="#DE7F23"/>
<path d="M454.57 273.702C455.548 272.233 457.015 271.253 459.216 271.253C461.416 271.253 462.883 271.743 463.861 272.723C464.84 273.702 465.329 275.172 465.573 277.376H474.131C473.887 273.457 472.42 270.274 469.73 268.07C467.04 265.866 463.617 264.641 459.46 264.641C456.526 264.641 453.836 265.376 451.635 266.845C449.435 268.315 447.723 270.274 446.5 272.968C445.278 275.661 444.789 278.6 444.789 282.029V283.743C444.789 289.131 446.011 293.539 448.701 296.478C451.391 299.417 455.059 300.886 459.705 300.886C462.394 300.886 465.084 300.396 467.285 299.417C469.486 298.437 471.197 296.968 472.42 295.008C473.642 293.049 474.376 290.845 474.376 288.396H465.818C465.818 290.355 465.084 291.825 464.106 292.804C463.128 293.784 461.661 294.274 459.705 294.274C457.504 294.274 455.792 293.539 454.814 291.825C453.836 290.11 453.347 287.417 453.347 283.743V281.294C453.102 277.866 453.591 275.417 454.57 273.702Z" fill="#DE7F23"/>
<path d="M508.854 279.335H496.383V265.131H488.069V300.396H496.383V285.702H508.854V300.396H517.412V265.131H508.854V279.335Z" fill="#DE7F23"/>
<path d="M555.314 266.845C552.868 265.376 550.423 264.641 547.244 264.641C544.31 264.641 541.62 265.376 539.175 266.845C536.73 268.315 535.018 270.274 533.795 272.968C532.573 275.661 531.839 278.6 531.839 282.029V283.988C531.839 287.417 532.573 290.355 533.795 292.804C535.018 295.253 536.974 297.457 539.175 298.682C541.376 300.151 544.065 300.641 547.244 300.641C550.179 300.641 552.868 299.906 555.314 298.437C557.759 296.967 559.47 295.008 560.693 292.314C561.916 289.621 562.649 286.682 562.649 283.253V281.539C562.649 278.11 561.916 275.172 560.693 272.478C559.47 270.274 557.514 268.315 555.314 266.845ZM554.091 283.743C554.091 287.172 553.602 289.866 552.379 291.58C551.157 293.294 549.69 294.274 547.489 294.274C545.288 294.274 543.576 293.294 542.354 291.58C541.131 289.621 540.642 287.172 540.642 283.498V280.804C540.887 274.437 543.087 271.253 547.489 271.253C549.69 271.253 551.401 272.233 552.624 273.947C553.846 275.661 554.335 278.355 554.335 282.029V283.743H554.091Z" fill="#DE7F23"/>
<path d="M599.328 266.845C596.883 265.376 594.437 264.641 591.259 264.641C588.324 264.641 585.634 265.376 583.189 266.845C580.744 268.315 579.032 270.274 577.81 272.968C576.587 275.661 575.854 278.6 575.854 282.029V283.988C575.854 287.417 576.587 290.355 577.81 292.804C579.032 295.253 580.989 297.457 583.189 298.682C585.39 300.151 588.08 300.641 591.259 300.641C594.193 300.641 596.883 299.906 599.328 298.437C601.773 296.967 603.485 295.008 604.707 292.314C605.93 289.621 606.664 286.682 606.664 283.253V281.539C606.664 278.11 605.93 275.172 604.707 272.478C603.485 270.274 601.773 268.315 599.328 266.845ZM598.35 283.743C598.35 287.172 597.861 289.866 596.638 291.58C595.415 293.294 593.948 294.274 591.748 294.274C589.547 294.274 587.835 293.294 586.613 291.58C585.39 289.621 584.901 287.172 584.901 283.498V280.804C585.145 274.437 587.346 271.253 591.748 271.253C593.948 271.253 595.66 272.233 596.883 273.947C598.105 275.661 598.594 278.355 598.594 282.029V283.743H598.35Z" fill="#DE7F23"/>
<path d="M629.893 265.131H621.335V300.396H644.565V294.029H629.893V265.131Z" fill="#DE7F23"/>
<path d="M690.29 272.233C691.268 271.498 692.247 271.253 693.958 271.253C695.425 271.253 696.648 271.743 697.626 272.478C698.604 273.212 698.849 274.437 698.849 275.906H707.407C707.407 273.702 706.918 271.743 705.695 270.274C704.473 268.559 703.006 267.335 701.049 266.355C699.093 265.376 696.892 264.886 694.203 264.886C691.513 264.886 689.312 265.376 687.112 266.11C684.911 266.845 683.444 268.069 682.221 269.539C680.999 271.008 680.509 272.723 680.509 274.682C680.509 278.6 682.71 281.784 687.356 283.988C688.823 284.723 690.535 285.457 692.736 286.192C694.936 286.927 696.403 287.661 697.382 288.396C698.36 289.131 698.604 290.11 698.604 291.335C698.604 292.314 698.115 293.294 697.382 293.784C696.648 294.274 695.425 294.763 693.958 294.763C691.757 294.763 690.29 294.274 689.312 293.539C688.334 292.559 687.845 291.335 687.845 289.376H679.287C679.287 291.58 679.776 293.784 680.999 295.498C682.221 297.212 683.933 298.682 686.134 299.661C688.334 300.641 691.024 301.131 693.958 301.131C698.115 301.131 701.294 300.151 703.495 298.437C705.695 296.723 706.918 294.274 706.918 291.09C706.918 287.172 704.962 284.233 701.294 282.029C699.827 281.049 697.626 280.314 695.181 279.58C692.736 278.845 691.024 278.11 690.046 277.376C689.068 276.641 688.579 275.906 688.579 274.927C688.823 273.702 689.312 272.967 690.29 272.233Z" fill="#DE7F23"/>
<path d="M744.086 266.845C741.641 265.376 739.195 264.641 736.017 264.641C733.082 264.641 730.393 265.376 727.947 266.845C725.502 268.315 723.79 270.274 722.568 272.968C721.345 275.661 720.612 278.6 720.612 282.029V283.988C720.612 287.417 721.345 290.355 722.568 292.804C723.79 295.253 725.747 297.457 727.947 298.682C730.148 300.151 732.838 300.641 736.017 300.641C739.195 300.641 741.641 299.906 744.086 298.437C746.531 296.967 748.243 295.008 749.465 292.314C750.688 289.621 751.422 286.682 751.422 283.253V281.539C751.422 278.11 750.688 275.172 749.465 272.478C748.243 270.274 746.287 268.315 744.086 266.845ZM742.863 283.743C742.863 287.172 742.374 289.866 741.152 291.58C739.929 293.294 738.462 294.274 736.261 294.274C734.06 294.274 732.349 293.294 731.126 291.58C729.903 289.621 729.414 287.172 729.414 283.498V280.804C729.659 274.437 731.86 271.253 736.261 271.253C738.462 271.253 740.173 272.233 741.396 273.947C742.619 275.661 743.108 278.355 743.108 282.029V283.743H742.863Z" fill="#DE7F23"/>
<path d="M774.407 265.131H765.848V300.396H789.078V294.029H774.407V265.131Z" fill="#DE7F23"/>
<path d="M821.355 288.151C821.355 290.355 820.866 291.825 819.888 292.804C818.91 293.784 817.688 294.273 815.976 294.273C812.553 294.273 810.596 292.314 810.596 288.396V264.886H802.038V288.151C802.038 292.069 803.261 295.008 805.706 297.212C808.151 299.416 811.574 300.641 815.731 300.641C818.666 300.641 821.111 300.151 823.067 299.171C825.023 298.192 826.735 296.722 827.958 294.763C829.18 292.804 829.669 290.6 829.669 287.906V264.886H821.111V288.151H821.355Z" fill="#DE7F23"/>
<path d="M843.362 271.743H853.632V300.396H862.191V271.743H872.705V265.131H843.362V271.743Z" fill="#DE7F23"/>
<path d="M895.446 265.131H886.888V300.396H895.446V265.131Z" fill="#DE7F23"/>
<path d="M933.592 266.845C931.147 265.376 928.701 264.641 925.523 264.641C922.588 264.641 919.899 265.376 917.453 266.845C915.008 268.315 913.296 270.274 912.074 272.968C910.851 275.661 910.118 278.6 910.118 282.029V283.988C910.118 287.417 910.851 290.355 912.074 292.804C913.296 295.253 915.253 297.457 917.453 298.682C919.654 300.151 922.344 300.641 925.523 300.641C928.701 300.641 931.147 299.906 933.592 298.437C936.037 296.967 937.749 295.008 938.971 292.314C940.194 289.621 940.927 286.682 940.927 283.253V281.539C940.927 278.11 940.194 275.172 938.971 272.478C937.749 270.274 936.037 268.315 933.592 266.845ZM932.614 283.743C932.614 287.172 932.125 289.866 930.902 291.58C929.679 293.294 928.212 294.274 926.012 294.274C923.811 294.274 922.099 293.294 920.877 291.58C919.654 289.621 919.165 287.172 919.165 283.498V280.804C919.409 274.437 921.61 271.253 926.012 271.253C928.212 271.253 929.924 272.233 931.147 273.947C932.369 275.661 932.858 278.355 932.858 282.029V283.743H932.614Z" fill="#DE7F23"/>
<path d="M976.383 287.172L964.157 265.131H955.599V300.396H964.157V278.6L976.628 300.396H984.942V265.131H976.383V287.172Z" fill="#DE7F23"/>
<path d="M1021.38 282.029C1019.91 281.049 1017.71 280.314 1015.26 279.58C1012.82 278.845 1011.11 278.11 1010.13 277.376C1009.15 276.641 1008.66 275.906 1008.66 274.927C1008.66 273.947 1009.15 272.968 1009.88 272.478C1010.86 271.743 1011.84 271.498 1013.55 271.498C1015.02 271.498 1016.24 271.988 1017.22 272.723C1018.2 273.457 1018.44 274.682 1018.44 276.151H1027C1027 273.947 1026.51 271.988 1025.29 270.519C1024.07 268.804 1022.6 267.58 1020.64 266.6C1018.69 265.621 1016.49 265.131 1013.8 265.131C1011.11 265.131 1008.91 265.621 1006.7 266.355C1004.5 267.09 1003.04 268.315 1001.81 269.784C1000.59 271.253 1000.1 272.968 1000.1 274.927C1000.1 278.845 1002.3 282.029 1006.95 284.233C1008.42 284.968 1010.13 285.702 1012.33 286.437C1014.53 287.172 1016 287.906 1016.97 288.641C1017.95 289.376 1018.2 290.355 1018.2 291.58C1018.2 292.559 1017.71 293.539 1016.97 294.029C1016.24 294.519 1015.02 295.008 1013.55 295.008C1011.35 295.008 1009.88 294.519 1008.91 293.784C1007.93 292.804 1007.44 291.58 1007.44 289.621H998.88C998.88 291.825 999.369 294.029 1000.59 295.743C1001.81 297.457 1003.53 298.927 1005.73 299.906C1007.93 300.886 1010.62 301.376 1013.55 301.376C1017.71 301.376 1020.89 300.396 1023.09 298.682C1025.29 296.968 1026.51 294.519 1026.51 291.335C1027 287.172 1025.04 284.233 1021.38 282.029Z" fill="#DE7F23"/>
<path d="M490.026 66.5188H362.14V98.6004H402.975V233.784H447.479V98.6004H490.026V66.5188Z" fill="white"/>
<path d="M692.491 66.5188H564.605V98.6004H605.441V233.784H649.944V98.6004H692.491V66.5188Z" fill="white"/>
<path d="M811.574 233.784H855.833L792.013 66.5188H738.706L674.886 233.784H719.389L733.082 198.274H798.126L811.574 233.784ZM744.33 167.907L765.359 113.049L786.389 167.907H744.33Z" fill="white"/>
<path d="M548.711 66.5188H506.164V233.784H548.711V66.5188Z" fill="white"/>
<path d="M983.719 66.5188V184.07L925.034 66.5188H870.016V233.784H909.14V119.907L965.869 233.784H1022.84V66.5188H983.719Z" fill="white"/>
</svg>
