<svg width="1028" height="338" viewBox="0 0 1028 338" fill="none" xmlns="http://www.w3.org/2000/svg">
<path d="M154.689 328.266L10.7694 239.103V8.95117H154.689V328.266Z" fill="#F1F1F3"/>
<path d="M154.689 328.266L298.609 239.103V8.95117H154.689V328.266Z" fill="white"/>
<path d="M154.689 114.325H144.165V223.138H154.689V114.325Z" fill="#DF8026"/>
<path d="M26.679 225.103V26.882H154.69V0.108643H0V244.507L154.69 337.109V305.668L26.679 225.103Z" fill="#DF8026"/>
<path d="M33.7772 221.173L154.69 297.317V244.507H122.871V114.325H88.8486V96.3945H154.69V78.4637H88.8486V60.7786H154.69V34.0052H33.7772V221.173Z" fill="#DF8026"/>
<path d="M165.214 114.325H154.689V223.138H165.214V114.325Z" fill="#F9A64A"/>
<path d="M282.7 225.103V26.882H154.689V0.108643H309.379V244.507L154.689 337.109V305.668L282.7 225.103Z" fill="#F9A64A"/>
<path d="M275.602 221.173L154.689 297.317V244.507H186.508V114.325H220.286V96.3945H154.689V78.4637H220.286V60.7786H154.689V34.0052H275.602V221.173Z" fill="#F9A64A"/>
<path d="M414.627 272.262C415.606 271.525 416.585 271.28 418.298 271.28C419.767 271.28 420.99 271.771 421.969 272.508C422.948 273.245 423.193 274.473 423.193 275.947H431.76C431.76 273.736 431.27 271.771 430.047 270.297C428.823 268.578 427.354 267.35 425.396 266.367C423.438 265.385 421.235 264.893 418.543 264.893C415.85 264.893 413.647 265.385 411.445 266.121C409.242 266.858 407.773 268.087 406.549 269.56C405.326 271.034 404.836 272.753 404.836 274.718C404.836 278.648 407.039 281.842 411.689 284.052C413.158 284.789 414.871 285.526 417.074 286.263C419.277 287 420.746 287.737 421.725 288.474C422.704 289.21 422.948 290.193 422.948 291.421C422.948 292.404 422.459 293.386 421.725 293.877C420.99 294.369 419.767 294.86 418.298 294.86C416.095 294.86 414.627 294.369 413.647 293.632C412.668 292.649 412.179 291.421 412.179 289.456H403.612C403.612 291.667 404.102 293.877 405.326 295.597C406.549 297.316 408.263 298.79 410.466 299.772C412.668 300.755 415.361 301.246 418.298 301.246C422.459 301.246 425.641 300.264 427.844 298.544C430.047 296.825 431.27 294.369 431.27 291.175C431.27 287.245 429.312 284.298 425.641 282.087C424.172 281.105 421.969 280.368 419.522 279.631C417.074 278.894 415.361 278.157 414.382 277.42C413.403 276.683 412.913 275.947 412.913 274.964C413.158 273.736 413.647 272.999 414.627 272.262Z" fill="#DE7F23"/>
<path d="M455.012 273.737C455.991 272.263 457.46 271.281 459.663 271.281C461.866 271.281 463.334 271.772 464.313 272.754C465.292 273.737 465.782 275.211 466.026 277.421H474.593C474.348 273.491 472.88 270.298 470.187 268.087C467.495 265.877 464.068 264.649 459.907 264.649C456.97 264.649 454.278 265.386 452.075 266.859C449.872 268.333 448.159 270.298 446.935 273C445.711 275.702 445.222 278.649 445.222 282.088V283.808C445.222 289.211 446.446 293.633 449.138 296.58C451.83 299.528 455.502 301.001 460.152 301.001C462.845 301.001 465.537 300.51 467.74 299.528C469.943 298.545 471.656 297.071 472.88 295.106C474.104 293.141 474.838 290.931 474.838 288.474H466.271C466.271 290.439 465.537 291.913 464.558 292.896C463.579 293.878 462.11 294.369 460.152 294.369C457.949 294.369 456.236 293.633 455.257 291.913C454.278 290.194 453.788 287.492 453.788 283.808V281.351C453.544 277.912 454.033 275.456 455.012 273.737Z" fill="#DE7F23"/>
<path d="M509.349 279.386H496.866V265.14H488.545V300.51H496.866V285.772H509.349V300.51H517.916V265.14H509.349V279.386Z" fill="#DE7F23"/>
<path d="M555.854 266.859C553.407 265.386 550.959 264.649 547.777 264.649C544.84 264.649 542.148 265.386 539.7 266.859C537.252 268.333 535.539 270.298 534.315 273C533.091 275.702 532.357 278.649 532.357 282.088V284.053C532.357 287.492 533.091 290.439 534.315 292.896C535.539 295.352 537.497 297.563 539.7 298.791C541.903 300.264 544.595 300.756 547.777 300.756C550.714 300.756 553.407 300.019 555.854 298.545C558.302 297.071 560.015 295.106 561.239 292.404C562.463 289.702 563.197 286.755 563.197 283.316V281.597C563.197 278.158 562.463 275.211 561.239 272.509C560.015 270.298 558.057 268.333 555.854 266.859ZM554.63 283.807C554.63 287.246 554.141 289.948 552.917 291.668C551.693 293.387 550.225 294.369 548.022 294.369C545.819 294.369 544.106 293.387 542.882 291.668C541.658 289.703 541.169 287.246 541.169 283.562V280.86C541.413 274.474 543.616 271.281 548.022 271.281C550.225 271.281 551.938 272.263 553.162 273.982C554.386 275.702 554.875 278.404 554.875 282.088V283.807H554.63Z" fill="#DE7F23"/>
<path d="M599.911 266.859C597.464 265.386 595.016 264.649 591.834 264.649C588.897 264.649 586.205 265.386 583.757 266.859C581.309 268.333 579.596 270.298 578.372 273C577.149 275.702 576.414 278.649 576.414 282.088V284.053C576.414 287.492 577.149 290.439 578.372 292.896C579.596 295.352 581.554 297.563 583.757 298.791C585.96 300.264 588.652 300.756 591.834 300.756C594.771 300.756 597.464 300.019 599.911 298.545C602.359 297.071 604.072 295.106 605.296 292.404C606.52 289.702 607.254 286.755 607.254 283.316V281.597C607.254 278.158 606.52 275.211 605.296 272.509C604.072 270.298 602.359 268.333 599.911 266.859ZM598.932 283.807C598.932 287.246 598.443 289.948 597.219 291.668C595.995 293.387 594.527 294.369 592.324 294.369C590.121 294.369 588.408 293.387 587.184 291.668C585.96 289.703 585.47 287.246 585.47 283.562V280.86C585.715 274.474 587.918 271.281 592.324 271.281C594.527 271.281 596.24 272.263 597.464 273.982C598.688 275.702 599.177 278.404 599.177 282.088V283.807H598.932Z" fill="#DE7F23"/>
<path d="M630.506 265.14H621.94V300.51H645.192V294.124H630.506V265.14Z" fill="#DE7F23"/>
<path d="M690.962 272.263C691.941 271.526 692.921 271.28 694.634 271.28C696.102 271.28 697.326 271.772 698.305 272.509C699.284 273.245 699.529 274.474 699.529 275.947H708.096C708.096 273.737 707.606 271.772 706.382 270.298C705.159 268.578 703.69 267.35 701.732 266.368C699.774 265.385 697.571 264.894 694.879 264.894C692.186 264.894 689.983 265.385 687.781 266.122C685.578 266.859 684.109 268.087 682.885 269.561C681.662 271.035 681.172 272.754 681.172 274.719C681.172 278.649 683.375 281.842 688.025 284.053C689.494 284.79 691.207 285.527 693.41 286.264C695.613 287.001 697.082 287.737 698.061 288.474C699.04 289.211 699.284 290.194 699.284 291.422C699.284 292.404 698.795 293.387 698.061 293.878C697.326 294.369 696.102 294.861 694.634 294.861C692.431 294.861 690.962 294.369 689.983 293.632C689.004 292.65 688.515 291.422 688.515 289.457H679.948C679.948 291.667 680.438 293.878 681.662 295.597C682.885 297.317 684.599 298.791 686.802 299.773C689.004 300.756 691.697 301.247 694.634 301.247C698.795 301.247 701.977 300.264 704.18 298.545C706.382 296.826 707.606 294.369 707.606 291.176C707.606 287.246 705.648 284.299 701.977 282.088C700.508 281.105 698.305 280.369 695.858 279.632C693.41 278.895 691.697 278.158 690.718 277.421C689.739 276.684 689.249 275.947 689.249 274.965C689.494 273.737 689.983 273 690.962 272.263Z" fill="#DE7F23"/>
<path d="M744.81 266.859C742.363 265.386 739.915 264.649 736.733 264.649C733.796 264.649 731.104 265.386 728.656 266.859C726.208 268.333 724.495 270.298 723.271 273C722.047 275.702 721.313 278.649 721.313 282.088V284.053C721.313 287.492 722.047 290.439 723.271 292.896C724.495 295.352 726.453 297.563 728.656 298.791C730.859 300.264 733.551 300.756 736.733 300.756C739.915 300.756 742.363 300.019 744.81 298.545C747.258 297.071 748.971 295.106 750.195 292.404C751.419 289.702 752.153 286.755 752.153 283.316V281.597C752.153 278.158 751.419 275.211 750.195 272.509C748.971 270.298 747.013 268.333 744.81 266.859ZM743.587 283.807C743.587 287.246 743.097 289.948 741.873 291.668C740.649 293.387 739.181 294.369 736.978 294.369C734.775 294.369 733.062 293.387 731.838 291.668C730.614 289.703 730.125 287.246 730.125 283.562V280.86C730.369 274.474 732.572 271.281 736.978 271.281C739.181 271.281 740.894 272.263 742.118 273.982C743.342 275.702 743.831 278.404 743.831 282.088V283.807H743.587Z" fill="#DE7F23"/>
<path d="M775.161 265.14H766.594V300.51H789.847V294.124H775.161V265.14Z" fill="#DE7F23"/>
<path d="M822.155 288.229C822.155 290.439 821.666 291.913 820.687 292.895C819.708 293.878 818.484 294.369 816.77 294.369C813.344 294.369 811.386 292.404 811.386 288.474V264.894H802.819V288.229C802.819 292.159 804.043 295.106 806.49 297.317C808.938 299.527 812.365 300.755 816.526 300.755C819.463 300.755 821.91 300.264 823.869 299.282C825.827 298.299 827.54 296.825 828.764 294.86C829.988 292.895 830.477 290.685 830.477 287.983V264.894H821.91V288.229H822.155Z" fill="#DE7F23"/>
<path d="M844.184 271.772H854.464V300.51H863.03V271.772H873.555V265.14H844.184V271.772Z" fill="#DE7F23"/>
<path d="M896.318 265.14H887.751V300.51H896.318V265.14Z" fill="#DE7F23"/>
<path d="M934.501 266.859C932.053 265.386 929.606 264.649 926.424 264.649C923.487 264.649 920.794 265.386 918.347 266.859C915.899 268.333 914.186 270.298 912.962 273C911.738 275.702 911.004 278.649 911.004 282.088V284.053C911.004 287.492 911.738 290.439 912.962 292.896C914.186 295.352 916.144 297.563 918.347 298.791C920.549 300.264 923.242 300.756 926.424 300.756C929.606 300.756 932.053 300.019 934.501 298.545C936.948 297.071 938.662 295.106 939.886 292.404C941.109 289.702 941.844 286.755 941.844 283.316V281.597C941.844 278.158 941.109 275.211 939.886 272.509C938.662 270.298 936.948 268.333 934.501 266.859ZM933.522 283.807C933.522 287.246 933.032 289.948 931.808 291.668C930.585 293.387 929.116 294.369 926.913 294.369C924.71 294.369 922.997 293.387 921.773 291.668C920.549 289.703 920.06 287.246 920.06 283.562V280.86C920.305 274.474 922.507 271.281 926.913 271.281C929.116 271.281 930.829 272.263 932.053 273.982C933.277 275.702 933.766 278.404 933.766 282.088V283.807H933.522Z" fill="#DE7F23"/>
<path d="M977.334 287.246L965.096 265.14H956.529V300.51H965.096V278.649L977.579 300.51H985.901V265.14H977.334V287.246Z" fill="#DE7F23"/>
<path d="M1022.37 282.088C1020.9 281.106 1018.7 280.369 1016.25 279.632C1013.8 278.895 1012.09 278.158 1011.11 277.421C1010.13 276.684 1009.64 275.947 1009.64 274.965C1009.64 273.982 1010.13 273 1010.87 272.509C1011.85 271.772 1012.82 271.526 1014.54 271.526C1016.01 271.526 1017.23 272.017 1018.21 272.754C1019.19 273.491 1019.43 274.719 1019.43 276.193H1028C1028 273.982 1027.51 272.017 1026.29 270.544C1025.06 268.824 1023.59 267.596 1021.64 266.614C1019.68 265.631 1017.48 265.14 1014.78 265.14C1012.09 265.14 1009.89 265.631 1007.68 266.368C1005.48 267.105 1004.01 268.333 1002.79 269.807C1001.57 271.281 1001.08 273 1001.08 274.965C1001.08 278.895 1003.28 282.088 1007.93 284.299C1009.4 285.036 1011.11 285.773 1013.31 286.509C1015.52 287.246 1016.99 287.983 1017.96 288.72C1018.94 289.457 1019.19 290.439 1019.19 291.668C1019.19 292.65 1018.7 293.633 1017.96 294.124C1017.23 294.615 1016.01 295.106 1014.54 295.106C1012.34 295.106 1010.87 294.615 1009.89 293.878C1008.91 292.896 1008.42 291.668 1008.42 289.703H999.852C999.852 291.913 1000.34 294.124 1001.57 295.843C1002.79 297.563 1004.5 299.036 1006.71 300.019C1008.91 301.001 1011.6 301.493 1014.54 301.493C1018.7 301.493 1021.88 300.51 1024.08 298.791C1026.29 297.071 1027.51 294.615 1027.51 291.422C1028 287.246 1026.04 284.299 1022.37 282.088Z" fill="#DE7F23"/>
<path d="M490.503 65.9368H362.492V98.1139H403.368V233.7H447.914V98.1139H490.503V65.9368Z" fill="#3A3F45"/>
<path d="M693.166 65.9368H565.155V98.1139H606.03V233.7H650.577V98.1139H693.166V65.9368Z" fill="#3A3F45"/>
<path d="M812.365 233.7H856.667L792.784 65.9368H739.426L675.543 233.7H720.09L733.796 198.084H798.903L812.365 233.7ZM745.055 167.626L766.105 112.606L787.154 167.626H745.055Z" fill="#3A3F45"/>
<path d="M549.246 65.9368H506.657V233.7H549.246V65.9368Z" fill="#3A3F45"/>
<path d="M984.677 65.9368V183.838L925.934 65.9368H870.863V233.7H910.025V119.483L966.809 233.7H1023.84V65.9368H984.677Z" fill="#3A3F45"/>
</svg>
