<svg width="240" height="37" viewBox="0 0 240 37" fill="none" xmlns="http://www.w3.org/2000/svg">
<g clip-path="url(#clip0)">
<path d="M53.1758 2.80769V22.0879H50.8169V2.80769H43.4033V0.439941H60.9263V2.80769H53.1758V2.80769Z" fill="#1D1A55"/>
<path d="M73.0242 0C79.3257 0 84.2457 4.53254 84.2457 11.2637C84.2457 18.0287 79.3257 22.5612 73.0242 22.5612C66.689 22.5612 61.8027 18.0287 61.8027 11.2637C61.8027 4.53254 66.689 0 73.0242 0ZM73.0242 20.1258C77.8767 20.1258 81.6846 16.7772 81.6846 11.2637C81.6846 5.75024 77.843 2.40157 73.0242 2.40157C68.138 2.40157 64.3638 5.78406 64.3638 11.2637C64.3301 16.7772 68.138 20.1258 73.0242 20.1258Z" fill="#1D1A55"/>
<path d="M97.8592 0C104.161 0 109.081 4.53254 109.081 11.2637C109.081 18.0287 104.161 22.5612 97.8592 22.5612C91.5239 22.5612 86.6377 18.0287 86.6377 11.2637C86.6714 4.53254 91.5576 0 97.8592 0ZM97.8592 20.1258C102.712 20.1258 106.52 16.7772 106.52 11.2637C106.52 5.75024 102.678 2.40157 97.8592 2.40157C92.9729 2.40157 89.1988 5.78406 89.1988 11.2637C89.1988 16.7772 93.0066 20.1258 97.8592 20.1258Z" fill="#1D1A55"/>
<path d="M112.484 0.439941H114.843V19.7201H126.301V22.0879H112.484V0.439941Z" fill="#1D1A55"/>
<path d="M130.411 15.7961C130.647 18.908 133.208 20.2948 136.51 20.2948C139.644 20.2948 141.565 19.0095 141.565 16.405C141.565 12.8533 137.993 12.6504 135.297 12.0754C132.366 11.3989 128.591 10.3503 128.591 5.95305C128.591 2.16466 131.355 0.0336914 135.904 0.0336914C139.914 0.0336914 142.879 1.69111 143.823 5.41185L141.43 6.05453C140.858 3.65296 139.072 2.26614 135.904 2.26614C132.77 2.26614 131.186 3.61913 131.186 5.81775C131.186 8.69287 133.916 9.33554 136.982 9.94439C140.184 10.5532 144.16 11.6018 144.16 16.3711C144.16 20.4639 141.329 22.5273 136.51 22.5273C132.871 22.5273 128.693 21.3096 128.019 16.405L130.411 15.7961Z" fill="#1D1A55"/>
<path d="M157.303 22.0879V16.3377H146.183V13.9699L156.056 0.439941H159.662V14.3082H163.032V16.3377H159.662V22.0879H157.303ZM157.303 2.70621H157.236L148.676 14.2405L148.744 14.3082H157.303L157.337 7.23875L157.303 2.70621Z" fill="#1D1A55"/>
<path d="M166.401 0.439941H180.892V2.80769H168.76V9.57267H178.196V11.9404H168.76V19.7201H180.892V22.0879H166.401V0.439941V0.439941Z" fill="#1D1A55"/>
<path d="M191.742 22.0879L183.149 0.439941H185.946L190.361 11.8051C192.113 16.3377 193.191 19.2128 193.225 19.3143H193.293C193.326 19.2128 194.371 16.3715 196.089 11.9742L200.605 0.439941H203.335L194.742 22.0879H191.742V22.0879Z" fill="#1D1A55"/>
<path d="M206.165 0.439941H220.655V2.80769H208.524V9.57267H217.959V11.9404H208.524V19.7201H220.655V22.0879H206.165V0.439941Z" fill="#1D1A55"/>
<path d="M231.742 13.6317C231.27 13.6655 230.226 13.6317 229.754 13.6317H227.058V22.0879H224.699V0.439941H231.203C236.258 0.439941 239.257 2.94299 239.257 7.20493C239.257 10.5536 237.37 12.5154 234.303 13.1581L239.661 22.0879H236.628L231.742 13.6317ZM231.439 11.6022C234.573 11.6022 236.696 10.4183 236.696 7.3064C236.696 4.22833 234.674 2.80769 231.304 2.80769H227.058V11.6022H231.439Z" fill="#1D1A55"/>
<path d="M0 0.439941V35.8885H35.3156V0.439941H0ZM19.4101 33.1487H10.0083C9.33437 31.6265 7.81795 30.5103 5.99826 30.5103C4.71773 30.5103 3.5383 31.0515 2.72954 31.9648V21.7497C3.20132 21.6482 3.70679 21.5467 4.17856 21.479L4.91992 17.5215C5.2569 17.4877 5.59388 17.4877 5.93086 17.4877C6.26784 17.4877 6.60482 17.4877 6.9418 17.5215L7.68316 21.479C8.25603 21.5467 8.82889 21.682 9.40176 21.8173L11.5921 18.4348C12.2324 18.6716 12.8727 18.9084 13.4792 19.2128L12.7379 23.2041C13.2433 23.5085 13.7151 23.813 14.1869 24.185L17.523 21.9526C18.0285 22.3923 18.5002 22.8997 18.972 23.4071L16.7479 26.7557C17.0849 27.2293 17.4219 27.7028 17.7252 28.2102L21.6679 27.3984C21.9711 28.0073 22.207 28.6499 22.4429 29.2926L19.0731 31.4912C19.2079 31.9986 19.309 32.5736 19.4101 33.1487ZM32.586 7.77995C31.3055 8.59175 30.4294 10.0124 30.4294 11.7036C30.4294 13.3611 31.3055 14.8155 32.586 15.6273V25.741C32.1817 25.6733 31.7773 25.5719 31.3729 25.4704L29.0814 29.022C28.4075 28.7852 27.7672 28.5146 27.1269 28.2102L27.9694 24.0497C27.4302 23.7453 26.9248 23.4071 26.453 23.035L22.9484 25.4366C22.4092 24.963 21.9037 24.4556 21.432 23.9144L23.8245 20.3967C23.4539 19.9231 23.1169 19.4157 22.8136 18.8745L18.6687 19.7202C18.3655 19.0775 18.0959 18.4348 17.86 17.7583L21.3983 15.4582C21.2298 14.8832 21.1287 14.2743 21.0613 13.6655L16.9164 12.8875C16.8827 12.5493 16.8827 12.1772 16.8827 11.8051C16.8827 11.433 16.8827 11.0948 16.9164 10.7227L21.0613 9.94475C21.1287 9.3359 21.2635 8.72705 21.3983 8.15203L17.7926 5.68281C18.0285 5.00631 18.2981 4.36363 18.6013 3.72096L22.7462 4.53276C23.0158 4.05921 23.3191 3.61948 23.656 3.17976H32.586V7.77995V7.77995Z" fill="#1D1A55"/>
<path d="M44.0773 28.582H43.2012V35.8544H44.0773V28.582Z" fill="#1D1A55"/>
<path d="M45.1221 35.8881V28.6157H47.4809C49.7724 28.6157 51.3225 30.104 51.3225 32.2688C51.3225 34.4674 49.8398 35.8881 47.5483 35.8881H45.1221ZM47.3798 35.0086L47.5483 34.9748C48.9637 34.9748 50.4464 34.2645 50.4464 32.235C50.4464 30.5099 49.3006 29.4613 47.4472 29.4613H46.0319V35.0086H47.3798Z" fill="#1D1A55"/>
<path d="M51.9961 35.8882V28.582H56.8486V29.4615H52.8385V31.6263H56.0399V32.5057H52.8385V35.0088H56.8486V35.8882H51.9961Z" fill="#1D1A55"/>
<path d="M62.5776 35.8882L58.5002 30.2056C58.5002 30.4424 58.5002 30.713 58.5002 30.9836V35.8882H57.624V28.6159H58.3654L62.4428 34.2308C62.4428 33.994 62.4428 33.7572 62.4428 33.4866V28.582H63.319V35.8544H62.5776V35.8882Z" fill="#1D1A55"/>
<path d="M66.3852 35.8882V29.4615H63.959V28.582H69.6877V29.4615H67.2951V35.8882H66.3852Z" fill="#1D1A55"/>
<path d="M71.2384 28.582H70.3623V35.8544H71.2384V28.582Z" fill="#1D1A55"/>
<path d="M74.3716 35.8882V29.4615H71.8779V28.582H77.7077V29.4615H75.2477V35.8882H74.3716Z" fill="#1D1A55"/>
<path d="M80.3023 35.8882V32.641L77.4043 28.6159H78.4826L80.3023 31.1189L80.7741 31.7278C80.8752 31.5586 81.0437 31.3557 81.2122 31.1189L83.0656 28.582H84.1102L81.2122 32.6072V35.8882H80.3023Z" fill="#1D1A55"/>
<path d="M89.907 36.0236C87.784 36.0236 86.2002 34.4338 86.2002 32.2352C86.2002 30.0027 87.7166 28.4468 89.9407 28.4468C91.693 28.4468 92.7713 29.4615 93.2094 30.3748L93.3442 30.6454L92.468 30.8822L92.3669 30.713C92.1648 30.3072 91.5245 29.3262 89.9407 29.3262C88.2221 29.3262 87.0763 30.4763 87.0763 32.2013C87.0763 33.9264 88.2221 35.1103 89.907 35.1103C91.1875 35.1103 92.1311 34.3661 92.4343 33.8588V32.9117H90.244V32.066H93.2768V35.9221H92.4343V35.0765C91.9289 35.5162 91.1201 36.0236 89.907 36.0236Z" fill="#1D1A55"/>
<path d="M97.489 36.0236C95.366 36.0236 93.7822 34.4338 93.7822 32.2352C93.7822 30.0366 95.3323 28.4468 97.489 28.4468C99.6457 28.4468 101.196 30.0366 101.196 32.2352C101.196 34.4338 99.612 36.0236 97.489 36.0236ZM97.489 29.3601C95.8041 29.3601 94.6247 30.5439 94.6247 32.2352C94.6584 33.9602 95.8041 35.1103 97.489 35.1103C99.1739 35.1103 100.353 33.9264 100.353 32.2352C100.353 30.5439 99.1739 29.3601 97.489 29.3601Z" fill="#1D1A55"/>
<path d="M103.858 35.8881L100.825 28.6157H101.769L103.386 32.5056C103.723 33.3174 103.993 33.9939 104.195 34.4674C104.397 33.9939 104.7 33.2497 105.004 32.5394L106.655 28.6495H107.565L104.566 35.9219H103.858V35.8881V35.8881Z" fill="#1D1A55"/>
<path d="M107.901 35.8882V28.582H112.754V29.4615H108.777V31.6263H111.945V32.5057H108.777V35.0088H112.754V35.8882H107.901Z" fill="#1D1A55"/>
<path d="M117.471 35.8882L115.82 32.9793H114.439V35.8544H113.562V28.582H115.618C117.337 28.582 118.314 29.4277 118.314 30.8821C118.314 31.9307 117.808 32.6072 116.764 32.8778L118.516 35.8882H117.471ZM115.652 32.1675C116.865 32.1675 117.37 31.7616 117.37 30.8821C117.37 29.935 116.764 29.4615 115.584 29.4615H114.405V32.1675H115.652Z" fill="#1D1A55"/>
<path d="M124.009 35.8882L119.932 30.2056C119.932 30.4424 119.932 30.713 119.932 30.9836V35.8882H119.056V28.6159H119.797L123.874 34.2308C123.874 33.994 123.874 33.7572 123.874 33.4866V28.582H124.751V35.8544H124.009V35.8882Z" fill="#1D1A55"/>
<path d="M131.355 35.8881L130.412 33.7571H127.076L126.132 35.8881H125.188L128.423 28.6157H129.131L132.366 35.8881H131.355ZM130.041 32.9115L129.333 31.2879C129.165 30.9496 128.929 30.4084 128.76 29.9687C128.592 30.3746 128.356 30.9158 128.188 31.2879L127.48 32.9453H130.041V32.9115Z" fill="#1D1A55"/>
<path d="M137.657 35.8882L133.579 30.2056C133.579 30.4424 133.579 30.713 133.579 30.9836V35.8882H132.703V28.6159H133.444L137.522 34.2308C137.522 33.994 137.522 33.7572 137.522 33.4866V28.582H138.398V35.8544H137.657V35.8882Z" fill="#1D1A55"/>
<path d="M142.779 35.9559C140.656 35.9559 139.072 34.3661 139.072 32.2013C139.072 30.0027 140.589 28.4468 142.779 28.4468C144.531 28.4468 145.61 29.4615 146.048 30.3748L146.183 30.6454L145.34 30.8822L145.239 30.6792C145.104 30.341 144.464 29.2924 142.813 29.2924C141.094 29.2924 139.948 30.4424 139.948 32.1675C139.948 33.8926 141.094 35.0426 142.779 35.0426C143.925 35.0426 144.902 34.4676 145.306 33.4867L145.374 33.3176L146.25 33.4867L146.115 33.7911C145.576 35.1779 144.329 35.9559 142.779 35.9559Z" fill="#1D1A55"/>
<path d="M146.924 35.8882V28.582H151.81V29.4615H147.8V31.6263H150.968V32.5057H147.8V35.0088H151.81V35.8882H146.924Z" fill="#1D1A55"/>
<path d="M157.303 35.9559C155.618 35.9559 154.607 35.1441 154.607 33.8249C154.607 33.047 154.978 32.3705 155.585 32.0322C155.012 31.694 154.709 31.1189 154.709 30.4086C154.709 29.1571 155.618 28.4468 157.202 28.4468C158.752 28.4468 159.662 29.1233 159.864 30.4424L159.898 30.6792L159.089 30.916L159.056 30.6454C158.887 29.7321 158.314 29.2924 157.202 29.2924C156.191 29.2924 155.585 29.6983 155.585 30.3748C155.585 31.1528 156.191 31.5925 157.202 31.5925H161.179V32.4381H159.932V33.2837H159.965V33.5543C159.999 35.1441 159.056 35.9559 157.303 35.9559ZM157.27 32.4719C156.158 32.4719 155.517 32.9455 155.517 33.7911C155.517 34.9073 156.495 35.1441 157.303 35.1441C158.516 35.1441 159.056 34.6367 159.056 33.5205V32.4381H157.472V32.4719H157.27Z" fill="#1D1A55"/>
<path d="M169.434 35.8881L168.491 33.7571H165.155L164.211 35.8881H163.268L166.503 28.6157H167.21L170.445 35.8881H169.434ZM168.12 32.9115L167.412 31.2879C167.244 30.9496 167.008 30.4084 166.84 29.9687C166.671 30.3746 166.435 30.9158 166.267 31.2879L165.559 32.9453H168.12V32.9115Z" fill="#1D1A55"/>
<path d="M170.782 35.8881V28.6157H173.141C175.433 28.6157 176.949 30.104 176.949 32.2688C176.949 34.4674 175.466 35.8881 173.175 35.8881H170.782ZM173.006 35.0086L173.175 34.9748C174.59 34.9748 176.073 34.2645 176.073 32.235C176.073 30.5099 174.927 29.4613 173.074 29.4613H171.658V35.0086H173.006Z" fill="#1D1A55"/>
<path d="M183.183 35.8882V31.6263H183.217C183.217 31.288 183.217 30.8821 183.217 30.5101C183.082 30.7468 182.914 31.0513 182.745 31.3895L181.161 34.197H180.588L179.005 31.4233C178.802 31.0851 178.634 30.7807 178.499 30.4762C178.499 30.9836 178.499 31.5248 178.499 31.863V35.8544H177.623V28.582H178.398L180.858 32.9793L183.318 28.582H184.093V35.8544H183.183V35.8882V35.8882Z" fill="#1D1A55"/>
<path d="M186.081 28.582H185.205V35.8544H186.081V28.582Z" fill="#1D1A55"/>
<path d="M192.113 35.8882L188.035 30.2056C188.035 30.4424 188.035 30.713 188.035 30.9836V35.8882H187.159V28.6159H187.901L191.978 34.2308C191.978 33.994 191.978 33.7572 191.978 33.4866V28.582H192.854V35.8544H192.113V35.8882Z" fill="#1D1A55"/>
<path d="M194.843 28.582H193.967V35.8544H194.843V28.582Z" fill="#1D1A55"/>
<path d="M198.28 36.0234C196.595 36.0234 195.618 35.2454 195.517 33.8586V33.6557L196.393 33.3174V33.6557C196.426 34.9748 197.774 35.1101 198.347 35.1101C199.426 35.1101 199.965 34.7042 199.965 33.8924C199.965 32.8777 199.122 32.7086 198.314 32.5733C198.212 32.5395 198.145 32.5395 198.078 32.5395C197.168 32.3365 195.786 32.0321 195.786 30.4761C195.786 29.2246 196.662 28.4805 198.145 28.4805C199.56 28.4805 200.47 29.157 200.706 30.3408L200.74 30.5776L199.897 30.8144L199.83 30.5438C199.628 29.732 199.089 29.3599 198.078 29.3599C197.067 29.3599 196.561 29.732 196.561 30.4423C196.561 31.2879 197.303 31.5247 198.28 31.7277H198.314C199.358 31.9306 200.773 32.235 200.773 33.9263C200.773 35.2793 199.897 36.0234 198.28 36.0234Z" fill="#1D1A55"/>
<path d="M203.132 35.8882V29.4615H200.706V28.582H206.435V29.4615H204.042V35.8882H203.132Z" fill="#1D1A55"/>
<path d="M211.085 35.8882L209.4 32.9793H208.019V35.8544H207.143V28.582H209.232C210.95 28.582 211.928 29.4277 211.928 30.8821C211.928 31.9307 211.422 32.6072 210.378 32.8778L212.13 35.8882H211.085ZM209.232 32.1675C210.445 32.1675 210.984 31.7616 210.984 30.8821C210.984 29.935 210.378 29.4615 209.198 29.4615H207.985V32.1675H209.232Z" fill="#1D1A55"/>
<path d="M218.128 35.8881L217.184 33.7571H213.848L212.904 35.8881H211.961L215.196 28.6157H215.904L219.139 35.8881H218.128ZM216.813 32.9115L216.106 31.2879C215.937 30.9496 215.701 30.4084 215.533 29.9687C215.364 30.3746 215.129 30.9158 214.96 31.2879L214.252 32.9115H216.813Z" fill="#1D1A55"/>
<path d="M220.385 35.8882V29.4615H217.959V28.582H223.688V29.4615H221.261V35.8882H220.385Z" fill="#1D1A55"/>
<path d="M225.238 28.582H224.362V35.8544H225.238V28.582Z" fill="#1D1A55"/>
<path d="M229.652 36.0236C227.529 36.0236 225.945 34.4338 225.945 32.2352C225.945 31.1528 226.282 30.2395 226.956 29.5292C227.63 28.8189 228.574 28.4468 229.618 28.4468C231.741 28.4468 233.325 30.0366 233.325 32.2352C233.325 34.4338 231.775 36.0236 229.652 36.0236ZM229.652 29.3601C227.967 29.3601 226.788 30.5439 226.788 32.2352C226.788 33.9264 227.967 35.1103 229.652 35.1103C231.337 35.1103 232.516 33.9264 232.516 32.2352C232.516 30.5439 231.337 29.3601 229.652 29.3601Z" fill="#1D1A55"/>
<path d="M238.987 35.8882L234.909 30.2056C234.909 30.4424 234.909 30.713 234.909 30.9836V35.8882H234.033V28.6159H234.775L238.852 34.2308C238.852 33.994 238.852 33.7572 238.852 33.4866V28.582H239.728V35.8544H238.987V35.8882Z" fill="#1D1A55"/>
</g>
<defs>
<clipPath id="clip0">
<rect width="239.728" height="36.0235" fill="white"/>
</clipPath>
</defs>
</svg>
