<svg width="1118" height="168" viewBox="0 0 1118 168" fill="none" xmlns="http://www.w3.org/2000/svg">
<path d="M247.99 13.093V103.009H236.99V13.093H202.416V2.05078H284.136V13.093H247.99Z" fill="white"/>
<path d="M340.555 0C369.943 0 392.887 21.138 392.887 52.5296C392.887 84.0789 369.943 105.217 340.555 105.217C311.01 105.217 288.222 84.0789 288.222 52.5296C288.222 21.138 311.01 0 340.555 0ZM340.555 93.8592C363.185 93.8592 380.943 78.2423 380.943 52.5296C380.943 26.8169 363.028 11.2 340.555 11.2C317.767 11.2 300.166 26.9746 300.166 52.5296C300.009 78.2423 317.767 93.8592 340.555 93.8592Z" fill="white"/>
<path d="M456.378 0C485.766 0 508.71 21.138 508.71 52.5296C508.71 84.0789 485.766 105.217 456.378 105.217C426.833 105.217 404.045 84.0789 404.045 52.5296C404.202 21.138 426.99 0 456.378 0ZM456.378 93.8592C479.008 93.8592 496.767 78.2423 496.767 52.5296C496.767 26.8169 478.851 11.2 456.378 11.2C433.59 11.2 415.989 26.9746 415.989 52.5296C415.989 78.2423 433.748 93.8592 456.378 93.8592Z" fill="white"/>
<path d="M524.583 2.05078H535.584V91.9663H589.017V103.009H524.583V2.05078Z" fill="white"/>
<path d="M608.189 73.6676C609.29 88.1803 621.233 94.6479 636.635 94.6479C651.25 94.6479 660.208 88.6535 660.208 76.507C660.208 59.9436 643.549 58.9972 630.977 56.3155C617.304 53.1605 599.703 48.2704 599.703 27.7633C599.703 10.0957 612.59 0.157715 633.806 0.157715C652.507 0.157715 666.337 7.88729 670.737 25.2394L659.579 28.2366C656.908 17.0366 648.578 10.569 633.806 10.569C619.19 10.569 611.804 16.8788 611.804 27.1324C611.804 40.5408 624.534 43.538 638.835 46.3774C653.764 49.2169 672.309 54.107 672.309 76.3493C672.309 95.4366 659.108 105.059 636.635 105.059C619.662 105.059 600.175 99.3803 597.031 76.507L608.189 73.6676Z" fill="white"/>
<path d="M733.599 103.009V76.1916H681.738V65.1494L727.784 2.05078H744.6V66.7268H760.315V76.1916H744.6V103.009H733.599ZM733.599 12.6198H733.285L693.367 66.4113L693.682 66.7268H733.599L733.756 33.7578L733.599 12.6198Z" fill="white"/>
<path d="M776.031 2.05078H843.607V13.093H787.032V44.6423H831.035V55.6846H787.032V91.9663H843.607V103.009H776.031V2.05078Z" fill="white"/>
<path d="M894.211 103.009L854.137 2.05078H867.181L887.768 55.0536C895.94 76.1916 900.969 89.6001 901.126 90.0733H901.44C901.598 89.6001 906.47 76.3494 914.484 55.8423L935.543 2.05078H948.273L908.198 103.009H894.211Z" fill="white"/>
<path d="M961.474 2.05078H1029.05V13.093H972.475V44.6423H1016.48V55.6846H972.475V91.9663H1029.05V103.009H961.474V2.05078Z" fill="white"/>
<path d="M1080.75 63.5719C1078.55 63.7297 1073.68 63.5719 1071.48 63.5719H1058.91V103.009H1047.91V2.05078H1078.24C1101.81 2.05078 1115.8 13.724 1115.8 33.6001C1115.8 49.217 1107 58.3663 1092.7 61.3635L1117.69 103.009H1103.54L1080.75 63.5719ZM1079.34 54.1071C1093.96 54.1071 1103.86 48.586 1103.86 34.0733C1103.86 19.7184 1094.43 13.093 1078.71 13.093H1058.91V54.1071H1079.34Z" fill="white"/>
<path d="M0 2.05078V167.369H164.698V2.05078H0ZM90.5212 154.592H46.675C43.5319 147.493 36.4599 142.287 27.9736 142.287C22.0017 142.287 16.5013 144.811 12.7295 149.07V101.431C14.9297 100.958 17.287 100.485 19.4872 100.169L22.9446 81.7127C24.5162 81.555 26.0877 81.555 27.6593 81.555C29.2308 81.555 30.8024 81.555 32.3739 81.7127L35.8313 100.169C38.503 100.485 41.1746 101.116 43.8462 101.747L54.0613 85.9719C57.0472 87.0761 60.0332 88.1803 62.862 89.6001L59.4046 108.214C61.7619 109.634 63.962 111.054 66.1622 112.789L81.7206 102.378C84.0779 104.428 86.278 106.794 88.4782 109.161L78.106 124.778C79.6775 126.986 81.2491 129.194 82.6635 131.561L101.051 127.775C102.465 130.614 103.565 133.611 104.665 136.609L88.9497 146.862C89.5783 149.228 90.0498 151.91 90.5212 154.592ZM151.969 36.2818C145.997 40.0677 141.911 46.693 141.911 54.5803C141.911 62.3099 145.997 69.093 151.969 72.8789V120.045C150.083 119.73 148.197 119.256 146.311 118.783L135.625 135.347C132.482 134.242 129.496 132.98 126.51 131.561L130.439 112.158C127.924 110.738 125.567 109.161 123.367 107.425L107.022 118.625C104.508 116.417 102.151 114.051 99.9505 111.527L111.109 95.1212C109.38 92.9127 107.808 90.5465 106.394 88.0226L87.0638 91.9663C85.6494 88.9691 84.3922 85.9719 83.2921 82.817L99.7934 72.0902C99.0076 69.4085 98.5361 66.5691 98.2218 63.7296L78.8918 60.1015C78.7346 58.524 78.7346 56.7888 78.7346 55.0536C78.7346 53.3184 78.7346 51.7409 78.8918 50.0057L98.2218 46.3775C98.5361 43.5381 99.1647 40.6987 99.7934 38.017L82.9778 26.5015C84.0779 23.3466 85.3351 20.3494 86.7495 17.3522L106.08 21.1381C107.337 18.9297 108.751 16.8789 110.323 14.8282H151.969V36.2818Z" fill="white"/>
<path d="M205.559 133.296H201.473V167.211H205.559V133.296Z" fill="white"/>
<path d="M210.43 167.369V133.454H221.431C232.118 133.454 239.347 140.394 239.347 150.49C239.347 160.744 232.432 167.369 221.746 167.369H210.43ZM220.96 163.268L221.746 163.11C228.346 163.11 235.261 159.797 235.261 150.332C235.261 142.287 229.918 137.397 221.274 137.397H214.674V163.268H220.96Z" fill="white"/>
<path d="M242.49 167.369V133.296H265.12V137.397H246.419V147.493H261.349V151.594H246.419V163.268H265.12V167.369H242.49Z" fill="white"/>
<path d="M291.837 167.369L272.821 140.868C272.821 141.972 272.821 143.234 272.821 144.496V167.369H268.735V133.454H272.192L291.208 159.64C291.208 158.535 291.208 157.431 291.208 156.169V133.296H295.294V167.211H291.837V167.369Z" fill="white"/>
<path d="M309.595 167.369V137.397H298.28V133.296H324.996V137.397H313.838V167.369H309.595Z" fill="white"/>
<path d="M332.225 133.296H328.139V167.211H332.225V133.296Z" fill="white"/>
<path d="M346.841 167.369V137.397H335.211V133.296H362.399V137.397H350.927V167.369H346.841Z" fill="white"/>
<path d="M374.5 167.369V152.225L360.985 133.454H366.014L374.5 145.127L376.7 147.966C377.172 147.178 377.957 146.231 378.743 145.127L387.387 133.296H392.259L378.743 152.068V167.369H374.5Z" fill="white"/>
<path d="M419.289 168C409.388 168 402.002 160.586 402.002 150.333C402.002 139.921 409.074 132.665 419.446 132.665C427.618 132.665 432.647 137.397 434.69 141.657L435.319 142.919L431.233 144.023L430.762 143.234C429.819 141.341 426.833 136.766 419.446 136.766C411.431 136.766 406.088 142.13 406.088 150.175C406.088 158.22 411.431 163.741 419.289 163.741C425.261 163.741 429.661 160.271 431.076 157.904V153.488H420.861V149.544H435.005V167.527H431.076V163.583C428.719 165.634 424.947 168 419.289 168Z" fill="white"/>
<path d="M454.649 168C444.748 168 437.362 160.586 437.362 150.333C437.362 140.079 444.591 132.665 454.649 132.665C464.707 132.665 471.936 140.079 471.936 150.333C471.936 160.586 464.55 168 454.649 168ZM454.649 136.924C446.791 136.924 441.291 142.445 441.291 150.333C441.448 158.378 446.791 163.741 454.649 163.741C462.507 163.741 468.007 158.22 468.007 150.333C468.007 142.445 462.507 136.924 454.649 136.924Z" fill="white"/>
<path d="M484.351 167.369L470.207 133.454H474.608L482.151 151.594C483.723 155.38 484.98 158.535 485.923 160.744C486.866 158.535 488.28 155.065 489.695 151.752L497.395 133.611H501.638L487.652 167.527H484.351V167.369Z" fill="white"/>
<path d="M503.21 167.369V133.296H525.84V137.397H507.296V147.493H522.069V151.594H507.296V163.268H525.84V167.369H503.21Z" fill="white"/>
<path d="M547.842 167.369L540.141 153.803H533.698V167.211H529.612V133.296H539.198C547.213 133.296 551.771 137.24 551.771 144.023C551.771 148.913 549.413 152.068 544.542 153.33L552.714 167.369H547.842ZM539.356 150.017C545.013 150.017 547.37 148.124 547.37 144.023C547.37 139.606 544.542 137.397 539.041 137.397H533.541V150.017H539.356Z" fill="white"/>
<path d="M578.33 167.369L559.314 140.868C559.314 141.972 559.314 143.234 559.314 144.496V167.369H555.228V133.454H558.686L577.701 159.64C577.701 158.535 577.701 157.431 577.701 156.169V133.296H581.787V167.211H578.33V167.369Z" fill="white"/>
<path d="M612.59 167.369L608.189 157.431H592.631L588.231 167.369H583.83L598.917 133.454H602.218L617.304 167.369H612.59ZM606.461 153.487L603.16 145.916C602.375 144.338 601.275 141.814 600.489 139.763C599.703 141.656 598.603 144.18 597.817 145.916L594.517 153.645H606.461V153.487Z" fill="white"/>
<path d="M641.978 167.369L622.962 140.868C622.962 141.972 622.962 143.234 622.962 144.496V167.369H618.876V133.454H622.333L641.349 159.64C641.349 158.535 641.349 157.431 641.349 156.169V133.296H645.435V167.211H641.978V167.369Z" fill="white"/>
<path d="M665.865 167.685C655.964 167.685 648.578 160.271 648.578 150.175C648.578 139.921 655.65 132.665 665.865 132.665C674.037 132.665 679.066 137.397 681.109 141.657L681.738 142.919L677.809 144.023L677.338 143.076C676.709 141.499 673.723 136.609 666.022 136.609C658.007 136.609 652.664 141.972 652.664 150.017C652.664 158.062 658.007 163.426 665.865 163.426C671.209 163.426 675.766 160.744 677.652 156.169L677.966 155.381L682.052 156.169L681.424 157.589C678.909 164.057 673.094 167.685 665.865 167.685Z" fill="white"/>
<path d="M685.195 167.369V133.296H707.983V137.397H689.281V147.493H704.054V151.594H689.281V163.268H707.983V167.369H685.195Z" fill="white"/>
<path d="M733.599 167.685C725.741 167.685 721.027 163.899 721.027 157.747C721.027 154.119 722.755 150.964 725.584 149.386C722.912 147.809 721.498 145.127 721.498 141.814C721.498 135.978 725.741 132.665 733.127 132.665C740.357 132.665 744.6 135.82 745.543 141.972L745.7 143.076L741.928 144.181L741.771 142.919C740.985 138.659 738.314 136.609 733.127 136.609C728.413 136.609 725.584 138.502 725.584 141.657C725.584 145.285 728.413 147.335 733.127 147.335H751.672V151.279H745.857V155.223H746.014V156.485C746.171 163.899 741.771 167.685 733.599 167.685ZM733.442 151.437C728.256 151.437 725.27 153.645 725.27 157.589C725.27 162.795 729.827 163.899 733.599 163.899C739.257 163.899 741.771 161.533 741.771 156.327V151.279H734.385V151.437H733.442Z" fill="white"/>
<path d="M790.175 167.369L785.774 157.431H770.216L765.816 167.369H761.415L776.502 133.454H779.802L794.889 167.369H790.175ZM784.046 153.487L780.745 145.916C779.96 144.338 778.86 141.814 778.074 139.763C777.288 141.656 776.188 144.18 775.402 145.916L772.102 153.645H784.046V153.487Z" fill="white"/>
<path d="M796.461 167.369V133.454H807.462C818.148 133.454 825.22 140.394 825.22 150.49C825.22 160.744 818.306 167.369 807.619 167.369H796.461ZM806.833 163.268L807.619 163.11C814.22 163.11 821.134 159.797 821.134 150.332C821.134 142.287 815.791 137.397 807.147 137.397H800.547V163.268H806.833Z" fill="white"/>
<path d="M854.294 167.369V147.493H854.451C854.451 145.916 854.451 144.023 854.451 142.287C853.823 143.392 853.037 144.811 852.251 146.389L844.865 159.482H842.193L834.807 146.547C833.864 144.969 833.078 143.549 832.449 142.13C832.449 144.496 832.449 147.02 832.449 148.597V167.211H828.363V133.296H831.978L843.45 153.803L854.923 133.296H858.537V167.211H854.294V167.369Z" fill="white"/>
<path d="M867.809 133.296H863.723V167.211H867.809V133.296Z" fill="white"/>
<path d="M895.94 167.369L876.924 140.868C876.924 141.972 876.924 143.234 876.924 144.496V167.369H872.838V133.454H876.296L895.311 159.64C895.311 158.535 895.311 157.431 895.311 156.169V133.296H899.397V167.211H895.94V167.369Z" fill="white"/>
<path d="M908.67 133.296H904.583V167.211H908.67V133.296Z" fill="white"/>
<path d="M924.699 168C916.842 168 912.284 164.372 911.813 157.904V156.958L915.899 155.381V156.958C916.056 163.11 922.342 163.741 925.014 163.741C930.043 163.741 932.557 161.848 932.557 158.062C932.557 153.33 928.628 152.541 924.857 151.91C924.385 151.752 924.071 151.752 923.756 151.752C919.513 150.806 913.07 149.386 913.07 142.13C913.07 136.293 917.156 132.823 924.071 132.823C930.671 132.823 934.914 135.978 936.014 141.499L936.172 142.603L932.243 143.707L931.928 142.445C930.986 138.659 928.471 136.924 923.756 136.924C919.042 136.924 916.684 138.659 916.684 141.972C916.684 145.916 920.142 147.02 924.699 147.966H924.857C929.728 148.913 936.329 150.333 936.329 158.22C936.329 164.53 932.243 168 924.699 168Z" fill="white"/>
<path d="M947.33 167.369V137.397H936.014V133.296H962.731V137.397H951.573V167.369H947.33Z" fill="white"/>
<path d="M984.418 167.369L976.561 153.803H970.117V167.211H966.031V133.296H975.775C983.79 133.296 988.347 137.24 988.347 144.023C988.347 148.913 985.99 152.068 981.118 153.33L989.29 167.369H984.418ZM975.775 150.017C981.432 150.017 983.947 148.124 983.947 144.023C983.947 139.606 981.118 137.397 975.618 137.397H969.96V150.017H975.775Z" fill="white"/>
<path d="M1017.26 167.369L1012.86 157.431H997.305L992.905 167.369H988.504L1003.59 133.454H1006.89L1021.98 167.369H1017.26ZM1011.13 153.487L1007.83 145.916C1007.05 144.338 1005.95 141.814 1005.16 139.763C1004.38 141.656 1003.28 144.18 1002.49 145.916L999.191 153.487H1011.13Z" fill="white"/>
<path d="M1027.79 167.369V137.397H1016.48V133.296H1043.19V137.397H1031.88V167.369H1027.79Z" fill="white"/>
<path d="M1050.42 133.296H1046.34V167.211H1050.42V133.296Z" fill="white"/>
<path d="M1071.01 168C1061.11 168 1053.72 160.586 1053.72 150.333C1053.72 145.285 1055.3 141.026 1058.44 137.713C1061.58 134.4 1065.98 132.665 1070.85 132.665C1080.75 132.665 1088.14 140.079 1088.14 150.333C1088.14 160.586 1080.91 168 1071.01 168ZM1071.01 136.924C1063.15 136.924 1057.65 142.445 1057.65 150.333C1057.65 158.22 1063.15 163.741 1071.01 163.741C1078.87 163.741 1084.37 158.22 1084.37 150.333C1084.37 142.445 1078.87 136.924 1071.01 136.924Z" fill="white"/>
<path d="M1114.54 167.369L1095.53 140.868C1095.53 141.972 1095.53 143.234 1095.53 144.496V167.369H1091.44V133.454H1094.9L1113.91 159.64C1113.91 158.535 1113.91 157.431 1113.91 156.169V133.296H1118V167.211H1114.54V167.369Z" fill="white"/>
</svg>
